<?xml version="1.0" encoding="UTF-8"?>
<svg viewBox="0 0 180 190" xmlns="http://www.w3.org/2000/svg">
<path d="m102.13 187.04c40.72 0 73.729-33.358 73.729-74.506 0-41.148-33.009-74.506-73.729-74.506-40.72 0-73.73 33.357-73.73 74.506 0 41.148 33.01 74.506 73.73 74.506z" fill="#FBF1A9"/>
<path d="m24.117 4.5671c-7.4229-1.0206-20.442-0.08308-19.855 10.157 1.0479 10.409 7.7777 19.139 10.361 29.177 1.7463 5.6433 4.6157 10.978 4.8108 16.979 2.2518 10.033 10.153 17.467 16.797 24.929 6.3989 7.0618 10.879 15.578 16.705 23.076 5.6158 5.423 16.558-0.672 14.792-8.194-3.3316-6.2489-7.8968-11.968-11.561-18.108-1.4575-1.9195-2.8042-3.9658-3.9076-6.0887 5.974 0.6441 12.106 1.2022 18.125 2.045 3.337 3.1611 5.9453 7.2408 8.9973 10.761 5.675 6.8852 10.993 14.097 16.893 20.777 5.327 3.755 14.021-1.618 11.886-8.176-4.777-8.5031-10.52-16.427-15.824-24.608-2.8186-3.922-5.2273-8.228-8.2703-11.93-5.9691-5.2967-11.958-10.596-17.929-15.901-3.9516-3.5746-8.1125-6.9325-11.453-11.14-4.0201-4.5222-8.0273-9.0791-11.899-13.717-2.981-3.7402-3.8315-8.5556-5.472-12.804-3.5414-3.8573-8.3523-5.4844-13.195-7.2355zm-3.6387 68.18c-3.219 1.8772-5.3918 7.3114-4.147 10.38 3.1538 1.4647 6.7143 2.2495 9.7066 3.7952-1.882 2.4126-2.7168 6.5252-1.0061 9.25 5.875 2.2059 12.856 2.3321 18.66 4.624 0.2119-1.7687-3.3139-4.167-3.9637-6.0661-4.2574-7.2309-9.4934-10.555-14.332-17.361-1.56-1.4096-2.5156-4.2633-4.4939-4.8573l-0.4244 0.2353zm35.936 5.9761c1.18 2.7393 3.6321 5.6834 5.0683 8.308 3.6854-1.8467 3.7888-6.9923 3.7888-6.9923-2.4517-0.507-6.6454-0.8292-8.8571-1.3157zm71.228 15.531c-0.155 1.7388-1.614 6.0699-2.642 9.2459-1.275 2.633 1.169 5.342 1.541 1.326 1.015-3.978 2.779-6.762 2.972-10.51-0.562-0.6386-1.146-0.6283-1.871-0.0622zm-48.242 30.297c-2.5271 4.67 4.5169 0.784 6.9345 0.877 2.6549-0.522 5.5399 0.9 7.983 3e-3 1.9351-2.219-1.3562-1.913-3.1664-1.85-3.8987-0.269-8.0199-0.24-11.751 0.97zm73.516-13.368c-4.249 1.799-8.714 3.579-13.08 4.837-1.407 2.989 6.865 0.067 9.027-1.172 2.953-0.642 7.606-2.942 4.638-3.848l-0.325-3e-3 -0.26 0.186zm-55.862 33.095c-4.0526 0.722-7.0652 3.332-10.719 4.15-2.1811 3.991 4.0887 1.952 5.7249 0 2.2012-1.341 8.7581-2.865 6.736-4.592-0.5871-0.219-1.2338 0.246-1.7423 0.442zm49.23-4.506c-1.334 1.665 2.201 1.533 4.728 1.303 2.753-0.715 7.628 0.805 8.462 0.094 0.122-1.878-3.411-1.784-5.336-1.772-2.629 0.208-5.367 0.036-7.854 0.375zm-35.291 14.436c0.549 4.836-3.203 9.35-5.264 13.761 0.877 4.142 4.973-4.818 6.272-7.469 1.303-2.283 2.417-6.701 0.608-7.17-0.583 0.099-1.445 0.142-1.616 0.878zm15.651-2.421c-1.351 1.153 2.993 4.864 4.139 7.29 1.498 1.613 3.955 5.532 3.955 5.532 1.31-2.791-1.973-6.54-3.237-9.109-2-3-4.857-3.713-4.857-3.713z" clip-rule="evenodd" fill="#555" fill-rule="evenodd"/>
</svg>
