<?xml version="1.0" encoding="UTF-8"?>
<svg viewBox="0 0 180 190" xmlns="http://www.w3.org/2000/svg">
<rect width="180" height="190" fill="#fff"/>
<path d="M180 0H0V190H180V0Z" fill="#fff"/>
<path d="m95.751 184.21c-41.576 0-75.279-32.206-75.279-71.934 0-39.728 33.704-71.934 75.279-71.934s75.28 32.206 75.28 71.934c0 39.728-33.704 71.934-75.28 71.934z" fill="#FBF1A9"/>
<path d="m85.573 118.51c1.9793 2.041 3.8563 3.85 5.5246 5.655 2.1589 0.158 3.9539-2.974 5.623-2.306 1.4587 1.006 3.3545 1.946 3.6945 3.689 0.011 1.03-0.8716 1.506-1.4415 2.175-3.0377 1.209-5.3126 2.973-7.053 5.354-0.6142 0.756-1.9065 1.141-2.6027 0.256-1.636-1.897-3.0005-3.928-4.5324-5.684-1.5131 0.731-2.2829 2.486-3.1711 3.623-0.6914 0.877-1.8367 0.931-2.8091 0.41-1.7273-2.142-3.9764-3.385-5.7594-5.123-0.206-0.962 0.015-2.053 1.0654-2.444 3.2368-1.534 5.7867-3.696 8.7037-5.179 0.8499-0.412 1.8123-1.14 2.7273-0.48l0.0307 0.054z" clip-rule="evenodd" fill="#19A974" fill-rule="evenodd"/>
<path d="m141.73 21.323c5.197 2.88 2.935 12.235-2.983 12.431-8.287-1.2358-24.555-4.7609-25.067-3.3374-0.442 2.2415 6.154 3.3733 9.3 4.6603 8.368 3.3372 16.494 6.514 24.746 10.047 4.5 3.7936 1.165 12.313-4.665 11.972-7.921-2.6294-15.387-6.497-23.133-9.6024-1.909-0.547-10.981-5.6092-8.139-2.4539 7.176 5.218 14.103 10.79 21.261 16.09 2.865 2.3857 5.9 4.4724 8.787 6.8018 4.715 4.9344-2.551 13.777-8.219 10.309-5.883-4.5463-11.865-9.0565-17.745-13.552-2.564-1.8028-5.103-4.1592-7.659-5.7219-0.359 2.2166 0.822 4.732 1.062 7.0845 0.512 3.8543 1.618 7.6917 1.963 11.504-3.378 6.5226-5.645 13.642-9.242 20.011-4.768 4.0289-12.772-2.0588-10.157-7.7355 1.1291-6.1263 4.8479-11.992 4.6376-18.206-1.3942-4.8391-2.0177-10.467-6.4651-13.599-3.2186-2.988-9.1871-3.8124-11.802 0.4449-2.6673 6.9755 0.6187 14.496 3.7589 20.773 4.7982 6.2838 1.4518 16.135-5.3886 19.346-3.1615 1.6206-4.1822-2.4608-4.8321-4.7454-2.6447-9.9845-7.8768-18.976-14.126-27.118-3.6753-5.1316-5.2796-11.256-6.6428-17.298-0.5004-2.4992-16.747-2.3516-23.825-7.1355-2.4543-1.8105-3.4947-2.2646-5.8939-5.5534-1.6682-2.743-2.0868-5.4681-1.7037-9.3271 0.5382-4.79 2.4642-9.5185 5.1993-13.414 3.3917-3.8797 7.5486-7.0945 12.38-8.7003 9.6353-1.9102 18.626 3.6309 27.778 5.6693 12.988 1.9223 26.07 3.3085 39.07 5.1289 11.772 1.4402 23.525 2.976 35.305 4.522l1.247 0.259 1.193 0.4463zm-20.256 88.423c1.589 2.337-4.618 5.882-5.979 5.022-1.548-1.524 4.371-4.908 5.979-5.022zm-64.4-12.932c1.3357 1.8699 4.7814 4.1436 3.7799 6.6266-1.4318 1.528-3.1931-2.808-4.7307-4.1856-2.1193-1.1968-1.0187-3.9495 0.9508-2.441zm69.332 36.683c2.603 3.923-4.101 2.424-6.152 1.481-2.983 0.371-11.319-3.061-4.986-3.762 3.624 1.198 7.441 1.991 11.138 2.281zm-83.063-7.467c1.9717 0.889 8.8589 2.233 5.2863 4.773-2.9748-1.738-10.224-1.631-10.425-5.651 1.1877-1.833 3.6303 0.482 5.1386 0.878zm58.488 26.341c1.831 2.618 4.83 6.177 4.418 9.347-2.859 1.813-1.91-2.813-6.9571-7.95-0.0393-1.225 1.4621-2.312 2.5391-1.397zm-32.196-2.609c2.3377 3.459-3.6561 1.684-5.6492 4.617-2.9896 2.872-4.5774-0.646-1.3069-2.365 1.992-0.998 4.5749-3.407 6.9561-2.252z" clip-rule="evenodd" fill="#555" fill-rule="evenodd"/>
</svg>
