<?xml version="1.0" encoding="UTF-8"?>
<svg viewBox="0 0 180 190" xmlns="http://www.w3.org/2000/svg">
<path d="m83.883 175.49c40.253 0 72.884-31.181 72.884-69.645 0-38.463-32.631-69.644-72.884-69.644-40.252 0-72.883 31.181-72.883 69.644 0 38.464 32.631 69.645 72.883 69.645z" fill="#FBF1A9"/>
<path d="m25.021 123.95c-0.3619-1.402-1.8903 0.091-1.8121 1.536 0.292 5.394 1.4003 8.606 6.3283 16.204 7.1549 10.032 11.001 11.039 17.519 13.771 2.5461 1.067 4.3962 0.406 3.5452 0.039-5.8135-2.508-12.018-4.681-18.715-14.07-4.8039-5.544-5.9814-11.587-6.8654-17.48z" fill="#555"/>
<path d="m38.392 125.48c-0.6219-1.577-1.9785-0.576-1.8083-0.072 1.7514 5.185 1.9812 6.292 6.2837 10.845 2.8054 2.428 6.4446 5.547 12.161 7.441 3.1719 1.051 3.1122-0.978 2.4634-1.129-5.8993-1.372-8.4427-2.234-13.359-7.378-4.9946-5.226-4.3347-6.143-5.7407-9.707z" fill="#555"/>
<path d="m159.11 75.896c-2.449-6.323-1.584-0.7201-0.981 2.6349 1.213 6.7427 2.848 9.788 0.464 20.881-2.406 11.203-4.641 12.08-7.401 17.957-1.811 3.854 0.958 2.786 3.216-1.264 2.154-3.862 3.984-7.094 5.729-16.291 2.547-11.853 1.131-18.347-1.027-23.917z" fill="#555"/>
<path d="m143.74 81.074c-1.548-3.321-2.388-2.1345-1.091 1.8256 1.424 4.3446 2.911 6.1104 1.98 13.164-0.945 7.1674-2.244 7.3134-4.024 10.92-1.21 2.451-0.67 4.657 0.714 2.174 1.967-3.531 3.994-4.82 5.012-12.545 1.035-7.837-0.373-10.78-2.591-15.54z" fill="#555"/>
<path d="m57.615 12.816c-4.0261 0.6895-6.7762 4.8359-5.9778 8.7817 3.3514 8.0657 7.2187 15.942 10.79 23.936 2.5982 5.6341 4.8183 9.9347 7.4202 15.446 1.518 2.6077-3.585 3.5616-5.3644 0.0733-5.0478-10.814-9.855-21.757-14.983-32.528-1.8038-3.3411-6.1897-5.6243-9.7258-3.482-4.4036 1.7561-5.585 7.6883-3.0352 11.45 5.6603 12.238 11.227 24.55 16.874 36.777 1.2838 3.3241-2.2609 5.6526-4.2259 2.0262-4.3183-9.3189-8.4185-18.795-12.933-28.026-2.0188-2.3779-5.6668-3.7257-8.3612-1.8688-4.0094 1.6731-4.7075 7.1482-2.3297 10.44 3.8997 9.2601 8.406 18.289 12.35 27.546 4.7264 9.7694 8.7579 19.876 13.621 29.571 1.534 2.127 2.5773 4.715 4.5157 6.41 2.9289 3.595 6.589 6.412 10.895 7.996 1.9476 1.296 4.9942 1.527 7.2958 2.443 3.5559-8e-3 8.2889 0.68 12.148-0.378 3.1755-0.264 6.7051-1.303 9.7985-2.703 3.9828-1.575 7.4708-4.039 11.046-6.322 6.243-4.736 11.268-11.047 13.736-18.544 1.527-4.756 2.392-9.8945 2.577-14.764 0.175-3.6558 0.237-7.4499-0.032-11.284-0.088-4.3651-0.363-8.7251 0.183-13.186 0.464-6.8375 2.464-13.368 4.631-19.802 1.924-3.4838-0.894-6.0518-4.244-6.2945-2.713 0.384-5.921 0.8502-8.31 2.6864-5.322 3.4763-6.981 10.195-7.266 16.164 0.056 2.6018-1.489 8.7098-2.781 3.094-6.5484-14.238-13.058-28.539-19.608-42.795-1.9718-3.7976-7.3134-4.8704-10.674-2.2095-3.4843 2.271-3.802 7.3236-1.6395 10.641 5.253 11.412 12.68 27.227 14.924 33.413 0.6019 2.6145-3.705 2.339-5.5099-0.5236-6.179-13.51-11.77-27.062-18.07-40.507-1.5674-2.7311-4.6661-4.3492-7.7339-3.6769zm20.383 63.038c3.9622 1.2563 5.2026 5.9898 5.7711 9.6469 0.4038 4.468 3.4418 8.2591 3.1286 12.874 1.4249 4.2461-2.8972 6.2661-6.3538 5.5811-3.3215-1.688-2.1521-7.8231-4.7055-9.0794-4.6482-0.0563-1.1939 4.4979-0.3738 6.8714 1.9734 3.624-2.5189 6.574-5.5464 6.608-3.9097-1.572-3.7611-6.595-5.2659-9.9656-1.3725-3.973-2.8805-8.0552-3.4694-12.157-0.0266-2.5935 1.1137-6.6313 4.6807-5.2955 3.982 1.6728 4.3967 6.3058 5.8755 9.7965 6.5363 1.5736 2.4244-6.2014 1.5619-9.4497-0.7345-2.1338 2.3586-5.8161 4.697-5.4315zm14.499 0.1929c2.7287-0.0341 7.1224-1.7335 8.932 2.216 1.446 5.1088 0.797 10.558 1.675 15.792 1.47 3.8937-0.693 7.563-4.4797 8.669-5.1244 4.444-6.8453-3.5541-6.3889-7.4874-0.7879-5.1658-0.4548-10.65-2.0686-15.602-1.1999-1.657 0.4978-3.9421 2.3302-3.5873z" clip-rule="evenodd" fill="#555" fill-rule="evenodd"/>
</svg>
