<svg xmlns="http://www.w3.org/2000/svg" width="1440" height="400" fill="none"><path fill="#fff" d="M0 0h1440v400H0z"/><path fill="#F7BF08" d="M0 0h1440v400H0z"/><g clip-path="url(#clip0)"><path fill="#FDE28C" d="M472.75 399.546c-2.868-1.651-5.101-6.781-3.69-8.48 1.772-2.136 3.845-1.781 3.234.554-.383 1.466.162 2.241 2.094 2.975 2.925 1.112 3.178 1.913 1.362 4.309-.934 1.233-1.692 1.395-3 .642zm566.25-.718c0-.537.71-1.25 1.58-1.584.98-.374 1.43-.15 1.19.581-.5 1.494-2.77 2.318-2.77 1.003zm-191-1.249c0-.583.45-.781 1-.441s1 .816 1 1.059c0 .242-.45.441-1 .441s-1-.477-1-1.059zm-798.82-2.191c.25-1.763.97-2.25 3.32-2.25 2.35 0 3.07.487 3.32 2.25.28 1.979-.118 2.25-3.32 2.25s-3.6-.271-3.32-2.25zm180.82.25c-1.282-.829-1.246-.972.25-.985.963-.008 1.75.435 1.75.985 0 1.219-.113 1.219-2 0zm580.667-1.667c-1.166-1.166-.725-2.085 1.249-2.601 1.863-.487 4.084.854 4.084 2.468 0 .965-4.392 1.075-5.333.133zm542.363-.294c-.81-.512-1.17-1.236-.79-1.608.91-.915 3.76.248 3.76 1.537 0 1.27-1.04 1.295-2.97.071zM32.337 392.91c-4.28-.389-6.385-2.624-4.37-4.639.568-.569 1.033-2.095 1.033-3.393 0-2.019.398-2.294 2.75-1.905 5.639.934 8.25 1.916 8.25 3.104 0 .673 1.125 1.825 2.5 2.561s2.5 1.723 2.5 2.194c0 1.087-4.595 2.861-6.815 2.631-.927-.096-3.559-.345-5.849-.553zm136.33-3.939c-1.151-1.151-.729-2.333.833-2.333.825 0 1.5.675 1.5 1.5 0 1.561-1.183 1.984-2.333.833zM374 388.058c0-2.08 1.888-2.675 3.47-1.093 1.272 1.272 1.146 1.513-1.008 1.925-1.597.305-2.462.012-2.462-.832zm971.6-.02c-1.02-2.668-.69-3.139 1.9-2.645 2.98.57 3.21 1.794.6 3.191-1.46.78-2.04.652-2.5-.546zm-1134.1-.4c-.34-.55-.34-1.45 0-2 .931-1.507 5.209-1.2 5.83.417.849 2.214-4.536 3.676-5.83 1.583zm383.138-.5c.317-.825.967-1.5 1.444-1.5.478 0 .441-1.125-.082-2.5-.882-2.32-.736-2.5 2.025-2.5 1.978 0 2.975.503 2.975 1.5 0 .825-.502 1.5-1.117 1.5-.651 0-.917 1.041-.638 2.5.418 2.19.127 2.5-2.352 2.5-2.105 0-2.683-.384-2.255-1.5zm65.362.607c0-1.014 3.046-2.395 3.743-1.697.252.251.161.937-.202 1.523-.798 1.291-3.541 1.426-3.541.174zm176.691.171c-3.467-.521-3.027-2.661.636-3.094 2.137-.253 2.673.097 2.673 1.75 0 1.136-.113 1.999-.25 1.916-.138-.082-1.514-.34-3.059-.572zM652 383.079c0-.858.457-1.276 1.016-.931.559.345.758 1.047.441 1.559-.857 1.387-1.457 1.128-1.457-.628zm-464.657-2.989c-.344-.897.196-2.133 1.282-2.937 2.84-2.103 5.375-2.538 5.375-.921 0 .773-.45 1.406-1 1.406s-1 .9-1 2c0 2.427-3.759 2.792-4.657.452zm797.133.509c-1.008-1.631 1.231-3.654 2.566-2.319.724.723.598 1.412-.411 2.249-1.074.891-1.636.91-2.155.07zm-180.946-.913c-.863-1.396.237-3.048 2.029-3.048 1.836 0 1.851 1.415.03 2.926-.965.801-1.616.839-2.059.122zm102.686-1.893c-2.129-1.351-.412-3.915 2.277-3.401 2.07.396 2.233.712 1.209 2.352-1.321 2.115-1.649 2.214-3.486 1.049zm-763.756-5.234c-2.028-4.001-2.323-5.381-1.394-6.5 1.767-2.13 3.838-1.77 3.228.561-.383 1.466.162 2.241 2.094 2.975 1.437.547 2.612 1.252 2.612 1.568 0 .925-3.008 6.475-3.509 6.475-.251 0-1.615-2.286-3.031-5.079zm676.784 3.829c.637-1.941 5.756-2.222 5.756-.316 0 1.083-.951 1.566-3.083 1.566-2.019 0-2.942-.432-2.673-1.25zm-624.575-1.915c-2.343-1.312-2.078-3.481.805-6.591l2.474-2.668 2.831 2.712c1.557 1.492 3.604 2.712 4.549 2.712 1.591 0 1.6.18.122 2.436-1.237 1.888-2.443 2.425-5.354 2.385-2.067-.029-4.509-.473-5.427-.986zm193.831.165c-.34-.55-.34-1.45 0-2 .931-1.507 5.209-1.2 5.83.417.849 2.214-4.536 3.676-5.83 1.583zm-124-2c-.34-.55-.141-1 .441-1s1.059.45 1.059 1-.198 1-.441 1-.719-.45-1.059-1zm490.946-.087c-.369-.598-.152-1.607.483-2.242.872-.872 1.385-.79 2.097.337.519.821.95 1.829.959 2.242.023 1.155-2.782.888-3.539-.337zM213 370.721c0-1.228.646-2.083 1.573-2.083.932 0 1.442.68 1.25 1.667-.486 2.509-2.823 2.853-2.823.416zm483.5-.083c.34-.55.816-1 1.059-1s.441.45.441 1-.477 1-1.059 1-.781-.45-.441-1zm-433.291-3.037c-1.868-2.991-1.46-5.749.965-6.518 1.519-.482 2.573-.144 3.5 1.124 1.746 2.387 1.675 3.431-.233 3.431-.857 0-1.312.399-1.011.887.301.487-.028 1.364-.732 1.949-.944.783-1.598.554-2.489-.873zm1173.481 1.337c-2.15-.558-1.72-2.666.64-3.123 1.13-.218 1.67.352 1.67 1.75 0 1.14-.11 2.021-.25 1.957-.14-.064-1.06-.327-2.06-.584zM364.343 367.09c-.344-.897.196-2.133 1.282-2.937 2.84-2.103 5.375-2.538 5.375-.921 0 .773-.45 1.406-1 1.406s-1 .9-1 2c0 2.427-3.759 2.792-4.657.452zm218.324-.119c-1.151-1.15-.729-2.333.833-2.333.825 0 1.5.675 1.5 1.5 0 1.561-1.183 1.984-2.333.833zM1057 365.579c0-1.133.45-1.781 1-1.441.55.34 1 1.266 1 2.059 0 .793-.45 1.441-1 1.441s-1-.927-1-2.059zm-28 .166c0-1.014 3.05-2.395 3.74-1.697.25.251.16.937-.2 1.523-.8 1.291-3.54 1.426-3.54.174zm329.79-1.153c-1.62-.954-1.62-1.194.04-4.166 2.15-3.841 3.17-4.256 5.71-2.321 1.35 1.032 1.61 1.733.83 2.264-.63.423-1.31 1.664-1.52 2.757-.43 2.297-2.6 2.923-5.06 1.466zm-206.29-1.954c.34-.55 1.07-1 1.62-1s.72.45.38 1c-.34.55-1.07 1-1.62 1s-.72-.45-.38-1zm-780.831-1.165c-2.406-1.347-2.067-3.197 1.232-6.729 2.919-3.125 4.992-3.96 5.224-2.106.249 1.989.419 2.52 1.199 3.75.437.687 1.678 1.25 2.758 1.25 1.851 0 1.873.14.368 2.436-1.237 1.888-2.443 2.425-5.354 2.385-2.067-.029-4.509-.473-5.427-.986zM340 360.245c0-.766.732-1.674 1.627-2.017 1.832-.704 4.644 1.162 3.803 2.523-.897 1.452-5.43 1.029-5.43-.506zm336-2.607c0-.55.45-1 1-1s1 .45 1 1-.45 1-1 1-1-.45-1-1zm206 0c0-.55.45-1 1-1s1 .45 1 1-.45 1-1 1-1-.45-1-1zm538.5 0c-.34-.55.11-1 1-1s1.34.45 1 1c-.34.55-.79 1-1 1-.21 0-.66-.45-1-1zM10 356.262c0-.928.694-1.953 1.543-2.279 2.427-.931 2.662.16.463 2.149-1.83 1.657-2.006 1.668-2.006.13zm1035.5-.624c-.34-.55-.34-1.445-.01-1.989.36-.585-.08-.722-1.09-.336-1.4.538-1.61.185-1.19-2.011.28-1.465.12-2.664-.35-2.664-.48 0-.86-.361-.86-.802 0-.441 1.48-.844 3.29-.895 2.89-.082 3.41.313 4.35 3.302.84 2.709.79 3.395-.29 3.395-.74 0-1.35.675-1.35 1.5 0 1.698-1.57 2.011-2.5.5zm-489.04-5.079c-2.028-4.001-2.324-5.381-1.394-6.5 1.767-2.13 3.838-1.77 3.228.561-.383 1.466.162 2.241 2.094 2.975 1.437.547 2.612 1.252 2.612 1.568 0 .925-3.008 6.475-3.509 6.475-.251 0-1.615-2.286-3.031-5.079zm-502.71 1.609c1.02-5.341 5.326-5.775 4.957-.499-.173 2.476-.637 2.965-2.818 2.967-2.238 0-2.544-.351-2.14-2.468zm652.75-.53c.34-.55 1.068-1 1.618-1s.722.45.382 1c-.34.55-1.068 1-1.618 1s-.722-.45-.382-1zm206 0c.34-.55 1.068-1 1.618-1s.722.45.382 1c-.34.55-1.068 1-1.618 1s-.722-.45-.382-1zm286.54-.456c-1.25-1.496-.65-3.544 1.02-3.544.97 0 4.94 3.614 4.94 4.5 0 1.158-4.86.38-5.96-.956zM776 349.638c0-.55.45-1 1-1s1 .45 1 1-.45 1-1 1-1-.45-1-1zm183-1.58c0-2.08 1.888-2.675 3.47-1.093 1.272 1.272 1.146 1.513-1.008 1.925-1.597.305-2.462.013-2.462-.832zm334.96-.251c-1.74-1.41-2.11-2.439-1.6-4.472 1.3-5.189 7.56-5.871 7.72-.84.05 1.454.2 3.655.34 4.893.31 2.861-3.17 3.086-6.46.419zM258 348.26c0-.207.788-.995 1.75-1.75 1.586-1.243 1.621-1.208.378.378-1.307 1.666-2.128 2.195-2.128 1.372zm8.5-2.622c-.34-.55.084-1 .941-1s1.559.45 1.559 1-.423 1-.941 1-1.219-.45-1.559-1zm1070.17.333c-2.59-2.581 1.75-8.969 5.32-7.838 1.92.61 2 .869.7 2.346-.8.912-1.76 2.671-2.14 3.909-.66 2.183-2.53 2.942-3.88 1.583zm-1165.638-2.114c.042-.958 2.543-4.219 3.235-4.219 1.125 0-.521 3.883-1.866 4.399-.77.296-1.387.215-1.369-.18zM328 343.756c0-.55.45-1.278 1-1.618.55-.34 1-.168 1 .382s-.45 1.278-1 1.618c-.55.34-1 .168-1-.382zm31.5-.118c-.34-.55.11-1 1-1s1.34.45 1 1c-.34.55-.79 1-1 1-.21 0-.66-.45-1-1zm425.5 0c0-.55.45-1 1-1s1 .45 1 1-.45 1-1 1-1-.45-1-1zm-623.37-2.25c-1.041-3.884-.703-4.75 1.851-4.75 1.812 0 2.65.674 3.108 2.5.345 1.375 1.142 2.532 1.769 2.57 1.576.097-2.472 1.773-4.491 1.86-.899.039-1.905-.943-2.237-2.18zm1021.87-1.75c-.34-.55.11-1 1-1s1.34.45 1 1c-.34.55-.79 1-1 1-.21 0-.66-.45-1-1zm-937.5-3.3c0-.715.508-1.808 1.128-2.428 1.039-1.039 2.426-.676 5.843 1.532.259.168-.191.723-1 1.235-2.172 1.374-5.971 1.158-5.971-.339zm349.5-.7c.34-.55 1.293-1 2.118-1s1.222.45.882 1c-.34.55-1.293 1-2.118 1s-1.222-.45-.882-1zm370.259-.159c-2.15-.786-2.474-1.255-1.5-2.177.682-.647 2.509-1.24 4.059-1.318 2.11-.107 2.675.229 2.25 1.337-.312.814-.568 1.894-.568 2.399 0 1.105-.659 1.067-4.241-.241zM165 333.138c0-.917.484-1.506 1.075-1.309.591.198 1.075.786 1.075 1.309 0 .522-.484 1.111-1.075 1.308-.591.197-1.075-.392-1.075-1.308zm504.29-.843c-2.079-1.032-2.574-3.706-.982-5.298.38-.381.692-1.491.692-2.467 0-3.281 1.692-2.859 4.991 1.246 2.613 3.251 2.997 4.256 1.893 4.955-.761.482-.934.89-.384.907.55.017.325.467-.5 1-1.799 1.163-2.798 1.103-5.71-.343zm12.71.343c0-.55.45-1 1-1s1 .45 1 1-.45 1-1 1-1-.45-1-1zm193.29-.343c-2.079-1.032-2.574-3.706-.983-5.298.381-.381.693-1.491.693-2.467 0-3.281 1.692-2.859 4.99 1.246 2.614 3.251 2.997 4.256 1.894 4.955-.761.482-.934.89-.384.907.55.017.325.467-.5 1-1.799 1.163-2.798 1.103-5.71-.343zm12.71.343c0-.55.45-1 1-1s1 .45 1 1-.45 1-1 1-1-.45-1-1zm-285.324-1.402c-.328-.855.282-1.615 1.567-1.951 3.011-.788 4.191.306 2.067 1.917-2.315 1.755-2.971 1.761-3.634.034zM775 328.638c0-.55.873-1 1.941-1 1.067 0 2.219.45 2.559 1 .351.567-.49 1-1.941 1-1.407 0-2.559-.45-2.559-1zm7 0c0-.55.45-1 1-1s1 .45 1 1-.45 1-1 1-1-.45-1-1zm234.74-.575c-2.74-1.49-2.74-1.504-.8-3.589 2.5-2.69 4.69-1.825 5.26 2.084.51 3.454-.34 3.739-4.46 1.505zm388.44-3.675c.25-1.763.97-2.25 3.32-2.25 2.35 0 3.07.487 3.32 2.25.28 1.979-.12 2.25-3.32 2.25-3.2 0-3.6-.271-3.32-2.25zM761 322.842c0-.459 1.575-1.585 3.5-2.503 3.403-1.623 4.239-1.349 2.735.895-.919 1.37-6.235 2.741-6.235 1.608zm-541.076-4.114c-1.967-2.059-3.869-4.505-4.227-5.437-.357-.932-2.032-1.97-3.721-2.308-2.034-.407-2.97-1.132-2.773-2.147.405-2.088 2.797-2.756 2.797-.782 0 .871.45 1.584 1 1.584s1-.434 1-.965c0-.531.937-1.467 2.083-2.08 1.665-.891 2.473-.762 4.023.641 1.067.966 3.504 1.789 5.414 1.83 3.567.076 4.543.952 2.104 1.888-1.782.684-.909 5.686.993 5.686 1.645 0 1.767 1.415.348 4.066-1.576 2.944-5.069 2.181-9.041-1.976zM991 321.638c0-.55.45-1 1-1s1 .45 1 1-.45 1-1 1-1-.45-1-1zm397.34.272c-4.28-.389-6.39-2.624-4.37-4.639.57-.568 1.03-2.095 1.03-3.393 0-2.019.4-2.294 2.75-1.905 5.64.934 8.25 1.916 8.25 3.104 0 .673 1.12 1.825 2.5 2.561 1.37.736 2.5 1.723 2.5 2.194 0 1.087-4.6 2.861-6.82 2.631-.92-.096-3.55-.345-5.84-.553zm-194.4-2.848c-1.09-1.307-1.07-1.732.12-2.485 2.03-1.284 3.56-1.158 2.22.183-.62.617-.89 1.742-.59 2.5.7 1.841-.14 1.745-1.75-.198zm166.99.326c-.87-2.912-.69-4.75.46-4.75.76 0 2.12-1.125 3.02-2.5.99-1.522 2.58-2.5 4.04-2.5 2.03 0 2.37.433 2.13 2.75-.2 2.001-1.34 3.358-4.18 4.983-3.57 2.043-5.28 2.674-5.47 2.017zm-435.405-1.71c-1.241-2.007 1.898-5.04 5.215-5.04 4.185 0 4.35 2.385.31 4.474-3.422 1.77-4.7 1.901-5.525.566zm85.505-1.001c-.81-.512-1.17-1.236-.79-1.608.91-.915 3.76.248 3.76 1.537 0 1.271-1.04 1.295-2.97.071zm313.47-.039c.34-.55.82-1 1.06-1 .24 0 .44.45.44 1s-.48 1-1.06 1c-.58 0-.78-.45-.44-1zm-1193.25-3.25c.622-1.869 3.412-2.072 4.093-.299.441 1.149-.064 1.549-1.958 1.549-1.597 0-2.396-.468-2.135-1.25zm752.444-.39c-.933-.933.194-2.36 1.865-2.36.792 0 1.441.675 1.441 1.5 0 1.506-2.111 2.055-3.306.86zm-539.514-2.61c.251-1.763.97-2.25 3.32-2.25 2.35 0 3.069.487 3.32 2.25.281 1.979-.118 2.25-3.32 2.25s-3.601-.271-3.32-2.25zm659.42.65c-1.02-2.668-.69-3.139 1.9-2.645 2.98.57 3.21 1.794.6 3.191-1.46.779-2.04.651-2.5-.546zm-803.6-1.4c0-.55.413-1 .918-1 .505 0 1.743-.309 2.75-.687 1.613-.605 1.668-.486.46 1-1.501 1.844-4.128 2.282-4.128.687zm874-1c0-.55.41-1 .92-1 .5 0 1.74-.309 2.75-.687 1.61-.605 1.67-.486.46 1-1.5 1.844-4.13 2.282-4.13.687zm9.18-.667c.48-2.475 2.49-2.717 3.1-.374.4 1.547.05 2.041-1.45 2.041-1.31 0-1.87-.564-1.65-1.667zm-755.843-.061c-4.28-.389-6.385-2.624-4.37-4.639.568-.569 1.033-2.095 1.033-3.393 0-2.019.398-2.294 2.75-1.905 5.639.934 8.25 1.916 8.25 3.104 0 .673 1.125 1.825 2.5 2.561s2.5 1.723 2.5 2.193c0 1.088-4.595 2.862-6.815 2.632-.927-.096-3.559-.345-5.848-.553zm840.843-1.522c.25-1.763.97-2.25 3.32-2.25 2.35 0 3.07.487 3.32 2.25.28 1.979-.12 2.25-3.32 2.25-3.2 0-3.6-.271-3.32-2.25zm-557.058-1.654c-2.106-1.334-.249-3.345 2.46-2.665 1.755.44 2.228.236 1.833-.791-.345-.899.366-1.556 2.027-1.874 2.992-.572 7.558.147 7.558 1.19 0 1.246-4.709 2.933-6.719 2.407-1.063-.278-2.502.198-3.223 1.067-1.488 1.793-2.016 1.883-3.936.666zm206 0c-2.106-1.334-.25-3.345 2.46-2.665 1.755.44 2.228.236 1.833-.791-.345-.899.366-1.556 2.027-1.874 2.992-.572 7.558.147 7.558 1.19 0 1.246-4.709 2.933-6.719 2.407-1.064-.278-2.502.198-3.223 1.067-1.489 1.793-2.016 1.883-3.936.666zM116.5 303.638c-.34-.55.11-1 1-1s1.34.45 1 1c-.34.55-.79 1-1 1-.21 0-.66-.45-1-1zm179.5-.5c0-.825.852-1.5 1.893-1.5s2.152.675 2.469 1.5c.415 1.083-.11 1.5-1.893 1.5-1.528 0-2.469-.572-2.469-1.5zm855.34.772c-4.28-.389-6.39-2.624-4.37-4.639.57-.568 1.03-2.095 1.03-3.393 0-2.019.4-2.294 2.75-1.905 5.64.934 8.25 1.916 8.25 3.104 0 .673 1.12 1.825 2.5 2.561 1.37.736 2.5 1.723 2.5 2.194 0 1.087-4.6 2.861-6.82 2.631-.92-.096-3.55-.345-5.84-.553zM38.362 299.43c1.233-1.974 3.178-2.346 4.138-.792.34.55.115 1-.5 1s-.842.447-.504.993c.352.571-.422.908-1.82.792-2.074-.172-2.268-.466-1.314-1.993zm1085.568 1.958c-.87-2.912-.69-4.75.46-4.75.76 0 2.12-1.125 3.02-2.5.99-1.522 2.58-2.5 4.04-2.5 2.03 0 2.37.433 2.13 2.75-.2 2.001-1.34 3.358-4.18 4.983-3.57 2.043-5.28 2.674-5.47 2.017zm-522.43-2.125c1.603-1.195 1.752-1.742.75-2.758-1.832-1.858-1.544-2.805 1.169-3.836 3.034-1.154 7.271.674 7.997 3.451.706 2.699-.045 3.161-6.416 3.951-5.022.623-5.326.553-3.5-.808zm206 0c1.603-1.195 1.752-1.742.75-2.758-1.832-1.858-1.544-2.805 1.169-3.836 3.034-1.154 7.271.674 7.997 3.451.706 2.699-.046 3.161-6.416 3.951-5.022.623-5.326.553-3.5-.808zm448.25-.017c-2.4-1.824-2.2-4.332.42-5.163 1.54-.489 2.55-.145 3.47 1.182.71 1.03 1.76 2.416 2.33 3.081.56.664 1.03 1.451 1.03 1.75 0 1.09-5.55.44-7.25-.85zM190 298.72c0-2.02 1.287-4.082 2.548-4.082 2.276 0 2.744 2.063.802 3.535-2.165 1.64-3.35 1.833-3.35.547zm602.591.065c-.29-.469.125-1.706.922-2.75 1.237-1.62 1.59-1.683 2.411-.431.628.958.592 1.912-.104 2.75-1.231 1.484-2.475 1.65-3.229.431zM1064 297.72c0-2.02 1.29-4.082 2.55-4.082 2.27 0 2.74 2.063.8 3.535-2.16 1.64-3.35 1.833-3.35.547zM52.591 295.785c-.29-.469.125-1.706.922-2.75 1.237-1.62 1.59-1.683 2.41-.431.629.958.593 1.912-.103 2.75-1.231 1.484-2.475 1.65-3.229.431zm172.005-2.397c-3.218-4.991-3.961-7.605-2.621-9.221.699-.841 2.115-1.529 3.147-1.529 1.645 0 1.878.808 1.878 6.5 0 3.575-.215 6.5-.477 6.5s-1.13-1.013-1.927-2.25zM416 294.828c0-.537.713-1.25 1.584-1.584.973-.374 1.431-.15 1.187.581-.498 1.494-2.771 2.317-2.771 1.003zm670.98-1.709c-1.03-1.243-.93-1.879.54-3.5.98-1.09 2.35-1.981 3.03-1.981.68 0 1.47-.603 1.75-1.341.33-.87 1.6-1.181 3.61-.886 3.1.455 3.96 1.573 2.09 2.727-.55.34-1 1.641-1 2.892 0 2.919-.98 3.872-2.59 2.53-.91-.748-1.87-.746-3.28.009-2.56 1.368-2.64 1.359-4.15-.45zm-904.73-1.731c.63-1.892 3.75-2.161 3.75-.324 0 .928-.855 1.574-2.083 1.574-1.222 0-1.912-.517-1.667-1.25zm403.25-.75c-.34-.55-.141-1 .441-1s1.059.45 1.059 1-.198 1-.441 1-.719-.45-1.059-1zm164.21-1c-.434-1.661-.03-2 2.384-2 3.15 0 4.064 2.341 1.324 3.393-2.525.969-3.152.733-3.708-1.393zm306.54.75c.63-1.892 3.75-2.161 3.75-.324 0 .928-.85 1.574-2.08 1.574s-1.91-.517-1.67-1.25zm-419.165-5.591c-1.057-1.976-.545-3.159 1.369-3.159 1.348 0 1.789 3.732.533 4.508-.488.301-1.343-.306-1.902-1.349zm206 0c-1.057-1.976-.545-3.159 1.369-3.159 1.348 0 1.789 3.732.533 4.508-.488.301-1.343-.306-1.902-1.349zm522.915.464c0-.927.69-1.952 1.54-2.278 2.43-.931 2.66.16.47 2.149-1.83 1.657-2.01 1.668-2.01.129zm-1345-.623c0-.55.477-1 1.059-1s.78.45.441 1c-.34.55-.817 1-1.059 1-.243 0-.441-.45-.441-1zm512 0c0-.55.477-1 1.059-1s.781.45.441 1-.816 1-1.059 1-.441-.45-.441-1zm-355.045-4.9c-3.05-3.097-3.4-3.918-2.504-5.871.609-1.33 2.494-2.675 4.545-3.245 4.773-1.326 8.296-1.265 7.435.128-.378.611-.079 1.487.665 1.947 1.076.665.899 1.318-.872 3.203-1.223 1.301-2.224 3.035-2.224 3.852 0 1.521-1.961 4.005-2.95 3.736-.303-.082-2.145-1.769-4.095-3.75zm873.915-1c-3.11-3.084-3.47-3.887-2.5-5.6 2.79-4.93 4.6-4.547 7.47 1.576 1.88 4.001 2.1 5.286 1.13 6.459-1.58 1.907-1.82 1.812-6.1-2.435zM618 276.72c0-1.993 1.28-4.082 2.5-4.082 1.785 0 2.579 2.52 1.222 3.878-1.353 1.353-3.722 1.482-3.722.204zm206 0c0-1.993 1.28-4.082 2.5-4.082 1.785 0 2.579 2.52 1.222 3.878-1.353 1.353-3.722 1.482-3.722.204zm145.476-.121c-1.008-1.631 1.231-3.654 2.566-2.319.724.723.598 1.412-.411 2.249-1.074.891-1.636.91-2.155.07zm212.524.039c-1.28-.829-1.25-.972.25-.985.96-.008 1.75.435 1.75.985 0 1.219-.11 1.219-2 0zm140-.393c0-.766.73-1.674 1.63-2.017 1.83-.704 4.64 1.162 3.8 2.523-.9 1.451-5.43 1.029-5.43-.506zm-752.857-.498c-1.039-.658-1.073-1.035-.143-1.609.931-.576.898-.976-.143-1.72-1.016-.725-.897-.82.475-.375 1.007.327 2.229.595 2.715.595.485 0 1.364.9 1.953 2 .926 1.73.762 1.998-1.215 1.984-1.257-.008-2.896-.402-3.642-.875zm167.524-1.776c-1.151-1.151-.729-2.333.833-2.333.825 0 1.5.675 1.5 1.5 0 1.561-1.183 1.984-2.333.833zm482.073-.931c-.33-.329-.36-1.229-.06-2 .61-1.595 3.32-1.924 3.32-.402 0 .55.7 1 1.56 1 .86 0 1.28.45.94 1-.67 1.085-4.79 1.372-5.76.402zm-1117.56-2.652c.251-1.763.97-2.25 3.32-2.25 2.35 0 3.069.487 3.32 2.25.281 1.979-.118 2.25-3.32 2.25s-3.601-.271-3.32-2.25zm169.82 1.25c0-.55.45-1 1-1s1 .45 1 1-.45 1-1 1-1-.45-1-1zm34-.377c0-.927.694-1.952 1.543-2.278 2.427-.931 2.662.16.463 2.149-1.831 1.657-2.006 1.668-2.006.129zM84.337 267.91c-4.28-.389-6.385-2.624-4.37-4.639.568-.568 1.033-2.095 1.033-3.393 0-2.019.398-2.294 2.75-1.905 5.639.934 8.25 1.916 8.25 3.104 0 .673 1.125 1.825 2.5 2.561s2.5 1.723 2.5 2.194c0 1.087-4.595 2.861-6.815 2.631-.927-.096-3.559-.345-5.849-.553zM1129 267.261c0-.927.69-1.952 1.54-2.278 2.43-.931 2.66.16.47 2.149-1.83 1.657-2.01 1.668-2.01.129zm219.5.377c-.34-.55-.17-1 .38-1s1.28.45 1.62 1c.34.55.17 1-.38 1s-1.28-.45-1.62-1zm-655.944-.909c-.935-1.513 3.405-3.53 4.735-2.201 1.258 1.259.972 1.627-1.957 2.526-1.191.366-2.441.219-2.778-.325zm-75.727-1.197c-.855-.528-.967-1.126-.321-1.714 1.08-.983 7.494.386 7.49 1.598-.003 1.01-5.577 1.1-7.169.116zm206 0c-.855-.528-.967-1.126-.321-1.714 1.08-.983 7.494.386 7.49 1.598 0 1.01-5.577 1.1-7.169.116zm147.906.508c-.328-.329-.355-1.229-.059-2 .612-1.595 3.324-1.924 3.324-.402 0 .55.701 1 1.559 1 .857 0 1.281.45.941 1-.671 1.085-4.794 1.372-5.765.402zM8.189 263.924c-1.271-.243-2.557-1.081-2.857-1.864-.3-.782-1.447-1.422-2.547-1.422-2.069 0-2.067.063-.176-6.75.461-1.663.202-2.25-.992-2.25-.89 0-1.617-.635-1.617-1.412 0-.776.563-1.296 1.25-1.156 5.09 1.039 6.481 1.942 7.512 4.882 1.227 3.5 2.673 10.766 2.1 10.55-.2-.075-1.402-.335-2.673-.578zm160.04-.473c.498-1.495 2.771-2.318 2.771-1.004 0 .537-.713 1.25-1.584 1.584-.973.374-1.431.151-1.187-.58zm874.001-1c.5-1.495 2.77-2.318 2.77-1.004 0 .537-.71 1.25-1.58 1.584-.98.374-1.43.151-1.19-.58zm-347.73-.813c.34-.55.816-1 1.059-1s.441.45.441 1-.477 1-1.059 1c-.583 0-.781-.45-.441-1zm340.5 0c0-.55.67-1 1.5-1 .82 0 1.5.45 1.5 1s-.68 1-1.5 1c-.83 0-1.5-.45-1.5-1zm125.68-1.402c-.53-1.383.06-2.598 1.27-2.598.35 0 .69.9.77 2 .18 2.286-1.24 2.699-2.04.598zm149.32-.48c0-.55.45-1.278 1-1.618.55-.34 1-.168 1 .382s-.45 1.278-1 1.618c-.55.34-1 .168-1-.382zm-595.54-1.368c-.401-1.041-1.721-1.75-3.258-1.75-2.426 0-2.47-.084-.722-1.362 1.883-1.377 5.1-1.126 6.09.475.296.479.094 1.662-.449 2.629-.938 1.672-1.019 1.672-1.661.008zm348.72-1.423c.38-3.163 1.74-3.838 4.16-2.064 2.41 1.759 1.14 4.737-2.01 4.737-2.08 0-2.41-.415-2.15-2.673zm21.82 1.28c0-.766.73-1.674 1.63-2.017 1.83-.704 4.64 1.162 3.8 2.523-.9 1.451-5.43 1.029-5.43-.506zm-974-1.482c0-2.301 3.191-2.923 5.971-1.164 1.88 1.189 1.173 1.86-2.794 2.653-2.772.555-3.177.365-3.177-1.489zm1104-3.058c0-2.771 3.98-3.821 5.67-1.499 2.04 2.785 1.63 3.432-2.17 3.432-2.79 0-3.5-.391-3.5-1.933zm-927.5-.067c-.34-.55-.168-1 .382-1s1.278.45 1.618 1c.34.55.168 1-.382 1s-1.278-.45-1.618-1zm422.502-1.999c-1.215-.751-1.164-1.002.319-1.571 2.113-.811 2.836-.303 1.848 1.296-.459.743-1.248.843-2.167.275zm-26.967-1.459c-.704-.848-2.077-1.542-3.05-1.542-2.238 0-3.382-2.817-1.88-4.627.859-1.035.825-1.753-.14-2.916-1.398-1.684-.135-3.865 1.543-2.666 1.83 1.307 6.499 11.601 5.648 12.452-.462.463-1.417.147-2.121-.701zm462.515-.128c-1.53-1.117-1.63-1.618-.58-2.883 1.8-2.165 6.03-2.005 6.03.228 0 2.74-3.2 4.3-5.45 2.655zm-34.05-.414c-.34-.55-.17-1 .38-1s1.28.45 1.62 1c.34.55.17 1-.38 1s-1.28-.45-1.62-1zm58.07-.67c-.28-.732-.08-1.33.44-1.33s.68-1.296.36-2.879c-.32-1.637-.1-3.172.53-3.559.6-.374 1.1-1.482 1.1-2.461 0-1.761 3.74-4.101 6.55-4.101 1.61 0 1.96 1.567.54 2.442-.49.308-.67 1.459-.38 2.559.31 1.167.03 1.999-.66 1.999-.73 0-.94.769-.55 2.005.43 1.347.12 2.167-.93 2.5-5.18 1.635-5.21 1.654-3.07 2.532 2.18.896 2.08 1.009-1.21 1.376-1.21.135-2.44-.352-2.72-1.083zm12.43-2.33c0-1.1.48-2 1.06-2 .58 0 .78.45.44 1s-.14 1 .44 1c.58 0 1.06.45 1.06 1s-.68 1-1.5 1c-.83 0-1.5-.889-1.5-2zm-109-4.882c0-.55.45-1.278 1-1.618.55-.34 1-.168 1 .382s-.45 1.278-1 1.618c-.55.34-1 .168-1-.382zm168.5-2.118c-.34-.55-.14-1 .44-1 .58 0 1.06.45 1.06 1s-.2 1-.44 1-.72-.45-1.06-1zm39.5-.917c0-1.228.65-2.083 1.57-2.083.93 0 1.44.68 1.25 1.667-.48 2.509-2.82 2.853-2.82.416zm-234.25.227c-.96-.251-1.75-.819-1.75-1.261 0-.92 2.13-2.846 3.25-2.946.42-.037 1.92-.359 3.34-.715 3.03-.761 6.01 1.604 5.08 4.034-.59 1.546-5.67 2-9.92.888zm380.25-1.31c-1.28-.829-1.25-.972.25-.985.96-.008 1.75.435 1.75.985 0 1.219-.11 1.219-2 0zm-1376-6c0-.55.477-1 1.059-1 .583 0 .78.45.441 1-.34.55-.816 1-1.059 1s-.441-.45-.441-1zm11-.377c0-.927.694-1.952 1.543-2.278 2.427-.931 2.662.16.463 2.149-1.83 1.657-2.006 1.668-2.006.129zm968-2.623c0-.55.45-1 1-1s1 .45 1 1-.45 1-1 1-1-.45-1-1zm127-1c1.97-1.273 4.29-1.273 3.5 0-.34.55-1.6.993-2.81.984-1.78-.012-1.91-.196-.69-.984zm-1013.871-2.363c-1.947-2.072-2.022-2.481-.662-3.61 1.299-1.078 1.533-.933 1.533.957 0 1.55.448 2.058 1.468 1.666 1.981-.76 2.838.851 1.184 2.224-1.006.835-1.857.536-3.523-1.237zm321.054 1.146c-1.853-1.854-1.404-3.362 1.381-4.63 1.47-.67 2.299-.74 1.943-.165-.341.553-.806 1.967-1.032 3.143-.544 2.821-.88 3.064-2.292 1.652zm95.822 1.217c-1.568-5.116-1.815-5 10.668-5 6.413 0 11.323.337 10.91.75-.412.412-1.05.789-1.416.836-.367.048-1.342.373-2.167.723-2.112.897-10.145 2.637-12.309 2.666-.995.014-1.531-.425-1.191-.975.34-.55-.271-1-1.358-1-1.086 0-2.202.562-2.48 1.25-.277.687-.573 1.025-.657.75zm206 0c-1.568-5.116-1.815-5 10.668-5 6.413 0 11.323.337 10.91.75-.412.412-1.05.789-1.416.836-.367.048-1.342.373-2.167.723-2.112.897-10.145 2.637-12.309 2.666-.995.014-1.531-.425-1.191-.975.34-.55-.271-1-1.358-1-1.086 0-2.202.562-2.48 1.25-.277.687-.573 1.025-.657.75zm-210.505-2c.34-.55.816-1 1.059-1s.441.45.441 1-.477 1-1.059 1-.781-.45-.441-1zm206 0c.34-.55.817-1 1.059-1 .243 0 .441.45.441 1s-.476 1-1.059 1c-.582 0-.781-.45-.441-1zm463.64-.891c-1.04-.658-1.07-1.035-.14-1.609.93-.576.9-.976-.14-1.72-1.02-.725-.9-.82.47-.375 1.01.327 2.23.595 2.72.595.48 0 1.36.9 1.95 2 .93 1.73.76 1.998-1.21 1.984-1.26-.008-2.9-.402-3.65-.875zm-675.64-1.109c-.381-.617 1.224-.973 4.191-.93 3.607.053 4.309.285 2.809.93-2.779 1.194-6.262 1.194-7 0zm206 0c-.381-.617 1.224-.973 4.191-.93 3.607.053 4.309.285 2.809.93-2.779 1.194-6.262 1.194-7 0zm141.352-1.169c-2.43-.853-2.605-1.276-2.115-5.131.83-6.539 3.652-8.982 4.852-4.2.345 1.375 1.254 2.5 2.019 2.5.766 0 1.392.689 1.392 1.532 0 .843.882 1.858 1.959 2.257 1.099.406 1.648 1.202 1.25 1.811-1.047 1.603-6.322 2.297-9.357 1.231zm201.378-.019c.62-1.854 2.77-2.162 2.77-.396 0 .871-.71 1.584-1.58 1.584-.87 0-1.41-.535-1.19-1.188zm-68.56-.479c-1.17-1.166-.73-2.085 1.25-2.601 1.86-.487 4.08.854 4.08 2.468 0 .965-4.39 1.075-5.33.133zm173.33-.726c0-.766.73-1.674 1.63-2.018 1.83-.703 4.64 1.163 3.8 2.524-.9 1.451-5.43 1.029-5.43-.506zm202.68-.009c-.53-1.383.06-2.598 1.27-2.598.35 0 .69.9.77 2 .18 2.286-1.24 2.699-2.04.598zm-863.462-.753c.246-.74 1.25-1.501 2.23-1.691 1.14-.221 1.621.14 1.334 1-.246.74-1.25 1.501-2.23 1.691-1.14.221-1.621-.139-1.334-1zm206 0c.246-.74 1.25-1.501 2.23-1.691 1.14-.221 1.621.14 1.334 1-.246.74-1.25 1.501-2.23 1.691-1.14.221-1.621-.139-1.334-1zm-519.431-.891c-1.615-.954-1.612-1.194.048-4.166 2.146-3.841 3.167-4.257 5.705-2.321 1.353 1.032 1.609 1.733.826 2.264-.624.423-1.304 1.664-1.512 2.757-.435 2.297-2.6 2.923-5.067 1.466zM581 218.721c0-1.228.646-2.083 1.573-2.083.932 0 1.442.68 1.25 1.667-.486 2.509-2.823 2.853-2.823.416zm11.38.465c-.306-.799-.266-1.924.09-2.5.357-.577.224-1.048-.294-1.048-.519 0-1.178-.9-1.466-2-.434-1.661-.03-2 2.384-2 1.916 0 2.906.511 2.906 1.5 0 .825-.505 1.5-1.122 1.5-.78 0-.746.454.111 1.487 1.347 1.622.713 4.513-.989 4.513-.585 0-1.313-.654-1.62-1.452zm685.62-.048c0-.825.85-1.5 1.89-1.5s2.15.675 2.47 1.5c.42 1.083-.11 1.5-1.89 1.5-1.53 0-2.47-.572-2.47-1.5zm-522.306-.14c-.933-.933.194-2.36 1.865-2.36.793 0 1.441.675 1.441 1.5 0 1.506-2.111 2.055-3.306.86zM535 217.254c0-.21.9-.618 2-.906 1.1-.288 2-.115 2 .383 0 .499-.9.907-2 .907s-2-.173-2-.384zm206 0c0-.21.9-.618 2-.906 1.1-.288 2-.115 2 .383 0 .499-.9.907-2 .907s-2-.173-2-.384zm612.6-2.866c-3.22-4.991-3.97-7.605-2.62-9.221.69-.841 2.11-1.529 3.14-1.529 1.65 0 1.88.808 1.88 6.5 0 3.575-.21 6.5-.48 6.5-.26 0-1.13-1.013-1.92-2.25zm-1309.1-.75c-.34-.55-.168-1 .382-1s1.278.45 1.618 1c.34.55.168 1-.382 1s-1.278-.45-1.618-1zm261 0c.34-.55.141-1-.441-1s-1.059-.45-1.059-1 .675-1 1.5-1c.833 0 1.5.889 1.5 2 0 1.1-.477 2-1.059 2s-.781-.45-.441-1zm867.42-4.91c-1.96-2.059-3.87-4.505-4.22-5.437-.36-.932-2.03-1.97-3.72-2.308-2.04-.407-2.97-1.132-2.78-2.147.41-2.088 2.8-2.756 2.8-.782 0 .871.45 1.584 1 1.584s1-.434 1-.965c0-.531.94-1.467 2.08-2.08 1.67-.891 2.48-.762 4.03.641 1.06.966 3.5 1.789 5.41 1.83 3.57.076 4.54.952 2.1 1.888-1.78.684-.9 5.686 1 5.686 1.64 0 1.76 1.415.34 4.065-1.57 2.945-5.06 2.182-9.04-1.975zm217.63 2.324c-1.53-1.117-1.63-1.618-.58-2.883 1.8-2.165 6.03-2.005 6.03.228 0 2.74-3.2 4.3-5.45 2.655zM67 207.638c0-.55.702-1 1.559-1 .858 0 1.28.45.941 1-.34.55-1.041 1-1.559 1s-.941-.45-.941-1zm444-.878c0-1.22.638-2.122 1.5-2.122.825 0 1.5.395 1.5.877 0 .483-.675 1.438-1.5 2.123-1.253 1.04-1.5.895-1.5-.878zm680-2.004c0-.55.45-1.278 1-1.618.55-.34 1-.168 1 .382s-.45 1.278-1 1.618c-.55.34-1 .168-1-.382zm-56.5-1.118c-.34-.55-.17-1 .38-1s1.28.45 1.62 1c.34.55.17 1-.38 1s-1.28-.45-1.62-1zm-49-1c.34-.55 1.07-1 1.62-1s.72.45.38 1c-.34.55-1.07 1-1.62 1s-.72-.45-.38-1zm161.96-4.079c-2.03-4.001-2.32-5.381-1.39-6.5 1.76-2.13 3.83-1.77 3.22.561-.38 1.466.17 2.241 2.1 2.975 1.43.546 2.61 1.252 2.61 1.568 0 .925-3.01 6.475-3.51 6.475-.25 0-1.61-2.286-3.03-5.079zM1041 201.138c0-.825.85-1.5 1.89-1.5s2.15.675 2.47 1.5c.42 1.083-.11 1.5-1.89 1.5-1.53 0-2.47-.572-2.47-1.5zm-834.333-.167c-2.582-2.582 1.753-8.969 5.319-7.838 1.921.61 1.999.869.705 2.345-.8.913-1.763 2.672-2.14 3.91-.665 2.183-2.526 2.941-3.884 1.583zm673.026-1.268c.592-2.263 2.98-4.491 5.807-5.416 1.919-.628 1.925-.596.15.782-1.018.79-1.603 1.835-1.301 2.324.58.938-2.744 4.245-4.267 4.245-.492 0-.667-.871-.389-1.935zM516 199.245c0-1.421 2.88-3.06 3.786-2.155.638.638-1.747 3.548-2.908 3.548-.483 0-.878-.627-.878-1.393zm194 .393c0-.55.423-1 .941-1s1.219.45 1.559 1c.34.55-.083 1-.941 1-.857 0-1.559-.45-1.559-1zm12-.393c0-1.421 2.88-3.06 3.786-2.155.638.638-1.747 3.548-2.908 3.548-.483 0-.878-.627-.878-1.393zm431 .393c0-.55.41-1 .92-1 .5 0 1.74-.309 2.75-.687 1.61-.605 1.67-.486.46 1-1.5 1.844-4.13 2.282-4.13.687zm-1039-1.941c0-.518.45-1.219 1-1.559.55-.34 1 .083 1 .941 0 .857-.45 1.559-1 1.559s-1-.424-1-.941zm463.667.274c-1.151-1.151-.729-2.333.833-2.333.825 0 1.5.675 1.5 1.5 0 1.561-1.183 1.984-2.333.833zm733.833-1.333c-.34-.55-.14-1 .44-1 .58 0 1.06.45 1.06 1s-.2 1-.44 1-.72-.45-1.06-1zM51.425 193.195c-.373-1.487-1.456-2.563-2.769-2.75-1.434-.204-2.268-1.144-2.49-2.807-.185-1.375-.747-2.928-1.25-3.45-1.69-1.753-.94-2.458 2.191-2.062 3.849.487 3.903.543 4.172 4.337.145 2.026.986 3.51 2.428 4.283 1.755.941 2.004 1.564 1.215 3.038-1.368 2.556-2.767 2.32-3.497-.589zm658.075.443c.34-.55.816-1 1.059-1s.441.45.441 1-.477 1-1.059 1c-.583 0-.781-.45-.441-1zm-623.375-7c.063-2.475-.012-4.95-.167-5.5-.154-.55.23-2.238.856-3.75 1.415-3.423 6.065-3.929 6.896-.75.288 1.1 1.098 2 1.8 2 1.613 0 2.968 3.34 1.547 3.814-.581.194-1.057 1.118-1.057 2.054 0 2.013-5.515 5.549-7.114 4.561-.61-.377-1.507-.065-1.993.693-.577.9-.843-.181-.768-3.122zm1042.125 1.5c0-1.965.51-2.5 2.37-2.5 1.31 0 2.38.45 2.38 1s-.45 1-1 1-1 .675-1 1.5-.62 1.5-1.38 1.5c-.8 0-1.37-1.046-1.37-2.5zm-726.528-.512c-2.776-3.242-1.705-5.988 2.334-5.988 1.279 0 4.141 5.872 3.426 7.029-1.001 1.62-3.935 1.09-5.76-1.041zM1143 188.72c0-2.02 1.29-4.082 2.55-4.082 2.27 0 2.74 2.063.8 3.535-2.16 1.64-3.35 1.833-3.35.547zm-711-1.082c0-.55.45-1 1-1s1 .45 1 1-.45 1-1 1-1-.45-1-1zm377.658-.449c-.371-.967-.076-1.265.887-.895.794.304 1.194.956.89 1.449-.766 1.24-1.132 1.126-1.777-.554zm443.342.449c0-.55.45-1 1-1s1 .45 1 1-.45 1-1 1-1-.45-1-1zm-558-.461c0-.254.949-1.346 2.11-2.427 2.43-2.264 4.89-1.764 4.89.995 0 1.497-.733 1.893-3.5 1.893-1.925 0-3.5-.208-3.5-.461zm-143.54-5.618c-2.028-4.001-2.323-5.381-1.394-6.5 1.767-2.13 3.838-1.77 3.228.561-.383 1.466.162 2.241 2.094 2.975 1.437.546 2.612 1.252 2.612 1.568 0 .925-3.008 6.475-3.509 6.475-.251 0-1.615-2.286-3.031-5.079zm725.54 2.054c0-1.124 4.98-3.326 5.76-2.546.27.266.22 1.179-.11 2.028-.65 1.699-5.65 2.158-5.65.518zm-582.75-1.471c-1.531-1.739-1.596-3.172-.183-4.045 1.345-.832 3.879 2.518 3.215 4.249-.63 1.641-1.457 1.585-3.032-.204zM424 180.138c-1.864-1.375-4.201-2.5-5.194-2.5-2.088 0-2.323-1.084-.606-2.8 1.617-1.617 2.588-1.51 2.977.327.287 1.358.573 1.351 2.577-.059 1.757-1.238 2.112-2.18 1.609-4.278-.71-2.965.282-2.477 2.118 1.042.65 1.247 1.708 2.155 2.351 2.018.642-.138 1.168.232 1.168.821s.679 1.751 1.509 2.581c1.814 1.814 1.096 3.348-1.568 3.348-1.068 0-1.941.45-1.941 1 0 1.591-1.364 1.182-5-1.5zm711.25 1.25c.63-1.892 3.75-2.161 3.75-.324 0 .928-.86 1.574-2.08 1.574-1.23 0-1.91-.517-1.67-1.25zm-899.804-2.837c-.369-.598-.152-1.607.483-2.242.872-.873 1.384-.79 2.097.337.519.821.95 1.829.959 2.242.023 1.155-2.782.888-3.539-.337zm283.304-.677c-2.801-1.37-3.34-2.759-1.933-4.974 1.008-1.588 7.183.525 7.183 2.457 0 .704.45 1.281 1 1.281s1 .397 1 .883c0 1.537-4.392 1.751-7.25.353zm-35.75-.236c0-.55.45-1 1-1s1 .45 1 1-.45 1-1 1-1-.45-1-1zm647.95-7.9c-3.05-3.097-3.4-3.918-2.5-5.871.61-1.33 2.49-2.675 4.55-3.245 4.77-1.326 8.29-1.265 7.43.128-.38.611-.08 1.487.67 1.947 1.07.665.89 1.318-.88 3.203-1.22 1.301-2.22 3.035-2.22 3.852 0 1.521-1.96 4.005-2.95 3.736-.3-.082-2.15-1.769-4.1-3.75zm-936.45 1.9c.34-.55.816-1 1.059-1s.441.45.441 1-.477 1-1.059 1-.781-.45-.441-1zm598.5-1.059c0-1.133.45-1.781 1-1.441.55.34 1 1.266 1 2.059 0 .792-.45 1.441-1 1.441s-1-.927-1-2.059zm87-.941c0-.55.476-1 1.059-1 .582 0 .781.45.441 1s-.817 1-1.059 1c-.243 0-.441-.45-.441-1zm136 0c0-.55.45-1 1-1s1 .45 1 1-.45 1-1 1-1-.45-1-1zm-620-.378c0-.207.787-.995 1.75-1.75 1.586-1.244 1.621-1.208.378.378-1.307 1.666-2.128 2.195-2.128 1.372zm282-1.622c0-.55.702-1 1.559-1s1.281.45.941 1c-.34.55-1.041 1-1.559 1s-.941-.45-.941-1zm-619-1c0-.55.45-1 1-1s1 .45 1 1-.45 1-1 1-1-.45-1-1zm345.5 0c-.34-.55.083-1 .941-1 .857 0 1.559.45 1.559 1s-.423 1-.941 1-1.219-.45-1.559-1zm23.5-2c-1.282-.829-1.246-.972.25-.985.963-.008 1.75.435 1.75.985 0 1.219-.113 1.219-2 0zm353.3-4.339c-.44-.736-1.7-1.847-2.8-2.469-1.764-.998-1.558-1.135 1.75-1.162 3.341-.027 3.75.242 3.75 2.47 0 2.706-1.414 3.314-2.7 1.161zM384 157.338c0-.715.508-1.808 1.128-2.429 1.039-1.039 2.426-.675 5.843 1.533.259.168-.191.723-1 1.235-2.172 1.374-5.971 1.158-5.971-.339zm-304-3.7c0-.55 1.013-.993 2.25-.985 1.82.012 1.963.201.75.985-1.939 1.253-3 1.253-3 0zm450.655-.829c-2.019-2.231-2.064-3.23-.255-5.704 1.294-1.769 1.4-1.637 1.4 1.743 0 2.011.297 4.137.659 4.723 1.038 1.68.014 1.247-1.804-.762zm590.575.642c.5-1.495 2.77-2.318 2.77-1.004 0 .537-.71 1.25-1.58 1.584-.98.374-1.43.151-1.19-.58zm-600.293-1.389c-1.084-1.307-1.063-1.732.127-2.485 2.03-1.284 3.555-1.158 2.214.183-.617.617-.884 1.742-.593 2.5.707 1.841-.135 1.745-1.748-.198zM49 151.638c0-.55.873-1 1.941-1 1.067 0 2.22.45 2.559 1 .35.567-.49 1-1.941 1-1.407 0-2.559-.45-2.559-1zm7 0c0-.55.45-1 1-1s1 .45 1 1-.45 1-1 1-1-.45-1-1zm60.25-5.009c-1.237-.51-2.25-1.616-2.25-2.459s-.852-1.532-1.893-1.532c-1.884 0-3.66-2.567-2.313-3.344 1.589-.916 11.202.095 12.697 1.337.917.76 1.481 2.449 1.31 3.921-.335 2.875-3.499 3.745-7.551 2.077zm-.521-5.595c-.332-.333-1.195-.368-1.917-.079-.797.319-.56.556.605.604 1.054.043 1.644-.193 1.312-.525zM35 145.842c0-.459 1.575-1.585 3.5-2.503 3.403-1.623 4.239-1.349 2.735.895-.919 1.37-6.235 2.741-6.235 1.608zm435.584-1.454c.137-1.238.287-2.418.333-2.623.046-.204.758.188 1.583.873 2.071 1.719 1.881 4-.333 4-1.308 0-1.761-.644-1.583-2.25zm206 0c.137-1.238.287-2.418.333-2.623.045-.204.758.188 1.583.873 2.071 1.719 1.881 4-.333 4-1.308 0-1.761-.644-1.583-2.25zm-287.364-2.166c-1.354-2.973.401-4.066 3.22-2.004 1.534 1.121 1.636 1.623.586 2.889-1.749 2.107-2.524 1.927-3.806-.885zm855.94 1.528c-.73-.46-1.25-1.011-1.15-1.224.1-.214-.39-1.638-1.09-3.165-.91-2.001-.96-3.082-.18-3.865.79-.784 1.55-.198 2.74 2.095 1.92 3.723 1.73 7.442-.32 6.159zm-887.41-4.196c-2.062-2.154-3.75-4.344-3.75-4.867 0-.522-.726-1.356-1.614-1.853-1.276-.714-1.387-1.327-.527-2.932 1.57-2.935 4.126-3.588 6.309-1.612 1.033.935 3.442 1.733 5.352 1.774 3.567.076 4.543.952 2.104 1.888-1.782.684-.909 5.686.993 5.686 1.645 0 1.767 1.415.348 4.066-1.595 2.98-5.083 2.166-9.215-2.15zm-22.177 1.414c-.281-.732-.086-1.33.433-1.33s.685-1.296.368-2.879c-.327-1.637-.101-3.172.525-3.559.606-.374 1.101-1.481 1.101-2.461 0-1.761 3.736-4.101 6.547-4.101 1.611 0 1.962 1.567.547 2.442-.498.308-.671 1.459-.383 2.559.305 1.167.03 1.999-.662 1.999-.73 0-.94.769-.547 2.005.427 1.347.121 2.167-.933 2.5-5.182 1.635-5.205 1.654-3.069 2.532 2.18.896 2.082 1.009-1.208 1.376-1.215.135-2.438-.352-2.719-1.083zm261.927.67c.34-.55 1.293-1 2.118-1s1.222.45.882 1c-.34.55-1.293 1-2.118 1s-1.222-.45-.882-1zm-249.5-3c0-1.1.477-2 1.059-2s.781.45.441 1-.141 1 .441 1 1.059.45 1.059 1-.675 1-1.5 1c-.833 0-1.5-.889-1.5-2zm35.031 1.25c.054-1.291 4.938-4.387 5.942-3.767 1.226.758-2.496 4.517-4.473 4.517-.825 0-1.486-.338-1.469-.75zm430.219-3.889c-.688-.29-1.25-1.645-1.25-3.01 0-1.366-.475-3.37-1.055-4.455-1.365-2.549-.391-5.546 2.004-6.173 3.13-.818 4.225 1.308 1.74 3.383l-2.189 1.827 2.731.034c2.141.026 2.873.627 3.388 2.783.361 1.512 1.1 3.312 1.641 4 .686.87.568 1.254-.388 1.263-.754.008-2.272.208-3.372.445-1.1.237-2.563.193-3.25-.097zm397.54-.407c-1.62-.954-1.62-1.194.04-4.166 2.15-3.841 3.17-4.257 5.71-2.321 1.35 1.032 1.61 1.733.83 2.264-.63.423-1.31 1.664-1.52 2.757-.43 2.297-2.6 2.923-5.06 1.466zm-75.79-6.954c0-.55.48-1 1.06-1 .58 0 .78.45.44 1s-.82 1-1.06 1c-.24 0-.44-.45-.44-1zm248.5-1c.34-.55.14-1-.44-1-.58 0-1.06-.45-1.06-1s.67-1 1.5-1 1.5.889 1.5 2c0 1.1-.48 2-1.06 2-.58 0-.78-.45-.44-1zm-1363.006-.839c-1.19-1.191-.254-1.772 3.006-1.864 1.925-.055 3.5.255 3.5.688 0 .894-5.748 1.933-6.506 1.176zm348.581-.571c-1.011-1.218-.871-1.893.755-3.639 1.906-2.044 2.039-2.058 2.9-.297 2.021 4.133-.89 7.267-3.655 3.936zM86 125.319c0-1.867 1.631-3.087 2.42-1.811.307.497-.112 1.459-.931 2.139-1.21 1.005-1.489.943-1.489-.328zm118-4.681c0-.55.45-1 1-1s1 .45 1 1-.45 1-1 1-1-.45-1-1zm174.336-2.567c-.834-2.172 1.282-4.215 2.797-2.7 1.28 1.28.487 4.267-1.133 4.267-.585 0-1.333-.705-1.664-1.567zm595.451-.479c-1.615-.954-1.612-1.194.048-4.166 2.145-3.841 3.167-4.257 5.705-2.321 1.353 1.032 1.608 1.733.825 2.264-.624.423-1.304 1.664-1.511 2.757-.436 2.297-2.601 2.923-5.068 1.466h.001zM554 116.642c0-1.213 2.804-2.533 3.629-1.709.298.299-.396 1.045-1.543 1.659-1.447.774-2.086.789-2.086.05zm542.55-.951c-1.7-1.874-1.67-1.929.85-1.661 3.35.357 3.98 1.043 2.28 2.462-1.06.878-1.78.696-3.13-.801zm92.12 1.28c-2.59-2.582 1.75-8.969 5.32-7.838 1.92.61 2 .869.7 2.345-.8.913-1.76 2.672-2.14 3.91-.66 2.183-2.53 2.941-3.88 1.583zm-1154.553-1.2c-2.157-.605-2.228-.796-.75-2.023 1.309-1.086 1.93-1.108 3.133-.11 1.575 1.307 2.03 3.07.75 2.9-.413-.055-1.822-.4-3.133-.767zm250.93-.633c-.024-1.486 1.761-4.026 2.388-3.398.3.299-.112 1.411-.914 2.471-.801 1.06-1.465 1.477-1.474.927zm654.526-2.17c-.281-.732-.086-1.33.433-1.33s.685-1.296.368-2.879c-.327-1.637-.101-3.172.525-3.559.606-.374 1.101-1.481 1.101-2.461 0-1.761 3.736-4.101 6.547-4.101 1.611 0 1.962 1.567.547 2.442-.499.308-.671 1.459-.384 2.559.306 1.167.03 1.999-.661 1.999-.73 0-.94.769-.548 2.005.428 1.347.122 2.167-.932 2.5-5.182 1.635-5.205 1.654-3.069 2.532 2.18.896 2.082 1.009-1.208 1.376-1.215.135-2.438-.352-2.719-1.083zm12.427-2.33c0-1.1.476-2 1.059-2 .582 0 .781.45.441 1s-.142 1 .441 1c.582 0 1.059.45 1.059 1s-.675 1-1.5 1c-.833 0-1.5-.889-1.5-2zm-580.899-2.123c-2.488-2.669-2.667-3.877-.576-3.877 1.432 0 4.031 4.777 3.104 5.705-.236.235-1.373-.588-2.528-1.828zm1051.039 1.232c-.82-.522-.96-1.1-.36-1.473.55-.338 1.55.056 2.23.875 1.35 1.626.29 1.965-1.87.598zM1213 106.638c0-.55.67-1 1.5-1 .82 0 1.5.45 1.5 1s-.68 1-1.5 1c-.83 0-1.5-.45-1.5-1zm-1116.5-1c-.34-.55-.168-1 .382-1s1.278.45 1.618 1c.34.55.168 1-.382 1s-1.278-.45-1.618-1zm428.75-.663c-1.953-.787-1.521-4.337.528-4.337 1.557 0 5.222 3.166 5.222 4.511 0 .619-4.092.495-5.75-.174zm614.55-.537c.93-.934 1.47-.934 2.4 0 .93.933.67 1.2-1.2 1.2s-2.13-.267-1.2-1.2zm7.89-1.444c.66-.267.91-1.229.56-2.138-.56-1.462-.45-1.484.95-.185 1.85 1.71 1.4 3-1.01 2.888-.95-.044-1.16-.293-.5-.565zM22 100.673c0-2.259 3.033-4.25 4.805-3.156.868.537.636 1.344-.843 2.931-2.529 2.715-3.962 2.796-3.962.225zm1132 1.417c0-.737 5.31-5.38 6.2-5.42.39-.018-.06 1.315-1 2.962-.93 1.646-2.49 2.996-3.45 2.999-.96.003-1.75-.24-1.75-.541zm-802-1.452c0-.55.45-1 1-1s1 .45 1 1-.45 1-1 1-1-.45-1-1zm781.49-1.018c-.92-1.48-.05-2.237 2.09-1.82 1.56.304 1.58.466.16 1.636-1.12.932-1.76.984-2.25.184zm-768.818-2.707l-4.828-2.503 2.466-2.636c1.356-1.45 2.771-3.649 3.145-4.886.374-1.238.987-2.247 1.362-2.242.376.004 2.082 2.692 3.792 5.973 2.897 5.56 2.994 6.068 1.421 7.492-1.997 1.807-1.363 1.91-7.358-1.198zm134.596.725c-.942-1.1-2.737-2-3.99-2-2.322 0-2.705-.724-1.729-3.268 1.135-2.956 9.451 3.04 9.451 6.815 0 1.161-2.191.253-3.732-1.547zm452.399 1.333c-2.582-2.582 1.753-8.97 5.319-7.838 1.921.61 1.999.87.705 2.345-.8.913-1.763 2.672-2.14 3.91-.666 2.183-2.526 2.941-3.884 1.583zM1154 95.754c0-.485-.9-1.118-2-1.406-2.33-.61-2.7-4.37-.7-7.107 1.22-1.664 1.51-1.587 4.5 1.21 3.45 3.224 4.09 5.187 1.7 5.187-.83 0-1.5.675-1.5 1.5s-.45 1.5-1 1.5-1-.398-1-.884zm-800-1.116c0-.55.45-1 1-1s1 .45 1 1-.45 1-1 1-1-.45-1-1zm45.556.09c-.935-1.512 3.405-3.529 4.735-2.2 1.258 1.258.972 1.627-1.957 2.526-1.191.366-2.441.22-2.778-.325zm792.444-.09c0-.55.48-1 1.06-1 .58 0 .78.45.44 1s-.82 1-1.06 1c-.24 0-.44-.45-.44-1zm-790.5-5c.34-.55.816-1 1.059-1s.441.45.441 1-.477 1-1.059 1-.781-.45-.441-1zm-55.955-2.542c-1.737-1.314-1.787-1.644-.454-2.978 1.278-1.277 1.777-1.297 3.367-.135 1.145.838 1.623 2.001 1.236 3.01-.769 2.004-1.607 2.025-4.149.103zm721.455.6c0-.517.45-1.218 1-1.558.55-.34 1 .083 1 .94 0 .858-.45 1.56-1 1.56s-1-.424-1-.941zm109.5-.058c.34-.55.82-1 1.06-1 .24 0 .44.45.44 1s-.48 1-1.06 1c-.58 0-.78-.45-.44-1zm-487-1c.34-.55 1.293-1 2.118-1s1.222.45.882 1c-.34.55-1.293 1-2.118 1s-1.222-.45-.882-1zm87.75-1.663c-.687-.277-1.25-1.168-1.25-1.98 0-.842-.485-1.175-1.13-.777-.688.426-.941.156-.646-.691.616-1.769 3.805-1.212 5.451.952 2.191 2.881 1.16 3.943-2.425 2.496zM70.543 82.707c-.683-1.105.894-2.299 1.817-1.375.951.95.774 2.306-.301 2.306-.517 0-1.2-.42-1.516-.931zm223.707-2.57c0-1.964.508-2.5 2.375-2.5 1.306 0 2.375.45 2.375 1s-.45 1-1 1-1 .676-1 1.5c0 .826-.619 1.5-1.375 1.5-.8 0-1.375-1.045-1.375-2.5zm58.75.5c0-.55.423-1 .941-1s1.219.45 1.559 1c.34.55-.083 1-.941 1-.857 0-1.559-.45-1.559-1zm686.12-4c.07-2.474-.01-4.95-.16-5.5-.16-.55.23-2.237.85-3.75 1.42-3.422 6.07-3.928 6.9-.75.29 1.1 1.1 2 1.8 2 1.61 0 2.97 3.341 1.55 3.815-.58.194-1.06 1.118-1.06 2.053 0 2.014-5.52 5.55-7.11 4.562-.61-.377-1.51-.065-2 .693-.57.9-.84-.18-.77-3.122zM390.01 78.15c-.69-.832-2.052-1.512-3.025-1.512-2.238 0-3.382-2.817-1.88-4.627.856-1.032.839-1.736-.069-2.83-1.463-1.763-.52-3.666 1.443-2.913.828.318 1.54 2.27 1.718 4.706.231 3.18.685 4.102 1.92 3.9 2.447-.398 4.256 2.21 2.528 3.643-1.056.877-1.674.79-2.635-.367zM42.75 76.874c-2.8-1.37-3.34-2.759-1.933-4.974 1.008-1.588 7.183.525 7.183 2.457 0 .704.45 1.28 1 1.28s1 .398 1 .884c0 1.537-4.392 1.751-7.25.353zm1373.75-.236c-.34-.55-.17-1 .38-1s1.28.45 1.62 1c.34.55.17 1-.38 1s-1.28-.45-1.62-1zm-1064-2c.34-.55.816-1 1.059-1s.441.45.441 1-.477 1-1.059 1-.781-.45-.441-1zm747.5-5c-1.28-.829-1.25-.972.25-.985.96-.008 1.75.435 1.75.985 0 1.22-.11 1.22-2 0zm5.63-2.75c-.54-3.205-.27-4.047 1.87-5.788 2.9-2.364 3.28-6.45.99-10.827-1.94-3.72-1.89-3.973.6-3.322 1.79.468 2.01.204 1.5-1.822-.66-2.631.87-4.344 1.77-1.985.34.87 1.84 1.494 3.61 1.494 1.79 0 3.03.522 3.03 1.273 0 .801 1.39 1.276 3.75 1.284 5.53.016 7.79 1.087 6.24 2.955-.68.818-.86 1.488-.41 1.488s.28.54-.38 1.2c-.66.66-1.2 2.01-1.2 3 0 .99-.66 1.8-1.48 1.8-.81 0-2.24 1.173-3.18 2.607-1.49 2.277-2.21 2.54-5.67 2.075-5.05-.676-7.1 1.095-6.17 5.324.59 2.689.41 2.994-1.79 2.994-2.05 0-2.55-.61-3.08-3.75zm-966.508.846c-2.106-1.334-.249-3.345 2.46-2.665 1.834.46 2.235.254 1.784-.919-.471-1.228.38-1.512 4.527-1.512 2.809 0 5.107.378 5.107.84 0 1.34-4.616 3.073-6.719 2.523-1.063-.278-2.502.198-3.223 1.067-1.488 1.793-2.016 1.883-3.936.666zM338 68.177c0-.254.949-1.346 2.11-2.427 2.43-2.264 4.89-1.764 4.89.995 0 1.496-.733 1.893-3.5 1.893-1.925 0-3.5-.208-3.5-.461zm274.667-.206c-1.151-1.15-.729-2.333.833-2.333.825 0 1.5.675 1.5 1.5 0 1.561-1.183 1.984-2.333.833zm652.503-2.389c-1.28-1.62-1.84-2.944-1.25-2.944.6 0 1.08-.675 1.08-1.5 0-2.189 3.31-1.834 4.77.511 1.04 1.662.98 2.445-.37 4.5-.9 1.369-1.69 2.464-1.77 2.433-.07-.03-1.18-1.38-2.46-3zm-1034.476.416c-.933-.933.194-2.36 1.865-2.36.793 0 1.441.675 1.441 1.5 0 1.506-2.111 2.055-3.306.86zm106.556-2.856c-1.531-1.74-1.596-3.172-.183-4.045 1.344-.832 3.879 2.518 3.215 4.249-.63 1.64-1.457 1.585-3.032-.204zm-207.75-.88c1.603-1.194 1.752-1.741.75-2.757-1.832-1.858-1.544-2.805 1.169-3.836 3.034-1.154 7.271.675 7.997 3.451.706 2.699-.045 3.161-6.416 3.951-5.022.623-5.326.553-3.5-.808zm970.15-3.453c-2.01-2.231-2.06-3.23-.25-5.704 1.29-1.769 1.4-1.637 1.4 1.743 0 2.011.3 4.137.66 4.724 1.04 1.678.01 1.246-1.81-.763zm-363.033-.727c-.892-2.323-.823-2.444 1.383-2.444 2.325 0 2.593 1.263.617 2.903-1.071.888-1.523.785-2-.46zM1158 54.721c0-1.23.65-2.084 1.57-2.084.93 0 1.44.68 1.25 1.667-.48 2.509-2.82 2.853-2.82.416zm-259.75-2.584c0-1.965.508-2.5 2.375-2.5 1.306 0 2.375.45 2.375 1s-.45 1-1 1-1 .675-1 1.5-.619 1.5-1.375 1.5c-.8 0-1.375-1.046-1.375-2.5zm180.43 1.098c-.53-1.383.06-2.598 1.27-2.598.35 0 .69.9.77 2 .18 2.286-1.24 2.699-2.04.598zm311.86.47c-.68-1.104.9-2.298 1.82-1.374.95.95.77 2.306-.3 2.306-.52 0-1.2-.42-1.52-.931zm-995.229-1.374c-.837-1.355 1.378-3.028 3.122-2.358 2.339.897 1.937 3.567-.509 3.383-1.142-.086-2.318-.547-2.613-1.025zM412 52.014c-2.353-1.268-2.374-1.348-.357-1.361 2.891-.02 3.687-2.582 1.731-5.568-1.745-2.663-2.502-2.896-5.138-1.581-5.709 2.847-8.477 3.098-11.378 1.032-1.572-1.119-2.858-2.43-2.858-2.912 0-.482-1.237-1.476-2.75-2.208-1.985-.96-2.663-1.95-2.437-3.555.209-1.483-.208-2.223-1.25-2.223-2.286 0-1.915-3.412.726-6.673 1.259-1.555 2.828-4.074 3.488-5.597.659-1.524 2.285-3.184 3.614-3.689 1.328-.505 2.692-1.367 3.032-1.916 1.211-1.96 6.514-4.036 7.254-2.84 1.158 1.875 1.359 6.574.309 7.223-1.838 1.136-.998 3.45 1.478 4.072 1.355.34 2.736 1.474 3.068 2.52.331 1.044 1.092 1.9 1.69 1.9.599 0 .274.9-.722 2-1.155 1.275-1.363 2-.576 2 .833 0 1.034.914.618 2.81-.707 3.217 2.316 6.842 4.884 5.857 1.091-.419 1.672.34 2.13 2.778.849 4.529.325 6.581-2.056 8.047-1.6.985-2.5.962-4.5-.116zm722.25-.039c-1.95-.787-1.52-4.337.53-4.337 1.55 0 5.22 3.166 5.22 4.511 0 .619-4.09.495-5.75-.174zm231.42-1.402c-1.45-2.065-1.14-5.906.56-7.034.49-.33 2.03-.383 3.42-.118 1.86.357 2.39.963 2.03 2.348-.27 1.027-.08 2.12.42 2.428 1.47.91-.98 4.44-3.08 4.44-1.05 0-2.56-.928-3.35-2.064zM321 48.638c0-.55.702-1 1.559-1s1.281.45.941 1c-.34.55-1.041 1-1.559 1s-.941-.45-.941-1zm909.94-3.576c-1.09-1.307-1.07-1.732.12-2.485 2.03-1.284 3.56-1.158 2.22.183-.62.617-.89 1.742-.59 2.5.7 1.84-.14 1.745-1.75-.198zm-167.39-2.01c-1.53-1.117-1.63-1.618-.58-2.883 1.8-2.165 6.03-2.005 6.03.228 0 2.74-3.2 4.3-5.45 2.655zm-630.738-1.097c.722-.29 1.585-.254 1.917.079.332.332-.258.568-1.312.525-1.165-.048-1.402-.285-.605-.604zm642.538-4.368c-.58-.578-2.02-1.124-3.2-1.213-2.71-.204-2.8-1.753-.15-2.447 1.1-.287 2-.92 2-1.406 0-.486.87-.883 1.93-.883 1.57 0 1.89.648 1.75 3.495-.19 3.697-.63 4.157-2.33 2.454zM235 33.245c0-.766.732-1.674 1.627-2.017 1.832-.704 4.644 1.162 3.803 2.523-.897 1.451-5.43 1.029-5.43-.506zm1113.5-2.607c.34-.55 1.52-1 2.62-1s1.72.45 1.38 1c-.34.55-1.52 1-2.62 1s-1.72-.45-1.38-1zm-1228-1c.34-.55 1.293-1 2.118-1s1.222.45.882 1c-.34.55-1.293 1-2.118 1s-1.222-.45-.882-1zm345.5.118c0-.55.45-1.278 1-1.618.55-.34 1-.168 1 .382s-.45 1.278-1 1.618c-.55.34-1 .168-1-.382zm567.88-.868c-.06-.413-.08-1.043-.03-1.4.05-.358-.95-.91-2.21-1.226-3.43-.861-5.12-5.237-3.17-8.212.84-1.288 1.53-3.228 1.53-4.31 0-1.4.79-2.061 2.72-2.286 2.5-.29 3.03.323 6.5 7.508 2.08 4.304 3.78 8.016 3.78 8.25 0 .234-1.1.426-2.44.426-1.34 0-2.72.45-3.06 1-.72 1.164-3.44 1.352-3.62.25zM12.5 27.638c.34-.55.816-1 1.059-1s.441.45.441 1-.477 1-1.059 1c-.583 0-.78-.45-.441-1zm510.5-.393c0-.766.732-1.674 1.627-2.018 1.832-.703 4.644 1.163 3.803 2.524-.897 1.451-5.43 1.029-5.43-.506zm-399.812-1.67c.24-.722 1.028-1.51 1.75-1.75.75-.25 1.125.125.874.875-.24.722-1.028 1.51-1.749 1.75-.75.25-1.125-.125-.875-.875zm1059.062-.6c-1.95-.787-1.52-4.337.53-4.337 1.55 0 5.22 3.166 5.22 4.511 0 .619-4.09.495-5.75-.174zM165.723 23.027c-1.076-1.076-.875-6.39.242-6.39 1.88 0 3.03 3.625 1.719 5.418-.681.932-1.564 1.37-1.961.972zM12.26 19.953c-1.359-2.927-.872-4.327.892-2.563.826.826 1.496.742 2.555-.317.79-.79 2.963-1.435 4.83-1.435h3.396l-2.066 3.5c-1.668 2.827-2.67 3.498-5.216 3.492-2.434-.006-3.433-.615-4.39-2.677zm231.463.074c-1.076-1.076-.875-6.39.242-6.39 1.88 0 3.03 3.625 1.719 5.418-.681.932-1.564 1.37-1.961.972zM112.75 18.948c-1.86-.486-2.23-1.497-1-2.727.413-.412.75-1.275.75-1.916 0-.642.675-1.167 1.5-1.167.961 0 1.613 1.167 1.813 3.25.315 3.265.153 3.4-3.063 2.56zM223 16.756c0-.55.45-1.278 1-1.618.55-.34 1-.168 1 .382s-.45 1.278-1 1.618c-.55.34-1 .168-1-.382zm231.456-.189c-.375-.607-.241-1.544.298-2.084.64-.64 1.185-.447 1.57.556.699 1.823-.885 3.119-1.868 1.528zM1131 13.579c0-.583.45-.781 1-.441s1 .816 1 1.059c0 .242-.45.44-1 .44s-1-.476-1-1.058zm-53-.882c0-.518.45-1.22 1-1.56.55-.34 1 .084 1 .942 0 .857-.45 1.559-1 1.559s-1-.424-1-.941zm-685.625-1.68c-.76-.312-.435-1.909 1-4.916 1.964-4.118 2.352-4.409 5.125-3.853 4.462.893 4.821 1.732 2.454 5.743-2.09 3.543-4.907 4.537-8.579 3.026zM511 10.756c0-.55.45-1.278 1-1.618.55-.34 1-.168 1 .382s-.45 1.278-1 1.618c-.55.34-1 .168-1-.382zm284.5-.118c-.34-.55.083-1 .941-1 .857 0 1.559.45 1.559 1s-.423 1-.941 1-1.219-.45-1.559-1zM106.489 8.62c-.915-1.48-.047-2.237 2.088-1.82 1.563.304 1.579.466.168 1.636-1.125.932-1.761.984-2.256.184zm598.021.001c.346-.559 1.047-.757 1.559-.44 1.387.857 1.128 1.457-.628 1.457-.857 0-1.276-.458-.931-1.017zM142.466 6.865c.32-.834-.173-2.352-1.097-3.372-1.6-1.768-1.537-1.855 1.359-1.855 2.306 0 3.184.542 3.642 2.25.899 3.355.841 3.476-1.928 4.005-1.986.38-2.428.15-1.976-1.028zm116.677-.118c-.824-.522-.967-1.1-.363-1.473.546-.338 1.549.056 2.229.875 1.35 1.626.291 1.965-1.866.598zM702 6.607c0-1.29 2.849-2.454 3.764-1.539.373.373.016 1.097-.793 1.609-1.936 1.224-2.971 1.2-2.971-.07zm285.117-.836c-2.157-.605-2.228-.796-.75-2.023 1.309-1.086 1.931-1.108 3.133-.11 1.575 1.307 2.031 3.07.75 2.9-.413-.055-1.822-.4-3.133-.767zM735.571 3.066c-2.086-2.086-2.004-2.234.929-1.673 1.375.263 2.5 1.1 2.5 1.861 0 1.835-1.488 1.753-3.429-.188z"/></g><defs><clipPath id="clip0"><path fill="#fff" d="M0 0h1440v400H0z"/></clipPath></defs></svg>