<svg xmlns="http://www.w3.org/2000/svg" width="362" height="351" fill="none"><path fill="#bbd9d3" d="M190.126 0c-.666.224-1.33.445-1.996.667-.345-.064-.588.06-.723.367-.454.214-.906.423-1.357.635-.837-.234-1.437.822-2.335.272l-2.873-.496c-.576-.284-1.173-.67-1.576-.048-.626-.393-1.307-.468-2.006-.446-.967-.093-1.49.93-2.461.82-.163.227-.38.285-.654.18-.913-.206-1.574.568-2.458.466a5.53 5.53 0 0 0-.98-.516c-1.322-.32-2.602-.052-3.89.04-1.51.285-3.052.463-4.499.97-.635.308-1.325.638-1.88 1.058-3.625.436-3.666.611-3.585 4.335-.787 1.344-.078 2.016.913 2.564-.034.066-.073.13-.103.198-.033.105-.044.214-.062.322l-.128-.252a3.043 3.043 0 0 0-.52-.593c-.182-.187-.362-.38-.55-.562-.253-.335-.296-.759-.518-1.104a3.877 3.877 0 0 0-.624-.663 2.72 2.72 0 0 0-.612-.269c.283-.053.594-.384.636-.802.081-.573.755-1.219.003-1.713-1.1-.726-2.364-1.4-3.63-.79-1.126.54-.464 1.737-.539 2.66a.021.021 0 0 1-.004-.006c-1.216-.465-2.126.115-3.031.696-1.083-.674-1.409.293-1.955.78h-.002l-.865-1.097c-.236.048-.47.1-.701.16l-.013-.004v-.002c-1.019-.87-1.562.183-2.312.413-.753-.074-1.409.142-1.998.55v-.002a816.73 816.73 0 0 1-1.287-.25c-1.066.186-2.134.368-3.2.552l-1.968.933v.002l.002.002.007.015c-.022.024-.034.053-.055.078-.03-.135-.052-.267-.089-.405-2.09-1.532-2.928 1.588-4.774.957-1.292-.13-1.09 2.232-2.74 1.506a2.18 2.18 0 0 1-.736.125h-.002c-.271-.41-.687-.435-1.098-.474-.825-.083-1.619.003-2.363.323-1.574.314-2.322 2.123-4.109 2.054l-2.918-.72a3.156 3.156 0 0 0-1.021-.246l-1.402.407c-1.685-.11-1.315 1.731-2.219 2.36-.446.66-.974 1.215-1.768 1.478-.361.047-.704.479-1.08-.032a14.11 14.11 0 0 1-.22-.347l-.252-.137-.003-.278-.073-.048c-1.048.682-.561 1.615-.239 2.521v.002c-.405.611-1.114 1.7-1.654.956-1.743-2.4-2.754-.928-3.201.423-.59 1.79-.98 1.071-1.738.135-.065-.082-.63.226-.965.353.393.937 1.178 2-.791 1.898-2.948-.152-5.18 1.073-6.744 3.433-2.033-.572-3.53 1.507-5.602.738-.414-.203-.651-.085-.714.352.02.737.387 1.342.842 1.913-3.039 3.324-3.077 3.478.872 5.315l-.426.173c-.143.07-.283.14-.425.208-.291.14-.582.277-.874.415l-.78.317c.006.014.007.03.014.044-.025.012-.049.025-.074.036-.437.204-.88.409-1.319.605-.457.202-.899.43-1.342.655a2.7 2.7 0 0 0-1.125 1.018c-.104.322-.097.648.002.98a1.878 1.878 0 0 0-.834-.017c-.363.131-.666.34-.939.593.23-.342.484-.668.748-.99.152-.23.26-.478.32-.758.03-.256.054-.501.064-.761a.7.7 0 0 1 .399-.494c-.012-.015.352-.02.339-.032a3.1 3.1 0 0 0 .75.006c.262-.061.501-.18.706-.351.22-.683.813-.463 1.31-.458.274-.15.498-.363.646-.639a1.805 1.805 0 0 0-.055-1.015c-1.544-2.486-3.293.175-4.907-.529-1.195.007-1.427 1.032-1.895 1.804l.026-.03c.003.265-.026.524-.08.778-.185.44-.594.442-.993.46a1.158 1.158 0 0 0-.622.514c-.178.13-.365.241-.57.33-.774 1.57-2.388 1.932-3.848 2.516-3.03.378-5.03 2.27-6.924 4.343-.506.555-.439 1.126-.246 1.774-.166 1.76.62 2.932 2.304 3.547-.547.705-1.068 1.436-1.96 1.78-.588.261-1.208.474-1.78.762.178-.17.354-.339.525-.514.191-.254.326-.532.387-.85.016-.311.008-.616-.035-.926-.024-.45.047-.878.164-1.292.085-.282.109-.576.06-.878-.165-.469-.445-.815-.97-.887-2.726.807-3.244 4.222-6.078 4.686.266 1.516 1.544 1.102 2.09 1.657.504.509-.324.665-.68.883-1.594-1.158-2.682.902-4.178.36-.984-.096-.817.83-1.147 1.317-1.198 2.526-3.677 3.753-5.628 5.514-1.118.495-2.473.62-3.116 1.855-.48.63.08 1.38-.095 2.045l.231.162c-.094.365.027.65.367.858 1.298.236 2.616.12 3.91.411-.567.248-.855.756-1.06 1.345-.911.517-1.82 1.037-2.732 1.554-.075.105-.148.209-.221.292-.023.132-.052.259-.072.393-.013.26-.04.51-.062.774a.82.82 0 0 1-.467.514c-.557.072-1.146.017-1.704.145-.296.08-.588.185-.856.329a2.627 2.627 0 0 0-.988.983c-.013.038-.018.076-.029.113a1.944 1.944 0 0 0-.847-.342c-.623-.49-1.19-.23-1.762 0l-.497 2.126c.185.639-.809 1.14-.081 1.838.722.331 1.435.581 2.098.383-.409.32-.94.464-1.663.329-.962 1.557-3.109 1.853-3.885 3.61.214.612.251 1.189-.218 1.667-.035 1.054-1.375.94-1.605 1.82.004.01.012.021.016.032-.008-.004-.013-.009-.02-.012-.924.66-.276 2.489-1.886 2.636-.633.556-1.124.615-1.298-.451l-.116-.093c-.251-.452.127-1.197-.711-1.377a.879.879 0 0 0-.492.434c-.207.294-.37.62-.584.909-.51.823-.829 1.9-1.563 2.423-3.045 2.175-4.578 5.633-7.105 8.23.331 1.263-.59 1.77-1.328 2.392.748 1.516-.215 2.006-1.334 2.398.357 1.291-.244 2.233-.949 3.136-.023 1.136-1.11 1.162-1.744 1.659.077.445-.119.744-.46.968.148.406.139.775-.175 1.078.286.864-.033 1.522-.583 2.1.384 1.012-.148 1.556-.906 1.984.094.405.088.781-.239 1.064.204.451.095.796-.283 1.052.118.471-.064.78-.464.98-.088.38-.177.763-.267 1.144-.011.022-.017.045-.027.067l.02-.071c-.457.157-.572.442-.274.883l.02-.064c-.004.022-.011.043-.014.066-.169.169-.16.34.028.512a.017.017 0 0 0 .004.004c.006.016.004.027.01.043l-.014-.047-.881.984c.073.204.108.412.108.625-.794.414-.549 1.029-.24 1.658l-.874.809c.078.212.14.425.182.643l.005-.004-.001.006-.002.006-.005.012.001-.014c-.237.102-.472.206-.708.31.025.235.079.467.163.693l.008-.006c-.332.825-.662 1.65-.991 2.476.177.492.031.823-.445.989-.54 1.531-.49 3.31-1.655 4.578.15.587.332 1.177-.035 1.719.166.477-.007.801-.406 1.02.013.713-.419 1.094-.981 1.378-.05.627-.456 1.012-.884 1.383.029.803.73 1.586.235 2.401.197.75-.337 1.065-.783 1.435.335.803 1.716 1.501.427 2.473l-1.82 14.905c-.45 1.211 1.589 1.94.844 3.209-.02.654-.49.998-.891 1.391.3.597.44 1.182-.036 1.709-.087.864 3.318 1.302.484 2.505.14.742.111 1.556.945 2.014.115.469-.018.826-.42 1.056l-.13 1.08c2.645 1.249 0 2.352.154 3.53.297.6.35 1.184.023 1.745.272.601.34 1.183-.014 1.734.093.846 1.4 1.522.518 2.499.198 1.036.397 2.075.597 3.112l-.003-.002-.001.002-.003-.004v.006c-.116.192-.251.37-.41.532l.218.2-.06.276c-.2.705.007 1.184.804 1.342l-.039-.036c.198-.042.4-.073.603-.095.215.457.574.572 1.011.504.079.204.193.386.349.542l-1.865.998c.222.417.445.837.665 1.256 1.097.823 1.051 1.987 1.14 3.11.123.329.349.568.663.729.679.93.315 1.53-.498 1.986.112.426.008.766-.324 1.022.251.378.5.757.751 1.134 1.374.112 1.622 1.003 1.486 2.097-.132 1.066-.338 2.118-.51 3.176.193.454.044.783-.305 1.042.16 1.251.49 2.419.995 3.634.488 1.16 2.41 1.706 1.96 2.427-.78 1.251.764 2.17.171 3.163.185 1.293 1.044 2.328 1.546 3.501.558.802 1.469.497 2.176.828.701 1.799 1.177 3.529-.502 4.962-.282.243-.858 1.073.336 1.292l.002.002c.334 1.15.31 2.393 1.864 2.977.929.348 1.565 1.299 1.415 2.443l-.001.008c-.968 1.943-1.813 3.868.451 5.821.207.178.082.745.112 1.131-.079.036-.1.163-.063.375.031.189.21.267.54.232 1.036.045 2.252-.055 1.995 1.572-.208 1.316.736 2.124 1.32 3.102.83-.004.742.383.424.871.866 2.84 4.475 4.647 3.588 8.193-.056.222.764.663 1.081 1.072.444.576.494 1.198.012 1.75-.186 1.578 1.184 2.115 2.102 2.955.202.081.396.169.59.258-.016.009-.035.024-.049.032l-.01-.022a1.894 1.894 0 0 1-.417.465c.295.194.587.39.88.585.266.556.65.932 1.3.925v.002a292.23 292.23 0 0 0-.072 1.548l-.005.008-.002.002c-.245.481-.49.962-.737 1.443.126.223.183.457.169.702a1.42 1.42 0 0 0-.627.32l.586.653v.002c.058.214.14.416.248.611.924-.371 1.85-.737 2.775-1.109l.002.004c.217.443.437.88.655 1.325l-1.182.889.004.002h-.004l-.828.04-.002-.002c-.282-.063-.562-.124-.844-.188.127.717.228 1.46 1.266 1.286l.002.002c.022.237.149.384.383.44.006.261.093.491.261.703l-.427 1.068c-.002.003-.003.006-.006.008-.263.018-.395.161-.4.426h.003c-.815 1.457.79.748 1.04 1.165.67 1.123-1.286 1.056-.932 2.09.078.229.204.513.394.637 1.84 1.201-.163.807-.382 1.147l1.2 3.727c1.307-.514 2.36-.457 2.909 1.237.186.573.67 1.067 1.021 1.599-.05.008-.08.025-.124.036-1.21.282-.69 1.261-.594 2.07.23 1.576 1.65 1.034 2.494 1.518 2.527-.29 2.528-.29 1.87 1.977-.297 1.024.807 2.688 1.889 2.594 1.28-.113 1.898.55 2.48 1.501 1.094 1.791 2.204 3.573 3.306 5.356 4.259 1.762 4.257 1.762 3.248 4.799 1.321-.631 2.666-1.339 2.29 1.318-.04.297.306.677.47 1.016.078.053.198.091.224.159.058.153.068.32.1.48.271.497.547.991.82 1.487.665.754 2.87.413 1.824 2.431-.022.043.553.425.85.651 1.837.185 1.818.196 3.13 2.524.162.289.633.463.987.605 2.669 1.066 4.779 2.811 6.35 5.234 2.103-.165 3.84-1.972 6.207-.945l.004.004h-.004c.333 1.229-1.862.942-1.284 2.318.711.038.782.315.344.784 1.163 2.303 1.585-.423 2.445-.188a.017.017 0 0 1-.004-.004h.004c1.356.458 2.884.64 4.036 1.417 4.399 2.973 9.405 4.443 14.058 6.758l.005.008c1.273 1.036 2.821 1.257 4.294 1.702.485-.186.823.118 1.166.413l.594 1.191c.264 0 .505-.066.722-.202l.006.002.041.299c.283-.017.56-.059.833-.119.05.051.092.108.137.163.075.215.193.421.3.625.692 1.245 1.31 2.589 3.099 2.241.91.822 1.885 1.458 3.138 1.274 1.372 1.244 2.43 2.913 4.399 3.338l-.123-.054c2.11-.207 3.51 2.093 5.603 1.939l.06-.079c.333-.171.565-.481.918-.631a.767.767 0 0 1 .717-.093c.209.138.421.288.631.43.094.468.418.605.89.53.233.1.477.177.739.203.247.013.478-.035.7-.123.36.419.71.853 1.39.571l.69-.311c.234-.097.471-.195.706-.29.868.54 1.754 1.04 2.611 1.605 2.175 1.435 2.564 1.229 3.717-1.01l-.01-.026.014.028 1.178.332c.198.358.436.645.877.547-.836 1.176-1.38 2.327.436 3.384.143.081.112.479.161.729v.002c-.291.301-.243.587.184.702.34.094.666-.019.74-.436l-.003-.002c1.166-.927 2.407-.815 3.696.01 1.202.591 2.13 1.73 3.52 1.956 1.347-.385 2.675-.632 4.15-.135 1.502.507 2.957.835 4.035-.839.679-1.058 1.92-.882 3.187-.004-.718.966-2.549.99-2.176 3.177 1.558-1.453 3.415-.64 5.169-.736.435-.373 1.009-.634 1.023-1.338.098-.271.146-.554.125-.855l-.001-.012 1.006-.556a1.948 1.948 0 0 1-.327-.629c0-.026-.006-.048-.01-.073.01-.004.016-.01.026-.014.29-.103.588-.212.866-.347 1.724-.674 2.374-1.856 1.97-3.535 1.299 1.067 1.682 1.418 1.18 1.877a6.736 6.736 0 0 0-1.962 1.203c-.098.106-.161.23-.226.353-.342.13-.654.307-.925.55-.54.626.1 1.405-.121 2.068-.557.624-.375 1.212.21 1.78 1.594-.175 2.655-1.389 4.095-1.869v.004c.393 1.337-.174 3.665 2.649 2.508.223-.091.787.539 1.191.834.205-.328.498-.474.906-.377.321-.139.424-.365.305-.685l.038.002.124-.157v-.002h.004l-.004.002c.18.137.36.267.543.399.345-.411.98-.586.997-1.262l-.006.002c0-.002.003-.002.004-.004.677-.252 1.53-1.384 1.838.413.16.939.66.909 1.31.744.13-.6.474-1.041.97-1.369-.12-.416-.112-.791.243-1.068.13-1.121.984-1.564 1.878-1.28.723.231.074 1.101.198 1.669.08.361.384.686.59 1.028 2.533.604 3.02-1.585 4.155-2.89.035-.206.043-.413.038-.621.113.04.225.082.337.123.095.206.209.407.358.592.263.187.54.267.84.25l.196-.209.298.004.308-.212.37-.091 3.169-2.261c.201-.124.401-.245.6-.371.656.24 1.067-1.008 1.821-.167 1.727-.567 3.284-1.707 5.321-1.228.025-.779.618-1.425.36-2.271-.161-.769-.015-1.468.321-2.121a.774.774 0 0 0 .067-.463c.063.026.122.059.19.08.772.15 1.48-.019 2.171-.284.63-.252 1.234-.549 1.853-.826.894-.481 1.781-.336 2.662.209.312.118.622.144.931.045.622-.257.549-1.169 1.26-1.371.007.211.052.44.138.651.16.228.378.34.66.308.815-.145 1.5 1.164 2.373.379a2.782 2.782 0 0 0-.034-.544l-.162-.328a1.074 1.074 0 0 1-.097-.704c.057-.226.124-.449.197-.673.815-.173 1.083.466 1.427 1l.811-.194c.12-.182.277-.329.47-.435-.515-1.921.607-2.366 2.158-2.405 1.594-.038.727 1.248 1.093 1.873.903-.059 1.1-.803 1.473-1.427.717-1.201 1.6-2.245 3.062-2.554-.024.216-.026.435.01.661.15.577.428 1.078.906 1.469.245.331.56.491.958.486l-.176-.024c2.566.315 4.168-1.663 6.346-2.274.899-.507 2.029-.138 2.938-.594.416-.094.682-.341.794-.752.236-.094.47-.184.707-.278.243.168.482.18.724.036.808-.465.67.637 1.128.728 2.876-.28 5.498-1.607 8.466-1.552.513-.267.79-.728.979-1.256.043-.183.094-.362.137-.544.046-.377.055-.755.004-1.137-.28-.958-.658-1.803-1.869-1.772-.58.302-.724.945-1.101 1.381-.15.174-.201-.637-.557-.832-.834-.884-1.856-1.159-2.984-1.085-.09 0-.177.012-.265.016.41-.151.799-.356 1.145-.665.049-.091.116-.169.17-.256a1.2 1.2 0 0 0 .49-.177c.275-.251.535-.535.984-.448.257.063.488.184.694.359a3.7 3.7 0 0 1 .512.411c1.296.377 2.082-.608 3.1-.969.281-.152.56-.298.837-.454.35-.255.728-.477 1.096-.709.401-.188.79-.408 1.2-.569.174-.138.312-.301.42-.493-.052-.063-.117-.116-.175-.174.121-.263.15-.536.067-.832-.464.205.135.069-.242-.313-.305-.309-.324-.407.069-.425.513-.28.801-.71.757-1.338a1.889 1.889 0 0 0-.521-.768c-.406-.297-.868-.434-1.342-.52l-.008-.171c-.428-.1-.86-.257-1.289-.085-1.079.31-1.235 1.178-1.204 2.157-.575.875-1.036.037-1.531-.206a.712.712 0 0 0-.29-.012.936.936 0 0 0-.278-.474c-.346.234-.433.521-.124.887l.008-.004c0 .003-.003.005-.003.008a.825.825 0 0 0 .12.625c.05.401-.027.775-.141 1.143-.139.725-.645.748-1.197.677-.612-4.16-3.867-1.228-5.6-2.368-1.947.796-4.507-.385-6.144 1.725-.336.435-.62-.265-1.016-.796 1.622-1.543 3.828-1.452 5.913-1.691 1.548-.478 3.088-.966 4.793-.837 1.526.115 2.48-.396 2.084-2.172a2.79 2.79 0 0 1-.157-.784l.026-.025s.318.052.31.039c-.006-.014.33.133.324.121.227.1.462.198.703.274.12.04.25.092.375.133.26.084.528.155.798.197.277.035.56.064.839.059.434.012.87.02 1.296-.045.44-.098.816-.302 1.12-.622.285.035.038-.932.634-.321.125.092.257.186.384.274.3.127.617.219.937.256.335.025.669.015.997-.028 2.252-.903 4.266-2.585 7.062-1.715a5.344 5.344 0 0 0 1.56-.645c2.244-2.016 5.415-2.66 7.575-4.801.1-.149.156-.302.184-.46 1.005 1.479.414 2.392-.979 3.021h-.002c-.474.093-1.142.119-1.176.637-.069 1.069 1.015 1.23 1.669 1.72l.032 1.87c-.09.041-.145.14-.175.29-.028.149.115.215.435.196.844.505 1.684 1.01 2.527 1.518l1.253-.579c-.194-.457-.391-.91-.59-1.369.884-.468 1.767-.94 2.65-1.408h.001c2.016-1.083 4.312-1.711 5.935-3.425 1.718-.733 4.215-.658 3.795-3.614a.667.667 0 0 1-.602.129c-1.474-.314-2.235.739-3.162 1.474l-1.65.81c-1.208.016-2.066.618-2.886 1.284.2-.328.368-.7.477-1.155-1.168-.558-2.1.846-3.28.157-1.386-1.045-2.377-2.999-4.5-2.364a1.472 1.472 0 0 0-.938-.361c-1.146.131-2.126.807-3.32.746 1.016-.118 1.987-.362 2.893-.805 2.158-.268 4.475 1.153 6.547-.147.852-.238 1.536.339 2.283.607.331.073.664.091.99.038a2.68 2.68 0 0 0 1.287-.756c.583-.829 1.085-1.701 1.304-2.727a1.31 1.31 0 0 0-.57-.84c-.75-.351-2.172.3-2.038-1.349.409.053.765-.117 1.096-.401.04-.059.057-.12.092-.179.827.746 1.653 1.491 2.482 2.235a.798.798 0 0 1 .423.466c-.029.339-.021.679.034 1.024.077.257.154.513.229.77 1.563-.593.108-2.227.876-3.094.207-.692.702-.829 1.369-.627.17.318.342.639.514.955 2.015-.492 4.08-.938 3.41-3.845a2.855 2.855 0 0 0-.299-.704l.441-.161c.214-.136.423-.273.635-.409.856-.057 1.163.524 1.381 1.209 1 .696 1.833.198 2.684-.187l.272-1.067c.036-.721-.423-.85-.89-.975.025-.02.055-.031.08-.053.13-.183.177-.388.205-.6.156-.057.313-.114.47-.169-.129-.219-.256-.436-.381-.654v-.004l.398-1.025 1.304-.565.926-1.431c.275-.454.553-.906.829-1.358.325-.218.45-.598.669-.901.176-.185.347-.373.521-.561-.194-.498-.388-.996-.584-1.493.032-.331.063-.658.099-.986.335-.48.138-.905-.228-1.312a1.149 1.149 0 0 0-.936-.097 1.91 1.91 0 0 0-.619.669c-.128.271-.254.536-.358.815-.346.536-.943.665-1.492.862-1.116.609-2.236.86-3.357-.022l.055-.058c.538.161 1.006.018 1.436-.26a79.12 79.12 0 0 0 2.893-2.413c.447-.372.926-.69 1.46-.929a9.353 9.353 0 0 0 .793-.335c.07.226.148.45.25.665.282.52.665.91 1.256 1.051l.353-.111.267-.246c.187-.275.321-.571.407-.897l-.002-.002c.088-.345-.033-.608-.363-.784a.974.974 0 0 1-.355-.667c.383-.946 1.027-1.47 2.154-1.218.43-.232.982-.362.876-1.05 1.026-1.475-1.028-3.824 1.08-5.011.205.002.408-.026.611-.048-.035.092-.074.183-.107.276-.213.604-.265 1.295.49 1.498.48.13.695-.445.757-.96.042-.34.215-.655.332-.983.146-.349.296-.696.443-1.044h.004c.253-.114.503-.228.756-.341 1.88.003 1.25-1.822 1.883-2.727.9-.493 1.194-1.264.909-2.294-2.934-1.795-2.81.111-3.004 1.633a3.596 3.596 0 0 0-.538-.55 2.704 2.704 0 0 0-.502-.297c-.088-.668-.176-1.336-.266-2.003-.34-1.602-1.586-1.628-2.798-1.718a1.89 1.89 0 0 0-.853.442c-.622.741-1.65.914-2.306 1.604a1.41 1.41 0 0 0-.28.71 1.188 1.188 0 0 0-.73.099 1.387 1.387 0 0 0-.32.905c.042.497.24.951.464 1.412-.029.272.545.482.114.762a.858.858 0 0 0-.191-.624c-.96-1.257-2.198-1.239-3.493-.924a.541.541 0 0 0-.188-.201l-.044-.024a1.15 1.15 0 0 1 .04-.035c.008-.007.013-.016.02-.024l.186.053c.115-.122.233-.24.35-.361.035-.018.03-.094.008-.198.462-.036.54-.263.33-.633.044-.067.086-.133.126-.201l.076.02c.135-.096.271-.191.408-.286a.836.836 0 0 0 0-.307c.02 0 .04.005.059.004.929-.151 1.623-.6 2.073-1.362.236.258.514.45.858.534.782.045 1.422-.255 1.998-.709.797-.866 2.032-1.369 2.17-2.764-.228-.749-.756-1.206-1.45-1.505a.486.486 0 0 0 .385-.182.691.691 0 0 0-.14-.673l.002-.004c.096.021.192.045.295.044.274-.012.543-.029.812-.072.416-.015.817.078 1.204.235.131.06.262.134.393.194.268.135.552.246.84.314a.884.884 0 0 0 .155.613c.128.083.257.163.386.246.779.226-.28.51.08.748.144.325.366.433.68.288.644-.283 1.284-.56 1.927-.838l.66-2.068c.081-.642.893-.739.98-1.375-.52-.804-1.34-1.036-1.973-.583-1.036.745-2.211.184-3.28.404 0-.001-.002-.004-.004-.004h-.008l-.002-.002c-.193-.469-.391-.935-.586-1.403.6-.582 1.475-.853 2.017-1.5.274.117.546.17.814-.016a5.43 5.43 0 0 0 1.891-.762 3.821 3.821 0 0 0 1.36-1.524c.618-1.141 1.119-2.372 2.381-2.977.305-.119.611-.24.907-.383.921-.418 1.661-1.004 1.905-2.064.016-.132.016-.263.01-.393 1.603-.045 1.797-1.041 1.498-2.368.168.028.28-.072.341-.28.295-.201.591-.401.884-.603.393-.261.756-.563 1.04-.943.24-.386.365-.811.366-1.276.249.091.504.139.77.127.294-.042.578-.102.859-.198.536-.158 1.073-.218 1.618.053.244.163.475.35.704.536.327.318.621.678.95.996-.07.068-.14.138-.222.197-.677.324-1.339.668-1.845 1.234-.204.225-.391.463-.547.725-.035.065-.08.122-.116.186-.593-.13-1.095-.472-1.618-.877-.92-.714-1.4-.246-1.5.742-.104.546.048 1.027.443 1.451.302.268.648.362 1 .427-.607.332-1.243.615-1.813 1.008-.437.322-.785.718-.928 1.264.41 1.213 1.43 1.184 2.385 1.28a4.406 4.406 0 0 0 1.632-.389 4.59 4.59 0 0 0 1.305-.923c.866-1.016 1.663-2.104 2.947-2.659 1.04-.507 2.034-1.125 3.272-1.177a8.79 8.79 0 0 0 1.01.097c.341-.029.613-.171.8-.456.43-.26.859-.523 1.29-.784.372-.242.558-.642.805-.988.382-.46.948-.735 1.267-1.257.142-.291.177-.6.066-.927a1.446 1.446 0 0 0-.819-.581c-.431-.137-.89.12-1.297-.205.454-.578 1.248-.402 1.83-.726.277-.105.527-.233.772-.403l.214-.301s.264.27.263.26c0-.008.326.235.32.232.26.068.523.092.787.055a2.61 2.61 0 0 0 1.084-.508c.293-.259.514-.573.71-.913.126-.208.3-.362.502-.492a1.41 1.41 0 0 1 .715.04c.253.107.517.203.78.274.3.062.605.063.896.004.276-.172.461-.417.553-.735-.07-1.691-.852-3.583.955-4.781.159-.191.29-.397.411-.611.368.294.821.397 1.29.458.452.042.902.048 1.34-.047a.871.871 0 0 0 .587-.564l.002-.002c.307-.656.77-1.26.578-2.084.173-.321.258-.68.363-1.026.077-.31.212-.591.408-.837-.03-.252.072-.411.307-.481.378-.289.544-.687.512-1.178l-.079.051c.405-.963.129-1.707-.505-2.336l.018-.057c.14-2.526 2.348-3.196 3.923-4.436.097-.356.192-.715.288-1.072.354-1.501-.823-1.998-1.82-2.614-2.437-.729-2.244 2.875-4.48 2.493a5.768 5.768 0 0 0-.9.181c-.26.067-.495.149-.746.28-.03.025-.288-.111-.322-.115-.033-.003.193-.218.178-.215.157-.144.31-.302.448-.496.149-.17.318-.292.503-.401.212-.062.442-.064.665-.036.077.022.155.046.232.07l.058.067.079-.025c.257.08.516.154.784.172.286-.048.527-.182.71-.395.17-.242.325-.497.45-.764.047-.147.101-.292.148-.44.067-.307.103-.62.093-.941l-.008-.026a.492.492 0 0 0 .422-.238c.563.291 1.153.507 1.732.754.903.325 1.762.852 2.749.788.938-.564.618-1.7.985-2.517.535-1.309 1.688-2.352 1.494-3.981.01-.273.147-.438.411-.496.211-.317.516-.567.645-.941a1.41 1.41 0 0 0-.064-.772.996.996 0 0 1-.004-.722c.43-.307.942-.516 1.337-.893l.01-.028c.941-.917 1.476-2.047 1.567-3.412.072-.293.237-.516.463-.694.45-.069.958-.032 1.264-.469-.186-.793 1.148-1.559-.132-2.367l-.006-.002.006-.002c-.229-.452-.457-.905-.688-1.356l.003-.012v.012l.354-.135.281-.244a6.46 6.46 0 0 0-.243-.689.23.23 0 0 1 .034-.002l-.002-.002h.008c1.281-.77 1.054-2.275 1.48-3.459l.234-1.641-.002-.002c.42-.909.586-1.859.257-2.886l.002-.002 1.009-.399c.677-.022.869-.484.94-1.057-.854-1.41.09-1.235.965-1.116.696-.271 1.234-.685 1.382-1.472l.176-1.681c.201-.126.399-.253.594-.384-.084-.227-.174-.455-.263-.682.196-.123.399-.239.603-.35-.152-.444-.307-.891-.458-1.337.361-.821.72-1.644 1.08-2.467.157-.832-.237-1.328-1.031-1.58a2.009 2.009 0 0 0-.99.234c-.122.114-.245.225-.365.34-.18.285-.306.59-.38.923-.006.168-.017.333-.027.502.028.151.053.301.078.452-.06.01-.12.006-.18.028-.461.123-.766-.068-.952-.506-.092-.417-.167-.837-.011-1.241v-.019c.045-.36.193-.696.211-1.064.185-.319.299-.662.294-1.046.235-.35.332-.73.182-1.167a.756.756 0 0 1-.332-.425c-2.078-.969-1.466-2.123-.467-3.304.231-.05.45-.123.66-.221l-.17-.129c.332-.508-.325-1.237.263-1.685.394-.378 1.31-.453.738-1.389-1.324.761-2.876-.559-4.201.161-.582-.102-.859.285-1.132.669-.525.935-1.486 1.049-2.432 1.185-.34.068-.678.16-.99.297-.676.335-1.264.752-1.391 1.584.564.803 1.099.862 1.606.278a3.366 3.366 0 0 0-.019 1.435c.064.194.166.351.3.474-.418.243-.714.628-.954 1.076-.204.429-.376.865-.58 1.296-.05.084-.113.127-.17.188-.455-.022-.902.001-1.318.179-.014-.005-.028-.007-.043-.012a2.156 2.156 0 0 0-.98-.038c-.67.215-1.128.681-1.488 1.265-.12.229-.2.471-.257.724l-.134-.073c-.355-.069-.713-.058-1.07-.159a.69.69 0 0 1-.323-.54c.02-.363.062-.731-.032-1.103-.022-.052-.051-.097-.08-.141l.007-.006c.517-.668.714-1.487.944-2.291.016-.077.024-.155.037-.232l1.1.865c.612.524 1.23.427 1.847.139.116-.656.446-1.124 1.1-1.319l-.58-.705-.002-.002h.004a1.99 1.99 0 0 1 .351-.228c-.09-.511-.25-.986-.727-1.298.158-.109.306-.231.432-.379-.092-.2-.193-.396-.298-.592a2.082 2.082 0 0 0-.685-.047c-.149-.313-.297-.629-.445-.943a1.65 1.65 0 0 0 1.047-.29c.349-.319.577-.717.738-1.161.158-.418.314-.835.48-1.246.257-.53.6-1.015.676-1.628.03-.015.004-.114-.087-.297a.808.808 0 0 0-.453-.387l-.054-.024c-.52-.071-.735-.474-.951-.881-.005-.016-.014-.03-.02-.046.139-.053.227-.172.25-.381l.008-.014c.047-.367.137-.717.26-1.06-.135-.236-.27-.468-.404-.704-.297-.118-.593-.151-.89-.068-.03.017-.05.042-.077.06a.87.87 0 0 1 .174-.226c.072-.061.154-.113.23-.171.037.054.06.114.105.165l.455.236c.543-.273.992-.613.856-1.344l.002-.002c.086-1.066-.903-1.223-1.491-1.718v-.03c.192-.976.433-1.946.554-2.938.135-1.094.047-2.16-.943-2.913.332-.62.396-1.315.308-2.054a12.562 12.562 0 0 1-.123-1.443c.002-.16.022-.318.027-.474a4.791 4.791 0 0 0 0-.953 4.965 4.965 0 0 0-.305-.941c-.771-1.412-.24-2.96-.778-4.398-.273-.436-.64-.782-1.047-1.101-1.188-.916-.234-1.938-.366-2.918a1.556 1.556 0 0 0-.376-.768 1.38 1.38 0 0 1-.644-.258l.222-.17a.763.763 0 0 0-.004-.667c-.186-.401-.565-.551-.915-.742a1.769 1.769 0 0 1-.551-.584c-.255-.355-.224-.735-.193-1.117v.02c.057-.025.07-.128.038-.302-.031-.17-.168-.279-.416-.326l.047-.029c-1.31-1.029-1.728-2.486-2.133-3.95-.281-.428-.697-.636-1.188-.742-1.307-1.286.523-1.321.685-2.022.195-.568.585-1.356-.456-1.384-.714-.018-1.373.619-2.108.768-1.179.244-1.291-.491-1.084-1.383.137-.359.05-.682-.226-.97-.478-.331-.996-.488-1.56-.435-.538.124-.958.402-1.21.895-.108.514-.052 1.03.082 1.546.177.655.262 1.31.253 1.971-.115.621.105 1.299.118 1.945-.109-.219-.212-.44-.307-.663-.17-.442-.291-.891-.41-1.34a4.322 4.322 0 0 0-.269-.889c-.261-.421-.563-.747-1.1-.54-.234.066-.44.006-.622-.176-.817-.111-.685-.753-.773-1.267a1.62 1.62 0 0 0 .18-.855l.262-.139a.95.95 0 0 0-.135-.665l.006.004.3-.135.078-.319c-.22-.375-.439-.753-.658-1.128-.898-.686-.343-1.353-.117-2.024l-.024.036c.169-.291.158-.596-.009-.905-.105-.134-.206-.27-.314-.401-.41-.435-.824-.861-1.321-1.189.077-.059.086-.191.033-.387.316-.277.41-.656.413-1.072l-.034.056c.154-.295.098-.541-.209-.734l-.036-.02c-.638-.239-.99-.608-.636-1.284l-.192-.147c-.452-.383-.906-.763-1.361-1.143.159-.607-.075-1.043-.657-1.324l-.28.004c.06-.661.113-1.322.168-1.983-.585-1.182-2.336-1.696-2.083-3.358l-.522-1.476-.035-.01c-.066.031-.165-.01-.301-.121-.139-.11-.149-.281-.032-.512l.008-.032c.043-.298-.053-.553-.282-.768a.614.614 0 0 1-.492-.383c-.354-.471-1.071-.81-.671-1.556a.594.594 0 0 1 .306-.554c-.063-.475-.021-.98-.47-1.344l-.019-.013.02.008-.349-.737a1.934 1.934 0 0 1-.404-.411c-.045-.487.031-1.007-.191-1.44a4.542 4.542 0 0 0-.324-.963 2.617 2.617 0 0 0-.708-.776c-.108-.035-.213-.039-.32-.05-.343-.767-.399-1.755-1.574-1.869-.943.006-1.831.056-1.186 1.415.672.132.995.551 1.235 1.038-.148.102-.296.203-.436.315-.338.254-.658.521-.913.844a5.338 5.338 0 0 0-.085-2.185c-.23-.963-.6-1.871-1.214-2.683-.173-.19-.36-.36-.552-.526a5.506 5.506 0 0 0 1.662.198c-.071.176-.144.351-.217.526.362.165.72.33 1.082.494-.156-.35-.31-.7-.464-1.05.074-.007.147-.007.219-.016.573-.116 1.068-.335 1.398-.774.047.053.087.11.135.163 1.263.945 1.266 3.57 3.74 2.91.134-.134.262-.267.397-.399.605-.661.166-.999-.474-1.274h-.002c-.049.023-.14-.046-.274-.207-.13-.157-.154-.351-.07-.589h-.005c.202-.356.13-.647-.26-.862l-3.383-4.54c-.155-1.58-.84-3.098-1.507-4.458-.993-2.018-1.381-4.792-4.394-5.263a9.39 9.39 0 0 1-1.844-3.515c-1.255-.616-2.017-1.66-2.569-2.886-1.262.077-2.532.108-3.673.673-.466 1.233-.515 2.494.039 3.814.019.017.135.34.135.34s-.283-.2-.278-.19c-.53-.604-.313-1.35-.486-2.025-.148-.46-.478-.78-.85-1.074-.067-.135-.13-.273-.194-.411-1.22-.706-1.393.438-1.908.977-.692.442-.63 1.1-.4 1.806.515 1.284 1.457 2.39 1.765 3.751.178.509.438.98.801 1.39.499.54 1.048 1.029 1.6 1.508.654.573 1.277 1.198 2.02 1.615a1.475 1.475 0 0 0-.649.252c-.025.02-.039.049-.062.07-.769-.162-1.396.188-1.986.674.348.279.718.487 1.112.622-.305.496-.737.882-1.124 1.305l-.455-.299c-.044-.06-.084-.122-.14-.181l-.235-.109c.214-.351.321-.751.265-1.227a3.578 3.578 0 0 0-.339-.952c-.103-.133-.204-.267-.308-.397a1.891 1.891 0 0 0-.89-.389l-.456.105c-.731.32-1.529-.206-1.383-.693.394-1.287-.694-1.788-1.16-2.613-.367-.093-.709-.256-1.057-.399l-.006-.004a1.067 1.067 0 0 0-.661.034.443.443 0 0 0-.005-.247c.1-.168.178-.35.22-.553-.18-.234-.227-.482-.141-.747a1.002 1.002 0 0 0-.358-.73c-.373-.21-.824-.13-1.178-.397l-.055-.014c-.853-.147-1.548.05-1.991.794.03.12.062.235.09.357-.058-.036-.112-.086-.174-.11-.166-.022-.29-.08-.373-.173.133.061.268.124.403.18-.169-.204-.343-.404-.522-.605l-.003.012v-.01a1.443 1.443 0 0 0-.083-.544c.686-.303.846-.896.775-1.615h-.002c.177-.267.152-.532-.07-.796l-.438-.165c-.3-.008-.603.004-.902.032l-.02-.042c-.667-.752-.556-1.196.437-1.282.16-.06.318-.122.475-.187.207-.282.157-.534-.152-.75a.487.487 0 0 1-.417-.403c-.223-.355-.633-.472-.926-.738a106.7 106.7 0 0 0-.44-.708c-.41-1.746-2.08-2.562-3.028-3.91-.577-.355-.63-1.256-1.43-1.376v.004c-1.432-1.488-3.84-2.143-4.076-4.654l-.004-.002h.004c.401-.63.59-1.417 1.25-1.855.08.066.155.136.236.202 3.005 1.53 4.633 4.184 5.974 7.075.787.245 1.4.184 1.922-.039-.231.547-.391 1.177-.49 1.875.19.645.523 1.202 1.034 1.663.543.405 1.137.462 1.754.366a5.58 5.58 0 0 0 1.076-.348 7.329 7.329 0 0 0 1.786-1.087c.684-.674 1.275-1.453 2.251-1.757l.313-.153.318-.14v-.004l.002.002c.363.114.719.257 1.085.351.514-.275.962-.607.986-1.276l-1.052-.433c-.572-1.217-1.009-2.498-1.958-3.527v.008a.023.023 0 0 0-.004-.01c-1.373-2.082-2.719-4.186-4.672-5.82-.168-.37-.265-.758-.386-1.138-.068-.418-.001-.82.078-1.216.207-.736.566-1.465.004-2.26-.404-.406-.874-.518-1.4-.394-.546-.11-.825 1.783-1.556.103-1.255-.484-2.372-1.206-3.275-2.25-.067-.048-.141-.076-.212-.115.472.002.819-.242 1.07-.689-.057-.645-.248-1.175-1.037-1.205-.307.669-.57 1.532-1.522 1.278-.648-.174-.916-.917-.943-1.576-.017-.5.097-.995.155-1.494l-.05-.018c-.555-.105-1.048-.56-1.652-.41-.402.153-.825.153-1.256.055-1.412-1.11-2.826-2.225-4.237-3.336-.826-.468-1.342-1.388-2.311-1.642l-.915-1.284c-.33-1.256-1.118-.861-1.863-.637-.502.345-.772.825-.803 1.453.034.392.125.773.278 1.147.254.524.583.992 1.003 1.403.082.068.169.132.25.2a13.41 13.41 0 0 1-.427-.093c-.445-.09-.853-.275-1.255-.49a3.42 3.42 0 0 0-.812-.373l-1.727.582c-.13.065-.258.13-.383.2-.225.179-.442.37-.633.584a3.333 3.333 0 0 0-.505.708c-.218.61-.108 1.169.38 1.67.267.17.544.242.847.212.423-.047.842-.057 1.204.256.453.517.718 1.145 1.003 1.766.268.664.455 1.353.8 1.987.733.984 1.607 1.656 2.877 1.456.392-.13.69-.353.9-.665.007.528.158 1.023.41 1.495a2.67 2.67 0 0 0-.85.059 6.378 6.378 0 0 0-1.65.711c-.779.583-1.668 1.099-1.242 2.352-.015 0-.031-.003-.046-.004a1.37 1.37 0 0 0-.55.079c-.976-.218-.816-1.162-1.046-1.859.115-.204.086-.396-.084-.578v-.002c.054-.397.104-.794.158-1.191.056-.026.045-.13-.026-.313-.067-.162-.225-.24-.481-.225l.057-.027c-.738-.245-1.47-.52-2.2-.796l.01.012c-1.024-.664-1.765-1.533-2.098-2.709-.449.277-.9.553-1.35.829-.46.102-.921.202-1.383.306a1.275 1.275 0 0 0-.284-.49c.517-.24.768-.556.255-1.108a1.615 1.615 0 0 1-.46-.506c-.887.101-1.183-1.218-2.12-1.006-.793-.76-1.607-1.117-2.55-.403-.414.313-.89.175-1.318-.155-1.307.191-1.255-1.779-2.503-1.677-.657-.534-1.592-.781-1.792-1.772-1.249.617-2.66.047-3.96.26-.002-.005-.004-.009-.004-.014.34-1.573-1-3.307.115-4.845.077-.108-.606-.791-.936-1.206-.603-.532-1.223-.84-1.916-.288-.552.8-.15 1.768-.159 2.663-1.31-.932-2.566-2.012-4.332-1.704-.01.008-.017.017-.028.025-.174-.372-.349-.744-.522-1.117-.575.356-1.171.5-1.82.036l.02-.08c-.37-.088-.717-.282-1.098-.325-.433-.198-.53-.584-.591-.994-1.843.09-3.602-.168-5.064-1.6a.59.59 0 0 0-.273-.208c-.193-.484-.495-.886-.953-1.175-.56-.182-1.05-.078-1.49.252-.201.185-.28.401-.234.65-.418-.197-.233-.632-.424-.928-.135-.217-.243-.456-.403-.663-.462-.555-1.038-.951-1.659-1.294-1.35-.888-2.837-1.103-4.35-1.17-.166-.01-.33-.032-.492-.045a6.171 6.171 0 0 0-.971-.035c-.154.04-.309.078-.464.113-1.347.288-2.46-1.416-3.854-.727v.002h-.002c-.947-.559-.65-1.14-.108-1.661.356-.34.6-.656.299-1.177-.663.292-1.326.586-1.99.876h-.002c-.483-1.152-.935-2.394-2.323-.943-.517.54-1.076 1.01-1.868 1.127a1.111 1.111 0 0 0-.53-.589l-.001.006v-.006c-.836-.899-1.774-.457-2.683-.383l-1.218.262c-.914-1.024-.233-2.13-.393-3.192-1.159-.535-1.867.977-3.024.451l-2.792-.036c-2.835-.9-3.055-.772-3.72 2.199-.003.004-.005.007-.006.012-.038.788.478 1.377.85 2.02v.006c-.16.168-.316.344-.46.528.02.058.031.117.05.175a.978.978 0 0 1-.381.006c-1.122-.606-1.296-1.842-1.935-2.77-.858-1.239-.986-2.42.028-3.51-.267-.776-1.032-.671-1.575-.96-.15.122-.318.21-.506.264.122.74-.352 1.056-.898 1.325-.655.888-1.82 1.262-2.321 2.303-.024.086-.023.163-.03.242-.398-.606-.86-1.07-1.579-.977a3.633 3.633 0 0 0-.36-.446c-.49-.47-1.078-.737-1.701-.931.116 0 .232-.003.348-.04.4-.236.677-.58.891-.982.117-.278.154-.57.099-.879-.041-.087-.078-.176-.117-.264.043.002.086.01.13.01.482-.02.94-.128 1.371-.316.021-.01.038-.024.06-.034l.173.22c.65.05 1.097-.192 1.256-.84-.011-.025-.014-.052-.026-.078.528.043 1.039.012 1.481-.336.208-.41.21-.845.105-1.302-.09-.379-.177-.755-.046-1.121.225-.21.51-.351.757-.538-.117.359-.24.717-.247 1.108.013.324.064.645.176.958.138.298.313.571.539.816.13.1.25.202.38.3.272.164.553.31.846.422.146.05.29.11.436.159.292.097.583.177.882.226.297.04.595.07.89.066.447.012.892.017 1.327-.062.424-.112.779-.325 1.037-.684.629 1.416 2.183 1.31 3.246 2.006.805.323 1.61.42 2.426.238.592-.147 1.177-.3 1.797-.317.305.014.616.032.919.03.478.023.953.032 1.421-.032.318-.057.622-.148.908-.284.75-.384 1.212-1.034 1.588-1.76.292-.566.618-1.113.69-1.78-.267-1.024-1.026-1.552-1.946-1.932a2.991 2.991 0 0 0-.818-.075c-.233.018-.446.023-.683.034-.022.01-.245-.125-.245-.125s.005-.09 0-.165c.03-.042.06-.084.089-.129.155-.07.33-.12.51-.143.134-.005.286.004.436-.002.304.033.614.057.915.059.107-.01.2-.047.295-.08.48.516.945 1.086 1.673.535.014.02.021.04.037.06.63.442 1.44.544 1.977 1.16.328.824.017 1.715.386 2.54-.035-.008-.07-.022-.105-.027a3.912 3.912 0 0 0-.95.173c-.305.092-.61.182-.908.294-.626.2-1.314.27-1.779.787-.3.766.004 1.366.646 1.87 1.241.387 2.491.887 3.646.004.8-.462 1.195-1.08.708-2.046.136.01.272.009.41-.03.399-.287.863-.437 1.328-.585-.027.432.074.853.277 1.266.335 1.298.065 2.866 1.756 3.558-.25.064-.401.249-.27.486.075.14.411.15.631.221a3.235 3.235 0 0 0-.263-.669c.322.111.64.122.958.02.31-.134.55-.344.729-.629.338-.928.083-1.943.228-2.896-.059-.514-.264-.951-.729-1.254l-.644-.701c-.343-.391-.616-1.007-1.023-1.19.378-.071.827.038 1.199-.046 1.965-.27 2.944-1.117 1.748-3.249l-1.404-1.24c-.293-.353-.65-.48-1.075-.366-1.145.634-2.338.44-3.547-.047-.989-.112-1.374-4.06-2.912-.659-.294.486-.588.969-.88 1.454-1.232.016-1.09-1.333-1.82-1.816a3.466 3.466 0 0 0-.678.328v.002c-.67.234-1.342.464-2.006.7-.604.04-1.2.08-1.802.122h-.006l.002-.002c-.658-.245-1.364-.58-1.158.63l.008-.005c0 .003 0 .004-.002.006l-.293.097a3.962 3.962 0 0 1-.202.685c-.093.23-.25.4-.472.512.002.001-.314.158-.314.158-.21.116-.43.208-.665.274h-.004c-1.666-.569-1.307.436-1.03 1.376l-1.312.673c-.34.143-.72.15-1.074.236a3.242 3.242 0 0 0-.71.188c-.014-.031-.025-.062-.042-.093-.127-.252-.09-.455.08-.629.153-.071.317-.138.479-.205l.156.04c.372.29.6.214.688-.228l.072-.278a4.52 4.52 0 0 0 .688-.56c.518-.559 1.121-1.05 1.393-1.808-.086-.922-.76-1.241-1.522-1.48a4.068 4.068 0 0 0-.787-.086.795.795 0 0 1-.58-.317 1.502 1.502 0 0 1 .06-.67c.059-.267.135-.553.216-.836-.24-.875-.755-1.198-1.675-1.165-1.119.038-2.26-.124-3.39-.2-.545-.069-.944.1-1.192.529-.008-.023-.009-.033-.018-.058-.077-.201-.239-.347-.486-.44a.556.556 0 0 1-.403-.42c-.322-.272-.565-.227-.724.136.026-.054.038-.135.019-.274-.034-.191-.19-.315-.475-.369zm102.308 72.14c.01.001.016.005.025.006l-.03-.01.005.004zm47.699 53.802c.018.027.04.047.058.076l-.08-.149.022.073zm8.233 32.124c.029.012.059.011.088.024l-.088-.026zM30.284 274.277l-.018-.053-.024.111c-.001-.025.029-.038.042-.058zm-.042.058c-.001-.002.022-.113.022-.113l-.123.055.1.058zm-.101-.058c-.16-.09-.317-.18-.477-.272l.06.457.417-.185zM79.133 33.689c.014 0 .024-.005.038-.004l-.063-.005c.009.004.017.005.025.009zM205.335 2.677c-.048.102-.147.287-.134.296.166.112.35.197.528.288a.701.701 0 0 0-.394-.584zm-74.238.876c-.474.094-.949.185-1.422.277l.424.995c.308.104.616.205.927.307l.071-1.579zm35.517 2.818s-.21.095-.177.083c-.258.092-.555.12-.856.137-.004-.037-.002-.074-.016-.109.26-.006.52-.02.784-.097.028-.015.265-.014.265-.014zm-35.418.692c-.616.066-1.603-.086-1.775.237-.498.941.748 1.138 1.16 1.724.207-.113.43-.158.671-.141 1.153-.558 1.053-1.168-.056-1.82zm22.383.342c.15-.012.385.114.745.452a10.14 10.14 0 0 1-.947-.276c.046-.094.103-.168.202-.176zm71.8.252c-.482 0-.96.149-1.448.33-.829.027-1.512.225-1.494 1.242 1.609 1.942 3.85 2.956 5.913 4.233 1.386.979 3.024.498 4.481 1.058 1.094.52 2.15 1.148 3.342 1.387.338.004.645-.079.92-.25.31.856 1.202.94 1.88 1.308.885.199 1.739.864 2.644.73.034.101.06.205.1.306.197.577.143 1.104-.18 1.58a6.437 6.437 0 0 1-.857.903c-.238.155-.495.28-.754.4-.441.098-.904.12-1.344.22a2.93 2.93 0 0 0-.847.412c-.522.518-.78 1.085-.199 1.802.82.58 1.711.61 2.617.522.88-.093 1.742-.246 2.488-.723.72-.762 1.95-.827 2.604-1.671l.015.042c-.352.939.152 1.895.153 2.838.023.49.066.981.21 1.465.376.87 1.05 1.341 1.943 1.528l3.181 1.183c.052-.148.106-.293.156-.439.007-.487-.127-.945-.359-1.389a3.004 3.004 0 0 0-.97-1.054c-1.354-.2.35-.794-.221-1.094-.136-.913-.386-1.745-1.479-1.97-.808-.164-1.353-.664-1.73-1.386l-.001-.006c1.562.135 3.05.873 4.61 1.032a8.694 8.694 0 0 0 2.465 2.475c1.684.759 3.37 1.504 5.181 1.647-.22.674-.81.95-1.454 1.16-.604.212-1.163.5-1.639.932-.025.025-.046.053-.071.078-.08-.65-.263-1.26-1.02-1.622-.833-.143-1.06.478-1.328 1.034-.137.459-.19.925-.01 1.409.254.334.509.666.765 1a.96.96 0 0 0 .13.237c-.112.207-.238.405-.336.619-.066.146-.144.286-.208.431-.138.29-.263.591-.35.905-.055.35.048.659.289.934 2.032.874 2.5-1.089 3.642-1.829l.017-.012c.816 1.017 1.313-.579 2.007-.54 1.295 1.236-.608 1.794-.403 2.798.986.841 1.675.123 2.433-.23.038.107.073.216.125.32.857.936 1.788 1.182 2.817.48.546-.607.32-1.515.712-2.18.186-.234.398-.45.608-.664 1.145-1.131 2.74.113 3.999-.461.887-.735 1.015-1.475-.142-2.23-.483-.922-1.341-.861-2.148-.949-2.733.54-1.866-2.865-3.65-3.364-1.254-.433-2.744-.418-3.42-1.953.065-.03.069-.156.019-.371-.044-.21-.214-.349-.507-.417-.455.226-.91.456-1.363.685-2.744-.867-4.9-3.21-7.842-3.574-.617-.553-1.23-1.104-1.844-1.66-.603-.024-.926.361-1.228.784a1.51 1.51 0 0 1-.167.284c-.446-.134-.882-.028-1.313.17h-.002l-.018-.007c-.346-.14-.714-.2-1.041-.395h-.002v-.002l.661-2.336c-.193-.366-.478-.478-.85-.359h-.002c-.752-.457-1.337-.12-1.913.264h-.002c-.266.03-.526.056-.787.085-.369-.639-.73-1.277-1.096-1.915-.963.051-1.753-1-2.765-.627-1.208-.301-1.38-1.602-2.202-2.275-3.095.45-5.957-.434-8.66-2.725-.495-.42-.98-.572-1.462-.573zm-24.005.296l.037.017-.038-.008v-.009zm-16.563.2c.139-.006.282-.003.428.012.577.064.852.366 1.031.746-.89-.966-2.061-.259-3.119-.2-.351.142-.679.32-.973.553-.625.884-2.293 1.48-.593 2.98.152.02.298.007.446.005l.165.31c.29.436.582.874.87 1.312h.003c1.014 1.409 1.119 2.543-.693 3.16-.076.029.007.448.014.686.783-.025 1.567-.053 2.349-.075.172.175.338.356.502.537a1.2 1.2 0 0 0 .138.554c-.952-.438-2.078-.241-2.96-.93-1.16-1.22-1.631-4.23-4.184-1.813-.26.232-.425.643-.912.431-.176-.45-.09-1.015-.57-1.37.184-.096.363-.2.533-.32-.373-.171-.65-.197-.611.271-.673.342-1.13 1.116-2.07.93-.852 1.337-1.757 2.013-3.035.154-.13-.183-.698-.08-1.063-.11h-.002a11.167 11.167 0 0 1-.511-.331c-.584-.572-1.178.062-1.763-.145-.454.139-.902.277-1.352.417-.627-.023-1.116.162-1.321.788 1.174 1.667 2.453 1.58 3.764.988-.091.43-.219.844-.447 1.22-1.601-.907-3.186.09-4.78.078l.2.187c-.622.176-1.236.47-1.878-.074a1.21 1.21 0 0 0-.443.1c-.169-.22-.413-.335-.745-.326-1.097.46-2.194.917-3.29 1.377l2.06.85h.004l-.004.002c.058.205.137.402.239.59a.948.948 0 0 0-.363.479l.004.002h-.004c-.67.786-.123 1.044.59 1.066.102.003.203-.007.304-.02-.798.324-1.604.629-2.516.635-.441.024-.858-.098-1.272-.238-.347-.37-.775-.572-1.393-.373-.018-.002-.035-.009-.054-.01.684-.903 1.52-1.708 1.685-2.939-.122-.153-.236-.306-.357-.46-1.485-.228-3.066.78-4.471-.93-.45-.55-1.593-.713-2.22.364-.418.718-1.304.546-2.068.193-.2.05-.401.098-.597.146-.59.618-.674 1.326-.294 2.116a20.3 20.3 0 0 0-.102.083 2.53 2.53 0 0 0-.315.707c-.055.25-.102.496-.124.756a1.58 1.58 0 0 1-.291.655c-.354.206-.764.16-1.163.131-1.305-.209-2.606-.377-3.694.44-.035-.044-.07-.087-.12-.128a1.05 1.05 0 0 0-.613.006c-.093-.042-.185-.08-.278-.123l-.02-.094-.03-.01c.753-.094 1.441-.285 1.778-1.046l.569-.264c.102.316.295.57.59.76 1.283.225 2.257-.04 2.517-1.452-.063-.217-.1-.44-.11-.66a1.818 1.818 0 0 0-.14-.71c.11-.059.14-.18.06-.391.16-.333.32-.665.478-.998-1.173-.598-1.871-.356-1.939 1v.002a.71.71 0 0 1-.417.413c-.142.34-.28.683-.42 1.022a3.858 3.858 0 0 0-.502.616c-.05-.144-.17-.254-.397-.312-.577-.035-1.158-.421-1.732-.105l-.002-.002-.012-.004a4.783 4.783 0 0 1-.346-.508c-.238.041-.46.12-.67.238l.003.002h-.004l-.134-.034c-.018-.732-.382-.82-.867-.8.413-.25.76-.644 1.012-1.244.457-1.084 1.282-1.021 2.217-.893.36.045.698.015 1.026-.105.427-.275.723-.667.982-1.09.36-.539.802-1.013 1.159-1.552.115-.218.141-.451.124-.693.37-.025.737-.063 1.102-.111.296-.048.58-.12.853-.238.52-.236 1.065-.417 1.59-.637.505-.26.91-.648 1.343-.992.356-.246.753-.421 1.156-.572.457-.123.923-.244 1.383-.42.305-.106.61-.159.944-.189.274.165.45.407.569.694l.03.165c-.057.112-.016.269.082.451.017.083.046.162.067.244l-.256-.09c-.166.032-.333.062-.497.096a1.394 1.394 0 0 0-.557.611c-.38-.555-.72-1.155-1.52-1.18l-1.215.801c.292.377.584.753.874 1.13.322.192.647.383.968.575l1.092-.582c.072.094.139.191.237.272.371.07.65-.057.844-.357.45-.138.894-.276 1.343-.415.015-.006.027-.004.042-.01.433-.298.862-.597 1.295-.895.298-.206.56-.436.738-.72.09.703.104 1.423.68 2.008.461.312.963.474 1.502.47 1.242-.118 2.374-.617 3.6-.77.714-.166 1.35-.449 1.798-1.04.11-.211.143-.428.112-.65.822-.15 1.55-.493 2.223-.943.16.059.33.103.51.127 2.09-.573 3.835 2.745 6.031.95.296-.363.408-.778.364-1.238.647.072 1.237-.23 1.857-.325-.387.497-.244.774.445.825l-.004.002c1.432 1.035 2.12-.465 3.175-.718l-.356-.723-.407-.901c.012 0 .022-.004.034-.004.499-.101.991-.22 1.468-.393.47-.167.926-.354 1.368-.575.853-.364 1.647-.878 2.619-.921zm-19.253 8.552l-.002-.002-.001.01c0-.003.003-.005.003-.008zm-20.315-7.387c.025.154.09.292.188.417-.428.321-.765.734-1.077 1.171-.013.023-.027.045-.042.067-.515-.453-1.23-.566-1.811-.905.12-.14.228-.291.304-.468.018-.012.04-.022.06-.034 0 .097-.003.19.015.302 1.113.85 1.832.445 2.363-.55zm-30.44.01c-.294-.026-.538.099-.631.47-.228.907.224 1.773 1.456 1.78.408-.557.12-1.204.099-1.815-.289-.232-.63-.408-.924-.435zm35.119.954l.037.044c-.393.344-.788.69-1.229.046.421.156.816.103 1.192-.09zm15.093.096c.495-.04.972.13 1.412.631a3.59 3.59 0 0 0-1.925.891c-.115-.067-.221-.145-.347-.202-.609-.35-.738-.722-.085-1.038.319-.152.635-.257.945-.282zm-53.36.361l-2.292.29c-.015.574-.585 1.075-.093 1.71l.038-.023c1.229.153 2.249-.062 2.681-1.338.059-.027.079-.125.063-.292-.015-.17-.15-.285-.397-.347zm72.45 1.098a1.71 1.71 0 0 0-.102.134 1.184 1.184 0 0 0-.026-.115c.041-.008.085-.012.128-.019zm-7.19.539l.006.006-.002.002c0-.003-.003-.006-.005-.008zm-71.155.163c-.67-.067-1.175.43-1.624 1.058.828.529 1.572 1.52 2.5.579.216-.219.098-1.21-.15-1.365a1.695 1.695 0 0 0-.726-.272zm117.366.125c-.432.002-.754.241-.967.7l-.08.001c.447.764 1.057 1.508.44 2.39a.556.556 0 0 1-.484.45c-.145.31-.294.614-.448.915-.213.139-.429.273-.641.412-.143.1-.284.204-.426.306a49.281 49.281 0 0 1-.281-.117c-.806.606-.268 1.129.217 1.657l.315-.08a1.03 1.03 0 0 0 .296-.646c.441-.042.774-.252.94-.734.474-.195.948-.393 1.42-.59.736-.01 1.397.377 2.1.548.493.39.898.186 1.295-.064-.037.16.048.296.278.407l.8.506c.22.255.493.416.812.492l.011.006c.278.102.562.129.843.084.025-.008.044-.025.07-.034.022.063.047.125.062.192.235.048.472.044.698-.015h.004c.145.177.299.343.463.498.235-.043.458-.113.668-.217l-.006-.006.016-.008c-.007.28.112.51.377.685l-.014-.004c.262.092.437.265.588.461a.473.473 0 0 0-.113.313c-.273.495-.81.72-1.165 1.133a.85.85 0 0 1-.496.5c.562.903 1.43.283 2.118.57.181-.549.363-1.095.546-1.645.196.068.399.112.608.11.972-.086 1.573-.674 2.046-1.434.552-.239 1.106-.476 1.661-.714.305.066.593.038.866-.08.237-.173.41-.4.513-.68.044-.02.019-.12-.072-.296-.083-.165-.24-.263-.47-.296-.357-.184-.717-.368-1.077-.55l-.11.13c-.291-.223-.666-.304-.926-.58.013 0 .025.003.039.002-.304-.441-.75-.593-1.233-.671.125.2.276.35.445.464a1.273 1.273 0 0 1-.447-.464.566.566 0 0 0-.54-.278l.242.002.209-.101c-1.236-.675-2.33.71-3.573-.014-.936-1.517-2.107-.982-3.261-.6-.493-.148-.924-.043-1.322.217-.011.011-.017.025-.028.036a3.533 3.533 0 0 0-.287-.612c-.092-.147-.187-.293-.28-.44.009-.506.016-1.008.027-1.512l-2.814-.626a1.569 1.569 0 0 0-.471-.08zm-79.07.73c.002.004.006.006.01.012h-.013c.001-.004.001-.009.003-.012zm44.991.28l-.104.038-1.289.754-.107-.03c.167.542.525.836 1.056.649.678-.24.8-.753.444-1.411zm-64.108 1.904c.22.118.433.247.642.387-.215 0-.426.055-.635.137a1.42 1.42 0 0 0-.007-.524zm73.78 1.31c.418.012.835.074 1.255.236.518.188 1.247.057 1.508.631-.17-.006-.34 0-.512-.012-.299-.034-.594-.072-.897-.093-.292-.051-.574-.122-.86-.193-.137-.058-.266-.13-.403-.19-.167-.113-.326-.237-.489-.358.133-.005.266-.024.398-.02zm30.621.41l.341.143c.24.044.468.13.679.25.089.08.172.167.256.254a.975.975 0 0 0-.386.397 1.338 1.338 0 0 0-.091-.327.917.917 0 0 0-.723-.35c-.016-.007-.075-.367-.075-.367zm4.674.614l.072.142c.005.003.146.325.164.326.02.002-.005.344.02.353-.147.209-.372.287-.632.256-.447-.074-.904-.131-1.36-.026-.068.022-.118.066-.18.096l-.002-.002c-.035-.074-.054-.154-.076-.234.042.006.08.022.121.025.642-.114 1.202-.404 1.713-.776.061-.049.106-.107.16-.16zm-24.225.035c.117.05.232.107.352.155a.64.64 0 0 1-.352-.155zm-22.7.514c.054.065.118.125.182.183-.285.085-.503.286-.612.673.012.356.022.712.033 1.069a1.306 1.306 0 0 1-.218.086c-.28.09-.566.187-.842.3a5.853 5.853 0 0 0-1.176.658c-.377.232-.78.402-1.252.387-.062 0-.125 0-.187-.002.78-.485 1.728-.705 2.479-1.234.244-.223.44-.486.57-.792 0-.105-.016-.203-.04-.298l.63-.226h.003c-.02-.17-.039-.34-.056-.51l-.19-.155c.26.04.486-.003.676-.14zm-.432.804l-.007.07c.001-.007.006-.01.009-.018l-.002-.052zm53.467.131c-.255.027-.504.153-.751.292-.09.041-.145.142-.171.3-.024.164.124.252.448.265.223-.034.447-.055.673-.06l.591-.495c-.273-.257-.535-.329-.79-.302zm-104.833.369c.218.391.182.995.609 1.213a5.93 5.93 0 0 0 1.25.26c-.568.234-1.142.406-1.723-.417-.188-.311-.142-.689-.136-1.056zm28.851.373c.002.061-.009.12-.003.183.18.812.585 1.508 1.213 2.084.195.16.4.254.611.32-.164-.007-.33-.019-.495-.02-1.062-.081-2.133-.261-3.167-.032.097-.07.173-.136.16-.187-.418-1.69.352-2.269 1.681-2.348zm-35.079.104c.24.957.822 1.517 1.983 1.41.373-.07.35-.586.71-.601.05-.005-.32.34-.1.604.311.69.627 1.383 1.23 1.893a2.13 2.13 0 0 0-.429.113c-.495.24-.925.596-1.522.593-.27-.035-.541-.076-.814-.105a.99.99 0 0 0-.718.256c-.013.04-.014.069-.018.1l-.058.132.036-.19c-.018.076-.038.15-.058.226-.287-.084.336-.474-.036-.657a1.418 1.418 0 0 0-.317-.17c.235-.727-.078-1.329-.656-1.864l-.249-.093a.83.83 0 0 0 .398-.701c.003-.008.01-.014.014-.022.155-.338.34-.66.604-.923zm71.925.343c.236.032.475.066.71.089.321.038.642.065.96.056.271-.002.538-.033.804-.072.034.114.08.222.14.322l-.018-.006c-.54.542-1.194.838-1.923.98-.134-.5-.389-.942-.673-1.369zm27.762.462a3.323 3.323 0 0 0-.67.268l.362.756c.455-.213.603-.538.308-1.024zm-24.411.518c.311.132.633.228.971.248.168-.001.331-.014.493-.039l-.016.087c-.081.048-.169.085-.25.135-.289.191-.571.398-.828.637-.103.111-.21.207-.316.3-.044-.01-.084-.033-.131-.04-.451-.054-.897-.123-1.339-.222a5.39 5.39 0 0 0-.364-.096c.592-.338 1.186-.674 1.78-1.01zm-36.327.173c.009.017.011.032.021.049 1.447.417 2.988.07 4.39.842.223.059.446.126.669.192-.353-.011-.705-.035-1.046-.182-1.663-.36-3.261.07-4.891.113.455-.203.78-.51.857-1.014zm29.154.14l-.03.021c-.017-.002-.032-.007-.048-.01l.078-.012zm-89.498.53c.22.094.44.119.656.094-.056.028-.112.052-.157.099-.737.973-2.001.606-2.98.961-.498.197-.899.495-1.175.92.377-1.407 1.536-1.743 3.069-1.559.254-.112.439-.296.587-.516zm19.316.169c-.121.543-.24 1.086-.365 1.628l-.038.103c-.206.118-.419.22-.643.304-.018.195-.015.394.003.593-.1.07-.196.145-.296.216l-.786.399h-.002v-.002c-.375-.1-.75-.2-1.127-.303-.122.37-.24.74-.358 1.109.214.187.338.403.412.635-.124.202-.241.407-.327.63-.552.167-.034-.505-.393-.485-.936-.597-1.788-.642-2.492.22-.422-1.044-1.359-.895-2.206-.948-.55.069-1.043.26-1.488.565-1.107.999-3.064 1.184-3.578 2.74.006-.71.092-1.398.716-1.924 1.064-1.253 3.057-1.325 3.85-2.927.238-.222.483-.442.713-.675 1.396-1.293 3.054-1.02 4.76-.455.338.068.675.09 1.012.048.785-.157 1.348-.665 1.955-1.113.221-.13.448-.244.677-.358zm90.137 1.257c.536.559.273.89-.043 1.206-.125-.042-.253-.069-.377-.115-.284-.106-.572-.193-.86-.286.372-.326.917-.473 1.28-.805zM120.678 24c-.367.004-.757.18-1.075.248-.626.135-.258.744-.033 1.17.677-.212 1.353-.42 2.03-.63-.216-.624-.556-.792-.922-.788zm8.703.532c-.004.105.039.15.088.177-.03-.006-.031-.014-.089-.018-.024-.002-.032-.008-.05-.012.016-.05.035-.098.051-.147zm-28.452.612c.06.007.14.048.243.127l-.012.002c-.133.05-.271.098-.407.148.015-.165.054-.29.176-.277zm123.64 1.708a1.76 1.76 0 0 1 .331.012l-.026.05a.516.516 0 0 1-.314.298c-.06-.113-.13-.222-.193-.334.067-.01.135-.023.201-.026zm6.257.12c.2.552.546.982 1 1.319a2.389 2.389 0 0 1-.547-.12c-.397-.138-.78-.198-1.12.045-.073-.599.296-.922.667-1.243zm-.696 1.559a.501.501 0 0 1-.013.16c-.024-.005-.047 0-.071-.005l.084-.155zm-122.518 1.344c.316-.016.648.021 1.007.155-.99 1.301-2.44 1.48-3.147 2.568a1.203 1.203 0 0 0-.157.778c-.551.118-1.051.302-1.293.806.165-.836.006-1.687-.209-2.531-.282-1.111.345-1.286 1.209-1.26.847.073 1.641-.467 2.59-.516zm-13.58.093c.163.265.355.479.583.633-.254.06-.5.154-.747.242.117-.265.17-.557.164-.875zm4.566 4.378c.261-.021.544.003.838.046-.022.056-.046.111-.069.167-.286.026-.564.08-.823.196a4.099 4.099 0 0 0-.472.31c-.72.078-1.267.512-1.74 1.1-.072-.054-.153-.097-.231-.144.616-.977 1.421-1.59 2.497-1.675zm146.357 1.729c.14.023.264.107.374.26-.365-.29-.806.025-1.257.411l-.05.178c-.011-.001-.021-.004-.033-.004a40.01 40.01 0 0 1-.008-.345l-.178-.103c.4-.2.812-.454 1.153-.397zm29.283.486c.88.684 1.764 1.358 2.644 2.035.561.436 1.28.745 1.554 1.432-.296-.391-.715-.7-1.132-1.01-1.009-.833-2.236-1.42-3.066-2.457zm-19.705 2.183c-.341.264-.766.413-1.187.57.395-.259.782-.624 1.187-.57zm-1.795.79c.022 0 .045.008.068.006-.04.02-.085.035-.123.056l.055-.062zm9.691 1.382c.008.002.013.005.021.006l-.02.009-.001-.015zm-150.66.47c.24.121.48.24.723.353-.148.096-.297.175-.442.294a3.775 3.775 0 0 1-.281-.647zm142.513.38c.923.06 1.825.532 2.748.543.174-.029.346-.075.519-.12l.22.18c-1.2.719-2.518-.543-3.738-.122a1.107 1.107 0 0 0-.327-.446c.194-.031.387-.046.578-.034zm7.043.666c.364.111.708.322 1.073.43l.004.005c.37.118.737.23 1.103.345.893.499 1.831.748 2.819.736a2.327 2.327 0 0 0-1.233.328c-.412.297-.726.684-.992 1.113-.376.86-1.475.87-2.13 1.403-.133-.117-.263-.235-.402-.347-.48-.458-.828-.978-.88-1.634-.004-.165-.003-.33-.005-.494l.002-.002-.002-.004a6.753 6.753 0 0 0-.06-.968c-.034-.126-.084-.245-.134-.365.173-.032.337-.092.483-.207.118-.114.234-.227.353-.339zm-188.96 1.552c.199.015.448.157.73.379a1.516 1.516 0 0 0-.616 0c-.309.13-.596.295-.85.51-.298.278-.601.55-.924.796l-.004.002v.002a5.11 5.11 0 0 1-1.074.643c-.571.321-1.104.671-1.184 1.387-.11-1.287 1.655-1.294 2.165-2.155.683-.264.942-1.623 1.756-1.564zm203.473 4.513c2.377.043 3.15 1.112 2.79 3.616-.174-.266-.413-.487-.675-.69-1.065-.739-1.46-1.976-2.244-2.92.04 0 .09-.007.13-.006zm-2.206 3.154c.206-.046.369.018.52.166.02-.009-.035.26-.013.252-.095.16-.223.317-.347.463-.166.163-.31.347-.436.546.144-.457.204-.914.058-1.37.072-.02.144-.037.218-.057zm-2.308.518c-.113.378-.227.755-.342 1.131-.07-.01-.139-.01-.21-.022-.438-.218-.18-.513-.147-.782.266-.013.497-.129.699-.327zm-210.4 1.968c-.594.971-1.82 1.524-1.963 2.793-.063.102-.144.18-.217.27-.037-.682-.008-1.359.001-2.036.995.202 1.622-.346 2.18-1.027zm30.888.15c.023.19-.026.403-.192.662-.01.002-.024 0-.035.002.095-.211.158-.439.227-.663zm181.895.253c.042.164.074.334.114.5-.085.002-.204.002-.204.002s.01-.273-.008-.258c.043-.076.073-.16.098-.244zm22.113 1.002c.027-.023.087.06.199.262.101.177-.137.454-.307.616-.374.32-.637.725-.716 1.24v.002a5.143 5.143 0 0 0-1.535.054c.317-.273.652-.514 1.047-.649.39-.264.81-.477 1.134-.828.135-.508.213.187.174-.323-.018-.223-.024-.352.004-.374zm-18.176 1.67c.299-.026.487.107.596.381a1.303 1.303 0 0 1-.364.611 1.75 1.75 0 0 0-.376.752c-.018 1.379.876 1.96 2.065 2.292.742.289.68.93.757 1.503.095.33.264.632.495.895.968.756 2.008 1.345 3.208 1.534.026.496.272.94.675 1.344.124.051.254.1.381.147l-1.09.535c-.023-.073-.035-.147-.06-.218-.562-.99-1.619-1.398-2.435-2.088-1.39-2.689-4.463-4.298-5.164-7.454.005-.032.02-.061.028-.093.425-.047.853-.164 1.284-.14zm20.2 1.333a.598.598 0 0 0 .337.246l.02.034c-.159-.013-.304-.05-.356-.28zm-241.899.475c-.705.446-1.373.934-1.949 1.518.445-.729 1.063-1.271 1.95-1.518zm246.427.006c-.097-.017-.226.055-.364.152.17.099.35.176.54.225-.012-.255-.078-.36-.176-.377zm.518 3.227c-.259-.026-.57.026-.948.178-1.793.089-1.953.808-.675 2.084.433-.061.807.075 1.125.407l1.33-.639c.304.292.605.6 1.058.446.212.315.454.592.795.245.054-.055-.168-.383-.263-.586a2 2 0 0 1-.509.3c-.2-.222-.397-.447-.594-.671-.23-.9-.541-1.684-1.319-1.764zm-6.772.847c-.222-.02-.312.133-.265.465.13.778.468 1.462 1.068 2.016.493-.265 1.295-.287 1.312-.992.033-1.25-1.37-.75-1.863-1.412l.016.002a.89.89 0 0 0-.268-.08zM51.705 64.2c.106.002.21.028.314.059 0 .034-.006.063-.007.097-.18-.04-.38-.03-.54-.113a.578.578 0 0 1 .233-.043zm65.135.274c.181-.016.363.025.546.075-.5.175-1.042.514-1.65.992-.048-.238.022-.48.31-.724a1.41 1.41 0 0 1 .794-.342zm194.603 1.573c-.23.093-.463.159-.71.21-.26.23-.768.587-.48.832.672.57 1.02-.231 1.49-.492a.892.892 0 0 0-.3-.55zm-15.256 1.149c-.406.059-.204.854-.45 1.108-.353.432-.2.88.057 1.328.304.399.636.771.98 1.131.456.478.868 1.029 1.615 1.008.381-.35.337-.792.198-1.258-.586-1.028-1.168-2.055-1.753-3.084-.308-.19-.512-.253-.647-.233zm-253.006.179c-1.398.64-2.566 1.564-3.538 2.735-.003.523-.515 1.05.126 1.566.471.316.96.315 1.452.168.305-.121.592-.271.857-.46.495-.391.93-.844 1.36-1.3.33-.339.528-.756.682-1.201-.166-.587.197-1.48-.939-1.508zm240.883.093l.485.33c.926.437 1.29 2.148 2.71 1.48.459 1.007 1.41 1.21 2.28 1.538-.972.33-1.898.717-2.121 1.93.137.411.42.8.595 1.206-.36-.47-.76-.912-1.127-1.377-.818-1.373-2.221-2.4-2.602-4.04a11.76 11.76 0 0 0-.22-1.067zM116.91 69.89c.437-.026.906.153 1.347.166.17.016.336.022.5.024a1.606 1.606 0 0 0-.468.788 1.03 1.03 0 0 0-.461-.308 2.658 2.658 0 0 0-1.623.256c-.63.272-1.296.46-1.847.898-.39.343.123-.091-.28.208-.077.057-.14.59-.427.137.265-.148-.542-.434.004-.592.257-.056.5-.144.722-.28.352-.194.724-.35 1.095-.507.256-.11.489-.256.697-.443.229-.242.48-.331.741-.347zm173.542 4.388c.064.084.115.177.185.258.21.281.409.568.616.849.565.935.71 2.006 1.149 2.98.327.462.639.933.945 1.406a4.054 4.054 0 0 0-.674-.417l-.223.1c-.096-.086-.19-.172-.295-.25a7.625 7.625 0 0 0-.875-.518 5.319 5.319 0 0 1-1.507-1.221 3.692 3.692 0 0 1-.366-.625c.05-.969.284-1.867 1.045-2.562zm19.445 2.1c.14.354-.03.655-.088.974-.012.062-.01.115-.014.171a1.044 1.044 0 0 0-.02-.014l-.04-.004.005-.004c.115-.371.207-.732.157-1.122zm2.02 2.923c.147.142.275.305.38.504a1.07 1.07 0 0 0-.36-.37c-.007-.045-.016-.09-.02-.134zm-.01 2.794c-.068.225-.135.45-.2.677-.096-.08-.197-.153-.293-.236-.324-.695.464-.129.484-.43.004-.002.005-.008.009-.011zm-4.23.411c.755 1.172 1.402 2.406 1.842 3.73.151.48.344.943.568 1.402.042.07.062.14.089.211-.581.219-1.077.543-1.434 1.04-.467-1.001-1.393-1.793-1.492-2.957-.055-.32-.107-.641-.172-.963-.08-.916.27-1.686.599-2.463zm7.368.93c.106.199.223.394.367.572.074.094.147.19.22.286-.195.208-.335.45-.431.715-.006-.519-.174-1.059-.156-1.574zm-18.218 2.519c.101.186.191.374.255.57-.052-.029-.107-.056-.159-.085-.018-.014-.039-.027-.057-.042a1.988 1.988 0 0 0-.039-.443zM32.141 88.172a.666.666 0 0 0-.056.244c-.043-.113-.008-.186.056-.244zm272.766 1.457c.386.29.649.724.958 1.105a.623.623 0 0 0-.25.433c-.382-.455-.558-.991-.708-1.538zm5.636 1.1c.269.25.577.351.928.299a1.565 1.565 0 0 0-.085.629c.213 1.1.754 2.081 1.331 3.043.313.48.685.903 1.161 1.234.34.172.696.28 1.068.316.553.023 1.069-.068 1.53-.35.242.228.481.462.729.685.862 1.293 1.727 2.594.766 4.1-.722 1.078-1.241 2.266-1.696 3.486.226-1.208-.194-2.345-.717-3.472-.587-1.01-2.205-1.009-2.383-2.409a2.087 2.087 0 0 0-.519-.887c-.17-.06-.342-.126-.51-.187a3.448 3.448 0 0 0-1.066.078 7.956 7.956 0 0 0-.57.198c-.341-.006-.675-.146-1-.434.076-.26.008-.488-.21-.677-.115.051-.23.098-.346.147-.01-.02-.014-.038-.024-.058a.998.998 0 0 0-.736-.403.957.957 0 0 0-.576.103c.008-.566-.229-1.02-.71-1.363.129-.092.26-.182.391-.274.06.062.128.121.212.173 1.017.14 1.735-.202 2.083-1.169-.018-.466-.202-.79-.613-.931l-.077-.258a3.2 3.2 0 0 0 .45-.238c.466-.389.903-.808 1.187-1.36 0-.007.002-.014.003-.02zm9.666.353c-.106.446.06.77.502.964l.004.006c.364-.574.215-.907-.506-.97zm-11.958 1.391l.044.02a.335.335 0 0 0-.065.089c0-.059.012-.077.021-.109zm-6.778.1c.535.605 1.201 1.076 1.792 1.621.275.2.574.358.898.452.84.15 1.578-.262 2.39-.264l.202.355a2.673 2.673 0 0 0-1.534-.073c-.842-.033-1.432 1.123-2.434.357-.14-.641-.586-1.018-1.164-1.274a1.53 1.53 0 0 0-.41-.075 1.398 1.398 0 0 0-.153-.254c.105-.112.222-.216.258-.375.065-.152.108-.311.155-.47zm-206.548.932c.07-.003.149.01.221.01.003.039.014.076.016.115a3.393 3.393 0 0 0-.36-.109c.042-.003.08-.014.123-.016zm228.942 1.608c-.579.034-1.077.356-1.532.84-.32.493-.29 1.02-.063 1.573.377.683.935 1.194 1.536 1.685.018.005.292.222.292.222s-.05.327-.037.324a1.138 1.138 0 0 0-.2.672c.016.129.027.267.04.395.062.277.156.558.281.82.683 1.162 1.517 2.234 2.27 3.352 2.795 1.609 2.952-.695 3.6-2.274.717-.447 1.648-.736 2.1-1.376.802-1.142.85-2.338-1.076-2.721-.133.064-.266.127-.409.197-.958 1.035-1.088.218-1.215-.593-.4-.4-.808-.66-1.232-.108-1.915.103-1.897-2.126-3.221-2.733-.41-.212-.787-.295-1.134-.275zm-16.457 1.64c-.047.18-.093.36-.142.54l.005.001h-.007c-.238.345-.48.69-.72 1.034a9.486 9.486 0 0 1-.334-.453c.026-.019.058-.03.083-.05.444-.292.854-.62 1.115-1.073zm.644 1.964a.894.894 0 0 1 .544.097c-.15.238-.234.491-.22.764a9.378 9.378 0 0 0-.99-.008l-.013-.002c-.05-.126-.093-.254-.165-.375l-.009-.012c.274-.203.544-.412.853-.464zm11.497 8.02c.075.113.147.229.23.327.537.117 1.077.213 1.617.314-.203.149-.324.487-.301 1.161.057 1.734.702 4.618 3.808 4.773.088.012.176.011.264.018-.195.544-.381 1.088-.154 1.671-.076.112-.155.219-.226.337-.086.414-.29.876.217 1.056-.09.097-.174.179-.268.292-.11.898.059 1.792.234 2.685.507 2.111 1.752 4.197.873 6.359-.302-.103-.601-.212-.9-.32.198-.239.292-.544.19-.964-.195-.817-.772-1.218-1.628-.953a1.91 1.91 0 0 0-.442.308c-.1-.218-.193-.44-.283-.663a.572.572 0 0 0 .389-.199c1.41-.689 1.42-2.049 1.432-3.403-.403.111-.804.223-1.2.339h-.005v-.002a2.258 2.258 0 0 0-.298-.56l.002-.002c.211-.824.014-1.448-.924-1.72-.91-.504-1.924-1.618-2.432.242-.076.116-.167.219-.25.329.214-1.043.32-2.063-.88-2.812a2.542 2.542 0 0 0 .256-1.647 2.544 2.544 0 0 0-.18-.453c.748-.488 1.316-.144 1.586.911.159.625-.003 1.316.871 1.538-.372-1.308.427-3.124-1.79-3.628l.002-.002c-.168-.391-.337-.777-.503-1.17v-.002c.294-1.369-1.339-3.215.693-4.16zm3.305.948c.475.109.946.239 1.412.399-.408.072-.917-.16-1.412-.399zm-9.104 1.533c.16.158.33.345.488.514.114.078.24.176.35.26.07.01.145.023.219.035l.142.425c-.045.086-.086.173-.133.258a2.066 2.066 0 0 0-.107.536c-.376-.428-.848-.792-1.03-1.376-.14-.255-.105-.454.071-.652zm19.67 5.469c-.215 0-.475.04-.792.127-.439.195-.882.388-1.32.582-.354-.174-.519-.056-.527.315.462.693.71 1.573 1.649 1.85.346.11.69.242 1.024.385.36.106.723.212 1.082.32.222.225.505.269.614.015.15-.345-.018-.694-.339-.952l-.002-.002c-.61-.756.118-2.642-1.388-2.64zm-16.968 1.07c.173.072.345.155.515.244a.988.988 0 0 0 .015.326c-.168-.197-.35-.383-.53-.57zm-301.238.294c-.191.732-.243 1.551-.537 2.219-.079.302-.167.6-.255.897l-.097.039c.018-.151.027-.303.025-.456-.03-.275-.058-.555-.188-.758.014-.01.029-.017.042-.028.581-.432.667-1.274 1.01-1.913zm314.97 3.499c.024.016.048.027.072.043-.03.014-.05.034-.077.05 0-.031.005-.062.005-.093zm-316.235.915c.005.007.012.014.016.021-.011.027-.02.055-.03.082-.04.089-.076.178-.115.266l-.032.004c.054-.124.105-.249.161-.373zm328.511 2.472c-.165-.002-.34.079-.515.274-.404.448.081.993.064 1.491l.273.363c.038.057.066.119.102.177.087.355.215.69.443.982.006.023.02.043.025.066l.06.44c.186.264.375.526.558.79-.015.448-.137.899.14 1.334l-.11-.102c.39.41.747.839.772 1.429.154.158.163.317.03.475.025.632.148 1.246.485 1.818.142.163.304.298.477.422-.11.083-.209.173-.292.284.148.2.183.413.112.637.362.513.727 1.025 1.09 1.538-.083.261-.16.524-.184.802-.054.884.23 1.717.55 2.545.194 1.603 1.35 1.93 2.663 2.062.357.277.628.607.78 1.024.121.578-.066 1.076-.306 1.556-.139.252-.272.518-.375.788-.31.919-.328 1.887-.234 2.867.04.164.072.328.115.489.054.16.108.32.167.48.493.909.148 2.057 1.023 2.856.025.012.051.01.077.02l-.08.033c-1.347 2.157.205 4.285.542 6.425.255.501.621.895 1.1 1.194.737.401 1.4.912 2.095 1.376.006.004.014.005.02.008-.505.283-.86.705-.98 1.335.007.372.09.731.248 1.078.465.619.92 1.263 1.78.701.918-.522 2.193-.828 1.442-2.354.508-.055.839-.378 1.09-.824.047-.131.097-.253.142-.385-.004-.011.077-.385.07-.395.038-.373.127-.715.388-.976-.016-.01.311-.163.311-.163s.333-.131.325-.137c.37-.118.722-.264.881-.661-.154-.36-.503-.783-.434-1.077.77-3.2-.853-5.587-3.05-7.796 1.1-1.753 1.345-3.713 1.01-5.813-.924-.225-1.344-.649-.687-1.501-.02-.588-.04-1.177-.066-1.762-1.706-1.568-1.787-3.915-3.034-5.702-.52-.507.184-1.561-.54-1.717-2.366-.506-2.092-2.369-2.46-3.933-1.143-.051-1.3-1.261-2.042-1.776-.61-.423-1.053-1.346-1.998-.876-1.737.86-2.643-.135-3.38-1.639-.163-.334-.408-.568-.682-.57zm-274.926.683c.129.083.23.182.332.28a23.436 23.436 0 0 0-.332-.28zm248.799 1.508c.044.138.102.276.188.411.077.07.165.106.25.155-.006.001-.009.005-.013.006-.656.129-.657.537-.399 1.054-.047.038-.096.075-.138.119a4.955 4.955 0 0 0-.962-.72l.033-.169c.45-.049.804-.29 1.016-.812l.025-.044zm2.276 1.807c.054-.004.11.008.165.009-.055.232-.12.464-.221.689-.154.211-.365.319-.63.357-.108-.02-.218-.021-.326-.035.085-.082.168-.163.251-.246-.043-.124-.09-.248-.137-.372h.005c.275-.253.576-.374.893-.402zM36.59 128.342c.03.061.064.118.097.176-.063-.022-.129-.041-.19-.065.007-.029.015-.059.024-.088.022-.01.046-.014.069-.023zm279.036 1.972c-.105.798-.687 1.081-1.333 1.294.4-.473.937-.808 1.33-1.288l.004-.006zm-304.87.016c-.04.19-.058.385-.004.598.152.407.394.722.779.897.039.133.078.266.154.385-.74-.388-1.55-.74-.928-1.88zm315.653.822v.006c.192.494.564.919.8 1.395a1.763 1.763 0 0 0-.454.089c-.02-.089-.048-.177-.069-.266-.56-.682-1.187-.633-1.837-.373-.02-.087-.04-.174-.08-.252l.14-.067a7.884 7.884 0 0 1 1.248-.445c.092-.015.17-.055.252-.087zm-5.014.605c.032.039.072.073.11.109-.11-.003-.22-.008-.33.004l.22-.113zm1.795 4.676a2.862 2.862 0 0 1-.42 1.36 4.817 4.817 0 0 0-.344-.61c-.028-.03-.191-.224-.191-.224s.176-.058.119-.06c.331-.021.611-.196.836-.466zm-6.839 2.346c.271.054.542.104.812.157-.139.176-.25.375-.346.589-.024-.031-.041-.065-.067-.095a1.14 1.14 0 0 0-.539-.24c.072-.129.12-.265.14-.411zm3.325.978l.02.032a2.068 2.068 0 0 0-.372.49c-.031.34.047.659.257.951.601.321 1.267.334 1.895.53.742.227 1.463.522 2.224.689.175.04.348.084.521.131-.3.247-.572.543-.89.76-.03.054-.069.101-.1.154-.006-.025-.004-.049-.012-.073-.365-.847-1.056-1.309-1.893-1.592-.839-.179-1.676-.242-2.515-.121-.554.14-1.099.331-1.688.026-.072-.039-.103-.073-.155-.109.12-.075.227-.167.311-.288l-.002-.004c.393-.414.782-.832 1.177-1.246.502.176.887-.014 1.222-.33zm32.852 20.097a1.57 1.57 0 0 1-.63.093c-.174.116-.352.232-.527.346.237.474.47.944.709 1.415.257.103.497.09.72-.072.229-.399.132-.834.043-1.264a1.565 1.565 0 0 0-.315-.518zm-.448 1.854c-.027-.01-.053-.015-.08-.028l.082.032zm-19.957-1.735c-.198.102-.306.273-.399.455h-.002c.056-.208.126-.401.401-.455zm12.74.089c.046.071.095.138.13.221.006.075-.016.144-.021.216a1.583 1.583 0 0 0-.225-.413c.042 0 .076-.019.115-.024zm-1.993 1.034c1.554.363 2.062 1.7 2.595 3.015.013.124.032.247.03.375.033.332.118.655.268.965.03.044.07.076.103.117-.05.246-.101.49-.154.738a4.97 4.97 0 0 0-.463.447c.073.201.13.407.174.613l.255.075.024.036-.279-.111c-.549.93-.317 1.47.853 1.546l.097-.314v-.002h.004l-.1.316c.193.171.269.378.22.619l-.002.002c-.556.279-1.114.556-1.67.834.013-.156.02-.314.01-.473.427-1.795-2.597-2.272-1.873-4.189.158-.213.309-.432.452-.657l.042-.002c.227-.247.426-.499.366-.8.029-.077.064-.151.089-.232.143-1.109-.753-1.93-1.041-2.918zm-16.613 4.714c.014-.011.303.071.303.071s-.09.279-.053.274c-.39.173-.778.389-1.024.794-.058 1.324.685 2.029 1.585 2.61-.732-.225-1.456-.395-2.04.409a2.82 2.82 0 0 0-.276.861c.057.078.076.147.097.216a3.288 3.288 0 0 0-.106.044 1.785 1.785 0 0 1-.003-.762c.175-.706.143-1.454.238-2.179.05-.292.083-.587.08-.891a1.587 1.587 0 0 0-.344-.61c.012-.008.292-.202.293-.204.186-.15.384-.278.6-.397.204-.109.412-.181.65-.236zm-238.037.216a4.752 4.752 0 0 0-.37.409c.085-.171.21-.306.37-.409zm245.988 3.338a1.792 1.792 0 0 0-.79.975l-.006.012-.013-.012h-.006l.002-.004.004.004h.018l-.02-.008.017-.038c.168-.396.286-.832.794-.929zm-9.578 2.015c.006.017.016.03.023.046a.591.591 0 0 0-.11-.02c.028-.002.055-.003.087-.026zm.292 2.477c.13.018.319.227.412.133.054.01.108.012.16.02a1.99 1.99 0 0 0-.474.68 3.59 3.59 0 0 0-.236-.549c.002-.236.06-.294.138-.284zm28.752 1.514c-.033.649-.183 1.33.348 1.828-.416.328-.842.701-.772-.631.023-.422.217-.809.424-1.197zm-28.35 1.911a.675.675 0 0 1-.37.252 1.53 1.53 0 0 0 .37-.252zm31.79 2.525a3.51 3.51 0 0 0-.072.184c-.051-.014-.103-.025-.154-.049-.024.002-.047.01-.07.012.1-.048.198-.098.296-.147zm-2.118 7.15c.012.024.02.048.031.072l-.045.016c.006-.029.008-.059.014-.088zm-351.306.411c.015.003.035.016.05.022l-.123-.01-.007-.008c.026-.003.05-.012.08-.004zm336.776.28c.626.549 1.344.879 2.17.961.522.168 1.135.084 1.513.647-.34.181-.665.293-.756-.288a1.76 1.76 0 0 0-.76-.25c-.897-.031-1.653-.649-2.5-.893.165.002.278-.053.333-.177zm-1.29 3.745c.33.159.689.254 1.063.322.306.049.607.102.917.143l.278.577c.003-.003.004-.007.005-.01a.18.18 0 0 1-.003.01l-.002.004c-.26.287-.412.606-.226 1.022l-.003.02c-.098-.02-.193-.045-.295-.052-.937.181-1.275.893-1.493 1.715.033-.106.073-.208.097-.319.148-.96.09-1.884-.593-2.692.212-.206.316-.445.254-.74zm-3.106 1.147c-.057.452-.4.762-.83 1.03.134-.156.26-.316.378-.488.139-.195.288-.376.452-.542zm7.535 1.582c.26.44.507.889.903 1.227l-.037.015a.806.806 0 0 0-.723.014c-.309.048-.495-.091-.554-.385a2.982 2.982 0 0 0-.241-.403l.233.018s.29-.231.288-.234c.055-.079.094-.166.131-.252zm-4.298 1.375c-.203.587-.527 1.118-.736 1.711a1.63 1.63 0 0 0-.138.786c-.013.022-.329-.151-.337-.145a.901.901 0 0 0 .366-.577c.234-.61.598-1.163.845-1.775zm5.045 4.549c.173.228.36.446.52.685.173.259.37.492.609.708.077-.022.163.072.284.286.16.282.109.488-.152.629a3.868 3.868 0 0 0-.794.794c-.134.189-.311.281-.545.32a.843.843 0 0 1-.126-.612c.092-.4.217-.805.29-1.222.084-.49.06-.977-.19-1.447l-.003-.002a.338.338 0 0 0 .107-.139zm-10.216 1.961c1.941.064 4.038 1.703 5.85.197.072.172.157.34.262.498.022.023.034.05.054.073-.906.36-1.997.206-2.84.744a30.38 30.38 0 0 0-2.969 3.374c-.017.048-.02.1-.034.149a12.32 12.32 0 0 1-.81-1.157c-.037-.543-.122-1.091-.095-1.627.025-.299.045-.594.04-.899-.048-.396-.18-.776-.136-1.173-.022-.01.31-.173.31-.173s.384.009.368-.006zm7.896 4.027c.752 1.107 0 1.752-.848 2.372-.386.307-.74.642-1 1.065-.034.079-.04.162-.058.244a1.184 1.184 0 0 1-.062-.363c.046-.24.117-.476.201-.7.083-.217.118-.448.113-.685.176-.01.352-.022.527-.03.257-.216.398-.463.37-.756.093-.08.19-.15.27-.246.228-.269.38-.575.487-.901zm-7.628 1.254c-.034.208-.047.42-.02.639.096.351.254.675.475.973.543.58 1.16.728 1.856.466a2.1 2.1 0 0 0 .498-.405l.203.332c-.017.175-.034.349-.055.522-.002.303.02.602.068.903.019.128.06.248.091.371a.833.833 0 0 1-.32.089 7.638 7.638 0 0 1-1.124-.659 2.885 2.885 0 0 0-.81-.359.757.757 0 0 0-.308-.445c-.437.181-.853.379-.925.832-.058.049-.117.094-.17.151a2.36 2.36 0 0 0-.3.933c-.021.321-.022.643-.027.966-.518-.061-.986.067-1.416.316-.413.295-.723.652-.72 1.212-.06.504-.118 1.01-.176 1.515.252.127.435.332.615.543-.125.177-.252.353-.365.54-.1.151-.188.311-.27.475-.36-.596-.954-.551-1.564-.473-.515.073-.872.584-1.468.409-.042-.058-.1-.091-.15-.135.057-.001.113.002.17-.006 1.274-.304 1.91-1.098 1.814-2.463-.93-1.398.98-1.003 1.028-1.78.08-.182.115-.346.118-.498l.16.254c.83-.07 1.615-.226 1.994-1.072-1.008-.571-1.995-.587-2.968-.3-.013-.008-.022-.017-.034-.025.416-.245.81-.528 1.172-.856.76-.768 1.369-1.648 1.884-2.6.03-.055.047-.111.073-.166a2.27 2.27 0 0 0 .97-.199zm17.389.084a2.473 2.473 0 0 0-.617.144l-.096 1.685 1.712.104c-.555-.448.153-2.012-1-1.933zm-11.26 3.82c.18.328.357.659.528.99.018.029.043.052.062.08l-.183.051-.024-.033c-.133-.081-.267-.164-.402-.241l-.141-.379.125-.252c.02-.071.023-.144.036-.216zM28.443 216.81c-.16.219-.307.443-.452.668.001-.01-.003-.019-.002-.029a.815.815 0 0 1 .454-.639zm297.864 3.602c.138.073.276.141.43.184.537.049 1.065.079 1.568.062-.279.134-.559.265-.832.409a9.322 9.322 0 0 0-.88.48c-.243.143-.469.307-.683.486a.692.692 0 0 0-.28.268c-.065.065-.139.12-.199.191-.114.175-.2.363-.269.559l-1.625 1.009c-.436.105-.874.21-1.31.313l.09-1.07c.126-.001.26-.008.402-.027 1.473-.324 2.473-1.272 3.309-2.434.118-.152.19-.288.279-.43zm3.487 2.481c.187-.013.377-.006.57.019.128.022.257.056.385.084.135.035.274.055.411.083-.247.172-.451.37-.544.639-.31.02-.617.062-.914.143-.487.151-.92.388-1.29.734-.215.25-.384.527-.49.844-.073.324-.08.649-.011.984.1.214.252.378.43.52-.422.217-.854.424-.974.887-1.483.58-2.386 1.803-3.322 2.989a4.609 4.609 0 0 0-.612 1.366 4.81 4.81 0 0 0-.128.974c-.013.574-.04 1.143-.194 1.687-.702-.065-1.39.056-2.071.238-.322.12-.623.278-.901.479-.75.64-1.556 1.147-2.646 1.034-.961-.111-1.893-.026-2.814.19-.424.049-.822-.003-1.175-.29-.09-.109-.168-.231-.256-.341a2.72 2.72 0 0 1-.063-.101l.098-.026.008-.165c.272.108.548.162.836.133.32-.075.618-.197.89-.373.163-.137.292-.297.406-.472 0 .005 0 .007.003.012.043.153.188.219.434.206l-.026-.01c.657-.308 2.093.063 1.649-1.244-.405-1.178-1.392-.636-2.14-.248-.223-.359-.54-.647-.804-.973.168.042.34.066.515.068a9.146 9.146 0 0 0 1.484-.157c.884-.176 1.738-.388 1.854-1.489-.005-.071-.026-.133-.034-.202.045.153.08.307.14.46.192.319.462.462.82.395a.654.654 0 0 1 .62-.069c.29.043.529-.04.712-.252.624-.375 1.25-.748 1.875-1.123.153-.285.168-.592.052-.913-.183-.346-.47-.549-.836-.653.27-.293.717-.154 1.028-.348.447-.192.872-.415 1.209-.768.308-.4.452-.838.261-1.369a3.185 3.185 0 0 1-.464-.322c-.034-.118-.066-.238-.119-.351.326.016.554-.124.67-.437.393-.208.788-.413 1.18-.619.022.022.035.047.06.068.502.143.952.054 1.374-.191.451-.337.825-.754 1.272-1.091a6.406 6.406 0 0 1 1.028-.534c.181-.056.367-.091.554-.105zm-8.407 1.956c.009.008.018.013.025.022l-.006.004-.002.002.007.008-.042.02c.005-.02.013-.036.018-.056zm-3.767 1.138c.131.056.263.108.398.145-.011.092-.012.186-.006.283-.161-.055-.301-.055-.418.004.033-.142.042-.286.027-.432zm-19.807.26c-.066.176-.142.336-.193.535-.323-.193-.578-.341-.867-.51.342.012.699-.006 1.06-.025zm21.971.256l.045.067c-.017.017-.02.028-.035.044-.015-.009-.03-.013-.046-.024l.036-.087zm.079.091c.172.022.333.024.49.018a.454.454 0 0 1-.456.055c-.01-.025-.025-.048-.034-.073zm-2.209.893l-.012.03-.002-.002c0-.009.003-.017.002-.026a.05.05 0 0 1 .012-.002zm29.449.337c-.566.016-.594.622-.665 2.237.237.775.615 1.057 1.258.447.624-.583.997-1.309 1.135-2.17-.854-.324-1.389-.524-1.728-.514zm-29.107.564c.04.671.074 1.342.189 2.007a2.983 2.983 0 0 0-1.046-1.392c.024-.057.046-.115.071-.172a.71.71 0 0 0 .268-.324.62.62 0 0 0 .518-.119zM18.15 230.674l-.008.006-.004-.004zm-.435.133c.07.128.144.255.203.389l.002-.002.006.03c-.227-.084-.477-.089-.69-.214.177-.041.334-.113.48-.203zM94.9 234.87a.442.442 0 0 0 .164 0c.075.373.303.656.568.915.551.41 1.204.541 1.817.776a.84.84 0 0 0-.163.175c-.013.178.016.339.074.488-.012-.007-.021-.008-.033-.016a5.68 5.68 0 0 0-.857-.54c-.945-.246-1.504-.92-1.57-1.798zm-4.33.02c.319.937.594 1.67.885 2.479-.88-.6-1.127-1.415-.886-2.479zm253.213 5.97c-1.184.055-1.917.91-2.925 1.435 1.2 1.263 1.783.085 2.556.055.416-.266.834-.534 1.253-.8a6.248 6.248 0 0 1-.347-.659 2.77 2.77 0 0 0-.537-.031zm-21.216 3.199c-1.388.513-2.78 1.027-4.168 1.542a2.34 2.34 0 0 1-.37.484c-.076 1.265.889 1.204 1.685 1.362.199-.022.383-.076.557-.147.044.056.078.119.127.171a.658.658 0 0 0 .51-.062l.03-.018c.029.213.094.42.223.611.782.331.551.651.063.965-.382.634-.716 1.291-.793 2.07-.335-1.071-.243-2.278-1.146-3.174-.464-.382-.917-.615-1.335-.037-.894.484-1.784.968-2.677 1.447-.02.775-.105 1.549.324 2.29.16.066.317.136.476.202.498-.061.941-.284 1.425-.389.35.206.7.409 1.05.616h.003c.154.513.309 1.025.46 1.536a.62.62 0 0 0 .141.456 5.655 5.655 0 0 0-.385.403c-.521.935-1.272 1.649-2.141 2.249.723.604 1.426 1.253 2.417 1.317.121-.638.295-1.261.506-1.871l1.89-.048c.616-.391 1.229-.782 1.842-1.175.806-.761-.199-1.862.314-2.675.102-.922.208-1.841.313-2.761.152-.325.275-.666.402-1.002l.305-.129.301-.143c.063.017.115.017.17.022.708.287.834 2.93 2.162.703-.412-.525-.746-1.159-1.544-1.138l.181-1.127 1.406-.641a1.823 1.823 0 0 1-.295-.496c-.434.254-.868.513-1.301.768v-.002c-.52.137-1.035.274-1.556.409 0 0-.368.057-.367.061a2.029 2.029 0 0 1-.737-.194 3.557 3.557 0 0 0-.784-.195c-.134.016-.276.025-.411.04a2.367 2.367 0 0 1-.102.04.46.46 0 0 0-.151-.115c.122-.256.252-.501.396-.743.188-.202.336-.426.448-.676a9.54 9.54 0 0 1 .646-.35 2.974 2.974 0 0 0-.51-.456zm-242.375.319c-.005.005-.008.012-.013.018-.006-.005-.01-.01-.017-.014l.03-.004zm257.49 4.903c-.518-.006-.98.317-1.43.694.446 1.11 1.104 1.53 2.124.786l.312-1.052c-.364-.301-.695-.424-1.007-.428zm-9.33.442a1.848 1.848 0 0 0-.415.062c-.574.404-1.302.759-.385 1.617.215.409.43.818.648 1.225.568-.532 1.138-1.065 1.708-1.596.088-.387-.03-.701-.378-.933-.375-.255-.769-.388-1.178-.375zm-142.942.383c.462.024.939.115 1.445.33-.32.339-.564.675-.739 1.006a25.143 25.143 0 0 0-1.335-1.33c.207-.011.416-.017.629-.006zm119.214 1.278a.815.815 0 0 0-.316.044c-.724.44-1.168 1.082-1.36 1.913.248.618.582 1.402 1.255.613.803-.946 1.601-.31 2.437-.101.34-.193.681-.385 1.022-.581.576-.523.127-.946-.235-1.376-.389-.128-.696-.043-.908.288-.765.215-1.2-.758-1.895-.8zm21.473 1.223c-.128.011-.245.097-.351.258-.199.165-.396.331-.596.496l-.08 1.703c2.476.6 1.085-1.425 1.449-2.259-.152-.143-.293-.208-.422-.198zm5.913.748c-.557.021-1.022.57-1.463.955-.246.213.205.602.62.647.466-.201.933-.398 1.403-.596l.26-.188.297-.139c-.414-.516-.782-.692-1.117-.679zm-311.157 1.381c-.053.208-.712.342-.036.643.011-.215.023-.427.036-.643zm292.78 1.626c-.202.028-.412.028-.59.099-.075.031-.082.211-.123.323l.67.137.043-.559zm-5.786.94c-.49.022-.938.156-1.358.382-.8.456-1.36 1.149-1.909 1.863-.33.452-.65.908-.984 1.35-.17.211-.338.418-.495.639-.174.2-.352.392-.523.595-.29.277-.493.616-.645.989-.339 1.575 1.369 1.143 1.868 1.897 1.476-.208 1.753-1.42 2.096-2.578.33-1.129 1.127-1.934 1.84-2.795.336-.637 1.425-.852.98-1.929a1.314 1.314 0 0 0-.87-.413zm20.744.965a6.527 6.527 0 0 0-.902.058c-.494.483-.578 1.081-.37 1.758.35.748 1.12 1.006 1.699 1.487.418.459.543 1.036.77 1.571.158.275.36.524.599.731 1.205.896 2.125.915 2.535-.651-.04-.263.058-.442.3-.536.203-.308.408-.616.609-.925-1.556-2.369-3.193-3.473-5.24-3.493zm-6.711.26c.061.219.153.431.27.629.124-.168.247-.338.368-.508-.212-.039-.424-.083-.638-.121zm-27.19.314c.014.004.027.002.041.004a.613.613 0 0 1-.043.002c.001-.001 0-.004.002-.006zm32.438 3.516a1.675 1.675 0 0 0-.631.147c-.122.343-.335.655-.317 1.052l.02.038c-.204.296-.206.681-.403.98 2.278.277 2.375.1 1.33-2.217zm-1.331 2.217l-.056-.006.052.014.003-.008zm-7.595-1.228c-.245.024-.364.198-.341.54.645 1.126 1.29 1.914 1.882.101-.328-.411-.734-.639-1.253-.615a.918.918 0 0 0-.288-.026zm-31.48 3.685c0 .002.002.005.005.008h-.037l.032-.008zm-94.576.064l.082.073c-.033-.008-.064-.009-.1-.024.007-.016.011-.033.018-.049zm20.939.151a.915.915 0 0 1 .366.129c-.238-.029-.473-.065-.713-.09a.994.994 0 0 1 .347-.039zm-165.532.817h.004l-.002.004zm266.938.024c-.308-.06-.746.222-1.079.339a1.716 1.716 0 0 0-.933.106.988.988 0 0 0-.36.819c.07.202.096.405.08.612-1.22.392-1.079 1.194-.51 2.127 1.221-.2 1.808-1.101 2.332-2.074.698-.371 1.13-1.015.726-1.736a.367.367 0 0 0-.256-.193zm-7.131.661c-1.802.566-2.116 2.149-2.426 3.737-.719.738-2.023.812-2.334 2.011h-.002a.759.759 0 0 0-.545.486l.002.002-.81.123c-.783.603-1.339 1.344-1.352 2.415.506.39 1.012.783 1.518 1.179.226-.121.45-.239.677-.359.103-.35.2-.702.302-1.05-.313-.672-.84-1.338-.16-2.016l-.001-.002c.539-.014 1.082-.03 1.282-.649h.004a.55.55 0 0 1 .333.506c-.175-1.65 1.55-1.44 2.211-2.271a.269.269 0 0 0-.016-.006l.016.004c1.42-.995 2.689-2.051 1.3-4.11zm-22.04.238c-.002.01-.002.023-.003.034-.031-.007-.05.001-.072.004.02-.009.04-.017.074-.038zm-229.302.461c.002.005.006.008.009.013a.039.039 0 0 0-.01.004v-.017zm231.796.492c-.036.661-.682.311-.994.536-.243.179-.525.307-.77.486.086-.247.09-.501-.14-.772.285.05.568.072.846.018.36-.069.709-.171 1.058-.268zm-2.187 2.066v.008c.368.836.991 1.323 1.82 1.536l-.002.004c-.667.25-1.338.497-2.004.748-.235.164-.463.33-.697.494-.036 1.01.01 1.912 1.38 1.092.13-.201.317-.338.518-.459a4.87 4.87 0 0 1-.567.715c-.933 1.082-1.685 2.331-2.834 3.223-.113.108-.24.193-.36.29l-.784.025-.006-.007c-.113-.248-.225-.5-.337-.751-.633-.206-1.085-.021-1.37.538l-.603.347c0-.206-.048-.418-.13-.635-.126-.518.284-.616.58-.793.529-.306.866-.717.68-1.412l-.221-.137.037-.035.078.028c.462-.021.786-.276 1.068-.594.063-.08.12-.166.175-.252.112.115.253.167.483.036.099-.057-.103-.605-.17-.925l-.006.002-.034-.054c.03.012.047.032.078.042.69.014 1.168-.393 1.677-.74.39-.265.759-.552 1.07-.911.27-.393.366-.815.174-1.288.144.004.246-.042.307-.135zm25.354.363c-.712.571-1.99.839-1.458 2.171.527 1.32 1.761.754 2.661.8.887.043 1.602-.535 2.165-1.205l-.28-.293c-1.537.712-2.395-.18-3.088-1.473zm-28.847.365h.004c-.187.11-.352.252-.495.425a1.038 1.038 0 0 0-.063-.298c.184-.042.368-.09.554-.127zm34.93 1.401c-.279.027-.55.119-.824.211-.367.29-.738.58-1.107.873-.14.282-.277.567-.419.849.075.239.199.453.367.647l1.61.086c.49-.786 1.144-1.48 1.233-2.485a1.378 1.378 0 0 0-.86-.181zm3.278.834c-.196-.013-.445.05-.52.157-.329.465-.006.926.247 1.369.064.11.102.237.154.355l.242-.166.287-.074c-.074-.54.663-1.161-.24-1.603a.462.462 0 0 0-.17-.038zm-234.705.179c.016.008.034.013.05.021l-.03.032-.012-.006-.008-.047zm232.55 2.699c.02.21-.673.369.002.623l.02-.619zm-256.59.027c.124.05.237.083.364.137-.103.2-.147.288-.232.451-.041-.203-.078-.416-.132-.588zm254.358.788c-.389.411-1.24.772-.73 1.431.643.83.958-.086 1.33-.452-.2-.326-.398-.653-.6-.979zm-283.41.981c-.034.095-.116.208-.087.276.03.071.177.097.272.143.033-.093.117-.205.086-.276-.03-.07-.175-.098-.27-.143zm262.502 1.435c-1.729-.081-2.648 1.241-3.627 2.455-.442.903.055 1.509.775 2.044a2.86 2.86 0 0 0 1.147.26l.807-.407c.43-.18.574-.607.785-.972l.228-.29.338-.147c.196-.936 1.664-.679 1.66-1.796l-1.32-1.022a3.944 3.944 0 0 0-.793-.125zm20.55.692c-.64-.019-1.023.438-.985 1.141.044.394.25.684.597.886l1.295-.717c-.162-.537-.126-1.291-.907-1.31zm.907 1.31l.003.018.012-.026-.016.008zm-40.094-.532c0 .068.01.139.023.211a1.381 1.381 0 0 1-.198-.038c.062-.051.125-.101.175-.173zm-1.905.578c.377.739.394 1.352-.226 1.963-.403.4-.304.499.627.595l-.002.002c.114.271.227.546.341.82a4.622 4.622 0 0 0-.646.508c-.697.779-1.739 1.251-2.05 2.375-.074.29.342.502.258.647-.095.168-.363.017-.468-.248a2.106 2.106 0 0 0-1.003-.557c.352-.16.552-.479.677-.874a.907.907 0 0 0-.12-.563c.391-.198.784-.396 1.176-.596-.62-.424-1.06-.147-1.467.272l-.184-.305c-.274-.04-.467.056-.572.293-.044-.295-.063-.588 0-.881.238-.393.646-.568 1.06-.738.582-.267 1.02-.634.974-1.362-.075-.226-.195-.352-.363-.381.077-.042.15-.087.218-.139.243.015.497.131.727.074a1.57 1.57 0 0 0 .735-.52c.062-.109.104-.228.155-.342l.153-.043zm37.337 2.348c-.845-.001-1.547.588-2.342.801-.37.272-.746.546-1.12.822-.083.038-.133.135-.155.286-.024.153.116.235.42.244.848-.047 1.704-.098 2.554-.145.605-.511 1.428-.829 1.545-1.774a1.945 1.945 0 0 0-.902-.234zm-4.304.091c-.574.175-.962.506-.937 1.175.556-.194 1.252-.271.937-1.175zm-11.151.077l-.608.405c-.249.202-.43.449-.54.754-.17.104-.344.207-.512.312-.212.375-.347.768-.242 1.225a.6.6 0 0 1 .156.559c.093.763.603.765 1.153.679.782-.424 1.418-.997 1.83-1.798a2.21 2.21 0 0 0-.05-1.068c-.237-.536-.6-.928-1.187-1.068zm4.61.512c-1.166.172-1.83 1.011-2.524 1.814-.009.736-.497 1.566.183 2.178.445.403.913-.193 1.343-.411.461-.427 1.32-.506 1.224-1.421.041-.723.163-1.45-.226-2.16zm-21.17.802c0 .071-.018.136-.005.211.199.284.449.489.766.629.41.144.814.262 1.157.551.029.093.037.186.049.28l-.349-.079a.924.924 0 0 0-.644.601c-.06.466-.17.92-.226 1.384-.014.226 0 .447.039.666-.485-.342-1.008-.586-1.646-.551-.285-.014-.305.345-.458.512-.07.025-.143.05-.204.087a.574.574 0 0 1-.171-.048 1.351 1.351 0 0 0-.781-.013 3.454 3.454 0 0 0-.518.587c-.218.235-.495.307-.783.349a3.85 3.85 0 0 0 .884-.581c.467-.461.84-.985 1.113-1.584.225-.622.256-1.284.296-1.943v-.079c.693.044 1.2-.257 1.481-.979zm11.408 1.528a2.047 2.047 0 0 0-.383.012 2.238 2.238 0 0 0-.834.481c-.538.587-1.023 1.216-1.584 1.778-.341.347-.638.725-.807 1.193-.034.741.438 1.267.89 1.796.337.378.707.716 1.154.964-1.003.262-1.91.72-2.77 1.27-1.31 1.116-2.947 2-2.76 4.162.346.66.922.792 1.567.772 1.926-.251 2.993-1.866 4.564-2.677.62-.501 1.128-1.098 1.567-1.764l.233-1.054c-.147-.733-.515-1.068-1.052-1.092.413-.59.773-1.22 1.286-1.726.205-.214.397-.446.555-.699.209-.421.277-.862.098-1.34-.053-.283-.102-.567-.15-.851a1.571 1.571 0 0 0-.49-.877 2.45 2.45 0 0 0-1.084-.348zm-148.737.223c.012.004.026.005.038.008.017.02.036.048.055.069a2.355 2.355 0 0 0-.13-.048l.037-.029zm125.328.162s.287.043.274.03c.208.118.414.252.616.395a.655.655 0 0 0-.188.165c-.255-.15-.54-.223-.824-.359-.037-.009.122-.231.122-.231zm16.98 1.912l-.075.083-.042.006a.643.643 0 0 0 .117-.089zm-132.954 1.107l.014.004c-.006.004-.01.01-.015.014v-.018zm132.388.04l.01.026-.03.015c.005-.015.015-.026.02-.041zm.037.02l-.006.017c-.001-.004-.004-.007-.007-.011.005-.001.008-.004.012-.006zm-10.066.998c-.183.25-.324.533-.425.849-.12.439-.333.763-.862.707a.986.986 0 0 0-.685.244 2.292 2.292 0 0 0-.488-.262c-.427-.144-.822.005-1.224 0 .33-.337.837-.106 1.21-.296.94-.201 1.677-.777 2.474-1.242zm-10.383.611c-.07.13-.14.26-.198.403v.002c-.038-.02-.073-.05-.113-.065l.311-.34zm-5.542.022l.009.038-.003.012a1.023 1.023 0 0 1-.005-.05zm22.873.512c.069.057.142.103.214.147-.015.01-.032.016-.047.026a2.61 2.61 0 0 0-.038.119.497.497 0 0 1-.13-.292zm-24.213 1.963c.212.383.937.387.8.536-1.37 1.494-.725 2.303.409 2.965-.665.049-1.226-.387-1.76-.895-.99-.94-1.861-.724-2.698.02.248-.301.374-.658.23-1.136-.043-.059-.053-.102-.079-.154 1.38.301 2.417-.094 3.052-1.324l.046-.012zm8.775.681c.13.043.26.089.393.127.288.116.57.243.853.359.192.106.384.212.579.315l.498.832.226-.518c.27.052.54.066.808.024.117-.018.222-.064.324-.115l-.285.212a66.9 66.9 0 0 1-1.156.885c-1.166.782-2.151.173-3.108-.621l-.07-.048c.067-.069.138-.135.195-.214.259-.406.522-.808.743-1.238zm4.548.575c-.037.009-.07.023-.105.034.034-.013.07-.024.105-.034zm23.408.034c-.134.078-.271.152-.407.232-.449.139-.896.281-1.344.421-.598-.121-1.059.063-1.404.524-.16.553-.197 1.052.576 1.222.682-.389 1.19-1.302 2.235-.593.758-.041.875-.521.758-1.163a77.283 77.283 0 0 0-.414-.643zm5.478.079c-.585.239-1.645.118-1.02 1.304.18.342.544.551.928.413 1.124-.411.512-1.081.108-1.711zm-37.244.586c-.254.33-.514.65-.895.796.25-.316.554-.574.895-.796zm4.972.869l.358.073.004-.005c-.119-.021-.24-.046-.361-.068zm-13.607.171c-.818.725-1.646 1.441-1.939 2.598-.188.379-.433.701-.833.875-.274.033-.56.023-.843.004-.11-.023-.221-.04-.333-.062-.185-.373-.434-.681-.945-.714-.03-.04-.048-.084-.083-.123-.415-.205-.85-.219-1.313-.274.044-.092.125-.198.182-.298.394-.382.77-.812 1.167-1.236.31-.278.64-.328.994-.048.34.275.726.409 1.158.383.127-.032.247-.079.361-.131.697.411.987.052 1.025-.78a.547.547 0 0 1 .295.056l.423.008a2.36 2.36 0 0 0 .684-.258zm35.76.212c-.339.056-.557.242-.657.564l.714 1.21c.412-.186.823-.374 1.235-.561-.048-.815-.608-1.079-1.293-1.213zm7.034.512c-1.813 1.203-5.195.147-5.47 3.572.214.33.497.572.866.705.908-1.18 2.565-.036 3.568-.913.688-.043 1.296-.217 1.623-.873a1.07 1.07 0 0 1 .343-.349c-.266-.732-.124-1.613-.93-2.142zm-158.678.125l.264.095c-.049.08-.11.165-.152.241-.038-.112-.077-.22-.112-.336zm146.13 3.519c-.611.054-1.049.38-1.193 1.153l1.126.347 1.793-1.067c-.267-.409-.669-.383-1.057-.403a2.85 2.85 0 0 0-.668-.03zm-43.703.568c2.313.244.392 1.355.531 2.042-.032.021-.057.042-.088.063-.132-.369-.41-.665-.61-1-.042-.387.08-.744.167-1.105zm5.527 2.379c.227.198.522.288.873.292.268-.035.613-.283.68-.236.38.288-.188.177-.146.341-.434.373-.952.562-1.572.445-.445-.012-.854.088-1.21.351-.244.3-.47.635-.955.361-.038-.018-.077-.032-.115-.049.78-.302 1.508-.701 2.195-1.181.073-.117.164-.218.25-.324zm40.65.641l-.019.038c.222.002.411.698.652.069l-.632-.107zm-17.005 1.36c-.181.24-.353.485-.447.772a.84.84 0 0 0-.211-.173c-.61-.159-1.183-.056-1.742.133-.301.079-.6.044-.896-.02l-.142-.403-.563.246a1.743 1.743 0 0 0-.16-.019 1.37 1.37 0 0 0 .028-.395c.616.065 1.227.241 1.84.321.853-.029 1.63-.166 2.293-.462zm-29.323 1.175c.505.145 1.028.251 1.473.639-.537-.137-.998-.418-1.479-.633l.006-.006zm19.071.133c-.448-.005-.778.37-1.197.71-.705.575-.646 2.422-2.371 1.358a1.961 1.961 0 0 0-.941-.276c-.653.028-1.297.098-1.918.262a2.658 2.658 0 0 0-.81.502c-.167.182-.331.365-.495.55-.665.241-1.227.564-1.325 1.268-.071.052-.135.112-.21.16-.27.18-.54.362-.789.57a3.258 3.258 0 0 0-.658.74c-.039.163-.083.329-.126.491.435.717-.3 2.161 1.639 1.964 1.154-.119 2.188-.257 3.231-.738 2.78-1.28 2.802-1.228 3.842 1.989.036.118.445.14.678.206.983-.386 1.155-1.329 1.436-2.197.245-.129.488-.259.733-.391-.12-1.572-3.617-3.216-.203-4.759.532-.24 1.813-.662.462-1.901-.398-.364-.71-.504-.978-.508zm-26.533.371c-.23.672-.558 1.139-1.462.347.025-.011.043-.031.063-.05.264-.001.526-.022.779-.087a3 3 0 0 0 .62-.21zm54.32.603c-.586.008-.913.823-1.302 1.286-.074.034-.112.155-.11.363.005.217.158.382.462.496.318.05.636.098.953.149.003-.78 1.92-.954.68-1.99-.265-.22-.488-.307-.684-.304zm.002 2.294c0 .011-.009.02-.008.032l.022-.03-.014-.002zm-12.36-1.637c-.423.035-.535.602-.805.899.239.499.516.956 1.126 1.052l.227-1.78c-.229-.136-.405-.183-.547-.171zm-53.392.619l.034.03c.066.068.13.136.196.202.249.145.507.252.78.308.28.017.546-.021.801-.109.082-.045.158-.092.228-.143.014.549-.18.963-1.317.766-1.048-.082-.886-.568-.722-1.054zm27.334 1.33c-.121.326-1.24.15-.446.865.159.144.514-.429.446-.865zm23.329.534a12.79 12.79 0 0 0-.44.053c-.093.114-.18.23-.269.344-.177.598.443 1.135.254 1.732 1.047 1.113 1.643.071 2.373-.335-.404-.85-.8-1.712-1.918-1.794zm-80.11 1.062c.013.007.026.01.041.017a3.314 3.314 0 0 0-.055.431c.01-.152.011-.299.014-.448zm11.275.498c.253.127.335.372.277.706a3.855 3.855 0 0 0-.277-.706zm-11.292.025c-.023.697.217 1.269.71 1.723-.774-.37-.756-1.041-.71-1.723zm48.368 1.608c-.28.335-.321.718-.142 1.143.045-.38.094-.761.142-1.143zm-18.092 1.645c-.052.118-.091.239-.132.36-.082.007-.143 0-.23.008a3.896 3.896 0 0 0-.877.242l-.057-.106c.09-.052.176-.109.274-.148a5.608 5.608 0 0 1 1.022-.356zm-12.849.675c-.102.401-.215.796-.341 1.187-.367-.445-.42-.868.341-1.187zm46.228.467a5.888 5.888 0 0 0-.796.093c-.76.283-.9.95-.963 1.663.33 1.708 1.057 2.577 2.68 1.348.576-.435 1.08-.97 1.613-1.459a1.184 1.184 0 0 0-.25-.993c-.725-.522-1.494-.684-2.284-.652zm-72.032.611c.064.022.117.033.184.059.008-.004.012-.009.02-.012a.54.54 0 0 1-.134.26c-.07-.086-.078-.193-.07-.307zm62.21 1.272c-.099-.003-.205.006-.319.028-.248.561-.497 1.117-.745 1.677.3.089.603.182.903.27.186-.097.378-.17.58-.219.334-.205.666-.409.997-.609-.371-.551-.724-1.128-1.416-1.147zm-22.396 1.129a.905.905 0 0 0 .245.405c.212.155.331.353.394.592-.157.165-.336.339-.488.512a1.85 1.85 0 0 0-.347.516c-.004-.186-.1-.35-.29-.487a1.136 1.136 0 0 0-.756.129c.1-.395.011-.765-.185-1.117a4.91 4.91 0 0 1 .413-.262c.33-.112.674-.196 1.014-.288zm-2.188 3.172c.083.023.17.031.256.027a1.37 1.37 0 0 0-.038.596c-.02-.016-.032-.022-.054-.04-.234-.191-.284-.379-.164-.583zm2.495.113c.087.036.178.063.276.081.144-.002.272-.027.407-.043l-.449.133a3.047 3.047 0 0 1-.094.019l-.14-.19zm-35.154 1.04c.002.04.009.101.007.095.142.199.26.43.348.667.1.179.223.312.36.419a.389.389 0 0 0-.265.15 1.58 1.58 0 0 1-.284-.686 2.85 2.85 0 0 0-.364-.564zm-27.734.819c.143.291.259.6.46.868.65.561 1.395.588 2.167.498.292-.099.514-.01.68.244.276.431.48.912.808 1.316l-.034.008-.632.292a1.542 1.542 0 0 1-.566-.318c-1.377-.773-2.888-1.34-3.972-2.582.01-.033.018-.067.03-.099.161-.08.332-.139.514-.167.201.013.38-.012.545-.06zm17.583.628l.113.246c-.015-.008-.031-.018-.048-.026a8.49 8.49 0 0 1-.66.171c.196-.111.412-.188.585-.332a1.21 1.21 0 0 1 .01-.059zm-22.711.51c-.002.012 0 .027-.001.039l-.025-.008.007-.017.019-.014zm19.56.462c.024.11.067.214.127.312-.473.103-.916.309-1.355.538-.293.044-.326.637-.775.309a1.16 1.16 0 0 0-.342-.548c-.028-.013-.046-.03-.07-.045a.62.62 0 0 0 .191-.173c.186.121.393.193.616.187.61-.017 1.133-.245 1.608-.58zm20.485 1.237c.043.088.103.172.161.256-.186.013-.373.024-.56.035.137-.09.27-.187.4-.291zm-4.388.881l.185.335c-.123.075-.252.143-.37.224a1.048 1.048 0 0 0-.247-.347c.135-.063.272-.123.408-.183.009-.009.015-.02.024-.029zm2.53 3.012c.202.17.434.243.694.221-.025.07-.054.136-.07.216.004.131.03.259.053.387a.702.702 0 0 0-.264.107c-.436.416-1.023.274-1.553.32a7.89 7.89 0 0 1-2.07.089c.929-.339 1.872-.636 2.796-.972.16-.104.295-.228.415-.368zm-10.888.445c.592.29 1.327.192 1.853.663-.802.734-1.26-.32-1.853-.663zm16.605 2.671a3.77 3.77 0 0 0-.974.088 2.078 2.078 0 0 0-.798.508c-.058.152-.117.297-.175.446.13.257.262.519.394.776.39.017.733.199 1.074.387l-.013-.01c.482-.073.873.104 1.192.495.667-.317 1.336-.633 2.003-.951l-.35-1.016a15.236 15.236 0 0 0-.403-.314c-.628-.294-1.288-.376-1.95-.409zm-76.594 1.197l.005.008-.004.002v-.01zm58.105 5.553c.117.021.23.065.342.129.102.212.19.453.274.689l-.209.081c-.009-.128-.013-.255-.036-.383-.21-.317-.49-.427-.79-.492l.052-.012a.858.858 0 0 1 .367-.012zm-12.72.812c.015.011.031.017.047.028.12.075.238.151.359.222.399.117.804.194 1.207.274.134.032.268.071.402.103.198.055.399.093.6.131-.26.279-.51.57-.794.832a1.819 1.819 0 0 1-1.057.379c.002.016-.384-.048-.383-.036a7.571 7.571 0 0 0-.774-.157 3.937 3.937 0 0 0-.744-.044c.478-.484.987-.949 1.156-1.677-.006-.022-.014-.034-.02-.055z"/></svg>