<svg width="180" height="190" viewBox="0 0 180 190" fill="none" xmlns="http://www.w3.org/2000/svg">
<rect width="180" height="190" fill="white"/>
<path d="M180 0H0V190H180V0Z" fill="white"/>
<path d="M95.7514 184.213C54.1758 184.213 20.4722 152.007 20.4722 112.279C20.4722 72.5512 54.1758 40.3455 95.7514 40.3455C137.327 40.3455 171.031 72.5512 171.031 112.279C171.031 152.007 137.327 184.213 95.7514 184.213Z" fill="#FBF1A9"/>
<path fill-rule="evenodd" clip-rule="evenodd" d="M85.5729 118.514C87.5522 120.555 89.4292 122.364 91.0975 124.169C93.2564 124.327 95.0514 121.195 96.7205 121.863C98.1792 122.869 100.075 123.809 100.415 125.552C100.426 126.582 99.5434 127.058 98.9735 127.727C95.9358 128.936 93.6609 130.7 91.9205 133.081C91.3063 133.837 90.014 134.222 89.3178 133.337C87.6818 131.44 86.3173 129.409 84.7854 127.653C83.2723 128.384 82.5025 130.139 81.6143 131.276C80.9229 132.153 79.7776 132.207 78.8052 131.686C77.0779 129.544 74.8288 128.301 73.0458 126.563C72.8398 125.601 73.0608 124.51 74.1112 124.119C77.348 122.585 79.8979 120.423 82.8149 118.94C83.6648 118.528 84.6272 117.8 85.5422 118.46L85.5729 118.514Z" fill="#19A974"/>
<path fill-rule="evenodd" clip-rule="evenodd" d="M141.733 21.323C146.93 24.203 144.668 33.5579 138.75 33.7541C130.463 32.5183 114.195 28.9932 113.683 30.4167C113.241 32.6582 119.837 33.79 122.983 35.077C131.351 38.4142 139.477 41.591 147.729 45.124C152.229 48.9176 148.894 57.4371 143.064 57.0958C135.143 54.4664 127.677 50.5988 119.931 47.4934C118.022 46.9464 108.95 41.8842 111.792 45.0395C118.968 50.2575 125.895 55.829 133.053 61.1292C135.918 63.5149 138.953 65.6016 141.84 67.931C146.555 72.8654 139.289 81.7084 133.621 78.2399C127.738 73.6936 121.756 69.1834 115.876 64.6884C113.312 62.8856 110.773 60.5292 108.217 58.9665C107.858 61.1831 109.039 63.6985 109.279 66.051C109.791 69.9053 110.897 73.7427 111.242 77.5554C107.864 84.078 105.597 91.1973 102 97.5661C97.232 101.595 89.2285 95.5073 91.8432 89.8306C92.9723 83.7043 96.6911 77.8383 96.4808 71.6245C95.0866 66.7854 94.4631 61.1573 90.0157 58.0253C86.7971 55.0373 80.8286 54.2129 78.2142 58.4702C75.5469 65.4457 78.8329 72.9663 81.9731 79.243C86.7713 85.5268 83.4249 95.3784 76.5845 98.5894C73.423 100.21 72.4023 96.1286 71.7524 93.844C69.1077 83.8595 63.8756 74.8676 57.6265 66.726C53.9512 61.5944 52.3469 55.4701 50.9837 49.4279C50.4833 46.9287 34.2365 47.0763 27.1591 42.2924C24.7048 40.4819 23.6644 40.0278 21.2652 36.739C19.597 33.996 19.1784 31.2709 19.5615 27.4119C20.0997 22.6219 22.0257 17.8934 24.7608 13.9978C28.1525 10.1181 32.3094 6.90329 37.1404 5.29754C46.7757 3.38732 55.7666 8.92846 64.9183 10.9668C77.9058 12.8891 90.9885 14.2753 103.988 16.0957C115.76 17.5359 127.513 19.0717 139.293 20.6177L140.54 20.8767L141.733 21.323ZM121.477 109.746C123.066 112.083 116.859 115.628 115.498 114.768C113.95 113.244 119.869 109.86 121.477 109.746ZM57.0766 96.8144C58.4123 98.6843 61.858 100.958 60.8565 103.441C59.4247 104.969 57.6634 100.633 56.1258 99.2554C54.0065 98.0586 55.1071 95.3059 57.0766 96.8144V96.8144ZM126.409 133.497C129.012 137.42 122.308 135.921 120.257 134.978C117.274 135.349 108.938 131.917 115.271 131.216C118.895 132.414 122.712 133.207 126.409 133.497V133.497ZM43.3461 126.03C45.3178 126.919 52.205 128.263 48.6324 130.803C45.6576 129.065 38.4083 129.172 38.2075 125.152C39.3952 123.319 41.8378 125.634 43.3461 126.03V126.03ZM101.834 152.371C103.665 154.989 106.664 158.548 106.252 161.718C103.393 163.531 104.342 158.905 99.2949 153.768C99.2556 152.543 100.757 151.456 101.834 152.371V152.371ZM69.6379 149.762C71.9756 153.221 65.9818 151.446 63.9887 154.379C60.9991 157.251 59.4113 153.733 62.6818 152.014C64.6738 151.016 67.2567 148.607 69.6379 149.762Z" fill="#555555"/>
</svg>
