<svg width="180" height="190" viewBox="0 0 180 190" fill="none" xmlns="http://www.w3.org/2000/svg">
<g clip-path="url(#clip0)">
<rect width="180" height="190" fill="white"/>
<ellipse cx="86.8834" cy="105.845" rx="72.8834" ry="69.6442" fill="#FBF1A9"/>
<path d="M26.2151 122.057C26.2151 122.057 27.1464 132.026 34.0721 141.736C40.9977 151.446 53.224 156.422 53.224 156.422" stroke="#555555" stroke-width="2" stroke-linejoin="round"/>
<path d="M26.2151 122.057C26.2151 122.057 27.1464 132.026 34.0721 141.736C40.9977 151.446 53.224 156.422 53.224 156.422" stroke="#555555" stroke-width="2" stroke-linejoin="round"/>
<path d="M39.9695 123.465C39.9695 123.465 41.4457 129.594 46.6345 135.024C51.8233 140.453 59.8903 142.456 59.8903 142.456" stroke="#555555" stroke-width="2" stroke-linejoin="round"/>
<path d="M39.9695 123.465C39.9695 123.465 41.4457 129.594 46.6345 135.024C51.8233 140.453 59.8903 142.456 59.8903 142.456" stroke="#555555" stroke-width="2" stroke-linejoin="round"/>
<path d="M160.628 114.737C160.628 114.737 165.368 105.918 164.971 93.9975C164.575 82.0772 157.144 71.167 157.144 71.167" stroke="#555555" stroke-width="2" stroke-linejoin="round"/>
<path d="M160.628 114.737C160.628 114.737 165.368 105.918 164.971 93.9975C164.575 82.0772 157.144 71.167 157.144 71.167" stroke="#555555" stroke-width="2" stroke-linejoin="round"/>
<path d="M149.95 105.954C149.95 105.954 152.112 100.031 150.793 92.638C149.475 85.2445 143.863 79.1126 143.863 79.1126" stroke="#555555" stroke-width="2" stroke-linejoin="round"/>
<path d="M149.95 105.954C149.95 105.954 152.112 100.031 150.793 92.638C149.475 85.2445 143.863 79.1126 143.863 79.1126" stroke="#555555" stroke-width="2" stroke-linejoin="round"/>
<path fill-rule="evenodd" clip-rule="evenodd" d="M60.615 12.8161C60.6221 12.8893 60.389 12.9726 60.0968 13.0012C59.8047 13.0298 59.5715 13.1131 59.5786 13.1863C59.5858 13.2595 59.3526 13.3428 59.0605 13.3714C58.7683 13.4 58.5352 13.4833 58.5423 13.5565C58.5495 13.6297 58.4358 13.7013 58.2898 13.7156C58.1437 13.7299 58.03 13.8015 58.0372 13.8747C58.0444 13.9479 57.9307 14.0194 57.7846 14.0337C57.6386 14.0481 57.5249 14.1196 57.5321 14.1928C57.5392 14.266 57.4256 14.3376 57.2795 14.3519C57.1334 14.3662 57.0198 14.4378 57.0269 14.511C57.0341 14.5842 56.9461 14.6533 56.8313 14.6646C56.5877 14.6884 56.2738 15.0345 56.2954 15.2554C56.3036 15.3396 56.0939 15.662 55.8293 15.972C55.5647 16.2819 55.3574 16.63 55.3687 16.7456C55.38 16.8611 55.3295 16.9615 55.2565 16.9686C55.1835 16.9758 55.1354 17.1014 55.1498 17.2478C55.1641 17.3942 55.1161 17.5199 55.043 17.527C54.97 17.5342 54.9219 17.6598 54.9363 17.8062C54.9506 17.9526 54.9026 18.0782 54.8295 18.0854C54.7565 18.0925 54.7143 18.2781 54.7358 18.4977C54.7573 18.7173 54.7152 18.9028 54.6421 18.9099C54.5691 18.9171 54.5328 19.1625 54.5615 19.4553C54.5901 19.7481 54.5538 19.9935 54.4808 20.0007C54.4069 20.0079 54.3827 20.3686 54.4262 20.8122C54.4696 21.2558 54.5633 21.605 54.6372 21.5978C54.7102 21.5906 54.7934 21.8244 54.8221 22.1172C54.8507 22.41 54.934 22.6437 55.007 22.6365C55.08 22.6294 55.1574 22.8032 55.1789 23.0228C55.2004 23.2424 55.2777 23.4162 55.3508 23.4091C55.4238 23.4019 55.507 23.6356 55.5357 23.9284C55.5644 24.2212 55.6476 24.455 55.7206 24.4478C55.7937 24.4407 55.8651 24.5546 55.8795 24.701C55.8938 24.8474 55.9653 24.9613 56.0383 24.9542C56.1114 24.947 56.1887 25.1209 56.2102 25.3405C56.2317 25.5601 56.3091 25.7339 56.3821 25.7267C56.4552 25.7196 56.5325 25.8934 56.554 26.113C56.5755 26.3326 56.6529 26.5064 56.7259 26.4993C56.7989 26.4921 56.8704 26.6061 56.8848 26.7525C56.8991 26.8989 56.9706 27.0128 57.0436 27.0056C57.1166 26.9985 57.1999 27.2322 57.2285 27.525C57.2572 27.8178 57.3404 28.0515 57.4135 28.0444C57.4865 28.0372 57.5638 28.2111 57.5853 28.4307C57.6068 28.6503 57.6842 28.8241 57.7572 28.8169C57.8303 28.8098 57.9076 28.9836 57.9291 29.2032C57.9506 29.4228 58.028 29.5966 58.101 29.5895C58.1741 29.5823 58.2514 29.7562 58.2729 29.9758C58.2944 30.1954 58.3718 30.3692 58.4448 30.362C58.5178 30.3549 58.5893 30.4688 58.6037 30.6152C58.618 30.7616 58.6895 30.8756 58.7625 30.8684C58.8355 30.8612 58.9129 31.0351 58.9344 31.2547C58.9559 31.4743 59.0333 31.6481 59.1063 31.641C59.1793 31.6338 59.2567 31.8076 59.2782 32.0272C59.2997 32.2468 59.377 32.4207 59.4501 32.4135C59.5231 32.4064 59.6005 32.5802 59.622 32.7998C59.6435 33.0194 59.7208 33.1932 59.7938 33.1861C59.8669 33.1789 59.9442 33.3527 59.9657 33.5723C59.9872 33.7919 60.0646 33.9658 60.1376 33.9586C60.2107 33.9515 60.288 34.1253 60.3095 34.3449C60.331 34.5645 60.4084 34.7383 60.4814 34.7312C60.5545 34.724 60.6318 34.8978 60.6533 35.1174C60.6748 35.337 60.7522 35.5109 60.8252 35.5037C60.8982 35.4966 60.9756 35.6704 60.9971 35.89C61.0186 36.1096 61.0959 36.2834 61.169 36.2763C61.242 36.2691 61.3194 36.4429 61.3409 36.6625C61.3624 36.8821 61.4397 37.056 61.5127 37.0488C61.5858 37.0417 61.6631 37.2155 61.6846 37.4351C61.7061 37.6547 61.7835 37.8285 61.8565 37.8214C61.9296 37.8142 62.0011 37.9281 62.0154 38.0745C62.0297 38.2209 62.1012 38.3349 62.1743 38.3277C62.2473 38.3206 62.3246 38.4944 62.3461 38.714C62.3676 38.9336 62.445 39.1074 62.518 39.1003C62.5911 39.0931 62.6684 39.2669 62.6899 39.4865C62.7114 39.7062 62.7888 39.88 62.8618 39.8728C62.9349 39.8657 63.0122 40.0395 63.0337 40.2591C63.0552 40.4787 63.1326 40.6525 63.2056 40.6454C63.2786 40.6382 63.356 40.812 63.3775 41.0316C63.399 41.2513 63.4763 41.4251 63.5494 41.4179C63.6224 41.4108 63.6998 41.5846 63.7213 41.8042C63.7428 42.0238 63.8201 42.1976 63.8932 42.1905C63.9662 42.1833 64.0435 42.3571 64.065 42.5768C64.0865 42.7964 64.1639 42.9702 64.2369 42.963C64.31 42.9559 64.3873 43.1297 64.4088 43.3493C64.4303 43.5689 64.5077 43.7427 64.5807 43.7356C64.6537 43.7284 64.7311 43.9022 64.7526 44.1219C64.7741 44.3415 64.8515 44.5153 64.9245 44.5081C64.9975 44.501 65.0749 44.6748 65.0964 44.8944C65.1179 45.114 65.1952 45.2878 65.2683 45.2807C65.3413 45.2735 65.4128 45.3875 65.4271 45.5339C65.4415 45.6803 65.513 45.7942 65.586 45.787C65.659 45.7799 65.7364 45.9537 65.7579 46.1733C65.7794 46.3929 65.8567 46.5667 65.9298 46.5596C66.0028 46.5524 66.0802 46.7263 66.1017 46.9459C66.1232 47.1655 66.2005 47.3393 66.2735 47.3321C66.3466 47.325 66.4239 47.4988 66.4454 47.7184C66.4669 47.938 66.5443 48.1118 66.6173 48.1047C66.6904 48.0975 66.7677 48.2714 66.7892 48.491C66.8107 48.7106 66.8881 48.8844 66.9611 48.8772C67.0342 48.8701 67.1115 49.0439 67.133 49.2635C67.1545 49.4831 67.2318 49.6569 67.3049 49.6498C67.3779 49.6426 67.4553 49.8165 67.4768 50.0361C67.4983 50.2557 67.5756 50.4295 67.6487 50.4223C67.7217 50.4152 67.7991 50.589 67.8206 50.8086C67.8421 51.0282 67.9194 51.202 67.9925 51.1949C68.0655 51.1877 68.1428 51.3616 68.1643 51.5812C68.1858 51.8008 68.2632 51.9746 68.3362 51.9674C68.4093 51.9603 68.4866 52.1341 68.5081 52.3537C68.5296 52.5733 68.607 52.7471 68.68 52.74C68.7531 52.7328 68.8245 52.8468 68.8389 52.9932C68.8532 53.1396 68.9247 53.2535 68.9977 53.2464C69.0708 53.2392 69.1481 53.413 69.1696 53.6326C69.1911 53.8522 69.2685 54.0261 69.3415 54.0189C69.4146 54.0118 69.4919 54.1856 69.5134 54.4052C69.5349 54.6248 69.6122 54.7986 69.6853 54.7915C69.7583 54.7843 69.8357 54.9581 69.8572 55.1777C69.8787 55.3973 69.956 55.5712 70.0291 55.564C70.1021 55.5569 70.1795 55.7307 70.201 55.9503C70.2225 56.1699 70.2998 56.3437 70.3729 56.3366C70.4459 56.3294 70.5232 56.5032 70.5447 56.7228C70.5662 56.9424 70.6436 57.1163 70.7166 57.1091C70.7897 57.102 70.867 57.2758 70.8885 57.4954C70.91 57.715 70.9874 57.8888 71.0604 57.8817C71.1334 57.8745 71.2108 58.0483 71.2323 58.2679C71.2538 58.4875 71.3312 58.6614 71.4042 58.6542C71.4772 58.6471 71.5546 58.8209 71.5761 59.0405C71.5976 59.2601 71.6749 59.4339 71.748 59.4268C71.821 59.4196 71.8984 59.5934 71.9199 59.813C71.9414 60.0326 72.0187 60.2065 72.0917 60.1993C72.1648 60.1922 72.2363 60.3061 72.2506 60.4525C72.2649 60.5989 72.3364 60.7128 72.4095 60.7057C72.4825 60.6985 72.554 60.8125 72.5683 60.9589C72.5827 61.1053 72.6541 61.2192 72.7272 61.2121C72.8002 61.2049 72.8834 61.4386 72.9121 61.7314C72.9408 62.0242 73.024 62.2579 73.097 62.2508C73.3731 62.2238 73.2546 62.6645 72.8545 63.1524C72.5029 63.5813 72.3473 63.6679 71.8373 63.7178C71.5063 63.7502 71.2412 63.8366 71.2484 63.9098C71.2556 63.983 71.1419 64.0546 70.9958 64.0689C70.8498 64.0832 70.7361 64.1548 70.7433 64.228C70.7504 64.3012 70.6368 64.3728 70.4907 64.3871C70.3446 64.4014 70.231 64.473 70.2381 64.5462C70.2581 64.7504 69.3299 64.7946 69.0943 64.6006C68.9797 64.5063 68.8767 64.335 68.8655 64.2199C68.8542 64.1049 68.7852 64.0166 68.7122 64.0238C68.6392 64.0309 68.556 63.7972 68.5273 63.5044C68.4986 63.2116 68.4154 62.9779 68.3424 62.985C68.2693 62.9922 68.192 62.8184 68.1705 62.5988C68.149 62.3792 68.0716 62.2053 67.9986 62.2125C67.9255 62.2196 67.8482 62.0458 67.8267 61.8262C67.8052 61.6066 67.7278 61.4328 67.6548 61.4399C67.5818 61.4471 67.5044 61.2733 67.4829 61.0537C67.4614 60.8341 67.3841 60.6602 67.311 60.6674C67.238 60.6745 67.1606 60.5007 67.1391 60.2811C67.1176 60.0615 67.0403 59.8877 66.9672 59.8948C66.8942 59.902 66.8227 59.7881 66.8084 59.6417C66.7941 59.4953 66.7226 59.3813 66.6495 59.3885C66.5765 59.3956 66.4991 59.2218 66.4776 59.0022C66.4561 58.7826 66.3788 58.6088 66.3057 58.6159C66.2327 58.6231 66.1554 58.4492 66.1339 58.2296C66.1124 58.01 66.035 57.8362 65.962 57.8434C65.8889 57.8505 65.8116 57.6767 65.7901 57.4571C65.7686 57.2375 65.6912 57.0637 65.6182 57.0708C65.5451 57.078 65.4678 56.9041 65.4463 56.6845C65.4248 56.4649 65.3474 56.2911 65.2744 56.2983C65.2014 56.3054 65.124 56.1316 65.1025 55.912C65.081 55.6924 65.0037 55.5186 64.9306 55.5257C64.8576 55.5329 64.7802 55.359 64.7587 55.1394C64.7372 54.9198 64.6599 54.746 64.5868 54.7532C64.5138 54.7603 64.4365 54.5865 64.415 54.3669C64.3935 54.1473 64.3161 53.9735 64.2431 53.9806C64.17 53.9878 64.0927 53.8139 64.0712 53.5943C64.0497 53.3747 63.9723 53.2009 63.8993 53.2081C63.8262 53.2152 63.7489 53.0414 63.7274 52.8218C63.7059 52.6022 63.6285 52.4284 63.5555 52.4355C63.4825 52.4427 63.4051 52.2688 63.3836 52.0492C63.3621 51.8296 63.2848 51.6558 63.2117 51.663C63.1387 51.6701 63.0672 51.5562 63.0529 51.4098C63.0385 51.2634 62.967 51.1494 62.894 51.1566C62.821 51.1637 62.7436 50.9899 62.7221 50.7703C62.7006 50.5507 62.6233 50.3769 62.5502 50.384C62.4772 50.3912 62.3998 50.2174 62.3783 49.9978C62.3568 49.7782 62.2795 49.6043 62.2064 49.6115C62.1334 49.6186 62.0561 49.4448 62.0346 49.2252C62.0131 49.0056 61.9357 48.8318 61.8627 48.8389C61.7896 48.8461 61.7123 48.6723 61.6908 48.4527C61.6693 48.2331 61.5919 48.0592 61.5189 48.0664C61.4458 48.0735 61.3685 47.8997 61.347 47.6801C61.3255 47.4605 61.2481 47.2867 61.1751 47.2938C61.1021 47.301 61.0247 47.1272 61.0032 46.9076C60.9817 46.688 60.9044 46.5141 60.8313 46.5213C60.7583 46.5284 60.6809 46.3546 60.6594 46.135C60.6379 45.9154 60.5606 45.7416 60.4875 45.7487C60.4145 45.7559 60.3372 45.5821 60.3157 45.3625C60.2942 45.1429 60.2168 44.969 60.1438 44.9762C60.0707 44.9833 59.9934 44.8095 59.9719 44.5899C59.9504 44.3703 59.873 44.1965 59.8 44.2036C59.7269 44.2108 59.6555 44.0969 59.6411 43.9505C59.6268 43.8041 59.5553 43.6901 59.4823 43.6973C59.4092 43.7044 59.3319 43.5306 59.3104 43.311C59.2889 43.0914 59.2115 42.9176 59.1385 42.9247C59.0654 42.9319 58.9881 42.7581 58.9666 42.5385C58.9451 42.3188 58.8677 42.145 58.7947 42.1522C58.7217 42.1593 58.6443 41.9855 58.6228 41.7659C58.6013 41.5463 58.524 41.3725 58.4509 41.3796C58.3779 41.3868 58.3005 41.213 58.279 40.9934C58.2575 40.7737 58.1802 40.5999 58.1072 40.6071C58.0341 40.6142 57.9568 40.4404 57.9353 40.2208C57.9138 40.0012 57.8364 39.8274 57.7634 39.8345C57.6903 39.8417 57.613 39.6679 57.5915 39.4482C57.57 39.2286 57.4926 39.0548 57.4196 39.062C57.3465 39.0691 57.2692 38.8953 57.2477 38.6757C57.2262 38.4561 57.1488 38.2823 57.0758 38.2894C57.0028 38.2966 56.9254 38.1227 56.9039 37.9031C56.8824 37.6835 56.8051 37.5097 56.732 37.5169C56.659 37.524 56.5875 37.4101 56.5732 37.2637C56.5588 37.1173 56.4873 37.0034 56.4143 37.0105C56.3413 37.0177 56.2639 36.8438 56.2424 36.6242C56.2209 36.4046 56.1436 36.2308 56.0705 36.238C55.9975 36.2451 55.9201 36.0713 55.8986 35.8517C55.8771 35.6321 55.7998 35.4583 55.7267 35.4654C55.6537 35.4726 55.5764 35.2987 55.5549 35.0791C55.5334 34.8595 55.456 34.6857 55.383 34.6929C55.3099 34.7 55.2326 34.5262 55.2111 34.3066C55.1896 34.087 55.1122 33.9132 55.0392 33.9203C54.9662 33.9275 54.8888 33.7536 54.8673 33.534C54.8458 33.3144 54.7684 33.1406 54.6954 33.1478C54.6224 33.1549 54.545 32.9811 54.5235 32.7615C54.502 32.5419 54.4247 32.3681 54.3516 32.3752C54.2786 32.3824 54.2012 32.2085 54.1797 31.9889C54.1582 31.7693 54.0809 31.5955 54.0078 31.6027C53.9348 31.6098 53.8575 31.436 53.836 31.2164C53.8145 30.9968 53.7371 30.823 53.6641 30.8301C53.591 30.8373 53.5137 30.6634 53.4922 30.4438C53.4707 30.2242 53.3933 30.0504 53.3203 30.0575C53.2473 30.0647 53.1758 29.9508 53.1614 29.8044C53.1471 29.658 53.0756 29.544 53.0026 29.5512C52.9295 29.5583 52.8522 29.3845 52.8307 29.1649C52.8092 28.9453 52.7318 28.7715 52.6588 28.7786C52.5857 28.7858 52.5143 28.6719 52.4999 28.5255C52.4856 28.3791 52.4141 28.2651 52.3411 28.2723C52.268 28.2794 52.1978 28.1787 52.1851 28.0485C52.1723 27.9182 52.0339 27.7371 51.8775 27.6458C51.7211 27.5546 51.5827 27.3734 51.57 27.2431C51.5572 27.113 51.487 27.0122 51.414 27.0194C51.3409 27.0265 51.2722 26.9405 51.2612 26.8283C51.2383 26.5948 50.3045 25.7843 50.0834 25.8059C49.868 25.827 49.5232 25.5093 49.4996 25.268C49.4878 25.1477 49.3665 25.0699 49.2135 25.0849C49.0674 25.0992 48.9421 25.051 48.9349 24.9778C48.9277 24.9046 48.8023 24.8564 48.6563 24.8707C48.5102 24.885 48.3848 24.8368 48.3776 24.7636C48.3705 24.6904 48.1985 24.6468 47.9956 24.6667C47.7788 24.6879 47.5367 24.6006 47.409 24.4554C47.2282 24.2498 47.0391 24.2229 46.2912 24.2961C45.7795 24.3462 45.3853 24.3267 45.3779 24.2511C45.3707 24.1779 45.1258 24.1414 44.8337 24.17C44.5415 24.1986 44.3083 24.2819 44.3155 24.3551C44.3227 24.4283 44.1493 24.5058 43.9301 24.5272C43.711 24.5487 43.5376 24.6261 43.5448 24.6993C43.552 24.7725 43.3785 24.85 43.1594 24.8714C42.9403 24.8929 42.7669 24.9703 42.7741 25.0435C42.7812 25.1167 42.6078 25.1942 42.3887 25.2156C42.1696 25.2371 41.9962 25.3145 42.0033 25.3877C42.0105 25.4609 41.8662 25.5355 41.6825 25.5535C41.4406 25.5772 41.0685 25.9278 40.3323 26.8259C39.7734 27.5078 39.3248 28.1563 39.3357 28.2672C39.3465 28.3781 39.2957 28.4746 39.2226 28.4817C39.1496 28.4889 39.1003 28.6013 39.113 28.7315C39.1258 28.8618 39.0251 29.0663 38.8894 29.1862C38.7445 29.3142 38.6575 29.5568 38.6788 29.774C38.6987 29.9773 38.6552 30.1497 38.5822 30.1568C38.5092 30.164 38.467 30.3495 38.4885 30.5691C38.51 30.7887 38.4678 30.9742 38.3948 30.9814C38.3137 30.9893 38.3228 31.6155 38.4184 32.5915C38.5139 33.5675 38.6264 34.1836 38.7075 34.1756C38.7806 34.1685 38.8579 34.3423 38.8794 34.5619C38.9009 34.7815 38.9783 34.9553 39.0513 34.9482C39.1244 34.941 39.2017 35.1148 39.2232 35.3344C39.2447 35.554 39.3221 35.7279 39.3951 35.7207C39.4681 35.7136 39.5455 35.8874 39.567 36.107C39.5885 36.3266 39.6658 36.5004 39.7389 36.4933C39.8119 36.4861 39.8893 36.6599 39.9108 36.8795C39.9323 37.0991 40.0096 37.273 40.0826 37.2658C40.1557 37.2587 40.2272 37.3726 40.2415 37.519C40.2558 37.6654 40.3273 37.7793 40.4004 37.7722C40.4734 37.765 40.5508 37.9388 40.5723 38.1585C40.5938 38.3781 40.6711 38.5519 40.7441 38.5447C40.8172 38.5376 40.8945 38.7114 40.916 38.931C40.9375 39.1506 41.0149 39.3244 41.0879 39.3173C41.161 39.3101 41.2383 39.484 41.2598 39.7036C41.2813 39.9232 41.3587 40.097 41.4317 40.0898C41.5047 40.0827 41.5821 40.2565 41.6036 40.4761C41.6251 40.6957 41.7025 40.8695 41.7755 40.8624C41.8485 40.8552 41.9259 41.0291 41.9474 41.2487C41.9689 41.4683 42.0462 41.6421 42.1193 41.6349C42.1923 41.6278 42.2697 41.8016 42.2912 42.0212C42.3127 42.2408 42.39 42.4146 42.463 42.4075C42.5361 42.4003 42.6134 42.5742 42.6349 42.7938C42.6564 43.0134 42.7338 43.1872 42.8068 43.18C42.8799 43.1729 42.9572 43.3467 42.9787 43.5663C43.0002 43.7859 43.0776 43.9597 43.1506 43.9526C43.2236 43.9454 43.301 44.1193 43.3225 44.3389C43.344 44.5585 43.4213 44.7323 43.4944 44.7251C43.5674 44.718 43.6448 44.8918 43.6663 45.1114C43.6878 45.331 43.7651 45.5048 43.8382 45.4977C43.9112 45.4905 43.9886 45.6644 44.0101 45.884C44.0316 46.1036 44.1089 46.2774 44.182 46.2702C44.255 46.2631 44.3265 46.377 44.3408 46.5234C44.3551 46.6698 44.4266 46.7837 44.4997 46.7766C44.5727 46.7694 44.6501 46.9433 44.6716 47.1629C44.6931 47.3825 44.7704 47.5563 44.8434 47.5491C44.9165 47.542 44.9938 47.7158 45.0153 47.9354C45.0368 48.155 45.1142 48.3289 45.1872 48.3217C45.2603 48.3146 45.3376 48.4884 45.3591 48.708C45.3806 48.9276 45.458 49.1014 45.531 49.0943C45.604 49.0871 45.6814 49.2609 45.7029 49.4805C45.7244 49.7001 45.8017 49.874 45.8748 49.8668C45.9478 49.8597 46.0252 50.0335 46.0467 50.2531C46.0682 50.4727 46.1455 50.6465 46.2186 50.6394C46.2916 50.6322 46.369 50.806 46.3905 51.0256C46.412 51.2452 46.4893 51.4191 46.5623 51.4119C46.6354 51.4048 46.7127 51.5786 46.7342 51.7982C46.7557 52.0178 46.8331 52.1916 46.9061 52.1845C46.9792 52.1773 47.0507 52.2912 47.065 52.4376C47.0793 52.584 47.1508 52.698 47.2238 52.6908C47.2969 52.6837 47.3742 52.8575 47.3957 53.0771C47.4172 53.2967 47.4946 53.4705 47.5676 53.4634C47.6407 53.4562 47.718 53.63 47.7395 53.8496C47.761 54.0692 47.8384 54.2431 47.9114 54.2359C47.9844 54.2288 48.0618 54.4026 48.0833 54.6222C48.1048 54.8418 48.1821 55.0156 48.2552 55.0085C48.3282 55.0013 48.4056 55.1751 48.4271 55.3947C48.4486 55.6143 48.5259 55.7882 48.599 55.781C48.672 55.7739 48.7494 55.9477 48.7709 56.1673C48.7924 56.3869 48.8697 56.5607 48.9427 56.5536C49.0158 56.5464 49.0931 56.7202 49.1146 56.9398C49.1361 57.1595 49.2135 57.3333 49.2865 57.3261C49.3596 57.319 49.4369 57.4928 49.4584 57.7124C49.4799 57.932 49.5573 58.1058 49.6303 58.0987C49.7033 58.0915 49.7807 58.2653 49.8022 58.4849C49.8237 58.7046 49.9011 58.8784 49.9741 58.8712C50.0471 58.8641 50.1245 59.0379 50.146 59.2575C50.1675 59.4771 50.2448 59.6509 50.3179 59.6438C50.3909 59.6366 50.4624 59.7506 50.4767 59.897C50.4911 60.0434 50.5625 60.1573 50.6356 60.1501C50.7086 60.143 50.786 60.3168 50.8075 60.5364C50.829 60.756 50.9063 60.9298 50.9794 60.9227C51.0524 60.9155 51.1298 61.0894 51.1513 61.309C51.1728 61.5286 51.2501 61.7024 51.3231 61.6952C51.3962 61.6881 51.4735 61.8619 51.495 62.0815C51.5165 62.3011 51.5939 62.4749 51.6669 62.4678C51.74 62.4606 51.8173 62.6345 51.8388 62.8541C51.8603 63.0737 51.9377 63.2475 52.0107 63.2403C52.0837 63.2332 52.1611 63.407 52.1826 63.6266C52.2041 63.8462 52.2814 64.02 52.3545 64.0129C52.4275 64.0057 52.5049 64.1796 52.5264 64.3992C52.5479 64.6188 52.6252 64.7926 52.6983 64.7854C52.7713 64.7783 52.8487 64.9521 52.8702 65.1717C52.8917 65.3913 52.969 65.5651 53.042 65.558C53.1151 65.5508 53.1924 65.7247 53.2139 65.9443C53.2354 66.1639 53.3128 66.3377 53.3858 66.3305C53.4589 66.3234 53.5362 66.4972 53.5577 66.7168C53.5792 66.9364 53.6566 67.1102 53.7296 67.1031C53.8026 67.0959 53.8741 67.2099 53.8885 67.3563C53.9028 67.5027 53.9743 67.6166 54.0473 67.6095C54.1204 67.6023 54.1977 67.7761 54.2192 67.9957C54.2407 68.2153 54.3181 68.3892 54.3911 68.382C54.4641 68.3749 54.5415 68.5487 54.563 68.7683C54.5845 68.9879 54.6618 69.1617 54.7349 69.1546C54.8079 69.1474 54.8853 69.3212 54.9068 69.5408C54.9283 69.7604 55.0056 69.9343 55.0787 69.9271C55.1517 69.92 55.2291 70.0938 55.2506 70.3134C55.2721 70.533 55.3494 70.7068 55.4224 70.6997C55.4955 70.6925 55.5787 70.9262 55.6074 71.219C55.636 71.5118 55.7193 71.7456 55.7923 71.7384C55.8653 71.7312 55.9368 71.8452 55.9511 71.9916C55.9655 72.138 56.037 72.2519 56.11 72.2448C56.183 72.2376 56.2604 72.4114 56.2819 72.631C56.3034 72.8506 56.3807 73.0245 56.4538 73.0173C56.5268 73.0102 56.5983 73.1241 56.6126 73.2705C56.627 73.4169 56.6985 73.5308 56.7715 73.5237C56.8453 73.5165 56.9391 73.8656 56.9825 74.3092C57.0259 74.7528 57.0017 75.1136 56.9279 75.1208C56.8548 75.1279 56.8043 75.2279 56.8155 75.3429C56.8392 75.585 56.5622 75.9628 56.3455 75.984C56.1566 76.0025 55.6048 76.6699 55.6232 76.8577C55.6415 77.0449 54.3669 78.5964 54.1796 78.6147C53.9236 78.6398 53.6189 78.2962 53.5843 77.9435C53.5659 77.7553 53.4911 77.6072 53.418 77.6143C53.345 77.6215 53.2676 77.4477 53.2461 77.228C53.2246 77.0084 53.1473 76.8346 53.0742 76.8418C53.0012 76.8489 52.9239 76.6751 52.9024 76.4555C52.8809 76.2359 52.8035 76.0621 52.7305 76.0692C52.6574 76.0764 52.5801 75.9025 52.5586 75.6829C52.5371 75.4633 52.4597 75.2895 52.3867 75.2967C52.3136 75.3038 52.2363 75.13 52.2148 74.9104C52.1933 74.6908 52.1159 74.517 52.0429 74.5241C51.9699 74.5313 51.8984 74.4173 51.884 74.2709C51.8697 74.1245 51.7982 74.0106 51.7252 74.0178C51.6521 74.0249 51.5689 73.7912 51.5403 73.4984C51.5116 73.2056 51.4284 72.9719 51.3553 72.979C51.2823 72.9862 51.205 72.8123 51.1835 72.5927C51.162 72.3731 51.0846 72.1993 51.0116 72.2065C50.9385 72.2136 50.8612 72.0398 50.8397 71.8202C50.8182 71.6006 50.7408 71.4268 50.6678 71.4339C50.5947 71.4411 50.5174 71.2672 50.4959 71.0476C50.4744 70.828 50.397 70.6542 50.324 70.6614C50.251 70.6685 50.1795 70.5546 50.1651 70.4082C50.1508 70.2618 50.0793 70.1478 50.0063 70.155C49.9332 70.1622 49.8559 69.9883 49.8344 69.7687C49.8129 69.5491 49.7355 69.3753 49.6625 69.3825C49.5895 69.3896 49.5121 69.2158 49.4906 68.9962C49.4691 68.7766 49.3918 68.6027 49.3187 68.6099C49.2457 68.6171 49.1683 68.4432 49.1468 68.2236C49.1253 68.004 49.048 67.8302 48.9749 67.8374C48.9019 67.8445 48.8246 67.6707 48.8031 67.4511C48.7816 67.2315 48.7042 67.0576 48.6312 67.0648C48.5581 67.0719 48.4808 66.8981 48.4593 66.6785C48.4378 66.4589 48.3604 66.2851 48.2874 66.2922C48.2143 66.2994 48.137 66.1256 48.1155 65.906C48.094 65.6864 48.0166 65.5125 47.9436 65.5197C47.8706 65.5268 47.7932 65.353 47.7717 65.1334C47.7502 64.9138 47.6729 64.74 47.5998 64.7471C47.5268 64.7543 47.4494 64.5805 47.4279 64.3609C47.4064 64.1413 47.3291 63.9674 47.256 63.9746C47.183 63.9817 47.1057 63.8079 47.0842 63.5883C47.0627 63.3687 46.9853 63.1949 46.9123 63.202C46.8392 63.2092 46.7677 63.0953 46.7534 62.9489C46.7391 62.8025 46.6676 62.6885 46.5945 62.6957C46.5215 62.7028 46.4442 62.529 46.4227 62.3094C46.4012 62.0898 46.3238 61.916 46.2508 61.9231C46.1777 61.9303 46.1004 61.7565 46.0789 61.5369C46.0574 61.3173 45.98 61.1434 45.907 61.1506C45.8339 61.1577 45.7566 60.9839 45.7351 60.7643C45.7136 60.5447 45.6362 60.3709 45.5632 60.378C45.4902 60.3852 45.4128 60.2114 45.3913 59.9918C45.3698 59.7722 45.2925 59.5983 45.2194 59.6055C45.1464 59.6126 45.069 59.4388 45.0475 59.2192C45.026 58.9996 44.9487 58.8258 44.8756 58.8329C44.8026 58.8401 44.7253 58.6663 44.7038 58.4466C44.6823 58.227 44.6049 58.0532 44.5319 58.0604C44.4588 58.0675 44.3815 57.8937 44.36 57.6741C44.3385 57.4545 44.2611 57.2807 44.1881 57.2878C44.115 57.295 44.0377 57.1212 44.0162 56.9015C43.9947 56.6819 43.9173 56.5081 43.8443 56.5153C43.7713 56.5224 43.6939 56.3486 43.6724 56.129C43.6509 55.9094 43.5736 55.7356 43.5005 55.7427C43.4275 55.7499 43.356 55.6359 43.3417 55.4895C43.3273 55.3431 43.2558 55.2292 43.1828 55.2364C43.1098 55.2435 43.0324 55.0697 43.0109 54.8501C42.9894 54.6305 42.9121 54.4567 42.839 54.4638C42.766 54.471 42.6886 54.2971 42.6671 54.0775C42.6456 53.8579 42.5683 53.6841 42.4952 53.6913C42.4222 53.6984 42.3449 53.5246 42.3234 53.305C42.3019 53.0854 42.2245 52.9116 42.1515 52.9187C42.0784 52.9259 42.0011 52.752 41.9796 52.5324C41.9581 52.3128 41.8807 52.139 41.8077 52.1462C41.7346 52.1533 41.6573 51.9795 41.6358 51.7599C41.6143 51.5403 41.5369 51.3665 41.4639 51.3736C41.3909 51.3808 41.3135 51.2069 41.292 50.9873C41.2705 50.7677 41.1932 50.5939 41.1201 50.6011C41.0471 50.6082 40.9697 50.4344 40.9482 50.2148C40.9267 49.9952 40.8494 49.8214 40.7763 49.8285C40.7033 49.8357 40.626 49.6618 40.6045 49.4422C40.583 49.2226 40.5056 49.0488 40.4326 49.056C40.3595 49.0631 40.288 48.9492 40.2737 48.8028C40.2594 48.6564 40.1879 48.5424 40.1148 48.5496C40.0418 48.5567 39.9645 48.3829 39.943 48.1633C39.9215 47.9437 39.8441 47.7699 39.7711 47.777C39.698 47.7842 39.6265 47.6703 39.6122 47.5239C39.5979 47.3775 39.5264 47.2635 39.4533 47.2707C39.3803 47.2778 39.3115 47.1912 39.3004 47.078C39.2773 46.8417 38.6369 46.2757 38.417 46.2972C38.3359 46.3051 37.9492 46.0407 37.5576 45.7095C37.166 45.3783 36.7522 45.1165 36.6379 45.1277C36.5235 45.1389 36.4242 45.0882 36.417 45.015C36.4098 44.9418 36.2845 44.8936 36.1384 44.9079C35.9923 44.9222 35.8669 44.874 35.8598 44.8008C35.8525 44.7268 35.4925 44.7024 35.0499 44.7457C34.6073 44.789 34.2474 44.7646 34.2401 44.6906C34.2329 44.6174 34.1126 44.5687 33.9725 44.5824C33.8325 44.5962 33.6758 44.536 33.6242 44.4486C33.5493 44.3216 33.5182 44.3246 33.4694 44.4637C33.4357 44.5595 33.1743 44.6606 32.8881 44.6886C32.6019 44.7166 32.3738 44.7994 32.3809 44.8726C32.3881 44.9458 32.1549 45.0291 31.8628 45.0577C31.5706 45.0863 31.3375 45.1696 31.3446 45.2428C31.3518 45.316 31.2381 45.3876 31.0921 45.4019C30.946 45.4162 30.8323 45.4878 30.8395 45.561C30.8467 45.6342 30.6732 45.7117 30.4541 45.7331C30.235 45.7546 30.0616 45.832 30.0688 45.9052C30.0759 45.9784 29.9908 46.0472 29.8797 46.0581C29.6336 46.0822 28.3586 47.6094 28.3824 47.8518C28.3917 47.947 28.2882 48.1229 28.1525 48.2427C28.0167 48.3626 27.9161 48.5671 27.9289 48.6974C27.9416 48.8276 27.8923 48.9401 27.8192 48.9472C27.7462 48.9544 27.6982 49.08 27.7125 49.2264C27.7268 49.3728 27.6788 49.4984 27.6058 49.5056C27.5327 49.5127 27.4906 49.6983 27.5121 49.9179C27.5336 50.1375 27.4914 50.323 27.4184 50.3301C27.3367 50.3381 27.3507 51.0086 27.455 52.0733C27.5592 53.1381 27.6755 53.7985 27.7572 53.7905C27.8302 53.7834 27.9075 53.9572 27.9291 54.1768C27.9506 54.3964 28.0279 54.5702 28.1009 54.5631C28.174 54.5559 28.2513 54.7298 28.2728 54.9494C28.2943 55.169 28.3717 55.3428 28.4447 55.3356C28.5178 55.3285 28.5892 55.4424 28.6036 55.5888C28.6179 55.7352 28.6894 55.8492 28.7624 55.842C28.8355 55.8349 28.9187 56.0686 28.9474 56.3614C28.976 56.6542 29.0592 56.8879 29.1323 56.8807C29.2053 56.8736 29.2885 57.1073 29.3172 57.4001C29.3459 57.6929 29.4291 57.9266 29.5021 57.9195C29.5752 57.9123 29.6466 58.0263 29.661 58.1727C29.6753 58.3191 29.7468 58.433 29.8198 58.4258C29.8929 58.4187 29.9702 58.5925 29.9917 58.8121C30.0132 59.0317 30.0906 59.2055 30.1636 59.1984C30.2367 59.1912 30.314 59.3651 30.3355 59.5847C30.357 59.8043 30.4344 59.9781 30.5074 59.9709C30.5804 59.9638 30.6578 60.1376 30.6793 60.3572C30.7008 60.5768 30.7781 60.7506 30.8512 60.7435C30.9242 60.7363 31.0016 60.9102 31.0231 61.1298C31.0446 61.3494 31.1219 61.5232 31.195 61.516C31.268 61.5089 31.3454 61.6827 31.3669 61.9023C31.3884 62.1219 31.4657 62.2957 31.5387 62.2886C31.6118 62.2814 31.6833 62.3954 31.6976 62.5418C31.7119 62.6882 31.7834 62.8021 31.8565 62.795C31.9295 62.7878 32.0069 62.9616 32.0284 63.1812C32.0499 63.4008 32.1272 63.5747 32.2002 63.5675C32.2733 63.5604 32.3506 63.7342 32.3721 63.9538C32.3936 64.1734 32.471 64.3472 32.544 64.3401C32.6171 64.3329 32.6944 64.5067 32.7159 64.7263C32.7374 64.9459 32.8148 65.1198 32.8878 65.1126C32.9608 65.1055 33.0382 65.2793 33.0597 65.4989C33.0812 65.7185 33.1585 65.8923 33.2316 65.8852C33.3046 65.878 33.382 66.0518 33.4035 66.2714C33.425 66.491 33.5023 66.6649 33.5754 66.6577C33.6484 66.6506 33.7258 66.8244 33.7473 67.044C33.7688 67.2636 33.8461 67.4374 33.9191 67.4303C33.9922 67.4231 34.0695 67.5969 34.091 67.8165C34.1125 68.0361 34.1899 68.21 34.2629 68.2028C34.336 68.1957 34.4133 68.3695 34.4348 68.5891C34.4563 68.8087 34.5337 68.9825 34.6067 68.9754C34.6797 68.9682 34.7571 69.142 34.7786 69.3616C34.8001 69.5812 34.8774 69.7551 34.9505 69.7479C35.0235 69.7408 35.095 69.8547 35.1093 70.0011C35.1237 70.1475 35.1952 70.2614 35.2682 70.2543C35.3412 70.2471 35.4186 70.421 35.4401 70.6406C35.4616 70.8602 35.5389 71.034 35.612 71.0268C35.685 71.0197 35.7624 71.1935 35.7839 71.4131C35.8054 71.6327 35.8827 71.8065 35.9558 71.7994C36.0288 71.7922 36.1061 71.9661 36.1277 72.1857C36.1492 72.4053 36.2265 72.5791 36.2995 72.5719C36.3726 72.5648 36.4499 72.7386 36.4714 72.9582C36.4929 73.1778 36.5703 73.3516 36.6433 73.3445C36.7164 73.3373 36.7937 73.5112 36.8152 73.7308C36.8367 73.9504 36.9141 74.1242 36.9871 74.117C37.0601 74.1099 37.1375 74.2837 37.159 74.5033C37.1805 74.7229 37.2578 74.8967 37.3309 74.8896C37.4039 74.8824 37.4813 75.0563 37.5028 75.2759C37.5243 75.4955 37.6016 75.6693 37.6747 75.6621C37.7477 75.655 37.8251 75.8288 37.8466 76.0484C37.8681 76.268 37.9454 76.4418 38.0184 76.4347C38.0915 76.4275 38.1688 76.6014 38.1903 76.821C38.2118 77.0406 38.2892 77.2144 38.3622 77.2072C38.4353 77.2001 38.5067 77.314 38.5211 77.4604C38.5354 77.6068 38.6069 77.7208 38.6799 77.7136C38.753 77.7065 38.8362 77.9402 38.8649 78.233C38.8935 78.5258 38.9767 78.7595 39.0498 78.7523C39.1228 78.7452 39.2002 78.919 39.2217 79.1386C39.2432 79.3582 39.3205 79.532 39.3936 79.5249C39.4666 79.5177 39.544 79.6916 39.5655 79.9112C39.587 80.1308 39.6643 80.3046 39.7373 80.2974C39.8104 80.2903 39.8877 80.4641 39.9092 80.6837C39.9307 80.9033 40.0081 81.0771 40.0811 81.07C40.1542 81.0628 40.2315 81.2367 40.253 81.4563C40.2745 81.6759 40.3519 81.8497 40.4249 81.8425C40.4979 81.8354 40.5753 82.0092 40.5968 82.2288C40.6183 82.4484 40.6956 82.6222 40.7687 82.6151C40.8417 82.6079 40.9191 82.7818 40.9406 83.0014C40.9621 83.221 41.0394 83.3948 41.1125 83.3876C41.1855 83.3805 41.257 83.4944 41.2713 83.6408C41.2857 83.7872 41.3571 83.9012 41.4302 83.894C41.5032 83.8869 41.5806 84.0607 41.6021 84.2803C41.6236 84.4999 41.7009 84.6737 41.774 84.6666C41.847 84.6594 41.9244 84.8332 41.9459 85.0528C41.9674 85.2724 42.0447 85.4463 42.1177 85.4391C42.1908 85.432 42.2681 85.6058 42.2896 85.8254C42.3111 86.045 42.3885 86.2188 42.4615 86.2117C42.5346 86.2045 42.6119 86.3783 42.6334 86.5979C42.6549 86.8175 42.7323 86.9914 42.8053 86.9842C42.8783 86.9771 42.9557 87.1509 42.9772 87.3705C42.9987 87.5901 43.076 87.7639 43.1491 87.7568C43.2221 87.7496 43.2995 87.9234 43.321 88.143C43.3425 88.3626 43.4198 88.5365 43.4929 88.5293C43.5659 88.5222 43.6432 88.696 43.6647 88.9156C43.6863 89.1352 43.7636 89.309 43.8366 89.3019C43.9097 89.2947 43.987 89.4685 44.0085 89.6881C44.03 89.9077 44.1074 90.0816 44.1804 90.0744C44.2535 90.0673 44.3308 90.2411 44.3523 90.4607C44.3738 90.6803 44.4512 90.8541 44.5242 90.847C44.5972 90.8398 44.6746 91.0136 44.6961 91.2332C44.7176 91.4528 44.7949 91.6267 44.868 91.6195C44.941 91.6124 45.0125 91.7263 45.0268 91.8727C45.0412 92.0191 45.1127 92.133 45.1857 92.1259C45.2587 92.1187 45.3361 92.2926 45.3576 92.5122C45.3791 92.7318 45.4564 92.9056 45.5295 92.8984C45.6025 92.8913 45.6799 93.0651 45.7014 93.2847C45.7229 93.5043 45.8002 93.6781 45.8733 93.671C45.9463 93.6638 46.0236 93.8377 46.0451 94.0573C46.0666 94.2769 46.144 94.4507 46.217 94.4435C46.2901 94.4364 46.3674 94.6102 46.3889 94.8298C46.4104 95.0494 46.4878 95.2232 46.5608 95.2161C46.6339 95.2089 46.7112 95.3828 46.7327 95.6024C46.7542 95.822 46.8316 95.9958 46.9046 95.9886C46.9776 95.9815 47.055 96.1553 47.0765 96.3749C47.098 96.5945 47.1753 96.7683 47.2484 96.7612C47.3214 96.754 47.3988 96.9279 47.4203 97.1475C47.4418 97.3671 47.5191 97.5409 47.5922 97.5337C47.6652 97.5266 47.7426 97.7004 47.7641 97.92C47.7856 98.1396 47.8629 98.3134 47.9359 98.3063C48.009 98.2991 48.0805 98.4131 48.0948 98.5595C48.1091 98.7059 48.1806 98.8198 48.2537 98.8127C48.3267 98.8055 48.4099 99.0392 48.4386 99.332C48.4672 99.6248 48.5505 99.8585 48.6235 99.8514C48.6965 99.8442 48.7739 100.018 48.7954 100.238C48.8169 100.457 48.8942 100.631 48.9673 100.624C49.0403 100.617 49.1177 100.791 49.1392 101.01C49.1607 101.23 49.238 101.404 49.3111 101.396C49.3841 101.389 49.4615 101.563 49.483 101.783C49.5045 102.002 49.5818 102.176 49.6548 102.169C49.7279 102.162 49.8052 102.336 49.8267 102.555C49.8482 102.775 49.9256 102.949 49.9986 102.942C50.0717 102.934 50.149 103.108 50.1705 103.328C50.192 103.547 50.2694 103.721 50.3424 103.714C50.4154 103.707 50.4928 103.881 50.5143 104.1C50.5358 104.32 50.6131 104.494 50.6862 104.487C50.7592 104.48 50.8366 104.653 50.8581 104.873C50.8796 105.093 50.9569 105.266 51.03 105.259C51.103 105.252 51.1804 105.426 51.2019 105.646C51.2234 105.865 51.3007 106.039 51.3737 106.032C51.4468 106.025 51.5241 106.198 51.5456 106.418C51.5671 106.638 51.6445 106.811 51.7175 106.804C51.7906 106.797 51.862 106.911 51.8764 107.058C51.8907 107.204 51.9622 107.318 52.0352 107.311C52.1083 107.304 52.1856 107.477 52.2071 107.697C52.2286 107.917 52.306 108.09 52.379 108.083C52.4521 108.076 52.5294 108.25 52.5509 108.47C52.5724 108.689 52.6498 108.863 52.7228 108.856C52.7958 108.849 52.8732 109.022 52.8947 109.242C52.9162 109.462 52.9935 109.636 53.0666 109.628C53.1396 109.621 53.217 109.795 53.2385 110.015C53.26 110.234 53.3373 110.408 53.4104 110.401C53.4834 110.394 53.5608 110.568 53.5823 110.787C53.6038 111.007 53.6811 111.181 53.7541 111.173C53.8272 111.166 53.8987 111.28 53.913 111.427C53.9273 111.573 53.9988 111.687 54.0719 111.68C54.1449 111.673 54.2222 111.847 54.2437 112.066C54.2653 112.286 54.3426 112.46 54.4156 112.452C54.4887 112.445 54.5602 112.559 54.5745 112.706C54.5888 112.852 54.6603 112.966 54.7334 112.959C54.8064 112.952 54.8779 113.066 54.8922 113.212C54.9066 113.358 54.978 113.472 55.0511 113.465C55.1241 113.458 55.2002 113.619 55.2201 113.822C55.2414 114.039 55.3737 114.26 55.5407 114.358C55.6971 114.449 55.8355 114.63 55.8483 114.76C55.861 114.891 55.9312 114.991 56.0042 114.984C56.0773 114.977 56.1475 115.078 56.1602 115.208C56.173 115.338 56.3114 115.519 56.4678 115.611C56.6242 115.702 56.7626 115.883 56.7753 116.013C56.7881 116.144 56.8583 116.244 56.9313 116.237C57.0044 116.23 57.0817 116.404 57.1032 116.623C57.1247 116.843 57.2021 117.017 57.2751 117.01C57.3481 117.003 57.4196 117.116 57.434 117.263C57.4483 117.409 57.5198 117.523 57.5928 117.516C57.6659 117.509 57.7374 117.623 57.7517 117.769C57.766 117.916 57.8375 118.03 57.9105 118.022C57.9836 118.015 58.0526 118.104 58.0638 118.218C58.0902 118.487 58.4413 118.777 58.7097 118.75C58.8244 118.739 58.9288 118.837 58.9415 118.967C58.9543 119.097 59.0927 119.278 59.2491 119.369C59.4055 119.461 59.5439 119.642 59.5566 119.772C59.5694 119.902 59.6396 120.003 59.7126 119.996C59.7857 119.989 59.8545 120.076 59.8657 120.19C59.8768 120.304 60.279 120.714 60.7595 121.103C61.2399 121.491 61.6393 121.873 61.6469 121.951C61.6686 122.172 64.1106 124.134 64.3369 124.112C64.4476 124.101 64.547 124.184 64.5581 124.298C64.5876 124.598 65.2487 125.097 65.5753 125.065C65.9066 125.033 66.2646 125.295 66.2935 125.59C66.3053 125.71 66.4266 125.788 66.5796 125.773C66.7257 125.759 66.851 125.807 66.8582 125.88C66.8654 125.953 66.9667 126.004 67.0836 125.993C67.2003 125.981 67.481 126.135 67.7071 126.335C67.9333 126.534 68.2497 126.685 68.4102 126.669C68.5708 126.653 68.8872 126.804 69.1133 127.003C69.3661 127.226 69.6574 127.353 69.8696 127.332C70.1262 127.307 70.2214 127.367 70.2408 127.565C70.2623 127.784 70.3555 127.822 70.7687 127.782C71.1183 127.747 71.3367 127.808 71.4881 127.98C71.6081 128.116 71.858 128.213 72.0454 128.194C72.2328 128.176 72.4827 128.272 72.6026 128.408C72.7304 128.554 72.9725 128.641 73.1892 128.62C73.3921 128.6 73.5642 128.643 73.5713 128.717C73.5785 128.79 73.7039 128.838 73.8499 128.824C73.996 128.809 74.1214 128.858 74.1286 128.931C74.1357 129.004 74.3806 129.04 74.6728 129.012C74.9649 128.983 75.2099 129.02 75.217 129.093C75.2242 129.166 75.3496 129.214 75.4956 129.2C75.6417 129.186 75.7671 129.234 75.7743 129.307C75.7814 129.38 76.0132 129.418 76.2891 129.391C76.6387 129.357 76.8571 129.417 77.0085 129.589C77.2332 129.845 77.7086 129.893 77.6856 129.657C77.6625 129.422 78.1379 129.47 78.3626 129.726C78.5369 129.924 78.7325 129.958 79.3476 129.898C79.7707 129.856 80.1209 129.882 80.128 129.956C80.1356 130.033 80.5837 130.046 81.2035 129.985C81.8232 129.924 82.2713 129.936 82.2789 130.014C82.2866 130.093 82.7789 130.099 83.4871 130.03C84.1953 129.961 84.6876 129.967 84.6953 130.046C84.7025 130.119 84.9474 130.156 85.2395 130.127C85.5317 130.099 85.7649 130.015 85.7577 129.942C85.7505 129.869 85.9837 129.786 86.2758 129.757C86.568 129.728 86.8129 129.765 86.8201 129.838C86.8275 129.914 87.2315 129.932 87.7627 129.88C88.2939 129.828 88.6867 129.732 88.6792 129.656C88.6595 129.454 90.4823 129.308 90.597 129.502C90.672 129.629 90.703 129.626 90.7519 129.487C90.7887 129.382 91.0736 129.287 91.466 129.249C91.8251 129.214 92.1131 129.125 92.1059 129.052C92.0988 128.979 92.3319 128.895 92.6241 128.867C92.9162 128.838 93.1494 128.755 93.1422 128.682C93.1344 128.601 93.7046 128.492 94.59 128.406C95.4754 128.319 96.0456 128.21 96.0377 128.129C96.0306 128.056 96.204 127.979 96.4231 127.957C96.6422 127.936 96.8156 127.858 96.8085 127.785C96.8013 127.712 97.0345 127.629 97.3266 127.6C97.6188 127.572 97.852 127.488 97.8448 127.415C97.8376 127.342 98.011 127.264 98.2302 127.243C98.4493 127.221 98.6227 127.144 98.6155 127.071C98.6084 126.998 98.7818 126.92 99.0009 126.899C99.22 126.877 99.3934 126.8 99.3862 126.727C99.3791 126.653 99.5525 126.576 99.7716 126.555C99.9907 126.533 100.164 126.456 100.157 126.382C100.15 126.309 100.323 126.232 100.542 126.21C100.761 126.189 100.935 126.111 100.928 126.038C100.921 125.965 101.034 125.893 101.18 125.879C101.326 125.865 101.44 125.793 101.433 125.72C101.426 125.647 101.599 125.569 101.818 125.548C102.037 125.526 102.211 125.449 102.204 125.376C102.196 125.303 102.37 125.225 102.589 125.204C102.808 125.182 102.981 125.105 102.974 125.032C102.967 124.958 103.141 124.881 103.36 124.86C103.579 124.838 103.752 124.761 103.745 124.687C103.738 124.614 103.851 124.543 103.998 124.528C104.144 124.514 104.257 124.442 104.25 124.369C104.243 124.296 104.357 124.224 104.503 124.21C104.649 124.196 104.762 124.124 104.755 124.051C104.748 123.978 104.908 123.902 105.111 123.882C105.328 123.861 105.549 123.728 105.646 123.561C105.737 123.404 105.917 123.265 106.047 123.253C106.177 123.24 106.278 123.17 106.271 123.096C106.263 123.023 106.377 122.952 106.523 122.937C106.669 122.923 106.783 122.851 106.776 122.778C106.769 122.705 106.869 122.635 106.999 122.622C107.129 122.609 107.31 122.471 107.401 122.314C107.492 122.157 107.672 122.019 107.802 122.006C107.932 121.993 108.033 121.923 108.026 121.85C108.018 121.777 108.132 121.705 108.278 121.691C108.424 121.676 108.538 121.605 108.531 121.532C108.524 121.458 108.697 121.381 108.916 121.359C109.135 121.338 109.309 121.261 109.301 121.187C109.294 121.114 109.408 121.043 109.554 121.028C109.7 121.014 109.814 120.942 109.807 120.869C109.799 120.796 109.9 120.726 110.03 120.713C110.16 120.7 110.34 120.562 110.431 120.405C110.522 120.248 110.679 120.112 110.78 120.102C110.88 120.092 111.113 119.888 111.296 119.648C111.479 119.409 111.725 119.203 111.841 119.192C111.958 119.18 112.048 119.111 112.041 119.038C112.033 118.965 112.134 118.894 112.264 118.882C112.394 118.869 112.574 118.73 112.665 118.574C112.756 118.417 112.911 118.281 113.009 118.271C113.108 118.262 113.449 117.926 113.769 117.525C114.089 117.124 114.444 116.787 114.559 116.776C114.673 116.765 114.761 116.696 114.754 116.622C114.746 116.549 114.834 116.48 114.947 116.469C115.061 116.458 115.47 116.055 115.858 115.574C116.245 115.092 116.627 114.692 116.708 114.684C116.927 114.663 117.445 113.983 117.422 113.747C117.411 113.634 117.493 113.533 117.605 113.522C117.837 113.499 118.647 112.564 118.625 112.344C118.617 112.264 118.935 111.811 119.331 111.337C119.727 110.863 120.044 110.408 120.036 110.326C120.028 110.244 120.292 109.856 120.622 109.464C120.953 109.072 121.214 108.657 121.202 108.542C121.191 108.428 121.242 108.328 121.315 108.321C121.388 108.314 121.436 108.188 121.421 108.042C121.407 107.896 121.455 107.77 121.528 107.763C121.601 107.756 121.651 107.643 121.638 107.513C121.625 107.383 121.726 107.178 121.861 107.058C121.997 106.938 122.1 106.758 122.09 106.657C122.08 106.556 122.235 106.288 122.434 106.062C122.633 105.835 122.787 105.554 122.775 105.437C122.764 105.32 122.814 105.218 122.887 105.211C122.96 105.204 123.008 105.078 122.994 104.932C122.98 104.785 123.028 104.66 123.101 104.653C123.174 104.646 123.223 104.533 123.21 104.403C123.198 104.273 123.298 104.068 123.434 103.948C123.579 103.82 123.666 103.578 123.645 103.36C123.625 103.157 123.668 102.985 123.741 102.978C123.814 102.97 123.862 102.845 123.848 102.698C123.834 102.552 123.882 102.426 123.955 102.419C124.028 102.412 124.076 102.286 124.061 102.14C124.047 101.994 124.095 101.868 124.168 101.861C124.241 101.854 124.289 101.728 124.275 101.582C124.261 101.435 124.309 101.31 124.382 101.302C124.455 101.295 124.497 101.11 124.475 100.89C124.454 100.671 124.496 100.485 124.569 100.478C124.642 100.471 124.684 100.285 124.663 100.066C124.641 99.846 124.683 99.6605 124.756 99.6533C124.829 99.6462 124.877 99.5205 124.863 99.3741C124.849 99.2277 124.897 99.1021 124.97 99.0949C125.043 99.0878 125.085 98.9023 125.064 98.6827C125.042 98.4631 125.084 98.2775 125.157 98.2704C125.23 98.2632 125.272 98.0777 125.251 97.8581C125.229 97.6385 125.272 97.453 125.345 97.4458C125.418 97.4387 125.466 97.313 125.451 97.1666C125.437 97.0202 125.485 96.8946 125.558 96.8875C125.631 96.8803 125.673 96.6948 125.652 96.4752C125.63 96.2556 125.673 96.07 125.746 96.0629C125.819 96.0557 125.855 95.8103 125.826 95.5175C125.798 95.2247 125.834 94.9793 125.907 94.9721C125.98 94.965 126.01 94.6597 125.975 94.2937C125.939 93.9277 125.969 93.6224 126.042 93.6152C126.115 93.6081 126.157 93.4225 126.136 93.2029C126.114 92.9833 126.157 92.7978 126.23 92.7907C126.303 92.7835 126.339 92.5381 126.31 92.2453C126.282 91.9525 126.318 91.7071 126.391 91.6999C126.464 91.6928 126.494 91.3875 126.459 91.0215C126.423 90.6555 126.453 90.3501 126.526 90.343C126.602 90.3356 126.62 89.9307 126.568 89.3983C126.516 88.866 126.534 88.4611 126.609 88.4537C126.682 88.4465 126.725 88.261 126.703 88.0414C126.682 87.8218 126.724 87.6363 126.797 87.6291C126.87 87.622 126.918 87.4964 126.904 87.35C126.889 87.2036 126.818 87.0896 126.745 87.0968C126.672 87.1039 126.6 86.99 126.586 86.8436C126.572 86.6972 126.62 86.5715 126.693 86.5644C126.766 86.5572 126.808 86.3717 126.786 86.1521C126.765 85.9325 126.807 85.747 126.88 85.7398C126.959 85.7321 126.965 85.2425 126.897 84.5401C126.816 83.7209 126.829 83.3243 126.939 83.2594C127.066 83.1844 127.063 83.1533 126.924 83.1042C126.718 83.0315 126.614 82.2723 126.807 82.2534C126.884 82.2459 126.896 81.7968 126.835 81.1757C126.775 80.5545 126.787 80.1055 126.864 80.098C126.944 80.0901 126.94 79.5083 126.853 78.6209C126.766 77.7336 126.762 77.1518 126.843 77.1439C126.916 77.1368 126.946 76.8315 126.91 76.4655C126.875 76.0994 126.786 75.8058 126.713 75.813C126.639 75.8201 126.568 75.7062 126.554 75.5598C126.539 75.4134 126.587 75.2878 126.66 75.2806C126.742 75.2727 126.732 74.6465 126.637 73.6705C126.541 72.6945 126.532 72.0683 126.613 72.0604C126.692 72.0527 126.698 71.5594 126.629 70.8496C126.559 70.1398 126.566 69.6464 126.644 69.6387C126.717 69.6316 126.765 69.506 126.751 69.3596C126.737 69.2131 126.665 69.0992 126.592 69.1064C126.519 69.1135 126.442 68.9397 126.42 68.7201C126.399 68.5005 126.441 68.315 126.514 68.3078C126.591 68.3002 126.603 67.8512 126.543 67.2301C126.482 66.6089 126.494 66.1599 126.571 66.1523C126.644 66.1452 126.675 65.8399 126.639 65.4739C126.603 65.1079 126.633 64.8026 126.706 64.7954C126.779 64.7883 126.81 64.4829 126.774 64.1169C126.738 63.7509 126.769 63.4456 126.842 63.4385C126.916 63.4312 126.94 63.0705 126.896 62.6269C126.853 62.1833 126.877 61.8226 126.951 61.8154C127.024 61.8082 127.06 61.5628 127.032 61.27C127.003 60.9772 127.039 60.7318 127.112 60.7246C127.185 60.7175 127.216 60.4122 127.18 60.0462C127.144 59.6802 127.175 59.3748 127.248 59.3677C127.321 59.3605 127.357 59.1151 127.328 58.8223C127.3 58.5295 127.336 58.2841 127.409 58.277C127.482 58.2698 127.524 58.0843 127.503 57.8647C127.481 57.6451 127.523 57.4595 127.596 57.4524C127.669 57.4452 127.706 57.1998 127.677 56.907C127.648 56.6142 127.685 56.3688 127.758 56.3616C127.831 56.3545 127.867 56.1091 127.838 55.8163C127.81 55.5235 127.846 55.2781 127.919 55.2709C127.992 55.2638 128.034 55.0782 128.013 54.8586C127.991 54.639 128.033 54.4535 128.106 54.4463C128.179 54.4392 128.222 54.2537 128.2 54.0341C128.179 53.8145 128.221 53.6289 128.294 53.6218C128.367 53.6146 128.415 53.489 128.401 53.3426C128.386 53.1962 128.434 53.0706 128.507 53.0634C128.58 53.0563 128.617 52.8108 128.588 52.518C128.559 52.2252 128.596 51.9798 128.669 51.9727C128.742 51.9655 128.784 51.78 128.762 51.5604C128.741 51.3408 128.783 51.1553 128.856 51.1481C128.929 51.141 128.977 51.0153 128.963 50.8689C128.948 50.7225 128.997 50.5969 129.07 50.5897C129.143 50.5826 129.185 50.3971 129.163 50.1775C129.142 49.9579 129.184 49.7723 129.257 49.7652C129.33 49.758 129.378 49.6324 129.364 49.486C129.349 49.3396 129.397 49.214 129.47 49.2068C129.543 49.1997 129.592 49.074 129.577 48.9276C129.563 48.7812 129.611 48.6556 129.684 48.6484C129.757 48.6413 129.799 48.4558 129.778 48.2362C129.756 48.0166 129.798 47.831 129.871 47.8239C129.944 47.8167 129.992 47.6911 129.978 47.5447C129.964 47.3983 130.012 47.2727 130.085 47.2655C130.158 47.2584 130.206 47.1327 130.192 46.9863C130.177 46.8399 130.225 46.7143 130.298 46.7071C130.371 46.7 130.419 46.5743 130.405 46.4279C130.391 46.2815 130.439 46.1559 130.512 46.1488C130.585 46.1416 130.633 46.016 130.618 45.8696C130.604 45.7232 130.652 45.5975 130.725 45.5904C130.798 45.5832 130.84 45.3977 130.819 45.1781C130.797 44.9585 130.84 44.773 130.913 44.7658C130.986 44.7587 131.034 44.633 131.019 44.4866C131.005 44.3402 131.053 44.2146 131.126 44.2075C131.199 44.2003 131.241 44.0148 131.22 43.7952C131.198 43.5756 131.24 43.39 131.314 43.3829C131.387 43.3757 131.435 43.2501 131.42 43.1037C131.406 42.9573 131.454 42.8317 131.527 42.8245C131.6 42.8174 131.642 42.6318 131.621 42.4122C131.599 42.1926 131.641 42.0071 131.714 42C131.787 41.9928 131.83 41.8073 131.808 41.5877C131.787 41.3681 131.829 41.1826 131.902 41.1754C131.975 41.1683 132.017 40.9827 131.996 40.7631C131.974 40.5435 132.016 40.358 132.089 40.3508C132.162 40.3437 132.188 39.9927 132.147 39.5687C132.086 38.9522 132.015 38.7665 131.787 38.6336C131.631 38.5424 131.492 38.3613 131.479 38.231C131.467 38.1008 131.361 38.0035 131.244 38.015C131.127 38.0264 130.847 37.8725 130.62 37.6729C130.386 37.4665 130.073 37.3234 129.893 37.341C129.72 37.358 129.48 37.2606 129.36 37.1245C129.197 36.9393 128.99 36.892 128.537 36.9363C128.084 36.9807 127.877 36.9333 127.714 36.7481C127.49 36.4925 127.014 36.4447 127.037 36.68C127.045 36.7533 126.811 36.8365 126.519 36.8651C126.227 36.8938 125.982 36.8573 125.975 36.7841C125.968 36.7081 125.564 36.69 125.032 36.742C124.501 36.794 124.108 36.8901 124.116 36.9661C124.123 37.0393 123.89 37.1226 123.598 37.1512C123.305 37.1798 123.072 37.2631 123.079 37.3363C123.087 37.4095 122.794 37.4986 122.428 37.5344C122.063 37.5701 121.77 37.6593 121.778 37.7325C121.785 37.8057 121.552 37.889 121.259 37.9176C120.967 37.9462 120.734 38.0295 120.741 38.1027C120.748 38.1759 120.635 38.2475 120.489 38.2618C120.343 38.2761 120.229 38.3477 120.236 38.4209C120.243 38.4941 120.13 38.5657 119.984 38.58C119.837 38.5943 119.724 38.6659 119.731 38.7391C119.738 38.8123 119.624 38.8839 119.478 38.8982C119.332 38.9125 119.219 38.9841 119.226 39.0573C119.233 39.1305 119.119 39.2021 118.973 39.2164C118.827 39.2307 118.714 39.3023 118.721 39.3755C118.728 39.4487 118.614 39.5203 118.468 39.5346C118.322 39.5489 118.208 39.6205 118.216 39.6937C118.223 39.7669 118.136 39.8359 118.022 39.847C117.908 39.8581 117.499 40.261 117.112 40.7423C116.724 41.2236 116.34 41.624 116.258 41.6321C116.063 41.6512 115.762 42.021 115.781 42.2172C115.789 42.3013 115.58 42.6238 115.315 42.9337C115.05 43.2437 114.841 43.5678 114.849 43.6539C114.858 43.7401 114.702 43.996 114.503 44.2226C114.304 44.4491 114.149 44.7172 114.159 44.8179C114.169 44.9188 114.066 45.0994 113.93 45.2192C113.794 45.3391 113.694 45.5436 113.706 45.6739C113.719 45.8041 113.67 45.9165 113.597 45.9237C113.524 45.9309 113.476 46.0565 113.49 46.2029C113.504 46.3493 113.456 46.4749 113.383 46.4821C113.31 46.4892 113.262 46.6149 113.277 46.7613C113.291 46.9077 113.243 47.0333 113.17 47.0404C113.097 47.0476 113.049 47.1732 113.063 47.3196C113.077 47.466 113.029 47.5917 112.956 47.5988C112.883 47.606 112.841 47.7915 112.863 48.0111C112.884 48.2307 112.842 48.4162 112.769 48.4234C112.696 48.4305 112.648 48.5562 112.662 48.7026C112.677 48.849 112.628 48.9746 112.555 48.9818C112.482 48.9889 112.446 49.2343 112.475 49.5271C112.503 49.8199 112.467 50.0653 112.394 50.0725C112.321 50.0796 112.285 50.3251 112.313 50.6179C112.342 50.9107 112.306 51.1561 112.233 51.1632C112.16 51.1704 112.112 51.296 112.126 51.4424C112.14 51.5888 112.092 51.7145 112.019 51.7216C111.943 51.729 111.926 52.1339 111.978 52.6663C112.03 53.1986 112.012 53.6035 111.936 53.6109C111.863 53.6181 111.827 53.8635 111.855 54.1563C111.884 54.4491 111.848 54.6945 111.775 54.7017C111.702 54.7088 111.671 55.0141 111.707 55.3801C111.743 55.7461 111.713 56.0514 111.639 56.0586C111.566 56.0657 111.524 56.2513 111.546 56.4709C111.567 56.6905 111.525 56.876 111.452 56.8831C111.379 56.8903 111.343 57.1357 111.371 57.4285C111.4 57.7213 111.364 57.9667 111.291 57.9739C111.218 57.981 111.187 58.2863 111.223 58.6523C111.259 59.0183 111.228 59.3237 111.155 59.3308C111.082 59.338 111.04 59.5235 111.062 59.7431C111.083 59.9627 111.041 60.1482 110.968 60.1554C110.895 60.1625 110.844 60.2609 110.855 60.374C110.866 60.4871 110.74 60.745 110.575 60.9469C110.308 61.2718 110.249 61.2935 110.057 61.1355C109.937 61.0372 109.831 60.8628 109.819 60.7477C109.808 60.6327 109.739 60.5444 109.666 60.5516C109.593 60.5587 109.51 60.325 109.481 60.0322C109.453 59.7394 109.369 59.5057 109.296 59.5128C109.223 59.52 109.14 59.2863 109.111 58.9935C109.083 58.7007 108.999 58.4669 108.926 58.4741C108.853 58.4812 108.782 58.3673 108.768 58.2209C108.753 58.0745 108.682 57.9606 108.609 57.9677C108.536 57.9749 108.452 57.7412 108.424 57.4484C108.395 57.1556 108.312 56.9218 108.239 56.929C108.166 56.9361 108.088 56.7623 108.067 56.5427C108.045 56.3231 107.968 56.1493 107.895 56.1564C107.822 56.1636 107.751 56.0497 107.736 55.9033C107.722 55.7569 107.65 55.6429 107.577 55.6501C107.504 55.6572 107.427 55.4834 107.405 55.2638C107.384 55.0442 107.307 54.8704 107.234 54.8775C107.161 54.8847 107.083 54.7109 107.062 54.4913C107.04 54.2717 106.963 54.0978 106.89 54.105C106.817 54.1121 106.739 53.9383 106.718 53.7187C106.696 53.4991 106.619 53.3253 106.546 53.3324C106.473 53.3396 106.396 53.1658 106.374 52.9462C106.353 52.7266 106.275 52.5527 106.202 52.5599C106.129 52.567 106.052 52.3932 106.03 52.1736C106.009 51.954 105.931 51.7802 105.858 51.7873C105.785 51.7945 105.708 51.6207 105.687 51.4011C105.665 51.1815 105.588 51.0076 105.515 51.0148C105.442 51.0219 105.364 50.8481 105.343 50.6285C105.321 50.4089 105.244 50.2351 105.171 50.2422C105.098 50.2494 105.021 50.0756 104.999 49.856C104.977 49.6363 104.9 49.4625 104.827 49.4697C104.754 49.4768 104.677 49.303 104.655 49.0834C104.634 48.8638 104.556 48.69 104.483 48.6971C104.41 48.7043 104.339 48.5903 104.324 48.4439C104.31 48.2975 104.239 48.1836 104.166 48.1908C104.093 48.1979 104.015 48.0241 103.994 47.8045C103.972 47.5849 103.895 47.4111 103.822 47.4182C103.749 47.4254 103.671 47.2515 103.65 47.0319C103.628 46.8123 103.551 46.6385 103.478 46.6457C103.405 46.6528 103.328 46.479 103.306 46.2594C103.285 46.0398 103.207 45.866 103.134 45.8731C103.061 45.8803 102.984 45.7064 102.962 45.4868C102.941 45.2672 102.864 45.0934 102.79 45.1006C102.717 45.1077 102.64 44.9339 102.619 44.7143C102.597 44.4947 102.52 44.3209 102.447 44.328C102.374 44.3352 102.296 44.1613 102.275 43.9417C102.253 43.7221 102.176 43.5483 102.103 43.5555C102.03 43.5626 101.953 43.3888 101.931 43.1692C101.91 42.9496 101.832 42.7758 101.759 42.7829C101.686 42.7901 101.609 42.6162 101.587 42.3966C101.566 42.177 101.488 42.0032 101.415 42.0104C101.342 42.0175 101.265 41.8437 101.243 41.6241C101.222 41.4045 101.145 41.2307 101.072 41.2378C100.999 41.245 100.927 41.131 100.913 40.9846C100.898 40.8382 100.827 40.7243 100.754 40.7314C100.681 40.7386 100.603 40.5648 100.582 40.3452C100.56 40.1256 100.483 39.9517 100.41 39.9589C100.337 39.966 100.26 39.7922 100.238 39.5726C100.217 39.353 100.139 39.1792 100.066 39.1863C99.9933 39.1935 99.9159 39.0197 99.8944 38.8001C99.8729 38.5805 99.7956 38.4066 99.7225 38.4138C99.6495 38.4209 99.5721 38.2471 99.5506 38.0275C99.5291 37.8079 99.4518 37.6341 99.3788 37.6412C99.3057 37.6484 99.2284 37.4746 99.2069 37.255C99.1854 37.0354 99.108 36.8615 99.035 36.8687C98.9619 36.8758 98.8846 36.702 98.8631 36.4824C98.8416 36.2628 98.7642 36.089 98.6912 36.0961C98.6182 36.1033 98.5408 35.9295 98.5193 35.7099C98.4978 35.4903 98.4205 35.3164 98.3474 35.3236C98.2744 35.3307 98.197 35.1569 98.1755 34.9373C98.154 34.7177 98.0767 34.5439 98.0036 34.551C97.9306 34.5582 97.8591 34.4443 97.8448 34.2978C97.8304 34.1514 97.759 34.0375 97.6859 34.0447C97.6129 34.0518 97.5355 33.878 97.514 33.6584C97.4925 33.4388 97.4152 33.265 97.3421 33.2721C97.2691 33.2793 97.1917 33.1054 97.1702 32.8858C97.1487 32.6662 97.0714 32.4924 96.9984 32.4996C96.9253 32.5067 96.848 32.3329 96.8265 32.1133C96.805 31.8937 96.7276 31.7199 96.6546 31.727C96.5815 31.7342 96.5042 31.5603 96.4827 31.3407C96.4612 31.1211 96.3838 30.9473 96.3108 30.9545C96.2378 30.9616 96.1604 30.7878 96.1389 30.5682C96.1174 30.3486 96.0401 30.1748 95.967 30.1819C95.894 30.1891 95.8166 30.0152 95.7951 29.7956C95.7736 29.576 95.6963 29.4022 95.6232 29.4094C95.5502 29.4165 95.4728 29.2427 95.4513 29.0231C95.4298 28.8035 95.3525 28.6297 95.2795 28.6368C95.2064 28.644 95.1291 28.4701 95.1076 28.2505C95.0861 28.0309 95.0087 27.8571 94.9357 27.8643C94.8626 27.8714 94.7853 27.6976 94.7638 27.478C94.7423 27.2584 94.6649 27.0846 94.5919 27.0917C94.5189 27.0989 94.4474 26.9849 94.433 26.8385C94.4187 26.6921 94.3472 26.5782 94.2742 26.5853C94.2011 26.5925 94.1238 26.4187 94.1023 26.1991C94.0808 25.9795 94.0034 25.8056 93.9304 25.8128C93.8574 25.8199 93.78 25.6461 93.7585 25.4265C93.737 25.2069 93.6597 25.0331 93.5866 25.0402C93.5136 25.0474 93.4362 24.8736 93.4147 24.654C93.3932 24.4344 93.3159 24.2605 93.2428 24.2677C93.1698 24.2748 93.0924 24.101 93.0709 23.8814C93.0494 23.6618 92.9721 23.488 92.8991 23.4951C92.826 23.5023 92.7487 23.3285 92.7272 23.1089C92.7057 22.8893 92.6283 22.7154 92.5553 22.7226C92.4822 22.7297 92.4049 22.5559 92.3834 22.3363C92.3619 22.1167 92.2845 21.9429 92.2115 21.95C92.1385 21.9572 92.0611 21.7834 92.0396 21.5638C92.0181 21.3442 91.9408 21.1703 91.8677 21.1775C91.7947 21.1846 91.7173 21.0108 91.6958 20.7912C91.6743 20.5716 91.597 20.3978 91.5239 20.4049C91.4509 20.4121 91.3736 20.2383 91.3521 20.0187C91.3306 19.7991 91.2532 19.6252 91.1802 19.6324C91.1071 19.6395 91.0356 19.5256 91.0213 19.3792C91.007 19.2328 90.9355 19.1189 90.8624 19.126C90.7894 19.1332 90.7121 18.9594 90.6906 18.7397C90.669 18.5201 90.5917 18.3463 90.5187 18.3535C90.4456 18.3606 90.3683 18.1868 90.3468 17.9672C90.3253 17.7476 90.2479 17.5738 90.1749 17.5809C90.1018 17.5881 90.0245 17.4143 90.003 17.1946C89.9815 16.975 89.9041 16.8012 89.8311 16.8084C89.7581 16.8155 89.6807 16.6417 89.6592 16.4221C89.6377 16.2025 89.5604 16.0287 89.4873 16.0358C89.4143 16.043 89.3382 15.8823 89.3183 15.679C89.297 15.4618 89.1646 15.2406 88.9977 15.1432C88.8413 15.0519 88.7029 14.8708 88.6901 14.7405C88.6774 14.6103 88.6072 14.5096 88.5342 14.5167C88.4611 14.5239 88.3922 14.4356 88.3809 14.3206C88.357 14.0764 88.0115 13.7617 87.7911 13.7833C87.7071 13.7915 87.3853 13.5811 87.0759 13.3158C86.7665 13.0505 86.4323 12.8414 86.3331 12.8511C86.2339 12.8608 86.055 12.7574 85.9353 12.6213C85.8154 12.4848 85.5654 12.3888 85.3781 12.4071C85.1907 12.4254 84.9407 12.3294 84.8208 12.1929C84.6465 11.9946 84.4509 11.9604 83.8358 12.0206C83.4127 12.062 83.0625 12.036 83.0553 11.9627C83.0482 11.8895 82.8033 11.853 82.5111 11.8816C82.219 11.9102 81.9858 11.9935 81.9929 12.0667C82.0001 12.1399 81.7072 12.229 81.342 12.2648C80.9768 12.3005 80.6839 12.3897 80.691 12.4629C80.6982 12.5361 80.465 12.6194 80.1729 12.648C79.8807 12.6766 79.6476 12.7599 79.6547 12.8331C79.6619 12.9063 79.5482 12.9779 79.4021 12.9922C79.2561 13.0065 79.1424 13.0781 79.1496 13.1513C79.1568 13.2245 79.0431 13.2961 78.897 13.3104C78.7509 13.3247 78.6373 13.3963 78.6444 13.4695C78.6516 13.5427 78.538 13.6143 78.3919 13.6286C78.2458 13.6429 78.1322 13.7145 78.1393 13.7877C78.1465 13.8609 78.0607 13.9297 77.9488 13.9407C77.7002 13.965 76.9081 14.9056 76.9318 15.1483C76.9412 15.2444 76.8379 15.421 76.7021 15.5408C76.5664 15.6606 76.4644 15.852 76.4756 15.9661C76.4868 16.0801 76.3849 16.2715 76.2491 16.3914C76.1042 16.5194 76.0173 16.7619 76.0385 16.9791C76.0584 17.1825 76.015 17.3549 75.9419 17.362C75.8689 17.3692 75.8209 17.4948 75.8352 17.6412C75.8495 17.7876 75.8015 17.9132 75.7285 17.9204C75.6546 17.9276 75.6304 18.2883 75.6738 18.7319C75.7173 19.1755 75.6931 19.5363 75.6192 19.5435C75.5434 19.5509 75.5255 19.9558 75.5776 20.4881C75.6298 21.0205 75.7258 21.4142 75.8017 21.4068C75.8747 21.3996 75.952 21.5735 75.9735 21.7931C75.995 22.0127 76.0724 22.1865 76.1454 22.1793C76.2185 22.1722 76.2958 22.346 76.3173 22.5656C76.3388 22.7852 76.4162 22.959 76.4892 22.9519C76.5623 22.9447 76.6396 23.1186 76.6611 23.3382C76.6826 23.5578 76.76 23.7316 76.833 23.7244C76.906 23.7173 76.9834 23.8911 77.0049 24.1107C77.0264 24.3303 77.1037 24.5041 77.1768 24.497C77.2498 24.4898 77.3272 24.6637 77.3487 24.8833C77.3702 25.1029 77.4475 25.2767 77.5206 25.2695C77.5936 25.2624 77.6651 25.3763 77.6794 25.5227C77.6938 25.6691 77.7652 25.7831 77.8383 25.7759C77.9113 25.7688 77.9887 25.9426 78.0102 26.1622C78.0317 26.3818 78.109 26.5556 78.1821 26.5485C78.2551 26.5413 78.3324 26.7151 78.3539 26.9347C78.3754 27.1543 78.4528 27.3282 78.5258 27.321C78.5989 27.3139 78.6762 27.4877 78.6977 27.7073C78.7192 27.9269 78.7966 28.1007 78.8696 28.0936C78.9427 28.0864 79.02 28.2602 79.0415 28.4798C79.063 28.6994 79.1404 28.8733 79.2134 28.8661C79.2864 28.859 79.3638 29.0328 79.3853 29.2524C79.4068 29.472 79.4841 29.6458 79.5572 29.6387C79.6302 29.6315 79.7076 29.8053 79.7291 30.0249C79.7506 30.2445 79.8279 30.4184 79.901 30.4112C79.974 30.4041 80.0513 30.5779 80.0728 30.7975C80.0943 31.0171 80.1717 31.1909 80.2447 31.1838C80.3178 31.1766 80.3951 31.3504 80.4166 31.57C80.4381 31.7896 80.5155 31.9635 80.5885 31.9563C80.6616 31.9492 80.7389 32.123 80.7604 32.3426C80.7819 32.5622 80.8593 32.736 80.9323 32.7289C81.0053 32.7217 81.0827 32.8955 81.1042 33.1151C81.1257 33.3347 81.203 33.5086 81.2761 33.5014C81.3491 33.4943 81.4206 33.6082 81.4349 33.7546C81.4493 33.901 81.5208 34.0149 81.5938 34.0078C81.6668 34.0006 81.7442 34.1745 81.7657 34.3941C81.7872 34.6137 81.8645 34.7875 81.9376 34.7803C82.0106 34.7732 82.088 34.947 82.1095 35.1666C82.131 35.3862 82.2083 35.56 82.2813 35.5529C82.3544 35.5457 82.4317 35.7196 82.4532 35.9392C82.4747 36.1588 82.5521 36.3326 82.6251 36.3254C82.6982 36.3183 82.7755 36.4921 82.797 36.7117C82.8185 36.9313 82.8959 37.1051 82.9689 37.098C83.042 37.0908 83.1193 37.2647 83.1408 37.4843C83.1623 37.7039 83.2397 37.8777 83.3127 37.8705C83.3857 37.8634 83.4631 38.0372 83.4846 38.2568C83.5061 38.4764 83.5834 38.6502 83.6565 38.6431C83.7295 38.6359 83.8069 38.8098 83.8284 39.0294C83.8499 39.249 83.9272 39.4228 84.0003 39.4156C84.0733 39.4085 84.1507 39.5823 84.1722 39.8019C84.1937 40.0215 84.271 40.1953 84.344 40.1882C84.4171 40.181 84.4944 40.3549 84.5159 40.5745C84.5374 40.7941 84.6148 40.9679 84.6878 40.9607C84.7609 40.9536 84.8323 41.0675 84.8467 41.2139C84.861 41.3603 84.9325 41.4743 85.0055 41.4671C85.0786 41.46 85.1559 41.6338 85.1774 41.8534C85.1989 42.073 85.2763 42.2468 85.3493 42.2397C85.4223 42.2325 85.4997 42.4063 85.5212 42.6259C85.5427 42.8455 85.6201 43.0194 85.6931 43.0122C85.7661 43.0051 85.8435 43.1789 85.865 43.3985C85.8865 43.6181 85.9638 43.7919 86.0369 43.7848C86.1099 43.7776 86.1873 43.9514 86.2088 44.171C86.2303 44.3906 86.3076 44.5645 86.3807 44.5573C86.4537 44.5502 86.531 44.724 86.5525 44.9436C86.574 45.1632 86.6514 45.337 86.7244 45.3299C86.7975 45.3227 86.8748 45.4965 86.8963 45.7161C86.9178 45.9357 86.9952 46.1096 87.0682 46.1024C87.1413 46.0953 87.2186 46.2691 87.2401 46.4887C87.2616 46.7083 87.339 46.8821 87.412 46.875C87.485 46.8678 87.5624 47.0416 87.5839 47.2612C87.6054 47.4808 87.6827 47.6547 87.7558 47.6475C87.8288 47.6404 87.9003 47.7543 87.9146 47.9007C87.929 48.0471 88.0005 48.161 88.0735 48.1539C88.1465 48.1467 88.2239 48.3205 88.2454 48.5401C88.2669 48.7598 88.3442 48.9336 88.4173 48.9264C88.4903 48.9193 88.5677 49.0931 88.5892 49.3127C88.6107 49.5323 88.688 49.7061 88.7611 49.699C88.8341 49.6918 88.9114 49.8656 88.9329 50.0853C88.9544 50.3049 89.0318 50.4787 89.1048 50.4715C89.1779 50.4644 89.2552 50.6382 89.2767 50.8578C89.2982 51.0774 89.3756 51.2512 89.4486 51.2441C89.5217 51.2369 89.599 51.4108 89.6205 51.6304C89.642 51.85 89.7194 52.0238 89.7924 52.0166C89.8654 52.0095 89.9428 52.1833 89.9643 52.4029C89.9858 52.6225 90.0631 52.7963 90.1362 52.7892C90.2092 52.782 90.2866 52.9559 90.3081 53.1755C90.3296 53.3951 90.4069 53.5689 90.48 53.5617C90.553 53.5546 90.6303 53.7284 90.6518 53.948C90.6733 54.1676 90.7507 54.3414 90.8237 54.3343C90.8968 54.3271 90.9741 54.501 90.9956 54.7206C91.0171 54.9402 91.0945 55.114 91.1675 55.1068C91.2406 55.0997 91.3179 55.2735 91.3394 55.4931C91.3609 55.7127 91.4383 55.8865 91.5113 55.8794C91.5843 55.8722 91.6558 55.9862 91.6702 56.1326C91.6845 56.279 91.756 56.3929 91.829 56.3857C91.902 56.3786 91.9794 56.5524 92.0009 56.772C92.0224 56.9916 92.0998 57.1654 92.1728 57.1583C92.2458 57.1511 92.3232 57.325 92.3447 57.5446C92.3662 57.7642 92.4435 57.938 92.5166 57.9308C92.7374 57.9092 92.758 58.8495 92.5424 59.1125C92.397 59.2899 92.3231 59.3128 92.2714 59.1966C92.2228 59.0872 91.868 59.0693 91.149 59.1397C90.5367 59.1996 90.0922 59.187 90.0846 59.1095C90.0653 58.9123 88.7779 59.0696 88.7045 59.2782C88.6557 59.4174 88.6246 59.4204 88.5497 59.2934C88.4981 59.2061 88.3414 59.1458 88.2014 59.1595C88.0354 59.1758 87.9378 59.0918 87.9208 58.9183C87.9064 58.7719 87.8349 58.658 87.7619 58.6651C87.6889 58.6723 87.6174 58.5583 87.6031 58.4119C87.5887 58.2655 87.5172 58.1516 87.4442 58.1587C87.3712 58.1659 87.2938 57.9921 87.2723 57.7725C87.2508 57.5529 87.1735 57.379 87.1004 57.3862C87.0274 57.3933 86.95 57.2195 86.9285 56.9999C86.907 56.7803 86.8297 56.6065 86.7566 56.6136C86.6836 56.6208 86.6062 56.447 86.5847 56.2274C86.5632 56.0078 86.4859 55.8339 86.4129 55.8411C86.3398 55.8482 86.2625 55.6744 86.241 55.4548C86.2195 55.2352 86.1421 55.0614 86.0691 55.0685C85.996 55.0757 85.9187 54.9019 85.8972 54.6823C85.8757 54.4627 85.7983 54.2888 85.7253 54.296C85.6522 54.3031 85.5749 54.1293 85.5534 53.9097C85.5319 53.6901 85.4545 53.5163 85.3815 53.5234C85.3085 53.5306 85.2311 53.3568 85.2096 53.1372C85.1881 52.9176 85.1108 52.7437 85.0377 52.7509C84.9647 52.758 84.8873 52.5842 84.8658 52.3646C84.8443 52.145 84.767 51.9712 84.6939 51.9783C84.6209 51.9855 84.5494 51.8715 84.5351 51.7251C84.5208 51.5787 84.4493 51.4648 84.3762 51.472C84.3032 51.4791 84.2258 51.3053 84.2043 51.0857C84.1828 50.8661 84.1055 50.6923 84.0325 50.6994C83.9594 50.7066 83.8821 50.5327 83.8606 50.3131C83.8391 50.0935 83.7617 49.9197 83.6887 49.9269C83.6156 49.934 83.5383 49.7602 83.5168 49.5406C83.4953 49.321 83.4179 49.1472 83.3449 49.1543C83.2719 49.1615 83.1945 48.9876 83.173 48.768C83.1515 48.5484 83.0742 48.3746 83.0011 48.3818C82.9281 48.3889 82.8507 48.2151 82.8292 47.9955C82.8077 47.7759 82.7304 47.6021 82.6573 47.6092C82.5843 47.6164 82.5069 47.4425 82.4854 47.2229C82.4639 47.0033 82.3866 46.8295 82.3135 46.8367C82.2405 46.8438 82.1632 46.67 82.1417 46.4504C82.1202 46.2308 82.0428 46.057 81.9698 46.0641C81.8967 46.0713 81.8194 45.8974 81.7979 45.6778C81.7764 45.4582 81.699 45.2844 81.626 45.2916C81.553 45.2987 81.4756 45.1249 81.4541 44.9053C81.4326 44.6857 81.3552 44.5119 81.2822 44.519C81.2092 44.5262 81.1377 44.4122 81.1234 44.2658C81.109 44.1194 81.0375 44.0055 80.9645 44.0126C80.8915 44.0198 80.8141 43.846 80.7926 43.6264C80.7711 43.4068 80.6938 43.2329 80.6207 43.2401C80.5477 43.2472 80.4703 43.0734 80.4488 42.8538C80.4273 42.6342 80.35 42.4604 80.2769 42.4675C80.2039 42.4747 80.1265 42.3009 80.105 42.0813C80.0835 41.8617 80.0062 41.6878 79.9332 41.695C79.8601 41.7021 79.7828 41.5283 79.7613 41.3087C79.7398 41.0891 79.6624 40.9153 79.5894 40.9224C79.5163 40.9296 79.439 40.7558 79.4175 40.5362C79.396 40.3166 79.3186 40.1427 79.2456 40.1499C79.1725 40.157 79.0952 39.9832 79.0737 39.7636C79.0522 39.544 78.9749 39.3702 78.9018 39.3773C78.8288 39.3845 78.7514 39.2107 78.7299 38.9911C78.7084 38.7715 78.6311 38.5976 78.558 38.6048C78.485 38.6119 78.4076 38.4381 78.3861 38.2185C78.3646 37.9989 78.2873 37.8251 78.2142 37.8322C78.1412 37.8394 78.0639 37.6656 78.0424 37.446C78.0209 37.2264 77.9435 37.0525 77.8705 37.0597C77.7974 37.0668 77.7259 36.9529 77.7116 36.8065C77.6973 36.6601 77.6258 36.5462 77.5528 36.5533C77.4797 36.5605 77.4024 36.3866 77.3809 36.167C77.3594 35.9474 77.282 35.7736 77.209 35.7808C77.1359 35.7879 77.0586 35.6141 77.0371 35.3945C77.0156 35.1749 76.9382 35.0011 76.8652 35.0082C76.7922 35.0154 76.7148 34.8415 76.6933 34.6219C76.6718 34.4023 76.5945 34.2285 76.5214 34.2357C76.4484 34.2428 76.371 34.069 76.3495 33.8494C76.328 33.6298 76.2507 33.456 76.1776 33.4631C76.1046 33.4703 76.0272 33.2964 76.0057 33.0768C75.9842 32.8572 75.9069 32.6834 75.8339 32.6906C75.7608 32.6977 75.6835 32.5239 75.662 32.3043C75.6405 32.0847 75.5631 31.9109 75.4901 31.918C75.417 31.9252 75.3397 31.7513 75.3182 31.5317C75.2967 31.3121 75.2193 31.1383 75.1463 31.1455C75.0732 31.1526 74.9959 30.9788 74.9744 30.7592C74.9529 30.5396 74.8755 30.3658 74.8025 30.3729C74.7295 30.3801 74.6521 30.2062 74.6306 29.9866C74.6091 29.767 74.5318 29.5932 74.4587 29.6004C74.3857 29.6075 74.3142 29.4936 74.2999 29.3472C74.2855 29.2008 74.2141 29.0868 74.141 29.094C74.068 29.1011 73.9906 28.9273 73.9691 28.7077C73.9476 28.4881 73.8703 28.3143 73.7972 28.3214C73.7242 28.3286 73.6469 28.1548 73.6254 27.9352C73.6038 27.7156 73.5265 27.5417 73.4535 27.5489C73.3804 27.556 73.3031 27.3822 73.2816 27.1626C73.2601 26.943 73.1827 26.7692 73.1097 26.7763C73.0366 26.7835 72.9593 26.6097 72.9378 26.3901C72.9163 26.1705 72.8389 25.9966 72.7659 26.0038C72.6929 26.0109 72.6155 25.8371 72.594 25.6175C72.5725 25.3979 72.4952 25.2241 72.4221 25.2312C72.3491 25.2384 72.2717 25.0646 72.2502 24.845C72.2287 24.6254 72.1514 24.4515 72.0783 24.4587C72.0053 24.4658 71.9279 24.292 71.9064 24.0724C71.8849 23.8528 71.8076 23.679 71.7345 23.6861C71.6615 23.6933 71.5842 23.5195 71.5627 23.2999C71.5412 23.0803 71.4638 22.9064 71.3908 22.9136C71.3177 22.9207 71.2404 22.7469 71.2189 22.5273C71.1974 22.3077 71.12 22.1339 71.047 22.141C70.974 22.1482 70.9025 22.0343 70.8881 21.8879C70.8738 21.7415 70.8023 21.6275 70.7293 21.6347C70.6562 21.6418 70.5789 21.468 70.5574 21.2484C70.5359 21.0288 70.4585 20.855 70.3855 20.8621C70.3125 20.8693 70.2351 20.6955 70.2136 20.4759C70.1921 20.2562 70.1148 20.0824 70.0417 20.0896C69.9687 20.0967 69.8913 19.9229 69.8698 19.7033C69.8483 19.4837 69.771 19.3099 69.6979 19.317C69.6249 19.3242 69.5475 19.1504 69.526 18.9307C69.5045 18.7111 69.4272 18.5373 69.3542 18.5445C69.2811 18.5516 69.2038 18.3778 69.1823 18.1582C69.1608 17.9386 69.0834 17.7648 69.0104 17.7719C68.9373 17.7791 68.86 17.6053 68.8385 17.3856C68.817 17.166 68.7396 16.9922 68.6666 16.9994C68.5935 17.0065 68.5221 16.8926 68.5077 16.7462C68.4934 16.5998 68.4219 16.4859 68.3489 16.493C68.2758 16.5002 68.2043 16.3862 68.19 16.2398C68.1757 16.0934 68.1042 15.9795 68.0312 15.9866C67.9581 15.9938 67.8892 15.9059 67.878 15.7914C67.8667 15.6768 67.5302 15.3207 67.1301 14.9999C66.73 14.6791 66.396 14.3486 66.3879 14.2654C66.3685 14.0682 65.9996 13.7669 65.8011 13.7864C65.7155 13.7947 65.4605 13.6383 65.2344 13.4387C64.9344 13.1741 64.7016 13.0878 64.3746 13.1198C64.0783 13.1488 63.8521 13.0797 63.7084 12.9163C63.5341 12.718 63.3386 12.6838 62.7234 12.744C62.3003 12.7854 61.9501 12.7594 61.943 12.686C61.9358 12.6128 61.6311 12.5822 61.2659 12.618C60.9007 12.6537 60.6078 12.7429 60.615 12.8161ZM80.9984 75.8546C81.0056 75.9278 81.131 75.976 81.277 75.9617C81.4231 75.9474 81.5485 75.9956 81.5557 76.0688C81.5628 76.142 81.6751 76.1914 81.805 76.1787C81.935 76.166 82.1391 76.2669 82.2588 76.403C82.3784 76.5391 82.5569 76.6426 82.6556 76.6329C82.876 76.6113 83.2462 76.9027 83.2669 77.1142C83.2753 77.1999 83.4778 77.4203 83.717 77.6039C83.9562 77.7876 84.1613 78.0337 84.1728 78.1507C84.1842 78.2678 84.2534 78.3576 84.3264 78.3505C84.3995 78.3433 84.4709 78.4573 84.4853 78.6037C84.4996 78.7501 84.5711 78.864 84.6441 78.8568C84.7172 78.8497 84.7887 78.9636 84.803 79.11C84.8173 79.2564 84.8888 79.3704 84.9619 79.3632C85.0349 79.3561 85.1181 79.5898 85.1468 79.8826C85.1754 80.1754 85.2587 80.4091 85.3317 80.4019C85.4047 80.3948 85.4821 80.5686 85.5036 80.7882C85.5251 81.0078 85.6024 81.1817 85.6755 81.1745C85.7485 81.1674 85.8259 81.3412 85.8474 81.5608C85.8689 81.7804 85.9462 81.9542 86.0193 81.947C86.0923 81.9399 86.1814 82.2335 86.2172 82.5995C86.253 82.9655 86.3421 83.2591 86.4152 83.252C86.4984 83.2438 86.6305 84.0818 86.7695 85.5015C86.9085 86.9212 87.0405 87.7593 87.1238 87.7511C87.1968 87.744 87.28 87.9777 87.3087 88.2705C87.3374 88.5633 87.4206 88.797 87.4936 88.7898C87.5667 88.7827 87.6499 89.0164 87.6786 89.3092C87.7072 89.602 87.7904 89.8357 87.8635 89.8286C87.9365 89.8214 88.0256 90.115 88.0614 90.481C88.0973 90.847 88.1863 91.1406 88.2594 91.1335C88.3324 91.1263 88.4098 91.3002 88.4313 91.5198C88.4528 91.7394 88.5301 91.9132 88.6032 91.9061C88.6762 91.8989 88.7535 92.0727 88.775 92.2923C88.7965 92.5119 88.8739 92.6857 88.9469 92.6786C89.02 92.6714 89.0973 92.8453 89.1188 93.0649C89.1403 93.2845 89.2177 93.4583 89.2907 93.4512C89.3758 93.4428 89.5451 94.6803 89.7623 96.8985C89.9795 99.1168 90.0534 100.364 89.9683 100.372C89.8953 100.379 89.859 100.625 89.8876 100.917C89.9163 101.21 89.88 101.456 89.807 101.463C89.7339 101.47 89.6859 101.595 89.7002 101.742C89.7146 101.888 89.6665 102.014 89.5935 102.021C89.5204 102.028 89.4699 102.128 89.4812 102.243C89.5075 102.512 89.2191 102.864 88.9507 102.89C88.836 102.901 88.748 102.971 88.7551 103.044C88.7623 103.117 88.6486 103.189 88.5026 103.203C88.3565 103.217 88.2428 103.289 88.25 103.362C88.2579 103.443 87.6876 103.551 86.8022 103.638C85.9169 103.725 85.3466 103.833 85.3545 103.914C85.3617 103.988 85.0134 104.082 84.5707 104.125C84.1281 104.169 83.7682 104.144 83.7609 104.07C83.7538 103.997 83.6563 103.946 83.5443 103.957C83.2799 103.983 82.3355 103.205 82.3096 102.94C82.2986 102.828 82.2298 102.742 82.1568 102.749C82.0838 102.756 82.0064 102.583 81.9849 102.363C81.9634 102.143 81.8861 101.969 81.813 101.977C81.74 101.984 81.6626 101.81 81.6411 101.59C81.6196 101.371 81.5423 101.197 81.4692 101.204C81.3954 101.211 81.3017 100.862 81.2583 100.419C81.2148 99.9749 81.1211 99.6257 81.0473 99.633C80.9743 99.6401 80.8852 99.3465 80.8493 98.9805C80.8135 98.6145 80.7244 98.3209 80.6514 98.3281C80.5783 98.3352 80.4951 98.1015 80.4665 97.8087C80.4378 97.5159 80.3546 97.2822 80.2815 97.2893C80.2085 97.2965 80.1194 97.0029 80.0836 96.6368C80.0477 96.2708 79.9587 95.9772 79.8856 95.9844C79.8126 95.9915 79.7235 95.6979 79.6877 95.3319C79.624 94.6812 79.6136 94.6673 79.2241 94.7055C79.005 94.7269 78.8316 94.8044 78.8388 94.8776C78.8459 94.9508 78.553 95.0399 78.1878 95.0757C77.8226 95.1114 77.5297 95.2006 77.5368 95.2738C77.544 95.347 77.2511 95.4361 76.8859 95.4719C76.3105 95.5282 76.2254 95.5724 76.248 95.8031C76.2623 95.9495 76.3338 96.0634 76.4068 96.0563C76.4799 96.0491 76.5631 96.2828 76.5917 96.5756C76.6204 96.8684 76.7036 97.1021 76.7767 97.095C76.8497 97.0878 76.9329 97.3216 76.9616 97.6144C76.9903 97.9072 77.0735 98.1409 77.1465 98.1337C77.2195 98.1266 77.3028 98.3603 77.3314 98.6531C77.3601 98.9459 77.4433 99.1796 77.5163 99.1725C77.5894 99.1653 77.6785 99.4589 77.7143 99.8249C77.7501 100.191 77.8392 100.485 77.9123 100.477C77.9853 100.47 78.0568 100.584 78.0711 100.731C78.0854 100.877 78.1569 100.991 78.23 100.984C78.303 100.977 78.3745 101.091 78.3888 101.237C78.4032 101.383 78.4746 101.497 78.5477 101.49C78.6207 101.483 78.6981 101.657 78.7196 101.876C78.7411 102.096 78.8184 102.27 78.8915 102.263C78.9702 102.255 79.072 102.738 79.1415 103.447C79.211 104.157 79.2048 104.651 79.126 104.658C79.053 104.665 79.0022 104.763 79.0132 104.875C79.0376 105.125 78.2706 106.086 78.0285 106.109C77.9326 106.119 77.7798 106.255 77.6888 106.411C77.5978 106.568 77.4172 106.707 77.2871 106.72C77.1573 106.732 77.0567 106.803 77.0639 106.876C77.0711 106.949 76.9574 107.021 76.8114 107.035C76.6653 107.049 76.5516 107.121 76.5588 107.194C76.566 107.267 76.4523 107.339 76.3062 107.353C76.1601 107.367 76.0465 107.439 76.0537 107.512C76.0608 107.585 75.9472 107.657 75.8011 107.671C75.655 107.686 75.5414 107.757 75.5485 107.83C75.5557 107.904 75.3225 107.987 75.0304 108.015C74.7382 108.044 74.505 108.127 74.5122 108.201C74.5195 108.275 74.1711 108.368 73.7284 108.412C73.2858 108.455 72.9259 108.431 72.9186 108.357C72.9115 108.283 72.7546 108.238 72.5702 108.256C72.2123 108.291 70.9442 107.361 70.9128 107.041C70.9035 106.945 70.7678 106.793 70.6114 106.701C70.4445 106.604 70.3121 106.383 70.2908 106.166C70.2709 105.962 70.1949 105.801 70.1218 105.809C70.0488 105.816 69.9656 105.582 69.9369 105.289C69.9082 104.996 69.825 104.763 69.752 104.77C69.6789 104.777 69.6016 104.603 69.5801 104.384C69.5586 104.164 69.4812 103.99 69.4082 103.997C69.3352 104.005 69.2461 103.711 69.2102 103.345C69.1744 102.979 69.0853 102.685 69.0123 102.692C68.9393 102.7 68.8502 102.406 68.8144 102.04C68.7785 101.674 68.6894 101.38 68.6164 101.388C68.5434 101.395 68.4601 101.161 68.4315 100.868C68.4028 100.575 68.3196 100.342 68.2466 100.349C68.1735 100.356 68.0844 100.062 68.0486 99.6963C68.0128 99.3303 67.9237 99.0367 67.8507 99.0439C67.7776 99.051 67.6885 98.7574 67.6527 98.3914C67.6169 98.0254 67.5278 97.7318 67.4547 97.7389C67.3817 97.7461 67.2985 97.5124 67.2698 97.2196C67.2412 96.9268 67.1579 96.6931 67.0849 96.7002C67.0119 96.7074 66.9287 96.4736 66.9 96.1808C66.8713 95.888 66.7881 95.6543 66.7151 95.6615C66.642 95.6686 66.5588 95.4349 66.5301 95.1421C66.5015 94.8493 66.4183 94.6156 66.3452 94.6227C66.2722 94.6299 66.189 94.3962 66.1603 94.1034C66.1316 93.8106 66.0484 93.5768 65.9754 93.584C65.9023 93.5911 65.8133 93.2975 65.7774 92.9315C65.7416 92.5655 65.6525 92.2719 65.5795 92.2791C65.5056 92.2863 65.4119 91.9371 65.3685 91.4935C65.3251 91.0499 65.2314 90.7007 65.1575 90.708C65.0788 90.7157 64.9769 90.2329 64.9074 89.5231C64.8379 88.8134 64.7361 88.3306 64.6574 88.3383C64.5843 88.3455 64.507 88.1716 64.4855 87.952C64.464 87.7324 64.3866 87.5586 64.3136 87.5658C64.2405 87.5729 64.1515 87.2793 64.1156 86.9133C64.0798 86.5473 64.1102 86.242 64.1833 86.2348C64.2563 86.2277 64.3067 86.1261 64.2952 86.009C64.2838 85.892 64.4373 85.6108 64.6363 85.3843C64.8353 85.1577 64.9888 84.8765 64.9773 84.7595C64.9659 84.6424 65.0163 84.5409 65.0893 84.5337C65.1623 84.5266 65.1928 84.2213 65.1569 83.8552C65.1211 83.4892 65.1516 83.1839 65.2246 83.1768C65.2976 83.1696 65.3457 83.044 65.3313 82.8976C65.317 82.7512 65.365 82.6256 65.4381 82.6184C65.5111 82.6113 65.5619 82.514 65.551 82.4023C65.54 82.2905 65.7722 81.905 66.0669 81.5456L66.6026 80.892L67.6022 80.7941C68.18 80.7375 68.6071 80.7524 68.6147 80.8293C68.6218 80.9025 68.7341 80.952 68.864 80.9393C68.994 80.9266 69.1981 81.0275 69.3178 81.1636C69.4374 81.2997 69.6145 81.4033 69.7111 81.3938C69.9268 81.3727 70.5973 81.9086 70.6179 82.1184C70.6261 82.2022 70.8285 82.4211 71.0677 82.6047C71.3069 82.7883 71.5107 83.0213 71.5206 83.122C71.5304 83.2229 71.6665 83.3801 71.8229 83.4713C71.9793 83.5626 72.1177 83.7437 72.1305 83.874C72.1432 84.0042 72.2134 84.1049 72.2864 84.0978C72.3595 84.0906 72.431 84.2046 72.4453 84.351C72.4596 84.4974 72.5311 84.6113 72.6042 84.6042C72.6772 84.597 72.7604 84.8307 72.7891 85.1235C72.8178 85.4163 72.901 85.65 72.974 85.6429C73.0471 85.6357 73.1361 85.9294 73.172 86.2954C73.2078 86.6614 73.2969 86.955 73.3699 86.9478C73.443 86.9407 73.5262 87.1744 73.5548 87.4672C73.5835 87.76 73.6667 87.9937 73.7398 87.9866C73.8128 87.9794 73.9019 88.273 73.9377 88.639C73.9735 89.005 74.0626 89.2986 74.1356 89.2915C74.2087 89.2843 74.286 89.4581 74.3075 89.6777C74.329 89.8974 74.4064 90.0712 74.4794 90.064C74.5525 90.0569 74.6273 90.205 74.6457 90.3932C74.7004 90.9514 75.0012 91.0879 75.9686 90.9932C76.4618 90.9449 76.8356 90.8498 76.8282 90.7746C76.821 90.7014 77.114 90.6123 77.4792 90.5765C77.8444 90.5408 78.1373 90.4516 78.1301 90.3784C78.123 90.3052 78.2366 90.2336 78.3827 90.2193C78.6188 90.1962 78.6396 90.1046 78.5701 89.3948C78.5267 88.9512 78.433 88.602 78.3591 88.6092C78.2853 88.6165 78.1916 88.2673 78.1481 87.8237C78.1047 87.3801 78.011 87.0309 77.9372 87.0381C77.8597 87.0457 77.7609 86.6075 77.7001 85.9864C77.6393 85.3652 77.5405 84.9271 77.4631 84.9347C77.3892 84.9419 77.2955 84.5927 77.2521 84.1491C77.2087 83.7055 77.115 83.3563 77.0411 83.3635C76.9681 83.3707 76.879 83.0771 76.8432 82.7111C76.8073 82.3451 76.7182 82.0515 76.6452 82.0586C76.5722 82.0658 76.4948 81.8919 76.4733 81.6723C76.4518 81.4527 76.3745 81.2789 76.3014 81.2861C76.2276 81.2933 76.1339 80.9441 76.0904 80.5005C76.047 80.0569 76.0712 79.6962 76.1451 79.689C76.2181 79.6818 76.2689 79.5841 76.2579 79.4719C76.235 79.2384 76.9939 78.2622 77.215 78.2405C77.4045 78.222 77.7081 77.8516 77.6895 77.6617C77.6678 77.4401 78.4761 76.5046 78.7092 76.4818C78.8211 76.4709 78.9069 76.402 78.8997 76.3288C78.8925 76.2556 79.0062 76.184 79.1523 76.1697C79.2983 76.1554 79.412 76.0838 79.4048 76.0106C79.3976 75.9366 79.746 75.8428 80.1886 75.7995C80.6312 75.7562 80.9912 75.7806 80.9984 75.8546ZM95.497 76.0475C95.5041 76.1207 95.6164 76.1702 95.7462 76.1575C95.8763 76.1447 96.0804 76.2457 96.2 76.3818C96.4241 76.6368 97.1667 76.6698 97.1427 76.4238C97.1355 76.3506 97.2491 76.279 97.3952 76.2647C97.5413 76.2504 97.655 76.1788 97.6478 76.1056C97.6402 76.0281 98.0774 75.9292 98.6971 75.8685C99.3169 75.8079 99.765 75.82 99.7726 75.8976C99.7797 75.9708 100.084 76.0015 100.45 75.9657C100.815 75.9299 101.119 75.9606 101.127 76.0338C101.134 76.107 101.379 76.1435 101.671 76.1149C101.963 76.0863 102.208 76.1227 102.215 76.1959C102.222 76.2692 102.32 76.3201 102.432 76.3091C102.68 76.2848 103.64 77.0539 103.664 77.2965C103.673 77.3926 103.809 77.5458 103.965 77.637C104.121 77.7283 104.26 77.9094 104.273 78.0397C104.285 78.1699 104.355 78.2706 104.429 78.2635C104.502 78.2563 104.585 78.4901 104.613 78.7829C104.642 79.0757 104.725 79.3094 104.798 79.3022C104.883 79.294 105.035 80.354 105.218 82.2173C105.4 84.0806 105.456 85.15 105.372 85.1583C105.285 85.1668 105.465 87.4782 105.89 91.8259C106.316 96.1736 106.496 98.485 106.409 98.4935C106.336 98.5007 106.291 98.6572 106.309 98.8414C106.333 99.0806 106.086 99.4886 105.446 100.27C104.805 101.051 104.454 101.372 104.215 101.396C104.031 101.414 103.887 101.488 103.894 101.562C103.901 101.635 103.788 101.706 103.642 101.721C103.495 101.735 103.382 101.807 103.389 101.88C103.396 101.953 103.163 102.036 102.871 102.065C102.579 102.093 102.345 102.177 102.353 102.25C102.36 102.323 102.246 102.395 102.1 102.409C101.954 102.423 101.84 102.495 101.848 102.568C101.855 102.641 101.754 102.712 101.624 102.724C101.494 102.737 101.314 102.876 101.223 103.032C101.132 103.189 100.951 103.328 100.821 103.34C100.691 103.353 100.591 103.423 100.598 103.497C100.605 103.57 100.491 103.641 100.345 103.656C100.199 103.67 100.085 103.742 100.093 103.815C100.1 103.892 99.663 103.991 99.0432 104.052C98.4235 104.113 97.9754 104.1 97.9678 104.023C97.9606 103.95 97.8635 103.899 97.7521 103.91C97.4885 103.935 96.2506 102.916 96.2247 102.652C96.2138 102.54 96.1451 102.455 96.072 102.462C95.9845 102.47 95.5744 98.7481 94.8707 91.5611C94.1671 84.3742 93.7569 80.652 93.6694 80.6606C93.5964 80.6677 93.519 80.4939 93.4975 80.2743C93.476 80.0547 93.3987 79.8809 93.3256 79.888C93.2526 79.8952 93.1811 79.7812 93.1668 79.6348C93.1524 79.4884 93.0809 79.3745 93.0079 79.3817C92.9321 79.3891 92.836 78.9954 92.7839 78.463C92.7318 77.9306 92.7497 77.5258 92.8255 77.5184C92.8985 77.5112 92.9492 77.4129 92.9381 77.2997C92.9121 77.0334 93.4455 76.3827 93.7112 76.3567C93.8241 76.3456 93.9106 76.2767 93.9034 76.2035C93.8961 76.1295 94.2445 76.0357 94.6871 75.9924C95.1298 75.9491 95.4897 75.9735 95.497 76.0475Z" fill="#555555"/>
</g>
<defs>
<clipPath id="clip0">
<rect width="180" height="190" fill="white"/>
</clipPath>
</defs>
</svg>
