<?xml version="1.0" encoding="UTF-8"?>
<svg fill="none" version="1.1" viewBox="0 0 42 46" xmlns="http://www.w3.org/2000/svg" xmlns:cc="http://creativecommons.org/ns#" xmlns:dc="http://purl.org/dc/elements/1.1/" xmlns:rdf="http://www.w3.org/1999/02/22-rdf-syntax-ns#">
<metadata>
<rdf:RDF>
<cc:Work rdf:about="">
<dc:format>image/svg+xml</dc:format>
<dc:type rdf:resource="http://purl.org/dc/dcmitype/StillImage"/>
<dc:title/>
</cc:Work>
</rdf:RDF>
</metadata>
<path d="m20.037 1.2871c-0.25172 0.0065625-0.50622 0.025547-0.76172 0.060547-2.215 0.302-4.4758 0.52652-6.5938 1.3535-1.013 0.396-1.8673 1.117-2.7773 1.709-1.54 1-3.154 2.0733-4.375 3.4863-1.141 1.321-1.9612 3.0347-2.5762 4.6777-0.711 1.901-1.3548 3.985-1.6348 6-0.124 0.891-0.29355 1.7217-0.18555 2.6387 0.357 3.051 2.2879 4.9756 4.8379 6.2656 1.549 0.784 2.8729 1.2152 4.6289 1.0332 0.621-0.065 1.2286-0.24427 1.8496-0.32227 0.82-0.103 1.7569-0.11619 2.5449-0.36719 0.545-0.174 0.99186-0.51881 1.5059-0.75781 1.293-0.599 2.5554-1.161 3.8184-1.834 1.455-0.777 3.0625-1.3915 4.3965-2.3965 1.749-1.319 3.1252-3.5671 4.0352-5.5801 0.312-0.69 0.44858-1.4302 0.64258-2.1602 0.71-2.685 0.99316-5.5292-0.089844-8.1582-0.494-1.2-1.2792-2.089-2.1582-3-0.597-0.62-1.2118-1.2354-1.9668-1.6484-0.864-0.473-1.9446-0.61906-2.8926-0.78906-0.7515-0.135-1.4929-0.23062-2.248-0.21094zm13.586 2.2207c0.208 0.747 0.59505 1.4372 0.87305 2.1602 0.524 1.358 0.90916 2.7573 1.1602 4.1973 0.62 3.562 0.28105 7.5-0.87695 10.918-0.615 1.814-1.5177 3.5233-2.2617 5.2793-1.18 2.785-2.1707 5.6428-4.6797 7.4648-0.499 0.363-1.0741 0.51911-1.6191 0.78711-1.547 0.764-3.3818 1.5179-5.0898 1.7949-0.614 0.1-1.2295-0.14473-1.8535-0.052734-2.277 0.336-4.377 0.83983-6.709 0.67383-2.62-0.186-5.3457-0.97831-7.6367-2.3203a23.884 23.884 0 0 1-2.1992-1.4395c-0.534-0.398-1.0091-0.88144-1.6191-1.1484 0.44 1.024 1.3595 1.5934 2.0625 2.4004 1.598 1.834 3.206 3.652 4.998 5.293 1.864 1.706 3.6037 3.8452 6.0137 4.7422 1.482 0.552 2.9607 0.66148 4.5117 0.77148 1.293 0.092 2.6365 0.22289 3.9355 0.087891 2.456-0.254 4.8486-1.3419 7.0566-2.4219 1.738-0.851 3.4428-1.6667 4.8398-3.0957 2.492-2.55 4.0234-5.5264 5.3184-8.8574 0.738-1.898 1.425-3.8239 1.623-5.8809 0.13-1.337-0.066406-2.8593-0.19141-4.1973-0.254-2.727-0.81247-5.2698-1.8555-7.7988-0.604-1.466-1.4303-2.7872-2.1113-4.2012a21.995 21.995 0 0 0-2.1992-3.5977c-0.43-0.58-0.83823-1.2356-1.4902-1.5586z" fill="#333"/>
</svg>
