<svg width="180" height="190" viewBox="0 0 180 190" fill="none" xmlns="http://www.w3.org/2000/svg">
<g clip-path="url(#clip0)">
<rect width="180" height="190" fill="white"/>
<path d="M181 3H1V193H181V3Z" fill="white"/>
<path d="M76.8834 153.288C117.136 153.288 149.767 122.108 149.767 83.6442C149.767 45.1808 117.136 14 76.8834 14C36.631 14 4 45.1808 4 83.6442C4 122.108 36.631 153.288 76.8834 153.288Z" fill="#FBF1A9"/>
<path fill-rule="evenodd" clip-rule="evenodd" d="M60.0569 31.386C57.079 31.3976 56.6739 34.3561 55.6017 36.6452C52.8765 42.1687 50.337 47.9341 47.5464 53.4265C43.2889 53.918 37.8602 53.6391 33.5013 53.9142C30.0728 54.222 24.48 53.7696 21.1414 54.7565C17.7698 56.237 18.44 58.5313 21.3057 60.605C26.2475 65.3351 32.2897 72.8086 37.2385 77.5239C36.7375 80.6825 35.4545 83.8162 34.6984 86.9714C33.4611 91.207 32.2098 95.4435 31.0684 99.7066C31.0477 102.262 32.9942 104.535 35.6017 104.622C38.667 104.533 41.0632 102.32 43.7711 101.141C48.2765 98.7807 53.7395 96.0184 58.2754 93.7211C64.4781 97.7262 69.4512 102.383 75.6389 106.411C77.3337 107.293 79.3102 107.094 80.8695 105.961C82.9554 104.469 82.8159 101.629 82.2108 99.4039C81.0747 93.004 80.1062 86.5516 78.8699 80.1856C84.3093 75.4294 89.7916 69.2279 95.3572 64.5981C97.1285 63.2511 99.4966 61.5671 98.7424 59.5403C97.1327 55.8881 91.1895 56.5514 88.1124 56.0198C82.4452 55.6841 77.6272 55.6599 72.383 54.8774C69.7685 47.9379 67.3556 40.909 64.8014 33.9387C64.0018 32.1367 61.9579 31.2395 60.0569 31.386ZM60.6042 36.246C63.389 43.8516 66.7808 50.9875 69.5585 58.596C70.8426 59.2778 81.8022 59.5666 88.6547 60.0042C91.5273 60.4053 94.2405 60.9046 91.6392 62.9415C85.8771 67.5461 79.992 74.4571 74.3777 79.2113C75.9211 87.1738 76.5141 94.1319 77.9912 102.119C77.0688 102.041 75.5161 100.521 74.3517 99.8728C68.7512 96.0848 63.9873 92.751 58.3788 88.9762C51.1525 92.7531 43.2025 96.1853 35.9428 99.8924C36.1588 98.0913 37.114 95.7629 37.5821 93.7607C39.2776 88.0059 40.8333 82.2044 42.6017 76.4748C39.1829 72.4618 35.3203 69.703 31.6381 65.879C29.7855 63.7902 25.4875 60.7301 24.329 58.5903C32.215 58.3897 41.1012 58.3836 48.9826 58.1207C50.3669 57.7396 51.8908 53.6473 52.699 52.532C55.6937 46.3445 57.3774 42.3171 60.3268 36.108C60.4262 36.0313 60.6407 36.085 60.6042 36.246Z" fill="#19A974"/>
<path fill-rule="evenodd" clip-rule="evenodd" d="M132.618 80.5371C127.676 79.5737 119.122 80.8735 114.365 82.6026C116.477 84.0159 119.838 86.2077 122.285 87.7794C124.51 89.2484 128.367 91.4951 128.451 92.2436C128.391 95.1157 124.295 92.2493 122.344 90.8895C108.864 82.0821 95.4692 73.1304 81.9085 64.453C77.2402 62.7238 71.6928 66.1609 71.0867 71.0971C70.5108 74.6728 72.8738 78.1773 76.0651 79.6872C83.3088 84.3758 90.4769 89.2681 97.7654 93.8302C100.865 95.7267 96.2403 95.0099 94.8726 95.5931C90.2607 97.0506 87.7542 103 90.5691 107.07C91.8817 108.687 94.5701 111.112 90.6327 110.426C86.1417 111.147 82.4104 116.385 84.3086 120.831C85.5558 123.197 87.7265 125.182 89.9253 126.707C88.8936 128.079 84.9875 127.754 83.8139 130.238C81.7722 132.895 81.1794 136.639 83.3283 139.485C84.3218 141.536 87.0143 142.217 88.6823 143.714C96.4755 148.616 103.971 154.004 111.898 158.68C115.571 159.898 119.588 160.457 123.47 159.758C126.212 159.911 128.915 156.901 131.331 157.856C134.199 159.885 136.91 161.879 139.644 163.991C145.832 168.439 154.297 167.534 160.103 164.016C165.285 160.042 169.056 154.12 171.518 149.206C173.724 143.285 173.774 134.436 169.553 130.084C164.661 126.662 159.437 123.761 154.531 120.34C153.337 117.543 153.336 114.329 152.208 111.457C150.013 104.892 147.325 98.4622 143.88 92.5238C142.338 89.4386 140.335 86.4071 138.275 83.7031C136.665 82.1795 134.891 80.9143 132.618 80.5371V80.5371Z" fill="#555555"/>
<path d="M133.932 172.75C133.742 172.438 132.116 171.976 128.985 172.111C124.597 171.872 123.222 172.151 114.708 170.855C108.081 169.847 102.5 167.399 97.6149 163.356C93.9722 160.359 94.1237 162.747 95.1515 163.598C100.111 167.703 106.778 171.306 113.765 172.369C122.24 173.659 124.34 174.526 133.091 174.267C133.863 174.256 134.331 173.411 133.932 172.75V172.75Z" fill="#555555"/>
<path d="M119.363 179.279C119.199 178.992 117.503 178.753 114.909 178.575C105.967 177.705 105.513 176.7 97.2129 172.155C95.9899 171.582 93.5199 172.214 99.3633 175.443C107.268 179.022 108.155 179.838 117.395 180.736C120.093 181.023 119.77 179.989 119.363 179.279V179.279Z" fill="#555555"/>
</g>
<defs>
<clipPath id="clip0">
<rect width="180" height="190" fill="white"/>
</clipPath>
</defs>
</svg>
