<?xml version="1.0" encoding="UTF-8" standalone="no"?>
<svg
   xmlns:dc="http://purl.org/dc/elements/1.1/"
   xmlns:cc="http://creativecommons.org/ns#"
   xmlns:rdf="http://www.w3.org/1999/02/22-rdf-syntax-ns#"
   xmlns:svg="http://www.w3.org/2000/svg"
   xmlns="http://www.w3.org/2000/svg"
   xmlns:sodipodi="http://sodipodi.sourceforge.net/DTD/sodipodi-0.dtd"
   xmlns:inkscape="http://www.inkscape.org/namespaces/inkscape"
   width="42"
   height="46"
   fill="none"
   version="1.1"
   id="svg6"
   sodipodi:docname="offen-icon-black.svg"
   inkscape:version="0.92.4 (5da689c313, 2019-01-14)">
  <metadata
     id="metadata12">
    <rdf:RDF>
      <cc:Work
         rdf:about="">
        <dc:format>image/svg+xml</dc:format>
        <dc:type
           rdf:resource="http://purl.org/dc/dcmitype/StillImage" />
        <dc:title></dc:title>
      </cc:Work>
    </rdf:RDF>
  </metadata>
  <defs
     id="defs10" />
  <sodipodi:namedview
     pagecolor="#ffffff"
     bordercolor="#666666"
     borderopacity="1"
     objecttolerance="10"
     gridtolerance="10"
     guidetolerance="10"
     inkscape:pageopacity="0"
     inkscape:pageshadow="2"
     inkscape:window-width="1135"
     inkscape:window-height="941"
     id="namedview8"
     showgrid="false"
     inkscape:zoom="5.1304348"
     inkscape:cx="9.2797924"
     inkscape:cy="23"
     inkscape:window-x="0"
     inkscape:window-y="0"
     inkscape:window-maximized="0"
     inkscape:current-layer="svg6" />
  <path
     style="fill:#333333;fill-opacity:1"
     d="M 20.037109 1.2871094 C 19.785391 1.2936719 19.530891 1.3126563 19.275391 1.3476562 C 17.060391 1.6496563 14.799641 1.8741719 12.681641 2.7011719 C 11.668641 3.0971719 10.814297 3.8181562 9.9042969 4.4101562 C 8.3642969 5.4101562 6.7502969 6.4834844 5.5292969 7.8964844 C 4.3882969 9.2174844 3.568125 10.931219 2.953125 12.574219 C 2.242125 14.475219 1.5983594 16.559219 1.3183594 18.574219 C 1.1943594 19.465219 1.0248125 20.295891 1.1328125 21.212891 C 1.4898125 24.263891 3.4207031 26.188516 5.9707031 27.478516 C 7.5197031 28.262516 8.8436094 28.693719 10.599609 28.511719 C 11.220609 28.446719 11.828219 28.267453 12.449219 28.189453 C 13.269219 28.086453 14.206141 28.073266 14.994141 27.822266 C 15.539141 27.648266 15.986 27.303453 16.5 27.064453 C 17.793 26.465453 19.055359 25.903469 20.318359 25.230469 C 21.773359 24.453469 23.380844 23.838984 24.714844 22.833984 C 26.463844 21.514984 27.84 19.266906 28.75 17.253906 C 29.062 16.563906 29.198578 15.82375 29.392578 15.09375 C 30.102578 12.40875 30.385734 9.5645469 29.302734 6.9355469 C 28.808734 5.7355469 28.023531 4.8465469 27.144531 3.9355469 C 26.547531 3.3155469 25.932734 2.7001094 25.177734 2.2871094 C 24.313734 1.8141094 23.233156 1.6680469 22.285156 1.4980469 C 21.533656 1.3630469 20.792266 1.2674219 20.037109 1.2871094 z M 33.623047 3.5078125 C 33.831047 4.2548125 34.218094 4.9449688 34.496094 5.6679688 C 35.020094 7.0259688 35.40525 8.4252344 35.65625 9.8652344 C 36.27625 13.427234 35.937297 17.365203 34.779297 20.783203 C 34.164297 22.597203 33.261578 24.3065 32.517578 26.0625 C 31.337578 28.8475 30.346891 31.705344 27.837891 33.527344 C 27.338891 33.890344 26.76375 34.046453 26.21875 34.314453 C 24.67175 35.078453 22.836906 35.832375 21.128906 36.109375 C 20.514906 36.209375 19.899391 35.964641 19.275391 36.056641 C 16.998391 36.392641 14.898406 36.896469 12.566406 36.730469 C 9.9464062 36.544469 7.2206875 35.752156 4.9296875 34.410156 A 23.884 23.884 0 0 1 2.7304688 32.970703 C 2.1964687 32.572703 1.7213281 32.089266 1.1113281 31.822266 C 1.5513281 32.846266 2.4708281 33.415656 3.1738281 34.222656 C 4.7718281 36.056656 6.379875 37.874625 8.171875 39.515625 C 10.035875 41.221625 11.775547 43.360813 14.185547 44.257812 C 15.667547 44.809812 17.146266 44.919297 18.697266 45.029297 C 19.990266 45.121297 21.333812 45.252187 22.632812 45.117188 C 25.088812 44.863188 27.481453 43.775313 29.689453 42.695312 C 31.427453 41.844313 33.132297 41.028609 34.529297 39.599609 C 37.021297 37.049609 38.552656 34.073188 39.847656 30.742188 C 40.585656 28.844188 41.272703 26.918328 41.470703 24.861328 C 41.600703 23.524328 41.404297 22.002062 41.279297 20.664062 C 41.025297 17.937062 40.466828 15.394234 39.423828 12.865234 C 38.819828 11.399234 37.9935 10.078062 37.3125 8.6640625 A 21.995 21.995 0 0 0 35.113281 5.0664062 C 34.683281 4.4864062 34.275047 3.8308125 33.623047 3.5078125 z "
     id="path2" />
</svg>
