<svg width="150" height="1500" viewBox="0 0 150 1500" fill="none" xmlns="http://www.w3.org/2000/svg">
<circle cx="75" cy="75" r="67.5" fill="#F2EFDF"/>
<path d="m92.829 46.638c0.3 1.0718 0.861 2.0633 1.2645 3.0998 0.7582 1.9492 1.3162 3.9615 1.6792 6.0277 0.8985 5.1135 0.405 10.766-1.2712 15.67-0.8895 2.604-2.1975 5.0565-3.2738 7.5773-1.707 3.9982-3.1425 8.0977-6.7725 10.714-0.7222 0.5205-1.557 0.7463-2.3445 1.1318-2.241 1.0965-4.896 2.1765-7.3687 2.5747-0.888 0.1433-1.7768-0.207-2.6798-0.075-3.297 0.4823-6.3375 1.2038-9.714 0.966-3.7927-0.267-7.7385-1.4032-11.054-3.3292-1.0942-0.636-2.16-1.314-3.1815-2.0678-0.774-0.5715-1.4632-1.2645-2.3452-1.6485 0.6375 1.47 1.968 2.2875 2.9857 3.4455 2.3138 2.6333 4.6388 5.244 7.233 7.5982 2.6985 2.4498 5.2178 5.5188 8.706 6.8068 2.1458 0.792 4.287 0.95 6.5318 1.108 1.872 0.132 3.8137 0.321 5.694 0.128 3.5557-0.366 7.0215-1.929 10.216-3.479 2.5162-1.222 4.9845-2.393 7.005-4.4437 3.6075-3.6608 5.8237-7.9313 7.6989-12.713 1.068-2.724 2.062-5.4862 2.35-8.4382 0.186-1.9208-0.097-4.107-0.278-6.027-0.368-3.9135-1.177-7.563-2.687-11.194-0.875-2.1045-2.0679-3.999-3.0527-6.0277-0.8962-1.8465-1.9612-3.5318-3.1852-5.166-0.6233-0.8325-1.2135-1.776-2.157-2.2388z" fill="#A3A299"/>
<path d="m72.156 43.59c-3.2078 0.4327-6.4815 0.756-9.546 1.9432-1.467 0.5686-2.7023 1.6028-4.02 2.4526-2.2275 1.4362-4.566 2.9767-6.333 5.0055-1.6523 1.8967-2.8373 4.3545-3.7275 6.7132-1.0298 2.7285-1.962 5.7195-2.367 8.6108-0.1793 1.2802-0.4245 2.4719-0.2693 3.7882 0.5168 4.38 3.3128 7.143 7.0028 8.9947 2.2417 1.125 4.1572 1.7423 6.699 1.4806 0.8992-0.0923 1.7812-0.3488 2.6797-0.4606 1.1873-0.1477 2.5433-0.1657 3.6848-0.5264 0.7875-0.2491 1.434-0.7478 2.1772-1.089 1.8728-0.8603 3.6975-1.6643 5.526-2.6318 2.1068-1.1145 4.4333-1.9973 6.3645-3.441 2.5313-1.8923 4.524-5.1195 5.8418-8.0092 0.4515-0.99 0.6487-2.0528 0.9285-3.0998 1.029-3.8528 1.4392-7.938-0.1275-11.71-0.7163-1.7243-1.854-2.9978-3.126-4.3058-0.8648-0.8887-1.7543-1.7723-2.847-2.3655-1.2503-0.6795-2.814-0.8888-4.1865-1.134-1.4505-0.2587-2.8755-0.4155-4.3545-0.216z" fill="#A3A299"/>
<circle cx="75" cy="225" r="67.5" fill="#F2EFDF"/>
<path d="m98.675 206.38c-0.1363 1.052-0.0507 2.115-0.0255 3.222 0.0469 2.082-0.0847 3.989-0.4295 6.048-0.8532 5.097-3.0393 10.137-6.2757 14.158-1.7178 2.135-3.7857 4.054-5.65 6.047-2.9569 3.162-5.8567 6.417-10.143 7.631-0.8529 0.241-1.7109 0.169-2.579 0.262-2.4701 0.264-5.322 0.372-7.7716-0.096-0.8798-0.168-1.5925-0.798-2.4825-0.981-3.2496-0.67-6.3404-1.028-9.4196-2.399-3.4588-1.539-6.6321-3.939-9.0798-6.868-0.8079-0.968-1.515-1.918-2.2389-2.947-0.5521-0.782-1.0049-1.56-1.7099-2.159 0.0187 1.573 0.9062 2.817 1.4578 4.225 1.2734 3.249 2.502 6.302 4.1296 9.387 1.6927 3.21 3.1352 6.88 5.962 9.271 1.7389 1.471 3.6891 2.347 5.7361 3.258 1.7071 0.76 3.5268 1.514 5.3523 1.972 3.452 0.867 7.1602 0.666 10.677 0.302 2.7703-0.288 5.4786-0.546 8.0667-1.778 4.6208-2.199 8.2072-5.421 11.588-9.259 1.9256-2.187 3.7561-4.416 5.0285-7.082 0.8278-1.734 1.3562-3.872 1.8402-5.731 0.986-3.787 1.436-7.529 1.257-11.44-0.103-2.267-0.537-4.442-0.769-6.675-0.211-2.033-0.607-3.752-1.1967-5.697-0.3002-0.991-0.5666-1.992-1.3244-2.671z" fill="#A3A299"/>
<path d="m75.33 193.68c-3.0429 0.41-6.0736 0.693-8.9806 1.819-1.3916 0.539-2.6171 1.508-3.8671 2.314-2.113 1.362-4.4048 2.776-6.0809 4.701-1.5673 1.799-2.7148 4.116-3.5593 6.353-0.9769 2.588-1.8583 5.434-2.2424 8.177-0.1701 1.215-0.3071 2.446-0.1598 3.695 0.4902 4.155 3.1564 6.754 6.6883 8.495 2.2172 1.073 3.9026 1.625 6.3389 1.414 0.8518-0.078 1.7212-0.33 2.5735-0.436 1.1262-0.141 2.381-0.173 3.4639-0.516 0.747-0.236 1.4022-0.714 2.1073-1.038 1.7764-0.816 3.4952-1.553 5.2297-2.471 1.9985-1.057 4.1441-1.883 5.9761-3.253 2.4012-1.795 4.2495-4.798 5.4995-7.54 0.4283-0.939 0.5948-1.978 0.8755-2.992 0.9922-3.649 1.3601-7.446-0.1261-11.024-0.6795-1.636-1.7535-2.854-2.9601-4.095-0.8203-0.843-1.6693-1.708-2.7059-2.27-1.186-0.645-2.6484-0.875-3.9503-1.108-1.376-0.245-2.7172-0.415-4.1202-0.225z" fill="#A3A299"/>
<circle cx="75" cy="375" r="67.5" fill="#F2EFDF"/>
<path d="m96.724 385.73c-0.8233-0.04-1.74-0.223-2.5716 0.472-1.5641 1.305-1.9447 1.746-3.6552 2.857-4.2381 2.753-7.9701 4.959-13.019 4.935-2.6802-0.013-5.8782-0.15-8.5395-0.36-4.2213-0.335-8.6961-2.016-12.238-4.554-0.7048-0.506-1.1725-1.206-1.7729-1.813-1.7082-1.729-3.5297-3.845-4.6652-6.004-0.408-0.775-0.3607-1.704-0.7629-2.497-1.4691-2.894-3.0793-5.477-3.9084-8.668-0.9312-3.584-0.4151-6.639 0.3336-10.297 0.2474-1.208 0.5512-1.739 0.6334-2.951 0.0592-0.957-0.4739-1.531-0.8612-2.204-1.449 0.399-2.4089 1.479-3.0527 2.611-1.686 2.969-2.4577 4.526-3.8255 7.652-1.4234 3.252-2.3686 7.088-2.4742 10.709-0.0649 2.227 0.454 4.253 1.0049 6.374 0.4595 1.769 1.8268 3.621 2.5894 5.296 1.4413 3.17 3.0217 5.884 5.445 8.352 1.9093 1.944 3.7573 3.858 6.2777 5.087 4.4999 2.194 9.3162 3.443 14.313 3.689 2.8465 0.14 5.3718 0.024 8.1862-0.628 1.8313-0.424 4.0118-0.998 5.7282-1.761 3.4986-1.555 6.7824-3.939 9.6655-6.46 1.6711-1.462 3.2324-2.869 4.7996-4.408 1.4264-1.401 1.291-1.509 2.4197-3.146 0.575-0.834 0.5058-1.459-0.0497-2.283z" fill="#A3A299"/>
<path d="m81.74 349.61c-2.488 0.336-4.7483 0.498-7.1252 1.419-1.1378 0.44-2.2965 1.195-3.3186 1.854-1.7277 1.114-3.8154 2.133-5.186 3.706-1.2815 1.471-2.2879 3.323-2.9784 5.153-0.7987 2.116-1.5109 4.469-1.825 6.711-0.139 0.993 0.0275 2.296 0.1479 3.317 0.4008 3.397 2.6215 5.457 5.6012 6.835 2.0771 0.896 3.0718 1.249 5.1372 1.187 0.6927-0.036 1.499-0.27 2.1959-0.357 0.9209-0.114 1.8552-0.187 2.7406-0.467 0.6108-0.193 1.2688-0.599 1.8453-0.864 1.4525-0.667 2.8224-1.197 4.2406-1.948 1.634-0.864 3.2101-1.505 4.708-2.625 1.9633-1.468 3.3523-3.756 4.3744-5.997 0.3502-0.768 0.4264-1.71 0.7006-2.6 0.8579-2.966 1.0968-5.844-0.1184-8.769-0.5556-1.338-1.4184-2.365-2.405-3.379-0.6707-0.689-1.3802-1.473-2.2278-1.933-0.9697-0.527-2.1044-0.806-3.1689-0.997-1.1251-0.2-2.1912-0.4-3.3384-0.246z" fill="#A3A299"/>
<circle cx="75" cy="525" r="67.5" fill="#F2EFDF"/>
<path d="m66.125 551.19c0.1439-0.837 0.5342-2.01-0.3526-2.531-1.6673-0.981-1.5417-0.6-3.1396-1.7-3.9622-2.729-7.3036-4.279-8.8976-8.799-0.8466-2.4-2.0218-5.532-2.685-7.978-1.0522-3.88-0.1339-8.873 1.0017-12.852 0.226-0.791 0.7025-1.434 1.0532-2.165 0.9982-2.08 2.3064-4.385 3.8729-6.091 0.5625-0.613 1.4082-0.868 1.988-1.481 2.1167-2.239 3.9101-4.505 6.497-6.267 2.9058-1.98 5.4197-1.929 8.9294-2.431 1.1587-0.166 1.3678 0.071 2.4376-0.413 0.8658-0.392 0.8657-1.524 1.1086-2.292-0.5217-1.455-1.6955-2.386-2.7994-2.572-3.1961-0.54-3.885-0.502-7.1169-0.725-3.3622-0.231-7.1824 0.87-10.452 1.934-2.0113 0.655-3.6561 1.767-5.376 2.938-1.4344 0.977-2.4666 3.308-3.7204 4.526-2.3715 2.303-4.4768 4.068-5.9074 7.024-1.1263 2.328-2.2465 4.593-2.538 7.239-0.5207 4.724-0.3503 9.635 1.0289 14.18 0.7858 2.589 1.729 4.591 3.212 6.898 0.9651 1.501 2.0235 3.477 3.2549 4.767 2.5098 2.629 6.0016 4.793 9.1779 6.564 1.8412 1.025 3.4794 2.127 5.3567 3.035 1.7086 0.827 0.7238 0.198 2.5486 0.683 0.9294 0.247 1.1993-0.389 1.5176-1.491z" fill="#A3A299"/>
<path d="m81.287 510.14c-1.7175 0.231-2.8757 0.214-4.5166 0.85-0.7855 0.304-1.8745 0.756-2.5801 1.211-1.1927 0.769-3.029 1.219-3.9751 2.305-0.8846 1.015-1.7053 2.215-2.182 3.478-0.5514 1.461-1.0272 3.132-1.2441 4.68-0.096 0.686 0.5335 2.131 0.6166 2.836 0.2767 2.345 1.8847 3.648 4.1113 4.514 1.9216 0.654 1.9004 0.716 3.4617 0.876 0.4713 0.026 1.2041-0.186 1.6852-0.246 0.6357-0.079 1.1114-0.214 1.7226-0.407 0.4217-0.134 1.1016-0.442 1.4995-0.625 1.0028-0.461 1.8829-0.691 2.8619-1.209 1.128-0.597 1.8866-0.977 2.9207-1.751 1.3553-1.013 2.0884-2.282 2.794-3.829 0.2417-0.53 0.1836-1.351 0.4554-2.077 0.6785-2.015 0.7289-3.583-0.11-5.602-0.3835-0.923-0.9508-1.689-1.6319-2.389-0.463-0.476-0.981-1.158-1.5661-1.475-0.6694-0.364-1.34-0.726-2.0749-0.858-0.7766-0.138-1.4562-0.389-2.2481-0.282z" fill="#A3A299"/>
<circle cx="75" cy="675" r="67.5" fill="#F2EFDF"/>
<path d="m47.284 672.44c0.7348-0.092 1.7831-0.053 2.0523-0.932 0.5065-1.653 0.2553-1.563 0.8916-3.176 1.5776-3.998 2.3733-7.236 5.9734-9.56 1.911-1.234 4.3696-2.864 6.3591-3.948 3.1556-1.72 7.6047-2.05 11.3-1.888 0.7352 0.032 1.3925 0.313 2.1009 0.466 2.0157 0.437 4.2915 1.096 6.0999 2.104 0.6495 0.362 1.0468 1.045 1.7003 1.422 2.3862 1.376 4.7285 2.465 6.7975 4.349 2.3241 2.116 2.8847 4.343 4.049 7.291 0.3842 0.973 0.2496 1.246 0.8721 2.086 0.5033 0.677 1.4389 0.499 2.1381 0.587 1.1113-0.785 1.622-1.999 1.5549-3.012-0.1917-2.891-0.367-3.609-0.8443-6.466-0.4961-2.971-2.1529-6.075-3.7565-8.697-0.9865-1.613-2.2948-2.813-3.6701-4.065-1.147-1.045-3.3287-1.498-4.6478-2.335-2.4942-1.585-4.5248-3.01-7.3919-3.641-2.2585-0.496-4.46-1.001-6.8213-0.705-4.2158 0.527-8.4172 1.72-12.083 3.862-2.0883 1.221-3.6616 2.459-5.3601 4.227-1.1051 1.15-2.572 2.493-3.4382 3.832-1.7657 2.728-2.9335 6.174-3.8138 9.303-0.5101 1.814-1.1046 3.477-1.5049 5.298-0.3643 1.657-0.0506 0.815-0.0936 2.503-0.022 0.859 0.5481 1.007 1.5367 1.095z" fill="#A3A299"/>
<path d="m77.733 664.13c-1.2729 0.172-1.2357-0.127-2.4516 0.344-0.5821 0.225-2.0332 0.407-2.5561 0.744-0.8839 0.57-3.1245 0.337-3.8256 1.142-0.6556 0.753-1.5443 1.467-1.8975 2.403-0.4086 1.082-0.7261 2.426-0.8868 3.573-0.0712 0.508 1.5409 2.795 1.6025 3.317 0.2051 1.738 1.5639 2.438 3.5917 2.891 2.5103 0.561 0.9181 0.204 2.3769 0.775 0.3339 0.131 1.2693-0.138 1.6258-0.182 0.4711-0.059 0.4467-0.347 0.8996-0.49 0.3125-0.099 1.319-0.391 1.6139-0.526 0.7431-0.342 1.2493-0.212 1.9749-0.596 0.8359-0.442 0.6645-0.585 1.4308-1.158 1.0044-0.751 1.0449-1 1.5678-2.147 0.1791-0.392-0.1105-1.379 0.2746-2.167 0.6949-1.422 0.4774-1.65-0.1443-3.147-0.2842-0.684-0.6416-1.376-1.1463-1.895-0.3432-0.353-0.7899-1.172-1.2235-1.408-0.4961-0.269-0.7419-0.915-1.2865-1.012-0.5755-0.103-0.9535-0.54-1.5403-0.461z" fill="#A3A299"/>
<circle cx="75" cy="825" r="67.5" fill="#F2EFDF"/>
<path d="m64.976 800.48c0.4382 0.398 0.867 0.933 1.6448 0.896 1.4625-0.068 1.8201-0.163 3.2826-0.062 3.624 0.25 6.6919 0.548 9.5722 2.754 1.5291 1.172 3.3223 2.642 4.7546 3.918 2.2717 2.025 4.0759 4.982 5.0014 7.974 0.1842 0.596 0.1477 1.2 0.2277 1.809 0.2274 1.731 0.3514 3.734 0.0638 5.463-0.1031 0.621-0.5339 1.133-0.6478 1.761-0.4158 2.295-0.6157 4.474-1.527 6.661-1.0235 2.457-2.6451 3.94-4.6628 5.71-0.6661 0.584-1.0569 0.737-1.6226 1.402-0.4447 0.529-0.3555 1.102-0.4075 1.659 0.9972 0.425 2.025 0.248 2.8785-0.118 2.2543-0.969 3.3169-1.506 5.4578-2.701 2.2274-1.244 4.4155-3.069 6.0483-5.096 1.0044-1.247 1.5872-2.633 2.1932-4.087 0.5053-1.212 0.5-2.886 0.7912-4.177 0.5512-2.441 0.8518-4.661 0.5362-7.127-0.249-1.942-0.4754-3.841-1.385-5.639-1.6237-3.21-3.8328-6.036-6.5871-8.348-1.569-1.316-3.0596-2.334-4.9541-3.184-1.2327-0.552-2.7297-1.186-4.0439-1.495-2.6787-0.629-5.6099-0.68-8.3557-0.488-1.5916 0.111-3.0959 0.227-4.6617 0.427-1.4251 0.183-1.326 0.293-2.6835 0.74-0.6914 0.228-0.8972 0.626-0.9136 1.348z" fill="#A3A299"/>
<path d="m74.67 813.73c-1.3305 0.179-2.13 0.135-3.401 0.627-0.6084 0.236-1.5222 0.569-2.0688 0.922-0.9238 0.595-2.4422 0.882-3.175 1.723-0.6853 0.787-1.3516 1.697-1.7208 2.675-0.4271 1.132-0.7919 2.438-0.9599 3.637-0.0743 0.531 0.5382 1.783 0.6026 2.329 0.2143 1.817 1.4781 2.797 3.244 3.447 1.6069 0.515 1.4186 0.519 2.661 0.693 0.3633 0.032 0.9737-0.145 1.3464-0.191 0.4924-0.062 0.8198-0.186 1.2932-0.336 0.3267-0.103 0.9081-0.349 1.2164-0.491 0.7767-0.357 1.4425-0.503 2.2009-0.904 0.8738-0.462 1.3814-0.742 2.1823-1.34 1.0499-0.785 1.5629-1.693 2.1095-2.891 0.1872-0.411 0.1154-1.088 0.3459-1.678 0.5465-1.553 0.5578-2.665-0.0921-4.23-0.297-0.715-0.7296-1.321-1.2572-1.864-0.3586-0.368-0.7667-0.931-1.2199-1.177-0.5186-0.282-1.0106-0.603-1.5798-0.705-0.6016-0.107-1.1143-0.329-1.7277-0.246z" fill="#A3A299"/>
<circle cx="75" cy="975" r="67.5" fill="#F2EFDF"/>
<path d="m84.704 946.24c0.3472 0.82 0.7588 1.586 1.4406 2.364 1.2818 1.463 2.1222 2.541 3.1475 4.197 2.539 4.102 4.2421 8.548 4.3344 13.368 0.0494 2.558-0.1891 5.321-0.3294 7.866-0.2225 4.037-0.8115 8.188-3.1539 11.627-0.466 0.684-1.124 1.147-1.6899 1.734-1.6107 1.67-3.5885 3.457-5.6235 4.59-0.7308 0.407-1.6188 0.383-2.3662 0.786-2.7289 1.468-5.1575 3.064-8.1844 3.929-3.4001 0.971-6.8475 0.95-10.357 0.319-1.1584-0.208-2.0455-0.472-3.1884-0.69-0.8816-0.164-1.5861-0.178-2.3727-0.052 0.7735 1.202 2.0444 1.74 3.2351 2.388 2.8643 1.559 5.1685 2.759 8.1837 3.989 3.1366 1.28 6.5213 2.73 9.9793 2.75 2.1271 0.01 4.0491-0.54 6.0615-1.11 1.6782-0.48 3.4267-1.3 5.0088-2.06 2.9922-1.45 5.5341-3.551 7.8346-5.921 1.8115-1.867 3.5966-3.675 4.7116-6.109 1.991-4.345 2.778-8.86 2.899-13.635 0.068-2.72-6e-3 -5.318-0.692-7.99-0.447-1.738-1.247-3.66-2.015-5.281-1.564-3.304-3.6298-6.298-6.1024-8.992-1.4333-1.561-2.9684-2.913-4.4734-4.374-1.3698-1.329-2.2747-1.944-3.8636-2.984-0.8091-0.53-1.534-0.872-2.4245-0.709z" fill="#A3A299"/>
<path d="m70.884 954.95c-2.5065 0.338-4.7279 0.483-7.1225 1.411-1.1464 0.444-2.3537 1.194-3.3834 1.858-1.7406 1.123-3.8987 2.114-5.2794 3.699-1.2911 1.482-2.3225 3.337-3.0182 5.18-0.8046 2.132-1.5199 4.509-1.8363 6.768-0.1401 1 0.099 2.388 0.2203 3.417 0.4038 3.423 2.6514 5.482 5.6769 6.858 2.1601 0.908 3.0641 1.238 5.1637 1.204 0.6969-0.03 1.5336-0.273 2.2357-0.36 0.9277-0.115 1.8456-0.2 2.7376-0.482 0.6153-0.195 1.3095-0.608 1.8902-0.875 1.4634-0.672 2.8344-1.187 4.2632-1.943 1.6462-0.871 3.1883-1.509 4.6974-2.637 1.9779-1.478 3.346-3.74 4.3757-5.998 0.3528-0.774 0.4143-1.747 0.7019-2.659 0.8763-2.983 1.101-5.825-0.1232-8.772-0.5597-1.347-1.425-2.389-2.419-3.412-0.6757-0.694-1.3944-1.503-2.2483-1.966-0.9769-0.531-2.1044-0.836-3.1769-1.028-1.1334-0.202-2.1997-0.419-3.3554-0.263z" fill="#A3A299"/>
<circle cx="75" cy="1125" r="67.5" fill="#F2EFDF"/>
<path d="m92.703 1097.3c0.2136 1.01 0.6263 1.97 1.0242 2.99 0.7478 1.92 1.2638 3.71 1.6432 5.74 0.9393 5.03 0.6444 10.43-1.0086 15.27-0.8772 2.56-2.1498 5.06-3.2112 7.55-1.6834 3.94-3.3242 7.95-6.904 10.53-0.7122 0.51-1.5354 0.73-2.3121 1.11-2.21 1.08-4.8283 2.15-7.2668 2.54-0.8757 0.14-1.7522-0.2-2.6427-0.07-3.2514 0.47-6.2499 1.18-9.5797 0.95-3.7403-0.26-7.477-1.43-10.746-3.33-1.0791-0.63-2.0425-1.27-3.0675-1.98-0.782-0.53-1.4676-1.08-2.3239-1.38 0.5308 1.46 1.7627 2.33 2.7492 3.45 2.2849 2.59 4.4341 4.98 6.9925 7.3 2.6612 2.42 5.2679 5.33 8.7079 6.6 2.1161 0.78 4.2277 0.93 6.4414 1.09 1.8461 0.13 3.8026 0.19 5.6569 0 3.5065-0.36 6.8828-1.78 10.034-3.31 2.4815-1.2 4.9156-2.36 6.9081-4.38 3.5577-3.61 5.8211-7.82 7.6703-12.54 1.053-2.68 1.996-5.37 2.279-8.28 0.184-1.9-0.036-4.07-0.214-5.96-0.363-3.86-1.22-7.51-2.709-11.09-0.8634-2.07-1.9942-3.95-2.9653-5.95-0.8839-1.82-1.8103-3.24-3.0173-4.86-0.6147-0.82-1.2022-1.64-2.1381-1.99z" fill="#A3A299"/>
<path d="m71.151 1096.2c-2.9885 0.4-5.9573 0.68-8.8123 1.78-1.3667 0.53-2.5758 1.48-3.8034 2.27-2.0753 1.34-4.3335 2.72-5.9797 4.61-1.5393 1.77-2.6687 4.05-3.498 6.24-0.9594 2.54-1.8247 5.34-2.202 8.03-0.167 1.2-0.2918 2.42-0.1472 3.64 0.4815 4.08 3.1014 6.63 6.5733 8.34 2.1869 1.06 3.8287 1.6 6.224 1.39 0.8363-0.07 1.6936-0.32 2.5306-0.43 1.1061-0.13 2.3353-0.17 3.3987-0.5 0.7337-0.24 1.3815-0.71 2.0739-1.02 1.7447-0.81 3.4315-1.53 5.135-2.43 1.9627-1.04 4.0637-1.85 5.8629-3.19 2.3582-1.76 4.1692-4.71 5.3969-7.4 0.4206-0.92 0.582-1.95 0.8593-2.95 0.976-3.58 1.3352-7.3-0.1245-10.81-0.6673-1.61-1.7215-2.81-2.9065-4.03-0.8057-0.82-1.64-1.68-2.6581-2.23-1.1648-0.63-2.5989-0.86-3.8775-1.09-1.3513-0.24-2.6675-0.41-4.0454-0.22z" fill="#A3A299"/>
<circle cx="75" cy="1275" r="67.5" fill="#F2EFDF"/>
<path d="m92.87 1246.8c0.283 1.06 0.815 2.05 1.2185 3.08 0.7582 1.95 1.3091 3.92 1.6765 5.99 0.9095 5.11 0.4557 10.72-1.2206 15.63-0.8895 2.6-2.1939 5.07-3.2701 7.59-1.707 4-3.1891 8.09-6.8191 10.71-0.7222 0.52-1.557 0.75-2.3445 1.13-2.241 1.1-4.896 2.18-7.3687 2.58-0.888 0.14-1.7768-0.21-2.6798-0.08-3.297 0.48-6.3375 1.2-9.714 0.97-3.7927-0.27-7.7065-1.42-11.022-3.34-1.0943-0.64-2.1419-1.31-3.1671-2.06-0.7778-0.56-1.4683-1.23-2.3475-1.6 0.6173 1.48 1.9312 2.31 2.9454 3.46 2.3144 2.63 4.6097 5.21 7.204 7.56 2.6985 2.45 5.243 5.49 8.7312 6.78 2.1458 0.79 4.287 0.95 6.5318 1.11 1.872 0.13 3.8223 0.3 5.7026 0.1 3.5557-0.36 7.0129-1.9 10.208-3.45 2.5162-1.22 4.9845-2.39 7.005-4.44 3.6075-3.67 5.8398-7.94 7.7151-12.72 1.068-2.72 2.054-5.48 2.342-8.43 0.186-1.92-0.085-4.11-0.266-6.03-0.368-3.91-1.189-7.57-2.699-11.2-0.875-2.11-2.0584-4-3.0432-6.03-0.8962-1.85-1.9356-3.48-3.1596-5.12-0.6233-0.83-1.2147-1.75-2.1593-2.19z" fill="#A3A299"/>
<path d="m71.928 1244c-3.1679 0.43-6.4011 0.75-9.4276 1.92-1.4488 0.56-2.6687 1.59-3.9701 2.43-2.1999 1.41-4.5094 2.94-6.2545 4.94-1.6317 1.87-2.802 4.3-3.6813 6.63-1.0169 2.69-1.9376 5.65-2.3376 8.5-0.177 1.27-0.4192 2.44-0.2659 3.74 0.5103 4.33 3.2717 7.06 6.9159 8.89 2.2139 1.11 4.1057 1.72 6.6159 1.46 0.8881-0.09 1.7592-0.35 2.6465-0.46 1.1725-0.14 2.5117-0.16 3.6391-0.52 0.7777-0.24 1.4162-0.73 2.1502-1.07 1.8495-0.85 3.6517-1.64 5.4575-2.6 2.0806-1.1 4.3782-1.97 6.2855-3.4 2.4999-1.87 4.4679-5.05 5.7693-7.91 0.4459-0.98 0.6407-2.03 0.917-3.06 1.0163-3.8 1.4214-7.84-0.1259-11.56-0.7074-1.71-1.831-2.96-3.0872-4.26-0.854-0.87-1.7325-1.75-2.8117-2.33-1.2348-0.67-2.7791-0.88-4.1346-1.12-1.4325-0.26-2.8398-0.41-4.3005-0.22z" fill="#A3A299"/>
<circle cx="75" cy="1425" r="67.5" fill="#F2EFDF"/>
<path d="m92.829 1396.7c0.3 1.07 0.861 2.06 1.2645 3.1 0.7582 1.95 1.3162 3.96 1.6792 6.03 0.8985 5.11 0.405 10.76-1.2712 15.67-0.8895 2.6-2.1975 5.06-3.2738 7.58-1.707 3.99-3.1425 8.09-6.7725 10.71-0.7222 0.52-1.557 0.75-2.3445 1.13-2.241 1.1-4.896 2.18-7.3687 2.58-0.888 0.14-1.7768-0.21-2.6798-0.08-3.297 0.48-6.3375 1.2-9.714 0.97-3.7927-0.27-7.7385-1.41-11.054-3.33-1.0942-0.64-2.16-1.32-3.1815-2.07-0.774-0.57-1.4632-1.26-2.3452-1.65 0.6375 1.47 1.968 2.29 2.9857 3.45 2.3138 2.63 4.6388 5.24 7.233 7.6 2.6985 2.44 5.2178 5.51 8.706 6.8 2.1458 0.79 4.287 0.95 6.5318 1.11 1.872 0.13 3.8137 0.32 5.694 0.13 3.5557-0.37 7.0215-1.93 10.216-3.48 2.5162-1.22 4.9845-2.39 7.005-4.44 3.6075-3.67 5.8237-7.94 7.6992-12.72 1.068-2.72 2.062-5.48 2.349-8.44 0.187-1.92-0.096-4.1-0.277-6.02-0.368-3.92-1.178-7.57-2.687-11.2-0.876-2.1-2.0682-4-3.053-6.02-0.8962-1.85-1.9612-3.54-3.1852-5.17-0.6233-0.83-1.2135-1.78-2.157-2.24z" fill="#A3A299"/>
<path d="m72.062 1393.6c-3.2077 0.43-6.4815 0.76-9.546 1.94-1.467 0.57-2.7022 1.61-4.02 2.46-2.2275 1.43-4.566 2.97-6.333 5-1.6522 1.9-2.8372 4.36-3.7275 6.71-1.0297 2.73-1.962 5.72-2.367 8.62-0.1792 1.28-0.4245 2.47-0.2692 3.78 0.5167 4.38 3.3127 7.15 7.0027 9 2.2418 1.12 4.1573 1.74 6.699 1.48 0.8993-0.09 1.7813-0.35 2.6798-0.46 1.1872-0.15 2.5432-0.17 3.6847-0.53 0.7875-0.25 1.434-0.75 2.1773-1.09 1.8727-0.86 3.6975-1.66 5.526-2.63 2.1067-1.11 4.4332-2 6.3645-3.44 2.5312-1.89 4.524-5.12 5.8417-8.01 0.4515-0.99 0.6488-2.05 0.9285-3.1 1.029-3.85 1.4393-7.94-0.1275-11.71-0.7162-1.72-1.854-3-3.126-4.3-0.8647-0.89-1.7542-1.78-2.847-2.37-1.2502-0.68-2.814-0.89-4.1865-1.13-1.4505-0.26-2.8755-0.42-4.3545-0.22z" fill="#A3A299"/>
</svg>
