<svg width="129" height="80" viewBox="0 0 129 80" fill="none" xmlns="http://www.w3.org/2000/svg">
<path d="M14.38 55.3097C14.0657 53.5077 13.19 52.6743 11.753 52.8094C10.9446 52.8545 10.2486 53.3951 9.66477 54.4313C8.85644 56.008 8.49718 58.0578 8.58699 60.5806C8.72172 63.0584 8.90135 64.8605 9.12588 65.9867C9.39533 67.068 9.8444 68.014 10.4731 68.8249C10.8324 69.4556 11.3712 69.7484 12.0898 69.7034C13.3472 69.7034 14.2678 68.6447 14.8516 66.5273L15.3905 64.9055C15.615 64.6802 15.6599 64.455 15.5252 64.2297C15.9742 63.1035 16.2212 61.7745 16.2661 60.2428C15.8171 59.9274 15.5476 59.6346 15.4578 59.3643C15.1884 58.5984 15.0536 58.0803 15.0536 57.81C14.7393 57.5848 14.5597 57.1568 14.5148 56.526C14.4699 55.8953 14.4249 55.4899 14.38 55.3097V55.3097ZM2.05298 61.6618L2.32242 58.2155C2.63677 55.107 3.57983 52.449 5.15158 50.2415C6.67843 48.3944 8.83398 47.4484 11.6182 47.4033H12.0224C14.627 47.4033 16.5131 47.9664 17.6807 49.0927C18.9381 50.0838 19.8587 51.1651 20.4425 52.3364C21.0712 53.5077 21.4754 54.3636 21.655 54.9042C21.8347 55.4448 21.9469 56.2332 21.9918 57.2694C22.0816 59.2066 21.6999 60.3103 20.8467 60.5806C21.4754 64.8605 21.0937 68.2618 19.7016 70.7846C19.2525 71.8208 18.6013 72.9471 17.7481 74.1635C17.1194 74.9744 15.9967 75.4249 14.38 75.515C12.7634 75.515 11.3488 75.4249 10.1363 75.2447C8.96871 75.0645 7.66639 74.5014 6.22936 73.5553C4.79233 72.5642 3.78191 70.9649 3.19812 68.7574C2.56941 66.64 2.1877 64.2748 2.05298 61.6619L2.05298 61.6618Z" fill="#137752"/>
<path d="M43.2652 48.4845L44.6125 48.417C45.9148 48.417 48.0254 48.1242 50.9444 47.5385C51.0342 47.1781 51.0791 46.7726 51.0791 46.3221L51.4159 44.6327C51.4159 44.1822 51.5506 43.3713 51.8201 42.2C51.8201 41.6143 51.9099 41.0512 52.0895 40.5106C52.0895 40.0601 52.1569 39.4744 52.2916 38.7536C52.4263 37.9877 52.5386 37.1543 52.6284 36.2533C52.7631 36.0731 52.8305 35.8028 52.8305 35.4424C52.8754 35.0369 52.9652 34.6089 53.0999 34.1584C51.8874 33.8881 50.5178 33.7079 48.9909 33.6178C46.9252 33.8881 45.78 34.1359 45.5555 34.3612C44.5675 35.2171 43.8939 35.9605 43.5347 36.5912C43.1305 37.2669 42.659 38.3706 42.1201 39.9024C41.8956 39.9925 41.7159 40.3529 41.5812 40.9836C41.4914 41.7044 41.2444 42.6054 40.8402 43.6866C40.5259 44.5426 40.2564 45.5337 40.0319 46.66C39.8074 47.7412 39.7625 48.3944 39.8972 48.6197C40.3463 48.6197 40.7055 48.5972 40.975 48.5521C41.2893 48.2368 42.0527 48.2143 43.2652 48.4846L43.2652 48.4845ZM56.8722 61.7295C56.7374 62.8557 56.6925 63.5315 56.7374 63.7567L56.5354 65.1758V66.3922C56.6252 69.0502 56.715 70.9198 56.8048 72.001C57.0294 72.902 57.1416 73.5778 57.1416 74.0283C57.1416 74.8392 56.5129 75.4925 55.2555 75.988C54.4921 76.3034 53.6388 76.461 52.6958 76.461C51.7527 76.461 51.0567 76.1006 50.6076 75.3798L50.1361 73.758L49.8666 72.2038L49.6646 71.6631C49.6646 71.4379 49.5972 71.1226 49.4625 70.7171L49.3278 68.8249C49.3278 67.7437 49.3502 66.7977 49.3951 65.9868V65.5137C49.3951 65.3336 49.44 65.0633 49.5298 64.7028C49.6645 64.3424 49.687 63.9144 49.5972 63.4188C49.8666 61.1213 49.9789 59.6797 49.934 59.094C49.934 58.5083 49.9789 57.9002 50.0687 57.2695C50.1585 56.5937 50.1585 55.9179 50.0687 55.2421C50.2932 54.4312 50.4504 53.6429 50.5402 52.877C49.687 52.8319 48.2275 52.877 46.1618 53.0122C43.9164 53.1473 41.5139 53.4626 38.9541 53.9582C38.7745 54.4988 38.6622 55.1295 38.6173 55.8503C38.5724 56.5711 38.5051 57.4947 38.4153 58.621C38.3255 59.7022 38.2805 60.513 38.2805 61.0536V63.3512C38.1458 64.3874 38.1009 65.0632 38.1458 65.3786L37.9437 66.7976V68.014C38.0336 70.672 38.1234 72.5191 38.2132 73.5553C38.4377 74.4563 38.55 75.1545 38.55 75.6501C38.55 76.4159 37.9213 77.0692 36.6639 77.6098C35.6759 77.8801 34.7553 78.0152 33.9021 78.0152C33.0938 78.0152 32.4651 77.6773 32.016 77.0016L31.5445 75.3798L31.275 73.758L31.0729 73.2173C31.0729 73.0372 31.0056 72.7444 30.8709 72.3389L30.7361 70.4468C30.7361 69.3205 30.7586 68.3744 30.8035 67.6085V67.1356C30.8035 66.9554 30.8484 66.685 30.9382 66.3246C31.073 65.9642 31.0954 65.5137 31.0056 64.9731C31.275 62.7205 31.3873 61.2789 31.3424 60.6482C31.3424 60.0175 31.3873 59.4093 31.4771 58.8237C31.5669 58.193 31.5669 57.5397 31.4771 56.864C31.6118 56.2332 31.7016 55.8729 31.7466 55.7828C31.7915 55.6477 31.8588 55.2197 31.9486 54.4988H29.6584C28.5806 54.4988 27.907 54.4762 27.6375 54.4312C26.3352 54.4312 25.5044 54.0708 25.1452 53.35C24.8757 52.5842 25.0554 51.7282 25.6841 50.7821C25.7739 50.5569 26.1556 50.4217 26.8292 50.3767C27.8621 50.3767 29.7033 50.1064 32.3528 49.5658C32.4426 49.2054 32.4875 48.89 32.4875 48.6197L32.8243 46.2546C32.8243 45.8491 32.9591 45.0382 33.2285 43.8218C33.2285 43.2361 33.3183 42.673 33.4979 42.1324C33.4979 41.7269 33.5653 41.0511 33.7 40.1051C34.0593 38.258 34.2614 36.884 34.3063 35.9829C34.6206 35.3973 34.8003 35.0144 34.8452 34.8342C34.6655 34.6089 34.7329 34.2935 35.0472 33.8881L35.2493 33.4827C35.3391 32.942 35.9678 32.1086 37.1354 30.9824L38.8868 29.9687C39.1562 29.6083 40.234 29.1353 42.1201 28.5496C42.5243 28.3243 43.3775 28.4144 44.6798 28.8199C44.8146 28.8649 45.1963 28.8649 45.825 28.8199C46.4986 28.7748 47.015 28.8199 47.3743 28.955C47.7335 29.0901 47.9805 29.1577 48.1153 29.1577L49.6646 29.3603C51.7303 30.0361 53.2122 30.6669 54.1104 31.2525C54.3798 30.802 54.7391 30.374 55.1882 29.9686C55.6372 29.5181 55.9965 29.2477 56.2659 29.1576L57.4784 28.3467C57.9724 27.8061 58.9828 27.3781 60.5097 27.0628C62.0814 26.7474 63.4287 26.77 64.5513 27.1304C65.1351 27.1304 65.6067 27.198 65.9659 27.3331C66.3252 27.4682 66.5946 27.5357 66.7742 27.5357L68.3909 27.806C69.9178 28.4367 70.7935 28.9322 71.018 29.2926C71.2425 29.608 71.3099 29.9234 71.2201 30.2387C70.6812 31.8605 69.4687 32.5364 67.5826 32.2661L64.6861 32.4011C63.2041 32.9418 62.1488 33.8653 61.5201 35.1718C60.7567 36.298 60.2402 37.6721 59.9708 39.2939C59.7013 40.8707 59.4993 41.8393 59.3645 42.1997C59.2747 42.5601 59.1624 42.9655 59.0277 43.416C58.893 43.7314 58.7358 44.3621 58.5562 45.3082C58.3766 46.2092 58.3541 46.7723 58.4889 46.9976C58.9379 46.9976 59.2972 46.9751 59.5666 46.9301C59.881 46.6147 60.6444 46.5921 61.8569 46.8624L63.2041 46.7949C65.674 46.7949 67.1784 47.2454 67.7173 48.1464C68.0317 48.5969 68.0092 49.16 67.6499 49.8358C67.3356 50.4665 66.8641 50.8945 66.2353 51.1197L59.7013 51.9306L57.6131 52.3361C57.3886 52.9669 57.2539 53.7101 57.209 54.5661C57.1641 55.4221 57.0967 56.3231 57.0069 57.2692C56.9171 58.2153 56.8722 58.9361 56.8722 59.4316L56.8722 61.7295Z" fill="#137752"/>
<path d="M81.741 50.4442C81.6512 50.219 81.3369 50.1289 80.798 50.174C80.304 50.219 79.9223 50.4893 79.6528 50.9849C77.8116 53.9132 76.8237 57.0442 76.689 60.378C78.2158 60.7384 79.5181 60.0626 80.5959 58.3507C81.988 53.9357 82.3697 51.3003 81.741 50.4443V50.4442ZM76.4869 77.2719L75.8133 77.1368L74.8702 76.1907C74.6008 76.1907 74.3987 76.0781 74.264 75.8529C73.77 75.2672 72.8718 74.0958 71.5695 72.3389L70.5591 68.6222C70.5591 67.9014 70.4244 67.2707 70.1549 66.7301C69.7059 64.7028 69.4364 63.554 69.3466 63.2837C69.2568 62.9683 69.1894 62.1349 69.1445 60.7834C69.1445 59.4319 69.2119 58.4408 69.3466 57.81C69.4813 56.9541 70.3121 54.8367 71.839 51.4579C72.2431 51.0525 72.4901 50.5119 72.5799 49.8361L73.6577 48.2818C74.6457 47.1105 75.701 46.2545 76.8237 45.7139C76.8237 45.6238 77.5871 45.3986 79.1139 45.0382C79.4283 44.9932 80.1468 45.1058 81.2695 45.3761C83.9639 46.0068 85.648 46.7952 86.3216 47.7412L86.5237 48.0791C87.3769 49.2955 87.8709 51.165 88.0056 53.6879C87.8709 54.8142 87.7586 55.7602 87.6688 56.5261C87.579 57.2919 87.085 58.6885 86.1868 60.7158C85.5132 61.9772 84.8621 62.9908 84.2334 63.7567C83.2454 64.4775 82.5718 64.838 82.2125 64.838C82.0329 64.9281 81.6512 64.973 81.0674 64.973H79.5181C79.3834 64.928 79.0915 64.9055 78.6424 64.9055C78.1933 64.9055 77.5422 64.7929 76.6889 64.5676C76.6889 65.5587 76.9584 66.9778 77.4973 68.8249C78.0811 70.627 78.5526 71.7307 78.9119 72.1361C79.8549 72.857 80.5959 73.33 81.1348 73.5553C81.6737 73.7805 82.3922 73.8255 83.2903 73.6904C84.1885 73.5102 84.8396 73.1948 85.2438 72.7443L86.9952 70.5819C88.1179 69.0501 89.263 68.915 90.4306 70.1764C90.9695 70.7621 91.1716 71.3478 91.0368 71.9334C90.947 72.474 90.4979 73.5778 89.6896 75.2447C89.016 76.3259 88.2975 77.2269 87.5341 77.9477C86.1419 78.6685 85.3112 79.0289 85.0417 79.0289C84.6375 79.074 84.0088 79.0064 83.1556 78.8262C82.7065 79.0515 81.9431 79.029 80.8653 78.7587C80.8653 78.6686 80.7306 78.601 80.4612 78.556C80.2366 78.556 79.9223 78.4884 79.5181 78.3532L79.6528 78.2857C79.563 78.2857 79.2936 78.2857 78.8445 78.2857L76.9584 77.272L76.4869 77.2719Z" fill="#137752"/>
<path d="M110.636 72.7444L110.232 71.5956L109.491 67.068C109.266 66.212 109.154 65.4461 109.154 64.7704L109.423 61.797C109.423 61.3015 109.446 61.0312 109.491 60.9862C108.952 60.9862 108.143 61.6393 107.066 62.9458C106.976 63.0809 106.841 63.3062 106.661 63.6216C104.775 66.64 103.653 70.2666 103.293 74.5014C102.934 75.2673 102.463 75.6502 101.879 75.6502C100.666 75.3799 99.9927 75.2447 99.858 75.2447L99.3865 75.3122H98.5108C97.4779 75.2221 96.8043 74.8167 96.4899 74.0959C96.3103 73.8706 96.2205 73.285 96.2205 72.3389V71.3929L96.0184 67.6762V62.1349C96.0184 61.5042 95.9735 60.7158 95.8837 59.7698C95.7939 58.7336 95.7714 57.1117 95.8163 54.9043C95.8612 52.6517 95.8388 51.4579 95.749 51.3228C95.6592 51.1426 95.6143 50.9173 95.6143 50.647C95.6143 50.3767 95.6816 50.1064 95.8163 49.8361C95.951 49.5658 96.5573 49.2729 97.6351 48.9576C98.2189 48.5972 98.7129 48.417 99.117 48.417C99.7457 48.5521 100.554 48.8224 101.542 49.2279C102.216 49.363 102.552 50.0163 102.552 51.1876C102.642 53.1248 102.642 54.5213 102.552 55.3773C102.508 56.2333 102.53 57.9678 102.62 60.5807C105.943 54.1835 108.907 50.3317 111.511 49.0252C111.736 48.7999 112.073 48.6873 112.522 48.6873C112.971 48.6873 113.487 48.9126 114.071 49.3631C114.655 49.8136 115.059 50.1064 115.284 50.2415C115.508 50.3767 115.755 50.6019 116.025 50.9173C116.339 51.2326 116.586 51.4354 116.766 51.5255C117.304 52.4265 117.417 54.5439 117.102 57.8777C117.058 58.3732 117.013 58.8237 116.968 59.2292C116.923 59.5896 116.9 60.4004 116.9 61.6619C116.9 62.9233 116.923 63.8018 116.968 64.2974C117.102 65.8742 117.17 66.7977 117.17 67.068L117.507 69.6359C117.956 70.6721 118.18 71.483 118.18 72.0686C118.225 72.6092 118.629 73.4877 119.393 74.7041C119.707 75.3799 119.572 75.9205 118.989 76.3259C118.09 76.7764 117.596 76.9566 117.507 76.8665C117.462 76.8215 117.215 76.8665 116.766 77.0016C116.317 77.1818 115.508 77.2268 114.341 77.1368C113.757 77.0016 113.173 76.6412 112.589 76.0555L111.579 75.0419C111.22 74.5013 110.973 73.9157 110.838 73.285C110.613 73.0597 110.546 72.8795 110.636 72.7443L110.636 72.7444Z" fill="#137752"/>
<path d="M110.367 2.12043C108.671 2.34396 106.939 2.51025 105.317 3.12315C104.541 3.41662 103.888 3.95042 103.191 4.38912C102.013 5.13053 100.776 5.92545 99.8409 6.97234C98.9667 7.95124 98.3398 9.21987 97.8689 10.4372C97.3242 11.8454 96.8312 13.3889 96.6167 14.8811C96.5218 15.5418 96.3922 16.1571 96.4743 16.8364C96.7476 19.0969 98.2268 20.5231 100.179 21.4787C101.365 22.0592 102.378 22.3776 103.723 22.2427C104.198 22.1951 104.665 22.0629 105.14 22.0051C105.768 21.9287 106.485 21.9194 107.089 21.7332C107.506 21.6047 107.848 21.3475 108.241 21.1713C109.232 20.7273 110.197 20.3121 111.165 19.8128C112.279 19.2374 113.51 18.7822 114.531 18.0371C115.87 17.0606 116.924 15.3947 117.621 13.9034C117.86 13.3927 117.965 12.8442 118.113 12.3037C118.657 10.3151 118.874 8.20667 118.045 6.25999C117.666 5.37015 117.065 4.71299 116.392 4.03805C115.934 3.57944 115.464 3.12341 114.886 2.81714C114.224 2.46661 113.397 2.35853 112.671 2.23197C111.904 2.0983 111.15 2.01742 110.367 2.12043V2.12043Z" fill="#137752"/>
<path d="M121.353 3.72021C121.512 4.2733 121.809 4.78506 122.022 5.32001C122.423 6.32601 122.718 7.36419 122.91 8.43072C123.386 11.0699 123.124 13.9871 122.238 16.5186C121.767 17.8625 121.075 19.1283 120.506 20.4292C119.603 22.4926 118.844 24.6087 116.923 25.9587C116.541 26.2273 116.1 26.3437 115.683 26.5426C114.498 27.1085 113.093 27.6659 111.785 27.8714C111.315 27.9452 110.845 27.7646 110.367 27.8327C108.623 28.0814 107.015 28.4541 105.229 28.3313C103.222 28.1933 101.135 27.6067 99.3816 26.6129C98.8028 26.2849 98.2388 25.9352 97.6983 25.546C97.289 25.2512 96.9247 24.8935 96.458 24.6953C96.7951 25.4541 97.4991 25.8757 98.0373 26.4732C99.2614 27.832 100.491 29.1799 101.864 30.395C103.291 31.6592 104.624 33.2429 106.469 33.9076C107.604 34.3165 108.737 34.3982 109.924 34.4798C110.915 34.5478 111.942 34.6453 112.937 34.5455C114.818 34.3569 116.651 33.5505 118.341 32.7503C119.672 32.1198 120.978 31.5153 122.047 30.4569C123.955 28.5674 125.127 26.3635 126.119 23.8954C126.685 22.4894 127.211 21.0639 127.362 19.5404C127.461 18.5491 127.311 17.4205 127.215 16.4297C127.021 14.4098 126.593 12.5265 125.794 10.6527C125.331 9.56657 124.7 8.58883 124.179 7.54194C123.705 6.589 123.142 5.71898 122.494 4.87562C122.164 4.4459 121.852 3.9592 121.353 3.72021V3.72021Z" fill="#137752"/>
</svg>
