<?xml version="1.0" encoding="UTF-8"?>
<svg fill="none" viewBox="0 0 180 190" xmlns="http://www.w3.org/2000/svg">
<g clip-path="url(#a)">
<rect width="180" height="190" fill="#fff"/>
<path d="M181 3H1V193H181V3Z" fill="#fff"/>
<path d="m76.883 153.29c40.253 0 72.884-31.18 72.884-69.644 0-38.463-32.631-69.644-72.884-69.644-40.252 0-72.883 31.181-72.883 69.644 0 38.464 32.631 69.644 72.883 69.644z" fill="#FBF1A9"/>
<path d="m60.057 31.386c-2.9779 0.0116-3.383 2.9701-4.4552 5.2592-2.7252 5.5235-5.2647 11.289-8.0553 16.781-4.2575 0.4915-9.6862 0.2126-14.045 0.4877-3.4285 0.3078-9.0213-0.1446-12.36 0.8423-3.3716 1.4805-2.7014 3.7748 0.1643 5.8485 4.9418 4.7301 10.984 12.204 15.933 16.919-0.501 3.1586-1.784 6.2923-2.5401 9.4475-1.2373 4.2356-2.4886 8.4721-3.63 12.735-0.0207 2.5554 1.9258 4.8284 4.5333 4.9154 3.0653-0.089 5.4615-2.302 8.1694-3.481 4.5054-2.3603 9.9684-5.1226 14.504-7.4199 6.2027 4.0051 11.176 8.6619 17.364 12.69 1.6948 0.882 3.6713 0.683 5.2306-0.45 2.0859-1.492 1.9464-4.332 1.3413-6.5571-1.1361-6.3999-2.1046-12.852-3.3409-19.218 5.4394-4.7562 10.922-10.958 16.487-15.588 1.7713-1.347 4.1394-3.031 3.3852-5.0578-1.6097-3.6522-7.5529-2.9889-10.63-3.5205-5.6672-0.3357-10.485-0.3599-15.729-1.1424-2.6145-6.9395-5.0274-13.968-7.5816-20.939-0.7996-1.802-2.8435-2.6992-4.7445-2.5527zm0.5473 4.86c2.7848 7.6056 6.1766 14.742 8.9543 22.35 1.2841 0.6818 12.244 0.9706 19.096 1.4082 2.8726 0.4011 5.5858 0.9004 2.9845 2.9373-5.7621 4.6046-11.647 11.516-17.262 16.27 1.5434 7.9625 2.1364 14.921 3.6135 22.908-0.9224-0.078-2.4751-1.598-3.6395-2.2462-5.6005-3.788-10.364-7.1218-15.973-10.897-7.2263 3.7769-15.176 7.2091-22.436 10.916 0.216-1.8011 1.1712-4.1295 1.6393-6.1317 1.6955-5.7548 3.2512-11.556 5.0196-17.286-3.4188-4.013-7.2814-6.7718-10.964-10.596-1.8526-2.0888-6.1506-5.1489-7.3091-7.2887 7.886-0.2006 16.772-0.2067 24.654-0.4696 1.3843-0.3811 2.9082-4.4734 3.7164-5.5887 2.9947-6.1875 4.6784-10.215 7.6278-16.424 0.0994-0.0767 0.3139-0.023 0.2774 0.138z" clip-rule="evenodd" fill="#19A974" fill-rule="evenodd"/>
<path d="m132.62 80.537c-4.942-0.9634-13.496 0.3364-18.253 2.0655 2.112 1.4133 5.473 3.6051 7.92 5.1768 2.225 1.469 6.082 3.7157 6.166 4.4642-0.06 2.8721-4.156 0.0057-6.107-1.3541-13.48-8.8074-26.875-17.759-40.436-26.436-4.6683-1.7292-10.216 1.7079-10.822 6.6441-0.5759 3.5757 1.7871 7.0802 4.9784 8.5901 7.2437 4.6886 14.412 9.5809 21.7 14.143 3.0996 1.8965-1.5251 1.1797-2.8928 1.7629-4.6119 1.4575-7.1184 7.4069-4.3035 11.477 1.3126 1.617 4.001 4.042 0.0636 3.356-4.491 0.721-8.2223 5.959-6.3241 10.405 1.2472 2.366 3.4179 4.351 5.6167 5.876-1.0317 1.372-4.9378 1.047-6.1114 3.531-2.0417 2.657-2.6345 6.401-0.4856 9.247 0.9935 2.051 3.686 2.732 5.354 4.229 7.7932 4.902 15.289 10.29 23.216 14.966 3.673 1.218 7.69 1.777 11.572 1.078 2.742 0.153 5.445-2.857 7.861-1.902 2.868 2.029 5.579 4.023 8.313 6.135 6.188 4.448 14.653 3.543 20.459 0.025 5.182-3.974 8.953-9.896 11.415-14.81 2.206-5.921 2.256-14.77-1.965-19.122-4.892-3.422-10.116-6.323-15.022-9.744-1.194-2.797-1.195-6.011-2.323-8.883-2.195-6.565-4.883-12.995-8.328-18.933-1.542-3.0852-3.545-6.1167-5.605-8.8207-1.61-1.5236-3.384-2.7888-5.657-3.166z" clip-rule="evenodd" fill="#555" fill-rule="evenodd"/>
<path d="m133.93 172.75c-0.19-0.312-1.816-0.774-4.947-0.639-4.388-0.239-5.763 0.04-14.277-1.256-6.627-1.008-12.208-3.456-17.093-7.499-3.6427-2.997-3.4912-0.609-2.4634 0.242 4.9595 4.105 11.626 7.708 18.614 8.771 8.475 1.29 10.575 2.157 19.326 1.898 0.772-0.011 1.24-0.856 0.841-1.517z" fill="#555"/>
<path d="m119.36 179.28c-0.164-0.287-1.86-0.526-4.454-0.704-8.942-0.87-9.396-1.875-17.696-6.42-1.223-0.573-3.693 0.059 2.1504 3.288 7.9047 3.579 8.7917 4.395 18.032 5.293 2.698 0.287 2.375-0.747 1.968-1.457z" fill="#555"/>
</g>
<defs>
<clipPath id="a">
<rect width="180" height="190" fill="#fff"/>
</clipPath>
</defs>
</svg>
