<svg width="180" height="190" viewBox="0 0 180 190" fill="none" xmlns="http://www.w3.org/2000/svg">
<rect width="180" height="190" fill="white"/>
<path d="M83.8834 175.49C124.136 175.49 156.767 144.309 156.767 105.845C156.767 67.3819 124.136 36.2011 83.8834 36.2011C43.631 36.2011 11 67.3819 11 105.845C11 144.309 43.631 175.49 83.8834 175.49Z" fill="#FBF1A9"/>
<path d="M25.0213 123.946C24.6594 122.544 23.131 124.037 23.2092 125.482C23.5012 130.876 24.6095 134.088 29.5375 141.686C36.6924 151.718 40.5383 152.725 47.0563 155.457C49.6024 156.524 51.4525 155.863 50.6015 155.496C44.788 152.988 38.583 150.815 31.8867 141.426C27.0828 135.882 25.9053 129.839 25.0213 123.946V123.946Z" fill="#555555"/>
<path d="M38.3917 125.482C37.7698 123.905 36.4132 124.906 36.5834 125.41C38.3348 130.595 38.5646 131.702 42.8671 136.255C45.6725 138.683 49.3117 141.802 55.0277 143.696C58.1996 144.747 58.1399 142.718 57.4911 142.567C51.5918 141.195 49.0484 140.333 44.1324 135.189C39.1378 129.963 39.7977 129.046 38.3917 125.482V125.482Z" fill="#555555"/>
<path d="M159.114 75.8955C156.665 69.5725 157.53 75.1754 158.133 78.5304C159.346 85.2731 160.981 88.3184 158.597 99.4114C156.191 110.614 153.956 111.491 151.196 117.368C149.385 121.222 152.154 120.154 154.412 116.104C156.566 112.242 158.396 109.01 160.141 99.8128C162.688 87.9601 161.272 81.4661 159.114 75.8955V75.8955Z" fill="#555555"/>
<path d="M143.743 81.0736C142.195 77.7526 141.355 78.9391 142.652 82.8992C144.076 87.2438 145.563 89.0096 144.632 96.0636C143.687 103.231 142.388 103.377 140.608 106.984C139.398 109.435 139.938 111.641 141.322 109.158C143.289 105.627 145.316 104.338 146.334 96.6134C147.369 88.7764 145.961 85.8335 143.743 81.0736Z" fill="#555555"/>
<path fill-rule="evenodd" clip-rule="evenodd" d="M57.615 12.8161C53.5889 13.5056 50.8388 17.652 51.6372 21.5978C54.9886 29.6635 58.8559 37.5396 62.4271 45.5339C65.0253 51.168 67.2454 55.4686 69.8473 60.9804C71.3653 63.5881 66.2623 64.542 64.4829 61.0537C59.4351 50.2395 54.6279 39.297 49.4999 28.5255C47.6961 25.1844 43.3102 22.9012 39.7741 25.0435C35.3705 26.7996 34.1891 32.7318 36.7389 36.4933C42.3992 48.7308 47.9657 61.0429 53.6126 73.2705C54.8964 76.5946 51.3517 78.9231 49.3867 75.2967C45.0684 65.9778 40.9682 56.5018 36.4533 47.2707C34.4345 44.8928 30.7865 43.545 28.0921 45.4019C24.0827 47.075 23.3846 52.5501 25.7624 55.842C29.6621 65.1021 34.1684 74.1311 38.1125 83.3876C42.8389 93.157 46.8704 103.264 51.7334 112.959C53.2674 115.086 54.3107 117.674 56.2491 119.369C59.178 122.964 62.8381 125.781 67.1442 127.365C69.0918 128.661 72.1384 128.892 74.44 129.808C77.9959 129.801 82.7289 130.488 86.5877 129.43C89.7632 129.166 93.2928 128.127 96.3862 126.727C100.369 125.152 103.857 122.688 107.432 120.405C113.675 115.669 118.7 109.358 121.168 101.861C122.695 97.105 123.56 91.9665 123.745 87.0968C123.92 83.441 123.982 79.6469 123.713 75.813C123.625 71.4479 123.35 67.0879 123.896 62.6269C124.36 55.7894 126.36 49.2594 128.527 42.8245C130.451 39.3407 127.633 36.7727 124.283 36.53C121.57 36.914 118.362 37.3802 115.973 39.2164C110.651 42.6927 108.992 49.4117 108.707 55.3801C108.763 57.9819 107.218 64.0899 105.926 58.4741C99.3777 44.2362 92.8677 29.9349 86.3183 15.679C84.3465 11.8814 79.0049 10.8086 75.6444 13.4695C72.1601 15.7405 71.8424 20.7931 74.0049 24.1107C79.2579 35.523 86.6852 51.338 88.9291 57.5235C89.531 60.138 85.2241 59.8625 83.4192 56.9999C77.2402 43.49 71.6497 29.938 65.3489 16.493C63.7815 13.7619 60.6827 12.1438 57.615 12.8161ZM77.9984 75.8546C81.9606 77.1109 83.201 81.8444 83.7695 85.5015C84.1733 89.9695 87.2113 93.7606 86.8981 98.3759C88.323 102.622 84.0009 104.642 80.5443 103.957C77.2228 102.269 78.3922 96.1339 75.8388 94.8776C71.1906 94.8213 74.6449 99.3754 75.465 101.749C77.4384 105.373 72.9461 108.323 69.9186 108.357C66.0089 106.785 66.1575 101.762 64.6527 98.3914C63.2802 94.4184 61.7722 90.3362 61.1833 86.2348C61.1567 83.6413 62.297 79.6035 65.864 80.9393C69.846 82.6121 70.2607 87.2451 71.7395 90.7358C78.2758 92.3094 74.1639 84.5344 73.3014 81.2861C72.5669 79.1523 75.66 75.47 77.9984 75.8546ZM92.497 76.0475C95.2257 76.0134 99.6194 74.314 101.429 78.2635C102.875 83.3723 102.226 88.8212 103.104 94.055C104.574 97.9487 102.411 101.618 98.6243 102.724C93.4999 107.168 91.779 99.1699 92.2354 95.2366C91.4475 90.0708 91.7806 84.5866 90.1668 79.6348C88.9668 77.9778 90.6646 75.6927 92.497 76.0475Z" fill="#555555"/>
</svg>
