<svg width="1440" height="400" viewBox="0 0 1440 400" fill="none" xmlns="http://www.w3.org/2000/svg">
<rect width="1440" height="400" fill="white"/>
<rect width="1440" height="400" fill="#F7BF08"/>
<g clip-path="url(#clip0)">
<path d="M472.75 399.546C469.882 397.895 467.649 392.765 469.06 391.066C470.832 388.93 472.905 389.285 472.294 391.62C471.911 393.086 472.456 393.861 474.388 394.595C477.313 395.707 477.566 396.508 475.75 398.904C474.816 400.137 474.058 400.299 472.75 399.546ZM1039 398.828C1039 398.291 1039.71 397.578 1040.58 397.244C1041.56 396.87 1042.01 397.094 1041.77 397.825C1041.27 399.319 1039 400.143 1039 398.828ZM848 397.579C848 396.996 848.45 396.798 849 397.138C849.55 397.478 850 397.954 850 398.197C850 398.439 849.55 398.638 849 398.638C848.45 398.638 848 398.161 848 397.579ZM49.1804 395.388C49.4307 393.625 50.1502 393.138 52.5 393.138C54.8498 393.138 55.5693 393.625 55.8195 395.388C56.1007 397.367 55.7019 397.638 52.5 397.638C49.2981 397.638 48.8993 397.367 49.1804 395.388ZM230 395.638C228.718 394.809 228.754 394.666 230.25 394.653C231.213 394.645 232 395.088 232 395.638C232 396.857 231.887 396.857 230 395.638ZM810.667 393.971C809.501 392.805 809.942 391.886 811.916 391.37C813.779 390.883 816 392.224 816 393.838C816 394.803 811.608 394.913 810.667 393.971ZM1353.03 393.677C1352.22 393.165 1351.86 392.441 1352.24 392.069C1353.15 391.154 1356 392.317 1356 393.606C1356 394.876 1354.96 394.901 1353.03 393.677V393.677ZM32.3365 392.91C28.0569 392.521 25.952 390.286 27.9672 388.271C28.5352 387.702 29 386.176 29 384.878C29 382.859 29.3982 382.584 31.75 382.973C37.3889 383.907 40 384.889 40 386.077C40 386.75 41.125 387.902 42.5 388.638C43.875 389.374 45 390.361 45 390.832C45 391.919 40.4048 393.693 38.1849 393.463C37.2582 393.367 34.6264 393.118 32.3365 392.91V392.91ZM168.667 388.971C167.516 387.82 167.938 386.638 169.5 386.638C170.325 386.638 171 387.313 171 388.138C171 389.699 169.817 390.122 168.667 388.971ZM374 388.058C374 385.978 375.888 385.383 377.47 386.965C378.742 388.237 378.616 388.478 376.462 388.89C374.865 389.195 374 388.902 374 388.058V388.058ZM1345.6 388.038C1344.58 385.37 1344.91 384.899 1347.5 385.393C1350.48 385.963 1350.71 387.187 1348.1 388.584C1346.64 389.364 1346.06 389.236 1345.6 388.038ZM211.5 387.638C211.16 387.088 211.16 386.188 211.5 385.638C212.431 384.131 216.709 384.438 217.33 386.055C218.179 388.269 212.794 389.731 211.5 387.638V387.638ZM594.638 387.138C594.955 386.313 595.605 385.638 596.082 385.638C596.56 385.638 596.523 384.513 596 383.138C595.118 380.818 595.264 380.638 598.025 380.638C600.003 380.638 601 381.141 601 382.138C601 382.963 600.498 383.638 599.883 383.638C599.232 383.638 598.966 384.679 599.245 386.138C599.663 388.328 599.372 388.638 596.893 388.638C594.788 388.638 594.21 388.254 594.638 387.138H594.638ZM660 387.745C660 386.731 663.046 385.35 663.743 386.048C663.995 386.299 663.904 386.985 663.541 387.571C662.743 388.862 660 388.997 660 387.745V387.745ZM836.691 387.916C833.224 387.395 833.664 385.255 837.327 384.822C839.464 384.569 840 384.919 840 386.572C840 387.708 839.887 388.571 839.75 388.488C839.612 388.406 838.236 388.148 836.691 387.916V387.916ZM652 383.079C652 382.221 652.457 381.803 653.016 382.148C653.575 382.493 653.774 383.195 653.457 383.707C652.6 385.094 652 384.835 652 383.079V383.079ZM187.343 380.09C186.999 379.193 187.539 377.957 188.625 377.153C191.465 375.05 194 374.615 194 376.232C194 377.005 193.55 377.638 193 377.638C192.45 377.638 192 378.538 192 379.638C192 382.065 188.241 382.43 187.343 380.09V380.09ZM984.476 380.599C983.468 378.968 985.707 376.945 987.042 378.28C987.766 379.003 987.64 379.692 986.631 380.529C985.557 381.42 984.995 381.439 984.476 380.599V380.599ZM803.53 379.686C802.667 378.29 803.767 376.638 805.559 376.638C807.395 376.638 807.41 378.053 805.589 379.564C804.624 380.365 803.973 380.403 803.53 379.686ZM906.216 377.793C904.087 376.442 905.804 373.878 908.493 374.392C910.563 374.788 910.726 375.104 909.702 376.744C908.381 378.859 908.053 378.958 906.216 377.793V377.793ZM142.46 372.559C140.432 368.558 140.137 367.178 141.066 366.059C142.833 363.929 144.904 364.289 144.294 366.62C143.911 368.086 144.456 368.861 146.388 369.595C147.825 370.142 149 370.847 149 371.163C149 372.088 145.992 377.638 145.491 377.638C145.24 377.638 143.876 375.352 142.46 372.559V372.559ZM819.244 376.388C819.881 374.447 825 374.166 825 376.072C825 377.155 824.049 377.638 821.917 377.638C819.898 377.638 818.975 377.206 819.244 376.388ZM194.669 374.473C192.326 373.161 192.591 370.992 195.474 367.882L197.948 365.214L200.779 367.926C202.336 369.418 204.383 370.638 205.328 370.638C206.919 370.638 206.928 370.818 205.45 373.074C204.213 374.962 203.007 375.499 200.096 375.459C198.029 375.43 195.587 374.986 194.669 374.473V374.473ZM388.5 374.638C388.16 374.088 388.16 373.188 388.5 372.638C389.431 371.131 393.709 371.438 394.33 373.055C395.179 375.269 389.794 376.731 388.5 374.638V374.638ZM264.5 372.638C264.16 372.088 264.359 371.638 264.941 371.638C265.523 371.638 266 372.088 266 372.638C266 373.188 265.802 373.638 265.559 373.638C265.316 373.638 264.84 373.188 264.5 372.638ZM755.446 372.551C755.077 371.953 755.294 370.944 755.929 370.309C756.801 369.437 757.314 369.519 758.026 370.646C758.545 371.467 758.976 372.475 758.985 372.888C759.008 374.043 756.203 373.776 755.446 372.551ZM213 370.721C213 369.493 213.646 368.638 214.573 368.638C215.505 368.638 216.015 369.318 215.823 370.305C215.337 372.814 213 373.158 213 370.721ZM696.5 370.638C696.84 370.088 697.316 369.638 697.559 369.638C697.802 369.638 698 370.088 698 370.638C698 371.188 697.523 371.638 696.941 371.638C696.359 371.638 696.16 371.188 696.5 370.638ZM263.209 367.601C261.341 364.61 261.749 361.852 264.174 361.083C265.693 360.601 266.747 360.939 267.674 362.207C269.42 364.594 269.349 365.638 267.441 365.638C266.584 365.638 266.129 366.037 266.43 366.525C266.731 367.012 266.402 367.889 265.698 368.474C264.754 369.257 264.1 369.028 263.209 367.601V367.601ZM1436.69 368.938C1434.54 368.38 1434.97 366.272 1437.33 365.815C1438.46 365.597 1439 366.167 1439 367.565C1439 368.705 1438.89 369.586 1438.75 369.522C1438.61 369.458 1437.69 369.195 1436.69 368.938ZM364.343 367.09C363.999 366.193 364.539 364.957 365.625 364.153C368.465 362.05 371 361.615 371 363.232C371 364.005 370.55 364.638 370 364.638C369.45 364.638 369 365.538 369 366.638C369 369.065 365.241 369.43 364.343 367.09ZM582.667 366.971C581.516 365.821 581.938 364.638 583.5 364.638C584.325 364.638 585 365.313 585 366.138C585 367.699 583.817 368.122 582.667 366.971ZM1057 365.579C1057 364.446 1057.45 363.798 1058 364.138C1058.55 364.478 1059 365.404 1059 366.197C1059 366.99 1058.55 367.638 1058 367.638C1057.45 367.638 1057 366.711 1057 365.579ZM1029 365.745C1029 364.731 1032.05 363.35 1032.74 364.048C1032.99 364.299 1032.9 364.985 1032.54 365.571C1031.74 366.862 1029 366.997 1029 365.745V365.745ZM1358.79 364.592C1357.17 363.638 1357.17 363.398 1358.83 360.426C1360.98 356.585 1362 356.17 1364.54 358.105C1365.89 359.137 1366.15 359.838 1365.37 360.369C1364.74 360.792 1364.06 362.033 1363.85 363.126C1363.42 365.423 1361.25 366.049 1358.79 364.592H1358.79ZM1152.5 362.638C1152.84 362.088 1153.57 361.638 1154.12 361.638C1154.67 361.638 1154.84 362.088 1154.5 362.638C1154.16 363.188 1153.43 363.638 1152.88 363.638C1152.33 363.638 1152.16 363.188 1152.5 362.638ZM371.669 361.473C369.263 360.126 369.602 358.276 372.901 354.744C375.82 351.619 377.893 350.784 378.125 352.638C378.374 354.627 378.544 355.158 379.324 356.388C379.761 357.075 381.002 357.638 382.082 357.638C383.933 357.638 383.955 357.778 382.45 360.074C381.213 361.962 380.007 362.499 377.096 362.459C375.029 362.43 372.587 361.986 371.669 361.473ZM340 360.245C340 359.479 340.732 358.571 341.627 358.228C343.459 357.524 346.271 359.39 345.43 360.751C344.533 362.203 340 361.78 340 360.245ZM676 357.638C676 357.088 676.45 356.638 677 356.638C677.55 356.638 678 357.088 678 357.638C678 358.188 677.55 358.638 677 358.638C676.45 358.638 676 358.188 676 357.638ZM882 357.638C882 357.088 882.45 356.638 883 356.638C883.55 356.638 884 357.088 884 357.638C884 358.188 883.55 358.638 883 358.638C882.45 358.638 882 358.188 882 357.638ZM1420.5 357.638C1420.16 357.088 1420.61 356.638 1421.5 356.638C1422.39 356.638 1422.84 357.088 1422.5 357.638C1422.16 358.188 1421.71 358.638 1421.5 358.638C1421.29 358.638 1420.84 358.188 1420.5 357.638ZM10 356.262C10 355.334 10.6944 354.309 11.5431 353.983C13.9697 353.052 14.2047 354.143 12.0061 356.132C10.1754 357.789 10 357.8 10 356.262V356.262ZM1045.5 355.638C1045.16 355.088 1045.16 354.193 1045.49 353.649C1045.85 353.064 1045.41 352.927 1044.4 353.313C1043 353.851 1042.79 353.498 1043.21 351.302C1043.49 349.837 1043.33 348.638 1042.86 348.638C1042.38 348.638 1042 348.277 1042 347.836C1042 347.395 1043.48 346.992 1045.29 346.941C1048.18 346.859 1048.7 347.254 1049.64 350.243C1050.48 352.952 1050.43 353.638 1049.35 353.638C1048.61 353.638 1048 354.313 1048 355.138C1048 356.836 1046.43 357.149 1045.5 355.638H1045.5ZM556.46 350.559C554.432 346.558 554.136 345.178 555.066 344.059C556.833 341.929 558.904 342.289 558.294 344.62C557.911 346.086 558.456 346.861 560.388 347.595C561.825 348.142 563 348.847 563 349.163C563 350.088 559.992 355.638 559.491 355.638C559.24 355.638 557.876 353.352 556.46 350.559V350.559ZM53.7494 352.168C54.7705 346.827 59.0758 346.393 58.7072 351.669C58.5341 354.145 58.0696 354.634 55.8887 354.636C53.6507 354.636 53.3448 354.285 53.7494 352.168V352.168ZM706.5 351.638C706.84 351.088 707.568 350.638 708.118 350.638C708.668 350.638 708.84 351.088 708.5 351.638C708.16 352.188 707.432 352.638 706.882 352.638C706.332 352.638 706.16 352.188 706.5 351.638V351.638ZM912.5 351.638C912.84 351.088 913.568 350.638 914.118 350.638C914.668 350.638 914.84 351.088 914.5 351.638C914.16 352.188 913.432 352.638 912.882 352.638C912.332 352.638 912.16 352.188 912.5 351.638ZM1199.04 351.182C1197.79 349.686 1198.39 347.638 1200.06 347.638C1201.03 347.638 1205 351.252 1205 352.138C1205 353.296 1200.14 352.518 1199.04 351.182ZM776 349.638C776 349.088 776.45 348.638 777 348.638C777.55 348.638 778 349.088 778 349.638C778 350.188 777.55 350.638 777 350.638C776.45 350.638 776 350.188 776 349.638ZM959 348.058C959 345.978 960.888 345.383 962.47 346.965C963.742 348.237 963.616 348.478 961.462 348.89C959.865 349.195 959 348.903 959 348.058V348.058ZM1293.96 347.807C1292.22 346.397 1291.85 345.368 1292.36 343.335C1293.66 338.146 1299.92 337.464 1300.08 342.495C1300.13 343.949 1300.28 346.15 1300.42 347.388C1300.73 350.249 1297.25 350.474 1293.96 347.807V347.807ZM258 348.26C258 348.053 258.788 347.265 259.75 346.51C261.336 345.267 261.371 345.302 260.128 346.888C258.821 348.554 258 349.083 258 348.26ZM266.5 345.638C266.16 345.088 266.584 344.638 267.441 344.638C268.298 344.638 269 345.088 269 345.638C269 346.188 268.577 346.638 268.059 346.638C267.541 346.638 266.84 346.188 266.5 345.638ZM1336.67 345.971C1334.08 343.39 1338.42 337.002 1341.99 338.133C1343.91 338.743 1343.99 339.002 1342.69 340.479C1341.89 341.391 1340.93 343.15 1340.55 344.388C1339.89 346.571 1338.02 347.33 1336.67 345.971V345.971ZM171.032 343.857C171.074 342.899 173.575 339.638 174.267 339.638C175.392 339.638 173.746 343.521 172.401 344.037C171.631 344.333 171.014 344.252 171.032 343.857V343.857ZM328 343.756C328 343.206 328.45 342.478 329 342.138C329.55 341.798 330 341.97 330 342.52C330 343.07 329.55 343.798 329 344.138C328.45 344.478 328 344.306 328 343.756ZM359.5 343.638C359.16 343.088 359.61 342.638 360.5 342.638C361.39 342.638 361.84 343.088 361.5 343.638C361.16 344.188 360.71 344.638 360.5 344.638C360.29 344.638 359.84 344.188 359.5 343.638ZM785 343.638C785 343.088 785.45 342.638 786 342.638C786.55 342.638 787 343.088 787 343.638C787 344.188 786.55 344.638 786 344.638C785.45 344.638 785 344.188 785 343.638ZM161.63 341.388C160.589 337.504 160.927 336.638 163.481 336.638C165.293 336.638 166.131 337.312 166.589 339.138C166.934 340.513 167.731 341.67 168.358 341.708C169.934 341.805 165.886 343.481 163.867 343.568C162.968 343.607 161.962 342.625 161.63 341.388V341.388ZM1183.5 339.638C1183.16 339.088 1183.61 338.638 1184.5 338.638C1185.39 338.638 1185.84 339.088 1185.5 339.638C1185.16 340.188 1184.71 340.638 1184.5 340.638C1184.29 340.638 1183.84 340.188 1183.5 339.638ZM246 336.338C246 335.623 246.508 334.53 247.128 333.91C248.167 332.871 249.554 333.234 252.971 335.442C253.23 335.61 252.78 336.165 251.971 336.677C249.799 338.051 246 337.835 246 336.338ZM595.5 335.638C595.84 335.088 596.793 334.638 597.618 334.638C598.443 334.638 598.84 335.088 598.5 335.638C598.16 336.188 597.207 336.638 596.382 336.638C595.557 336.638 595.16 336.188 595.5 335.638ZM965.759 335.479C963.609 334.693 963.285 334.224 964.259 333.302C964.941 332.655 966.768 332.062 968.318 331.984C970.428 331.877 970.993 332.213 970.568 333.321C970.256 334.135 970 335.215 970 335.72C970 336.825 969.341 336.787 965.759 335.479V335.479ZM165 333.138C165 332.221 165.484 331.632 166.075 331.829C166.666 332.027 167.15 332.615 167.15 333.138C167.15 333.66 166.666 334.249 166.075 334.446C165.484 334.643 165 334.054 165 333.138ZM669.29 332.295C667.211 331.263 666.716 328.589 668.308 326.997C668.688 326.616 669 325.506 669 324.53C669 321.249 670.692 321.671 673.991 325.776C676.604 329.027 676.988 330.032 675.884 330.731C675.123 331.213 674.95 331.621 675.5 331.638C676.05 331.655 675.825 332.105 675 332.638C673.201 333.801 672.202 333.741 669.29 332.295V332.295ZM682 332.638C682 332.088 682.45 331.638 683 331.638C683.55 331.638 684 332.088 684 332.638C684 333.188 683.55 333.638 683 333.638C682.45 333.638 682 333.188 682 332.638ZM875.29 332.295C873.211 331.263 872.716 328.589 874.307 326.997C874.688 326.616 875 325.506 875 324.53C875 321.249 876.692 321.671 879.99 325.776C882.604 329.027 882.987 330.032 881.884 330.731C881.123 331.213 880.95 331.621 881.5 331.638C882.05 331.655 881.825 332.105 881 332.638C879.201 333.801 878.202 333.741 875.29 332.295ZM888 332.638C888 332.088 888.45 331.638 889 331.638C889.55 331.638 890 332.088 890 332.638C890 333.188 889.55 333.638 889 333.638C888.45 333.638 888 333.188 888 332.638ZM602.676 331.236C602.348 330.381 602.958 329.621 604.243 329.285C607.254 328.497 608.434 329.591 606.31 331.202C603.995 332.957 603.339 332.963 602.676 331.236V331.236ZM775 328.638C775 328.088 775.873 327.638 776.941 327.638C778.008 327.638 779.16 328.088 779.5 328.638C779.851 329.205 779.01 329.638 777.559 329.638C776.152 329.638 775 329.188 775 328.638ZM782 328.638C782 328.088 782.45 327.638 783 327.638C783.55 327.638 784 328.088 784 328.638C784 329.188 783.55 329.638 783 329.638C782.45 329.638 782 329.188 782 328.638ZM1016.74 328.063C1014 326.573 1014 326.559 1015.94 324.474C1018.44 321.784 1020.63 322.649 1021.2 326.558C1021.71 330.012 1020.86 330.297 1016.74 328.063V328.063ZM1405.18 324.388C1405.43 322.625 1406.15 322.138 1408.5 322.138C1410.85 322.138 1411.57 322.625 1411.82 324.388C1412.1 326.367 1411.7 326.638 1408.5 326.638C1405.3 326.638 1404.9 326.367 1405.18 324.388ZM761 322.842C761 322.383 762.575 321.257 764.5 320.339C767.903 318.716 768.739 318.99 767.235 321.234C766.316 322.604 761 323.975 761 322.842V322.842ZM219.924 318.728C217.957 316.669 216.055 314.223 215.697 313.291C215.34 312.359 213.665 311.321 211.976 310.983C209.942 310.576 209.006 309.851 209.203 308.836C209.608 306.748 212 306.08 212 308.054C212 308.925 212.45 309.638 213 309.638C213.55 309.638 214 309.204 214 308.673C214 308.142 214.937 307.206 216.083 306.593C217.748 305.702 218.556 305.831 220.106 307.234C221.173 308.2 223.61 309.023 225.52 309.064C229.087 309.14 230.063 310.016 227.624 310.952C225.842 311.636 226.715 316.638 228.617 316.638C230.262 316.638 230.384 318.053 228.965 320.704C227.389 323.648 223.896 322.885 219.924 318.728ZM991 321.638C991 321.088 991.45 320.638 992 320.638C992.55 320.638 993 321.088 993 321.638C993 322.188 992.55 322.638 992 322.638C991.45 322.638 991 322.188 991 321.638ZM1388.34 321.91C1384.06 321.521 1381.95 319.286 1383.97 317.271C1384.54 316.703 1385 315.176 1385 313.878C1385 311.859 1385.4 311.584 1387.75 311.973C1393.39 312.907 1396 313.889 1396 315.077C1396 315.75 1397.12 316.902 1398.5 317.638C1399.87 318.374 1401 319.361 1401 319.832C1401 320.919 1396.4 322.693 1394.18 322.463C1393.26 322.367 1390.63 322.118 1388.34 321.91V321.91ZM1193.94 319.062C1192.85 317.755 1192.87 317.33 1194.06 316.577C1196.09 315.293 1197.62 315.419 1196.28 316.76C1195.66 317.377 1195.39 318.502 1195.69 319.26C1196.39 321.101 1195.55 321.005 1193.94 319.062ZM1360.93 319.388C1360.06 316.476 1360.24 314.638 1361.39 314.638C1362.15 314.638 1363.51 313.513 1364.41 312.138C1365.4 310.616 1366.99 309.638 1368.45 309.638C1370.48 309.638 1370.82 310.071 1370.58 312.388C1370.38 314.389 1369.24 315.746 1366.4 317.371C1362.83 319.414 1361.12 320.045 1360.93 319.388ZM925.525 317.678C924.284 315.671 927.423 312.638 930.74 312.638C934.925 312.638 935.09 315.023 931.05 317.112C927.628 318.882 926.35 319.013 925.525 317.678ZM1011.03 316.677C1010.22 316.165 1009.86 315.441 1010.24 315.069C1011.15 314.154 1014 315.317 1014 316.606C1014 317.877 1012.96 317.901 1011.03 316.677V316.677ZM1324.5 316.638C1324.84 316.088 1325.32 315.638 1325.56 315.638C1325.8 315.638 1326 316.088 1326 316.638C1326 317.188 1325.52 317.638 1324.94 317.638C1324.36 317.638 1324.16 317.188 1324.5 316.638ZM131.25 313.388C131.872 311.519 134.662 311.316 135.343 313.089C135.784 314.238 135.279 314.638 133.385 314.638C131.788 314.638 130.989 314.17 131.25 313.388V313.388ZM883.694 312.998C882.761 312.065 883.888 310.638 885.559 310.638C886.351 310.638 887 311.313 887 312.138C887 313.644 884.889 314.193 883.694 312.998ZM344.18 310.388C344.431 308.625 345.15 308.138 347.5 308.138C349.85 308.138 350.569 308.625 350.82 310.388C351.101 312.367 350.702 312.638 347.5 312.638C344.298 312.638 343.899 312.367 344.18 310.388ZM1003.6 311.038C1002.58 308.37 1002.91 307.899 1005.5 308.393C1008.48 308.963 1008.71 310.187 1006.1 311.584C1004.64 312.363 1004.06 312.235 1003.6 311.038ZM200 309.638C200 309.088 200.413 308.638 200.918 308.638C201.423 308.638 202.661 308.329 203.668 307.951C205.281 307.346 205.336 307.465 204.128 308.951C202.627 310.795 200 311.233 200 309.638V309.638ZM1074 308.638C1074 308.088 1074.41 307.638 1074.92 307.638C1075.42 307.638 1076.66 307.329 1077.67 306.951C1079.28 306.346 1079.34 306.465 1078.13 307.951C1076.63 309.795 1074 310.233 1074 308.638ZM1083.18 307.971C1083.66 305.496 1085.67 305.254 1086.28 307.597C1086.68 309.144 1086.33 309.638 1084.83 309.638C1083.52 309.638 1082.96 309.074 1083.18 307.971ZM327.337 307.91C323.057 307.521 320.952 305.286 322.967 303.271C323.535 302.702 324 301.176 324 299.878C324 297.859 324.398 297.584 326.75 297.973C332.389 298.907 335 299.889 335 301.077C335 301.75 336.125 302.902 337.5 303.638C338.875 304.374 340 305.361 340 305.831C340 306.919 335.405 308.693 333.185 308.463C332.258 308.367 329.626 308.118 327.337 307.91V307.91ZM1168.18 306.388C1168.43 304.625 1169.15 304.138 1171.5 304.138C1173.85 304.138 1174.57 304.625 1174.82 306.388C1175.1 308.367 1174.7 308.638 1171.5 308.638C1168.3 308.638 1167.9 308.367 1168.18 306.388ZM611.122 304.734C609.016 303.4 610.873 301.389 613.582 302.069C615.337 302.509 615.81 302.305 615.415 301.278C615.07 300.379 615.781 299.722 617.442 299.404C620.434 298.832 625 299.551 625 300.594C625 301.84 620.291 303.527 618.281 303.001C617.218 302.723 615.779 303.199 615.058 304.068C613.57 305.861 613.042 305.951 611.122 304.734V304.734ZM817.122 304.734C815.016 303.4 816.872 301.389 819.582 302.069C821.337 302.509 821.81 302.305 821.415 301.278C821.07 300.379 821.781 299.722 823.442 299.404C826.434 298.832 831 299.551 831 300.594C831 301.84 826.291 303.527 824.281 303.001C823.217 302.723 821.779 303.199 821.058 304.068C819.569 305.861 819.042 305.951 817.122 304.734ZM116.5 303.638C116.16 303.088 116.61 302.638 117.5 302.638C118.39 302.638 118.84 303.088 118.5 303.638C118.16 304.188 117.71 304.638 117.5 304.638C117.29 304.638 116.84 304.188 116.5 303.638ZM296 303.138C296 302.313 296.852 301.638 297.893 301.638C298.934 301.638 300.045 302.313 300.362 303.138C300.777 304.221 300.252 304.638 298.469 304.638C296.941 304.638 296 304.066 296 303.138V303.138ZM1151.34 303.91C1147.06 303.521 1144.95 301.286 1146.97 299.271C1147.54 298.703 1148 297.176 1148 295.878C1148 293.859 1148.4 293.584 1150.75 293.973C1156.39 294.907 1159 295.889 1159 297.077C1159 297.75 1160.12 298.902 1161.5 299.638C1162.87 300.374 1164 301.361 1164 301.832C1164 302.919 1159.4 304.693 1157.18 304.463C1156.26 304.367 1153.63 304.118 1151.34 303.91V303.91ZM38.362 299.43C39.5946 297.456 41.5396 297.084 42.5 298.638C42.8399 299.188 42.6149 299.638 42 299.638C41.3851 299.638 41.1582 300.085 41.4959 300.631C41.8484 301.202 41.0738 301.539 39.6764 301.423C37.6019 301.251 37.408 300.957 38.362 299.43ZM1123.93 301.388C1123.06 298.476 1123.24 296.638 1124.39 296.638C1125.15 296.638 1126.51 295.513 1127.41 294.138C1128.4 292.616 1129.99 291.638 1131.45 291.638C1133.48 291.638 1133.82 292.071 1133.58 294.388C1133.38 296.389 1132.24 297.746 1129.4 299.371C1125.83 301.414 1124.12 302.045 1123.93 301.388ZM601.5 299.263C603.103 298.068 603.252 297.521 602.25 296.505C600.418 294.647 600.706 293.7 603.419 292.669C606.453 291.515 610.69 293.343 611.416 296.12C612.122 298.819 611.371 299.281 605 300.071C599.978 300.694 599.674 300.624 601.5 299.263V299.263ZM807.5 299.263C809.103 298.068 809.252 297.521 808.25 296.505C806.418 294.647 806.706 293.7 809.419 292.669C812.453 291.515 816.69 293.343 817.416 296.12C818.122 298.819 817.37 299.281 811 300.071C805.978 300.694 805.674 300.624 807.5 299.263V299.263ZM1255.75 299.246C1253.35 297.422 1253.55 294.914 1256.17 294.083C1257.71 293.594 1258.72 293.938 1259.64 295.265C1260.35 296.295 1261.4 297.681 1261.97 298.346C1262.53 299.01 1263 299.797 1263 300.096C1263 301.186 1257.45 300.536 1255.75 299.246ZM190 298.72C190 296.7 191.287 294.638 192.548 294.638C194.824 294.638 195.292 296.701 193.35 298.173C191.185 299.813 190 300.006 190 298.72V298.72ZM792.591 298.785C792.301 298.316 792.716 297.079 793.513 296.035C794.75 294.415 795.103 294.352 795.924 295.604C796.552 296.562 796.516 297.516 795.82 298.354C794.589 299.838 793.345 300.004 792.591 298.785V298.785ZM1064 297.72C1064 295.7 1065.29 293.638 1066.55 293.638C1068.82 293.638 1069.29 295.701 1067.35 297.173C1065.19 298.813 1064 299.006 1064 297.72V297.72ZM52.591 295.785C52.3012 295.316 52.7161 294.079 53.513 293.035C54.75 291.415 55.1027 291.352 55.9238 292.604C56.552 293.562 56.5161 294.516 55.8204 295.354C54.5885 296.838 53.3447 297.004 52.591 295.785ZM224.596 293.388C221.378 288.397 220.635 285.783 221.975 284.167C222.674 283.326 224.09 282.638 225.122 282.638C226.767 282.638 227 283.446 227 289.138C227 292.713 226.785 295.638 226.523 295.638C226.261 295.638 225.393 294.625 224.596 293.388ZM416 294.828C416 294.291 416.713 293.578 417.584 293.244C418.557 292.87 419.015 293.094 418.771 293.825C418.273 295.319 416 296.142 416 294.828ZM1086.98 293.119C1085.95 291.876 1086.05 291.24 1087.52 289.619C1088.5 288.529 1089.87 287.638 1090.55 287.638C1091.23 287.638 1092.02 287.035 1092.3 286.297C1092.63 285.427 1093.9 285.116 1095.91 285.411C1099.01 285.866 1099.87 286.984 1098 288.138C1097.45 288.478 1097 289.779 1097 291.03C1097 293.949 1096.02 294.902 1094.41 293.56C1093.5 292.812 1092.54 292.814 1091.13 293.569C1088.57 294.937 1088.49 294.928 1086.98 293.119V293.119ZM182.25 291.388C182.88 289.496 186 289.227 186 291.064C186 291.992 185.145 292.638 183.917 292.638C182.695 292.638 182.005 292.121 182.25 291.388ZM585.5 290.638C585.16 290.088 585.359 289.638 585.941 289.638C586.523 289.638 587 290.088 587 290.638C587 291.188 586.802 291.638 586.559 291.638C586.316 291.638 585.84 291.188 585.5 290.638ZM749.71 289.638C749.276 287.977 749.68 287.638 752.094 287.638C755.244 287.638 756.158 289.979 753.418 291.031C750.893 292 750.266 291.764 749.71 289.638V289.638ZM1056.25 290.388C1056.88 288.496 1060 288.227 1060 290.064C1060 290.992 1059.15 291.638 1057.92 291.638C1056.69 291.638 1056.01 291.121 1056.25 290.388ZM637.085 284.797C636.028 282.821 636.54 281.638 638.454 281.638C639.802 281.638 640.243 285.37 638.987 286.146C638.499 286.447 637.644 285.84 637.085 284.797ZM843.085 284.797C842.028 282.821 842.54 281.638 844.454 281.638C845.802 281.638 846.243 285.37 844.987 286.146C844.499 286.447 843.644 285.84 843.085 284.797V284.797ZM1366 285.261C1366 284.334 1366.69 283.309 1367.54 282.983C1369.97 282.052 1370.2 283.143 1368.01 285.132C1366.18 286.789 1366 286.8 1366 285.261ZM21 284.638C21 284.088 21.4766 283.638 22.059 283.638C22.6415 283.638 22.8399 284.088 22.5 284.638C22.1601 285.188 21.6835 285.638 21.441 285.638C21.1984 285.638 21 285.188 21 284.638ZM533 284.638C533 284.088 533.477 283.638 534.059 283.638C534.641 283.638 534.84 284.088 534.5 284.638C534.16 285.188 533.684 285.638 533.441 285.638C533.198 285.638 533 285.188 533 284.638ZM177.955 279.738C174.905 276.641 174.555 275.82 175.451 273.867C176.06 272.537 177.945 271.192 179.996 270.622C184.769 269.296 188.292 269.357 187.431 270.75C187.053 271.361 187.352 272.237 188.096 272.697C189.172 273.362 188.995 274.015 187.224 275.9C186.001 277.201 185 278.935 185 279.752C185 281.273 183.039 283.757 182.05 283.488C181.747 283.406 179.905 281.719 177.955 279.738V279.738ZM1051.87 278.738C1048.76 275.654 1048.4 274.851 1049.37 273.138C1052.16 268.208 1053.97 268.591 1056.84 274.714C1058.72 278.715 1058.94 280 1057.97 281.173C1056.39 283.08 1056.15 282.985 1051.87 278.738V278.738ZM618 276.72C618 274.727 619.28 272.638 620.5 272.638C622.285 272.638 623.079 275.158 621.722 276.516C620.369 277.869 618 277.998 618 276.72ZM824 276.72C824 274.727 825.28 272.638 826.5 272.638C828.285 272.638 829.079 275.158 827.722 276.516C826.369 277.869 824 277.998 824 276.72ZM969.476 276.599C968.468 274.968 970.707 272.945 972.042 274.28C972.766 275.003 972.64 275.692 971.631 276.529C970.557 277.42 969.995 277.439 969.476 276.599V276.599ZM1182 276.638C1180.72 275.809 1180.75 275.666 1182.25 275.653C1183.21 275.645 1184 276.088 1184 276.638C1184 277.857 1183.89 277.857 1182 276.638ZM1322 276.245C1322 275.479 1322.73 274.571 1323.63 274.228C1325.46 273.524 1328.27 275.39 1327.43 276.751C1326.53 278.202 1322 277.78 1322 276.245V276.245ZM569.143 275.747C568.104 275.089 568.07 274.712 569 274.138C569.931 273.562 569.898 273.162 568.857 272.418C567.841 271.693 567.96 271.598 569.332 272.043C570.339 272.37 571.561 272.638 572.047 272.638C572.532 272.638 573.411 273.538 574 274.638C574.926 276.368 574.762 276.636 572.785 276.622C571.528 276.614 569.889 276.22 569.143 275.747V275.747ZM736.667 273.971C735.516 272.82 735.938 271.638 737.5 271.638C738.325 271.638 739 272.313 739 273.138C739 274.699 737.817 275.122 736.667 273.971ZM1218.74 273.04C1218.41 272.711 1218.38 271.811 1218.68 271.04C1219.29 269.445 1222 269.116 1222 270.638C1222 271.188 1222.7 271.638 1223.56 271.638C1224.42 271.638 1224.84 272.088 1224.5 272.638C1223.83 273.723 1219.71 274.01 1218.74 273.04V273.04ZM101.18 270.388C101.431 268.625 102.15 268.138 104.5 268.138C106.85 268.138 107.569 268.625 107.82 270.388C108.101 272.367 107.702 272.638 104.5 272.638C101.298 272.638 100.899 272.367 101.18 270.388ZM271 271.638C271 271.088 271.45 270.638 272 270.638C272.55 270.638 273 271.088 273 271.638C273 272.188 272.55 272.638 272 272.638C271.45 272.638 271 272.188 271 271.638ZM305 271.261C305 270.334 305.694 269.309 306.543 268.983C308.97 268.052 309.205 269.143 307.006 271.132C305.175 272.789 305 272.8 305 271.261V271.261ZM84.3365 267.91C80.0569 267.521 77.952 265.286 79.9672 263.271C80.5352 262.703 81 261.176 81 259.878C81 257.859 81.3982 257.584 83.75 257.973C89.3889 258.907 92 259.889 92 261.077C92 261.75 93.125 262.902 94.5 263.638C95.875 264.374 97 265.361 97 265.832C97 266.919 92.4048 268.693 90.1849 268.463C89.2582 268.367 86.6264 268.118 84.3365 267.91V267.91ZM1129 267.261C1129 266.334 1129.69 265.309 1130.54 264.983C1132.97 264.052 1133.2 265.143 1131.01 267.132C1129.18 268.789 1129 268.8 1129 267.261ZM1348.5 267.638C1348.16 267.088 1348.33 266.638 1348.88 266.638C1349.43 266.638 1350.16 267.088 1350.5 267.638C1350.84 268.188 1350.67 268.638 1350.12 268.638C1349.57 268.638 1348.84 268.188 1348.5 267.638ZM692.556 266.729C691.621 265.216 695.961 263.199 697.291 264.528C698.549 265.787 698.263 266.155 695.334 267.054C694.143 267.42 692.893 267.273 692.556 266.729ZM616.829 265.532C615.974 265.004 615.862 264.406 616.508 263.818C617.588 262.835 624.002 264.204 623.998 265.416C623.995 266.426 618.421 266.516 616.829 265.532ZM822.829 265.532C821.974 265.004 821.862 264.406 822.508 263.818C823.588 262.835 830.002 264.204 829.998 265.416C829.998 266.426 824.421 266.516 822.829 265.532V265.532ZM970.735 266.04C970.407 265.711 970.38 264.811 970.676 264.04C971.288 262.445 974 262.116 974 263.638C974 264.188 974.701 264.638 975.559 264.638C976.416 264.638 976.84 265.088 976.5 265.638C975.829 266.723 971.706 267.01 970.735 266.04H970.735ZM8.18885 263.924C6.91772 263.681 5.63207 262.843 5.33186 262.06C5.03165 261.278 3.88538 260.638 2.7846 260.638C0.716282 260.638 0.717928 260.701 2.60882 253.888C3.07035 252.225 2.81149 251.638 1.61663 251.638C0.727484 251.638 0 251.003 0 250.226C0 249.45 0.5625 248.93 1.25 249.07C6.34088 250.109 7.73098 251.012 8.76176 253.952C9.98923 257.452 11.4353 264.718 10.8613 264.502C10.6626 264.427 9.45998 264.167 8.18885 263.924V263.924ZM168.229 263.451C168.727 261.956 171 261.133 171 262.447C171 262.984 170.287 263.697 169.416 264.031C168.443 264.405 167.985 264.182 168.229 263.451ZM1042.23 262.451C1042.73 260.956 1045 260.133 1045 261.447C1045 261.984 1044.29 262.697 1043.42 263.031C1042.44 263.405 1041.99 263.182 1042.23 262.451V262.451ZM694.5 261.638C694.84 261.088 695.316 260.638 695.559 260.638C695.802 260.638 696 261.088 696 261.638C696 262.188 695.523 262.638 694.941 262.638C694.358 262.638 694.16 262.188 694.5 261.638ZM1035 261.638C1035 261.088 1035.67 260.638 1036.5 260.638C1037.32 260.638 1038 261.088 1038 261.638C1038 262.188 1037.32 262.638 1036.5 262.638C1035.67 262.638 1035 262.188 1035 261.638ZM1160.68 260.236C1160.15 258.853 1160.74 257.638 1161.95 257.638C1162.3 257.638 1162.64 258.538 1162.72 259.638C1162.9 261.924 1161.48 262.337 1160.68 260.236ZM1310 259.756C1310 259.206 1310.45 258.478 1311 258.138C1311.55 257.798 1312 257.97 1312 258.52C1312 259.07 1311.55 259.798 1311 260.138C1310.45 260.478 1310 260.306 1310 259.756ZM714.46 258.388C714.059 257.347 712.739 256.638 711.202 256.638C708.776 256.638 708.732 256.554 710.48 255.276C712.363 253.899 715.58 254.15 716.57 255.751C716.866 256.23 716.664 257.413 716.121 258.38C715.183 260.052 715.102 260.052 714.46 258.388V258.388ZM1063.18 256.965C1063.56 253.802 1064.92 253.127 1067.34 254.901C1069.75 256.66 1068.48 259.638 1065.33 259.638C1063.25 259.638 1062.92 259.223 1063.18 256.965V256.965ZM1085 258.245C1085 257.479 1085.73 256.571 1086.63 256.228C1088.46 255.524 1091.27 257.39 1090.43 258.751C1089.53 260.202 1085 259.78 1085 258.245V258.245ZM111 256.763C111 254.462 114.191 253.84 116.971 255.599C118.851 256.788 118.144 257.459 114.177 258.252C111.405 258.807 111 258.617 111 256.763ZM1215 253.705C1215 250.934 1218.98 249.884 1220.67 252.206C1222.71 254.991 1222.3 255.638 1218.5 255.638C1215.71 255.638 1215 255.247 1215 253.705ZM287.5 253.638C287.16 253.088 287.332 252.638 287.882 252.638C288.432 252.638 289.16 253.088 289.5 253.638C289.84 254.188 289.668 254.638 289.118 254.638C288.568 254.638 287.84 254.188 287.5 253.638ZM710.002 251.639C708.787 250.888 708.838 250.637 710.321 250.068C712.434 249.257 713.157 249.765 712.169 251.364C711.71 252.107 710.921 252.207 710.002 251.639ZM683.035 250.18C682.331 249.332 680.958 248.638 679.985 248.638C677.747 248.638 676.603 245.821 678.105 244.011C678.964 242.976 678.93 242.258 677.965 241.095C676.567 239.411 677.83 237.23 679.508 238.429C681.338 239.736 686.007 250.03 685.156 250.881C684.694 251.344 683.739 251.028 683.035 250.18ZM1145.55 250.052C1144.02 248.935 1143.92 248.434 1144.97 247.169C1146.77 245.004 1151 245.164 1151 247.397C1151 250.137 1147.8 251.697 1145.55 250.052ZM1111.5 249.638C1111.16 249.088 1111.33 248.638 1111.88 248.638C1112.43 248.638 1113.16 249.088 1113.5 249.638C1113.84 250.188 1113.67 250.638 1113.12 250.638C1112.57 250.638 1111.84 250.188 1111.5 249.638ZM1169.57 248.968C1169.29 248.236 1169.49 247.638 1170.01 247.638C1170.53 247.638 1170.69 246.342 1170.37 244.759C1170.05 243.122 1170.27 241.587 1170.9 241.2C1171.5 240.826 1172 239.718 1172 238.739C1172 236.978 1175.74 234.638 1178.55 234.638C1180.16 234.638 1180.51 236.205 1179.09 237.08C1178.6 237.388 1178.42 238.539 1178.71 239.639C1179.02 240.806 1178.74 241.638 1178.05 241.638C1177.32 241.638 1177.11 242.407 1177.5 243.643C1177.93 244.99 1177.62 245.81 1176.57 246.143C1171.39 247.778 1171.36 247.797 1173.5 248.675C1175.68 249.571 1175.58 249.684 1172.29 250.051C1171.08 250.186 1169.85 249.699 1169.57 248.968V248.968ZM1182 246.638C1182 245.538 1182.48 244.638 1183.06 244.638C1183.64 244.638 1183.84 245.088 1183.5 245.638C1183.16 246.188 1183.36 246.638 1183.94 246.638C1184.52 246.638 1185 247.088 1185 247.638C1185 248.188 1184.32 248.638 1183.5 248.638C1182.67 248.638 1182 247.749 1182 246.638ZM1073 241.756C1073 241.206 1073.45 240.478 1074 240.138C1074.55 239.798 1075 239.97 1075 240.52C1075 241.07 1074.55 241.798 1074 242.138C1073.45 242.478 1073 242.306 1073 241.756ZM1241.5 239.638C1241.16 239.088 1241.36 238.638 1241.94 238.638C1242.52 238.638 1243 239.088 1243 239.638C1243 240.188 1242.8 240.638 1242.56 240.638C1242.32 240.638 1241.84 240.188 1241.5 239.638ZM1281 238.721C1281 237.493 1281.65 236.638 1282.57 236.638C1283.5 236.638 1284.01 237.318 1283.82 238.305C1283.34 240.814 1281 241.158 1281 238.721ZM1046.75 238.948C1045.79 238.697 1045 238.129 1045 237.687C1045 236.767 1047.13 234.841 1048.25 234.741C1048.67 234.704 1050.17 234.382 1051.59 234.026C1054.62 233.265 1057.6 235.63 1056.67 238.06C1056.08 239.606 1051 240.06 1046.75 238.948ZM1427 237.638C1425.72 236.809 1425.75 236.666 1427.25 236.653C1428.21 236.645 1429 237.088 1429 237.638C1429 238.857 1428.89 238.857 1427 237.638ZM51 231.638C51 231.088 51.4766 230.638 52.059 230.638C52.6415 230.638 52.8399 231.088 52.5 231.638C52.1601 232.188 51.6835 232.638 51.441 232.638C51.1984 232.638 51 232.188 51 231.638ZM62 231.261C62 230.334 62.6944 229.309 63.5431 228.983C65.9697 228.052 66.2047 229.143 64.0061 231.132C62.1754 232.789 62 232.8 62 231.261ZM1030 228.638C1030 228.088 1030.45 227.638 1031 227.638C1031.55 227.638 1032 228.088 1032 228.638C1032 229.188 1031.55 229.638 1031 229.638C1030.45 229.638 1030 229.188 1030 228.638ZM1157 227.638C1158.97 226.365 1161.29 226.365 1160.5 227.638C1160.16 228.188 1158.9 228.631 1157.69 228.622C1155.91 228.61 1155.78 228.426 1157 227.638ZM143.129 225.275C141.182 223.203 141.107 222.794 142.467 221.665C143.766 220.587 144 220.732 144 222.622C144 224.172 144.448 224.68 145.468 224.288C147.449 223.528 148.306 225.139 146.652 226.512C145.646 227.347 144.795 227.048 143.129 225.275V225.275ZM464.183 226.421C462.33 224.567 462.779 223.059 465.564 221.791C467.034 221.121 467.863 221.051 467.507 221.626C467.166 222.179 466.701 223.593 466.475 224.769C465.931 227.59 465.595 227.833 464.183 226.421ZM560.005 227.638C558.437 222.522 558.19 222.638 570.673 222.638C577.086 222.638 581.996 222.975 581.583 223.388C581.171 223.8 580.533 224.177 580.167 224.224C579.8 224.272 578.825 224.597 578 224.947C575.888 225.844 567.855 227.584 565.691 227.613C564.696 227.627 564.16 227.188 564.5 226.638C564.84 226.088 564.229 225.638 563.142 225.638C562.056 225.638 560.94 226.2 560.662 226.888C560.385 227.575 560.089 227.913 560.005 227.638V227.638ZM766.005 227.638C764.437 222.522 764.19 222.638 776.673 222.638C783.086 222.638 787.996 222.975 787.583 223.388C787.171 223.8 786.533 224.177 786.167 224.224C785.8 224.272 784.825 224.597 784 224.947C781.888 225.844 773.855 227.584 771.691 227.613C770.696 227.627 770.16 227.188 770.5 226.638C770.84 226.088 770.229 225.638 769.142 225.638C768.056 225.638 766.94 226.2 766.662 226.888C766.385 227.575 766.089 227.913 766.005 227.638V227.638ZM555.5 225.638C555.84 225.088 556.316 224.638 556.559 224.638C556.802 224.638 557 225.088 557 225.638C557 226.188 556.523 226.638 555.941 226.638C555.359 226.638 555.16 226.188 555.5 225.638ZM761.5 225.638C761.84 225.088 762.317 224.638 762.559 224.638C762.802 224.638 763 225.088 763 225.638C763 226.188 762.524 226.638 761.941 226.638C761.359 226.638 761.16 226.188 761.5 225.638ZM1225.14 224.747C1224.1 224.089 1224.07 223.712 1225 223.138C1225.93 222.562 1225.9 222.162 1224.86 221.418C1223.84 220.693 1223.96 220.598 1225.33 221.043C1226.34 221.37 1227.56 221.638 1228.05 221.638C1228.53 221.638 1229.41 222.538 1230 223.638C1230.93 225.368 1230.76 225.636 1228.79 225.622C1227.53 225.614 1225.89 225.22 1225.14 224.747V224.747ZM549.5 223.638C549.119 223.021 550.724 222.665 553.691 222.708C557.298 222.761 558 222.993 556.5 223.638C553.721 224.832 550.238 224.832 549.5 223.638ZM755.5 223.638C755.119 223.021 756.724 222.665 759.691 222.708C763.298 222.761 764 222.993 762.5 223.638C759.721 224.832 756.238 224.832 755.5 223.638ZM896.852 222.469C894.422 221.616 894.247 221.193 894.737 217.338C895.567 210.799 898.389 208.356 899.589 213.138C899.934 214.513 900.843 215.638 901.608 215.638C902.374 215.638 903 216.327 903 217.17C903 218.013 903.882 219.028 904.959 219.427C906.058 219.833 906.607 220.629 906.209 221.238C905.162 222.841 899.887 223.535 896.852 222.469ZM1098.23 222.45C1098.85 220.596 1101 220.288 1101 222.054C1101 222.925 1100.29 223.638 1099.42 223.638C1098.55 223.638 1098.01 223.103 1098.23 222.45V222.45ZM1029.67 221.971C1028.5 220.805 1028.94 219.886 1030.92 219.37C1032.78 218.883 1035 220.224 1035 221.838C1035 222.803 1030.61 222.913 1029.67 221.971V221.971ZM1203 221.245C1203 220.479 1203.73 219.571 1204.63 219.227C1206.46 218.524 1209.27 220.39 1208.43 221.751C1207.53 223.202 1203 222.78 1203 221.245ZM1405.68 221.236C1405.15 219.853 1405.74 218.638 1406.95 218.638C1407.3 218.638 1407.64 219.538 1407.72 220.638C1407.9 222.924 1406.48 223.337 1405.68 221.236ZM542.218 220.483C542.464 219.743 543.468 218.982 544.448 218.792C545.588 218.571 546.069 218.932 545.782 219.792C545.536 220.532 544.532 221.293 543.552 221.483C542.412 221.704 541.931 221.344 542.218 220.483V220.483ZM748.218 220.483C748.464 219.743 749.468 218.982 750.448 218.792C751.588 218.571 752.069 218.932 751.782 219.792C751.536 220.532 750.532 221.293 749.552 221.483C748.412 221.704 747.931 221.344 748.218 220.483V220.483ZM228.787 219.592C227.172 218.638 227.175 218.398 228.835 215.426C230.981 211.585 232.002 211.169 234.54 213.105C235.893 214.137 236.149 214.838 235.366 215.369C234.742 215.792 234.062 217.033 233.854 218.126C233.419 220.423 231.254 221.049 228.787 219.592H228.787ZM581 218.721C581 217.493 581.646 216.638 582.573 216.638C583.505 216.638 584.015 217.318 583.823 218.305C583.337 220.814 581 221.158 581 218.721V218.721ZM592.38 219.186C592.074 218.387 592.114 217.262 592.47 216.686C592.827 216.109 592.694 215.638 592.176 215.638C591.657 215.638 590.998 214.738 590.71 213.638C590.276 211.977 590.68 211.638 593.094 211.638C595.01 211.638 596 212.149 596 213.138C596 213.963 595.495 214.638 594.878 214.638C594.098 214.638 594.132 215.092 594.989 216.125C596.336 217.747 595.702 220.638 594 220.638C593.415 220.638 592.687 219.984 592.38 219.186ZM1278 219.138C1278 218.313 1278.85 217.638 1279.89 217.638C1280.93 217.638 1282.04 218.313 1282.36 219.138C1282.78 220.221 1282.25 220.638 1280.47 220.638C1278.94 220.638 1278 220.066 1278 219.138ZM755.694 218.998C754.761 218.065 755.888 216.638 757.559 216.638C758.352 216.638 759 217.313 759 218.138C759 219.644 756.889 220.193 755.694 218.998ZM535 217.254C535 217.044 535.9 216.636 537 216.348C538.1 216.06 539 216.233 539 216.731C539 217.23 538.1 217.638 537 217.638C535.9 217.638 535 217.465 535 217.254V217.254ZM741 217.254C741 217.044 741.9 216.636 743 216.348C744.1 216.06 745 216.233 745 216.731C745 217.23 744.1 217.638 743 217.638C741.9 217.638 741 217.465 741 217.254ZM1353.6 214.388C1350.38 209.397 1349.63 206.783 1350.98 205.167C1351.67 204.326 1353.09 203.638 1354.12 203.638C1355.77 203.638 1356 204.446 1356 210.138C1356 213.713 1355.79 216.638 1355.52 216.638C1355.26 216.638 1354.39 215.625 1353.6 214.388ZM44.5 213.638C44.1601 213.088 44.332 212.638 44.882 212.638C45.432 212.638 46.1601 213.088 46.5 213.638C46.8399 214.188 46.668 214.638 46.118 214.638C45.568 214.638 44.8399 214.188 44.5 213.638ZM305.5 213.638C305.84 213.088 305.641 212.638 305.059 212.638C304.477 212.638 304 212.188 304 211.638C304 211.088 304.675 210.638 305.5 210.638C306.333 210.638 307 211.527 307 212.638C307 213.738 306.523 214.638 305.941 214.638C305.359 214.638 305.16 214.188 305.5 213.638ZM1172.92 208.728C1170.96 206.669 1169.05 204.223 1168.7 203.291C1168.34 202.359 1166.67 201.321 1164.98 200.983C1162.94 200.576 1162.01 199.851 1162.2 198.836C1162.61 196.748 1165 196.08 1165 198.054C1165 198.925 1165.45 199.638 1166 199.638C1166.55 199.638 1167 199.204 1167 198.673C1167 198.142 1167.94 197.206 1169.08 196.593C1170.75 195.702 1171.56 195.831 1173.11 197.234C1174.17 198.2 1176.61 199.023 1178.52 199.064C1182.09 199.14 1183.06 200.016 1180.62 200.952C1178.84 201.636 1179.72 206.638 1181.62 206.638C1183.26 206.638 1183.38 208.053 1181.96 210.703C1180.39 213.648 1176.9 212.885 1172.92 208.728ZM1390.55 211.052C1389.02 209.935 1388.92 209.434 1389.97 208.169C1391.77 206.004 1396 206.164 1396 208.397C1396 211.137 1392.8 212.697 1390.55 211.052ZM67 207.638C67 207.088 67.7016 206.638 68.559 206.638C69.4165 206.638 69.8399 207.088 69.5 207.638C69.1601 208.188 68.4585 208.638 67.941 208.638C67.4234 208.638 67 208.188 67 207.638ZM511 206.76C511 205.54 511.638 204.638 512.5 204.638C513.325 204.638 514 205.033 514 205.515C514 205.998 513.325 206.953 512.5 207.638C511.247 208.678 511 208.533 511 206.76ZM1191 204.756C1191 204.206 1191.45 203.478 1192 203.138C1192.55 202.798 1193 202.97 1193 203.52C1193 204.07 1192.55 204.798 1192 205.138C1191.45 205.478 1191 205.306 1191 204.756ZM1134.5 203.638C1134.16 203.088 1134.33 202.638 1134.88 202.638C1135.43 202.638 1136.16 203.088 1136.5 203.638C1136.84 204.188 1136.67 204.638 1136.12 204.638C1135.57 204.638 1134.84 204.188 1134.5 203.638ZM1085.5 202.638C1085.84 202.088 1086.57 201.638 1087.12 201.638C1087.67 201.638 1087.84 202.088 1087.5 202.638C1087.16 203.188 1086.43 203.638 1085.88 203.638C1085.33 203.638 1085.16 203.188 1085.5 202.638ZM1247.46 198.559C1245.43 194.558 1245.14 193.178 1246.07 192.059C1247.83 189.929 1249.9 190.289 1249.29 192.62C1248.91 194.086 1249.46 194.861 1251.39 195.595C1252.82 196.141 1254 196.847 1254 197.163C1254 198.088 1250.99 203.638 1250.49 203.638C1250.24 203.638 1248.88 201.352 1247.46 198.559V198.559ZM1041 201.138C1041 200.313 1041.85 199.638 1042.89 199.638C1043.93 199.638 1045.04 200.313 1045.36 201.138C1045.78 202.221 1045.25 202.638 1043.47 202.638C1041.94 202.638 1041 202.066 1041 201.138ZM206.667 200.971C204.085 198.389 208.42 192.002 211.986 193.133C213.907 193.743 213.985 194.002 212.691 195.478C211.891 196.391 210.928 198.15 210.551 199.388C209.886 201.571 208.025 202.329 206.667 200.971V200.971ZM879.693 199.703C880.285 197.44 882.673 195.212 885.5 194.287C887.419 193.659 887.425 193.691 885.65 195.069C884.632 195.859 884.047 196.904 884.349 197.393C884.929 198.331 881.605 201.638 880.082 201.638C879.59 201.638 879.415 200.767 879.693 199.703ZM516 199.245C516 197.824 518.88 196.185 519.786 197.09C520.424 197.728 518.039 200.638 516.878 200.638C516.395 200.638 516 200.011 516 199.245V199.245ZM710 199.638C710 199.088 710.423 198.638 710.941 198.638C711.459 198.638 712.16 199.088 712.5 199.638C712.84 200.188 712.417 200.638 711.559 200.638C710.702 200.638 710 200.188 710 199.638ZM722 199.245C722 197.824 724.88 196.185 725.786 197.09C726.424 197.728 724.039 200.638 722.878 200.638C722.395 200.638 722 200.011 722 199.245V199.245ZM1153 199.638C1153 199.088 1153.41 198.638 1153.92 198.638C1154.42 198.638 1155.66 198.329 1156.67 197.951C1158.28 197.346 1158.34 197.465 1157.13 198.951C1155.63 200.795 1153 201.233 1153 199.638ZM114 197.697C114 197.179 114.45 196.478 115 196.138C115.55 195.798 116 196.221 116 197.079C116 197.936 115.55 198.638 115 198.638C114.45 198.638 114 198.214 114 197.697ZM577.667 197.971C576.516 196.82 576.938 195.638 578.5 195.638C579.325 195.638 580 196.313 580 197.138C580 198.699 578.817 199.122 577.667 197.971ZM1311.5 196.638C1311.16 196.088 1311.36 195.638 1311.94 195.638C1312.52 195.638 1313 196.088 1313 196.638C1313 197.188 1312.8 197.638 1312.56 197.638C1312.32 197.638 1311.84 197.188 1311.5 196.638ZM51.425 193.195C51.0518 191.708 49.9685 190.632 48.656 190.445C47.2216 190.241 46.388 189.301 46.1653 187.638C45.9813 186.263 45.4188 184.71 44.9153 184.188C43.2268 182.435 43.9768 181.73 47.1074 182.126C50.956 182.613 51.0096 182.669 51.2795 186.463C51.4236 188.489 52.2649 189.973 53.707 190.746C55.4617 191.687 55.7107 192.31 54.9219 193.784C53.5541 196.34 52.1551 196.104 51.425 193.195V193.195ZM709.5 193.638C709.84 193.088 710.316 192.638 710.559 192.638C710.802 192.638 711 193.088 711 193.638C711 194.188 710.523 194.638 709.941 194.638C709.358 194.638 709.16 194.188 709.5 193.638ZM86.125 186.638C86.188 184.163 86.113 181.688 85.9583 181.138C85.8036 180.588 86.1886 178.9 86.8138 177.388C88.2288 173.965 92.8789 173.459 93.7102 176.638C93.9979 177.738 94.8076 178.638 95.5096 178.638C97.1231 178.638 98.4785 181.978 97.0572 182.452C96.4758 182.646 96 183.57 96 184.506C96 186.519 90.4848 190.055 88.8861 189.067C88.2758 188.69 87.379 189.002 86.8934 189.76C86.3162 190.66 86.05 189.579 86.125 186.638ZM1128.25 188.138C1128.25 186.173 1128.76 185.638 1130.62 185.638C1131.93 185.638 1133 186.088 1133 186.638C1133 187.188 1132.55 187.638 1132 187.638C1131.45 187.638 1131 188.313 1131 189.138C1131 189.963 1130.38 190.638 1129.62 190.638C1128.82 190.638 1128.25 189.592 1128.25 188.138ZM401.722 187.626C398.946 184.384 400.017 181.638 404.056 181.638C405.335 181.638 408.197 187.51 407.482 188.667C406.481 190.287 403.547 189.757 401.722 187.626ZM1143 188.72C1143 186.7 1144.29 184.638 1145.55 184.638C1147.82 184.638 1148.29 186.701 1146.35 188.173C1144.19 189.813 1143 190.006 1143 188.72V188.72ZM432 187.638C432 187.088 432.45 186.638 433 186.638C433.55 186.638 434 187.088 434 187.638C434 188.188 433.55 188.638 433 188.638C432.45 188.638 432 188.188 432 187.638ZM809.658 187.189C809.287 186.222 809.582 185.924 810.545 186.294C811.339 186.598 811.739 187.25 811.435 187.743C810.669 188.983 810.303 188.869 809.658 187.189V187.189ZM1253 187.638C1253 187.088 1253.45 186.638 1254 186.638C1254.55 186.638 1255 187.088 1255 187.638C1255 188.188 1254.55 188.638 1254 188.638C1253.45 188.638 1253 188.188 1253 187.638ZM695 187.177C695 186.923 695.949 185.831 697.11 184.75C699.54 182.486 702 182.986 702 185.745C702 187.242 701.267 187.638 698.5 187.638C696.575 187.638 695 187.43 695 187.177ZM551.46 181.559C549.432 177.558 549.137 176.178 550.066 175.059C551.833 172.929 553.904 173.289 553.294 175.62C552.911 177.086 553.456 177.861 555.388 178.595C556.825 179.141 558 179.847 558 180.163C558 181.088 554.992 186.638 554.491 186.638C554.24 186.638 552.876 184.352 551.46 181.559V181.559ZM1277 183.613C1277 182.489 1281.98 180.287 1282.76 181.067C1283.03 181.333 1282.98 182.246 1282.65 183.095C1282 184.794 1277 185.253 1277 183.613ZM694.25 182.142C692.719 180.403 692.654 178.97 694.067 178.097C695.412 177.265 697.946 180.615 697.282 182.346C696.652 183.987 695.825 183.931 694.25 182.142V182.142ZM424 180.138C422.136 178.763 419.799 177.638 418.806 177.638C416.718 177.638 416.483 176.554 418.2 174.838C419.817 173.221 420.788 173.328 421.177 175.165C421.464 176.523 421.75 176.516 423.754 175.106C425.511 173.868 425.866 172.926 425.363 170.828C424.653 167.863 425.645 168.351 427.481 171.87C428.131 173.117 429.189 174.025 429.832 173.888C430.474 173.75 431 174.12 431 174.709C431 175.298 431.679 176.46 432.509 177.29C434.323 179.104 433.605 180.638 430.941 180.638C429.873 180.638 429 181.088 429 181.638C429 183.229 427.636 182.82 424 180.138V180.138ZM1135.25 181.388C1135.88 179.496 1139 179.227 1139 181.064C1139 181.992 1138.14 182.638 1136.92 182.638C1135.69 182.638 1135.01 182.121 1135.25 181.388V181.388ZM235.446 178.551C235.077 177.953 235.294 176.944 235.929 176.309C236.801 175.436 237.313 175.519 238.026 176.646C238.545 177.467 238.976 178.475 238.985 178.888C239.008 180.043 236.203 179.776 235.446 178.551V178.551ZM518.75 177.874C515.949 176.504 515.41 175.115 516.817 172.9C517.825 171.312 524 173.425 524 175.357C524 176.061 524.45 176.638 525 176.638C525.55 176.638 526 177.035 526 177.521C526 179.058 521.608 179.272 518.75 177.874V177.874ZM483 177.638C483 177.088 483.45 176.638 484 176.638C484.55 176.638 485 177.088 485 177.638C485 178.188 484.55 178.638 484 178.638C483.45 178.638 483 178.188 483 177.638ZM1130.95 169.738C1127.9 166.641 1127.55 165.82 1128.45 163.867C1129.06 162.537 1130.94 161.192 1133 160.622C1137.77 159.296 1141.29 159.357 1140.43 160.75C1140.05 161.361 1140.35 162.237 1141.1 162.697C1142.17 163.362 1141.99 164.015 1140.22 165.9C1139 167.201 1138 168.935 1138 169.752C1138 171.273 1136.04 173.757 1135.05 173.488C1134.75 173.406 1132.9 171.719 1130.95 169.738V169.738ZM194.5 171.638C194.84 171.088 195.316 170.638 195.559 170.638C195.802 170.638 196 171.088 196 171.638C196 172.188 195.523 172.638 194.941 172.638C194.359 172.638 194.16 172.188 194.5 171.638ZM793 170.579C793 169.446 793.45 168.798 794 169.138C794.55 169.478 795 170.404 795 171.197C795 171.989 794.55 172.638 794 172.638C793.45 172.638 793 171.711 793 170.579ZM880 169.638C880 169.088 880.476 168.638 881.059 168.638C881.641 168.638 881.84 169.088 881.5 169.638C881.16 170.188 880.683 170.638 880.441 170.638C880.198 170.638 880 170.188 880 169.638ZM1016 169.638C1016 169.088 1016.45 168.638 1017 168.638C1017.55 168.638 1018 169.088 1018 169.638C1018 170.188 1017.55 170.638 1017 170.638C1016.45 170.638 1016 170.188 1016 169.638ZM396 169.26C396 169.053 396.787 168.265 397.75 167.51C399.336 166.266 399.371 166.302 398.128 167.888C396.821 169.554 396 170.083 396 169.26ZM678 167.638C678 167.088 678.702 166.638 679.559 166.638C680.416 166.638 680.84 167.088 680.5 167.638C680.16 168.188 679.459 168.638 678.941 168.638C678.423 168.638 678 168.188 678 167.638ZM59 166.638C59 166.088 59.45 165.638 60 165.638C60.55 165.638 61 166.088 61 166.638C61 167.188 60.55 167.638 60 167.638C59.45 167.638 59 167.188 59 166.638ZM404.5 166.638C404.16 166.088 404.583 165.638 405.441 165.638C406.298 165.638 407 166.088 407 166.638C407 167.188 406.577 167.638 406.059 167.638C405.541 167.638 404.84 167.188 404.5 166.638ZM428 164.638C426.718 163.809 426.754 163.666 428.25 163.653C429.213 163.645 430 164.088 430 164.638C430 165.857 429.887 165.857 428 164.638V164.638ZM781.3 160.299C780.86 159.563 779.6 158.452 778.5 157.83C776.736 156.832 776.942 156.695 780.25 156.668C783.591 156.641 784 156.91 784 159.138C784 161.844 782.586 162.452 781.3 160.299ZM384 157.338C384 156.623 384.508 155.53 385.128 154.909C386.167 153.87 387.554 154.234 390.971 156.442C391.23 156.61 390.78 157.165 389.971 157.677C387.799 159.051 384 158.835 384 157.338ZM80 153.638C80 153.088 81.0125 152.645 82.25 152.653C84.0694 152.665 84.213 152.854 83 153.638C81.0612 154.891 80 154.891 80 153.638ZM530.655 152.809C528.636 150.578 528.591 149.579 530.4 147.105C531.694 145.336 531.8 145.468 531.8 148.848C531.8 150.859 532.097 152.985 532.459 153.571C533.497 155.251 532.473 154.818 530.655 152.809V152.809ZM1121.23 153.451C1121.73 151.956 1124 151.133 1124 152.447C1124 152.984 1123.29 153.697 1122.42 154.031C1121.44 154.405 1120.99 154.182 1121.23 153.451ZM520.937 152.062C519.853 150.755 519.874 150.33 521.064 149.577C523.094 148.293 524.619 148.419 523.278 149.76C522.661 150.377 522.394 151.502 522.685 152.26C523.392 154.101 522.55 154.005 520.937 152.062ZM49 151.638C49 151.088 49.8734 150.638 50.941 150.638C52.0085 150.638 53.1601 151.088 53.5 151.638C53.8505 152.205 53.0104 152.638 51.559 152.638C50.1516 152.638 49 152.188 49 151.638ZM56 151.638C56 151.088 56.45 150.638 57 150.638C57.55 150.638 58 151.088 58 151.638C58 152.188 57.55 152.638 57 152.638C56.45 152.638 56 152.188 56 151.638ZM116.25 146.629C115.013 146.119 114 145.013 114 144.17C114 143.327 113.148 142.638 112.107 142.638C110.223 142.638 108.447 140.071 109.794 139.294C111.383 138.378 120.996 139.389 122.491 140.631C123.408 141.391 123.972 143.08 123.801 144.552C123.466 147.427 120.302 148.297 116.25 146.629V146.629ZM115.729 141.034C115.397 140.701 114.534 140.666 113.812 140.955C113.015 141.274 113.252 141.511 114.417 141.559C115.471 141.602 116.061 141.366 115.729 141.034V141.034ZM35 145.842C35 145.383 36.575 144.257 38.5 143.339C41.9029 141.716 42.7388 141.99 41.2347 144.234C40.3164 145.604 35 146.975 35 145.842V145.842ZM470.584 144.388C470.721 143.15 470.871 141.97 470.917 141.765C470.963 141.561 471.675 141.953 472.5 142.638C474.571 144.357 474.381 146.638 472.167 146.638C470.859 146.638 470.406 145.994 470.584 144.388ZM676.584 144.388C676.721 143.15 676.871 141.97 676.917 141.765C676.962 141.561 677.675 141.953 678.5 142.638C680.571 144.357 680.381 146.638 678.167 146.638C676.859 146.638 676.406 145.994 676.584 144.388ZM389.22 142.222C387.866 139.249 389.621 138.156 392.44 140.218C393.974 141.339 394.076 141.841 393.026 143.107C391.277 145.214 390.502 145.034 389.22 142.222ZM1245.16 143.75C1244.43 143.29 1243.91 142.739 1244.01 142.526C1244.11 142.312 1243.62 140.888 1242.92 139.361C1242.01 137.36 1241.96 136.279 1242.74 135.496C1243.53 134.712 1244.29 135.298 1245.48 137.591C1247.4 141.314 1247.21 145.033 1245.16 143.75ZM357.75 139.554C355.688 137.4 354 135.21 354 134.687C354 134.165 353.274 133.331 352.386 132.834C351.11 132.12 350.999 131.507 351.859 129.902C353.429 126.967 355.985 126.314 358.168 128.29C359.201 129.225 361.61 130.023 363.52 130.064C367.087 130.14 368.063 131.016 365.624 131.952C363.842 132.636 364.715 137.638 366.617 137.638C368.262 137.638 368.384 139.053 366.965 141.704C365.37 144.684 361.882 143.87 357.75 139.554V139.554ZM335.573 140.968C335.292 140.236 335.487 139.638 336.006 139.638C336.525 139.638 336.691 138.342 336.374 136.759C336.047 135.122 336.273 133.587 336.899 133.2C337.505 132.826 338 131.719 338 130.739C338 128.978 341.736 126.638 344.547 126.638C346.158 126.638 346.509 128.205 345.094 129.08C344.596 129.388 344.423 130.539 344.711 131.639C345.016 132.806 344.741 133.638 344.049 133.638C343.319 133.638 343.109 134.407 343.502 135.643C343.929 136.99 343.623 137.81 342.569 138.143C337.387 139.778 337.364 139.797 339.5 140.675C341.68 141.571 341.582 141.684 338.292 142.051C337.077 142.186 335.854 141.699 335.573 140.968V140.968ZM597.5 141.638C597.84 141.088 598.793 140.638 599.618 140.638C600.443 140.638 600.84 141.088 600.5 141.638C600.16 142.188 599.207 142.638 598.382 142.638C597.557 142.638 597.16 142.188 597.5 141.638ZM348 138.638C348 137.538 348.477 136.638 349.059 136.638C349.641 136.638 349.84 137.088 349.5 137.638C349.16 138.188 349.359 138.638 349.941 138.638C350.523 138.638 351 139.088 351 139.638C351 140.188 350.325 140.638 349.5 140.638C348.667 140.638 348 139.749 348 138.638V138.638ZM383.031 139.888C383.085 138.597 387.969 135.501 388.973 136.121C390.199 136.879 386.477 140.638 384.5 140.638C383.675 140.638 383.014 140.3 383.031 139.888V139.888ZM813.25 135.999C812.562 135.709 812 134.354 812 132.989C812 131.623 811.525 129.619 810.945 128.534C809.58 125.985 810.554 122.988 812.949 122.361C816.079 121.543 817.174 123.669 814.689 125.744L812.5 127.571L815.231 127.605C817.372 127.631 818.104 128.232 818.619 130.388C818.98 131.9 819.719 133.7 820.26 134.388C820.946 135.258 820.828 135.642 819.872 135.651C819.118 135.659 817.6 135.859 816.5 136.096C815.4 136.333 813.937 136.289 813.25 135.999V135.999ZM1210.79 135.592C1209.17 134.638 1209.17 134.398 1210.83 131.426C1212.98 127.585 1214 127.169 1216.54 129.105C1217.89 130.137 1218.15 130.838 1217.37 131.369C1216.74 131.792 1216.06 133.033 1215.85 134.126C1215.42 136.423 1213.25 137.049 1210.79 135.592H1210.79ZM1135 128.638C1135 128.088 1135.48 127.638 1136.06 127.638C1136.64 127.638 1136.84 128.088 1136.5 128.638C1136.16 129.188 1135.68 129.638 1135.44 129.638C1135.2 129.638 1135 129.188 1135 128.638ZM1383.5 127.638C1383.84 127.088 1383.64 126.638 1383.06 126.638C1382.48 126.638 1382 126.188 1382 125.638C1382 125.088 1382.67 124.638 1383.5 124.638C1384.33 124.638 1385 125.527 1385 126.638C1385 127.738 1384.52 128.638 1383.94 128.638C1383.36 128.638 1383.16 128.188 1383.5 127.638V127.638ZM20.4943 126.799C19.3036 125.608 20.2401 125.027 23.5 124.935C25.425 124.88 27 125.19 27 125.623C27 126.517 21.2516 127.556 20.4943 126.799V126.799ZM369.075 126.228C368.064 125.01 368.204 124.335 369.83 122.589C371.736 120.545 371.869 120.531 372.73 122.292C374.751 126.425 371.84 129.559 369.075 126.228V126.228ZM86 125.319C86 123.452 87.631 122.232 88.4199 123.508C88.7268 124.005 88.3079 124.967 87.489 125.647C86.2783 126.652 86 126.59 86 125.319V125.319ZM204 120.638C204 120.088 204.45 119.638 205 119.638C205.55 119.638 206 120.088 206 120.638C206 121.188 205.55 121.638 205 121.638C204.45 121.638 204 121.188 204 120.638ZM378.336 118.071C377.502 115.899 379.618 113.856 381.133 115.371C382.413 116.651 381.62 119.638 380 119.638C379.415 119.638 378.667 118.933 378.336 118.071ZM973.787 117.592C972.172 116.638 972.175 116.398 973.835 113.426C975.98 109.585 977.002 109.169 979.54 111.105C980.893 112.137 981.148 112.838 980.365 113.369C979.741 113.792 979.061 115.033 978.854 116.126C978.418 118.423 976.253 119.049 973.786 117.592H973.787ZM554 116.642C554 115.429 556.804 114.109 557.629 114.933C557.927 115.232 557.233 115.978 556.086 116.592C554.639 117.366 554 117.381 554 116.642V116.642ZM1096.55 115.691C1094.85 113.817 1094.88 113.762 1097.4 114.03C1100.75 114.387 1101.38 115.073 1099.68 116.492C1098.62 117.37 1097.9 117.188 1096.55 115.691ZM1188.67 116.971C1186.08 114.389 1190.42 108.002 1193.99 109.133C1195.91 109.743 1195.99 110.002 1194.69 111.478C1193.89 112.391 1192.93 114.15 1192.55 115.388C1191.89 117.571 1190.02 118.329 1188.67 116.971V116.971ZM34.1173 115.771C31.9601 115.166 31.8891 114.975 33.3673 113.748C34.6759 112.662 35.2977 112.64 36.5 113.638C38.0747 114.945 38.5308 116.708 37.25 116.538C36.8375 116.483 35.4278 116.138 34.1173 115.771V115.771ZM285.047 115.138C285.023 113.652 286.808 111.112 287.435 111.74C287.735 112.039 287.323 113.151 286.521 114.211C285.72 115.271 285.056 115.688 285.047 115.138ZM939.573 112.968C939.292 112.236 939.487 111.638 940.006 111.638C940.525 111.638 940.691 110.342 940.374 108.759C940.047 107.122 940.273 105.587 940.899 105.2C941.505 104.826 942 103.719 942 102.739C942 100.978 945.736 98.6378 948.547 98.6378C950.158 98.6378 950.509 100.205 949.094 101.08C948.595 101.388 948.423 102.539 948.71 103.639C949.016 104.806 948.74 105.638 948.049 105.638C947.319 105.638 947.109 106.407 947.501 107.643C947.929 108.99 947.623 109.81 946.569 110.143C941.387 111.778 941.364 111.797 943.5 112.675C945.68 113.571 945.582 113.684 942.292 114.051C941.077 114.186 939.854 113.699 939.573 112.968V112.968ZM952 110.638C952 109.538 952.476 108.638 953.059 108.638C953.641 108.638 953.84 109.088 953.5 109.638C953.16 110.188 953.358 110.638 953.941 110.638C954.523 110.638 955 111.088 955 111.638C955 112.188 954.325 112.638 953.5 112.638C952.667 112.638 952 111.749 952 110.638V110.638ZM371.101 108.515C368.613 105.846 368.434 104.638 370.525 104.638C371.957 104.638 374.556 109.415 373.629 110.343C373.393 110.578 372.256 109.755 371.101 108.515ZM1422.14 109.747C1421.32 109.225 1421.18 108.647 1421.78 108.274C1422.33 107.936 1423.33 108.33 1424.01 109.149C1425.36 110.775 1424.3 111.114 1422.14 109.747V109.747ZM1213 106.638C1213 106.088 1213.67 105.638 1214.5 105.638C1215.32 105.638 1216 106.088 1216 106.638C1216 107.188 1215.32 107.638 1214.5 107.638C1213.67 107.638 1213 107.188 1213 106.638ZM96.5 105.638C96.1601 105.088 96.332 104.638 96.882 104.638C97.432 104.638 98.1601 105.088 98.5 105.638C98.8399 106.188 98.668 106.638 98.118 106.638C97.568 106.638 96.8399 106.188 96.5 105.638ZM525.25 104.975C523.297 104.188 523.729 100.638 525.778 100.638C527.335 100.638 531 103.804 531 105.149C531 105.768 526.908 105.644 525.25 104.975ZM1139.8 104.438C1140.73 103.504 1141.27 103.504 1142.2 104.438C1143.13 105.371 1142.87 105.638 1141 105.638C1139.13 105.638 1138.87 105.371 1139.8 104.438V104.438ZM1147.69 102.994C1148.35 102.727 1148.6 101.765 1148.25 100.856C1147.69 99.3936 1147.8 99.3722 1149.2 100.671C1151.05 102.381 1150.6 103.671 1148.19 103.559C1147.24 103.515 1147.03 103.266 1147.69 102.994ZM22 100.673C22 98.4142 25.0333 96.4223 26.8053 97.5175C27.6732 98.0538 27.4412 98.8605 25.9625 100.448C23.433 103.163 22 103.244 22 100.673V100.673ZM1154 102.09C1154 101.353 1159.31 96.7093 1160.2 96.6694C1160.59 96.652 1160.14 97.9849 1159.2 99.6315C1158.27 101.278 1156.71 102.628 1155.75 102.631C1154.79 102.634 1154 102.391 1154 102.09V102.09ZM352 100.638C352 100.088 352.45 99.6378 353 99.6378C353.55 99.6378 354 100.088 354 100.638C354 101.188 353.55 101.638 353 101.638C352.45 101.638 352 101.188 352 100.638ZM1133.49 99.6198C1132.57 98.1394 1133.44 97.3827 1135.58 97.7994C1137.14 98.1043 1137.16 98.2664 1135.74 99.4363C1134.62 100.368 1133.98 100.42 1133.49 99.6198V99.6198ZM364.672 96.9128L359.844 94.4098L362.31 91.7738C363.666 90.324 365.081 88.1253 365.455 86.8878C365.829 85.6503 366.442 84.6414 366.817 84.6459C367.193 84.6504 368.899 87.3382 370.609 90.6189C373.506 96.1791 373.603 96.6874 372.03 98.1108C370.033 99.9177 370.667 100.021 364.672 96.9128ZM499.268 97.6378C498.326 96.5378 496.531 95.6378 495.278 95.6378C492.956 95.6378 492.573 94.9144 493.549 92.3702C494.684 89.414 503 95.4107 503 99.1848C503 100.346 500.809 99.4376 499.268 97.6378V97.6378ZM951.667 98.9711C949.085 96.3894 953.42 90.0016 956.986 91.1333C958.907 91.7432 958.985 92.0023 957.691 93.4784C956.891 94.391 955.928 96.1503 955.551 97.3878C954.885 99.571 953.025 100.329 951.667 98.9711V98.9711ZM1154 95.7544C1154 95.2686 1153.1 94.6357 1152 94.348C1149.67 93.7386 1149.3 89.9783 1151.3 87.2414C1152.52 85.5768 1152.81 85.6544 1155.8 88.4515C1159.25 91.6748 1159.89 93.6378 1157.5 93.6378C1156.67 93.6378 1156 94.3128 1156 95.1378C1156 95.9628 1155.55 96.6378 1155 96.6378C1154.45 96.6378 1154 96.2403 1154 95.7544V95.7544ZM354 94.6378C354 94.0878 354.45 93.6378 355 93.6378C355.55 93.6378 356 94.0878 356 94.6378C356 95.1878 355.55 95.6378 355 95.6378C354.45 95.6378 354 95.1878 354 94.6378ZM399.556 94.7286C398.621 93.2158 402.961 91.199 404.291 92.5285C405.549 93.7865 405.263 94.155 402.334 95.0542C401.143 95.4199 399.893 95.2734 399.556 94.7286V94.7286ZM1192 94.6378C1192 94.0878 1192.48 93.6378 1193.06 93.6378C1193.64 93.6378 1193.84 94.0878 1193.5 94.6378C1193.16 95.1878 1192.68 95.6378 1192.44 95.6378C1192.2 95.6378 1192 95.1878 1192 94.6378ZM401.5 89.6378C401.84 89.0878 402.316 88.6378 402.559 88.6378C402.802 88.6378 403 89.0878 403 89.6378C403 90.1878 402.523 90.6378 401.941 90.6378C401.359 90.6378 401.16 90.1878 401.5 89.6378ZM345.545 87.0962C343.808 85.7824 343.758 85.4516 345.091 84.1182C346.369 82.8405 346.868 82.8205 348.458 83.9834C349.603 84.8209 350.081 85.9842 349.694 86.9932C348.925 88.9973 348.087 89.0181 345.545 87.0962ZM1067 87.6968C1067 87.1793 1067.45 86.4777 1068 86.1378C1068.55 85.7979 1069 86.2213 1069 87.0788C1069 87.9362 1068.55 88.6378 1068 88.6378C1067.45 88.6378 1067 88.2143 1067 87.6968V87.6968ZM1176.5 87.6378C1176.84 87.0878 1177.32 86.6378 1177.56 86.6378C1177.8 86.6378 1178 87.0878 1178 87.6378C1178 88.1878 1177.52 88.6378 1176.94 88.6378C1176.36 88.6378 1176.16 88.1878 1176.5 87.6378ZM689.5 86.6378C689.84 86.0878 690.793 85.6378 691.618 85.6378C692.443 85.6378 692.84 86.0878 692.5 86.6378C692.16 87.1878 691.207 87.6378 690.382 87.6378C689.557 87.6378 689.16 87.1878 689.5 86.6378ZM777.25 84.9755C776.563 84.6981 776 83.8071 776 82.9954C776 82.1533 775.515 81.8195 774.87 82.218C774.182 82.6436 773.929 82.3739 774.224 81.527C774.84 79.7582 778.029 80.3153 779.675 82.479C781.866 85.3604 780.835 86.4221 777.25 84.9755V84.9755ZM70.5427 82.7069C69.8596 81.6017 71.4371 80.4082 72.3605 81.3316C73.3113 82.2824 73.1341 83.6378 72.059 83.6378C71.5415 83.6378 70.8591 83.2189 70.5427 82.7069ZM294.25 80.1378C294.25 78.1729 294.758 77.6378 296.625 77.6378C297.931 77.6378 299 78.0878 299 78.6378C299 79.1878 298.55 79.6378 298 79.6378C297.45 79.6378 297 80.3128 297 81.1378C297 81.9628 296.381 82.6378 295.625 82.6378C294.825 82.6378 294.25 81.5923 294.25 80.1378ZM353 80.6378C353 80.0878 353.423 79.6378 353.941 79.6378C354.459 79.6378 355.16 80.0878 355.5 80.6378C355.84 81.1878 355.417 81.6378 354.559 81.6378C353.702 81.6378 353 81.1878 353 80.6378ZM1039.12 76.6378C1039.19 74.1628 1039.11 71.6878 1038.96 71.1378C1038.8 70.5878 1039.19 68.9003 1039.81 67.3878C1041.23 63.9646 1045.88 63.4589 1046.71 66.6378C1047 67.7378 1047.81 68.6378 1048.51 68.6378C1050.12 68.6378 1051.48 71.9783 1050.06 72.452C1049.48 72.6459 1049 73.5699 1049 74.5055C1049 76.5188 1043.48 80.0555 1041.89 79.0674C1041.28 78.6902 1040.38 79.0017 1039.89 79.7597C1039.32 80.6604 1039.05 79.5791 1039.12 76.6378ZM390.01 78.1501C389.32 77.3183 387.958 76.6378 386.985 76.6378C384.747 76.6378 383.603 73.8208 385.105 72.011C385.961 70.9794 385.944 70.2755 385.036 69.1816C383.573 67.4184 384.516 65.5147 386.479 66.268C387.307 66.5857 388.019 68.5375 388.197 70.9743C388.428 74.1536 388.882 75.0756 390.117 74.8746C392.564 74.4762 394.373 77.0833 392.645 78.5174C391.589 79.3938 390.971 79.3076 390.01 78.1501H390.01ZM42.75 76.8739C39.9494 75.5039 39.4098 74.1153 40.8169 71.8998C41.8251 70.3123 48 72.4247 48 74.357C48 75.0614 48.45 75.6378 49 75.6378C49.55 75.6378 50 76.0353 50 76.5212C50 78.0584 45.6083 78.272 42.75 76.8739V76.8739ZM1416.5 76.6378C1416.16 76.0878 1416.33 75.6378 1416.88 75.6378C1417.43 75.6378 1418.16 76.0878 1418.5 76.6378C1418.84 77.1878 1418.67 77.6378 1418.12 77.6378C1417.57 77.6378 1416.84 77.1878 1416.5 76.6378ZM352.5 74.6378C352.84 74.0878 353.316 73.6378 353.559 73.6378C353.802 73.6378 354 74.0878 354 74.6378C354 75.1878 353.523 75.6378 352.941 75.6378C352.359 75.6378 352.16 75.1878 352.5 74.6378ZM1100 69.6378C1098.72 68.8094 1098.75 68.6662 1100.25 68.6531C1101.21 68.6447 1102 69.0878 1102 69.6378C1102 70.8574 1101.89 70.8574 1100 69.6378ZM1105.63 66.8878C1105.09 63.6835 1105.36 62.8412 1107.5 61.1002C1110.4 58.7356 1110.78 54.6499 1108.49 50.2735C1106.55 46.5538 1106.6 46.2998 1109.09 46.9513C1110.88 47.419 1111.1 47.1553 1110.59 45.1292C1109.93 42.4975 1111.46 40.7851 1112.36 43.1435C1112.7 44.0145 1114.2 44.6378 1115.97 44.6378C1117.76 44.6378 1119 45.1601 1119 45.9105C1119 46.7125 1120.39 47.1874 1122.75 47.1946C1128.28 47.2113 1130.54 48.2816 1128.99 50.1496C1128.31 50.9681 1128.13 51.6378 1128.58 51.6378C1129.03 51.6378 1128.86 52.1778 1128.2 52.8378C1127.54 53.4978 1127 54.8478 1127 55.8378C1127 56.8278 1126.34 57.6378 1125.52 57.6378C1124.71 57.6378 1123.28 58.8109 1122.34 60.2446C1120.85 62.5224 1120.13 62.7844 1116.67 62.3201C1111.62 61.6435 1109.57 63.4147 1110.5 67.6444C1111.09 70.3329 1110.91 70.6378 1108.71 70.6378C1106.66 70.6378 1106.16 70.0284 1105.63 66.8878V66.8878ZM139.122 67.7343C137.016 66.4002 138.873 64.389 141.582 65.0691C143.416 65.5294 143.817 65.3233 143.366 64.1501C142.895 62.922 143.746 62.6378 147.893 62.6378C150.702 62.6378 153 63.0156 153 63.4773C153 64.8172 148.384 66.551 146.281 66.001C145.218 65.7229 143.779 66.1993 143.058 67.0683C141.57 68.8614 141.042 68.9506 139.122 67.7343V67.7343ZM338 68.1767C338 67.9232 338.949 66.8312 340.11 65.7502C342.54 63.4857 345 63.9859 345 66.7448C345 68.2415 344.267 68.6378 341.5 68.6378C339.575 68.6378 338 68.4303 338 68.1767V68.1767ZM612.667 67.9711C611.516 66.8205 611.938 65.6378 613.5 65.6378C614.325 65.6378 615 66.3128 615 67.1378C615 68.6994 613.817 69.1218 612.667 67.9711ZM1265.17 65.5825C1263.89 63.9629 1263.33 62.6378 1263.92 62.6378C1264.52 62.6378 1265 61.9628 1265 61.1378C1265 58.9491 1268.31 59.3037 1269.77 61.6492C1270.81 63.3107 1270.75 64.0935 1269.4 66.1492C1268.5 67.5179 1267.71 68.6129 1267.63 68.5825C1267.56 68.552 1266.45 67.202 1265.17 65.5825ZM230.694 65.9983C229.761 65.0651 230.888 63.6378 232.559 63.6378C233.352 63.6378 234 64.3128 234 65.1378C234 66.644 231.889 67.1935 230.694 65.9983V65.9983ZM337.25 63.1419C335.719 61.4027 335.654 59.9698 337.067 59.0967C338.411 58.2654 340.946 61.615 340.282 63.3459C339.652 64.9865 338.825 64.9309 337.25 63.1419V63.1419ZM129.5 62.2629C131.103 61.0682 131.252 60.521 130.25 59.5051C128.418 57.6472 128.706 56.7 131.419 55.6687C134.453 54.515 138.69 56.3435 139.416 59.1202C140.122 61.8188 139.371 62.2814 133 63.0714C127.978 63.6941 127.674 63.6238 129.5 62.2629V62.2629ZM1099.65 58.809C1097.64 56.578 1097.59 55.5791 1099.4 53.1054C1100.69 51.336 1100.8 51.4682 1100.8 54.848C1100.8 56.8594 1101.1 58.985 1101.46 59.5715C1102.5 61.2505 1101.47 60.8178 1099.65 58.809V58.809ZM736.617 58.0815C735.725 55.7588 735.794 55.6378 738 55.6378C740.325 55.6378 740.593 56.9007 738.617 58.5409C737.546 59.4294 737.094 59.3256 736.617 58.0815ZM1158 54.7211C1158 53.4928 1158.65 52.6378 1159.57 52.6378C1160.5 52.6378 1161.01 53.3182 1160.82 54.3049C1160.34 56.8137 1158 57.1582 1158 54.7211ZM898.25 52.1378C898.25 50.1729 898.758 49.6378 900.625 49.6378C901.931 49.6378 903 50.0878 903 50.6378C903 51.1878 902.55 51.6378 902 51.6378C901.45 51.6378 901 52.3128 901 53.1378C901 53.9628 900.381 54.6378 899.625 54.6378C898.825 54.6378 898.25 53.5923 898.25 52.1378ZM1078.68 53.2356C1078.15 51.8528 1078.74 50.6378 1079.95 50.6378C1080.3 50.6378 1080.64 51.5378 1080.72 52.6378C1080.9 54.924 1079.48 55.3368 1078.68 53.2356ZM1390.54 53.7069C1389.86 52.6017 1391.44 51.4082 1392.36 52.3316C1393.31 53.2824 1393.13 54.6378 1392.06 54.6378C1391.54 54.6378 1390.86 54.2189 1390.54 53.7069ZM395.311 52.3321C394.474 50.9775 396.689 49.3043 398.433 49.9736C400.772 50.8711 400.37 53.5414 397.924 53.3571C396.782 53.2711 395.606 52.8098 395.311 52.3321V52.3321ZM412 52.014C409.647 50.7462 409.626 50.6664 411.643 50.6525C414.534 50.6327 415.33 48.0714 413.374 45.0854C411.629 42.4225 410.872 42.1894 408.236 43.5037C402.527 46.351 399.759 46.6022 396.858 44.5365C395.286 43.4173 394 42.1068 394 41.6243C394 41.1417 392.763 40.148 391.25 39.4159C389.265 38.4553 388.587 37.4662 388.813 35.8614C389.022 34.3783 388.605 33.6378 387.563 33.6378C385.277 33.6378 385.648 30.2258 388.289 26.9645C389.548 25.4098 391.117 22.8912 391.777 21.3677C392.436 19.8442 394.062 18.1844 395.391 17.6794C396.719 17.1744 398.083 16.3119 398.423 15.7628C399.634 13.8025 404.937 11.727 405.677 12.9236C406.835 14.7978 407.036 19.4973 405.986 20.1464C404.148 21.2825 404.988 23.5966 407.464 24.2181C408.819 24.5583 410.2 25.6919 410.532 26.7372C410.863 27.7825 411.624 28.6378 412.222 28.6378C412.821 28.6378 412.496 29.5378 411.5 30.6378C410.345 31.9135 410.137 32.6378 410.924 32.6378C411.757 32.6378 411.958 33.5521 411.542 35.4485C410.835 38.6652 413.858 42.2899 416.426 41.3046C417.517 40.886 418.098 41.6451 418.556 44.0834C419.405 48.6115 418.881 50.6645 416.5 52.1298C414.9 53.1146 414 53.0915 412 52.014V52.014ZM1134.25 51.9755C1132.3 51.1876 1132.73 47.6378 1134.78 47.6378C1136.33 47.6378 1140 50.8042 1140 52.1492C1140 52.768 1135.91 52.6443 1134.25 51.9755ZM1365.67 50.5731C1364.22 48.5082 1364.53 44.6675 1366.23 43.5388C1366.72 43.2094 1368.26 43.1564 1369.65 43.4211C1371.51 43.7781 1372.04 44.384 1371.68 45.769C1371.41 46.7957 1371.6 47.8885 1372.1 48.1975C1373.57 49.1076 1371.12 52.6378 1369.02 52.6378C1367.97 52.6378 1366.46 51.7087 1365.67 50.5731V50.5731ZM321 48.6378C321 48.0878 321.702 47.6378 322.559 47.6378C323.416 47.6378 323.84 48.0878 323.5 48.6378C323.16 49.1878 322.459 49.6378 321.941 49.6378C321.423 49.6378 321 49.1878 321 48.6378ZM1230.94 45.0616C1229.85 43.7553 1229.87 43.3298 1231.06 42.5769C1233.09 41.2927 1234.62 41.4186 1233.28 42.7596C1232.66 43.3767 1232.39 44.5017 1232.69 45.2596C1233.39 47.1006 1232.55 47.0053 1230.94 45.0616ZM1063.55 43.0523C1062.02 41.9354 1061.92 41.434 1062.97 40.169C1064.77 38.0037 1069 38.1639 1069 40.3972C1069 43.1375 1065.8 44.6966 1063.55 43.0523ZM432.812 41.9547C433.534 41.6658 434.397 41.7013 434.729 42.0336C435.061 42.3659 434.471 42.6023 433.417 42.5588C432.252 42.5108 432.015 42.2739 432.812 41.9547V41.9547ZM1075.35 37.5869C1074.77 37.0089 1073.33 36.4631 1072.15 36.3741C1069.44 36.1702 1069.35 34.6208 1072 33.9275C1073.1 33.6399 1074 33.007 1074 32.5211C1074 32.0353 1074.87 31.6378 1075.93 31.6378C1077.5 31.6378 1077.82 32.2856 1077.68 35.1333C1077.49 38.8296 1077.05 39.2902 1075.35 37.5869V37.5869ZM235 33.2448C235 32.4786 235.732 31.5708 236.627 31.2275C238.459 30.5243 241.271 32.39 240.43 33.7511C239.533 35.2024 235 34.7797 235 33.2448ZM1348.5 30.6378C1348.84 30.0878 1350.02 29.6378 1351.12 29.6378C1352.22 29.6378 1352.84 30.0878 1352.5 30.6378C1352.16 31.1878 1350.98 31.6378 1349.88 31.6378C1348.78 31.6378 1348.16 31.1878 1348.5 30.6378ZM120.5 29.6378C120.84 29.0878 121.793 28.6378 122.618 28.6378C123.443 28.6378 123.84 29.0878 123.5 29.6378C123.16 30.1878 122.207 30.6378 121.382 30.6378C120.557 30.6378 120.16 30.1878 120.5 29.6378ZM466 29.7558C466 29.2058 466.45 28.4777 467 28.1378C467.55 27.7979 468 27.9697 468 28.5197C468 29.0697 467.55 29.7979 467 30.1378C466.45 30.4777 466 30.3058 466 29.7558V29.7558ZM1033.88 28.8878C1033.82 28.4753 1033.8 27.8453 1033.85 27.4878C1033.9 27.1303 1032.9 26.5786 1031.64 26.2618C1028.21 25.4006 1026.52 21.0251 1028.47 18.0501C1029.31 16.762 1030 14.8222 1030 13.7394C1030 12.3406 1030.79 11.679 1032.72 11.4542C1035.22 11.1637 1035.75 11.7775 1039.22 18.9622C1041.3 23.2656 1043 26.9781 1043 27.2122C1043 27.4463 1041.9 27.6378 1040.56 27.6378C1039.22 27.6378 1037.84 28.0878 1037.5 28.6378C1036.78 29.8016 1034.06 29.9899 1033.88 28.8878H1033.88ZM12.5 27.6378C12.8399 27.0878 13.3165 26.6378 13.559 26.6378C13.8016 26.6378 14 27.0878 14 27.6378C14 28.1878 13.5234 28.6378 12.941 28.6378C12.3585 28.6378 12.1601 28.1878 12.5 27.6378ZM523 27.2448C523 26.4786 523.732 25.5708 524.627 25.2275C526.459 24.5243 529.271 26.39 528.43 27.7511C527.533 29.2024 523 28.7797 523 27.2448ZM123.188 25.5753C123.428 24.8534 124.216 24.0659 124.938 23.8253C125.688 23.5753 126.063 23.9503 125.812 24.7003C125.572 25.4222 124.784 26.2097 124.063 26.4503C123.313 26.7003 122.938 26.3253 123.188 25.5753ZM1182.25 24.9755C1180.3 24.1876 1180.73 20.6378 1182.78 20.6378C1184.33 20.6378 1188 23.8042 1188 25.1492C1188 25.768 1183.91 25.6443 1182.25 24.9755ZM165.723 23.027C164.647 21.9513 164.848 16.6378 165.965 16.6378C167.845 16.6378 168.995 20.262 167.684 22.0555C167.003 22.9872 166.12 23.4244 165.723 23.027V23.027ZM12.2605 19.9528C10.9013 17.0258 11.3884 15.6262 13.1524 17.3902C13.9778 18.2156 14.6482 18.1325 15.7071 17.0735C16.4968 16.2839 18.6705 15.6378 20.5377 15.6378H23.9325L21.8675 19.1378C20.1995 21.9648 19.1965 22.6363 16.6512 22.63C14.2168 22.624 13.218 22.015 12.2605 19.9528ZM243.723 20.027C242.647 18.9514 242.848 13.6378 243.965 13.6378C245.845 13.6378 246.995 17.262 245.684 19.0555C245.003 19.9872 244.12 20.4244 243.723 20.027ZM112.75 18.9485C110.89 18.4625 110.52 17.4514 111.75 16.2211C112.163 15.8086 112.5 14.9461 112.5 14.3045C112.5 13.6628 113.175 13.1378 114 13.1378C114.961 13.1378 115.613 14.3048 115.813 16.3878C116.128 19.6533 115.966 19.7889 112.75 18.9485ZM223 16.7558C223 16.2058 223.45 15.4777 224 15.1378C224.55 14.7979 225 14.9697 225 15.5197C225 16.0697 224.55 16.7979 224 17.1378C223.45 17.4777 223 17.3058 223 16.7558V16.7558ZM454.456 16.567C454.081 15.9601 454.215 15.0225 454.754 14.4834C455.394 13.8433 455.939 14.0359 456.324 15.0385C457.023 16.8616 455.439 18.1579 454.456 16.567V16.567ZM1131 13.5788C1131 12.9963 1131.45 12.7979 1132 13.1378C1132.55 13.4777 1133 13.9543 1133 14.1968C1133 14.4393 1132.55 14.6378 1132 14.6378C1131.45 14.6378 1131 14.1612 1131 13.5788ZM1078 12.6968C1078 12.1793 1078.45 11.4777 1079 11.1378C1079.55 10.7979 1080 11.2213 1080 12.0788C1080 12.9362 1079.55 13.6378 1079 13.6378C1078.45 13.6378 1078 13.2143 1078 12.6968ZM392.375 11.0172C391.615 10.7047 391.94 9.1082 393.375 6.1006C395.339 1.98325 395.727 1.69217 398.5 2.24763C402.962 3.14132 403.321 3.98014 400.954 7.99078C398.864 11.5342 396.047 12.5276 392.375 11.0172V11.0172ZM511 10.7558C511 10.2058 511.45 9.4777 512 9.13778C512.55 8.79786 513 8.96975 513 9.51974C513 10.0697 512.55 10.7979 512 11.1378C511.45 11.4777 511 11.3058 511 10.7558V10.7558ZM795.5 10.6378C795.16 10.0878 795.583 9.63778 796.441 9.63778C797.298 9.63778 798 10.0878 798 10.6378C798 11.1878 797.577 11.6378 797.059 11.6378C796.541 11.6378 795.84 11.1878 795.5 10.6378ZM106.489 8.61981C105.574 7.13939 106.442 6.38266 108.577 6.79938C110.14 7.10426 110.156 7.2664 108.745 8.43634C107.62 9.36843 106.984 9.42021 106.489 8.61981V8.61981ZM704.51 8.62131C704.856 8.06234 705.557 7.86389 706.069 8.18032C707.456 9.03757 707.197 9.63762 705.441 9.63762C704.584 9.63762 704.165 9.18028 704.51 8.62131V8.62131ZM142.466 6.86542C142.786 6.03105 142.293 4.51346 141.369 3.493C139.769 1.7245 139.832 1.63762 142.728 1.63762C145.034 1.63762 145.912 2.18028 146.37 3.88762C147.269 7.24297 147.211 7.36421 144.442 7.89347C142.456 8.27314 142.014 8.04329 142.466 6.86542ZM259.143 6.74731C258.319 6.2251 258.176 5.64659 258.78 5.27363C259.326 4.93594 260.329 5.32966 261.009 6.14863C262.359 7.77453 261.3 8.11407 259.143 6.74731ZM702 6.60625C702 5.3173 704.849 4.15337 705.764 5.06846C706.137 5.44132 705.78 6.16501 704.971 6.67669C703.035 7.9009 702 7.87635 702 6.60626V6.60625ZM987.117 5.77055C984.96 5.16604 984.889 4.97455 986.367 3.74779C987.676 2.6617 988.298 2.63983 989.5 3.63763C991.075 4.94451 991.531 6.70817 990.25 6.53795C989.837 6.48313 988.428 6.1378 987.117 5.77055V5.77055ZM735.571 3.0662C733.485 0.979582 733.567 0.832132 736.5 1.39288C737.875 1.65573 739 2.49332 739 3.2542C739 5.08876 737.512 5.00719 735.571 3.0662V3.0662Z" fill="#FDE28C"/>
</g>
<defs>
<clipPath id="clip0">
<rect width="1440" height="400" fill="white"/>
</clipPath>
</defs>
</svg>
