<?xml version="1.0" encoding="UTF-8" standalone="no"?>
<svg
   xmlns:dc="http://purl.org/dc/elements/1.1/"
   xmlns:cc="http://creativecommons.org/ns#"
   xmlns:rdf="http://www.w3.org/1999/02/22-rdf-syntax-ns#"
   xmlns:svg="http://www.w3.org/2000/svg"
   xmlns="http://www.w3.org/2000/svg"
   xmlns:sodipodi="http://sodipodi.sourceforge.net/DTD/sodipodi-0.dtd"
   xmlns:inkscape="http://www.inkscape.org/namespaces/inkscape"
   width="1440"
   height="600"
   viewBox="0 0 1440 600"
   fill="none"
   version="1.1"
   id="svg234"
   sodipodi:docname="gfx-object-white.svg"
   inkscape:version="0.92.4 (5da689c313, 2019-01-14)">
  <metadata
     id="metadata240">
    <rdf:RDF>
      <cc:Work
         rdf:about="">
        <dc:format>image/svg+xml</dc:format>
        <dc:type
           rdf:resource="http://purl.org/dc/dcmitype/StillImage" />
      </cc:Work>
    </rdf:RDF>
  </metadata>
  <defs
     id="defs238" />
  <sodipodi:namedview
     pagecolor="#ffffff"
     bordercolor="#666666"
     borderopacity="1"
     objecttolerance="10"
     gridtolerance="10"
     guidetolerance="10"
     inkscape:pageopacity="0"
     inkscape:pageshadow="2"
     inkscape:window-width="2029"
     inkscape:window-height="996"
     id="namedview236"
     showgrid="false"
     inkscape:zoom="0.78888891"
     inkscape:cx="517.99834"
     inkscape:cy="367.87259"
     inkscape:window-x="0"
     inkscape:window-y="0"
     inkscape:window-maximized="0"
     inkscape:current-layer="svg234" />
  <rect
     width="1440"
     height="600"
     fill="white"
     id="rect2" />
  <rect
     width="1440"
     height="600"
     fill="#39352A"
     id="rect4" />
  <path
     d="M1099.82 340.566C1098.82 339.958 1099.3 337.485 1100.47 337.226C1101.02 337.105 1101.07 337.484 1100.63 338.638C1100.23 339.731 1100.25 340.246 1100.74 340.315C1101.12 340.37 1101.26 340.56 1101.04 340.743C1100.82 340.93 1100.29 340.851 1099.82 340.566ZM1098.64 344.5C1098.52 344.484 1098.48 344.029 1098.56 343.525C1098.63 343.026 1098.93 342.62 1099.21 342.66C1099.49 342.7 1099.53 343.153 1099.3 343.631C1099.07 344.114 1098.76 344.517 1098.64 344.5ZM1104.25 230.049C1103.87 229.565 1103.69 228.997 1103.89 228.836C1104.07 228.676 1104.42 229.011 1104.63 229.548C1105.18 230.975 1105.08 231.11 1104.25 230.049ZM1077.85 399.411C1077.59 399.927 1076.77 400.279 1076.05 400.177C1075.33 400.075 1074.68 400.276 1074.63 400.618C1074.58 400.946 1074.84 401.289 1075.18 401.336C1075.51 401.383 1075.61 401.595 1075.4 401.783C1075.17 401.977 1074.46 401.405 1073.85 400.535C1072.28 398.294 1071.16 399.101 1072.33 401.637C1073.21 403.555 1073.2 403.661 1072.07 404.737C1070.66 406.069 1068.23 405.898 1068.44 404.474C1068.51 403.943 1069.07 402.614 1069.72 401.423C1070.36 400.236 1070.93 398.823 1071.03 398.185C1071.11 397.559 1071.56 396.798 1072.03 396.471C1072.67 396.035 1073.08 396.239 1073.7 397.286C1074.78 399.118 1075.84 399.191 1076.31 397.464C1076.79 395.679 1078.75 395.443 1078.5 397.201C1078.4 397.892 1078.11 398.884 1077.85 399.411ZM1095.88 234.52C1095.39 234.56 1094.89 233.607 1094.61 232.096C1094.36 230.711 1094.09 229.372 1094.02 229.098C1093.96 228.827 1094.37 228.669 1094.92 228.747C1095.49 228.829 1096.21 229.827 1096.57 231.027C1097.28 233.499 1097.11 234.405 1095.88 234.52ZM1068.39 412.724C1067.76 412.813 1067.16 413.448 1067.06 414.135C1066.94 414.988 1066.37 415.425 1065.29 415.502C1063.34 415.632 1063.28 415.518 1064.08 413.263C1064.57 411.866 1065.31 411.172 1066.91 410.594C1068.1 410.166 1069.29 409.727 1069.54 409.624C1069.79 409.516 1069.89 410.121 1069.77 410.999C1069.62 412.004 1069.13 412.626 1068.39 412.724ZM1063.97 422.18C1063.59 421.709 1063.16 421.841 1062.6 422.594C1061.7 423.808 1062.22 424.893 1063.41 424.28C1063.92 424.022 1063.99 424.23 1063.63 424.948C1063.34 425.547 1063.08 426.237 1063.04 426.56C1062.99 426.865 1062.07 426.998 1061.02 426.849C1059.3 426.605 1059.05 426.758 1058.85 428.176C1058.73 429.052 1058.4 429.569 1058.13 429.32C1057.86 429.074 1057.57 429.242 1057.51 429.68C1057.37 430.682 1053.61 433.743 1053.23 433.168C1053.08 432.941 1052.42 433.156 1051.78 433.634C1050.67 434.485 1050.62 434.461 1050.81 433.144C1051.03 431.564 1054.61 426.196 1056.76 424.198C1057.6 423.423 1058.21 422.465 1058.15 422.026C1058.01 421.045 1059.5 419.517 1060.06 420.056C1060.28 420.257 1060.11 421.119 1059.72 421.895C1059.08 423.151 1059.13 423.383 1060.08 423.518C1060.74 423.612 1061.49 423.076 1061.95 422.183C1063.04 420.034 1064.18 419.15 1065.26 419.63C1066.01 419.963 1066.03 420.265 1065.34 421.449C1064.79 422.391 1064.34 422.639 1063.97 422.18ZM1062.71 419.359C1062.05 419.83 1061.78 419.725 1061.65 418.937C1061.37 417.362 1061.41 417.304 1062.63 417.478C1063.91 417.659 1063.94 418.485 1062.71 419.359ZM1093.1 196.099C1092.78 195.027 1092.4 194.003 1092.24 193.811C1091.97 193.489 1089.91 188.726 1086.91 181.517C1086.37 180.223 1085.36 178.309 1084.7 177.327C1084.05 176.362 1083.53 175.237 1083.58 174.898C1083.63 174.548 1082.92 173.179 1081.99 171.816C1080.54 169.704 1078.82 165.644 1079.41 165.728C1080.28 165.852 1082.99 168.603 1083.58 169.97C1084 170.925 1084.66 172.245 1085.1 172.966C1085.52 173.681 1086.16 175.265 1086.51 176.47C1087.09 178.463 1089.78 184.231 1091.63 187.433C1092.67 189.253 1093.91 193.566 1093.74 194.776C1093.66 195.344 1093.82 196.057 1094.09 196.3C1094.36 196.544 1094.38 197.044 1094.13 197.395C1093.86 197.768 1093.43 197.236 1093.1 196.099ZM1075.27 305.17C1074.91 305.741 1074.28 306.848 1073.84 307.689L1073.07 309.182L1073 307.569C1072.54 295.919 1071.77 286.385 1071.04 283.281C1070.87 282.554 1070.54 280.204 1070.32 278.059C1069.89 274.09 1069.19 270.319 1068.54 268.528C1067.15 264.676 1066.61 262.154 1066.97 261.196C1067.21 260.57 1067.02 259.288 1066.57 258.388C1066.11 257.475 1065.86 255.853 1066.01 254.787C1066.29 252.83 1065.75 247.576 1065.05 245.431C1064.86 244.828 1064.75 243.815 1064.82 243.287C1064.9 242.723 1064.66 242.35 1064.27 242.439C1063.14 242.691 1062.42 239.551 1062.72 235.687C1063 232.085 1062.17 228.856 1061.1 229.406C1060.1 229.924 1059.23 228.216 1059.71 226.68C1060.04 225.645 1059.87 225.142 1059.05 224.764C1058.43 224.484 1057.8 223.566 1057.65 222.707C1057.49 221.851 1056.47 219.758 1055.35 218.003C1054.24 216.24 1053.17 214.27 1052.96 213.561C1052.76 212.892 1052.35 212.319 1052.09 212.348C1051.83 212.383 1051.15 210.932 1050.62 209.2C1050.09 207.454 1049.31 205.698 1048.94 205.353C1048.18 204.678 1048.39 202.288 1049.19 202.402C1049.48 202.444 1049.77 202.715 1049.91 203.074C1050.03 203.418 1051.19 204.153 1052.52 204.727C1053.85 205.31 1054.86 206.137 1054.8 206.587C1054.73 207.051 1055.23 208.319 1055.94 209.508C1056.62 210.635 1057.6 212.976 1058.07 214.581C1058.55 216.233 1060.17 220.287 1061.71 223.705C1063.25 227.124 1064.44 230.1 1064.4 230.397C1064.36 230.682 1064.72 231.816 1065.18 232.844C1068.78 240.904 1074.99 267.086 1074.36 271.533C1074.25 272.245 1074.53 274.014 1074.96 275.424C1075.4 276.847 1075.82 279.35 1075.89 281.031C1076.27 289.148 1076.32 298.979 1076.02 303.008C1075.96 303.635 1075.64 304.596 1075.27 305.17ZM1069.21 323.166C1068.81 323.253 1068.16 325.247 1067.66 327.932C1066.76 332.796 1065.99 334.525 1063.52 337.137C1062.66 338.038 1061.92 339.125 1061.86 339.556C1061.8 339.989 1061.18 340.778 1060.48 341.311C1059.22 342.275 1059.23 342.191 1060.97 330.338C1061.94 323.757 1062.74 317.145 1062.75 315.612C1062.77 314.057 1063.25 311.489 1063.85 309.784C1065.75 304.356 1066.19 302.144 1065.6 301.002C1065.23 300.297 1065.42 296.95 1066.22 290.408C1066.87 285.115 1067.38 279.839 1067.37 278.593C1067.35 277.187 1067.51 276.617 1067.79 277.056C1068.37 277.984 1069.64 284.554 1069.68 286.863C1069.7 287.859 1069.85 290.282 1070.02 292.289C1070.18 294.296 1070.21 296.684 1070.07 297.645C1069.94 298.583 1070.01 299.537 1070.23 299.737C1070.6 300.08 1070.53 305.678 1070.1 310.8C1070.03 311.625 1070.09 312.276 1070.25 312.298C1070.4 312.32 1070.31 313.679 1070.05 315.306C1069.78 316.933 1069.69 318.877 1069.83 319.595C1070.22 321.509 1069.96 323.009 1069.21 323.166ZM1083.56 197.682C1082.35 197.511 1081.81 196.6 1080.76 192.997C1080.2 191.06 1079.41 189.107 1078.98 188.587C1078.55 188.061 1077.5 185.847 1076.61 183.606C1075.45 180.688 1075.21 179.408 1075.71 178.978C1076.59 178.243 1078.57 181.805 1078.68 184.319C1078.73 185.288 1079 186.154 1079.26 186.192C1079.53 186.23 1079.91 187.148 1080.08 188.201C1080.25 189.243 1080.83 190.366 1081.34 190.649C1081.85 190.935 1082.75 192.453 1083.32 194.003C1084.5 197.243 1084.54 197.821 1083.56 197.682ZM1057.85 351.499C1056.92 351.366 1057.63 349.167 1059.06 347.769C1060.37 346.482 1060.45 346.476 1060.99 347.656C1061.47 348.713 1061.32 349.079 1059.97 350.233C1059.14 350.949 1058.14 351.54 1057.85 351.499ZM1076.99 212.113C1076.14 211.993 1074.37 207.898 1074.57 206.519C1074.65 205.955 1074.39 205.131 1073.99 204.646C1073.6 204.178 1073.32 203.363 1073.39 202.889C1073.46 202.41 1073.16 201.96 1072.71 201.897C1072.29 201.837 1072.03 201.232 1072.16 200.608C1072.4 199.481 1072.46 199.478 1073.48 200.653C1074.54 201.861 1075.3 203.615 1076.9 208.58C1077.92 211.731 1077.94 212.248 1076.99 212.113ZM1041.06 452.879C1040.47 451.988 1041.12 451.222 1041.87 451.921C1042.17 452.2 1042.23 452.709 1041.99 453.047C1041.72 453.435 1041.38 453.374 1041.06 452.879ZM1039.25 456.687C1038.44 456.799 1037.77 457.24 1037.76 457.662C1037.72 459.706 1037.4 460.161 1036.65 459.239C1036.27 458.771 1035.99 457.95 1036.05 457.483C1036.12 457.014 1035.79 456.547 1035.35 456.484C1034.3 456.335 1034.37 455.77 1035.6 454.408C1036.22 453.726 1036.62 453.635 1036.82 454.132C1036.98 454.546 1037.77 454.929 1038.61 454.99C1040.57 455.138 1040.89 455.272 1040.8 455.913C1040.75 456.226 1040.05 456.572 1039.25 456.687ZM1070 195.052C1068.2 191.976 1067.58 189.191 1069.13 191.125C1069.52 191.603 1069.81 192.357 1069.75 192.742C1069.69 193.145 1070.18 194.073 1070.86 194.855C1071.54 195.635 1072.02 196.657 1071.94 197.18C1071.86 197.738 1071.07 196.868 1070 195.052ZM1032.84 455.852C1031.45 456.141 1030.92 455.661 1031.61 454.736C1032.17 453.985 1034.26 454.231 1034.14 455.033C1034.1 455.356 1033.54 455.707 1032.84 455.852ZM1066.29 219.295L1065.23 220.943L1064.9 219.129C1064.71 218.147 1064.64 216.782 1064.73 216.129C1064.82 215.501 1064.63 214.505 1064.32 214.025C1064 213.508 1063.29 211.991 1062.7 210.557C1062.11 209.132 1061.49 207.984 1061.29 207.956C1061.09 207.927 1060.64 207.162 1060.27 206.213C1059.9 205.264 1059.8 204.548 1060.05 204.584C1060.93 204.708 1064.92 210.844 1064.78 211.844C1064.7 212.407 1064.91 213.122 1065.28 213.469C1065.74 213.911 1067.17 216.794 1067.32 217.584C1067.33 217.623 1066.85 218.414 1066.29 219.295ZM1074.8 157.661C1074.46 157.819 1072.63 155.591 1070.68 152.647C1068.73 149.696 1066.81 147.293 1066.34 147.228C1065.9 147.165 1065.54 146.664 1065.57 146.154C1065.59 145.643 1065.64 144.828 1065.67 144.408C1065.7 143.977 1064.73 142.659 1063.54 141.517C1062.35 140.369 1061.06 138.952 1060.71 138.392C1060.36 137.827 1059.74 137.324 1059.35 137.267C1058.41 137.134 1056.95 134.736 1057.52 134.254C1057.77 134.041 1057.58 133.814 1057.08 133.743C1055.53 133.523 1053.12 131.019 1053.57 130.105C1053.81 129.63 1053.72 129.003 1053.35 128.634C1052.95 128.245 1053.43 128.101 1054.59 128.266C1056.63 128.557 1061.08 132.54 1061.38 134.355C1061.47 134.907 1062.52 136.435 1063.73 137.806C1066.07 140.445 1075.06 153.901 1075.33 155.161C1075.6 156.419 1075.39 157.381 1074.8 157.661ZM1027.32 459.729C1026.41 459.764 1026.12 460.097 1026.25 460.952C1026.37 461.777 1026.07 462.202 1025.25 462.38C1024.61 462.516 1023.96 462.987 1023.81 463.421C1023.62 463.95 1023.19 464.016 1022.51 463.619C1021.59 463.083 1021.72 462.835 1023.84 461.026C1025.12 459.929 1026.43 459.057 1026.74 459.1C1027.04 459.143 1027.64 458.653 1028.06 458.011C1029.12 456.409 1030.03 456.69 1029.21 458.365C1028.86 459.083 1028 459.705 1027.32 459.729ZM1067.82 165.868C1065.76 162.823 1064.07 159.146 1064.54 158.748C1065.25 158.13 1070.66 168.003 1070.02 168.74C1069.93 168.837 1068.93 167.532 1067.82 165.868ZM1064.68 185.126C1064.38 184.845 1064.2 184.144 1064.28 183.581C1064.4 182.702 1064.52 182.749 1065.06 183.916C1065.72 185.354 1065.55 185.924 1064.68 185.126ZM1018.31 473.101C1018.01 472.671 1018.1 472.353 1018.58 472.215C1019 472.09 1019.37 471.623 1019.44 471.122C1019.56 470.242 1020.78 470.037 1021.29 470.808C1021.78 471.563 1018.82 473.837 1018.31 473.101ZM1059.33 201.279C1058.66 201.183 1055 198.037 1054.52 197.14C1054.2 196.531 1053.51 195.956 1053.02 195.869C1052.34 195.747 1052.4 195.612 1053.29 195.334C1054.37 194.99 1054.34 194.895 1052.96 194.264C1051.69 193.677 1051.54 193.335 1052.01 192.108C1052.97 189.557 1050.26 184.364 1048.1 184.617C1046.43 184.817 1044.92 183.331 1045.83 182.395C1046.42 181.791 1046.91 181.87 1048.74 182.894C1050.78 184.041 1054.1 187.672 1053.97 188.609C1053.93 188.853 1054.41 189.89 1055.05 190.941C1055.68 191.988 1056.16 193.035 1056.12 193.303C1056.09 193.568 1056.87 195.034 1057.9 196.659C1059.42 199.055 1060.15 201.396 1059.33 201.279ZM1018.35 464.838C1016.4 464.817 1017.04 463.782 1019.09 463.639C1020 463.579 1020.45 463.791 1020.25 464.198C1020.08 464.548 1019.2 464.849 1018.35 464.838ZM1016.38 468.834C1015.12 468.9 1013.86 469.265 1013.56 469.648C1012.85 470.572 1009.85 471.76 1009.53 471.251C1009.38 471.012 1010.2 470.346 1011.42 469.727C1012.64 469.107 1013.62 468.38 1013.66 468.062C1013.7 467.759 1014.13 467.552 1014.57 467.615C1015.01 467.678 1015.47 467.294 1015.54 466.794C1015.69 465.68 1017.15 465.788 1018.05 466.982C1019.11 468.383 1018.82 468.704 1016.38 468.834ZM1044.96 176.514C1044.66 176.242 1044.49 175.819 1044.54 175.462C1044.6 175.107 1044.85 174.895 1045.19 174.942C1045.51 174.988 1045.68 175.43 1045.6 175.993C1045.52 176.555 1045.25 176.773 1044.96 176.514ZM1042.36 191.824C1042.14 191.792 1041.6 191.418 1041.2 191.019C1040.61 190.425 1040.71 190.308 1041.71 190.45C1042.37 190.544 1042.91 190.923 1042.87 191.255C1042.81 191.634 1042.61 191.859 1042.36 191.824ZM998.772 469.143C996.73 469.996 995.049 470.577 994.971 470.461C994.893 470.341 994.822 469.702 994.811 468.998C994.797 467.977 995.188 467.727 996.955 467.637C998.147 467.577 999.431 467.26 999.821 466.926C1000.66 466.214 1002.61 466.352 1002.5 467.115C1002.46 467.393 1000.81 468.294 998.772 469.143ZM1039.03 184.054C1038.56 183.782 1038.29 183.416 1038.47 183.273C1038.64 183.126 1039.2 183.233 1039.68 183.505C1040.14 183.777 1040.41 184.142 1040.24 184.287C1040.07 184.432 1039.5 184.327 1039.03 184.054ZM996.326 480.785C995.86 480.491 995.696 479.997 995.951 479.657C996.275 479.223 996.595 479.291 997.073 479.901C997.915 480.972 997.466 481.504 996.326 480.785ZM1037.16 167.848C1035.99 167.773 1035.52 167.465 1035.61 166.825C1035.68 166.326 1035.42 165.878 1035.02 165.821C1034.62 165.764 1034.34 165.143 1034.39 164.449C1034.45 163.749 1034.81 163.228 1035.21 163.284C1035.93 163.387 1038.97 167.001 1038.88 167.648C1038.86 167.824 1038.11 167.912 1037.16 167.848ZM1036.65 158.721C1035.62 157.623 1035.62 157.583 1036.68 157.734C1037.29 157.82 1038.04 158.264 1038.34 158.73C1039.23 160.08 1037.93 160.069 1036.65 158.721ZM1033.33 173.899C1032.5 172.527 1031.03 170.666 1029.99 169.676C1028.94 168.682 1028.16 167.603 1028.22 167.219C1028.29 166.714 1028.45 166.738 1028.82 167.305C1029.12 167.75 1029.69 167.984 1030.16 167.857C1030.98 167.629 1034.58 171.704 1034 172.197C1033.83 172.348 1034.01 172.899 1034.4 173.377C1034.79 173.868 1035.05 174.752 1034.97 175.309C1034.87 176.021 1034.35 175.581 1033.33 173.899ZM988.06 476.982C987.711 477.159 987.135 476.932 986.856 476.509C986.466 475.913 986.567 475.57 987.238 475.217C987.725 474.963 988.334 474.763 988.54 474.789C989.174 474.865 988.791 476.613 988.06 476.982ZM1024.55 165.572C1022.73 164.096 1022.31 162.729 1023.74 162.933C1024.41 163.027 1027.24 166.721 1026.89 167.028C1026.74 167.149 1025.72 166.513 1024.55 165.572ZM971.261 486.549C970.032 486.443 968.238 486.264 967.335 486.156C965.114 485.896 963.664 486.684 963.56 488.206C963.492 489.218 963.118 489.429 961.673 489.251C960.674 489.123 959.67 489.196 959.428 489.408C958.462 490.245 958.132 489.609 958.956 488.511C959.436 487.875 960.074 487.391 960.379 487.434C961.103 487.537 965.768 483.27 965.893 482.391C965.957 481.943 966.637 481.941 967.815 482.378C969.586 483.031 969.646 482.992 969.85 480.97C970.054 478.969 970.144 478.899 972.146 479.12C973.422 479.262 974.19 479.642 974.124 480.106C973.999 480.982 975.58 483.298 976.272 483.251C977.806 483.146 977.615 483.741 975.661 485.174C974.18 486.256 972.821 486.679 971.261 486.549ZM923.232 486.63C922.786 486.566 922.438 486.251 922.481 485.948C922.524 485.645 922.97 485.275 923.442 485.154C923.97 485.017 924.267 485.29 924.189 485.839C924.122 486.325 923.673 486.692 923.232 486.63ZM908.526 521.356C908.023 520.611 909.282 520.008 910.344 520.484L911.51 521.005L910.135 521.355C909.374 521.546 908.656 521.547 908.526 521.356ZM899.239 492.181C898.85 492.126 898.394 491.752 898.253 491.369C898.107 490.983 897.549 490.758 897.025 490.874C896.501 490.993 895.17 491.021 894.109 490.939C893.046 490.857 891.587 491.233 890.913 491.764C890.214 492.314 889.384 492.698 889.011 492.645C888.648 492.593 888.13 492.999 887.866 493.539C887.495 494.309 886.956 494.383 885.449 493.87C884.262 493.465 882.987 493.477 882.169 493.899C880.466 494.775 874.893 495.428 873.213 494.952C870.66 494.225 870.918 491.955 873.64 491.156C874.524 490.894 876.345 490.787 877.739 490.916C879.133 491.042 880.642 491.011 881.134 490.843C883.332 490.097 888.153 489.324 889.457 489.509C890.229 489.619 890.941 489.394 890.993 489.023C891.049 488.629 891.401 488.527 891.817 488.788C892.231 489.047 892.704 489.103 892.922 488.913C893.585 488.337 898.469 488.874 899.379 489.62C900.387 490.454 900.285 492.33 899.239 492.181ZM849.76 524.891C847.617 525.269 844.823 524.876 844.56 524.156C844.413 523.752 845.068 523.742 846.199 524.132C847.492 524.58 848.564 524.522 849.612 523.944C851.39 522.969 851.902 522.963 851.471 523.924C851.296 524.318 850.511 524.761 849.76 524.891ZM834.987 512.447C834.224 512.839 831.805 512.968 829.353 512.747C825.396 512.39 825.049 512.252 824.892 510.994C824.793 510.208 825.036 509.462 825.449 509.243C826.817 508.533 831.111 508.733 832.461 509.569C833.186 510.019 834.422 510.491 835.138 510.593C836.854 510.837 836.799 511.518 834.987 512.447ZM830.842 505.088C830.371 505.221 829.909 505.043 829.767 504.676C829.634 504.326 830.021 504.105 830.632 504.191C831.96 504.379 832.046 504.75 830.842 505.088ZM826.523 504.695C826.157 504.465 826.485 504.368 827.257 504.478C828.03 504.588 828.317 504.772 827.906 504.891C827.492 505.011 826.881 504.924 826.523 504.695ZM821.336 505.813C819.158 504.839 818.862 504.555 819.873 504.405C821.144 504.216 824.363 505.001 825.928 505.879C826.523 506.212 826.389 506.407 825.387 506.678C824.545 506.907 823.087 506.596 821.336 505.813ZM816.998 505.131C816.656 505.303 816.435 505.147 816.488 504.77C816.542 504.394 816.821 504.146 817.132 504.19C817.472 504.238 817.671 504.38 817.646 504.551C817.622 504.72 817.37 504.954 816.998 505.131ZM811.557 505.702C809.018 505.677 808.343 505.507 808.859 505.028C809.237 504.676 811.03 504.434 812.887 504.484C815.25 504.547 816.042 504.748 815.589 505.155C815.232 505.475 813.414 505.719 811.557 505.702ZM812.938 493.195C809.162 493.161 808.882 493.078 808.852 492.003C808.818 491.026 809.203 490.901 811.247 491.192C813.519 491.515 814.356 491.974 814.234 492.832C814.203 493.037 813.617 493.204 812.938 493.195ZM790.898 509.229C790.472 508.968 790.62 508.848 791.287 508.901C791.847 508.946 792.165 509.147 791.957 509.318C791.753 509.496 791.263 509.454 790.898 509.229ZM757.394 501.457C756.567 501.34 756.01 500.781 755.917 499.965C755.816 499.134 755.296 498.597 754.457 498.478C753.743 498.376 753.084 497.884 752.996 497.374C752.722 495.874 754.354 495.074 756.164 495.822C757.816 496.504 758.172 497.426 756.903 497.766C756.515 497.873 756.834 498.25 757.634 498.617C759.543 499.496 759.353 501.736 757.394 501.457ZM696.618 474.891C696.068 474.813 695.4 473.948 695.187 473.02C694.665 470.834 694.737 470.546 695.655 471.129C696.066 471.393 696.55 471.368 696.776 471.071C697.667 469.897 698.251 470.769 697.957 472.839C697.716 474.533 697.405 475.003 696.618 474.891ZM729.395 144.54C727.633 145.809 727.552 145.99 728.139 147.333C729.104 149.515 728.756 150.355 727.042 149.953C725.348 149.56 724.988 147.344 726.381 145.933C726.83 145.482 727.053 144.854 726.909 144.471C726.662 143.803 730.312 140.479 731.2 140.569C732.297 140.664 731.098 143.32 729.395 144.54ZM647.86 354.653C647.478 354.188 647.173 353.518 647.215 353.216C647.258 352.917 647.688 352.709 648.128 352.771C648.599 352.838 648.879 353.453 648.772 354.206C648.61 355.333 648.482 355.399 647.86 354.653ZM651.94 287.25C651.231 288.429 651.112 288.438 650.597 287.346C650.276 286.66 650.072 285.85 650.117 285.453C650.233 284.444 652.874 281.677 653.323 282.097C653.809 282.549 653.037 285.421 651.94 287.25ZM626.548 356.422C626.238 355.949 627.216 354.916 627.876 355.01C628.211 355.058 628.103 355.427 627.603 355.931C627.17 356.384 626.674 356.612 626.548 356.422ZM619.983 326.363C619.648 326.316 619.462 326.032 619.515 325.655C619.569 325.279 619.827 325.058 620.162 325.106C620.495 325.153 620.681 325.437 620.627 325.813C620.574 326.19 620.316 326.411 619.983 326.363ZM622.191 266.365C621.355 265.896 620.629 263.866 621.143 263.435C621.768 262.911 623.115 264.649 622.954 265.78C622.881 266.282 622.531 266.555 622.191 266.365Z"
     id="path6"
     fill="#F7BF08" />
  <path
     d="M1118.41 295.799C1118.06 295.975 1117.91 296.316 1118.04 296.669C1118.37 297.593 1118.7 297.489 1118.86 296.416C1118.92 295.935 1118.71 295.654 1118.41 295.799Z"
     id="path8"
     fill="#F7BF08" />
  <path
     d="M1107.85 337.13C1107.64 337.527 1107.55 338.186 1107.64 338.624C1107.73 339.063 1107.89 338.752 1108.01 337.914C1108.13 337.078 1108.06 336.734 1107.85 337.13Z"
     id="path10"
     fill="#F7BF08" />
  <path
     d="M1114.05 255.736C1113.85 256.133 1113.79 256.662 1113.94 256.878C1114.08 257.087 1114.26 256.745 1114.31 256.142C1114.38 255.415 1114.28 255.274 1114.05 255.736Z"
     id="path12"
     fill="#F7BF08" />
  <path
     d="M1078.14 417.864C1077.5 417.811 1077.37 417.927 1077.77 418.177C1078.12 418.39 1078.58 418.429 1078.78 418.26C1078.98 418.096 1078.67 417.908 1078.14 417.864Z"
     id="path14"
     fill="#F7BF08" />
  <path
     d="M1074.66 421.882C1074.32 422.051 1074.05 422.406 1074 422.764C1073.95 423.119 1074.15 423.245 1074.5 423.076C1074.84 422.907 1075.11 422.556 1075.16 422.197C1075.21 421.837 1075.01 421.711 1074.66 421.882Z"
     id="path16"
     fill="#F7BF08" />
  <path
     d="M1073.42 423.839C1072.84 423.756 1070.21 425.86 1070.45 426.22C1070.55 426.375 1070.96 426.398 1071.41 426.277C1072.36 426.017 1074.08 423.933 1073.42 423.839Z"
     id="path18"
     fill="#F7BF08" />
  <path
     d="M1039.83 466.616C1039.25 466.533 1038.71 466.741 1038.67 467.06C1038.62 467.39 1038.92 467.708 1039.35 467.768C1039.77 467.828 1040.29 467.628 1040.51 467.322C1040.73 467.027 1040.41 466.698 1039.83 466.616Z"
     id="path20"
     fill="#F7BF08" />
  <path
     d="M1038.23 468.247C1036.86 468.015 1032.44 469.244 1032.35 469.879C1032.23 470.724 1033.43 470.61 1036.44 469.488C1038.14 468.852 1038.86 468.357 1038.23 468.247Z"
     id="path22"
     fill="#F7BF08" />
  <path
     d="M1079.49 161.139C1079.26 159.125 1078.47 158.04 1075.71 155.912C1074.21 154.753 1073.65 154.571 1073.23 155.134C1072.53 156.063 1072.5 156.67 1073.17 156.764C1073.74 156.845 1075.47 159.044 1077.92 162.805C1079.5 165.23 1079.92 164.796 1079.49 161.139Z"
     id="path24"
     fill="#F7BF08" />
  <path
     d="M1074.74 148.382C1074.16 147.915 1073.07 146.659 1072.36 145.647C1071.21 144.025 1070.66 143.752 1068.17 143.553C1065.4 143.336 1063.37 143.788 1065.67 144.114C1066.3 144.204 1066.8 144.482 1066.76 144.73C1066.73 144.98 1067.32 145.72 1068.09 146.383C1069.14 147.293 1069.38 147.962 1069.09 149.147C1068.8 150.326 1069.11 151.276 1070.37 153.044C1072.16 155.568 1072.7 155.905 1072.89 154.59C1072.95 154.118 1072.68 153.652 1072.3 153.598C1071.91 153.541 1071.28 152.968 1070.9 152.303C1070.26 151.193 1070.33 151.053 1071.77 150.383C1072.63 149.979 1073.85 149.787 1074.52 149.948C1076.02 150.31 1076.13 149.532 1074.74 148.382Z"
     id="path26"
     fill="#F7BF08" />
  <path
     d="M1067.5 149.012C1066.26 148.264 1065.9 148.408 1066.87 149.262C1067.35 149.682 1067.86 149.897 1068.01 149.753C1068.17 149.608 1067.94 149.277 1067.5 149.012Z"
     id="path28"
     fill="#F7BF08" />
  <path
     d="M1018.04 486.621C1015 486.009 1014.4 486.433 1015.7 488.269C1016.64 489.6 1016.74 489.62 1017.89 488.743C1019.46 487.553 1019.5 486.916 1018.04 486.621Z"
     id="path30"
     fill="#F7BF08" />
  <path
     d="M1064.29 145.081C1063.92 144.51 1063.59 143.453 1063.59 142.843C1063.59 141.592 1061.34 139.36 1059.77 139.063C1059.2 138.951 1058.12 138.373 1057.4 137.786C1056.67 137.199 1055.94 136.906 1055.8 137.13C1055.64 137.363 1057.01 138.824 1058.88 140.438C1060.74 142.041 1062.82 144.029 1063.56 144.93C1065.03 146.702 1065.41 146.786 1064.29 145.081Z"
     id="path32"
     fill="#F7BF08" />
  <path
     d="M1027.94 381.795C1027.49 381.912 1027.09 382.126 1027.07 382.251C1027.05 382.379 1027.4 382.542 1027.83 382.602C1028.25 382.662 1028.65 382.449 1028.7 382.147C1028.74 381.844 1028.39 381.679 1027.94 381.795Z"
     id="path34"
     fill="#F7BF08" />
  <path
     d="M1054.87 127.95C1054.72 127.928 1054.15 128.273 1053.66 128.694C1052.86 129.38 1052.88 129.494 1053.83 129.63C1054.46 129.72 1054.96 129.411 1055.03 128.889C1055.1 128.408 1055.03 127.972 1054.87 127.95Z"
     id="path36"
     fill="#F7BF08" />
  <path
     d="M1053.83 132.072C1053.4 132.011 1053.02 131.63 1052.93 131.183C1052.84 130.733 1052.69 130.838 1052.57 131.431C1052.44 132.106 1052.74 132.529 1053.43 132.626C1054.01 132.708 1054.5 132.639 1054.52 132.47C1054.55 132.3 1054.25 132.131 1053.83 132.072Z"
     id="path38"
     fill="#F7BF08" />
  <path
     d="M1045.8 117.799C1045.2 117.476 1044.46 117.487 1044.08 117.817C1043.6 118.227 1043.88 118.459 1045.09 118.631C1047.04 118.91 1047.31 118.602 1045.8 117.799Z"
     id="path40"
     fill="#F7BF08" />
  <path
     d="M970.825 497.956C970.479 498.126 970.232 498.347 970.209 498.508C970.186 498.669 970.382 498.808 970.698 498.852C971.001 498.896 971.262 498.658 971.313 498.3C971.364 497.941 971.157 497.796 970.825 497.956Z"
     id="path42"
     fill="#F7BF08" />
  <path
     d="M969.69 499.317C968.742 499.183 967.964 499.182 967.945 499.314C967.871 499.835 969.895 500.346 970.591 499.985C971.141 499.7 970.85 499.482 969.69 499.317Z"
     id="path44"
     fill="#F7BF08" />
  <path
     d="M969.508 501.181C968.867 501.131 968.734 501.243 969.137 501.495C969.483 501.708 969.951 501.747 970.146 501.577C970.342 501.413 970.038 501.227 969.508 501.181Z"
     id="path46"
     fill="#F7BF08" />
  <path
     d="M967.244 498.177C967.086 497.933 966.547 497.989 966.126 498.293C965.706 498.596 965.175 498.682 965.026 498.473C964.862 498.246 964.276 498.256 963.704 498.497C963.019 498.786 962.591 498.706 962.42 498.254C962.276 497.867 962.664 497.503 963.322 497.404C964.528 497.223 965.118 496.229 964.102 496.084C961.622 495.732 960.562 498.82 962.815 499.823C964.08 500.387 967.794 499.008 967.244 498.177Z"
     id="path48"
     fill="#F7BF08" />
  <path
     d="M953.532 506.509C953.304 506.292 952.912 506.504 952.688 506.959C952.465 507.414 952.491 507.849 952.743 507.884C953.43 507.982 954.012 506.963 953.532 506.509Z"
     id="path50"
     fill="#F7BF08" />
  <path
     d="M942.859 524.462C942.587 524.213 942.345 524.297 942.294 524.656C942.243 525.014 942.431 525.315 942.731 525.358C943.047 525.403 943.275 525.327 943.298 525.164C943.322 525.003 943.143 524.723 942.859 524.462Z"
     id="path52"
     fill="#F7BF08" />
  <path
     d="M990.011 87.0219C989.696 86.9771 989.451 87.1823 989.399 87.5449C989.347 87.9075 989.524 88.1727 989.841 88.2177C990.157 88.2627 990.401 88.0573 990.452 87.6947C990.504 87.3321 990.327 87.0669 990.011 87.0219Z"
     id="path54"
     fill="#F7BF08" />
  <path
     d="M979.741 150.918C979.457 150.487 978.708 150.056 978.127 149.985L977.041 149.865L978.02 150.731C978.592 151.247 978.86 152.026 978.664 152.625C978.437 153.326 978.613 153.563 979.23 153.388C980.24 153.097 980.465 152.013 979.741 150.918Z"
     id="path56"
     fill="#F7BF08" />
  <path
     d="M987.903 86.722C987.603 86.6794 987.337 86.9178 987.287 87.2756C987.236 87.6301 987.447 87.7801 987.775 87.6196C988.121 87.4501 988.368 87.2256 988.391 87.0676C988.414 86.9033 988.218 86.7668 987.903 86.722Z"
     id="path58"
     fill="#F7BF08" />
  <path
     d="M978.522 147.207C977.979 146.865 977.442 146.945 977.08 147.427C976.374 148.365 977.77 149.139 978.713 148.329C979.172 147.94 979.112 147.585 978.522 147.207Z"
     id="path60"
     fill="#F7BF08" />
  <path
     d="M983.157 80.0094C982.52 79.9566 982.385 80.0706 982.79 80.3256C983.136 80.5359 983.6 80.5789 983.798 80.4114C983.994 80.242 983.689 80.0539 983.157 80.0094Z"
     id="path62"
     fill="#F7BF08" />
  <path
     d="M901.655 529.88C901.483 529.856 900.461 530.15 899.441 530.511C897.571 531.176 897.567 531.187 899.176 531.04C900.593 530.915 902.534 530.005 901.655 529.88Z"
     id="path64"
     fill="#F7BF08" />
  <path
     d="M960.358 76.2247C959.62 76.1197 959.316 76.2031 959.657 76.4259C960.002 76.646 960.583 76.7286 960.974 76.6132C961.37 76.4951 961.099 76.3301 960.358 76.2247Z"
     id="path66"
     fill="#F7BF08" />
  <path
     d="M890.97 527.488C887.964 527.471 887.125 528.036 886.531 530.475C886.145 532.065 886.255 532.283 887.657 532.646C888.798 532.945 889.451 532.727 890.109 531.838C890.886 530.789 890.895 530.657 890.169 530.855C889.32 531.091 888.295 530.055 888.431 529.098C888.472 528.816 888.959 528.798 889.458 529.063C889.958 529.327 890.626 529.275 890.869 528.958C891.114 528.641 891.784 528.588 892.283 528.853C892.933 529.196 893.276 529.06 893.366 528.427C893.472 527.679 893.013 527.499 890.97 527.488Z"
     id="path68"
     fill="#F7BF08" />
  <path
     d="M878.704 512.047C878.066 511.996 877.93 512.109 878.336 512.361C878.681 512.575 879.149 512.613 879.347 512.444C879.54 512.278 879.235 512.091 878.704 512.047Z"
     id="path70"
     fill="#F7BF08" />
  <path
     d="M914.289 126.446C912.642 127.687 912.669 128.751 914.331 128.03C914.904 127.791 915.492 127.043 915.575 126.456C915.725 125.401 915.676 125.398 914.289 126.446Z"
     id="path72"
     fill="#F7BF08" />
  <path
     d="M844.534 526.789C841.585 526.32 837.968 525.709 836.552 525.44C835.085 525.162 833.837 525.225 833.672 525.581C833.291 526.412 827.666 524.849 826.917 523.705C826.157 522.535 824.642 522.349 823.701 523.312C822.798 524.237 816.158 523.112 813.313 521.55C811.467 520.536 807.931 520.447 807.793 521.416C807.746 521.75 808.284 522.119 809.017 522.259C809.752 522.398 811.184 522.722 812.275 522.996C813.347 523.266 816.049 523.882 818.289 524.369C820.53 524.857 822.536 525.43 822.758 525.647C822.97 525.857 823.522 525.664 823.944 525.234C824.831 524.326 827.258 524.437 827.123 525.383C827.078 525.699 827.65 526.065 828.335 526.162C829.016 526.259 829.74 526.65 829.866 526.992C830.269 528.067 832.662 528.037 834.432 526.936C835.549 526.238 836.447 526.073 837.033 526.455C837.516 526.777 839.321 527.358 841.036 527.747C846.248 528.932 848.302 529.036 849.314 528.171C849.71 527.826 848.057 527.349 844.534 526.789Z"
     id="path74"
     fill="#F7BF08" />
  <path
     d="M899.962 123.601C898.856 123.444 893.773 124.749 893.707 125.213C893.672 125.461 893.293 125.483 892.899 125.249C892.403 124.953 892.095 125.192 891.985 125.972C891.829 127.067 892.019 127.059 895.094 125.867C896.914 125.157 898.645 124.631 898.999 124.681C899.366 124.733 899.798 124.543 900.03 124.223C900.274 123.889 900.248 123.642 899.962 123.601Z"
     id="path76"
     fill="#F7BF08" />
  <path
     d="M833.343 529.313C832.918 529.252 832.363 529.458 832.147 529.753C831.938 530.045 832.114 530.356 832.537 530.417C832.96 530.477 833.513 530.269 833.731 529.978C833.946 529.683 833.766 529.373 833.343 529.313Z"
     id="path78"
     fill="#F7BF08" />
  <path
     d="M889.802 125.662C889.373 126.027 889.154 126.479 889.307 126.685C889.457 126.89 889.796 126.603 890.072 126.032C890.456 125.234 890.394 125.149 889.802 125.662Z"
     id="path80"
     fill="#F7BF08" />
  <path
     d="M897.409 70.6487C897.228 70.3746 896.467 70.0659 895.732 69.9613C894.785 69.8267 894.535 69.9867 894.873 70.5068C895.139 70.9079 895.903 71.2238 896.554 71.2012C897.2 71.1764 897.59 70.9276 897.409 70.6487Z"
     id="path82"
     fill="#F7BF08" />
  <path
     d="M839.518 457.154C838.777 457.048 838.471 457.138 838.811 457.356C839.16 457.578 839.74 457.66 840.132 457.543C840.523 457.428 840.255 457.258 839.518 457.154Z"
     id="path84"
     fill="#F7BF08" />
  <path
     d="M891.612 66.4141C891.123 66.4596 890.686 66.7724 890.655 67.1018C890.567 68.01 891.755 67.9898 892.172 67.0708C892.381 66.6221 892.158 66.3635 891.612 66.4141Z"
     id="path86"
     fill="#F7BF08" />
  <path
     d="M887.496 65.1233C887.077 65.0637 886.553 65.2671 886.325 65.5701C886.114 65.8673 886.427 66.1946 887.007 66.2771C887.587 66.3595 888.126 66.1533 888.171 65.8326C888.218 65.5039 887.914 65.1828 887.496 65.1233Z"
     id="path88"
     fill="#F7BF08" />
  <path
     d="M820.335 527.371C815.72 526.531 814.761 526.514 812.876 527.246C810.826 528.04 807.652 527.273 806.916 525.8C806.578 525.132 805.832 524.986 803.553 525.137C801.435 525.277 800.229 525.079 799.22 524.429C798.427 523.925 797.228 523.607 796.474 523.705C795.488 523.833 795.02 523.541 794.716 522.602C794.374 521.525 793.987 521.337 792.251 521.404C789.988 521.495 788.88 520.343 790.945 520.038C792.039 519.873 792.091 519.764 791.468 518.815C790.933 517.999 790.367 517.846 788.879 518.113C787.828 518.297 786.335 518.2 785.55 517.893C783.971 517.274 783.715 517.704 784.677 519.345C785.291 520.382 785.135 520.425 782.852 519.87C779.102 518.959 775.689 517.549 773.708 516.095C771.322 514.349 764.061 513.212 763.869 514.558C763.801 515.035 763.466 515.629 763.149 515.827C762.797 516.05 762.875 516.257 763.349 516.34C763.785 516.421 764.888 516.686 765.821 516.937C766.751 517.188 767.532 517.174 767.569 516.911C767.641 516.402 768.891 516.701 770.742 517.67C771.245 517.932 771.864 518.74 772.058 519.378C772.54 520.974 773.32 521.07 775.022 519.745C776.342 518.709 776.485 518.713 777.882 519.81C778.687 520.44 781.31 521.425 783.655 521.974C786.102 522.547 788.257 523.403 788.665 523.966C789.228 524.74 789.723 524.856 790.955 524.503C792.02 524.199 792.67 524.274 792.965 524.728C793.583 525.668 796.722 526.16 797.288 525.404C797.586 525.007 798.163 525.218 798.968 526.01C799.647 526.683 801.368 527.497 802.821 527.838C804.275 528.182 806.498 528.687 807.795 528.972C809.311 529.306 810.891 529.193 812.254 528.66C814.019 527.966 814.29 527.973 813.932 528.715C813.596 529.423 813.884 529.624 815.378 529.711C816.395 529.775 817.538 530.196 817.882 530.636C818.671 531.64 820.697 531.352 821.278 530.157C821.528 529.642 821.947 528.858 822.165 528.481C822.459 527.995 821.911 527.659 820.335 527.371Z"
     id="path90"
     fill="#F7BF08" />
  <path
     d="M804.999 520.254C804.333 520.01 803.425 519.991 803.018 520.214C802.538 520.471 802.997 520.729 804.263 520.909C806.526 521.233 806.857 520.938 804.999 520.254Z"
     id="path92"
     fill="#F7BF08" />
  <path
     d="M862.122 115.167C861.696 115.106 861.145 115.317 860.931 115.607C860.721 115.902 860.896 116.212 861.32 116.273C861.739 116.332 862.297 116.126 862.511 115.832C862.728 115.542 862.544 115.227 862.122 115.167Z"
     id="path94"
     fill="#F7BF08" />
  <path
     d="M857.675 120.36C857.114 120.499 856.776 120.791 856.907 121.01C857.04 121.236 857.483 121.122 857.911 120.757C858.508 120.255 858.457 120.167 857.675 120.36Z"
     id="path96"
     fill="#F7BF08" />
  <path
     d="M857.625 116.361C857.147 116.293 856.775 116.495 856.725 116.843C856.674 117.2 856.836 117.468 857.139 117.512C857.442 117.555 857.799 117.361 858.042 117.03C858.273 116.708 858.099 116.428 857.625 116.361Z"
     id="path98"
     fill="#F7BF08" />
  <path
     d="M854.919 120.238C854.445 120.17 854.066 120.375 854.017 120.721C853.965 121.082 854.133 121.349 854.437 121.392C854.74 121.436 855.097 121.243 855.339 120.909C855.57 120.59 855.391 120.305 854.919 120.238Z"
     id="path100"
     fill="#F7BF08" />
  <path
     d="M794.685 528.145C794.05 528.091 793.91 528.207 794.316 528.459C794.667 528.673 795.129 528.711 795.328 528.539C795.522 528.376 795.218 528.186 794.685 528.145Z"
     id="path102"
     fill="#F7BF08" />
  <path
     d="M851.777 86.5887C850.174 86.8968 850.035 87.0085 850.331 87.8299C850.509 88.3091 850.934 88.3548 851.689 87.9638C853.21 87.1772 853.268 86.3041 851.777 86.5887Z"
     id="path104"
     fill="#F7BF08" />
  <path
     d="M780.887 504.171C780.307 504.089 779.604 503.675 779.325 503.25C778.941 502.668 778.574 502.685 777.84 503.312C776.492 504.462 776.621 504.645 778.959 504.844C781.09 505.024 782.762 504.438 780.887 504.171Z"
     id="path106"
     fill="#F7BF08" />
  <path
     d="M775.286 521.057C774.811 520.989 774.564 521.21 774.7 521.583C774.836 521.969 775.129 522.253 775.433 522.296C775.729 522.338 775.964 522.13 776.015 521.77C776.066 521.424 775.759 521.124 775.286 521.057Z"
     id="path108"
     fill="#F7BF08" />
  <path
     d="M768.267 507.253C767.48 507.141 766.78 507.321 766.734 507.647C766.624 508.424 767.679 508.569 768.844 507.935C769.512 507.575 769.376 507.411 768.267 507.253Z"
     id="path110"
     fill="#F7BF08" />
  <path
     d="M823.359 120.63C823.042 120.585 822.9 120.824 823.034 121.193C823.174 121.578 823.36 121.852 823.502 121.872C823.645 121.892 823.774 121.664 823.825 121.306C823.874 120.963 823.673 120.674 823.359 120.63Z"
     id="path112"
     fill="#F7BF08" />
  <path
     d="M759.91 512.163C759.229 511.623 758.529 511.336 758.31 511.51C758.101 511.678 758.558 512.223 759.294 512.687C760.043 513.151 760.78 513.455 760.899 513.343C761.019 513.22 760.587 512.705 759.91 512.163Z"
     id="path114"
     fill="#F7BF08" />
  <path
     d="M808.357 141.999C807.797 142.138 807.458 142.435 807.591 142.657C807.721 142.876 808.164 142.768 808.593 142.401C809.191 141.893 809.136 141.806 808.357 141.999Z"
     id="path116"
     fill="#F7BF08" />
  <path
     d="M815.315 84.7395C814.893 84.6796 814.472 84.9896 814.414 85.399C814.352 85.8341 813.094 86.3705 811.551 86.6148C808.907 87.0411 807.989 88.0041 809.15 89.1262C809.482 89.4381 809.849 89.3883 810.03 88.98C810.208 88.609 810.949 88.3806 811.69 88.486C812.461 88.5957 813.665 88.0994 814.529 87.3046C816.192 85.7736 816.46 84.9024 815.315 84.7395Z"
     id="path118"
     fill="#F7BF08" />
  <path
     d="M798.715 139.073C798.381 138.275 798.28 138.343 798.118 139.483C798.008 140.256 798.175 140.735 798.502 140.573C799.192 140.241 799.192 140.241 798.715 139.073Z"
     id="path120"
     fill="#F7BF08" />
  <path
     d="M794.579 140.926C794.107 140.859 793.489 141.061 793.274 141.351C792.741 142.059 793.438 142.147 794.607 141.524C795.376 141.109 795.37 141.039 794.579 140.926Z"
     id="path122"
     fill="#F7BF08" />
  <path
     d="M795.828 88.6737C795.606 88.6422 795 88.8387 794.531 89.0993C793.762 89.521 793.76 89.5948 794.553 89.7075C795.026 89.7749 795.635 89.5803 795.852 89.2871C796.09 88.956 796.079 88.7095 795.828 88.6737Z"
     id="path124"
     fill="#F7BF08" />
  <path
     d="M725.503 428.189C723.64 428.044 723.523 427.915 723.368 425.789C723.23 423.88 722.939 423.444 721.464 422.897C720.499 422.538 719.762 422.03 719.802 421.748C719.844 421.452 719.554 421.04 719.11 420.764C718.519 420.397 718.38 420.568 718.496 421.502C718.609 422.407 718.248 422.872 717.047 423.359C714.874 424.244 712.636 423.371 712.503 421.593C712.316 419.071 708.131 415.337 704.689 414.612C701.923 414.031 699.57 411.222 700.362 409.442C700.819 408.409 700.799 408.401 699.909 409.314C698.715 410.548 698.149 410.405 698.756 409.028C699.013 408.453 699.004 407.718 698.743 407.471C698.473 407.223 698.353 406.23 698.481 405.33C698.735 403.538 697.882 402.506 696.459 402.892C696.012 403.013 695.568 402.802 695.41 402.394C695.097 401.557 691.723 401.078 691.194 401.795C690.972 402.097 691.048 402.386 691.362 402.43C692.299 402.564 691.78 403.682 690.827 403.592C690.013 403.511 690.011 403.598 690.848 404.154C691.487 404.582 692.16 404.561 692.771 404.093C693.528 403.508 693.865 403.551 694.564 404.315C695.387 405.221 695.371 405.271 694.106 405.473C692.897 405.663 692.856 405.742 693.619 406.439C694.304 407.061 694.303 407.388 693.629 408.266C692.986 409.105 692.197 409.253 690.033 408.945C688.4 408.713 687.308 408.294 687.361 407.925C687.408 407.595 686.951 407.4 686.395 407.513C685.637 407.667 685.317 407.39 685.245 406.526C685.184 405.797 684.487 405.049 683.471 404.63C682.553 404.249 681.429 403.588 680.987 403.173C680.135 402.371 678.434 402.614 678.3 403.557C678.254 403.884 678.876 404.195 679.684 404.241C680.642 404.3 681.128 404.642 681.097 405.237C681.073 405.755 681.011 406.597 680.951 407.195C680.897 407.799 681.177 408.296 681.601 408.356C681.992 408.412 682.57 408.921 682.839 409.446C683.11 409.965 683.816 410.501 684.344 410.576C684.874 410.651 685.309 411.001 685.264 411.315C685.219 411.634 684.806 411.862 684.387 411.802C683.437 411.667 682.726 412.551 683.067 413.445C683.228 413.874 683.679 413.924 684.423 413.604C685.288 413.231 685.799 413.409 686.677 414.382C687.284 415.051 687.779 416.007 687.735 416.422C687.687 416.842 687.906 417.071 688.199 416.915C688.499 416.762 689.385 417.115 690.11 417.677C690.838 418.234 691.803 418.64 692.191 418.547C693.337 418.269 692.833 419.329 691.495 420.007C690.514 420.51 690.378 420.81 690.789 421.583C691.202 422.356 690.99 422.618 689.709 422.952C688.202 423.346 688.17 423.411 689.08 424.177C689.602 424.621 690.129 425.187 690.249 425.438C690.642 426.288 693.156 427.104 693.582 426.522C693.833 426.181 694.516 426.393 695.386 427.084C696.157 427.699 697.234 428.261 697.789 428.34C698.339 428.418 699.137 429.081 699.566 429.815C700.22 430.927 700.854 431.17 703.468 431.313C705.229 431.409 706.558 431.73 706.512 432.05C706.466 432.374 706.82 432.701 707.342 432.811C707.951 432.937 707.691 433.195 706.562 433.585L704.863 434.166L706.523 434.433C707.519 434.592 708.249 435.096 708.359 435.7C708.582 436.891 708.029 437.728 707.122 437.599C706.738 437.545 705.928 437.977 705.319 438.561C704.142 439.673 701.933 439.68 701.511 438.567C701.371 438.2 701.986 437.762 702.93 437.549C703.876 437.338 704.783 436.675 705.03 436.019C705.448 434.895 705.408 434.892 703.43 435.907C700.945 437.184 698.394 436.527 694.876 433.699C692.627 431.894 692.093 431.715 688.719 431.626C685.766 431.547 685.119 431.701 685.489 432.385C685.738 432.838 686.453 433.167 687.001 433.084C688.429 432.868 690.767 433.937 690.291 434.592C690.066 434.891 689.17 435.043 688.328 434.923C687.486 434.804 686.272 434.957 685.673 435.261C684.255 435.979 683.061 435.148 682.707 433.208C682.493 432.01 681.936 431.482 680.343 430.953C679.214 430.577 678.169 430.009 678.046 429.711C677.918 429.382 677.618 429.132 677.3 429.087C676.99 429.042 676.863 429.27 677.005 429.656C677.139 430.017 676.674 430.469 675.941 430.694C674.844 431.031 674.97 431.138 676.809 431.426C678.123 431.632 678.957 432.058 678.939 432.519C678.924 432.95 678.858 434.063 678.788 435.091C678.684 436.661 678.862 436.925 680.116 437.079C680.966 437.181 681.526 437.593 681.459 438.06C681.369 438.691 681.716 438.714 683.029 438.162C683.946 437.779 685.144 437.545 685.657 437.651C686.262 437.777 686.037 437.985 685.036 438.234C683.861 438.524 683.512 438.916 683.628 439.803C683.714 440.422 683.538 440.947 683.255 440.907C682.973 440.867 682.813 441.27 682.897 441.77C683.067 442.704 683.479 442.741 686.262 442.078C686.885 441.93 686.794 442.17 685.915 443.022C685.143 443.765 684.958 444.198 685.39 444.259C685.755 444.311 686.653 445.011 687.396 445.822L688.747 447.297L690.965 445.871C692.21 445.078 694.078 444.095 695.213 443.64C697.034 442.911 697.369 442.942 698.635 443.946C699.983 445.022 700.084 445.01 701.481 443.619C703.185 441.915 703.876 442.618 702.377 444.539C701.353 445.857 701.35 445.917 702.336 446.057C702.916 446.14 703.542 445.964 703.767 445.653C703.991 445.346 704.802 445.19 705.593 445.302C706.642 445.451 707.72 444.812 709.729 442.842C711.305 441.299 712.891 440.245 713.501 440.332C714.238 440.436 714.499 440.179 714.38 439.48C714.154 438.21 716.388 436.326 719.694 434.994C722.317 433.938 723.114 433.227 722.918 432.096C722.854 431.693 723.829 430.876 725.038 430.326C727.857 429.043 728.001 428.381 725.503 428.189ZM701.408 421.785C700.818 421.227 701.79 419.851 702.957 419.608C704.839 419.211 705.149 420.304 703.419 421.248C702.547 421.726 701.613 421.978 701.408 421.785ZM699.344 441.211C698.885 441.622 698.002 441.748 697.451 441.489C696.893 441.23 696.054 441.252 695.642 441.537C695.166 441.864 694.902 441.84 694.954 441.473C695.11 440.38 696.587 439.82 699.215 439.857C700.713 439.879 701.522 440.019 701.053 440.173C700.603 440.322 699.804 440.806 699.344 441.211ZM695.834 415.837C695.034 415.742 694.211 415.241 693.925 414.681C693.512 413.874 693.63 413.727 694.582 413.862C695.267 413.959 695.685 413.708 695.607 413.245C695.528 412.778 694.655 412.371 693.439 412.236L691.399 412.007L693.039 410.898C694.108 410.174 695.127 409.96 695.975 410.282C697.147 410.723 697.258 410.622 697.113 409.283C696.986 408.168 697.067 407.974 697.438 408.503C698.151 409.529 698.17 412.12 697.465 412.475C697.155 412.63 697.079 413.091 697.277 413.606C697.539 414.294 697.773 414.225 698.397 413.278C699.055 412.273 699.285 412.217 699.789 412.929C700.291 413.631 700.125 413.966 698.809 414.892C697.915 415.52 696.623 415.933 695.834 415.837ZM692.189 438.207C691.585 438.325 691.05 438.689 691.003 439.02C690.89 439.816 688.705 439.119 688.576 438.246C688.465 437.472 692.404 435.962 693.02 436.541C693.735 437.213 693.353 437.981 692.189 438.207ZM692.165 442.173C691.849 442.128 691.653 441.988 691.675 441.828C691.699 441.664 691.946 441.446 692.293 441.273C692.62 441.113 692.837 441.259 692.786 441.616C692.734 441.981 692.463 442.215 692.165 442.173ZM690.065 443.704C689.647 443.644 689.29 443.479 689.308 443.351C689.326 443.224 689.736 443.013 690.18 442.897C690.621 442.782 690.981 442.945 690.937 443.249C690.895 443.551 690.481 443.763 690.065 443.704ZM688.075 436.714C687.778 436.672 687.611 436.403 687.662 436.044C687.711 435.697 688.09 435.495 688.562 435.562C689.037 435.629 689.212 435.911 688.977 436.231C688.741 436.564 688.373 436.756 688.075 436.714ZM685.399 440.6C684.819 440.518 684.379 440.209 684.421 439.914C684.463 439.616 684.953 439.577 685.51 439.824C686.063 440.07 686.504 440.379 686.485 440.51C686.467 440.642 685.976 440.682 685.399 440.6Z"
     id="path126"
     fill="#F7BF08" />
  <path
     d="M709.059 493.35C708.736 493.304 708.6 493.543 708.733 493.912C708.873 494.297 709.061 494.569 709.203 494.589C709.344 494.609 709.473 494.382 709.524 494.024C709.573 493.681 709.373 493.395 709.059 493.35Z"
     id="path128"
     fill="#F7BF08" />
  <path
     d="M704.384 433.37C703.921 432.68 701.182 432.42 700.728 433.027C700.481 433.36 700.688 433.473 701.25 433.313C701.755 433.169 702.315 433.415 702.489 433.854C702.7 434.392 703.12 434.524 703.75 434.247C704.266 434.023 704.554 433.625 704.384 433.37Z"
     id="path130"
     fill="#F7BF08" />
  <path
     d="M739.621 176.736C739.339 176.464 738.915 176.658 738.652 177.175C738.007 178.42 738.44 178.886 739.375 177.946C739.905 177.411 739.973 177.062 739.621 176.736Z"
     id="path132"
     fill="#F7BF08" />
  <path
     d="M700.287 446.302C700.089 446.247 699.502 446.185 698.966 446.157C698.43 446.132 697.728 445.774 697.387 445.354C696.974 444.849 696.635 444.78 696.367 445.148C696.124 445.48 696.156 445.872 696.441 446.135C696.724 446.394 696.939 446.387 696.977 446.119C697.012 445.874 697.326 446.321 697.663 447.101C698.394 448.79 699.517 449.113 700.167 447.824C700.771 446.626 700.787 446.439 700.287 446.302Z"
     id="path134"
     fill="#F7BF08" />
  <path
     d="M735.341 181.58C734.793 182.054 734.498 182.611 734.659 182.852C734.818 183.089 735.243 182.906 735.576 182.465C736.535 181.2 736.391 180.667 735.341 181.58Z"
     id="path136"
     fill="#F7BF08" />
  <path
     d="M733.752 176.171C733.454 176.129 732.758 176.579 732.128 177.219C731.52 177.837 730.42 178.959 729.681 179.706C728.563 180.833 728.435 181.229 728.924 181.979C729.233 182.449 729.62 182.9 729.734 182.916C729.849 182.933 730.686 181.712 731.635 180.14C732.578 178.567 733.497 177.35 733.72 177.381C733.957 177.415 734.144 177.202 734.196 176.839C734.248 176.486 734.076 176.217 733.752 176.171Z"
     id="path138"
     fill="#F7BF08" />
  <path
     d="M693.344 454.322C692.899 454.048 692.386 453.9 692.257 454.009C691.797 454.396 692.468 456.281 693.026 456.161C694.023 455.941 694.215 454.855 693.344 454.322Z"
     id="path140"
     fill="#F7BF08" />
  <path
     d="M728.648 184.105C728.167 184.487 727.857 184.858 727.928 184.978C728.177 185.365 729.331 184.63 729.416 184.032C729.465 183.692 729.13 183.72 728.648 184.105Z"
     id="path142"
     fill="#F7BF08" />
  <path
     d="M726.898 181.293C726.782 181.277 726.329 181.638 725.928 182.071C725.311 182.726 725.328 182.897 726.013 182.994C726.485 183.061 726.91 182.725 726.982 182.221C727.051 181.741 727.013 181.309 726.898 181.293Z"
     id="path144"
     fill="#F7BF08" />
  <path
     d="M725.149 183.792C724.841 183.939 724.505 184.49 724.437 184.97C724.369 185.445 724.586 185.728 724.895 185.583C725.198 185.429 725.529 184.879 725.597 184.398C725.665 183.925 725.453 183.64 725.149 183.792Z"
     id="path146"
     fill="#F7BF08" />
  <path
     d="M693.764 397.655C692.009 396.754 687.997 395.847 687.928 396.332C687.8 397.231 690.38 398.751 691.055 398.181C691.384 397.899 692.332 397.913 693.094 398.208C694.673 398.815 695.199 398.385 693.764 397.655Z"
     id="path148"
     fill="#F7BF08" />
  <path
     d="M687.969 426.669C687.151 426.035 686.57 425.224 686.694 424.871C686.821 424.526 686.12 423.798 685.175 423.284C683.969 422.633 683.436 421.906 683.455 420.968C683.477 420.239 683.747 419.637 684.041 419.678C684.337 419.72 684.654 419.34 684.722 418.861C684.789 418.39 684.377 417.896 683.851 417.821C683.322 417.746 682.491 418.064 682.09 418.487C681.66 418.942 680.959 419.24 680.487 419.173C679.901 419.09 679.992 419.42 680.791 420.252C681.401 420.89 682.069 421.757 682.213 422.103C682.631 423.075 681.999 423.664 681.105 423.135C680.683 422.884 679.854 423.083 679.185 423.59C678.219 424.329 677.894 424.337 677.352 423.635C676.992 423.165 676.788 422.493 676.905 422.139C677.185 421.301 674.745 420.227 673.862 420.796C673.324 421.137 673.124 421.061 673.198 420.543C673.276 419.997 672.604 419.793 670.666 419.789C668.733 419.782 667.891 419.514 667.501 418.788C666.503 416.911 664.316 417.664 664.504 419.825C664.634 421.368 665.489 421.797 665.685 420.419C665.761 419.882 666.007 419.639 666.247 419.859C666.483 420.077 666.478 420.777 666.242 421.414C665.91 422.301 666.094 422.631 667.032 422.837C667.711 422.983 668.488 423.202 668.767 423.325C669.027 423.446 669.69 423.639 670.159 423.737C670.627 423.838 671.397 424.462 671.796 425.066C672.298 425.838 673.415 426.346 675.203 426.62C677.416 426.961 677.928 427.264 678.258 428.425C678.631 429.758 678.684 429.773 679.447 428.747C679.906 428.132 680.319 427.133 680.421 426.418L680.6 425.161L682.143 426.604C683.297 427.677 684.357 428.068 686.333 428.143C687.775 428.199 689.089 428.149 689.228 428.037C689.363 427.921 688.796 427.306 687.969 426.669ZM673.996 423.987C673.491 424.132 673.314 424.005 673.556 423.674C673.798 423.343 674.146 423.148 674.432 423.189C675.179 423.295 674.949 423.718 673.996 423.987ZM672.261 423.156C671.987 422.915 671.955 422.545 672.176 422.228C672.397 421.913 672.73 421.861 672.999 422.1C673.274 422.342 673.31 422.712 673.081 423.028C672.861 423.345 672.532 423.392 672.261 423.156Z"
     id="path150"
     fill="#F7BF08" />
  <path
     d="M721.062 192.049C720.646 191.989 720.086 192.193 719.878 192.492C719.661 192.783 719.843 193.097 720.267 193.157C720.686 193.217 721.244 193.008 721.458 192.716C721.669 192.418 721.487 192.109 721.062 192.049Z"
     id="path152"
     fill="#F7BF08" />
  <path
     d="M688.662 403.692C688.263 403.798 687.921 403.977 687.907 404.073C687.894 404.168 688.151 404.585 688.479 404.978C688.924 405.525 689.108 405.433 689.228 404.595C689.321 403.937 689.091 403.573 688.662 403.692Z"
     id="path154"
     fill="#F7BF08" />
  <path
     d="M687.404 397.782C686.881 397.474 686.118 396.625 685.697 395.894C684.963 394.61 683.995 394.617 684.467 395.902C684.821 396.868 687.557 399.013 687.979 398.657C688.168 398.489 687.897 398.075 687.404 397.782Z"
     id="path156"
     fill="#F7BF08" />
  <path
     d="M711.003 221.224C710.521 221.606 710.211 221.981 710.283 222.097C710.524 222.483 711.686 221.749 711.771 221.151C711.819 220.809 711.485 220.837 711.003 221.224Z"
     id="path158"
     fill="#F7BF08" />
  <path
     d="M681.546 413.654C680.132 412.603 678.08 411.331 676.897 410.78C674.828 409.811 674.054 408.503 675.682 408.734C676.157 408.802 676.416 408.559 676.276 408.179C676.089 407.69 675.812 407.651 675.273 408.036C674.855 408.334 674.405 408.39 674.262 408.166C674.11 407.938 673.949 408.335 673.889 409.056C673.818 409.939 674.195 410.516 675.064 410.858C676.738 411.52 678.734 412.966 679.11 413.793C679.446 414.546 677.329 415.328 675.983 414.946C675.191 414.718 675.129 414.874 675.538 415.97C675.808 416.676 676.241 417.15 676.496 417.018C676.757 416.886 677.044 417.221 677.154 417.783C677.407 419.11 678.241 419.036 678.201 417.688C678.18 417.077 678.421 416.245 678.74 415.815C679.188 415.195 679.495 415.215 680.253 415.922C681.49 417.064 682.188 417.149 683.212 416.267C683.954 415.634 683.731 415.283 681.546 413.654Z"
     id="path160"
     fill="#F7BF08" />
  <path
     d="M679.33 437.907C679.011 437.862 678.766 438.072 678.716 438.43C678.664 438.791 678.841 439.056 679.16 439.102C679.473 439.146 679.718 438.941 679.769 438.58C679.821 438.222 679.642 437.952 679.33 437.907Z"
     id="path162"
     fill="#F7BF08" />
  <path
     d="M681.881 399.18C681.755 399.004 680.609 398.862 679.368 398.865C677.487 398.872 677.019 399.118 676.702 400.252C676.492 401.013 676.531 401.523 676.808 401.397C677.083 401.265 678.345 401.002 679.659 400.804C681.804 400.476 682.448 400.004 681.881 399.18Z"
     id="path164"
     fill="#F7BF08" />
  <path
     d="M683.137 382.419C682.495 382.369 682.361 382.485 682.762 382.733C683.112 382.947 683.58 382.987 683.773 382.816C683.969 382.649 683.665 382.463 683.137 382.419Z"
     id="path166"
     fill="#F7BF08" />
  <path
     d="M675.449 428.881C674.813 428.832 674.68 428.944 675.086 429.196C675.426 429.409 675.894 429.446 676.093 429.278C676.285 429.113 675.982 428.924 675.449 428.881Z"
     id="path168"
     fill="#F7BF08" />
  <path
     d="M680.551 380.162C679.548 380.02 679.396 380.151 679.819 380.79C680.217 381.396 680.529 381.44 681.079 380.969C681.665 380.474 681.554 380.305 680.551 380.162Z"
     id="path170"
     fill="#F7BF08" />
  <path
     d="M677.704 385.244C677.124 385.162 676.501 385.341 676.276 385.653C676.054 385.955 676.478 386.288 677.22 386.394C677.957 386.499 678.601 386.316 678.648 385.99C678.695 385.653 678.285 385.327 677.704 385.244Z"
     id="path172"
     fill="#F7BF08" />
  <path
     d="M676.265 383.821C675.947 383.776 675.706 383.987 675.655 384.345C675.604 384.704 675.779 384.971 676.095 385.016C676.415 385.061 676.658 384.854 676.71 384.495C676.76 384.137 676.585 383.867 676.265 383.821Z"
     id="path180"
     fill="#F7BF08" />
  <path
     d="M672.053 402.123C671.737 402.078 671.492 402.273 671.443 402.615C671.395 402.953 671.555 403.356 671.841 403.615C672.115 403.868 672.369 403.659 672.446 403.123C672.522 402.584 672.356 402.166 672.053 402.123Z"
     id="path184"
     fill="#F7BF08" />
  <path
     d="M670.725 405.592C670.196 405.517 670.018 405.155 670.261 404.672C670.564 404.09 670.124 403.733 668.623 403.34C667.487 403.044 666.553 402.967 666.524 403.167C666.32 404.601 670.438 407.27 671.224 406.211C671.427 405.939 671.199 405.66 670.725 405.592Z"
     id="path186"
     fill="#F7BF08" />
  <path
     d="M669.022 396.204C668.28 396.098 667.212 396.482 666.588 397.076C665.84 397.782 665.115 397.955 664.417 397.591C663.514 397.122 663.444 397.196 663.91 398.099C664.383 399.002 664.292 399.224 663.257 399.662C661.997 400.196 661.532 401.234 662.479 401.368C662.797 401.413 662.951 401.159 662.825 400.811C662.701 400.458 662.993 400.223 663.467 400.29C663.957 400.36 665.404 399.722 666.764 398.839C670.44 396.453 670.474 396.41 669.022 396.204Z"
     id="path192"
     fill="#F7BF08" />
  <path
     d="M669.737 380.578C669 380.473 668.689 380.562 669.038 380.781C669.384 381.003 669.964 381.085 670.355 380.968C670.746 380.853 670.472 380.683 669.737 380.578Z"
     id="path194"
     fill="#F7BF08" />
  <path
     d="M677.097 328.459C676.733 328.408 675.811 330.472 675.614 331.784C675.518 332.392 675.672 332.402 676.348 331.827C677.203 331.097 677.77 328.555 677.097 328.459Z"
     id="path196"
     fill="#F7BF08" />
  <path
     d="M669.3 384.049C668.981 384.004 668.61 384.196 668.372 384.529C668.128 384.859 668.178 385.108 668.499 385.154C668.811 385.198 669.183 385.009 669.419 384.678C669.662 384.346 669.615 384.094 669.3 384.049Z"
     id="path198"
     fill="#F7BF08" />
  <path
     d="M665.985 393.943C665.51 393.876 665.132 394.078 665.083 394.425C665.031 394.784 665.199 395.05 665.497 395.092C665.793 395.134 666.161 394.945 666.399 394.612C666.631 394.292 666.457 394.01 665.985 393.943Z"
     id="path200"
     fill="#F7BF08" />
  <path
     d="M676.791 313.782C676.387 313.725 675.947 314.213 675.862 314.813C675.772 315.444 675.424 316.82 675.068 317.927C674.201 320.639 675.068 319.757 676.435 316.537C677.411 314.237 677.452 313.876 676.791 313.782Z"
     id="path202"
     fill="#F7BF08" />
  <path
     d="M668.402 367.461C667.828 367.379 667.283 367.585 667.237 367.907C667.191 368.234 667.495 368.552 667.918 368.612C668.342 368.673 668.864 368.472 669.082 368.169C669.299 367.871 668.986 367.544 668.402 367.461Z"
     id="path204"
     fill="#F7BF08" />
  <path
     d="M666.228 386.357C666.024 386.163 665.656 386.397 665.429 386.851C665.195 387.334 664.669 387.483 664.225 387.198C663.784 386.913 663.617 386.342 663.845 385.894C664.251 385.099 663.21 384.678 662.444 385.33C661.804 385.879 663.29 389.222 664.197 389.276C665.157 389.332 666.827 386.927 666.228 386.357Z"
     id="path206"
     fill="#F7BF08" />
  <path
     d="M663.72 394.414C662.983 392.724 661.621 392.277 661.424 393.661C661.349 394.185 660.796 394.683 660.192 394.765C659.59 394.849 659.065 395.144 659.026 395.423C658.984 395.713 659.284 395.848 659.731 395.736C660.18 395.627 660.627 395.847 660.78 396.251C661.124 397.167 662.1 397.251 663.342 396.474C664.25 395.9 664.281 395.712 663.72 394.414Z"
     id="path208"
     fill="#F7BF08" />
  <path
     d="M661.199 402.987C660.574 403.259 659.809 403.297 659.438 403.073C658.654 402.587 656.956 404.616 657.629 405.246C657.901 405.497 658.139 405.419 658.19 405.058C658.239 404.713 658.752 404.498 659.337 404.581C659.911 404.663 660.424 404.461 660.471 404.134C660.516 403.815 660.928 403.589 661.351 403.649C661.77 403.709 662.18 403.468 662.228 403.133C662.287 402.715 661.945 402.667 661.199 402.987Z"
     id="path210"
     fill="#F7BF08" />
  <path
     d="M660.09 401.154C659.194 401.026 658.893 401.113 659.387 401.356C659.894 401.604 660.57 401.7 660.967 401.581C661.368 401.465 660.989 401.281 660.09 401.154Z"
     id="path212"
     fill="#F7BF08" />
  <path
     d="M659.47 386.065C658.77 385.658 658.73 385.736 659.192 386.576C659.803 387.699 660.101 387.848 660.21 387.086C660.252 386.793 659.916 386.331 659.47 386.065Z"
     id="path214"
     fill="#F7BF08" />
  <path
     d="M658.251 388.771C657.615 388.33 656.636 388.12 656.006 388.287C655.096 388.532 655.245 388.718 656.829 389.297C659.127 390.135 659.84 389.875 658.251 388.771Z"
     id="path216"
     fill="#F7BF08" />
  <path
     d="M657.317 400.634C657.124 400.607 656.566 400.779 656.163 400.988C655.532 401.313 655.526 401.491 656.116 401.866C656.515 402.118 657.028 402.191 657.222 402.023C657.73 401.592 657.789 400.701 657.317 400.634Z"
     id="path218"
     fill="#F7BF08" />
  <path
     d="M658.891 374.797C658.878 373.726 658.528 373.375 657.316 373.203C656.468 373.082 655.8 372.723 655.844 372.413C655.89 372.091 655.292 371.37 654.464 370.754C653.199 369.808 652.988 369.777 652.881 370.528C652.813 371.006 653.079 371.591 653.475 371.831C653.876 372.072 654.011 372.625 653.784 373.066C653.492 373.633 653.798 373.919 654.856 374.07C656.277 374.272 656.283 374.306 655.171 375.029C654.164 375.683 654.106 375.871 654.725 376.485C655.81 377.566 658.984 377.608 658.93 376.54C658.918 376.341 658.901 375.531 658.891 374.797Z"
     id="path220"
     fill="#F7BF08" />
  <path
     d="M656.463 391.796C656.406 391.178 656.027 390.774 655.611 390.884C655.208 390.99 654.689 390.569 654.498 389.994C654.174 389.008 654.02 388.999 652.877 389.872C651.368 391.021 651.445 391.229 653.887 392.617C656.665 394.203 656.665 394.203 656.463 391.796Z"
     id="path222"
     fill="#F7BF08" />
  <path
     d="M658.849 366.408C658.5 366.577 658.355 366.922 658.48 367.27C658.819 368.196 659.144 368.094 659.296 367.019C659.366 366.543 659.16 366.257 658.849 366.408Z"
     id="path224"
     fill="#F7BF08" />
  <path
     d="M655.871 386.41C655.47 386.353 654.744 385.579 654.209 384.649C653.683 383.719 652.892 382.936 652.424 382.869C651.896 382.794 651.735 382.431 651.996 381.896C652.228 381.416 652.288 380.354 652.126 379.474C651.893 378.223 651.469 377.857 649.988 377.646C648.99 377.504 648.109 377.658 648.063 377.984C648.012 378.342 648.185 378.613 648.506 378.659C648.799 378.7 648.959 379.241 648.866 379.895C648.772 380.553 648.886 381.235 649.127 381.457C649.368 381.682 649.598 382.62 649.653 383.607C649.731 384.981 650.158 385.556 651.61 386.267C653.928 387.398 655.699 387.684 656.207 387.008C656.4 386.746 656.24 386.462 655.871 386.41Z"
     id="path226"
     fill="#F7BF08" />
  <path
     d="M682.23 164.548C681.627 164.814 680.531 165.834 679.784 166.822C679.022 167.832 677.485 169.381 676.263 170.378C674.747 171.621 674.132 172.522 674.187 173.435C674.297 175.156 673.008 176.487 670.476 177.258C668.958 177.715 668.395 178.178 668.524 178.847C668.634 179.377 668.298 180.157 667.759 180.627C666.537 181.693 666.887 182.077 668.619 181.585C669.722 181.283 670.014 180.858 669.975 179.636C669.938 178.247 670.113 178.1 671.591 178.31C672.482 178.436 673.154 178.279 673.034 177.962C672.923 177.657 673.212 177.284 673.662 177.169C674.147 177.042 674.549 176.565 674.625 176.028C674.699 175.514 675.236 175.17 675.816 175.252C676.531 175.354 676.934 174.98 677.066 174.09C677.378 172.002 679.844 168.082 681.22 167.484C681.968 167.158 682.41 166.576 682.31 166.054C682.216 165.557 682.358 165.207 682.639 165.247C682.925 165.288 683.182 165.048 683.233 164.692C683.296 164.262 682.979 164.217 682.23 164.548Z"
     id="path228"
     fill="#F7BF08" />
  <path
     d="M635.837 335.394C635.519 335.349 635.272 335.559 635.221 335.917C635.17 336.276 635.349 336.546 635.667 336.592C635.985 336.637 636.229 336.427 636.28 336.067C636.331 335.709 636.154 335.439 635.837 335.394Z"
     id="path230"
     fill="#F7BF08" />
  <path
     d="M636.114 328.12C636.005 328.104 635.712 328.489 635.487 328.945C635.263 329.4 635.305 329.832 635.572 329.87C635.838 329.907 636.129 329.523 636.197 329.046C636.266 328.567 636.229 328.136 636.114 328.12Z"
     id="path232"
     fill="#F7BF08" />
</svg>
