<svg xmlns="http://www.w3.org/2000/svg" width="1440" height="400" fill="none"><path fill="#fff" d="M0 0h1440v400H0z"/><path fill="#BBD9D3" d="M0 0h1440v400H0z"/><g clip-path="url(#clip0)"><path fill="#E2F6F2" fill-opacity=".988" d="M95.336 398.5c-.997-1.197-.997-1.5 0-1.5.996 0 .996-.303 0-1.5-.687-.825-.928-1.5-.535-1.5 1.136 0 4.412 4.411 3.895 5.245-.73 1.176-1.994.895-3.36-.745zm473.354.854c-1.309-1.304-.684-2.354 1.4-2.354 1.168 0 1.916.524 1.694 1.187-.489 1.462-2.165 2.094-3.094 1.167zm352.553-1.854c0-2.948 1.521-3.275 2.94-.632 1.086 2.021.518 3.132-1.602 3.132-.758 0-1.338-1.083-1.338-2.5zm-602.675.413c-.371-.598-.281-1.479.2-1.959 1.187-1.182 3.799.539 2.934 1.934-.877 1.414-2.266 1.424-3.134.025zm518.937-1.136c-2.944-4.188-1.54-5.777 5.109-5.777 5.744 0 9.145 2.855 7.741 6.5-.413 1.074-2.098 1.5-5.932 1.5-4.397 0-5.635-.398-6.918-2.223zm19.512-.994c0-1.742-.348-2.338-2.064-3.535-1.641-1.146-1.666-1.508-.293-4.25 1.813-3.622 6.232-4.244 7.084-.998.289 1.1 1.101 2 1.806 2 .704 0 1.541.675 1.858 1.5.396 1.028-.06 1.5-1.449 1.5-1.852 0-1.792.218.687 2.507l2.714 2.506-5.171-.224c-2.845-.123-5.172-.576-5.172-1.006zm-692.353-1.099c-2.639-2.629.117-3.72 3.384-1.339 1.772 1.291 1.763 1.366-.225 1.884-1.139.297-2.56.052-3.159-.545zm718.947.316c.341-.55 1.722-1 3.07-1 1.347 0 2.449.45 2.449 1s-1.381 1-3.07 1c-1.791 0-2.811-.417-2.449-1zm-178.462-5.667c-2.591-2.581 1.76-8.969 5.338-7.837 1.928.609 2.007.868.708 2.345-.803.912-1.769 2.672-2.148 3.909-.668 2.183-2.535 2.942-3.898 1.583zm508.941-.017c.72-.289 1.59-.253 1.92.079.33.332-.26.569-1.32.525-1.17-.048-1.4-.284-.6-.604zm6.21-.817c0-.825.85-1.5 1.9-1.5 1.04 0 2.16.675 2.47 1.5.42 1.084-.11 1.5-1.9 1.5-1.53 0-2.47-.571-2.47-1.5zM152.822 385.18c-3.87-2.015-4.906-4.021-2.526-4.893.957-.351 2.699-1.646 3.871-2.878 3.468-3.645 6.12-3.453 8.16.591l1.765 3.5-3.407 2.75c-3.922 3.166-3.632 3.132-7.863.93zm476.353-1.011c-1.747-1.41-2.117-2.439-1.605-4.471 1.308-5.19 7.591-5.872 7.75-.841.046 1.454.196 3.655.334 4.893.318 2.861-3.173 3.086-6.479.419zm-430.726-4.587c-2.531-1.877-2.16-4.272.746-4.825 3.685-.702 5.419 1.803 2.934 4.24-1.625 1.594-2.197 1.685-3.68.585zm-61.937-6.332c.017-.413 1.119-1.538 2.449-2.501 2.782-2.016 4.345-.693 1.973 1.67-1.633 1.628-4.478 2.162-4.422.831zm971.008-7.806c-.9-2.323-.83-2.444 1.38-2.444 2.34 0 2.61 1.263.62 2.903-1.07.889-1.53.785-2-.459zm-52.05-1.862c-2.53-1.877-2.16-4.272.74-4.825 3.69-.702 5.42 1.803 2.94 4.24-1.63 1.594-2.2 1.685-3.68.585zm378.83-1.082c0-1.965.51-2.5 2.38-2.5 1.31 0 2.39.45 2.39 1s-.46 1-1.01 1-1 .675-1 1.5-.62 1.5-1.38 1.5c-.8 0-1.38-1.045-1.38-2.5zm-242.29-1.183c.72-.289 1.59-.253 1.92.079.34.332-.26.568-1.31.525-1.17-.048-1.41-.285-.61-.604zM692.939 360c.342-.55.82-1 1.063-1 .244 0 .443.45.443 1s-.478 1-1.063 1c-.584 0-.784-.45-.443-1zm-250.729-.934c-1.696-.604-1.715-.775-.227-2.006 1.825-1.509 2.932-.949 2.42 1.225-.22.935-.992 1.209-2.193.781zm743.46-.066c.35-.55 1.73-1 3.07-1 1.35 0 2.45.45 2.45 1s-1.38 1-3.07 1c-1.79 0-2.81-.417-2.45-1zM53.046 356.369c-3.986-1.218-4.72-1.854-5.097-4.415-.246-1.67.105-3.444.795-4.014.68-.562 1.54-2.232 1.913-3.71.73-2.896 6.064-8.23 8.23-8.23 2.184 0 5.34 3.827 5.34 6.474 0 1.715.886 2.932 2.888 3.963 1.59.819 3.13 2.115 3.425 2.88.723 1.879-4.929 6.683-7.863 6.683-1.29 0-2.626.45-2.967 1-.735 1.185-.713 1.187-6.664-.631zm157.947-.869c0-1.965.51-2.5 2.383-2.5 1.311 0 2.384.45 2.384 1s-.452 1-1.004 1-1.003.675-1.003 1.5-.621 1.5-1.38 1.5c-.803 0-1.38-1.045-1.38-2.5zm-14.954-1.551c-.58-.578-2.025-1.124-3.211-1.213-2.715-.203-2.81-1.753-.15-2.446 1.104-.288 2.007-.921 2.007-1.407 0-.485.872-.883 1.936-.883 1.577 0 1.903.648 1.756 3.496-.189 3.696-.628 4.156-2.338 2.453zm156.452-1.611c-1.96-.788-1.526-4.338.53-4.338 1.562 0 5.24 3.166 5.24 4.511 0 .619-4.107.496-5.77-.173zm710.049-.538c.94-.933 1.47-.933 2.41 0 .94.933.67 1.2-1.2 1.2-1.88 0-2.15-.267-1.21-1.2zm-896.872-1.116c-2.639-2.629.117-3.72 3.384-1.339 1.772 1.291 1.763 1.366-.225 1.884-1.139.297-2.561.052-3.159-.545zm154.245.27c-1.62-.954-1.618-1.194.049-4.166 2.153-3.841 3.178-4.256 5.725-2.32 1.358 1.031 1.614 1.732.828 2.263-.626.423-1.308 1.664-1.517 2.758-.437 2.296-2.609 2.922-5.085 1.465zM228.806 348a1.004 1.004 0 0 1 2.007 0 1.004 1.004 0 0 1-2.007 0zm778.004-.475c-4.88-2.145-3.58-6.189 1.63-5.049 3.94.862 4.33 1.56 2.28 4.033-1.33 1.592-2.12 1.799-3.91 1.016zm-160.814-7.488c-1.925-4.095-2.109-5.231-1.052-6.5 2.521-3.027 6.947-.62 7.024 3.82.02 1.234.537 1.664 1.537 1.281.828-.316 1.505-.139 1.505.393 0 .533-.451.969-1.003.969-.552 0-1.004.513-1.004 1.14 0 1.084-2.862 3.761-4.093 3.828-.32.017-1.631-2.201-2.914-4.931zm-692.17 1.143c-3.87-2.015-4.906-4.021-2.526-4.893.956-.351 2.698-1.646 3.871-2.878 3.468-3.645 6.12-3.453 8.159.591l1.765 3.5-3.406 2.75c-3.922 3.166-3.632 3.132-7.863.93zm328.873-.18a1.004 1.004 0 0 1 2.007 0 1.004 1.004 0 0 1-2.007 0zm539.981-6.316c-2.63-2.629.12-3.72 3.39-1.339 1.77 1.291 1.76 1.366-.23 1.884-1.14.297-2.56.052-3.16-.545zm-724.965-2.351c-2.591-2.581 1.76-8.969 5.338-7.837 1.928.609 2.006.868.708 2.345-.803.912-1.77 2.672-2.148 3.909-.668 2.183-2.535 2.942-3.898 1.583zm590.293-.083a5.871 5.871 0 0 1-.034-1.4c.047-.357-.951-.909-2.218-1.226-3.443-.861-5.14-5.237-3.184-8.212.847-1.288 1.54-3.228 1.54-4.31 0-1.405.792-2.06 2.76-2.286 2.355-.269 3.018.251 4.516 3.543.966 2.123 1.756 4.673 1.756 5.667 0 .994.565 2.034 1.255 2.312.952.382.959.523.031.583-.681.044-.959.765-.626 1.627.344.894-.2 2.148-1.286 2.968-2.056 1.551-4.322 1.92-4.51.734zm-668.507-7.255c-.932-1.084-1.135-2.377-.6-3.818.445-1.199.549-2.854.232-3.678-.415-1.077.105-1.499 1.847-1.499 3.358 0 6.295 2.321 5.511 4.355-.348.905-.233 1.645.256 1.645.488 0 1.116-.563 1.394-1.25.303-.747.538-.545.586.5.043.962-.373 1.75-.925 1.75s-1.003.624-1.003 1.387c0 2.104-5.611 2.572-7.298.608zm791.339.185c-3.87-2.015-4.9-4.021-2.52-4.893.95-.351 2.7-1.646 3.87-2.878 3.47-3.645 6.12-3.453 8.16.591l1.76 3.5-3.4 2.75c-3.93 3.166-3.64 3.132-7.87.93zm-403.917-2.226c-1.62-.954-1.617-1.194.049-4.166 2.153-3.841 3.178-4.257 5.726-2.321 1.357 1.032 1.613 1.733.828 2.264-.626.423-1.309 1.664-1.517 2.757-.437 2.297-2.61 2.923-5.086 1.466zm45.373-.954c0-.55.425-1 .945-1 .519 0 1.223.45 1.564 1 .341.55-.084 1-.944 1s-1.565-.45-1.565-1zm57.937-4.405c-1.668-1.261-1.632-1.435.602-2.893 2.309-1.508 2.378-1.469 2.459 1.373.093 3.238-.439 3.503-3.061 1.52zm334.107-1.262c-1.18-1.182-.71-1.904 1.34-2.058 1.15-.086 2.01.466 2.01 1.287 0 1.473-2.15 1.967-3.35.771zm293.17-3.533c.94-.933 1.47-.933 2.41 0 .93.933.67 1.2-1.21 1.2-1.87 0-2.14-.267-1.2-1.2zm-315.36-3.715c-.32-.521-.16-1.21.36-1.532.53-.322 1.22-.16 1.54.362.33.521.16 1.21-.36 1.532-.52.322-1.22.16-1.54-.362zm-690.419-.983c-.334-.538.193-1.443 1.17-2.01 1.617-.938 1.624-1.034.08-1.062-2.116-.038-3.006-1.381-2.237-3.377.726-1.885 4.924-.647 4.964 1.464.014.761.399 1.975.853 2.699.969 1.542.829 1.72-2.049 2.6-1.196.366-2.447.225-2.781-.314zm363.756-1.291c-2.195-2.348-2.706-4.811-.998-4.811.576 0 .915-.736.752-1.636-.168-.936.46-1.755 1.467-1.913.968-.151 1.506.135 1.195.637-.311.502.025.981.748 1.064.722.084 1.804.204 2.405.267.6.062 1.787.806 2.637 1.654 1.759 1.753.82 3.54-2.983 5.677-2.876 1.617-2.825 1.626-5.223-.939zm323.313-1.412c-.71-.769-.85-1.399-.31-1.399 1.04 0 2.55 1.902 1.95 2.466-.19.183-.93-.297-1.64-1.067zm-434.075-1.066c-2.591-2.581 1.76-8.969 5.338-7.837 1.928.609 2.007.868.708 2.345-.803.912-1.769 2.671-2.148 3.909-.668 2.183-2.535 2.942-3.898 1.583zm-510.178-1.365c.119-.455-.666-1.482-1.744-2.283-1.93-1.432-1.93-1.523-.077-5.619 1.887-4.169 4.093-6.758 2.87-3.368-.358.991-.27 1.457.195 1.035 1.25-1.133 3.57 5.095 2.895 7.773-.319 1.268-1.43 2.526-2.468 2.797-1.038.27-1.79.12-1.671-.335zm210.958.032c.341-.55.819-1 1.063-1 .243 0 .442.45.442 1s-.478 1-1.062 1c-.585 0-.784-.45-.443-1zm797.025-4.611c-1.08-1.075-.87-6.389.25-6.389 1.88 0 3.04 3.624 1.72 5.418-.68.931-1.57 1.369-1.97.971zm-899.165-2.002c-1.494-1.489-.624-4.106 2.289-6.887 1.655-1.581 3.01-3.465 3.01-4.187 0-.722.425-1.313.945-1.313 1.679 0 2.272 2.048 1.026 3.544-.92 1.104-.927 1.456-.029 1.456.652 0 .907.45.566 1-.341.55-.165 1 .391 1s2.255 1.149 3.776 2.554l2.765 2.553-4.469-.219c-2.459-.121-5.613.104-7.009.499-1.397.396-2.864.395-3.262-.001l.001.001zm77.219-8.054c-1.186-1.182-.717-1.904 1.338-2.058 1.147-.086 2.007.466 2.007 1.287 0 1.473-2.145 1.967-3.345.771zm775.656-.186c-.33-.531-.34-1.654-.01-2.494.73-1.891 4.94-.645 4.94 1.462 0 1.612-4.05 2.46-4.93 1.032zm-549.795-1.552c-1.668-1.261-1.632-1.435.602-2.893 2.309-1.508 2.378-1.469 2.459 1.373.093 3.238-.439 3.503-3.061 1.52zM471.7 275.811c-2.196-2.348-2.707-4.811-.999-4.811.576 0 .915-.736.753-1.636-.169-.936.459-1.755 1.466-1.913.968-.151 1.506.135 1.195.637-.311.501.026.98.748 1.064.722.084 1.805.204 2.405.266.6.063 1.787.807 2.637 1.655 1.759 1.753.82 3.54-2.982 5.677-2.877 1.617-2.826 1.625-5.223-.939zM934.791 277c.341-.55 1.723-1 3.07-1 1.347 0 2.449.45 2.449 1s-1.381 1-3.069 1c-1.791 0-2.812-.417-2.45-1zm-362.275-2c.341-.55.819-1 1.062-1 .244 0 .443.45.443 1s-.478 1-1.063 1c-.584 0-.784-.45-.442-1zm-38.135-1c.341-.55 1.723-1 3.07-1 1.347 0 2.45.45 2.45 1s-1.382 1-3.07 1c-1.791 0-2.812-.417-2.45-1zm-47.667-2a1.004 1.004 0 0 1 2.007 0 1.004 1.004 0 0 1-2.007 0zm938.816-.017c.35-.559 1.05-.757 1.56-.441 1.4.857 1.14 1.457-.63 1.457-.86 0-1.28-.457-.93-1.016zm-2.52-2.015c0-1.289 2.86-2.453 3.78-1.538.37.373.01 1.097-.8 1.608-1.94 1.225-2.98 1.2-2.98-.07zM28.657 260.09c-.938-1.513 3.417-3.529 4.751-2.2 1.263 1.258.976 1.627-1.963 2.526-1.195.365-2.45.219-2.788-.326zm518.938.243c-1.187-1.182-.718-1.904 1.338-2.059 1.146-.086 2.007.466 2.007 1.288 0 1.472-2.145 1.967-3.345.771zm383.415-.739c-1.668-1.261-1.632-1.434.602-2.893 2.309-1.507 2.378-1.469 2.46 1.374.092 3.238-.44 3.502-3.062 1.519zm355.52.405c0-.55.42-1 .94-1s1.23.45 1.57 1c.34.55-.09 1-.95 1s-1.56-.45-1.56-1zm-62.97-3.5c0-1.964.51-2.5 2.38-2.5 1.31 0 2.38.45 2.38 1s-.45 1-1 1-1 .675-1 1.5-.62 1.5-1.38 1.5c-.81 0-1.38-1.045-1.38-2.5zm-362.743.454c-1.62-.954-1.617-1.194.049-4.166 2.153-3.841 3.178-4.256 5.725-2.32 1.358 1.032 1.614 1.733.829 2.263-.626.423-1.309 1.664-1.517 2.758-.438 2.297-2.61 2.923-5.086 1.465zm-133.355-1.235c-1.663-1.263-3.485-9.984-2.438-11.672.805-1.298 3.541-.157 3.541 1.477 0 .72-.565 1.53-1.254 1.8-.69.269.202.811 1.982 1.203 2.607.575 3.158 1.128 2.834 2.843-.221 1.172-.436 2.468-.477 2.88-.041.413-.865.757-1.831.766-1.5.014-1.537.156-.25.984.827.534 1.053.962.501.953-.552-.008-1.725-.564-2.608-1.234zm-696.854-.719c.34-.55.82-1 1.063-1s.442.45.442 1-.478 1-1.063 1c-.584 0-.783-.45-.442-1zm885.657-6.188c-2.196-2.348-2.707-4.811-.999-4.811.576 0 .915-.736.753-1.636-.169-.936.459-1.755 1.466-1.913.968-.151 1.506.135 1.195.637-.311.501.026.981.748 1.064.722.084 1.805.204 2.405.266.6.063 1.787.807 2.637 1.654 1.759 1.754.82 3.541-2.982 5.678-2.877 1.616-2.826 1.626-5.223-.939zm-672.801-2.393c-.798-2.072-.878-1.803 1.265-4.265 1.068-1.227 3.058-2.153 4.627-2.153h2.753l-2.369 2.064c-1.613 1.406-1.972 2.229-1.124 2.581.957.396.916.845-.179 1.935-1.885 1.879-4.216 1.803-4.973-.162zm871.046-.668c.14-1.237.29-2.418.33-2.622.05-.205.76.187 1.59.872 2.08 1.719 1.89 4-.33 4-1.32 0-1.77-.644-1.59-2.25zM19.058 243.489c-.682-.819-2.04-1.489-3.017-1.489-2.245 0-3.393-2.817-1.886-4.627.862-1.035.828-1.753-.14-2.915-1.404-1.685-.136-3.865 1.548-2.666 1.69 1.203 6.505 12.096 5.594 12.657-.472.291-1.417-.141-2.099-.96zm876.762-.156c-1.186-1.182-.717-1.904 1.339-2.058 1.146-.086 2.007.466 2.007 1.287 0 1.473-2.145 1.967-3.346.771zm-57.201-5c-2.591-2.581 1.76-8.969 5.338-7.837 1.928.609 2.007.869.708 2.345-.803.912-1.77 2.672-2.148 3.909-.668 2.183-2.535 2.942-3.898 1.583zm-693.608-1.07c-1.104-.277-3.064-.904-4.356-1.393l-2.349-.889 3.616-3.603c2.777-2.767 3.924-3.347 4.949-2.499.734.607 1.656.784 2.048.393.393-.391.416.063.051 1.009-.497 1.29-.134 1.719 1.453 1.719 1.163 0 2.114.436 2.114.969 0 .532-.756.679-1.679.326-1.235-.472-1.522-.231-1.082.91.554 1.439-.948 3.943-2.206 3.679-.304-.064-1.456-.343-2.559-.621zm970.639.126c-1.08-1.075-.88-6.389.24-6.389 1.89 0 3.04 3.624 1.73 5.418-.69.931-1.57 1.369-1.97.971zm320.41-11.889c-.69-.825-2.07-1.5-3.07-1.5s-2.1-.9-2.45-2c-.35-1.1-1.46-2-2.46-2s-2.38-.683-3.08-1.519c-1.03-1.241-.95-1.869.48-3.437.96-1.055 1.46-2.365 1.12-2.912-1.09-1.767 1.14-2.16 3.97-.697 2.39 1.234 2.95 1.233 4.19-.006 1.85-1.837 2.3-1.8 3.91.321 1.83 2.402 1.75 7.177-.13 7.897-1.14.437-1.37 1.439-.89 3.969.7 3.709.31 4.169-1.59 1.884zm-85.73-4.071c-2.1-2.087-2.02-2.235.93-1.674 1.38.263 2.51 1.101 2.51 1.862 0 1.834-1.5 1.752-3.44-.188zm-755.665-2c-2.094-2.087-2.012-2.235.932-1.674 1.38.263 2.509 1.101 2.509 1.862 0 1.834-1.493 1.753-3.441-.188zm728.955-.26c-1.75-1.41-2.12-2.439-1.6-4.472 1.3-5.189 7.59-5.871 7.74-.84.05 1.454.2 3.655.34 4.893.32 2.86-3.17 3.086-6.48.419zm-1080.514-2.831c-1.96-.788-1.526-4.338.53-4.338 1.562 0 5.24 3.167 5.24 4.512 0 .618-4.107.495-5.77-.174zm1102.184-6.247c-.94-1.513 3.42-3.53 4.75-2.2 1.27 1.258.98 1.626-1.96 2.525-1.2.366-2.45.22-2.79-.325zm-999.643-8.234c-4.416-9.027-4.15-9.815 3.332-9.842 5.728-.019 7.926 2.235 7.841 8.049-.052 3.608-.486 4.62-2.322 5.423-1.242.543-2.258 1.507-2.258 2.143 0 .636-.607 1.388-1.349 1.672-.901.345-2.64-2.124-5.244-7.445zM826.409 209c.342-.55.82-1 1.063-1 .244 0 .443.45.443 1s-.479 1-1.063 1c-.585 0-.784-.45-.443-1zm-657.815-3.015c-1.338-.876-1.338-1.094 0-1.97 2.456-1.607 5.325-1.255 4.623.567-.335.87-.609 1.77-.609 2 0 .769-2.492.399-4.014-.597zm356.923.348c-1.187-1.182-.717-1.904 1.338-2.058 1.146-.086 2.007.466 2.007 1.287 0 1.473-2.145 1.967-3.345.771zM1347.24 205c.34-.55.82-1 1.07-1 .24 0 .44.45.44 1s-.48 1-1.06 1c-.59 0-.79-.45-.45-1zm-159.51-5.915c-.32-.52-.16-1.21.37-1.532a1.127 1.127 0 0 1 1.54.362c.32.521.16 1.21-.37 1.532-.52.322-1.21.16-1.54-.362zm-960.276-1.019c-1.696-.604-1.715-.775-.227-2.006 1.825-1.509 2.932-.949 2.42 1.225-.22.935-.992 1.21-2.193.781zm512.401-1.566c0-1.965.51-2.5 2.383-2.5 1.311 0 2.383.45 2.383 1s-.451 1-1.003 1c-.552 0-1.004.675-1.004 1.5s-.62 1.5-1.379 1.5c-.803 0-1.38-1.045-1.38-2.5zm444.525-1.101c-.71-.769-.85-1.399-.31-1.399 1.04 0 2.55 1.902 1.96 2.466-.2.183-.94-.297-1.65-1.067zm151.31-1.91c-.68-.819-2.04-1.489-3.01-1.489-2.25 0-3.4-2.817-1.89-4.627.86-1.035.83-1.753-.14-2.915-1.4-1.684-.14-3.865 1.55-2.666 1.69 1.203 6.5 12.096 5.59 12.657-.47.291-1.41-.141-2.1-.96zm67.75-9.223c-4.42-.844-5.1-1.289-3.48-2.304 1.91-1.204 6.28-1.241 5.54-.047-.31.503-.02 1.095.64 1.317 1.84.61-.41 1.47-2.7 1.034zM445.6 177.25c.017-.412 1.119-1.538 2.449-2.501 2.782-2.016 4.345-.693 1.973 1.67-1.633 1.628-4.478 2.162-4.422.831zm280.205-9.75c0-1.965.51-2.5 2.384-2.5 1.311 0 2.383.45 2.383 1s-.452 1-1.003 1c-.552 0-1.004.675-1.004 1.5s-.621 1.5-1.38 1.5c-.803 0-1.38-1.045-1.38-2.5zm-506.845-2.9c.139-3.686.651-4.018 4.577-2.97 2.534.677 3.072 2.37.753 2.37-.828 0-1.506.75-1.506 1.667 0 .916-.297 1.37-.66 1.008-.363-.362-1.254-.166-1.98.434-1.053.87-1.293.362-1.184-2.509zm254.278 1.829c-2.095-2.087-2.012-2.234.931-1.674 1.38.263 2.509 1.101 2.509 1.862 0 1.834-1.493 1.753-3.44-.188zm868.922-14.572c-4.42-9.027-4.15-9.815 3.33-9.842 5.73-.019 7.92 2.235 7.84 8.049-.05 3.608-.49 4.62-2.32 5.423-1.25.543-2.26 1.507-2.26 2.143 0 .636-.61 1.388-1.35 1.672-.9.345-2.64-2.124-5.24-7.445zm-213.45 5.738c-1.67-1.261-1.64-1.435.6-2.893 2.31-1.508 2.38-1.469 2.46 1.373.09 3.239-.44 3.503-3.06 1.52zm-855.014-4c-1.668-1.261-1.632-1.435.602-2.893 2.309-1.508 2.378-1.469 2.459 1.373.093 3.239-.439 3.503-3.061 1.52zm305.342.405c-1.286-.828-1.249-.972.251-.985.966-.008 1.757.435 1.757.985 0 1.22-.114 1.22-2.008 0zm705.682-1.618c-.72-.774-1.04-1.832-.72-2.351.81-1.297 3.53-.125 3.53 1.517 0 2.015-1.34 2.414-2.81.834zm-170.76-5.571c-2.19-2.348-2.71-4.811-1-4.811.58 0 .92-.736.75-1.636-.16-.936.46-1.755 1.47-1.913.97-.151 1.51.135 1.2.637-.32.502.02.981.74 1.064.73.084 1.81.204 2.41.267.6.062 1.79.806 2.64 1.654 1.76 1.753.82 3.54-2.99 5.677-2.87 1.617-2.82 1.626-5.22-.939zm-855.009-4c-2.196-2.348-2.707-4.811-.999-4.811.576 0 .915-.736.753-1.636-.169-.936.459-1.755 1.466-1.913.968-.151 1.506.135 1.195.637-.311.502.026.981.748 1.064.722.084 1.805.204 2.405.266.6.063 1.787.807 2.637 1.655 1.759 1.753.82 3.54-2.982 5.677-2.877 1.616-2.826 1.626-5.223-.939zM952.353 141a1.004 1.004 0 0 1 2.007 0 1.004 1.004 0 0 1-2.007 0zm111.967-.571c-1.99-1.983-2.02-3.429-.07-3.429.82 0 1.5.418 1.5.929 0 .51.71 1.635 1.58 2.5 1.37 1.365 1.38 1.571.07 1.571-.83 0-2.21-.707-3.08-1.571zm-211.317-2.37c0-.517.447-1.216.992-1.552.569-.35.737.051.395.941-.668 1.733-1.387 2.05-1.387.611zm514.367-4.281c-1.95-2.775-1.97-3.778-.09-3.778 1.46 0 3.55 2.901 3.55 4.934 0 1.794-1.81 1.189-3.46-1.156zM164.579 125a1.005 1.005 0 0 1 2.008 0 1.005 1.005 0 0 1-2.008 0zm959.461.25c-.05-.72-1.46-1.263-3.34-1.281-2.28-.023-3.8-.767-5.04-2.458-1.7-2.328-1.69-2.465.11-3.428 1.04-.552 3.53-.737 5.54-.412 2.98.482 3.65 1.017 3.65 2.91 0 1.276.79 2.826 1.76 3.445 1.54.991 1.55 1.063.06.606-.93-.286-1.91.017-2.18.674-.36.888-.51.873-.56-.056zm-839.037-9.309c0-.582.452-.781 1.004-.441s1.003.817 1.003 1.059c0 .243-.451.441-1.003.441-.552 0-1.004-.476-1.004-1.059zm943.067-3.359c-2.53-1.877-2.16-4.272.75-4.825 3.68-.702 5.42 1.803 2.93 4.24-1.62 1.594-2.19 1.685-3.68.585zm-985.66-.491c-.939-1.513 3.417-3.53 4.751-2.2 1.262 1.258.976 1.626-1.964 2.526-1.195.365-2.45.219-2.787-.326zM457.109 112c.341-.55.142-1-.442-1-.585 0-1.063-.45-1.063-1s.677-1 1.505-1c.837 0 1.506.889 1.506 2 0 1.1-.479 2-1.063 2-.585 0-.784-.45-.443-1zm-367.05-2.084c-.97-.563-2.212-.748-2.76-.411-1.615.995-1.136-2.144.54-3.529 2.125-1.758 6.493.263 6.493 3.003 0 2.203-1.517 2.536-4.273.937zM244.36 107c.341-.55.82-1 1.063-1 .244 0 .443.45.443 1s-.479 1-1.063 1c-.585 0-.784-.45-.443-1zm163.274-9.617c-.718-.775-1.043-1.833-.721-2.352.805-1.297 3.532-.125 3.532 1.517 0 2.015-1.346 2.414-2.811.835zm-174.823-1.894c-.683-.819-2.04-1.489-3.017-1.489-2.245 0-3.394-2.817-1.886-4.626.862-1.036.827-1.753-.141-2.916-1.403-1.684-.136-3.865 1.549-2.666 1.69 1.203 6.504 12.096 5.594 12.657-.473.291-1.417-.14-2.099-.96zm158.584-4.451c-1.925-4.096-2.108-5.232-1.052-6.5 2.521-3.028 6.948-.62 7.024 3.82.02 1.233.537 1.663 1.537 1.28.828-.316 1.506-.14 1.506.394 0 .532-.452.968-1.004.968s-1.003.513-1.003 1.14c0 1.085-2.862 3.761-4.094 3.828-.319.017-1.631-2.201-2.914-4.93zm-92.393-2.599c-.972-1.167-1.05-2.062-.285-3.273 1.415-2.239 4.861-2.936 4.046-.818-.432 1.122-.15 1.38 1.021.931 1.079-.412 1.377-.228.894.551-.408.657-.172 1.17.538 1.17 1.743 0-.104 1.614-2.76 2.41-1.351.406-2.6.055-3.454-.971zm616.732.545c.347-.56 1.051-.757 1.565-.441 1.392.857 1.132 1.457-.631 1.457-.86 0-1.281-.457-.934-1.016zm-2.519-2.015c0-1.29 2.859-2.453 3.778-1.538.374.373.017 1.097-.796 1.608-1.943 1.224-2.982 1.2-2.982-.07zm-544.166-2.733c-2.81-1.37-3.352-2.758-1.94-4.974 1.012-1.587 7.209.525 7.209 2.457 0 .705.451 1.281 1.003 1.281.552 0 1.004.398 1.004.883 0 1.538-4.407 1.751-7.276.353zM329.159 84c0-.55.478-1 1.063-1 .584 0 .783.45.442 1s-.819 1-1.063 1c-.243 0-.442-.45-.442-1zm866.131-.316c-2.64-2.63.12-3.72 3.39-1.34 1.77 1.292 1.76 1.367-.23 1.885-1.14.297-2.56.052-3.16-.545zm-11.84-9.504c-3.87-2.015-4.91-4.02-2.53-4.893.96-.351 2.7-1.646 3.88-2.878 3.46-3.645 6.12-3.453 8.16.591l1.76 3.5-3.41 2.75c-3.92 3.166-3.63 3.132-7.86.93zm-422.693-2.93c-.046-.72-1.461-1.263-3.34-1.281-2.274-.023-3.798-.767-5.032-2.457-1.7-2.329-1.696-2.467.109-3.43 1.035-.55 3.525-.736 5.534-.411 2.982.482 3.654 1.017 3.654 2.91 0 1.276.79 2.826 1.756 3.445 1.546.99 1.554 1.063.065.606-.931-.286-1.911.017-2.179.674-.362.888-.508.873-.567-.056zM0 67.564C0 66.056 2.075 64 3.596 64c1.239 0 2.732 3.904 1.579 4.128-3.209.621-5.175.407-5.175-.564zm725.296-2.648c-.971-.564-2.213-.748-2.76-.411-1.616.995-1.136-2.144.539-3.53 2.125-1.757 6.494.264 6.494 3.004 0 2.203-1.518 2.536-4.273.936zM92.892 61.104c-.305-.493.096-1.145.893-1.45.966-.369 1.263-.07.89.896-.646 1.68-1.014 1.794-1.783.554zm471.687.042c-.33-.532-.335-1.654-.012-2.494.729-1.891 4.938-.645 4.938 1.462 0 1.612-4.041 2.46-4.926 1.032zM407.434 49.06c0-.518.447-1.216.992-1.552.569-.35.738.051.395.941-.667 1.732-1.387 2.05-1.387.61zM1420.6 34.167c-.28-.459.13-.834.9-.834.78 0 1.19.375.9.834-.28.458-.68.833-.9.833-.21 0-.61-.375-.9-.833zm-386.34-8.723c-.9-2.323-.83-2.444 1.39-2.444 2.33 0 2.6 1.263.62 2.903-1.08.889-1.53.785-2.01-.46zm28.91-10.587c-4.41-9.027-4.15-9.815 3.33-9.842 5.73-.02 7.93 2.235 7.85 8.05-.06 3.607-.49 4.62-2.33 5.422-1.24.543-2.25 1.508-2.25 2.143 0 .636-.61 1.388-1.35 1.672-.9.345-2.64-2.124-5.25-7.445zM10.621 18.75c.138-1.237.288-2.418.334-2.622.046-.205.761.187 1.59.872 2.078 1.719 1.887 4-.335 4-1.313 0-1.768-.644-1.589-2.25zm854.224.05c.936-.933 1.472-.933 2.408 0 .937.933.669 1.2-1.204 1.2s-2.141-.267-1.204-1.2zm336.965-2.05c.14-1.238.29-2.418.34-2.623.05-.204.76.188 1.59.873 2.08 1.719 1.89 4-.34 4-1.31 0-1.76-.644-1.59-2.25zM847.985 17c0-.55.425-1 .945-1 .519 0 1.223.45 1.564 1 .341.55-.084 1-.944 1-.861 0-1.565-.45-1.565-1zm244.375-5.016c.34-.56 1.05-.758 1.56-.441 1.39.857 1.13 1.457-.63 1.457-.86 0-1.28-.457-.93-1.016zm-2.52-2.015c0-1.29 2.86-2.453 3.77-1.538.38.373.02 1.096-.79 1.608-1.94 1.224-2.98 1.2-2.98-.07zm148.52-2.886c0-1.228.65-2.083 1.58-2.083s1.45.68 1.25 1.667c-.49 2.509-2.83 2.853-2.83.416zM348.477 2.5c0-1.965.51-2.5 2.383-2.5 1.311 0 2.384.45 2.384 1s-.452 1-1.004 1-1.003.675-1.003 1.5-.621 1.5-1.38 1.5c-.803 0-1.38-1.045-1.38-2.5z"/></g><defs><clipPath id="clip0"><path fill="#fff" d="M0 0h1440v400H0z"/></clipPath></defs></svg>