<svg xmlns="http://www.w3.org/2000/svg" width="1440" height="600" fill="none"><path fill="#fff" d="M0 0h1440v600H0z"/><path fill="#39352A" d="M0 0h1440v600H0z"/><path fill="#F7BF08" d="M1099.82 340.566c-1-.608-.52-3.081.65-3.34.55-.121.6.258.16 1.412-.4 1.093-.38 1.608.11 1.677.38.055.52.245.3.428-.22.187-.75.108-1.22-.177zm-1.18 3.934c-.12-.016-.16-.471-.08-.975.07-.499.37-.905.65-.865.28.04.32.493.09.971-.23.483-.54.886-.66.869zm5.61-114.451c-.38-.484-.56-1.052-.36-1.213.18-.16.53.175.74.712.55 1.427.45 1.562-.38.501zm-26.4 169.362c-.26.516-1.08.868-1.8.766-.72-.102-1.37.099-1.42.441-.05.328.21.671.55.718.33.047.43.259.22.447-.23.194-.94-.378-1.55-1.248-1.57-2.241-2.69-1.434-1.52 1.102.88 1.918.87 2.024-.26 3.1-1.41 1.332-3.84 1.161-3.63-.263.07-.531.63-1.86 1.28-3.051.64-1.187 1.21-2.6 1.31-3.238.08-.626.53-1.387 1-1.714.64-.436 1.05-.232 1.67.815 1.08 1.832 2.14 1.905 2.61.178.48-1.785 2.44-2.021 2.19-.263-.1.691-.39 1.683-.65 2.21zm18.03-164.891c-.49.04-.99-.913-1.27-2.424-.25-1.385-.52-2.724-.59-2.998-.06-.271.35-.429.9-.351.57.082 1.29 1.08 1.65 2.28.71 2.472.54 3.378-.69 3.493zm-27.49 178.204c-.63.089-1.23.724-1.33 1.411-.12.853-.69 1.29-1.77 1.367-1.95.13-2.01.016-1.21-2.239.49-1.397 1.23-2.091 2.83-2.669 1.19-.428 2.38-.867 2.63-.97.25-.108.35.497.23 1.375-.15 1.005-.64 1.627-1.38 1.725zm-4.42 9.456c-.38-.471-.81-.339-1.37.414-.9 1.214-.38 2.299.81 1.686.51-.258.58-.05.22.668-.29.599-.55 1.289-.59 1.612-.05.305-.97.438-2.02.289-1.72-.244-1.97-.091-2.17 1.327-.12.876-.45 1.393-.72 1.144-.27-.246-.56-.078-.62.36-.14 1.002-3.9 4.063-4.28 3.488-.15-.227-.81-.012-1.45.466-1.11.851-1.16.827-.97-.49.22-1.58 3.8-6.948 5.95-8.946.84-.775 1.45-1.733 1.39-2.172-.14-.981 1.35-2.509 1.91-1.97.22.201.05 1.063-.34 1.839-.64 1.256-.59 1.488.36 1.623.66.094 1.41-.442 1.87-1.335 1.09-2.149 2.23-3.033 3.31-2.553.75.333.77.635.08 1.819-.55.942-1 1.19-1.37.731zm-1.26-2.821c-.66.471-.93.366-1.06-.422-.28-1.575-.24-1.633.98-1.459 1.28.181 1.31 1.007.08 1.881zm30.39-223.26c-.32-1.072-.7-2.096-.86-2.288-.27-.322-2.33-5.085-5.33-12.294-.54-1.294-1.55-3.208-2.21-4.19-.65-.965-1.17-2.09-1.12-2.429.05-.35-.66-1.719-1.59-3.082-1.45-2.112-3.17-6.172-2.58-6.088.87.124 3.58 2.875 4.17 4.242.42.955 1.08 2.275 1.52 2.996.42.715 1.06 2.299 1.41 3.504.58 1.993 3.27 7.761 5.12 10.963 1.04 1.82 2.28 6.133 2.11 7.343-.08.568.08 1.281.35 1.524.27.244.29.744.04 1.095-.27.373-.7-.159-1.03-1.296zm-17.83 109.071a43.68 43.68 0 0 0-1.43 2.519l-.77 1.493-.07-1.613c-.46-11.65-1.23-21.184-1.96-24.288-.17-.727-.5-3.077-.72-5.222-.43-3.969-1.13-7.74-1.78-9.531-1.39-3.852-1.93-6.374-1.57-7.332.24-.626.05-1.908-.4-2.808-.46-.913-.71-2.535-.56-3.601.28-1.957-.26-7.211-.96-9.356-.19-.603-.3-1.616-.23-2.144.08-.564-.16-.937-.55-.848-1.13.252-1.85-2.888-1.55-6.752.28-3.602-.55-6.831-1.62-6.281-1 .518-1.87-1.19-1.39-2.726.33-1.035.16-1.538-.66-1.916-.62-.28-1.25-1.198-1.4-2.057-.16-.856-1.18-2.949-2.3-4.704-1.11-1.763-2.18-3.733-2.39-4.442-.2-.669-.61-1.242-.87-1.213-.26.035-.94-1.416-1.47-3.148-.53-1.746-1.31-3.502-1.68-3.847-.76-.675-.55-3.065.25-2.951.29.042.58.313.72.672.12.344 1.28 1.079 2.61 1.653 1.33.583 2.34 1.41 2.28 1.86-.07.464.43 1.732 1.14 2.921.68 1.127 1.66 3.468 2.13 5.073.48 1.652 2.1 5.706 3.64 9.124 1.54 3.419 2.73 6.395 2.69 6.692-.04.285.32 1.419.78 2.447 3.6 8.06 9.81 34.242 9.18 38.689-.11.712.17 2.481.6 3.891.44 1.423.86 3.926.93 5.607.38 8.117.43 17.948.13 21.977-.06.627-.38 1.588-.75 2.162zm-6.06 17.996c-.4.087-1.05 2.081-1.55 4.766-.9 4.864-1.67 6.593-4.14 9.205-.86.901-1.6 1.988-1.66 2.419-.06.433-.68 1.222-1.38 1.755-1.26.964-1.25.88.49-10.973.97-6.581 1.77-13.193 1.78-14.726.02-1.555.5-4.123 1.1-5.828 1.9-5.428 2.34-7.64 1.75-8.782-.37-.705-.18-4.052.62-10.594.65-5.293 1.16-10.569 1.15-11.815-.02-1.406.14-1.976.42-1.537.58.928 1.85 7.498 1.89 9.807.02.996.17 3.419.34 5.426.16 2.007.19 4.395.05 5.356-.13.938-.06 1.892.16 2.092.37.343.3 5.941-.13 11.063-.07.825-.01 1.476.15 1.498.15.022.06 1.381-.2 3.008-.27 1.627-.36 3.571-.22 4.289.39 1.914.13 3.414-.62 3.571zm14.35-125.484c-1.21-.171-1.75-1.082-2.8-4.685-.56-1.937-1.35-3.89-1.78-4.41-.43-.526-1.48-2.74-2.37-4.981-1.16-2.918-1.4-4.198-.9-4.628.88-.735 2.86 2.827 2.97 5.341.05.969.32 1.835.58 1.873.27.038.65.956.82 2.009.17 1.042.75 2.165 1.26 2.448.51.286 1.41 1.804 1.98 3.354 1.18 3.24 1.22 3.818.24 3.679zm-25.71 153.817c-.93-.133-.22-2.332 1.21-3.73 1.31-1.287 1.39-1.293 1.93-.113.48 1.057.33 1.423-1.02 2.577-.83.716-1.83 1.307-2.12 1.266zm19.14-139.386c-.85-.12-2.62-4.215-2.42-5.594.08-.564-.18-1.388-.58-1.873-.39-.468-.67-1.283-.6-1.757.07-.479-.23-.929-.68-.992-.42-.06-.68-.665-.55-1.289.24-1.127.3-1.13 1.32.045 1.06 1.208 1.82 2.962 3.42 7.927 1.02 3.151 1.04 3.668.09 3.533zm-35.93 240.766c-.59-.891.06-1.657.81-.958.3.279.36.788.12 1.126-.27.388-.61.327-.93-.168zm-1.81 3.808c-.81.112-1.48.553-1.49.975-.04 2.044-.36 2.499-1.11 1.577-.38-.468-.66-1.289-.6-1.756.07-.469-.26-.936-.7-.999-1.05-.149-.98-.714.25-2.076.62-.682 1.02-.773 1.22-.276.16.414.95.797 1.79.858 1.96.148 2.28.282 2.19.923-.05.313-.75.659-1.55.774zM1070 195.052c-1.8-3.076-2.42-5.861-.87-3.927.39.478.68 1.232.62 1.617-.06.403.43 1.331 1.11 2.113.68.78 1.16 1.802 1.08 2.325-.08.558-.87-.312-1.94-2.128zm-37.16 260.8c-1.39.289-1.92-.191-1.23-1.116.56-.751 2.65-.505 2.53.297-.04.323-.6.674-1.3.819zm33.45-236.557l-1.06 1.648-.33-1.814c-.19-.982-.26-2.347-.17-3 .09-.628-.1-1.624-.41-2.104-.32-.517-1.03-2.034-1.62-3.468-.59-1.425-1.21-2.573-1.41-2.601-.2-.029-.65-.794-1.02-1.743-.37-.949-.47-1.665-.22-1.629.88.124 4.87 6.26 4.73 7.26-.08.563.13 1.278.5 1.625.46.442 1.89 3.325 2.04 4.115.01.039-.47.83-1.03 1.711zm8.51-61.634c-.34.158-2.17-2.07-4.12-5.014-1.95-2.951-3.87-5.354-4.34-5.419-.44-.063-.8-.564-.77-1.074.02-.511.07-1.326.1-1.746.03-.431-.94-1.749-2.13-2.891-1.19-1.148-2.48-2.565-2.83-3.125-.35-.565-.97-1.068-1.36-1.125-.94-.133-2.4-2.531-1.83-3.013.25-.213.06-.44-.44-.511-1.55-.22-3.96-2.724-3.51-3.638.24-.475.15-1.102-.22-1.471-.4-.389.08-.533 1.24-.368 2.04.291 6.49 4.274 6.79 6.089.09.552 1.14 2.08 2.35 3.451 2.34 2.639 11.33 16.095 11.6 17.355.27 1.258.06 2.22-.53 2.5zm-47.48 302.068c-.91.035-1.2.368-1.07 1.223.12.825-.18 1.25-1 1.428-.64.136-1.29.607-1.44 1.041-.19.529-.62.595-1.3.198-.92-.536-.79-.784 1.33-2.593 1.28-1.097 2.59-1.969 2.9-1.926.3.043.9-.447 1.32-1.089 1.06-1.602 1.97-1.321 1.15.354-.35.718-1.21 1.34-1.89 1.364zm40.5-293.861c-2.06-3.045-3.75-6.722-3.28-7.12.71-.618 6.12 9.255 5.48 9.992-.09.097-1.09-1.208-2.2-2.872zm-3.14 19.258c-.3-.281-.48-.982-.4-1.545.12-.879.24-.832.78.335.66 1.438.49 2.008-.38 1.21zm-46.37 287.975c-.3-.43-.21-.748.27-.886.42-.125.79-.592.86-1.093.12-.88 1.34-1.085 1.85-.314.49.755-2.47 3.029-2.98 2.293zm41.02-271.822c-.67-.096-4.33-3.242-4.81-4.139-.32-.609-1.01-1.184-1.5-1.271-.68-.122-.62-.257.27-.535 1.08-.344 1.05-.439-.33-1.07-1.27-.587-1.42-.929-.95-2.156.96-2.551-1.75-7.744-3.91-7.491-1.67.2-3.18-1.286-2.27-2.222.59-.604 1.08-.525 2.91.499 2.04 1.147 5.36 4.778 5.23 5.715-.04.244.44 1.281 1.08 2.332.63 1.047 1.11 2.094 1.07 2.362-.03.265.75 1.731 1.78 3.356 1.52 2.396 2.25 4.737 1.43 4.62zm-40.98 263.559c-1.95-.021-1.31-1.056.74-1.199.91-.06 1.36.152 1.16.559-.17.35-1.05.651-1.9.64zm-1.97 3.996c-1.26.066-2.52.431-2.82.814-.71.924-3.71 2.112-4.03 1.603-.15-.239.67-.905 1.89-1.524 1.22-.62 2.2-1.347 2.24-1.665.04-.303.47-.51.91-.447.44.063.9-.321.97-.821.15-1.114 1.61-1.006 2.51.188 1.06 1.401.77 1.722-1.67 1.852zm28.58-292.32c-.3-.272-.47-.695-.42-1.052.06-.355.31-.567.65-.52.32.046.49.488.41 1.051-.08.562-.35.78-.64.521zm-2.6 15.31c-.22-.032-.76-.406-1.16-.805-.59-.594-.49-.711.51-.569.66.094 1.2.473 1.16.805-.06.379-.26.604-.51.569zm-43.588 277.319c-2.042.853-3.723 1.434-3.801 1.318-.078-.12-.149-.759-.16-1.463-.014-1.021.377-1.271 2.144-1.361 1.192-.06 2.476-.377 2.866-.711.839-.712 2.789-.574 2.679.189-.04.278-1.69 1.179-3.728 2.028zm40.258-285.089c-.47-.272-.74-.638-.56-.781.17-.147.73-.04 1.21.232.46.272.73.637.56.782-.17.145-.74.04-1.21-.233zm-42.704 296.731c-.466-.294-.63-.788-.375-1.128.324-.434.644-.366 1.122.244.842 1.071.393 1.603-.747.884zm40.834-312.937c-1.17-.075-1.64-.383-1.55-1.023.07-.499-.19-.947-.59-1.004-.4-.057-.68-.678-.63-1.372.06-.7.42-1.221.82-1.165.72.103 3.76 3.717 3.67 4.364-.02.176-.77.264-1.72.2zm-.51-9.127c-1.03-1.098-1.03-1.138.03-.987.61.086 1.36.53 1.66.996.89 1.35-.41 1.339-1.69-.009zm-3.32 15.178c-.83-1.372-2.3-3.233-3.34-4.223-1.05-.994-1.83-2.073-1.77-2.457.07-.505.23-.481.6.086.3.445.87.679 1.34.552.82-.228 4.42 3.847 3.84 4.34-.17.151.01.702.4 1.18.39.491.65 1.375.57 1.932-.1.712-.62.272-1.64-1.41zm-45.27 303.083c-.349.177-.925-.05-1.204-.473-.39-.596-.289-.939.382-1.292.487-.254 1.096-.454 1.302-.428.634.076.251 1.824-.48 2.193zm36.49-311.41c-1.82-1.476-2.24-2.843-.81-2.639.67.094 3.5 3.788 3.15 4.095-.15.121-1.17-.515-2.34-1.456zm-53.289 320.977a150.02 150.02 0 0 1-3.926-.393c-2.221-.26-3.671.528-3.775 2.05-.068 1.012-.442 1.223-1.887 1.045-.999-.128-2.003-.055-2.245.157-.966.837-1.296.201-.472-.897.48-.636 1.118-1.12 1.423-1.077.724.103 5.389-4.164 5.514-5.043.064-.448.744-.45 1.922-.013 1.771.653 1.831.614 2.035-1.408.204-2.001.294-2.071 2.296-1.85 1.276.142 2.044.522 1.978.986-.125.876 1.456 3.192 2.148 3.145 1.534-.105 1.343.49-.611 1.923-1.481 1.082-2.84 1.505-4.4 1.375zm-48.029.081c-.446-.064-.794-.379-.751-.682.043-.303.489-.673.961-.794.528-.137.825.136.747.685-.067.486-.516.853-.957.791zm-14.706 34.726c-.503-.745.756-1.348 1.818-.872l1.166.521-1.375.35c-.761.191-1.479.192-1.609.001zm-9.287-29.175c-.389-.055-.845-.429-.986-.812-.146-.386-.704-.611-1.228-.495-.524.119-1.855.147-2.916.065-1.063-.082-2.522.294-3.196.825-.699.55-1.529.934-1.902.881-.363-.052-.881.354-1.145.894-.371.77-.91.844-2.417.331-1.187-.405-2.462-.393-3.28.029-1.703.876-7.276 1.529-8.956 1.053-2.553-.727-2.295-2.997.427-3.796.884-.262 2.705-.369 4.099-.24 1.394.126 2.903.095 3.395-.073 2.198-.746 7.019-1.519 8.323-1.334.772.11 1.484-.115 1.536-.486.056-.394.408-.496.824-.235.414.259.887.315 1.105.125.663-.576 5.547-.039 6.457.707 1.008.834.906 2.71-.14 2.561zm-49.479 32.71c-2.143.378-4.937-.015-5.2-.735-.147-.404.508-.414 1.639-.024 1.293.448 2.365.39 3.413-.188 1.778-.975 2.29-.981 1.859-.02-.175.394-.96.837-1.711.967zm-14.773-12.444c-.763.392-3.182.521-5.634.3-3.957-.357-4.304-.495-4.461-1.753-.099-.786.144-1.532.557-1.751 1.368-.71 5.662-.51 7.012.326.725.45 1.961.922 2.677 1.024 1.716.244 1.661.925-.151 1.854zm-4.145-7.359c-.471.133-.933-.045-1.075-.412-.133-.35.254-.571.865-.485 1.328.188 1.414.559.21.897zm-4.319-.393c-.366-.23-.038-.327.734-.217.773.11 1.06.294.649.413-.414.12-1.025.033-1.383-.196zm-5.187 1.118c-2.178-.974-2.474-1.258-1.463-1.408 1.271-.189 4.49.596 6.055 1.474.595.333.461.528-.541.799-.842.229-2.3-.082-4.051-.865zm-4.338-.682c-.342.172-.563.016-.51-.361.054-.376.333-.624.644-.58.34.048.539.19.514.361-.024.169-.276.403-.648.58zm-5.441.571c-2.539-.025-3.214-.195-2.698-.674.378-.352 2.171-.594 4.028-.544 2.363.063 3.155.264 2.702.671-.357.32-2.175.564-4.032.547zm1.381-12.507c-3.776-.034-4.056-.117-4.086-1.192-.034-.977.351-1.102 2.395-.811 2.272.323 3.109.782 2.987 1.64-.031.205-.617.372-1.296.363zm-22.04 16.034c-.426-.261-.278-.381.389-.328.56.045.878.246.67.417-.204.178-.694.136-1.059-.089zm-33.504-7.772c-.827-.117-1.384-.676-1.477-1.492-.101-.831-.621-1.368-1.46-1.487-.714-.102-1.373-.594-1.461-1.104-.274-1.5 1.358-2.3 3.168-1.552 1.652.682 2.008 1.604.739 1.944-.388.107-.069.484.731.851 1.909.879 1.719 3.119-.24 2.84zm-60.776-26.566c-.55-.078-1.218-.943-1.431-1.871-.522-2.186-.45-2.474.468-1.891.411.264.895.239 1.121-.058.891-1.174 1.475-.302 1.181 1.768-.241 1.694-.552 2.164-1.339 2.052zm32.777-330.351c-1.762 1.269-1.843 1.45-1.256 2.793.965 2.182.617 3.022-1.097 2.62-1.694-.393-2.054-2.609-.661-4.02.449-.451.672-1.079.528-1.462-.247-.668 3.403-3.992 4.291-3.902 1.097.095-.102 2.751-1.805 3.971zM647.86 354.653c-.382-.465-.687-1.135-.645-1.437.043-.299.473-.507.913-.445.471.067.751.682.644 1.435-.162 1.127-.29 1.193-.912.447zm4.08-67.403c-.709 1.179-.828 1.188-1.343.096-.321-.686-.525-1.496-.48-1.893.116-1.009 2.757-3.776 3.206-3.356.486.452-.286 3.324-1.383 5.153zm-25.392 69.172c-.31-.473.668-1.506 1.328-1.412.335.048.227.417-.273.921-.433.453-.929.681-1.055.491zm-6.565-30.059c-.335-.047-.521-.331-.468-.708.054-.376.312-.597.647-.549.333.047.519.331.465.707-.053.377-.311.598-.644.55zm2.208-59.998c-.836-.469-1.562-2.499-1.048-2.93.625-.524 1.972 1.214 1.811 2.345-.073.502-.423.775-.763.585zM1118.41 295.799c-.35.176-.5.517-.37.87.33.924.66.82.82-.253.06-.481-.15-.762-.45-.617zM1107.85 337.13c-.21.397-.3 1.056-.21 1.494.09.439.25.128.37-.71.12-.836.05-1.18-.16-.784zM1114.05 255.736c-.2.397-.26.926-.11 1.142.14.209.32-.133.37-.736.07-.727-.03-.868-.26-.406zM1078.14 417.864c-.64-.053-.77.063-.37.313.35.213.81.252 1.01.083.2-.164-.11-.352-.64-.396zM1074.66 421.882c-.34.169-.61.524-.66.882-.05.355.15.481.5.312.34-.169.61-.52.66-.879.05-.36-.15-.486-.5-.315zM1073.42 423.839c-.58-.083-3.21 2.021-2.97 2.381.1.155.51.178.96.057.95-.26 2.67-2.344 2.01-2.438zM1039.83 466.616c-.58-.083-1.12.125-1.16.444-.05.33.25.648.68.708.42.06.94-.14 1.16-.446.22-.295-.1-.624-.68-.706zM1038.23 468.247c-1.37-.232-5.79.997-5.88 1.632-.12.845 1.08.731 4.09-.391 1.7-.636 2.42-1.131 1.79-1.241z"/><path fill="#F7BF08" d="M1079.49 161.139c-.23-2.014-1.02-3.099-3.78-5.227-1.5-1.159-2.06-1.341-2.48-.778-.7.929-.73 1.536-.06 1.63.57.081 2.3 2.28 4.75 6.041 1.58 2.425 2 1.991 1.57-1.666zM1074.74 148.382c-.58-.467-1.67-1.723-2.38-2.735-1.15-1.622-1.7-1.895-4.19-2.094-2.77-.217-4.8.235-2.5.561.63.09 1.13.368 1.09.616-.03.25.56.99 1.33 1.653 1.05.91 1.29 1.579 1 2.764-.29 1.179.02 2.129 1.28 3.897 1.79 2.524 2.33 2.861 2.52 1.546.06-.472-.21-.938-.59-.992-.39-.057-1.02-.63-1.4-1.295-.64-1.11-.57-1.25.87-1.92.86-.404 2.08-.596 2.75-.435 1.5.362 1.61-.416.22-1.566z"/><path fill="#F7BF08" d="M1067.5 149.012c-1.24-.748-1.6-.604-.63.25.48.42.99.635 1.14.491.16-.145-.07-.476-.51-.741zM1018.04 486.621c-3.04-.612-3.64-.188-2.34 1.648.94 1.331 1.04 1.351 2.19.474 1.57-1.19 1.61-1.827.15-2.122zM1064.29 145.081c-.37-.571-.7-1.628-.7-2.238 0-1.251-2.25-3.483-3.82-3.78-.57-.112-1.65-.69-2.37-1.277-.73-.587-1.46-.88-1.6-.656-.16.233 1.21 1.694 3.08 3.308 1.86 1.603 3.94 3.591 4.68 4.492 1.47 1.772 1.85 1.856.73.151zM1027.94 381.795c-.45.117-.85.331-.87.456-.02.128.33.291.76.351.42.06.82-.153.87-.455.04-.303-.31-.468-.76-.352zM1054.87 127.95c-.15-.022-.72.323-1.21.744-.8.686-.78.8.17.936.63.09 1.13-.219 1.2-.741.07-.481 0-.917-.16-.939zM1053.83 132.072c-.43-.061-.81-.442-.9-.889-.09-.45-.24-.345-.36.248-.13.675.17 1.098.86 1.195.58.082 1.07.013 1.09-.156.03-.17-.27-.339-.69-.398zM1045.8 117.799c-.6-.323-1.34-.312-1.72.018-.48.41-.2.642 1.01.814 1.95.279 2.22-.029.71-.832zM970.825 497.956c-.346.17-.593.391-.616.552-.023.161.173.3.489.344.303.044.564-.194.615-.552.051-.359-.156-.504-.488-.344zM969.69 499.317c-.948-.134-1.726-.135-1.745-.003-.074.521 1.95 1.032 2.646.671.55-.285.259-.503-.901-.668zM969.508 501.181c-.641-.05-.774.062-.371.314.346.213.814.252 1.009.082.196-.164-.108-.35-.638-.396zM967.244 498.177c-.158-.244-.697-.188-1.118.116-.42.303-.951.389-1.1.18-.164-.227-.75-.217-1.322.024-.685.289-1.113.209-1.284-.243-.144-.387.244-.751.902-.85 1.206-.181 1.796-1.175.78-1.32-2.48-.352-3.54 2.736-1.287 3.739 1.265.564 4.979-.815 4.429-1.646zM953.532 506.509c-.228-.217-.62-.005-.844.45-.223.455-.197.89.055.925.687.098 1.269-.921.789-1.375zM942.859 524.462c-.272-.249-.514-.165-.565.194-.051.358.137.659.437.702.316.045.544-.031.567-.194.024-.161-.155-.441-.439-.702zM990.011 87.022c-.315-.045-.56.16-.612.523-.052.362.125.628.442.673.316.045.56-.16.611-.523.052-.363-.125-.628-.441-.673zM979.741 150.918c-.284-.431-1.033-.862-1.614-.933l-1.086-.12.979.866c.572.516.84 1.295.644 1.894-.227.701-.051.938.566.763 1.01-.291 1.235-1.375.511-2.47zM987.903 86.722c-.3-.043-.566.196-.616.554-.051.354.16.504.488.344.346-.17.593-.394.616-.552.023-.165-.173-.301-.488-.346zM978.522 147.207c-.543-.342-1.08-.262-1.442.22-.706.938.69 1.712 1.633.902.459-.389.399-.744-.191-1.122zM983.157 80.01c-.637-.053-.772.06-.367.316.346.21.81.253 1.008.085.196-.169-.109-.357-.641-.402zM901.655 529.88c-.172-.024-1.194.27-2.214.631-1.87.665-1.874.676-.265.529 1.417-.125 3.358-1.035 2.479-1.16zM960.358 76.225c-.738-.105-1.042-.022-.701.2.345.221.926.304 1.317.188.396-.118.125-.283-.616-.388zM890.97 527.488c-3.006-.017-3.845.548-4.439 2.987-.386 1.59-.276 1.808 1.126 2.171 1.141.299 1.794.081 2.452-.808.777-1.049.786-1.181.06-.983-.849.236-1.874-.8-1.738-1.757.041-.282.528-.3 1.027-.035.5.264 1.168.212 1.411-.105.245-.317.915-.37 1.414-.105.65.343.993.207 1.083-.426.106-.748-.353-.928-2.396-.939zM878.704 512.047c-.638-.051-.774.062-.368.314.345.214.813.252 1.011.083.193-.166-.112-.353-.643-.397zM914.289 126.446c-1.647 1.241-1.62 2.305.042 1.584.573-.239 1.161-.987 1.244-1.574.15-1.055.101-1.058-1.286-.01zM844.534 526.789c-2.949-.469-6.566-1.08-7.982-1.349-1.467-.278-2.715-.215-2.88.141-.381.831-6.006-.732-6.755-1.876-.76-1.17-2.275-1.356-3.216-.393-.903.925-7.543-.2-10.388-1.762-1.846-1.014-5.382-1.103-5.52-.134-.047.334.491.703 1.224.843.735.139 2.167.463 3.258.737 1.072.27 3.774.886 6.014 1.373 2.241.488 4.247 1.061 4.469 1.278.212.21.764.017 1.186-.413.887-.908 3.314-.797 3.179.149-.045.316.527.682 1.212.779.681.097 1.405.488 1.531.83.403 1.075 2.796 1.045 4.566-.056 1.117-.698 2.015-.863 2.601-.481.483.322 2.288.903 4.003 1.292 5.212 1.185 7.266 1.289 8.278.424.396-.345-1.257-.822-4.78-1.382zM899.962 123.601c-1.106-.157-6.189 1.148-6.255 1.612-.035.248-.414.27-.808.036-.496-.296-.804-.057-.914.723-.156 1.095.034 1.087 3.109-.105 1.82-.71 3.551-1.236 3.905-1.186.367.052.799-.138 1.031-.458.244-.334.218-.581-.068-.622zM833.343 529.313c-.425-.061-.98.145-1.196.44-.209.292-.033.603.39.664.423.06.976-.148 1.194-.439.215-.295.035-.605-.388-.665zM889.802 125.662c-.429.365-.648.817-.495 1.023.15.205.489-.082.765-.653.384-.798.322-.883-.27-.37zM897.409 70.649c-.181-.274-.942-.583-1.677-.688-.947-.134-1.197.026-.859.546.266.4 1.03.717 1.681.694.646-.025 1.036-.273.855-.552zM839.518 457.154c-.741-.106-1.047-.016-.707.202.349.222.929.304 1.321.187.391-.115.123-.285-.614-.389zM891.612 66.414c-.489.046-.926.358-.957.688-.088.908 1.1.888 1.517-.031.209-.449-.014-.707-.56-.657zM887.496 65.123c-.419-.06-.943.144-1.171.447-.211.297.102.625.682.707.58.082 1.119-.124 1.164-.444.047-.33-.257-.65-.675-.71zM820.335 527.371c-4.615-.84-5.574-.857-7.459-.125-2.05.794-5.224.027-5.96-1.446-.338-.668-1.084-.814-3.363-.663-2.118.14-3.324-.058-4.333-.708-.793-.504-1.992-.822-2.746-.724-.986.128-1.454-.164-1.758-1.103-.342-1.077-.729-1.265-2.465-1.198-2.263.091-3.371-1.061-1.306-1.366 1.094-.165 1.146-.274.523-1.223-.535-.816-1.101-.969-2.589-.702-1.051.184-2.544.087-3.329-.22-1.579-.619-1.835-.189-.873 1.452.614 1.037.458 1.08-1.825.525-3.75-.911-7.163-2.321-9.144-3.775-2.386-1.746-9.647-2.883-9.839-1.537-.068.477-.403 1.071-.72 1.269-.352.223-.274.43.2.513.436.081 1.539.346 2.472.597.93.251 1.711.237 1.748-.026.072-.509 1.322-.21 3.173.759.503.262 1.122 1.07 1.316 1.708.482 1.596 1.262 1.692 2.964.367 1.32-1.036 1.463-1.032 2.86.065.805.63 3.428 1.615 5.773 2.164 2.447.573 4.602 1.429 5.01 1.992.563.774 1.058.89 2.29.537 1.065-.304 1.715-.229 2.01.225.618.94 3.757 1.432 4.323.676.298-.397.875-.186 1.68.606.679.673 2.4 1.487 3.853 1.828 1.454.344 3.677.849 4.974 1.134 1.516.334 3.096.221 4.459-.312 1.765-.694 2.036-.687 1.678.055-.336.708-.048.909 1.446.996 1.017.064 2.16.485 2.504.925.789 1.004 2.815.716 3.396-.479.25-.515.669-1.299.887-1.676.294-.486-.254-.822-1.83-1.11zM804.999 520.254c-.666-.244-1.574-.263-1.981-.04-.48.257-.021.515 1.245.695 2.263.324 2.594.029.736-.655zM862.122 115.167c-.426-.061-.977.15-1.191.44-.21.295-.035.605.389.666.419.059.977-.147 1.191-.441.217-.29.033-.605-.389-.665zM857.675 120.36c-.561.139-.899.431-.768.65.133.226.576.112 1.004-.253.597-.502.546-.59-.236-.397zM857.625 116.361c-.478-.068-.85.134-.9.482-.051.357.111.625.414.669.303.043.66-.151.903-.482.231-.322.057-.602-.417-.669zM854.919 120.238c-.474-.068-.853.137-.902.483-.052.361.116.628.42.671.303.044.66-.149.902-.483.231-.319.052-.604-.42-.671zM794.685 528.145c-.635-.054-.775.062-.369.314.351.214.813.252 1.012.08.194-.163-.11-.353-.643-.394zM851.777 86.589c-1.603.308-1.742.42-1.446 1.24.178.48.603.526 1.358.135 1.521-.787 1.579-1.66.088-1.375zM780.887 504.171c-.58-.082-1.283-.496-1.562-.921-.384-.582-.751-.565-1.485.062-1.348 1.15-1.219 1.333 1.119 1.532 2.131.18 3.803-.406 1.928-.673z"/><path fill="#F7BF08" d="M775.286 521.057c-.475-.068-.722.153-.586.526.136.386.429.67.733.713.296.042.531-.166.582-.526.051-.346-.256-.646-.729-.713zM768.267 507.253c-.787-.112-1.487.068-1.533.394-.11.777.945.922 2.11.288.668-.36.532-.524-.577-.682zM823.359 120.63c-.317-.045-.459.194-.325.563.14.385.326.659.468.679.143.02.272-.208.323-.566.049-.343-.152-.632-.466-.676zM759.91 512.163c-.681-.54-1.381-.827-1.6-.653-.209.168.248.713.984 1.177.749.464 1.486.768 1.605.656.12-.123-.312-.638-.989-1.18zM808.357 141.999c-.56.139-.899.436-.766.658.13.219.573.111 1.002-.256.598-.508.543-.595-.236-.402zM815.315 84.74c-.422-.06-.843.25-.901.659-.062.435-1.32.972-2.863 1.216-2.644.426-3.562 1.39-2.401 2.511.332.312.699.262.88-.146.178-.371.919-.6 1.66-.494.771.11 1.975-.387 2.839-1.181 1.663-1.531 1.931-2.403.786-2.566zM798.715 139.073c-.334-.798-.435-.73-.597.41-.11.773.057 1.252.384 1.09.69-.332.69-.332.213-1.5zM794.579 140.926c-.472-.067-1.09.135-1.305.425-.533.708.164.796 1.333.173.769-.415.763-.485-.028-.598zM795.828 88.674c-.222-.032-.828.165-1.297.425-.769.422-.771.496.022.608.473.068 1.082-.127 1.299-.42.238-.331.227-.578-.024-.613zM725.503 428.189c-1.863-.145-1.98-.274-2.135-2.4-.138-1.909-.429-2.345-1.904-2.892-.965-.359-1.702-.867-1.662-1.149.042-.296-.248-.708-.692-.984-.591-.367-.73-.196-.614.738.113.905-.248 1.37-1.449 1.857-2.173.885-4.411.012-4.544-1.766-.187-2.522-4.372-6.256-7.814-6.981-2.766-.581-5.119-3.39-4.327-5.17.457-1.033.437-1.041-.453-.128-1.194 1.234-1.76 1.091-1.153-.286.257-.575.248-1.31-.013-1.557-.27-.248-.39-1.241-.262-2.141.254-1.792-.599-2.824-2.022-2.438-.447.121-.891-.09-1.049-.498-.313-.837-3.687-1.316-4.216-.599-.222.302-.146.591.168.635.937.134.418 1.252-.535 1.162-.814-.081-.816.006.021.562.639.428 1.312.407 1.923-.061.757-.585 1.094-.542 1.793.222.823.906.807.956-.458 1.158-1.209.19-1.25.269-.487.966.685.622.684.949.01 1.827-.643.839-1.432.987-3.596.679-1.633-.232-2.725-.651-2.672-1.02.047-.33-.41-.525-.966-.412-.758.154-1.078-.123-1.15-.987-.061-.729-.758-1.477-1.774-1.896-.918-.381-2.042-1.042-2.484-1.457-.852-.802-2.553-.559-2.687.384-.046.327.576.638 1.384.684.958.059 1.444.401 1.413.996-.024.518-.086 1.36-.146 1.958-.054.604.226 1.101.65 1.161.391.056.969.565 1.238 1.09.271.519.977 1.055 1.505 1.13.53.075.965.425.92.739-.045.319-.458.547-.877.487-.95-.135-1.661.749-1.32 1.643.161.429.612.479 1.356.159.865-.373 1.376-.195 2.254.778.607.669 1.102 1.625 1.058 2.04-.048.42.171.649.464.493.3-.153 1.186.2 1.911.762.728.557 1.693.963 2.081.87 1.146-.278.642.782-.696 1.46-.981.503-1.117.803-.706 1.576.413.773.201 1.035-1.08 1.369-1.507.394-1.539.459-.629 1.225.522.444 1.049 1.01 1.169 1.261.393.85 2.907 1.666 3.333 1.084.251-.341.934-.129 1.804.562.771.615 1.848 1.177 2.403 1.256.55.078 1.348.741 1.777 1.475.654 1.112 1.288 1.355 3.902 1.498 1.761.096 3.09.417 3.044.737-.046.324.308.651.83.761.609.126.349.384-.78.774l-1.699.581 1.66.267c.996.159 1.726.663 1.836 1.267.223 1.191-.33 2.028-1.237 1.899-.384-.054-1.194.378-1.803.962-1.177 1.112-3.386 1.119-3.808.006-.14-.367.475-.805 1.419-1.018.946-.211 1.853-.874 2.1-1.53.418-1.124.378-1.127-1.6-.112-2.485 1.277-5.036.62-8.554-2.208-2.249-1.805-2.783-1.984-6.157-2.073-2.953-.079-3.6.075-3.23.759.249.453.964.782 1.512.699 1.428-.216 3.766.853 3.29 1.508-.225.299-1.121.451-1.963.331-.842-.119-2.056.034-2.655.338-1.418.718-2.612-.113-2.966-2.053-.214-1.198-.771-1.726-2.364-2.255-1.129-.376-2.174-.944-2.297-1.242-.128-.329-.428-.579-.746-.624-.31-.045-.437.183-.295.569.134.361-.331.813-1.064 1.038-1.097.337-.971.444.868.732 1.314.206 2.148.632 2.13 1.093-.015.431-.081 1.544-.151 2.572-.104 1.57.074 1.834 1.328 1.988.85.102 1.41.514 1.343.981-.09.631.257.654 1.57.102.917-.383 2.115-.617 2.628-.511.605.126.38.334-.621.583-1.175.29-1.524.682-1.408 1.569.086.619-.09 1.144-.373 1.104-.282-.04-.442.363-.358.863.17.934.582.971 3.365.308.623-.148.532.092-.347.944-.772.743-.957 1.176-.525 1.237.365.052 1.263.752 2.006 1.563l1.351 1.475 2.218-1.426c1.245-.793 3.113-1.776 4.248-2.231 1.821-.729 2.156-.698 3.422.306 1.348 1.076 1.449 1.064 2.846-.327 1.704-1.704 2.395-1.001.896.92-1.024 1.318-1.027 1.378-.041 1.518.58.083 1.206-.093 1.431-.404.224-.307 1.035-.463 1.826-.351 1.049.149 2.127-.49 4.136-2.46 1.576-1.543 3.162-2.597 3.772-2.51.737.104.998-.153.879-.852-.226-1.27 2.008-3.154 5.314-4.486 2.623-1.056 3.42-1.767 3.224-2.898-.064-.403.911-1.22 2.12-1.77 2.819-1.283 2.963-1.945.465-2.137zm-24.095-6.404c-.59-.558.382-1.934 1.549-2.177 1.882-.397 2.192.696.462 1.64-.872.478-1.806.73-2.011.537zm-2.064 19.426c-.459.411-1.342.537-1.893.278-.558-.259-1.397-.237-1.809.048-.476.327-.74.303-.688-.064.156-1.093 1.633-1.653 4.261-1.616 1.498.022 2.307.162 1.838.316-.45.149-1.249.633-1.709 1.038zm-3.51-25.374c-.8-.095-1.623-.596-1.909-1.156-.413-.807-.295-.954.657-.819.685.097 1.103-.154 1.025-.617-.079-.467-.952-.874-2.168-1.009l-2.04-.229 1.64-1.109c1.069-.724 2.088-.938 2.936-.616 1.172.441 1.283.34 1.138-.999-.127-1.115-.046-1.309.325-.78.713 1.026.732 3.617.027 3.972-.31.155-.386.616-.188 1.131.262.688.496.619 1.12-.328.658-1.005.888-1.061 1.392-.349.502.702.336 1.037-.98 1.963-.894.628-2.186 1.041-2.975.945zm-3.645 22.37c-.604.118-1.139.482-1.186.813-.113.796-2.298.099-2.427-.774-.111-.774 3.828-2.284 4.444-1.705.715.672.333 1.44-.831 1.666zm-.024 3.966c-.316-.045-.512-.185-.49-.345.024-.164.271-.382.618-.555.327-.16.544-.014.493.343-.052.365-.323.599-.621.557zm-2.1 1.531c-.418-.06-.775-.225-.757-.353.018-.127.428-.338.872-.454.441-.115.801.048.757.352-.042.302-.456.514-.872.455zm-1.99-6.99c-.297-.042-.464-.311-.413-.67.049-.347.428-.549.9-.482.475.067.65.349.415.669-.236.333-.604.525-.902.483zm-2.676 3.886c-.58-.082-1.02-.391-.978-.686.042-.298.532-.337 1.089-.09.553.246.994.555.975.686-.018.132-.509.172-1.086.09zM709.059 493.35c-.323-.046-.459.193-.326.562.14.385.328.657.47.677.141.02.27-.207.321-.565.049-.343-.151-.629-.465-.674z"/><path fill="#F7BF08" d="M704.384 433.37c-.463-.69-3.202-.95-3.656-.343-.247.333-.04.446.522.286.505-.144 1.065.102 1.239.541.211.538.631.67 1.261.393.516-.224.804-.622.634-.877zM739.621 176.736c-.282-.272-.706-.078-.969.439-.645 1.245-.212 1.711.723.771.53-.535.598-.884.246-1.21zM700.287 446.302c-.198-.055-.785-.117-1.321-.145-.536-.025-1.238-.383-1.579-.803-.413-.505-.752-.574-1.02-.206-.243.332-.211.724.074.987.283.259.498.252.536-.016.035-.245.349.202.686.982.731 1.689 1.854 2.012 2.504.723.604-1.198.62-1.385.12-1.522zM735.341 181.58c-.548.474-.843 1.031-.682 1.272.159.237.584.054.917-.387.959-1.265.815-1.798-.235-.885zM733.752 176.171c-.298-.042-.994.408-1.624 1.048-.608.618-1.708 1.74-2.447 2.487-1.118 1.127-1.246 1.523-.757 2.273.309.47.696.921.81.937.115.017.952-1.204 1.901-2.776.943-1.573 1.862-2.79 2.085-2.759.237.034.424-.179.476-.542.052-.353-.12-.622-.444-.668zM693.344 454.322c-.445-.274-.958-.422-1.087-.313-.46.387.211 2.272.769 2.152.997-.22 1.189-1.306.318-1.839zM728.648 184.105c-.481.382-.791.753-.72.873.249.387 1.403-.348 1.488-.946.049-.34-.286-.312-.768.073zM726.898 181.293c-.116-.016-.569.345-.97.778-.617.655-.6.826.085.923.472.067.897-.269.969-.773.069-.48.031-.912-.084-.928zM725.149 183.792c-.308.147-.644.698-.712 1.178-.068.475.149.758.458.613.303-.154.634-.704.702-1.185.068-.473-.144-.758-.448-.606zM693.764 397.655c-1.755-.901-5.767-1.808-5.836-1.323-.128.899 2.452 2.419 3.127 1.849.329-.282 1.277-.268 2.039.027 1.579.607 2.105.177.67-.553zM687.969 426.669c-.818-.634-1.399-1.445-1.275-1.798.127-.345-.574-1.073-1.519-1.587-1.206-.651-1.739-1.378-1.72-2.316.022-.729.292-1.331.586-1.29.296.042.613-.338.681-.817.067-.471-.345-.965-.871-1.04-.529-.075-1.36.243-1.761.666-.43.455-1.131.753-1.603.686-.586-.083-.495.247.304 1.079.61.638 1.278 1.505 1.422 1.851.418.972-.214 1.561-1.108 1.032-.422-.251-1.251-.052-1.92.455-.966.739-1.291.747-1.833.045-.36-.47-.564-1.142-.447-1.496.28-.838-2.16-1.912-3.043-1.343-.538.341-.738.265-.664-.253.078-.546-.594-.75-2.532-.754-1.933-.007-2.775-.275-3.165-1.001-.998-1.877-3.185-1.124-2.997 1.037.13 1.543.985 1.972 1.181.594.076-.537.322-.78.562-.56.236.218.231.918-.005 1.555-.332.887-.148 1.217.79 1.423.679.146 1.456.365 1.735.488.26.121.923.314 1.392.412.468.101 1.238.725 1.637 1.329.502.772 1.619 1.28 3.407 1.554 2.213.341 2.725.644 3.055 1.805.373 1.333.426 1.348 1.189.322.459-.615.872-1.614.974-2.329l.179-1.257 1.543 1.443c1.154 1.073 2.214 1.464 4.19 1.539 1.442.056 2.756.006 2.895-.106.135-.116-.432-.731-1.259-1.368zm-13.973-2.682c-.505.145-.682.018-.44-.313.242-.331.59-.526.876-.485.747.106.517.529-.436.798zm-1.735-.831c-.274-.241-.306-.611-.085-.928.221-.315.554-.367.823-.128.275.242.311.612.082.928-.22.317-.549.364-.82.128zM721.062 192.049c-.416-.06-.976.144-1.184.443-.217.291-.035.605.389.665.419.06.977-.149 1.191-.441.211-.298.029-.607-.396-.667zM688.662 403.692c-.399.106-.741.285-.755.381-.013.095.244.512.572.905.445.547.629.455.749-.383.093-.658-.137-1.022-.566-.903zM687.404 397.782c-.523-.308-1.286-1.157-1.707-1.888-.734-1.284-1.702-1.277-1.23.008.354.966 3.09 3.111 3.512 2.755.189-.168-.082-.582-.575-.875zM711.003 221.224c-.482.382-.792.757-.72.873.241.386 1.403-.348 1.488-.946.048-.342-.286-.314-.768.073z"/><path fill="#F7BF08" d="M681.546 413.654c-1.414-1.051-3.466-2.323-4.649-2.874-2.069-.969-2.843-2.277-1.215-2.046.475.068.734-.175.594-.555-.187-.489-.464-.528-1.003-.143-.418.298-.868.354-1.011.13-.152-.228-.313.169-.373.89-.071.883.306 1.46 1.175 1.802 1.674.662 3.67 2.108 4.046 2.935.336.753-1.781 1.535-3.127 1.153-.792-.228-.854-.072-.445 1.024.27.706.703 1.18.958 1.048.261-.132.548.203.658.765.253 1.327 1.087 1.253 1.047-.095-.021-.611.22-1.443.539-1.873.448-.62.755-.6 1.513.107 1.237 1.142 1.935 1.227 2.959.345.742-.633.519-.984-1.666-2.613zM679.33 437.907c-.319-.045-.564.165-.614.523-.052.361.125.626.444.672.313.044.558-.161.609-.522.052-.358-.127-.628-.439-.673zM681.881 399.18c-.126-.176-1.272-.318-2.513-.315-1.881.007-2.349.253-2.666 1.387-.21.761-.171 1.271.106 1.145.275-.132 1.537-.395 2.851-.593 2.145-.328 2.789-.8 2.222-1.624zM683.137 382.419c-.642-.05-.776.066-.375.314.35.214.818.254 1.011.083.196-.167-.108-.353-.636-.397zM675.449 428.881c-.636-.049-.769.063-.363.315.34.213.808.25 1.007.082.192-.165-.111-.354-.644-.397zM680.551 380.162c-1.003-.142-1.155-.011-.732.628.398.606.71.65 1.26.179.586-.495.475-.664-.528-.807zM677.704 385.244c-.58-.082-1.203.097-1.428.409-.222.302.202.635.944.741.737.105 1.381-.078 1.428-.404.047-.337-.363-.663-.944-.746zM676.265 383.821c-.318-.045-.559.166-.61.524-.051.359.124.626.44.671.32.045.563-.162.615-.521.05-.358-.125-.628-.445-.674zM672.053 402.123c-.316-.045-.561.15-.61.492-.048.338.112.741.398 1 .274.253.528.044.605-.492.076-.539-.09-.957-.393-1zM670.725 405.592c-.529-.075-.707-.437-.464-.92.303-.582-.137-.939-1.638-1.332-1.136-.296-2.07-.373-2.099-.173-.204 1.434 3.914 4.103 4.7 3.044.203-.272-.025-.551-.499-.619zM669.022 396.204c-.742-.106-1.81.278-2.434.872-.748.706-1.473.879-2.171.515-.903-.469-.973-.395-.507.508.473.903.382 1.125-.653 1.563-1.26.534-1.725 1.572-.778 1.706.318.045.472-.209.346-.557-.124-.353.168-.588.642-.521.49.07 1.937-.568 3.297-1.451 3.676-2.386 3.71-2.429 2.258-2.635zM669.737 380.578c-.737-.105-1.048-.016-.699.203.346.222.926.304 1.317.187.391-.115.117-.285-.618-.39zM677.097 328.459c-.364-.051-1.286 2.013-1.483 3.325-.096.608.058.618.734.043.855-.73 1.422-3.272.749-3.368zM669.3 384.049c-.319-.045-.69.147-.928.48-.244.33-.194.579.127.625.312.044.684-.145.92-.476.243-.332.196-.584-.119-.629zM665.985 393.943c-.475-.067-.853.135-.902.482-.052.359.116.625.414.667.296.042.664-.147.902-.48.232-.32.058-.602-.414-.669zM676.791 313.782c-.404-.057-.844.431-.929 1.031-.09.631-.438 2.007-.794 3.114-.867 2.712 0 1.83 1.367-1.39.976-2.3 1.017-2.661.356-2.755zM668.402 367.461c-.574-.082-1.119.124-1.165.446-.046.327.258.645.681.705.424.061.946-.14 1.164-.443.217-.298-.096-.625-.68-.708zM666.228 386.357c-.204-.194-.572.04-.799.494-.234.483-.76.632-1.204.347-.441-.285-.608-.856-.38-1.304.406-.795-.635-1.216-1.401-.564-.64.549.846 3.892 1.753 3.946.96.056 2.63-2.349 2.031-2.919zM663.72 394.414c-.737-1.69-2.099-2.137-2.296-.753-.075.524-.628 1.022-1.232 1.104-.602.084-1.127.379-1.166.658-.042.29.258.425.705.313.449-.109.896.111 1.049.515.344.916 1.32 1 2.562.223.908-.574.939-.762.378-2.06zM661.199 402.987c-.625.272-1.39.31-1.761.086-.784-.486-2.482 1.543-1.809 2.173.272.251.51.173.561-.188.049-.345.562-.56 1.147-.477.574.082 1.087-.12 1.134-.447.045-.319.457-.545.88-.485.419.06.829-.181.877-.516.059-.418-.283-.466-1.029-.146zM660.09 401.154c-.896-.128-1.197-.041-.703.202.507.248 1.183.344 1.58.225.401-.116.022-.3-.877-.427zM659.47 386.065c-.7-.407-.74-.329-.278.511.611 1.123.909 1.272 1.018.51.042-.293-.294-.755-.74-1.021zM658.251 388.771c-.636-.441-1.615-.651-2.245-.484-.91.245-.761.431.823 1.01 2.298.838 3.011.578 1.422-.526zM657.317 400.634c-.193-.027-.751.145-1.154.354-.631.325-.637.503-.047.878.399.252.912.325 1.106.157.508-.431.567-1.322.095-1.389zM658.891 374.797c-.013-1.071-.363-1.422-1.575-1.594-.848-.121-1.516-.48-1.472-.79.046-.322-.552-1.043-1.38-1.659-1.265-.946-1.476-.977-1.583-.226-.068.478.198 1.063.594 1.303.401.241.536.794.309 1.235-.292.567.014.853 1.072 1.004 1.421.202 1.427.236.315.959-1.007.654-1.065.842-.446 1.456 1.085 1.081 4.259 1.123 4.205.055a68.704 68.704 0 0 1-.039-1.743zM656.463 391.796c-.057-.618-.436-1.022-.852-.912-.403.106-.922-.315-1.113-.89-.324-.986-.478-.995-1.621-.122-1.509 1.149-1.432 1.357 1.01 2.745 2.778 1.586 2.778 1.586 2.576-.821zM658.849 366.408c-.349.169-.494.514-.369.862.339.926.664.824.816-.251.07-.476-.136-.762-.447-.611zM655.871 386.41c-.401-.057-1.127-.831-1.662-1.761-.526-.93-1.317-1.713-1.785-1.78-.528-.075-.689-.438-.428-.973.232-.48.292-1.542.13-2.422-.233-1.251-.657-1.617-2.138-1.828-.998-.142-1.879.012-1.925.338-.051.358.122.629.443.675.293.041.453.582.36 1.236-.094.658.02 1.34.261 1.562.241.225.471 1.163.526 2.15.078 1.374.505 1.949 1.957 2.66 2.318 1.131 4.089 1.417 4.597.741.193-.262.033-.546-.336-.598zM682.23 164.548c-.603.266-1.699 1.286-2.446 2.274-.762 1.01-2.299 2.559-3.521 3.556-1.516 1.243-2.131 2.144-2.076 3.057.11 1.721-1.179 3.052-3.711 3.823-1.518.457-2.081.92-1.952 1.589.11.53-.226 1.31-.765 1.78-1.222 1.066-.872 1.45.86.958 1.103-.302 1.395-.727 1.356-1.949-.037-1.389.138-1.536 1.616-1.326.891.126 1.563-.031 1.443-.348-.111-.305.178-.678.628-.793.485-.127.887-.604.963-1.141.074-.514.611-.858 1.191-.776.715.102 1.118-.272 1.25-1.162.312-2.088 2.778-6.008 4.154-6.606.748-.326 1.19-.908 1.09-1.43-.094-.497.048-.847.329-.807.286.041.543-.199.594-.555.063-.43-.254-.475-1.003-.144zM635.837 335.394c-.318-.045-.565.165-.616.523-.051.359.128.629.446.675.318.045.562-.165.613-.525.051-.358-.126-.628-.443-.673zM636.114 328.12c-.109-.016-.402.369-.627.825-.224.455-.182.887.085.925.266.037.557-.347.625-.824.069-.479.032-.91-.083-.926z"/></svg>