<svg width="1440" height="400" viewBox="0 0 1440 400" fill="none" xmlns="http://www.w3.org/2000/svg">
<rect width="1440" height="400" fill="white"/>
<rect width="1440" height="400" fill="#BBD9D3"/>
<g clip-path="url(#clip0)">
<path d="M95.3357 398.5C94.339 397.303 94.339 397 95.3357 397C96.3324 397 96.3324 396.697 95.3357 395.5C94.6486 394.675 94.408 394 94.8011 394C95.9375 394 99.2133 398.411 98.6961 399.245C97.9669 400.421 96.7018 400.14 95.3357 398.5ZM568.69 399.354C567.381 398.05 568.006 397 570.09 397C571.258 397 572.006 397.524 571.784 398.187C571.295 399.649 569.619 400.281 568.69 399.354ZM921.243 397.5C921.243 394.552 922.764 394.225 924.183 396.868C925.269 398.889 924.701 400 922.581 400C921.823 400 921.243 398.917 921.243 397.5ZM318.568 397.913C318.197 397.315 318.287 396.434 318.768 395.954C319.955 394.772 322.567 396.493 321.702 397.888C320.825 399.302 319.436 399.312 318.568 397.913ZM837.505 396.777C834.561 392.589 835.965 391 842.614 391C848.358 391 851.759 393.855 850.355 397.5C849.942 398.574 848.257 399 844.423 399C840.026 399 838.788 398.602 837.505 396.777ZM857.017 395.783C857.017 394.041 856.669 393.445 854.953 392.248C853.312 391.102 853.287 390.74 854.66 387.998C856.473 384.376 860.892 383.754 861.744 387C862.033 388.1 862.845 389 863.55 389C864.254 389 865.091 389.675 865.408 390.5C865.804 391.528 865.348 392 863.959 392C862.107 392 862.167 392.218 864.646 394.507L867.36 397.013L862.189 396.789C859.344 396.666 857.017 396.213 857.017 395.783ZM164.664 394.684C162.025 392.055 164.781 390.964 168.048 393.345C169.82 394.636 169.811 394.711 167.823 395.229C166.684 395.526 165.263 395.281 164.664 394.684ZM883.611 395C883.952 394.45 885.333 394 886.681 394C888.028 394 889.13 394.45 889.13 395C889.13 395.55 887.749 396 886.06 396C884.269 396 883.249 395.583 883.611 395ZM705.149 389.333C702.558 386.752 706.909 380.364 710.487 381.496C712.415 382.105 712.494 382.364 711.195 383.841C710.392 384.753 709.426 386.513 709.047 387.75C708.379 389.933 706.512 390.692 705.149 389.333ZM1214.09 389.316C1214.81 389.027 1215.68 389.063 1216.01 389.395C1216.34 389.727 1215.75 389.964 1214.69 389.92C1213.52 389.872 1213.29 389.636 1214.09 389.316ZM1220.3 388.499C1220.3 387.674 1221.15 386.999 1222.2 386.999C1223.24 386.999 1224.36 387.674 1224.67 388.499C1225.09 389.583 1224.56 389.999 1222.77 389.999C1221.24 389.999 1220.3 389.428 1220.3 388.499ZM152.822 385.18C148.952 383.165 147.916 381.159 150.296 380.287C151.253 379.936 152.995 378.641 154.167 377.409C157.635 373.764 160.287 373.956 162.327 378L164.092 381.5L160.685 384.25C156.763 387.416 157.053 387.382 152.822 385.18ZM629.175 384.169C627.428 382.759 627.058 381.73 627.57 379.698C628.878 374.508 635.161 373.826 635.32 378.857C635.366 380.311 635.516 382.512 635.654 383.75C635.972 386.611 632.481 386.836 629.175 384.169ZM198.449 379.582C195.918 377.705 196.289 375.31 199.195 374.757C202.88 374.055 204.614 376.56 202.129 378.997C200.504 380.591 199.932 380.682 198.449 379.582ZM136.512 373.25C136.529 372.837 137.631 371.712 138.961 370.749C141.743 368.733 143.306 370.056 140.934 372.419C139.301 374.047 136.456 374.581 136.512 373.25ZM1107.52 365.444C1106.62 363.121 1106.69 363 1108.9 363C1111.24 363 1111.51 364.263 1109.52 365.903C1108.45 366.792 1107.99 366.688 1107.52 365.444ZM1055.47 363.582C1052.94 361.705 1053.31 359.31 1056.21 358.757C1059.9 358.055 1061.63 360.56 1059.15 362.997C1057.52 364.591 1056.95 364.682 1055.47 363.582ZM1434.3 362.5C1434.3 360.535 1434.81 360 1436.68 360C1437.99 360 1439.07 360.45 1439.07 361C1439.07 361.55 1438.61 362 1438.06 362C1437.51 362 1437.06 362.675 1437.06 363.5C1437.06 364.325 1436.44 365 1435.68 365C1434.88 365 1434.3 363.955 1434.3 362.5ZM1192.01 361.317C1192.73 361.028 1193.6 361.064 1193.93 361.396C1194.27 361.728 1193.67 361.964 1192.62 361.921C1191.45 361.873 1191.21 361.636 1192.01 361.317ZM692.939 360C693.281 359.45 693.759 359 694.002 359C694.246 359 694.445 359.45 694.445 360C694.445 360.55 693.967 361 693.382 361C692.798 361 692.598 360.55 692.939 360ZM442.21 359.066C440.514 358.462 440.495 358.291 441.983 357.06C443.808 355.551 444.915 356.111 444.403 358.285C444.183 359.22 443.411 359.494 442.21 359.066ZM1185.67 359C1186.02 358.45 1187.4 358 1188.74 358C1190.09 358 1191.19 358.45 1191.19 359C1191.19 359.55 1189.81 360 1188.12 360C1186.33 360 1185.31 359.583 1185.67 359ZM53.0463 356.369C49.0603 355.151 48.3259 354.515 47.9488 351.954C47.703 350.284 48.0543 348.51 48.744 347.94C49.4237 347.378 50.2845 345.708 50.6569 344.23C51.3861 341.334 56.721 336 58.8875 336C61.0707 336 64.2262 339.827 64.2262 342.474C64.2262 344.189 65.1131 345.406 67.1151 346.437C68.7041 347.256 70.2452 348.552 70.5398 349.317C71.2633 351.196 65.611 356 62.6769 356C61.3864 356 60.0514 356.45 59.7103 357C58.9753 358.185 58.9966 358.187 53.0463 356.369ZM210.993 355.5C210.993 353.535 211.503 353 213.376 353C214.687 353 215.76 353.45 215.76 354C215.76 354.55 215.308 355 214.756 355C214.204 355 213.753 355.675 213.753 356.5C213.753 357.325 213.132 358 212.373 358C211.57 358 210.993 356.955 210.993 355.5ZM196.039 353.949C195.459 353.371 194.014 352.825 192.828 352.736C190.113 352.533 190.018 350.983 192.678 350.29C193.782 350.002 194.685 349.369 194.685 348.883C194.685 348.398 195.557 348 196.621 348C198.198 348 198.524 348.648 198.377 351.496C198.188 355.192 197.749 355.652 196.039 353.949ZM352.491 352.338C350.531 351.55 350.965 348 353.021 348C354.583 348 358.261 351.166 358.261 352.511C358.261 353.13 354.154 353.007 352.491 352.338ZM1062.54 351.8C1063.48 350.867 1064.01 350.867 1064.95 351.8C1065.89 352.733 1065.62 353 1063.75 353C1061.87 353 1061.6 352.733 1062.54 351.8ZM165.668 350.684C163.029 348.055 165.785 346.964 169.052 349.345C170.824 350.636 170.815 350.711 168.827 351.229C167.688 351.526 166.266 351.281 165.668 350.684ZM319.913 350.954C318.293 350 318.295 349.76 319.962 346.788C322.115 342.947 323.14 342.532 325.687 344.468C327.045 345.499 327.301 346.2 326.515 346.731C325.889 347.154 325.207 348.395 324.998 349.489C324.561 351.785 322.389 352.411 319.913 350.954ZM228.806 348C228.806 347.45 229.257 347 229.809 347C230.361 347 230.813 347.45 230.813 348C230.813 348.55 230.361 349 229.809 349C229.257 349 228.806 348.55 228.806 348ZM1006.81 347.525C1001.93 345.38 1003.23 341.336 1008.44 342.476C1012.38 343.338 1012.77 344.036 1010.72 346.509C1009.39 348.101 1008.6 348.308 1006.81 347.525ZM845.996 340.037C844.071 335.942 843.887 334.806 844.944 333.537C847.465 330.51 851.891 332.917 851.968 337.357C851.988 338.591 852.505 339.021 853.505 338.638C854.333 338.322 855.01 338.499 855.01 339.031C855.01 339.564 854.559 340 854.007 340C853.455 340 853.003 340.513 853.003 341.14C853.003 342.224 850.141 344.901 848.91 344.968C848.59 344.985 847.279 342.767 845.996 340.037ZM153.826 341.18C149.956 339.165 148.92 337.159 151.3 336.287C152.256 335.936 153.998 334.641 155.171 333.409C158.639 329.764 161.291 329.956 163.33 334L165.095 337.5L161.689 340.25C157.767 343.416 158.057 343.382 153.826 341.18ZM482.699 341C482.699 340.45 483.151 340 483.703 340C484.255 340 484.706 340.45 484.706 341C484.706 341.55 484.255 342 483.703 342C483.151 342 482.699 341.55 482.699 341ZM1022.68 334.684C1020.05 332.055 1022.8 330.964 1026.07 333.345C1027.84 334.636 1027.83 334.711 1025.84 335.229C1024.7 335.526 1023.28 335.281 1022.68 334.684ZM297.715 332.333C295.124 329.752 299.475 323.364 303.053 324.496C304.981 325.105 305.059 325.364 303.761 326.841C302.958 327.753 301.991 329.513 301.613 330.75C300.945 332.933 299.078 333.692 297.715 332.333ZM888.008 332.25C887.942 331.837 887.927 331.208 887.974 330.85C888.021 330.493 887.023 329.941 885.756 329.624C882.313 328.763 880.616 324.387 882.572 321.412C883.419 320.124 884.112 318.184 884.112 317.102C884.112 315.697 884.904 315.042 886.872 314.816C889.227 314.547 889.89 315.067 891.388 318.359C892.354 320.482 893.144 323.032 893.144 324.026C893.144 325.02 893.709 326.06 894.399 326.338C895.351 326.72 895.358 326.861 894.43 326.921C893.749 326.965 893.471 327.686 893.804 328.548C894.148 329.442 893.604 330.696 892.518 331.516C890.462 333.067 888.196 333.436 888.008 332.25ZM219.501 324.995C218.569 323.911 218.366 322.618 218.901 321.177C219.346 319.978 219.45 318.323 219.133 317.499C218.718 316.422 219.238 316 220.98 316C224.338 316 227.275 318.321 226.491 320.355C226.143 321.26 226.258 322 226.747 322C227.235 322 227.863 321.437 228.141 320.75C228.444 320.003 228.679 320.205 228.727 321.25C228.77 322.212 228.354 323 227.802 323C227.25 323 226.799 323.624 226.799 324.387C226.799 326.491 221.188 326.959 219.501 324.995ZM1010.84 325.18C1006.97 323.165 1005.94 321.159 1008.32 320.287C1009.27 319.936 1011.02 318.641 1012.19 317.409C1015.66 313.764 1018.31 313.956 1020.35 318L1022.11 321.5L1018.71 324.25C1014.78 327.416 1015.07 327.382 1010.84 325.18ZM606.923 322.954C605.303 322 605.306 321.76 606.972 318.788C609.125 314.947 610.15 314.531 612.698 316.467C614.055 317.499 614.311 318.2 613.526 318.731C612.9 319.154 612.217 320.395 612.009 321.488C611.572 323.785 609.399 324.411 606.923 322.954ZM652.296 322C652.296 321.45 652.721 321 653.241 321C653.76 321 654.464 321.45 654.805 322C655.146 322.55 654.721 323 653.861 323C653.001 323 652.296 322.55 652.296 322ZM710.233 317.595C708.565 316.334 708.601 316.16 710.835 314.702C713.144 313.194 713.213 313.233 713.294 316.075C713.387 319.313 712.855 319.578 710.233 317.595ZM1044.34 316.333C1043.16 315.151 1043.63 314.429 1045.68 314.275C1046.83 314.189 1047.69 314.741 1047.69 315.562C1047.69 317.035 1045.54 317.529 1044.34 316.333ZM1337.51 312.8C1338.45 311.867 1338.98 311.867 1339.92 312.8C1340.85 313.733 1340.59 314 1338.71 314C1336.84 314 1336.57 313.733 1337.51 312.8ZM1022.15 309.085C1021.83 308.564 1021.99 307.875 1022.51 307.553C1023.04 307.231 1023.73 307.393 1024.05 307.915C1024.38 308.436 1024.21 309.125 1023.69 309.447C1023.17 309.769 1022.47 309.607 1022.15 309.085ZM331.731 308.102C331.397 307.564 331.924 306.659 332.901 306.092C334.518 305.154 334.525 305.058 332.981 305.03C330.865 304.992 329.975 303.649 330.744 301.653C331.47 299.768 335.668 301.006 335.708 303.117C335.722 303.878 336.107 305.092 336.561 305.816C337.53 307.358 337.39 307.536 334.512 308.416C333.316 308.782 332.065 308.641 331.731 308.102ZM695.487 306.811C693.292 304.463 692.781 302 694.489 302C695.065 302 695.404 301.264 695.241 300.364C695.073 299.428 695.701 298.609 696.708 298.451C697.676 298.3 698.214 298.586 697.903 299.088C697.592 299.59 697.928 300.069 698.651 300.152C699.373 300.236 700.455 300.356 701.056 300.419C701.656 300.481 702.843 301.225 703.693 302.073C705.452 303.826 704.513 305.613 700.71 307.75C697.834 309.367 697.885 309.376 695.487 306.811ZM1018.8 305.399C1018.09 304.63 1017.95 304 1018.49 304C1019.53 304 1021.04 305.902 1020.44 306.466C1020.25 306.649 1019.51 306.169 1018.8 305.399ZM584.725 304.333C582.134 301.752 586.485 295.364 590.063 296.496C591.991 297.105 592.07 297.364 590.771 298.841C589.968 299.753 589.002 301.512 588.623 302.75C587.955 304.933 586.088 305.692 584.725 304.333ZM74.5467 302.968C74.6659 302.513 73.8811 301.486 72.8028 300.685C70.8739 299.253 70.8727 299.162 72.7263 295.066C74.6129 290.897 76.8188 288.308 75.5955 291.698C75.2379 292.689 75.3258 293.155 75.7909 292.733C77.0408 291.6 79.3608 297.828 78.6863 300.506C78.367 301.774 77.2562 303.032 76.2179 303.303C75.1796 303.573 74.4276 303.423 74.5467 302.968ZM285.505 303C285.846 302.45 286.324 302 286.568 302C286.811 302 287.01 302.45 287.01 303C287.01 303.55 286.532 304 285.948 304C285.363 304 285.164 303.55 285.505 303ZM1082.53 298.389C1081.45 297.314 1081.66 292 1082.78 292C1084.66 292 1085.82 295.624 1084.5 297.418C1083.82 298.349 1082.93 298.787 1082.53 298.389ZM183.365 296.387C181.871 294.898 182.741 292.281 185.654 289.5C187.309 287.919 188.664 286.035 188.664 285.313C188.664 284.591 189.089 284 189.609 284C191.288 284 191.881 286.048 190.635 287.544C189.715 288.648 189.708 289 190.606 289C191.258 289 191.513 289.45 191.172 290C190.831 290.55 191.007 291 191.563 291C192.119 291 193.818 292.149 195.339 293.554L198.104 296.107L193.635 295.888C191.176 295.767 188.022 295.992 186.626 296.387C185.229 296.783 183.762 296.782 183.364 296.386L183.365 296.387ZM260.584 288.333C259.398 287.151 259.867 286.429 261.922 286.275C263.069 286.189 263.929 286.741 263.929 287.562C263.929 289.035 261.784 289.529 260.584 288.333ZM1036.24 288.147C1035.91 287.616 1035.9 286.493 1036.23 285.653C1036.96 283.762 1041.17 285.008 1041.17 287.115C1041.17 288.727 1037.12 289.575 1036.24 288.147ZM486.445 286.595C484.777 285.334 484.813 285.16 487.047 283.702C489.356 282.194 489.425 282.233 489.506 285.075C489.599 288.313 489.067 288.578 486.445 286.595ZM471.7 275.811C469.504 273.463 468.993 271 470.701 271C471.277 271 471.616 270.264 471.454 269.364C471.285 268.428 471.913 267.609 472.92 267.451C473.888 267.3 474.426 267.586 474.115 268.088C473.804 268.589 474.141 269.068 474.863 269.152C475.585 269.236 476.668 269.356 477.268 269.418C477.868 269.481 479.055 270.225 479.905 271.073C481.664 272.826 480.725 274.613 476.923 276.75C474.046 278.367 474.097 278.375 471.7 275.811ZM934.791 277C935.132 276.45 936.514 276 937.861 276C939.208 276 940.31 276.45 940.31 277C940.31 277.55 938.929 278 937.241 278C935.45 278 934.429 277.583 934.791 277ZM572.516 275C572.857 274.45 573.335 274 573.578 274C573.822 274 574.021 274.45 574.021 275C574.021 275.55 573.543 276 572.958 276C572.374 276 572.174 275.55 572.516 275ZM534.381 274C534.722 273.45 536.104 273 537.451 273C538.798 273 539.901 273.45 539.901 274C539.901 274.55 538.519 275 536.831 275C535.04 275 534.019 274.583 534.381 274ZM486.714 272C486.714 271.45 487.165 271 487.717 271C488.269 271 488.721 271.45 488.721 272C488.721 272.55 488.269 273 487.717 273C487.165 273 486.714 272.55 486.714 272ZM1425.53 271.983C1425.88 271.424 1426.58 271.226 1427.09 271.542C1428.49 272.399 1428.23 272.999 1426.46 272.999C1425.6 272.999 1425.18 272.542 1425.53 271.983ZM1423.01 269.968C1423.01 268.679 1425.87 267.515 1426.79 268.43C1427.16 268.803 1426.8 269.527 1425.99 270.038C1424.05 271.263 1423.01 271.238 1423.01 269.968ZM28.6571 260.09C27.7188 258.577 32.0741 256.561 33.4084 257.89C34.6708 259.148 34.3843 259.517 31.4449 260.416C30.2495 260.781 28.995 260.635 28.6571 260.09ZM547.595 260.333C546.408 259.151 546.877 258.429 548.933 258.274C550.079 258.188 550.94 258.74 550.94 259.562C550.94 261.034 548.795 261.529 547.595 260.333ZM931.01 259.594C929.342 258.333 929.378 258.16 931.612 256.701C933.921 255.194 933.99 255.232 934.072 258.075C934.164 261.313 933.632 261.577 931.01 259.594ZM1286.53 259.999C1286.53 259.449 1286.95 258.999 1287.47 258.999C1287.99 258.999 1288.7 259.449 1289.04 259.999C1289.38 260.549 1288.95 260.999 1288.09 260.999C1287.23 260.999 1286.53 260.549 1286.53 259.999ZM1223.56 256.499C1223.56 254.535 1224.07 253.999 1225.94 253.999C1227.25 253.999 1228.32 254.449 1228.32 254.999C1228.32 255.549 1227.87 255.999 1227.32 255.999C1226.77 255.999 1226.32 256.674 1226.32 257.499C1226.32 258.324 1225.7 258.999 1224.94 258.999C1224.13 258.999 1223.56 257.954 1223.56 256.499ZM860.817 256.953C859.197 255.999 859.2 255.759 860.866 252.787C863.019 248.946 864.044 248.531 866.591 250.467C867.949 251.499 868.205 252.2 867.42 252.73C866.794 253.153 866.111 254.394 865.903 255.488C865.465 257.785 863.293 258.411 860.817 256.953ZM727.462 255.718C725.799 254.455 723.977 245.734 725.024 244.046C725.829 242.748 728.565 243.889 728.565 245.523C728.565 246.243 728 247.053 727.311 247.323C726.621 247.592 727.513 248.134 729.293 248.526C731.9 249.101 732.451 249.654 732.127 251.369C731.906 252.541 731.691 253.837 731.65 254.249C731.609 254.662 730.785 255.006 729.819 255.015C728.319 255.029 728.282 255.171 729.569 255.999C730.396 256.533 730.622 256.961 730.07 256.952C729.518 256.944 728.345 256.388 727.462 255.718ZM30.6078 254.999C30.9489 254.449 31.4272 253.999 31.6706 253.999C31.9141 253.999 32.1131 254.449 32.1131 254.999C32.1131 255.549 31.6349 255.999 31.0503 255.999C30.4658 255.999 30.2667 255.549 30.6078 254.999ZM916.265 248.811C914.069 246.463 913.558 244 915.266 244C915.842 244 916.181 243.264 916.019 242.364C915.85 241.428 916.478 240.609 917.485 240.451C918.453 240.3 918.991 240.586 918.68 241.088C918.369 241.589 918.706 242.069 919.428 242.152C920.15 242.236 921.233 242.356 921.833 242.418C922.433 242.481 923.62 243.225 924.47 244.072C926.229 245.826 925.29 247.613 921.488 249.75C918.611 251.366 918.662 251.376 916.265 248.811ZM243.464 246.418C242.666 244.346 242.586 244.615 244.729 242.153C245.797 240.926 247.787 240 249.356 240H252.109L249.74 242.064C248.127 243.47 247.768 244.293 248.616 244.645C249.573 245.041 249.532 245.49 248.437 246.58C246.552 248.459 244.221 248.383 243.464 246.418ZM1114.51 245.75C1114.65 244.513 1114.8 243.332 1114.84 243.128C1114.89 242.923 1115.6 243.315 1116.43 244C1118.51 245.719 1118.32 248 1116.1 248C1114.78 248 1114.33 247.356 1114.51 245.75ZM19.058 243.489C18.3759 242.67 17.0183 242 16.0411 242C13.7961 242 12.6478 239.183 14.1551 237.373C15.0173 236.338 14.9826 235.62 14.0142 234.458C12.6115 232.773 13.8787 230.593 15.5632 231.792C17.2534 232.995 22.0679 243.888 21.1573 244.449C20.6847 244.74 19.7401 244.308 19.058 243.489ZM895.82 243.333C894.634 242.151 895.103 241.429 897.159 241.275C898.305 241.189 899.166 241.741 899.166 242.562C899.166 244.035 897.021 244.529 895.82 243.333ZM838.619 238.333C836.028 235.752 840.379 229.364 843.957 230.496C845.885 231.105 845.964 231.365 844.665 232.841C843.862 233.753 842.895 235.513 842.517 236.75C841.849 238.933 839.982 239.692 838.619 238.333ZM145.011 237.263C143.907 236.986 141.947 236.359 140.655 235.87L138.306 234.981L141.922 231.378C144.699 228.611 145.846 228.031 146.871 228.879C147.605 229.486 148.527 229.663 148.919 229.272C149.312 228.881 149.335 229.335 148.97 230.281C148.473 231.571 148.836 232 150.423 232C151.586 232 152.537 232.436 152.537 232.969C152.537 233.501 151.781 233.648 150.858 233.295C149.623 232.823 149.336 233.064 149.776 234.205C150.33 235.644 148.828 238.148 147.57 237.884C147.266 237.82 146.114 237.541 145.011 237.263ZM1115.65 237.389C1114.57 236.314 1114.77 231 1115.89 231C1117.78 231 1118.93 234.624 1117.62 236.418C1116.93 237.349 1116.05 237.787 1115.65 237.389ZM1436.06 225.5C1435.37 224.675 1433.99 224 1432.99 224C1431.99 224 1430.89 223.1 1430.54 222C1430.19 220.9 1429.08 220 1428.08 220C1427.08 220 1425.7 219.317 1425 218.481C1423.97 217.24 1424.05 216.612 1425.48 215.044C1426.44 213.989 1426.94 212.679 1426.6 212.132C1425.51 210.365 1427.74 209.972 1430.57 211.435C1432.96 212.669 1433.52 212.668 1434.76 211.429C1436.61 209.592 1437.06 209.629 1438.67 211.75C1440.5 214.152 1440.42 218.927 1438.54 219.647C1437.4 220.084 1437.17 221.086 1437.65 223.616C1438.35 227.325 1437.96 227.785 1436.06 225.5ZM1350.33 221.429C1348.23 219.342 1348.31 219.194 1351.26 219.755C1352.64 220.018 1353.77 220.856 1353.77 221.617C1353.77 223.451 1352.27 223.369 1350.33 221.429ZM594.665 219.429C592.571 217.342 592.653 217.194 595.597 217.755C596.977 218.018 598.106 218.856 598.106 219.617C598.106 221.451 596.613 221.37 594.665 219.429ZM1323.62 219.169C1321.87 217.759 1321.5 216.73 1322.02 214.697C1323.32 209.508 1329.61 208.826 1329.76 213.857C1329.81 215.311 1329.96 217.512 1330.1 218.75C1330.42 221.61 1326.93 221.836 1323.62 219.169ZM243.106 216.338C241.146 215.55 241.58 212 243.636 212C245.198 212 248.876 215.167 248.876 216.512C248.876 217.13 244.769 217.007 243.106 216.338ZM1345.29 210.091C1344.35 208.578 1348.71 206.561 1350.04 207.891C1351.31 209.149 1351.02 209.517 1348.08 210.416C1346.88 210.782 1345.63 210.636 1345.29 210.091ZM345.647 201.857C341.231 192.83 341.497 192.042 348.979 192.015C354.707 191.996 356.905 194.25 356.82 200.064C356.768 203.672 356.334 204.684 354.498 205.487C353.256 206.03 352.24 206.994 352.24 207.63C352.24 208.266 351.633 209.018 350.891 209.302C349.99 209.647 348.251 207.178 345.647 201.857ZM826.409 209C826.751 208.45 827.229 208 827.472 208C827.716 208 827.915 208.45 827.915 209C827.915 209.55 827.436 210 826.852 210C826.267 210 826.068 209.55 826.409 209ZM168.594 205.985C167.256 205.109 167.256 204.891 168.594 204.015C171.05 202.408 173.919 202.76 173.217 204.582C172.882 205.452 172.608 206.352 172.608 206.582C172.608 207.351 170.116 206.981 168.594 205.985ZM525.517 206.333C524.33 205.151 524.8 204.429 526.855 204.275C528.001 204.189 528.862 204.741 528.862 205.562C528.862 207.035 526.717 207.529 525.517 206.333ZM1347.24 205C1347.58 204.45 1348.06 204 1348.31 204C1348.55 204 1348.75 204.45 1348.75 205C1348.75 205.55 1348.27 206 1347.69 206C1347.1 206 1346.9 205.55 1347.24 205ZM1187.73 199.085C1187.41 198.565 1187.57 197.875 1188.1 197.553C1188.62 197.231 1189.31 197.394 1189.64 197.915C1189.96 198.436 1189.8 199.125 1189.27 199.447C1188.75 199.769 1188.06 199.607 1187.73 199.085ZM227.454 198.066C225.758 197.462 225.739 197.291 227.227 196.06C229.052 194.551 230.159 195.111 229.647 197.285C229.427 198.22 228.655 198.495 227.454 198.066ZM739.855 196.5C739.855 194.535 740.365 194 742.238 194C743.549 194 744.621 194.45 744.621 195C744.621 195.55 744.17 196 743.618 196C743.066 196 742.614 196.675 742.614 197.5C742.614 198.325 741.994 199 741.235 199C740.432 199 739.855 197.955 739.855 196.5ZM1184.38 195.399C1183.67 194.63 1183.53 194 1184.07 194C1185.11 194 1186.62 195.902 1186.03 196.466C1185.83 196.649 1185.09 196.169 1184.38 195.399ZM1335.69 193.489C1335.01 192.67 1333.65 192 1332.68 192C1330.43 192 1329.28 189.183 1330.79 187.373C1331.65 186.338 1331.62 185.62 1330.65 184.458C1329.25 182.774 1330.51 180.593 1332.2 181.792C1333.89 182.995 1338.7 193.888 1337.79 194.449C1337.32 194.74 1336.38 194.308 1335.69 193.489ZM1403.44 184.266C1399.02 183.422 1398.34 182.977 1399.96 181.962C1401.87 180.758 1406.24 180.721 1405.5 181.915C1405.19 182.418 1405.48 183.01 1406.14 183.232C1407.98 183.842 1405.73 184.702 1403.44 184.266ZM445.6 177.25C445.617 176.838 446.719 175.712 448.049 174.749C450.831 172.733 452.394 174.056 450.022 176.419C448.389 178.047 445.544 178.581 445.6 177.25ZM725.805 167.5C725.805 165.535 726.315 165 728.189 165C729.5 165 730.572 165.45 730.572 166C730.572 166.55 730.12 167 729.569 167C729.017 167 728.565 167.675 728.565 168.5C728.565 169.325 727.944 170 727.185 170C726.382 170 725.805 168.955 725.805 167.5ZM218.96 164.6C219.099 160.914 219.611 160.582 223.537 161.63C226.071 162.307 226.609 164 224.29 164C223.462 164 222.784 164.75 222.784 165.667C222.784 166.583 222.487 167.037 222.124 166.675C221.761 166.313 220.87 166.509 220.144 167.109C219.091 167.979 218.851 167.471 218.96 164.6ZM473.238 166.429C471.143 164.342 471.226 164.195 474.169 164.755C475.549 165.018 476.678 165.856 476.678 166.617C476.678 168.451 475.185 168.37 473.238 166.429ZM1342.16 151.857C1337.74 142.83 1338.01 142.042 1345.49 142.015C1351.22 141.996 1353.41 144.25 1353.33 150.064C1353.28 153.672 1352.84 154.684 1351.01 155.487C1349.76 156.03 1348.75 156.994 1348.75 157.63C1348.75 158.266 1348.14 159.018 1347.4 159.302C1346.5 159.647 1344.76 157.178 1342.16 151.857ZM1128.71 157.595C1127.04 156.334 1127.07 156.16 1129.31 154.702C1131.62 153.194 1131.69 153.233 1131.77 156.075C1131.86 159.314 1131.33 159.578 1128.71 157.595ZM273.696 153.595C272.028 152.334 272.064 152.16 274.298 150.702C276.607 149.194 276.676 149.233 276.757 152.075C276.85 155.314 276.318 155.578 273.696 153.595ZM579.038 154C577.752 153.172 577.789 153.028 579.289 153.015C580.255 153.007 581.046 153.45 581.046 154C581.046 155.22 580.932 155.22 579.038 154ZM1284.72 152.382C1284 151.608 1283.68 150.55 1284 150.031C1284.81 148.734 1287.53 149.906 1287.53 151.548C1287.53 153.563 1286.19 153.962 1284.72 152.382ZM1113.96 146.811C1111.77 144.463 1111.25 142 1112.96 142C1113.54 142 1113.88 141.264 1113.71 140.364C1113.55 139.428 1114.17 138.609 1115.18 138.451C1116.15 138.3 1116.69 138.586 1116.38 139.088C1116.06 139.59 1116.4 140.069 1117.12 140.152C1117.85 140.236 1118.93 140.356 1119.53 140.419C1120.13 140.481 1121.32 141.225 1122.17 142.073C1123.93 143.826 1122.99 145.613 1119.18 147.75C1116.31 149.367 1116.36 149.376 1113.96 146.811ZM258.951 142.811C256.755 140.463 256.244 138 257.952 138C258.528 138 258.867 137.264 258.705 136.364C258.536 135.428 259.164 134.609 260.171 134.451C261.139 134.3 261.677 134.586 261.366 135.088C261.055 135.59 261.392 136.069 262.114 136.152C262.836 136.236 263.919 136.356 264.519 136.418C265.119 136.481 266.306 137.225 267.156 138.073C268.915 139.826 267.976 141.613 264.174 143.75C261.297 145.366 261.348 145.376 258.951 142.811ZM952.353 141C952.353 140.45 952.804 140 953.356 140C953.908 140 954.36 140.45 954.36 141C954.36 141.55 953.908 142 953.356 142C952.804 142 952.353 141.55 952.353 141ZM1064.32 140.429C1062.33 138.446 1062.3 137 1064.25 137C1065.07 137 1065.75 137.418 1065.75 137.929C1065.75 138.439 1066.46 139.564 1067.33 140.429C1068.7 141.794 1068.71 142 1067.4 142C1066.57 142 1065.19 141.293 1064.32 140.429ZM853.003 138.059C853.003 137.542 853.45 136.843 853.995 136.507C854.564 136.157 854.732 136.558 854.39 137.448C853.722 139.181 853.003 139.498 853.003 138.059ZM1367.37 133.778C1365.42 131.003 1365.4 130 1367.28 130C1368.74 130 1370.83 132.901 1370.83 134.934C1370.83 136.728 1369.02 136.123 1367.37 133.778ZM164.579 125C164.579 124.45 165.031 124 165.583 124C166.135 124 166.587 124.45 166.587 125C166.587 125.55 166.135 126 165.583 126C165.031 126 164.579 125.55 164.579 125ZM1124.04 125.25C1123.99 124.53 1122.58 123.987 1120.7 123.969C1118.42 123.946 1116.9 123.202 1115.66 121.511C1113.96 119.183 1113.97 119.046 1115.77 118.083C1116.81 117.531 1119.3 117.346 1121.31 117.671C1124.29 118.153 1124.96 118.688 1124.96 120.581C1124.96 121.857 1125.75 123.407 1126.72 124.026C1128.26 125.017 1128.27 125.089 1126.78 124.632C1125.85 124.346 1124.87 124.649 1124.6 125.306C1124.24 126.194 1124.09 126.179 1124.04 125.25ZM285.003 115.941C285.003 115.359 285.455 115.16 286.007 115.5C286.559 115.84 287.01 116.317 287.01 116.559C287.01 116.802 286.559 117 286.007 117C285.455 117 285.003 116.524 285.003 115.941ZM1228.07 112.582C1225.54 110.705 1225.91 108.31 1228.82 107.757C1232.5 107.055 1234.24 109.56 1231.75 111.997C1230.13 113.591 1229.56 113.682 1228.07 112.582ZM242.41 112.091C241.471 110.578 245.827 108.561 247.161 109.891C248.423 111.149 248.137 111.517 245.197 112.417C244.002 112.782 242.747 112.636 242.41 112.091ZM457.109 112C457.45 111.45 457.251 111 456.667 111C456.082 111 455.604 110.55 455.604 110C455.604 109.45 456.281 109 457.109 109C457.946 109 458.615 109.889 458.615 111C458.615 112.1 458.136 113 457.552 113C456.967 113 456.768 112.55 457.109 112ZM90.0592 109.916C89.0889 109.353 87.847 109.168 87.2995 109.505C85.6838 110.5 86.1635 107.361 87.8389 105.976C89.9638 104.218 94.3321 106.239 94.3321 108.979C94.3321 111.182 92.8149 111.515 90.0592 109.916ZM244.36 107C244.701 106.45 245.18 106 245.423 106C245.667 106 245.866 106.45 245.866 107C245.866 107.55 245.387 108 244.803 108C244.218 108 244.019 107.55 244.36 107ZM407.634 97.3826C406.916 96.6084 406.591 95.5503 406.913 95.0313C407.718 93.7345 410.445 94.906 410.445 96.5482C410.445 98.5629 409.099 98.9623 407.634 97.3826ZM232.811 95.4892C232.128 94.6703 230.771 94.0002 229.794 94.0002C227.549 94.0002 226.4 91.1832 227.908 89.3735C228.77 88.3383 228.735 87.6206 227.767 86.4578C226.364 84.7737 227.631 82.5928 229.316 83.7919C231.006 84.995 235.82 95.8883 234.91 96.4491C234.437 96.7401 233.493 96.3082 232.811 95.4892ZM391.395 91.0376C389.47 86.942 389.287 85.8063 390.343 84.5376C392.864 81.5104 397.291 83.9175 397.367 88.3572C397.387 89.5911 397.904 90.0211 398.904 89.6386C399.732 89.322 400.41 89.4988 400.41 90.0316C400.41 90.5644 399.958 91.0003 399.406 91.0003C398.854 91.0003 398.403 91.5131 398.403 92.14C398.403 93.2246 395.541 95.901 394.309 95.9684C393.99 95.9854 392.678 93.767 391.395 91.0376ZM299.002 88.439C298.03 87.2721 297.952 86.3768 298.717 85.1664C300.132 82.9274 303.578 82.2301 302.763 84.3479C302.331 85.4703 302.613 85.7275 303.784 85.2794C304.863 84.8671 305.161 85.0512 304.678 85.8303C304.27 86.4869 304.506 87.0002 305.216 87.0002C306.959 87.0002 305.112 88.6135 302.456 89.4104C301.105 89.8158 299.856 89.4646 299.002 88.439ZM915.734 88.9839C916.081 88.4249 916.785 88.2265 917.299 88.543C918.691 89.4002 918.431 90.0002 916.668 90.0002C915.808 90.0002 915.387 89.5429 915.734 88.9839ZM913.215 86.9688C913.215 85.6799 916.074 84.516 916.993 85.4311C917.367 85.8039 917.01 86.5276 916.197 87.0393C914.254 88.2635 913.215 88.2388 913.215 86.9688ZM369.049 84.2361C366.239 82.8662 365.697 81.4776 367.109 79.262C368.121 77.6746 374.318 79.787 374.318 81.7193C374.318 82.4237 374.769 83.0001 375.321 83.0001C375.873 83.0001 376.325 83.3976 376.325 83.8835C376.325 85.4207 371.918 85.6343 369.049 84.2361ZM329.159 84C329.159 83.45 329.637 83 330.222 83C330.806 83 331.005 83.45 330.664 84C330.323 84.55 329.845 85 329.601 85C329.358 85 329.159 84.55 329.159 84ZM1195.29 83.6843C1192.65 81.0549 1195.41 79.9641 1198.68 82.3447C1200.45 83.6358 1200.44 83.7109 1198.45 84.229C1197.31 84.5258 1195.89 84.2806 1195.29 83.6843ZM1183.45 74.1797C1179.58 72.1652 1178.54 70.1591 1180.92 69.2867C1181.88 68.9359 1183.62 67.6409 1184.8 66.4087C1188.26 62.7638 1190.92 62.956 1192.96 67L1194.72 70.5L1191.31 73.25C1187.39 76.4161 1187.68 76.3819 1183.45 74.1797ZM760.757 71.25C760.711 70.5296 759.296 69.9867 757.417 69.9686C755.143 69.9459 753.619 69.2023 752.385 67.5115C750.685 65.1832 750.689 65.0454 752.494 64.0829C753.529 63.5314 756.019 63.346 758.028 63.6709C761.01 64.1531 761.682 64.6881 761.682 66.5812C761.682 67.8569 762.472 69.407 763.438 70.0258C764.984 71.0168 764.992 71.0891 763.503 70.6317C762.572 70.3461 761.592 70.6487 761.324 71.3062C760.962 72.1935 760.816 72.179 760.757 71.25ZM4.57764e-05 67.5635C4.57764e-05 66.0562 2.07498 64 3.59608 64C4.8345 64 6.32764 67.9042 5.17465 68.1276C1.96607 68.7493 4.57764e-05 68.5349 4.57764e-05 67.5635ZM725.296 64.9155C724.325 64.3524 723.083 64.1677 722.536 64.5049C720.92 65.5 721.4 62.361 723.075 60.9754C725.2 59.2181 729.569 61.2385 729.569 63.9786C729.569 66.1819 728.051 66.5146 725.296 64.9155ZM92.8918 61.1048C92.5865 60.6124 92.9883 59.9603 93.785 59.6557C94.7512 59.2862 95.0477 59.5843 94.6754 60.5509C94.0286 62.2307 93.661 62.3449 92.8918 61.1048ZM564.579 61.1473C564.249 60.6155 564.244 59.4931 564.567 58.653C565.296 56.7618 569.505 58.0077 569.505 60.1145C569.505 61.7272 565.464 62.5745 564.579 61.1473ZM407.434 49.0589C407.434 48.5414 407.881 47.843 408.426 47.507C408.995 47.1567 409.164 47.558 408.821 48.448C408.154 50.1804 407.434 50.4974 407.434 49.0589ZM1420.6 34.1666C1420.32 33.7082 1420.73 33.3333 1421.5 33.3333C1422.28 33.3333 1422.69 33.7082 1422.4 34.1666C1422.12 34.6249 1421.72 34.9999 1421.5 34.9999C1421.29 34.9999 1420.89 34.6249 1420.6 34.1666ZM1034.26 25.4438C1033.36 23.1211 1033.43 23.0001 1035.65 23.0001C1037.98 23.0001 1038.25 24.263 1036.27 25.9032C1035.19 26.7917 1034.74 26.6879 1034.26 25.4438ZM1063.17 14.8572C1058.76 5.83011 1059.02 5.04226 1066.5 5.01539C1072.23 4.99555 1074.43 7.25003 1074.35 13.0642C1074.29 16.6716 1073.86 17.6844 1072.02 18.4872C1070.78 19.0301 1069.77 19.9945 1069.77 20.6302C1069.77 21.266 1069.16 22.0182 1068.42 22.3019C1067.52 22.6467 1065.78 20.1779 1063.17 14.8572ZM10.6212 18.7501C10.759 17.5126 10.9093 16.3325 10.9553 16.1276C11.0013 15.9227 11.7163 16.3153 12.5442 17.0001C14.6227 18.719 14.4322 21.0001 12.2102 21.0001C10.8975 21.0001 10.4425 20.3558 10.6212 18.7501ZM864.845 18.7999C865.781 17.8666 866.317 17.8666 867.253 18.7999C868.19 19.7333 867.922 20 866.049 20C864.176 20 863.908 19.7332 864.845 18.7999ZM1201.81 16.75C1201.95 15.5124 1202.1 14.3323 1202.15 14.1275C1202.2 13.9226 1202.91 14.3152 1203.74 15C1205.82 16.7189 1205.63 19 1203.4 19C1202.09 19 1201.64 18.3557 1201.81 16.75ZM847.985 17C847.985 16.45 848.41 16 848.93 16C849.449 16 850.153 16.45 850.494 17C850.835 17.55 850.41 18 849.55 18C848.689 18 847.985 17.55 847.985 17ZM1092.36 11.9837C1092.7 11.4247 1093.41 11.2263 1093.92 11.5427C1095.31 12.3999 1095.05 13 1093.29 13C1092.43 13 1092.01 12.5427 1092.36 11.9837ZM1089.84 9.96862C1089.84 8.67968 1092.7 7.51576 1093.61 8.43084C1093.99 8.80368 1093.63 9.5274 1092.82 10.0391C1090.88 11.2633 1089.84 11.2386 1089.84 9.96862ZM1238.36 7.08333C1238.36 5.85499 1239.01 4.99999 1239.94 4.99999C1240.87 4.99999 1241.39 5.68037 1241.19 6.66714C1240.7 9.17589 1238.36 9.52038 1238.36 7.08333ZM348.477 2.49999C348.477 0.535104 348.987 0 350.86 0C352.171 0 353.244 0.450009 353.244 1.00002C353.244 1.55002 352.792 1.99999 352.24 1.99999C351.688 1.99999 351.237 2.67501 351.237 3.50001C351.237 4.32501 350.616 4.99999 349.857 4.99999C349.054 4.99999 348.477 3.95456 348.477 2.49999Z" fill="#E2F6F2" fill-opacity="0.988235"/>
</g>
<defs>
<clipPath id="clip0">
<rect width="1440" height="400" fill="white"/>
</clipPath>
</defs>
</svg>
