<svg width="185" height="128" viewBox="0 0 185 128" fill="none" xmlns="http://www.w3.org/2000/svg">
<path d="M91.4087 12.7144C58.4384 37.3772 20.4201 67.8688 4.07537 107.159C0.32521 116.174 7.02345 117.39 14.2976 114.492C31.4903 107.642 46.3982 91.8941 60.0754 80.0477C78.3068 64.2568 95.5667 47.6339 112.298 30.27C118.59 23.7393 131.488 14.0478 134.742 4.93663C137.071 -1.58385 121.784 10.1295 116.075 14.0477C95.7422 28.0042 75.8244 43.3886 57.6309 60.0477C54.9537 62.4991 37.9359 76.0815 43.6309 82.0477C49.406 88.0978 65.833 82.0447 71.742 80.1589C84.9149 75.9547 139.069 54.0287 132.186 33.3811C124.214 9.46304 61.8077 62.515 55.5198 69.3811C51.3236 73.9632 33.0469 91.9877 48.1865 95.7144C69.524 100.967 96.6782 86.2563 115.409 78.0477C124.955 73.864 139.454 69.366 147.409 62.0477C152.969 56.9322 133.554 68.319 127.409 72.7144C122.67 76.1036 100.183 93.0057 108.52 101.603C115.117 108.407 136.248 95.8091 142.52 93.1589C142.634 93.1105 159.393 86.9016 159.186 87.6033C158.147 91.1366 150.277 95.9273 147.853 98.7144C131.271 117.784 156.591 112.305 167.631 104.603C187.924 90.4452 149.677 95.8312 143.298 98.1589C132.893 101.955 123.39 107.673 113.298 112.159C111.818 112.816 109.167 113.966 107.298 114.381C106.489 114.561 108.756 113.59 109.52 113.27C129.097 105.06 150.274 100.535 171.631 103.048C188.522 105.035 181.353 115.374 175.409 124.714" stroke="white" stroke-width="5" stroke-linecap="round" stroke-linejoin="round"/>
</svg>
