<svg width="172" height="77" viewBox="0 0 172 77" fill="none" xmlns="http://www.w3.org/2000/svg">
<path d="M18.044 41.5376C17.5839 38.9083 16.302 37.6922 14.1986 37.8894C13.0153 37.9551 11.9965 38.744 11.1419 40.2559C9.95871 42.5566 9.43284 45.5474 9.5643 49.2285C9.76151 52.8439 10.0244 55.4733 10.3531 57.1166C10.7475 58.6942 11.4049 60.0746 12.3251 61.2578C12.851 62.1781 13.6398 62.6053 14.6916 62.5396C16.5321 62.5396 17.8797 60.9949 18.7342 57.9054L19.523 55.5389C19.8517 55.2103 19.9174 54.8816 19.7202 54.553C20.3776 52.9096 20.7391 50.9705 20.8048 48.7355C20.1475 48.2754 19.7531 47.8481 19.6216 47.4537C19.2272 46.3363 19.03 45.5803 19.03 45.1858C18.5699 44.8572 18.3069 44.2327 18.2412 43.3124C18.1755 42.3921 18.1097 41.8005 18.044 41.5376ZM0 50.8061L0.394404 45.7775C0.854543 41.2419 2.23496 37.3635 4.53565 34.1425C6.77061 31.4474 9.92584 30.067 14.0014 30.0013H14.593C18.4055 30.0013 21.1664 30.823 22.8754 32.4663C24.716 33.9125 26.0635 35.4901 26.9181 37.1992C27.8384 38.9083 28.43 40.1571 28.6929 40.946C28.9558 41.7348 29.1202 42.8852 29.1859 44.3971C29.3174 47.2236 28.7586 48.8341 27.5097 49.2285C28.43 55.4732 27.8712 60.4362 25.8335 64.1173C25.1761 65.6291 24.223 67.2725 22.974 69.0474C22.0538 70.2306 20.4104 70.8879 18.044 71.0194C15.6776 71.0194 13.6069 70.8879 11.8321 70.6251C10.123 70.3622 8.21675 69.5405 6.11327 68.1601C4.00978 66.7139 2.53076 64.3802 1.67622 61.1593C0.755942 58.0698 0.197202 54.6188 2.4181e-07 50.8062L0 50.8061Z" fill="#898989"/>
<path d="M60.3255 31.5788L62.2975 31.4803C64.2038 31.4803 67.2933 31.0531 71.566 30.1985C71.6975 29.6726 71.7632 29.0809 71.7632 28.4236L72.2562 25.9586C72.2562 25.3013 72.4534 24.118 72.8478 22.409C72.8478 21.5544 72.9793 20.7328 73.2422 19.944C73.2422 19.2866 73.3408 18.432 73.538 17.3803C73.7352 16.2628 73.8996 15.0468 74.031 13.7321C74.2282 13.4692 74.3268 13.0748 74.3268 12.5488C74.3926 11.9572 74.524 11.3328 74.7212 10.6754C72.9464 10.281 70.9415 10.0181 68.7066 9.88663C65.6828 10.281 64.0066 10.6426 63.6779 10.9713C62.2318 12.2202 61.2458 13.3048 60.7199 14.2251C60.1283 15.2111 59.4381 16.8215 58.6493 19.0565C58.3206 19.188 58.0577 19.7139 57.8605 20.6342C57.729 21.6859 57.3675 23.0005 56.7759 24.5782C56.3157 25.8271 55.9213 27.2732 55.5926 28.9166C55.264 30.4942 55.1982 31.4474 55.3954 31.7761C56.0528 31.7761 56.5786 31.7432 56.9731 31.6775C57.4332 31.2174 58.5507 31.1845 60.3255 31.579L60.3255 31.5788ZM80.2429 50.9047C80.0457 52.548 79.98 53.534 80.0457 53.8627L79.7499 55.9334V57.7081C79.8814 61.5864 80.0129 64.3144 80.1443 65.892C80.473 67.2067 80.6373 68.1928 80.6373 68.8501C80.6373 70.0334 79.7171 70.9865 77.8765 71.7096C76.759 72.1697 75.5101 72.3997 74.1297 72.3997C72.7492 72.3997 71.7304 71.8739 71.073 70.8221L70.3828 68.4557L69.9884 66.1879L69.6926 65.399C69.6926 65.0704 69.594 64.6103 69.3968 64.0187L69.1996 61.2578C69.1996 59.6802 69.2325 58.2998 69.2982 57.1166V56.4264C69.2982 56.1635 69.364 55.7691 69.4954 55.2431C69.6926 54.7173 69.7255 54.0928 69.594 53.3697C69.9884 50.0173 70.1527 47.9138 70.087 47.0593C70.087 46.2047 70.1527 45.3173 70.2842 44.397C70.4157 43.411 70.4157 42.4249 70.2842 41.4389C70.6129 40.2557 70.843 39.1054 70.9744 37.9879C69.7255 37.9222 67.5891 37.988 64.5654 38.1852C61.2787 38.3823 57.7619 38.8425 54.015 39.5656C53.7521 40.3544 53.5878 41.2746 53.522 42.3264C53.4563 43.3781 53.3577 44.7257 53.2262 46.369C53.0948 47.9467 53.029 49.1298 53.029 49.9186V53.271C52.8318 54.7829 52.7661 55.769 52.8318 56.2291L52.536 58.2997V60.0746C52.6675 63.9529 52.799 66.648 52.9305 68.1599C53.2591 69.4746 53.4235 70.4934 53.4235 71.2165C53.4235 72.3339 52.5032 73.2871 50.6626 74.0759C49.2165 74.4703 47.8689 74.6675 46.62 74.6675C45.4368 74.6675 44.5165 74.1744 43.8592 73.1885L43.169 70.8221L42.7745 68.4557L42.4788 67.6668C42.4788 67.4039 42.3802 66.9767 42.183 66.385L41.9858 63.6243C41.9858 61.9809 42.0186 60.6004 42.0844 59.4829V58.7928C42.0844 58.5299 42.1501 58.1354 42.2816 57.6095C42.4788 57.0836 42.5116 56.4263 42.3802 55.6375C42.7746 52.3508 42.9389 50.2473 42.8732 49.327C42.8732 48.4068 42.9389 47.5194 43.0704 46.6648C43.2019 45.7445 43.2019 44.7914 43.0704 43.8054C43.2676 42.8851 43.399 42.3593 43.4648 42.2278C43.5305 42.0307 43.6291 41.4062 43.7606 40.3544H40.4081C38.8305 40.3544 37.8445 40.3214 37.4501 40.2557C35.5438 40.2557 34.3277 39.7299 33.8019 38.6782C33.4075 37.5607 33.6704 36.3117 34.5907 34.9313C34.7221 34.6026 35.2809 34.4054 36.2669 34.3397C37.7788 34.3397 40.4739 33.9453 44.3522 33.1565C44.4837 32.6306 44.5494 32.1705 44.5494 31.7761L45.0424 28.3251C45.0424 27.7335 45.2396 26.5502 45.634 24.7754C45.634 23.9208 45.7655 23.0992 46.0284 22.3104C46.0284 21.7188 46.127 20.7327 46.3242 19.3523C46.8501 16.6572 47.1459 14.6523 47.2116 13.3376C47.6718 12.4831 47.9347 11.9243 48.0004 11.6614C47.7375 11.3327 47.8361 10.8726 48.2962 10.281L48.592 9.68941C48.7235 8.90058 49.6438 7.68453 51.3528 6.04119L53.9165 4.56219C54.3109 4.03634 55.8885 3.34607 58.6493 2.49152C59.2409 2.16283 60.4899 2.29427 62.3962 2.88585C62.5933 2.95157 63.1521 2.95157 64.0724 2.88585C65.0584 2.82013 65.8143 2.88591 66.3402 3.08307C66.8661 3.28024 67.2276 3.37885 67.4248 3.37885L69.6926 3.6745C72.7164 4.66051 74.8856 5.58084 76.2003 6.43539C76.5947 5.77804 77.1206 5.15355 77.7779 4.56195C78.4353 3.90462 78.9611 3.51019 79.3555 3.37872L81.1304 2.1955C81.8534 1.4067 83.3324 0.78219 85.5674 0.322056C87.8681 -0.138077 89.8401 -0.105125 91.4835 0.420731C92.338 0.420731 93.0282 0.51934 93.5541 0.716505C94.08 0.913671 94.4744 1.01216 94.7373 1.01216L97.1037 1.40648C99.3387 2.32675 100.62 3.04982 100.949 3.5757C101.278 4.03583 101.376 4.49601 101.245 4.95615C100.456 7.32257 98.6813 8.30865 95.9205 7.91426L91.6807 8.11136C89.5114 8.90019 87.9667 10.2477 87.0464 12.154C85.9289 13.7974 85.173 15.8022 84.7786 18.1687C84.3842 20.4694 84.0884 21.8827 83.8912 22.4086C83.7597 22.9345 83.5954 23.526 83.3982 24.1833C83.201 24.6435 82.9709 25.5638 82.708 26.9442C82.445 28.2589 82.4122 29.0806 82.6094 29.4092C83.2667 29.4092 83.7926 29.3764 84.187 29.3107C84.6471 28.8505 85.7646 28.8176 87.5394 29.212L89.5114 29.1135C93.1268 29.1135 95.3289 29.7708 96.1177 31.0855C96.5779 31.7428 96.545 32.5644 96.0191 33.5505C95.559 34.4707 94.8687 35.0952 93.9485 35.4239L84.3842 36.6071L81.3275 37.1988C80.9989 38.1191 80.8017 39.2036 80.7359 40.4526C80.6702 41.7015 80.5716 43.0162 80.4401 44.3967C80.3087 45.7771 80.2429 46.8288 80.2429 47.5519L80.2429 50.9047Z" fill="#898989"/>
<path d="M116.645 34.4383C116.513 34.1097 116.053 33.9782 115.265 34.044C114.541 34.1097 113.983 34.5041 113.588 35.2272C110.893 39.4999 109.447 44.0684 109.25 48.9328C111.485 49.4586 113.391 48.4727 114.969 45.9748C117.006 39.5328 117.565 35.6874 116.645 34.4384V34.4383ZM108.954 73.5829L107.968 73.3858L106.588 72.0054C106.193 72.0054 105.897 71.8411 105.7 71.5124C104.977 70.6579 103.662 68.9487 101.756 66.3851L100.277 60.9621C100.277 59.9103 100.08 58.99 99.6855 58.2012C99.0282 55.2432 98.6338 53.5669 98.5023 53.1725C98.3709 52.7124 98.2723 51.4963 98.2065 49.5243C98.2065 47.5523 98.3051 46.1062 98.5023 45.1859C98.6995 43.9369 99.9156 40.8475 102.151 35.9174C102.742 35.3258 103.104 34.537 103.235 33.551L104.813 31.2831C106.259 29.574 107.804 28.325 109.447 27.5362C109.447 27.4048 110.565 27.0762 112.799 26.5503C113.26 26.4846 114.311 26.649 115.955 27.0433C119.899 27.9636 122.364 29.1139 123.35 30.4943L123.646 30.9873C124.895 32.7621 125.618 35.4901 125.815 39.1712C125.618 40.8145 125.453 42.1949 125.322 43.3124C125.19 44.4299 124.467 46.4677 123.153 49.4258C122.167 51.2663 121.213 52.7453 120.293 53.8627C118.847 54.9145 117.861 55.4404 117.335 55.4404C117.072 55.5719 116.513 55.6375 115.659 55.6375H113.391C113.194 55.5718 112.767 55.539 112.109 55.539C111.452 55.539 110.499 55.3746 109.25 55.046C109.25 56.4921 109.644 58.5627 110.433 61.2579C111.288 63.8872 111.978 65.4977 112.504 66.0893C113.884 67.141 114.969 67.8313 115.758 68.16C116.546 68.4886 117.598 68.5543 118.913 68.3571C120.227 68.0942 121.181 67.634 121.772 66.9766L124.336 63.8214C125.979 61.5864 127.655 61.3893 129.364 63.2298C130.153 64.0844 130.449 64.939 130.252 65.7935C130.12 66.5823 129.463 68.1928 128.28 70.625C127.294 72.2026 126.242 73.5172 125.125 74.5689C123.087 75.6207 121.871 76.1466 121.476 76.1466C120.885 76.2123 119.964 76.1137 118.716 75.8508C118.058 76.1795 116.941 76.1467 115.363 75.7523C115.363 75.6208 115.166 75.5222 114.771 75.4565C114.443 75.4565 113.983 75.3579 113.391 75.1607L113.588 75.0622C113.457 75.0622 113.062 75.0622 112.405 75.0622L109.644 73.5831L108.954 73.5829Z" fill="#898989"/>
<path d="M158.94 66.9767L158.349 65.3005L157.264 58.6941C156.935 57.4452 156.771 56.3277 156.771 55.3417L157.165 51.0033C157.165 50.2802 157.198 49.8859 157.264 49.8202C156.475 49.8202 155.292 50.7732 153.714 52.6795C153.583 52.8767 153.386 53.2053 153.123 53.6655C150.362 58.0697 148.719 63.3614 148.193 69.5404C147.667 70.6579 146.977 71.2166 146.122 71.2166C144.347 70.8222 143.361 70.6249 143.164 70.6249L142.474 70.7235H141.192C139.68 70.592 138.694 70.0005 138.234 68.9487C137.971 68.62 137.84 67.7655 137.84 66.385V65.0047L137.544 59.5816V51.4963C137.544 50.576 137.478 49.4257 137.347 48.0453C137.215 46.5334 137.182 44.1669 137.248 40.9459C137.314 37.6592 137.281 35.9174 137.149 35.7202C137.018 35.4573 136.952 35.1285 136.952 34.7341C136.952 34.3397 137.051 33.9454 137.248 33.551C137.445 33.1565 138.333 32.7292 139.91 32.2691C140.765 31.7432 141.488 31.4803 142.08 31.4803C143 31.6775 144.183 32.0719 145.629 32.6635C146.615 32.8607 147.108 33.8138 147.108 35.523C147.24 38.3495 147.24 40.3872 147.108 41.6362C147.042 42.8851 147.075 45.4159 147.207 49.2285C152.071 39.8943 156.41 34.274 160.222 32.3677C160.551 32.039 161.044 31.8747 161.701 31.8747C162.358 31.8747 163.114 32.2034 163.969 32.8607C164.823 33.5181 165.415 33.9453 165.744 34.1425C166.072 34.3397 166.434 34.6683 166.828 35.1285C167.289 35.5886 167.65 35.8845 167.913 36.0159C168.702 37.3306 168.866 40.4202 168.406 45.2845C168.34 46.0076 168.275 46.6649 168.209 47.2565C168.143 47.7824 168.11 48.9655 168.11 50.806C168.11 52.6466 168.143 53.9285 168.209 54.6516C168.406 56.9523 168.505 58.2998 168.505 58.6941L168.998 62.441C169.655 63.9529 169.984 65.1362 169.984 65.9907C170.049 66.7795 170.641 68.0613 171.758 69.8361C172.219 70.8222 172.021 71.611 171.167 72.2026C169.852 72.8599 169.129 73.1228 168.998 72.9914C168.932 72.9256 168.57 72.9913 167.913 73.1885C167.256 73.4514 166.072 73.5171 164.363 73.3857C163.509 73.1885 162.654 72.6626 161.8 71.808L160.321 70.329C159.795 69.5402 159.433 68.6857 159.236 67.7655C158.907 67.4368 158.809 67.1738 158.94 66.9766L158.94 66.9767Z" fill="#898989"/>
</svg>
