<svg width="152" height="94" viewBox="0 0 152 94" fill="none" xmlns="http://www.w3.org/2000/svg">
<path d="M16.9439 64.9889C16.5735 62.8715 15.5416 61.8922 13.8484 62.051C12.8959 62.1039 12.0758 62.7392 11.3879 63.9567C10.4354 65.8094 10.0121 68.2179 10.1179 71.1822C10.2767 74.0936 10.4883 76.211 10.7529 77.5344C11.0704 78.8048 11.5995 79.9164 12.3403 80.8692C12.7636 81.6103 13.3986 81.9543 14.2452 81.9014C15.7268 81.9014 16.8116 80.6575 17.4995 78.1696L18.1344 76.2639C18.399 75.9992 18.4519 75.7346 18.2932 75.4699C18.8223 74.1465 19.1133 72.585 19.1662 70.7852C18.6371 70.4146 18.3196 70.0706 18.2138 69.753C17.8963 68.8531 17.7376 68.2443 17.7376 67.9267C17.3672 67.662 17.1555 67.1591 17.1026 66.4181C17.0497 65.677 16.9968 65.2006 16.9439 64.9889V64.9889ZM2.41895 72.4526L2.73643 68.4032C3.10683 64.7507 4.21802 61.6275 6.07002 59.0337C7.86909 56.8634 10.409 55.7518 13.6896 55.6989H14.1659C17.2349 55.6989 19.4573 56.3605 20.833 57.6839C22.3146 58.8484 23.3994 60.1189 24.0873 61.4952C24.828 62.8715 25.3043 63.8772 25.5159 64.5124C25.7276 65.1476 25.8599 66.074 25.9128 67.2915C26.0186 69.5677 25.5688 70.8646 24.5635 71.1822C25.3043 76.211 24.8545 80.2076 23.2142 83.1719C22.685 84.3894 21.9178 85.7128 20.9124 87.142C20.1716 88.0948 18.8488 88.6242 16.9439 88.73C15.0389 88.73 13.3722 88.6242 11.9435 88.4125C10.5677 88.2008 9.0332 87.5391 7.33995 86.4275C5.6467 85.2629 4.45614 83.3836 3.76825 80.7899C3.02746 78.3019 2.57769 75.5229 2.41895 72.4527L2.41895 72.4526Z" fill="white"/>
<path d="M50.9791 56.9692L52.5665 56.8899C54.101 56.8899 56.588 56.5458 60.0274 55.8577C60.1333 55.4342 60.1862 54.9577 60.1862 54.4284L60.583 52.4434C60.583 51.914 60.7418 50.9612 61.0593 49.5849C61.0593 48.8967 61.1651 48.2351 61.3767 47.5998C61.3767 47.0705 61.4561 46.3823 61.6148 45.5354C61.7736 44.6355 61.9059 43.6562 62.0117 42.5975C62.1704 42.3858 62.2498 42.0682 62.2498 41.6447C62.3027 41.1683 62.4085 40.6654 62.5673 40.136C61.1386 39.8184 59.5247 39.6067 57.7257 39.5008C55.2916 39.8184 53.9423 40.1096 53.6777 40.3743C52.5136 41.3801 51.7199 42.2534 51.2966 42.9945C50.8204 43.7885 50.2648 45.0854 49.6298 46.8852C49.3652 46.991 49.1536 47.4146 48.9948 48.1557C48.889 49.0026 48.598 50.0613 48.1218 51.3317C47.7514 52.3374 47.4339 53.502 47.1693 54.8254C46.9047 56.0958 46.8518 56.8634 47.0106 57.128C47.5397 57.128 47.963 57.1016 48.2805 57.0487C48.6509 56.6781 49.5504 56.6517 50.9791 56.9693L50.9791 56.9692ZM67.0121 72.532C66.8533 73.8554 66.8004 74.6494 66.8533 74.9141L66.6152 76.5815V78.0107C66.7211 81.1338 66.8269 83.3306 66.9327 84.6011C67.1973 85.6598 67.3296 86.4538 67.3296 86.9832C67.3296 87.936 66.5888 88.7036 65.1072 89.2859C64.2076 89.6564 63.2023 89.8416 62.0911 89.8416C60.9799 89.8416 60.1597 89.4182 59.6306 88.5712L59.075 86.6655L58.7575 84.8394L58.5194 84.2041C58.5194 83.9394 58.44 83.5689 58.2813 83.0925L58.1225 80.8692C58.1225 79.5988 58.149 78.4872 58.2019 77.5344V76.9785C58.2019 76.7668 58.2548 76.4492 58.3606 76.0257C58.5194 75.6022 58.5458 75.0993 58.44 74.517C58.7575 71.8174 58.8898 70.1235 58.8369 69.4354C58.8369 68.7472 58.8898 68.0326 58.9956 67.2915C59.1014 66.4975 59.1014 65.7034 58.9956 64.9094C59.2602 63.9566 59.4454 63.0303 59.5512 62.1304C58.5458 62.0774 56.8261 62.1304 54.3921 62.2892C51.7464 62.448 48.9155 62.8185 45.8994 63.4008C45.6877 64.036 45.5554 64.7771 45.5025 65.624C45.4496 66.471 45.3702 67.5562 45.2644 68.8795C45.1586 70.15 45.1057 71.1027 45.1057 71.7379V74.4376C44.9469 75.6551 44.894 76.4492 44.9469 76.8197L44.7088 78.4871V79.9164C44.8147 83.0395 44.9205 85.2099 45.0263 86.4274C45.2909 87.4861 45.4232 88.3065 45.4232 88.8888C45.4232 89.7886 44.6824 90.5562 43.2008 91.1914C42.0367 91.509 40.9519 91.6678 39.9466 91.6678C38.9941 91.6678 38.2533 91.2708 37.7242 90.4768L37.1686 88.5712L36.8511 86.6655L36.613 86.0303C36.613 85.8186 36.5336 85.4745 36.3749 84.9981L36.2161 82.7749C36.2161 81.4515 36.2426 80.3398 36.2955 79.4399V78.8842C36.2955 78.6725 36.3484 78.3548 36.4543 77.9313C36.613 77.5078 36.6395 76.9785 36.5336 76.3432C36.8511 73.6965 36.9834 72.0027 36.9305 71.2616C36.9305 70.5205 36.9834 69.8059 37.0892 69.1177C37.1951 68.3766 37.1951 67.6091 37.0892 66.8151C37.248 66.074 37.3538 65.6506 37.4067 65.5447C37.4596 65.3859 37.539 64.883 37.6448 64.036H34.9462C33.6763 64.036 32.8826 64.0095 32.5651 63.9566C31.0306 63.9566 30.0517 63.5331 29.6283 62.6862C29.3109 61.7863 29.5225 60.7805 30.2633 59.6689C30.3691 59.4042 30.8189 59.2454 31.6126 59.1925C32.8296 59.1925 34.9991 58.8749 38.1211 58.2397C38.2269 57.8162 38.2798 57.4457 38.2798 57.128L38.6766 54.349C38.6766 53.8726 38.8354 52.9198 39.1529 51.4905C39.1529 50.8024 39.2587 50.1407 39.4704 49.5055C39.4704 49.0291 39.5497 48.235 39.7085 47.1234C40.1318 44.9531 40.3699 43.3386 40.4228 42.2799C40.7932 41.5917 41.0049 41.1418 41.0578 40.93C40.8461 40.6654 40.9255 40.2948 41.2959 39.8184L41.534 39.342C41.6398 38.7068 42.3806 37.7275 43.7564 36.4042L45.82 35.2132C46.1375 34.7897 47.4074 34.2338 49.6298 33.5457C50.1061 33.281 51.1114 33.3868 52.6459 33.8632C52.8047 33.9162 53.2544 33.9162 53.9952 33.8632C54.789 33.8103 55.3975 33.8633 55.8208 34.0221C56.2441 34.1808 56.5351 34.2602 56.6939 34.2602L58.5194 34.4983C60.9534 35.2923 62.6996 36.0335 63.7579 36.7216C64.0754 36.1923 64.4987 35.6894 65.0278 35.213C65.557 34.6836 65.9803 34.366 66.2978 34.2601L67.7264 33.3073C68.3085 32.6721 69.4991 32.1692 71.2981 31.7987C73.1501 31.4281 74.7376 31.4547 76.0604 31.8781C76.7483 31.8781 77.3039 31.9575 77.7272 32.1163C78.1505 32.2751 78.468 32.3544 78.6797 32.3544L80.5846 32.6719C82.3836 33.413 83.4155 33.9953 83.68 34.4188C83.9446 34.7893 84.024 35.1599 83.9181 35.5304C83.2832 37.436 81.8545 38.2301 79.6321 37.9125L76.2191 38.0713C74.473 38.7065 73.2295 39.7916 72.4887 41.3267C71.5892 42.6501 70.9806 44.2646 70.6632 46.1703C70.3457 48.0229 70.1076 49.1611 69.9488 49.5846C69.843 50.0081 69.7107 50.4844 69.552 51.0138C69.3932 51.3843 69.208 52.1254 68.9964 53.2371C68.7847 54.2958 68.7583 54.9574 68.917 55.2221C69.4462 55.2221 69.8695 55.1956 70.187 55.1427C70.5574 54.7722 71.4569 54.7456 72.8856 55.0633L74.473 54.9839C77.3833 54.9839 79.1559 55.5132 79.7909 56.5719C80.1613 57.1012 80.1348 57.7629 79.7115 58.5569C79.3411 59.298 78.7855 59.8009 78.0447 60.0656L70.3457 61.0184L67.8852 61.4949C67.6206 62.236 67.4619 63.1093 67.4089 64.1151C67.356 65.1208 67.2766 66.1796 67.1708 67.2912C67.065 68.4028 67.0121 69.2498 67.0121 69.8321L67.0121 72.532Z" fill="white"/>
<path d="M96.3149 59.2719C96.2091 59.0072 95.8387 58.9014 95.2037 58.9544C94.6217 59.0073 94.1719 59.3249 93.8544 59.9072C91.6849 63.3479 90.5208 67.0269 90.3621 70.944C92.1612 71.3675 93.6957 70.5735 94.9656 68.562C96.6059 63.3744 97.0557 60.2778 96.3149 59.272V59.2719ZM90.124 90.7944L89.3303 90.6357L88.2191 89.5241C87.9016 89.5241 87.6635 89.3917 87.5047 89.1271C86.9227 88.4389 85.8644 87.0626 84.3299 84.9981L83.1393 80.6311C83.1393 79.7841 82.9806 79.043 82.6631 78.4078C82.134 76.0257 81.8165 74.6759 81.7106 74.3583C81.6048 73.9877 81.5254 73.0085 81.4725 71.4204C81.4725 69.8324 81.5519 68.6678 81.7106 67.9267C81.8694 66.921 82.8483 64.4331 84.6474 60.463C85.1236 59.9866 85.4146 59.3514 85.5204 58.5574L86.7904 56.7311C87.9545 55.3548 89.198 54.349 90.5208 53.7138C90.5208 53.6079 91.4204 53.3433 93.2194 52.9198C93.5898 52.8669 94.4365 52.9993 95.7593 53.3169C98.9342 54.0579 100.918 54.9843 101.712 56.0959L101.95 56.4929C102.956 57.9221 103.538 60.1189 103.696 63.0832C103.538 64.4066 103.405 65.5182 103.3 66.4181C103.194 67.318 102.612 68.959 101.553 71.341C100.76 72.8232 99.9924 74.0142 99.2516 74.9141C98.0875 75.761 97.2938 76.1846 96.8705 76.1846C96.6588 76.2904 96.2091 76.3433 95.5212 76.3433H93.6957C93.5369 76.2904 93.193 76.2639 92.6638 76.2639C92.1347 76.2639 91.3674 76.1316 90.3621 75.8669C90.3621 77.0315 90.6796 78.6989 91.3145 80.8692C92.0024 82.9866 92.558 84.2835 92.9813 84.7599C94.0925 85.6069 94.9656 86.1627 95.6006 86.4274C96.2355 86.6921 97.0822 86.7449 98.1404 86.5861C99.1987 86.3744 99.966 86.0038 100.442 85.4745L102.506 82.9336C103.829 81.1338 105.178 80.9751 106.554 82.4573C107.189 83.1454 107.427 83.8336 107.268 84.5217C107.162 85.1569 106.633 86.4538 105.681 88.4124C104.887 89.6828 104.04 90.7415 103.141 91.5884C101.5 92.4354 100.522 92.8589 100.204 92.8589C99.7279 92.9118 98.9871 92.8324 97.9817 92.6207C97.4526 92.8854 96.553 92.859 95.2831 92.5414C95.2831 92.4355 95.1243 92.3561 94.8069 92.3032C94.5423 92.3032 94.1719 92.2238 93.6957 92.065L93.8544 91.9856C93.7486 91.9856 93.4311 91.9856 92.902 91.9856L90.6796 90.7945L90.124 90.7944Z" fill="white"/>
<path d="M130.361 85.4746L129.885 84.1248L129.012 78.8048C128.748 77.7991 128.615 76.8992 128.615 76.1051L128.933 72.6115C128.933 72.0292 128.959 71.7117 129.012 71.6587C128.377 71.6587 127.425 72.4262 126.155 73.9613C126.049 74.1201 125.89 74.3847 125.679 74.7553C123.456 78.3019 122.133 82.5632 121.71 87.5391C121.287 88.439 120.731 88.8889 120.043 88.8889C118.615 88.5713 117.821 88.4125 117.662 88.4125L117.107 88.4918H116.075C114.858 88.386 114.064 87.9096 113.694 87.0626C113.482 86.798 113.376 86.1098 113.376 84.9981V83.8866L113.138 79.5194V73.0085C113.138 72.2674 113.085 71.3411 112.979 70.2294C112.873 69.0119 112.847 67.1062 112.9 64.5125C112.953 61.8657 112.926 60.463 112.82 60.3042C112.715 60.0925 112.662 59.8278 112.662 59.5101C112.662 59.1925 112.741 58.875 112.9 58.5574C113.059 58.2398 113.773 57.8956 115.043 57.5251C115.731 57.1016 116.313 56.8899 116.789 56.8899C117.53 57.0487 118.482 57.3663 119.646 57.8428C120.44 58.0015 120.837 58.7691 120.837 60.1454C120.943 62.4216 120.943 64.0625 120.837 65.0683C120.784 66.074 120.811 68.1121 120.916 71.1823C124.832 63.6656 128.324 59.1397 131.393 57.6046C131.658 57.3399 132.055 57.2076 132.584 57.2076C133.113 57.2076 133.722 57.4722 134.409 58.0016C135.097 58.5309 135.574 58.8749 135.838 59.0338C136.103 59.1925 136.394 59.4572 136.711 59.8278C137.082 60.1983 137.373 60.4365 137.584 60.5424C138.219 61.6011 138.352 64.0891 137.981 68.0062C137.928 68.5885 137.875 69.1178 137.822 69.5942C137.769 70.0177 137.743 70.9705 137.743 72.4526C137.743 73.9348 137.769 74.9671 137.822 75.5494C137.981 77.4021 138.06 78.4872 138.06 78.8048L138.457 81.8221C138.986 83.0396 139.251 83.9924 139.251 84.6806C139.304 85.3158 139.78 86.348 140.68 87.7773C141.05 88.5713 140.891 89.2065 140.203 89.6829C139.145 90.2123 138.563 90.424 138.457 90.3181C138.404 90.2652 138.113 90.3181 137.584 90.4768C137.055 90.6885 136.103 90.7415 134.727 90.6357C134.039 90.4769 133.351 90.0534 132.663 89.3652L131.473 88.1742C131.049 87.5389 130.758 86.8509 130.6 86.1098C130.335 85.8451 130.256 85.6333 130.361 85.4745L130.361 85.4746Z" fill="white"/>
<path d="M130.045 2.49149C128.046 2.75414 126.005 2.94952 124.095 3.66968C123.18 4.01451 122.411 4.64172 121.59 5.15719C120.201 6.02836 118.743 6.96239 117.642 8.19248C116.612 9.34269 115.873 10.8333 115.318 12.2637C114.677 13.9183 114.096 15.7319 113.843 17.4853C113.731 18.2616 113.578 18.9846 113.675 19.7828C113.997 22.4389 115.74 24.1147 118.04 25.2374C119.438 25.9195 120.632 26.2937 122.216 26.1352C122.776 26.0792 123.326 25.9239 123.886 25.8559C124.626 25.7662 125.471 25.7553 126.183 25.5365C126.674 25.3855 127.077 25.0833 127.54 24.8763C128.707 24.3545 129.845 23.8667 130.985 23.28C132.298 22.604 133.748 22.0691 134.952 21.1936C136.529 20.0461 137.771 18.0888 138.593 16.3365C138.874 15.7364 138.997 15.0919 139.171 14.4568C139.813 12.1202 140.068 9.64282 139.092 7.35547C138.646 6.3099 137.937 5.53774 137.144 4.74469C136.605 4.20583 136.05 3.66999 135.369 3.31012C134.59 2.89825 133.615 2.77126 132.759 2.62255C131.855 2.46549 130.967 2.37046 130.045 2.49149V2.49149Z" fill="white"/>
<path d="M142.99 4.37125C143.177 5.02112 143.527 5.62243 143.778 6.25101C144.251 7.43306 144.598 8.65292 144.824 9.90609C145.384 13.0072 145.077 16.4348 144.032 19.4093C143.477 20.9884 142.662 22.4757 141.991 24.0043C140.928 26.4288 140.033 28.9152 137.77 30.5014C137.32 30.817 136.799 30.9538 136.309 31.1875C134.912 31.8525 133.257 32.5075 131.715 32.7489C131.162 32.8356 130.608 32.6234 130.045 32.7034C127.99 32.9957 126.095 33.4336 123.991 33.2892C121.626 33.1272 119.167 32.4379 117.101 31.2702C116.419 30.8847 115.754 30.4739 115.117 30.0166C114.635 29.6702 114.206 29.2498 113.656 29.017C114.053 29.9086 114.883 30.4039 115.517 31.106C116.959 32.7026 118.408 34.2863 120.025 35.7141C121.707 37.1995 123.278 39.0604 125.452 39.8414C126.789 40.3219 128.124 40.4179 129.523 40.5138C130.69 40.5937 131.901 40.7082 133.073 40.5909C135.289 40.3693 137.449 39.4218 139.44 38.4815C141.009 37.7408 142.547 37.0305 143.807 35.7868C146.056 33.5667 147.437 30.9771 148.606 28.0771C149.272 26.4251 149.891 24.7501 150.07 22.96C150.187 21.7952 150.01 20.4691 149.897 19.3049C149.667 16.9315 149.164 14.7187 148.222 12.5169C147.677 11.2407 146.933 10.0919 146.319 8.86178C145.761 7.74207 145.097 6.71979 144.334 5.72885C143.946 5.22393 143.578 4.65206 142.99 4.37125V4.37125Z" fill="white"/>
</svg>
