<svg width="102" height="37" viewBox="0 0 102 37" fill="none" xmlns="http://www.w3.org/2000/svg">
<rect width="102" height="37" rx="2" fill="#555555"/>
<rect x="0.5" y="19.5" width="101" height="17" rx="1.5" fill="#EEEEEE" stroke="#555555"/>
<path d="M11.2261 28.959H7.94971L7.21387 31H6.15039L9.13672 23.1797H10.0391L13.0308 31H11.9727L11.2261 28.959ZM8.26123 28.1104H10.9199L9.58789 24.4526L8.26123 28.1104Z" fill="#555555"/>
<path d="M15.9288 30.2964C16.2833 30.2964 16.593 30.189 16.858 29.9741C17.123 29.7593 17.2698 29.4907 17.2984 29.1685H18.2384C18.2205 29.5015 18.1059 29.8184 17.8946 30.1191C17.6833 30.4199 17.4005 30.6598 17.046 30.8389C16.6951 31.0179 16.3227 31.1074 15.9288 31.1074C15.1374 31.1074 14.5072 30.8442 14.0382 30.3179C13.5727 29.7879 13.3399 29.0646 13.3399 28.1479V27.9814C13.3399 27.4157 13.4438 26.9126 13.6514 26.4722C13.8591 26.0317 14.1563 25.6898 14.543 25.4463C14.9333 25.2028 15.3935 25.0811 15.9234 25.0811C16.5751 25.0811 17.1158 25.2762 17.5455 25.6665C17.9788 26.0568 18.2097 26.5635 18.2384 27.1865H17.2984C17.2698 26.8105 17.1265 26.5026 16.8687 26.2627C16.6145 26.0192 16.2994 25.8975 15.9234 25.8975C15.4185 25.8975 15.0264 26.0801 14.7471 26.4453C14.4714 26.807 14.3336 27.3315 14.3336 28.019V28.207C14.3336 28.8766 14.4714 29.3923 14.7471 29.7539C15.0229 30.1156 15.4167 30.2964 15.9288 30.2964Z" fill="#555555"/>
<path d="M21.3566 30.2964C21.7111 30.2964 22.0208 30.189 22.2858 29.9741C22.5508 29.7593 22.6976 29.4907 22.7262 29.1685H23.6662C23.6483 29.5015 23.5337 29.8184 23.3224 30.1191C23.1112 30.4199 22.8283 30.6598 22.4738 30.8389C22.1229 31.0179 21.7505 31.1074 21.3566 31.1074C20.5653 31.1074 19.9351 30.8442 19.466 30.3179C19.0005 29.7879 18.7677 29.0646 18.7677 28.1479V27.9814C18.7677 27.4157 18.8716 26.9126 19.0793 26.4722C19.2869 26.0317 19.5841 25.6898 19.9709 25.4463C20.3612 25.2028 20.8213 25.0811 21.3512 25.0811C22.0029 25.0811 22.5436 25.2762 22.9733 25.6665C23.4066 26.0568 23.6375 26.5635 23.6662 27.1865H22.7262C22.6976 26.8105 22.5544 26.5026 22.2965 26.2627C22.0423 26.0192 21.7272 25.8975 21.3512 25.8975C20.8463 25.8975 20.4543 26.0801 20.175 26.4453C19.8992 26.807 19.7614 27.3315 19.7614 28.019V28.207C19.7614 28.8766 19.8992 29.3923 20.175 29.7539C20.4507 30.1156 20.8446 30.2964 21.3566 30.2964Z" fill="#555555"/>
<path d="M26.865 31.1074C26.0772 31.1074 25.4363 30.8496 24.9421 30.334C24.448 29.8148 24.2009 29.1219 24.2009 28.2554V28.0728C24.2009 27.4963 24.3101 26.9824 24.5286 26.5312C24.7506 26.0765 25.0585 25.722 25.4524 25.4678C25.8498 25.21 26.2795 25.0811 26.7414 25.0811C27.497 25.0811 28.0842 25.3299 28.5032 25.8276C28.9221 26.3254 29.1316 27.0379 29.1316 27.9653V28.3789H25.1946C25.2089 28.9518 25.3754 29.4155 25.6941 29.77C26.0163 30.1209 26.4246 30.2964 26.9187 30.2964C27.2696 30.2964 27.5668 30.2248 27.8103 30.0815C28.0538 29.9383 28.2668 29.7485 28.4495 29.5122L29.0564 29.9849C28.5694 30.7332 27.8389 31.1074 26.865 31.1074ZM26.7414 25.8975C26.3404 25.8975 26.0038 26.0443 25.7317 26.3379C25.4595 26.6279 25.2913 27.0361 25.2268 27.5625H28.1379V27.4873C28.1093 26.9824 27.9732 26.5921 27.7297 26.3164C27.4862 26.0371 27.1568 25.8975 26.7414 25.8975Z" fill="#555555"/>
<path d="M33.3402 29.4585C33.3402 29.1899 33.2381 28.9823 33.034 28.8354C32.8335 28.6851 32.4808 28.5562 31.9759 28.4487C31.4746 28.3413 31.0753 28.2124 30.7781 28.062C30.4845 27.9116 30.2661 27.7326 30.1229 27.5249C29.9832 27.3172 29.9134 27.0701 29.9134 26.7837C29.9134 26.3075 30.1139 25.9046 30.515 25.5752C30.9196 25.2458 31.4352 25.0811 32.0618 25.0811C32.7207 25.0811 33.2542 25.2511 33.6624 25.5913C34.0742 25.9315 34.2801 26.3665 34.2801 26.8965H33.2811C33.2811 26.6243 33.1647 26.3898 32.932 26.1929C32.7028 25.9959 32.4127 25.8975 32.0618 25.8975C31.7002 25.8975 31.4173 25.9762 31.2132 26.1338C31.0091 26.2913 30.9071 26.4972 30.9071 26.7515C30.9071 26.9914 31.0019 27.1722 31.1917 27.2939C31.3815 27.4157 31.7235 27.5321 32.2176 27.6431C32.7153 27.7541 33.1182 27.8866 33.4261 28.0405C33.734 28.1945 33.9614 28.3807 34.1082 28.5991C34.2586 28.814 34.3338 29.0771 34.3338 29.3887C34.3338 29.9079 34.1261 30.325 33.7108 30.6401C33.2954 30.9517 32.7565 31.1074 32.0941 31.1074C31.6286 31.1074 31.2168 31.0251 30.8587 30.8604C30.5006 30.6956 30.2196 30.4665 30.0154 30.1729C29.8149 29.8757 29.7147 29.5552 29.7147 29.2114H30.7083C30.7262 29.5444 30.8587 29.8094 31.1058 30.0063C31.3564 30.1997 31.6859 30.2964 32.0941 30.2964C32.47 30.2964 32.7708 30.2212 32.9964 30.0708C33.2256 29.9168 33.3402 29.7127 33.3402 29.4585Z" fill="#555555"/>
<path d="M35.0351 28.0405C35.0351 27.4712 35.1461 26.9591 35.3681 26.5044C35.5937 26.0496 35.9052 25.6987 36.3026 25.4517C36.7037 25.2046 37.1602 25.0811 37.6723 25.0811C38.4636 25.0811 39.1028 25.355 39.5897 25.9028C40.0803 26.4507 40.3256 27.1794 40.3256 28.0889V28.1587C40.3256 28.7244 40.2164 29.2329 39.9979 29.6841C39.7831 30.1317 39.4734 30.4808 39.0687 30.7314C38.6677 30.9821 38.2058 31.1074 37.683 31.1074C36.8952 31.1074 36.2561 30.8335 35.7655 30.2856C35.2785 29.7378 35.0351 29.0127 35.0351 28.1104V28.0405ZM36.0341 28.1587C36.0341 28.8032 36.1827 29.3206 36.4799 29.7109C36.7807 30.1012 37.1817 30.2964 37.683 30.2964C38.1879 30.2964 38.5889 30.0994 38.8861 29.7056C39.1833 29.3081 39.3319 28.7531 39.3319 28.0405C39.3319 27.4032 39.1798 26.8875 38.8754 26.4937C38.5746 26.0962 38.1736 25.8975 37.6723 25.8975C37.1817 25.8975 36.786 26.0926 36.4853 26.4829C36.1845 26.8732 36.0341 27.4318 36.0341 28.1587Z" fill="#555555"/>
<path d="M47.2281 31C47.1708 30.8854 47.1242 30.6813 47.0884 30.3877C46.6265 30.8675 46.0751 31.1074 45.4341 31.1074C44.8612 31.1074 44.3904 30.9463 44.0215 30.624C43.6563 30.2982 43.4737 29.8864 43.4737 29.3887C43.4737 28.7835 43.7029 28.3145 44.1612 27.9814C44.6231 27.6449 45.2712 27.4766 46.1055 27.4766H47.0723V27.02C47.0723 26.6727 46.9685 26.397 46.7608 26.1929C46.5531 25.9852 46.247 25.8813 45.8423 25.8813C45.4879 25.8813 45.1906 25.9709 44.9507 26.1499C44.7108 26.3289 44.5909 26.5456 44.5909 26.7998H43.5919C43.5919 26.5098 43.6939 26.2305 43.898 25.9619C44.1057 25.6898 44.385 25.4749 44.7359 25.3174C45.0904 25.1598 45.4789 25.0811 45.9014 25.0811C46.571 25.0811 47.0956 25.2493 47.4752 25.5859C47.8547 25.9189 48.0517 26.3791 48.066 26.9663V29.6411C48.066 30.1746 48.134 30.599 48.2701 30.9141V31H47.2281ZM45.5792 30.2427C45.8907 30.2427 46.1861 30.1621 46.4654 30.001C46.7447 29.8398 46.947 29.6304 47.0723 29.3726V28.1802H46.2935C45.0761 28.1802 44.4673 28.5365 44.4673 29.249C44.4673 29.5605 44.5712 29.804 44.7789 29.9795C44.9865 30.1549 45.2533 30.2427 45.5792 30.2427Z" fill="#555555"/>
<path d="M55.0759 29.4585C55.0759 29.1899 54.9738 28.9823 54.7697 28.8354C54.5692 28.6851 54.2165 28.5562 53.7116 28.4487C53.2103 28.3413 52.8111 28.2124 52.5139 28.062C52.2203 27.9116 52.0018 27.7326 51.8586 27.5249C51.719 27.3172 51.6491 27.0701 51.6491 26.7837C51.6491 26.3075 51.8497 25.9046 52.2507 25.5752C52.6553 25.2458 53.1709 25.0811 53.7976 25.0811C54.4564 25.0811 54.99 25.2511 55.3982 25.5913C55.8099 25.9315 56.0158 26.3665 56.0158 26.8965H55.0168C55.0168 26.6243 54.9004 26.3898 54.6677 26.1929C54.4385 25.9959 54.1485 25.8975 53.7976 25.8975C53.4359 25.8975 53.153 25.9762 52.9489 26.1338C52.7448 26.2913 52.6428 26.4972 52.6428 26.7515C52.6428 26.9914 52.7377 27.1722 52.9275 27.2939C53.1172 27.4157 53.4592 27.5321 53.9533 27.6431C54.4511 27.7541 54.8539 27.8866 55.1618 28.0405C55.4698 28.1945 55.6972 28.3807 55.844 28.5991C55.9944 28.814 56.0695 29.0771 56.0695 29.3887C56.0695 29.9079 55.8619 30.325 55.4465 30.6401C55.0311 30.9517 54.4922 31.1074 53.8298 31.1074C53.3643 31.1074 52.9525 31.0251 52.5945 30.8604C52.2364 30.6956 51.9553 30.4665 51.7512 30.1729C51.5507 29.8757 51.4504 29.5552 51.4504 29.2114H52.4441C52.462 29.5444 52.5945 29.8094 52.8415 30.0063C53.0922 30.1997 53.4216 30.2964 53.8298 30.2964C54.2058 30.2964 54.5066 30.2212 54.7321 30.0708C54.9613 29.9168 55.0759 29.7127 55.0759 29.4585Z" fill="#555555"/>
<path d="M60.6219 30.4253C60.2352 30.88 59.6676 31.1074 58.9192 31.1074C58.2998 31.1074 57.8271 30.9284 57.5013 30.5703C57.179 30.2087 57.0161 29.6751 57.0125 28.9697V25.1885H58.0062V28.9429C58.0062 29.8237 58.3642 30.2642 59.0804 30.2642C59.8395 30.2642 60.3444 29.9813 60.595 29.4155V25.1885H61.5887V31H60.6434L60.6219 30.4253Z" fill="#555555"/>
<path d="M66.1571 29.4585C66.1571 29.1899 66.0551 28.9823 65.851 28.8354C65.6504 28.6851 65.2977 28.5562 64.7929 28.4487C64.2915 28.3413 63.8923 28.2124 63.5951 28.062C63.3015 27.9116 63.0831 27.7326 62.9398 27.5249C62.8002 27.3172 62.7304 27.0701 62.7304 26.7837C62.7304 26.3075 62.9309 25.9046 63.3319 25.5752C63.7365 25.2458 64.2522 25.0811 64.8788 25.0811C65.5376 25.0811 66.0712 25.2511 66.4794 25.5913C66.8912 25.9315 67.097 26.3665 67.097 26.8965H66.098C66.098 26.6243 65.9817 26.3898 65.7489 26.1929C65.5197 25.9959 65.2297 25.8975 64.8788 25.8975C64.5171 25.8975 64.2343 25.9762 64.0302 26.1338C63.8261 26.2913 63.724 26.4972 63.724 26.7515C63.724 26.9914 63.8189 27.1722 64.0087 27.2939C64.1984 27.4157 64.5404 27.5321 65.0345 27.6431C65.5323 27.7541 65.9351 27.8866 66.243 28.0405C66.551 28.1945 66.7784 28.3807 66.9252 28.5991C67.0756 28.814 67.1508 29.0771 67.1508 29.3887C67.1508 29.9079 66.9431 30.325 66.5277 30.6401C66.1123 30.9517 65.5734 31.1074 64.911 31.1074C64.4455 31.1074 64.0337 31.0251 63.6757 30.8604C63.3176 30.6956 63.0365 30.4665 62.8324 30.1729C62.6319 29.8757 62.5316 29.5552 62.5316 29.2114H63.5253C63.5432 29.5444 63.6757 29.8094 63.9227 30.0063C64.1734 30.1997 64.5028 30.2964 64.911 30.2964C65.287 30.2964 65.5878 30.2212 65.8134 30.0708C66.0425 29.9168 66.1571 29.7127 66.1571 29.4585Z" fill="#555555"/>
<path d="M70.272 28.0459C70.272 27.1543 70.4833 26.4382 70.9058 25.8975C71.3283 25.3532 71.8815 25.0811 72.5655 25.0811C73.2458 25.0811 73.7847 25.3138 74.1822 25.7793V22.75H75.1758V31H74.2627L74.2144 30.377C73.8169 30.8639 73.2637 31.1074 72.5547 31.1074C71.8815 31.1074 71.3319 30.8317 70.9058 30.2803C70.4833 29.7288 70.272 29.0091 70.272 28.1211V28.0459ZM71.2657 28.1587C71.2657 28.8175 71.4017 29.3332 71.6739 29.7056C71.946 30.078 72.322 30.2642 72.8018 30.2642C73.432 30.2642 73.8921 29.9813 74.1822 29.4155V26.7461C73.885 26.1982 73.4284 25.9243 72.8125 25.9243C72.3256 25.9243 71.946 26.1123 71.6739 26.4883C71.4017 26.8643 71.2657 27.4211 71.2657 28.1587Z" fill="#555555"/>
<path d="M79.9806 31C79.9233 30.8854 79.8767 30.6813 79.8409 30.3877C79.379 30.8675 78.8276 31.1074 78.1866 31.1074C77.6137 31.1074 77.1429 30.9463 76.774 30.624C76.4088 30.2982 76.2262 29.8864 76.2262 29.3887C76.2262 28.7835 76.4554 28.3145 76.9137 27.9814C77.3756 27.6449 78.0237 27.4766 78.858 27.4766H79.8248V27.02C79.8248 26.6727 79.721 26.397 79.5133 26.1929C79.3056 25.9852 78.9995 25.8813 78.5948 25.8813C78.2403 25.8813 77.9431 25.9709 77.7032 26.1499C77.4633 26.3289 77.3434 26.5456 77.3434 26.7998H76.3444C76.3444 26.5098 76.4464 26.2305 76.6505 25.9619C76.8582 25.6898 77.1375 25.4749 77.4884 25.3174C77.8429 25.1598 78.2314 25.0811 78.6539 25.0811C79.3235 25.0811 79.8481 25.2493 80.2277 25.5859C80.6072 25.9189 80.8042 26.3791 80.8185 26.9663V29.6411C80.8185 30.1746 80.8865 30.599 81.0226 30.9141V31H79.9806ZM78.3317 30.2427C78.6432 30.2427 78.9386 30.1621 79.2179 30.001C79.4972 29.8398 79.6995 29.6304 79.8248 29.3726V28.1802H79.046C77.8286 28.1802 77.2198 28.5365 77.2198 29.249C77.2198 29.5605 77.3237 29.804 77.5314 29.9795C77.739 30.1549 78.0058 30.2427 78.3317 30.2427Z" fill="#555555"/>
<path d="M83.3942 23.7812V25.1885H84.4792V25.9565H83.3942V29.5605C83.3942 29.7933 83.4426 29.9688 83.5393 30.0869C83.6359 30.2015 83.8007 30.2588 84.0334 30.2588C84.148 30.2588 84.3055 30.2373 84.5061 30.1943V31C84.2447 31.0716 83.9904 31.1074 83.7434 31.1074C83.2994 31.1074 82.9646 30.9731 82.739 30.7046C82.5134 30.436 82.4006 30.0547 82.4006 29.5605V25.9565H81.3425V25.1885H82.4006V23.7812H83.3942Z" fill="#555555"/>
<path d="M84.9441 28.0405C84.9441 27.4712 85.0551 26.9591 85.2771 26.5044C85.5027 26.0496 85.8142 25.6987 86.2117 25.4517C86.6127 25.2046 87.0693 25.0811 87.5813 25.0811C88.3727 25.0811 89.0118 25.355 89.4988 25.9028C89.9894 26.4507 90.2346 27.1794 90.2346 28.0889V28.1587C90.2346 28.7244 90.1254 29.2329 89.907 29.6841C89.6922 30.1317 89.3824 30.4808 88.9778 30.7314C88.5768 30.9821 88.1149 31.1074 87.5921 31.1074C86.8043 31.1074 86.1652 30.8335 85.6746 30.2856C85.1876 29.7378 84.9441 29.0127 84.9441 28.1104V28.0405ZM85.9431 28.1587C85.9431 28.8032 86.0917 29.3206 86.3889 29.7109C86.6897 30.1012 87.0908 30.2964 87.5921 30.2964C88.097 30.2964 88.498 30.0994 88.7952 29.7056C89.0924 29.3081 89.241 28.7531 89.241 28.0405C89.241 27.4032 89.0888 26.8875 88.7845 26.4937C88.4837 26.0962 88.0826 25.8975 87.5813 25.8975C87.0908 25.8975 86.6951 26.0926 86.3943 26.4829C86.0935 26.8732 85.9431 27.4318 85.9431 28.1587Z" fill="#555555"/>
<path d="M94.5345 29.4585C94.5345 29.1899 94.4325 28.9823 94.2284 28.8354C94.0279 28.6851 93.6752 28.5562 93.1703 28.4487C92.669 28.3413 92.2697 28.2124 91.9725 28.062C91.6789 27.9116 91.4605 27.7326 91.3172 27.5249C91.1776 27.3172 91.1078 27.0701 91.1078 26.7837C91.1078 26.3075 91.3083 25.9046 91.7093 25.5752C92.114 25.2458 92.6296 25.0811 93.2562 25.0811C93.9151 25.0811 94.4486 25.2511 94.8568 25.5913C95.2686 25.9315 95.4745 26.3665 95.4745 26.8965H94.4754C94.4754 26.6243 94.3591 26.3898 94.1263 26.1929C93.8972 25.9959 93.6071 25.8975 93.2562 25.8975C92.8946 25.8975 92.6117 25.9762 92.4076 26.1338C92.2035 26.2913 92.1014 26.4972 92.1014 26.7515C92.1014 26.9914 92.1963 27.1722 92.3861 27.2939C92.5759 27.4157 92.9178 27.5321 93.412 27.6431C93.9097 27.7541 94.3125 27.8866 94.6205 28.0405C94.9284 28.1945 95.1558 28.3807 95.3026 28.5991C95.453 28.814 95.5282 29.0771 95.5282 29.3887C95.5282 29.9079 95.3205 30.325 94.9051 30.6401C94.4898 30.9517 93.9509 31.1074 93.2884 31.1074C92.8229 31.1074 92.4112 31.0251 92.0531 30.8604C91.695 30.6956 91.4139 30.4665 91.2098 30.1729C91.0093 29.8757 90.909 29.5552 90.909 29.2114H91.9027C91.9206 29.5444 92.0531 29.8094 92.3002 30.0063C92.5508 30.1997 92.8802 30.2964 93.2884 30.2964C93.6644 30.2964 93.9652 30.2212 94.1908 30.0708C94.4199 29.9168 94.5345 29.7127 94.5345 29.4585Z" fill="#555555"/>
<path d="M11.3979 9.54639H8.11621V13H7.08496V5.17969H11.9297V6.02832H8.11621V8.70312H11.3979V9.54639Z" fill="#EEEEEE"/>
<path d="M16.4146 13C16.3573 12.8854 16.3107 12.6813 16.2749 12.3877C15.813 12.8675 15.2616 13.1074 14.6206 13.1074C14.0477 13.1074 13.5768 12.9463 13.208 12.624C12.8428 12.2982 12.6602 11.8864 12.6602 11.3887C12.6602 10.7835 12.8893 10.3145 13.3477 9.98145C13.8096 9.64486 14.4577 9.47656 15.292 9.47656H16.2588V9.02002C16.2588 8.67269 16.1549 8.39697 15.9473 8.19287C15.7396 7.98519 15.4334 7.88135 15.0288 7.88135C14.6743 7.88135 14.3771 7.97087 14.1372 8.1499C13.8973 8.32894 13.7773 8.54557 13.7773 8.7998H12.7783C12.7783 8.50977 12.8804 8.23047 13.0845 7.96191C13.2922 7.68978 13.5715 7.47493 13.9224 7.31738C14.2769 7.15983 14.6654 7.08105 15.0879 7.08105C15.7575 7.08105 16.2821 7.24935 16.6616 7.58594C17.0412 7.91895 17.2381 8.37907 17.2524 8.96631V11.6411C17.2524 12.1746 17.3205 12.599 17.4565 12.9141V13H16.4146ZM14.7656 12.2427C15.0771 12.2427 15.3726 12.1621 15.6519 12.001C15.9312 11.8398 16.1335 11.6304 16.2588 11.3726V10.1802H15.48C14.2625 10.1802 13.6538 10.5365 13.6538 11.249C13.6538 11.5605 13.7576 11.804 13.9653 11.9795C14.173 12.1549 14.4398 12.2427 14.7656 12.2427Z" fill="#EEEEEE"/>
<path d="M19.8896 13H18.896V7.18848H19.8896V13ZM18.8154 5.64697C18.8154 5.48584 18.8638 5.34977 18.9604 5.23877C19.0607 5.12777 19.2075 5.07227 19.4009 5.07227C19.5942 5.07227 19.741 5.12777 19.8413 5.23877C19.9416 5.34977 19.9917 5.48584 19.9917 5.64697C19.9917 5.80811 19.9416 5.94238 19.8413 6.0498C19.741 6.15723 19.5942 6.21094 19.4009 6.21094C19.2075 6.21094 19.0607 6.15723 18.9604 6.0498C18.8638 5.94238 18.8154 5.80811 18.8154 5.64697Z" fill="#EEEEEE"/>
<path d="M24.2939 8.08008C24.1436 8.05501 23.9806 8.04248 23.8052 8.04248C23.1535 8.04248 22.7113 8.31999 22.4785 8.875V13H21.4849V7.18848H22.4517L22.4678 7.85986C22.7936 7.34066 23.2555 7.08105 23.8535 7.08105C24.0469 7.08105 24.1937 7.10612 24.2939 7.15625V8.08008Z" fill="#EEEEEE"/>
<path d="M33.0864 11.6304L34.2036 7.18848H35.1973L33.5054 13H32.6997L31.2871 8.5957L29.9121 13H29.1064L27.4199 7.18848H28.4082L29.5522 11.5391L30.9058 7.18848H31.7061L33.0864 11.6304Z" fill="#EEEEEE"/>
<path d="M38.624 13.1074C37.8363 13.1074 37.1953 12.8496 36.7012 12.334C36.207 11.8148 35.96 11.1219 35.96 10.2554V10.0728C35.96 9.49626 36.0692 8.98242 36.2876 8.53125C36.5096 8.0765 36.8175 7.72201 37.2114 7.46777C37.6089 7.20996 38.0386 7.08105 38.5005 7.08105C39.256 7.08105 39.8433 7.32992 40.2622 7.82764C40.6812 8.32536 40.8906 9.03792 40.8906 9.96533V10.3789H36.9536C36.9679 10.9518 37.1344 11.4155 37.4531 11.77C37.7754 12.1209 38.1836 12.2964 38.6777 12.2964C39.0286 12.2964 39.3258 12.2248 39.5693 12.0815C39.8128 11.9383 40.0259 11.7485 40.2085 11.5122L40.8154 11.9849C40.3285 12.7332 39.598 13.1074 38.624 13.1074ZM38.5005 7.89746C38.0994 7.89746 37.7629 8.04427 37.4907 8.33789C37.2186 8.62793 37.0503 9.03613 36.9858 9.5625H39.897V9.4873C39.8683 8.98242 39.7323 8.59212 39.4888 8.31641C39.2453 8.03711 38.9159 7.89746 38.5005 7.89746Z" fill="#EEEEEE"/>
<path d="M46.9653 10.1587C46.9653 11.0467 46.7612 11.7611 46.353 12.3018C45.9448 12.8389 45.397 13.1074 44.7095 13.1074C43.9754 13.1074 43.4079 12.8478 43.0068 12.3286L42.9585 13H42.0454V4.75H43.0391V7.82764C43.4401 7.32992 43.9933 7.08105 44.6987 7.08105C45.4041 7.08105 45.9574 7.34782 46.3584 7.88135C46.763 8.41488 46.9653 9.14535 46.9653 10.0728V10.1587ZM45.9717 10.0459C45.9717 9.36914 45.841 8.84635 45.5796 8.47754C45.3182 8.10872 44.9422 7.92432 44.4517 7.92432C43.7964 7.92432 43.3255 8.22868 43.0391 8.8374V11.3511C43.3434 11.9598 43.8179 12.2642 44.4624 12.2642C44.9386 12.2642 45.3092 12.0798 45.5742 11.7109C45.8392 11.3421 45.9717 10.7871 45.9717 10.0459Z" fill="#EEEEEE"/>
<path d="M54.5386 13C54.4813 12.8854 54.4347 12.6813 54.3989 12.3877C53.937 12.8675 53.3856 13.1074 52.7446 13.1074C52.1717 13.1074 51.7008 12.9463 51.332 12.624C50.9668 12.2982 50.7842 11.8864 50.7842 11.3887C50.7842 10.7835 51.0133 10.3145 51.4717 9.98145C51.9336 9.64486 52.5817 9.47656 53.416 9.47656H54.3828V9.02002C54.3828 8.67269 54.279 8.39697 54.0713 8.19287C53.8636 7.98519 53.5575 7.88135 53.1528 7.88135C52.7983 7.88135 52.5011 7.97087 52.2612 8.1499C52.0213 8.32894 51.9014 8.54557 51.9014 8.7998H50.9023C50.9023 8.50977 51.0044 8.23047 51.2085 7.96191C51.4162 7.68978 51.6955 7.47493 52.0464 7.31738C52.4009 7.15983 52.7894 7.08105 53.2119 7.08105C53.8815 7.08105 54.4061 7.24935 54.7856 7.58594C55.1652 7.91895 55.3621 8.37907 55.3765 8.96631V11.6411C55.3765 12.1746 55.4445 12.599 55.5806 12.9141V13H54.5386ZM52.8896 12.2427C53.2012 12.2427 53.4966 12.1621 53.7759 12.001C54.0552 11.8398 54.2575 11.6304 54.3828 11.3726V10.1802H53.604C52.3866 10.1802 51.7778 10.5365 51.7778 11.249C51.7778 11.5605 51.8817 11.804 52.0894 11.9795C52.297 12.1549 52.5638 12.2427 52.8896 12.2427Z" fill="#EEEEEE"/>
<path d="M57.874 7.18848L57.9062 7.91895C58.3503 7.36035 58.9303 7.08105 59.6465 7.08105C60.8747 7.08105 61.4941 7.77393 61.5049 9.15967V13H60.5112V9.1543C60.5076 8.73535 60.411 8.42562 60.2212 8.2251C60.035 8.02458 59.7432 7.92432 59.3457 7.92432C59.0234 7.92432 58.7406 8.01025 58.4971 8.18213C58.2536 8.354 58.0638 8.57959 57.9277 8.85889V13H56.9341V7.18848H57.874Z" fill="#EEEEEE"/>
<path d="M66.5913 13C66.534 12.8854 66.4875 12.6813 66.4517 12.3877C65.9897 12.8675 65.4383 13.1074 64.7974 13.1074C64.2244 13.1074 63.7536 12.9463 63.3848 12.624C63.0195 12.2982 62.8369 11.8864 62.8369 11.3887C62.8369 10.7835 63.0661 10.3145 63.5244 9.98145C63.9863 9.64486 64.6344 9.47656 65.4688 9.47656H66.4355V9.02002C66.4355 8.67269 66.3317 8.39697 66.124 8.19287C65.9163 7.98519 65.6102 7.88135 65.2056 7.88135C64.8511 7.88135 64.5539 7.97087 64.314 8.1499C64.0741 8.32894 63.9541 8.54557 63.9541 8.7998H62.9551C62.9551 8.50977 63.0571 8.23047 63.2612 7.96191C63.4689 7.68978 63.7482 7.47493 64.0991 7.31738C64.4536 7.15983 64.8421 7.08105 65.2646 7.08105C65.9342 7.08105 66.4588 7.24935 66.8384 7.58594C67.2179 7.91895 67.4149 8.37907 67.4292 8.96631V11.6411C67.4292 12.1746 67.4972 12.599 67.6333 12.9141V13H66.5913ZM64.9424 12.2427C65.2539 12.2427 65.5493 12.1621 65.8286 12.001C66.1079 11.8398 66.3102 11.6304 66.4355 11.3726V10.1802H65.6567C64.4393 10.1802 63.8306 10.5365 63.8306 11.249C63.8306 11.5605 63.9344 11.804 64.1421 11.9795C64.3498 12.1549 64.6165 12.2427 64.9424 12.2427Z" fill="#EEEEEE"/>
<path d="M70.0664 13H69.0728V4.75H70.0664V13Z" fill="#EEEEEE"/>
<path d="M73.563 11.5444L74.9165 7.18848H75.98L73.6436 13.897C73.2819 14.8638 72.7072 15.3472 71.9194 15.3472L71.7314 15.3311L71.3608 15.2612V14.4556L71.6294 14.4771C71.966 14.4771 72.2274 14.409 72.4136 14.2729C72.6034 14.1369 72.7591 13.888 72.8809 13.5264L73.1011 12.9355L71.0278 7.18848H72.1128L73.563 11.5444Z" fill="#EEEEEE"/>
<path d="M78.2197 5.78125V7.18848H79.3047V7.95654H78.2197V11.5605C78.2197 11.7933 78.2681 11.9688 78.3647 12.0869C78.4614 12.2015 78.6261 12.2588 78.8589 12.2588C78.9735 12.2588 79.131 12.2373 79.3315 12.1943V13C79.0701 13.0716 78.8159 13.1074 78.5688 13.1074C78.1248 13.1074 77.79 12.9731 77.5645 12.7046C77.3389 12.436 77.2261 12.0547 77.2261 11.5605V7.95654H76.168V7.18848H77.2261V5.78125H78.2197Z" fill="#EEEEEE"/>
<path d="M81.5498 13H80.5562V7.18848H81.5498V13ZM80.4756 5.64697C80.4756 5.48584 80.5239 5.34977 80.6206 5.23877C80.7209 5.12777 80.8677 5.07227 81.061 5.07227C81.2544 5.07227 81.4012 5.12777 81.5015 5.23877C81.6017 5.34977 81.6519 5.48584 81.6519 5.64697C81.6519 5.80811 81.6017 5.94238 81.5015 6.0498C81.4012 6.15723 81.2544 6.21094 81.061 6.21094C80.8677 6.21094 80.7209 6.15723 80.6206 6.0498C80.5239 5.94238 80.4756 5.80811 80.4756 5.64697Z" fill="#EEEEEE"/>
<path d="M85.4761 12.2964C85.8306 12.2964 86.1403 12.189 86.4053 11.9741C86.6702 11.7593 86.8171 11.4907 86.8457 11.1685H87.7856C87.7677 11.5015 87.6532 11.8184 87.4419 12.1191C87.2306 12.4199 86.9478 12.6598 86.5933 12.8389C86.2424 13.0179 85.87 13.1074 85.4761 13.1074C84.6847 13.1074 84.0545 12.8442 83.5854 12.3179C83.12 11.7879 82.8872 11.0646 82.8872 10.1479V9.98145C82.8872 9.41569 82.991 8.9126 83.1987 8.47217C83.4064 8.03174 83.7036 7.68978 84.0903 7.44629C84.4806 7.2028 84.9408 7.08105 85.4707 7.08105C86.1224 7.08105 86.6631 7.2762 87.0928 7.6665C87.526 8.0568 87.757 8.56348 87.7856 9.18652H86.8457C86.8171 8.81055 86.6738 8.5026 86.416 8.2627C86.1618 8.01921 85.8467 7.89746 85.4707 7.89746C84.9658 7.89746 84.5737 8.08008 84.2944 8.44531C84.0187 8.80697 83.8809 9.33154 83.8809 10.019V10.207C83.8809 10.8766 84.0187 11.3923 84.2944 11.7539C84.5701 12.1156 84.964 12.2964 85.4761 12.2964Z" fill="#EEEEEE"/>
<path d="M92.2866 11.4585C92.2866 11.1899 92.1846 10.9823 91.9805 10.8354C91.7799 10.6851 91.4272 10.5562 90.9224 10.4487C90.4211 10.3413 90.0218 10.2124 89.7246 10.062C89.431 9.91162 89.2126 9.73258 89.0693 9.5249C88.9297 9.31722 88.8599 9.07015 88.8599 8.78369C88.8599 8.30745 89.0604 7.90462 89.4614 7.5752C89.866 7.24577 90.3817 7.08105 91.0083 7.08105C91.6672 7.08105 92.2007 7.25114 92.6089 7.59131C93.0207 7.93148 93.2266 8.36654 93.2266 8.89648H92.2275C92.2275 8.62435 92.1112 8.38981 91.8784 8.19287C91.6493 7.99593 91.3592 7.89746 91.0083 7.89746C90.6466 7.89746 90.3638 7.97624 90.1597 8.13379C89.9556 8.29134 89.8535 8.49723 89.8535 8.75146C89.8535 8.99137 89.9484 9.1722 90.1382 9.29395C90.328 9.41569 90.6699 9.53206 91.1641 9.64307C91.6618 9.75407 92.0646 9.88656 92.3726 10.0405C92.6805 10.1945 92.9079 10.3807 93.0547 10.5991C93.2051 10.814 93.2803 11.0771 93.2803 11.3887C93.2803 11.9079 93.0726 12.325 92.6572 12.6401C92.2419 12.9517 91.703 13.1074 91.0405 13.1074C90.575 13.1074 90.1632 13.0251 89.8052 12.8604C89.4471 12.6956 89.166 12.4665 88.9619 12.1729C88.7614 11.8757 88.6611 11.5552 88.6611 11.2114H89.6548C89.6727 11.5444 89.8052 11.8094 90.0522 12.0063C90.3029 12.1997 90.6323 12.2964 91.0405 12.2964C91.4165 12.2964 91.7173 12.2212 91.9429 12.0708C92.172 11.9168 92.2866 11.7127 92.2866 11.4585Z" fill="#EEEEEE"/>
</svg>
