<svg width="185" height="78" viewBox="0 0 185 78" fill="none" xmlns="http://www.w3.org/2000/svg">
<circle cx="92" cy="39" r="38.5" fill="#EEEEEE" stroke="#555555"/>
<path d="M63.4678 47.8906V55H62.54V47.8906H63.4678ZM65.7529 47.8906V48.6621H60.2598V47.8906H65.7529Z" fill="#555555"/>
<path d="M66.7031 50.5469V55H65.7998V49.7168H66.6787L66.7031 50.5469ZM68.3535 49.6875L68.3486 50.5273C68.2738 50.5111 68.2021 50.5013 68.1338 50.498C68.0687 50.4915 67.9938 50.4883 67.9092 50.4883C67.7008 50.4883 67.5169 50.5208 67.3574 50.5859C67.1979 50.651 67.0628 50.7422 66.9521 50.8594C66.8415 50.9766 66.7536 51.1165 66.6885 51.2793C66.6266 51.4388 66.5859 51.6146 66.5664 51.8066L66.3125 51.9531C66.3125 51.6341 66.3434 51.3346 66.4053 51.0547C66.4704 50.7747 66.5697 50.5273 66.7031 50.3125C66.8366 50.0944 67.0059 49.9251 67.2109 49.8047C67.4193 49.681 67.6667 49.6191 67.9531 49.6191C68.0182 49.6191 68.0931 49.6273 68.1777 49.6436C68.2624 49.6566 68.321 49.6712 68.3535 49.6875Z" fill="#555555"/>
<path d="M71.9209 53.7793V49.7168H72.8291V55H71.9648L71.9209 53.7793ZM72.0918 52.666L72.4678 52.6562C72.4678 53.0078 72.4303 53.3333 72.3555 53.6328C72.2839 53.929 72.1667 54.1862 72.0039 54.4043C71.8411 54.6224 71.6279 54.7933 71.3643 54.917C71.1006 55.0374 70.7799 55.0977 70.4023 55.0977C70.1452 55.0977 69.9092 55.0602 69.6943 54.9854C69.4827 54.9105 69.3005 54.7949 69.1475 54.6387C68.9945 54.4824 68.8757 54.279 68.791 54.0283C68.7096 53.7777 68.6689 53.4766 68.6689 53.125V49.7168H69.5723V53.1348C69.5723 53.3724 69.5983 53.5693 69.6504 53.7256C69.7057 53.8786 69.779 54.0007 69.8701 54.0918C69.9645 54.1797 70.0687 54.2415 70.1826 54.2773C70.2998 54.3132 70.4202 54.3311 70.5439 54.3311C70.9281 54.3311 71.2324 54.2578 71.457 54.1113C71.6816 53.9616 71.8428 53.7614 71.9404 53.5107C72.0413 53.2568 72.0918 52.9753 72.0918 52.666Z" fill="#555555"/>
<path d="M75.1904 54.4531L76.6602 49.7168H77.627L75.5078 55.8154C75.459 55.9456 75.3939 56.0856 75.3125 56.2354C75.2344 56.3883 75.1335 56.5332 75.0098 56.6699C74.8861 56.8066 74.7363 56.9173 74.5605 57.002C74.388 57.0898 74.1813 57.1338 73.9404 57.1338C73.8688 57.1338 73.7777 57.124 73.667 57.1045C73.5563 57.085 73.4782 57.0687 73.4326 57.0557L73.4277 56.3232C73.4538 56.3265 73.4945 56.3298 73.5498 56.333C73.6084 56.3395 73.6491 56.3428 73.6719 56.3428C73.877 56.3428 74.0511 56.3151 74.1943 56.2598C74.3376 56.2077 74.458 56.1182 74.5557 55.9912C74.6566 55.8675 74.7428 55.6966 74.8145 55.4785L75.1904 54.4531ZM74.1113 49.7168L75.4834 53.8184L75.7178 54.7705L75.0684 55.1025L73.125 49.7168H74.1113Z" fill="#555555"/>
<path d="M82.0371 54.3555C82.252 54.3555 82.4505 54.3115 82.6328 54.2236C82.8151 54.1357 82.9648 54.0153 83.082 53.8623C83.1992 53.7061 83.266 53.5286 83.2822 53.3301H84.1416C84.1253 53.6426 84.0195 53.9339 83.8242 54.2041C83.6322 54.471 83.3799 54.6875 83.0674 54.8535C82.7549 55.0163 82.4115 55.0977 82.0371 55.0977C81.64 55.0977 81.2933 55.0277 80.9971 54.8877C80.7041 54.7477 80.46 54.5557 80.2646 54.3115C80.0726 54.0674 79.9277 53.7874 79.8301 53.4717C79.7357 53.1527 79.6885 52.8158 79.6885 52.4609V52.2559C79.6885 51.901 79.7357 51.5658 79.8301 51.25C79.9277 50.931 80.0726 50.6494 80.2646 50.4053C80.46 50.1611 80.7041 49.9691 80.9971 49.8291C81.2933 49.6891 81.64 49.6191 82.0371 49.6191C82.4505 49.6191 82.8118 49.7038 83.1211 49.873C83.4303 50.0391 83.6729 50.2669 83.8486 50.5566C84.0277 50.8431 84.1253 51.1686 84.1416 51.5332H83.2822C83.266 51.3151 83.2041 51.1182 83.0967 50.9424C82.9925 50.7666 82.8493 50.6266 82.667 50.5225C82.488 50.415 82.278 50.3613 82.0371 50.3613C81.7604 50.3613 81.5277 50.4167 81.3389 50.5273C81.1533 50.6348 81.0052 50.7812 80.8945 50.9668C80.7871 51.1491 80.709 51.3525 80.6602 51.5771C80.6146 51.7985 80.5918 52.0247 80.5918 52.2559V52.4609C80.5918 52.6921 80.6146 52.9199 80.6602 53.1445C80.7057 53.3691 80.7822 53.5726 80.8896 53.7549C81.0003 53.9372 81.1484 54.0837 81.334 54.1943C81.5228 54.3018 81.7572 54.3555 82.0371 54.3555Z" fill="#555555"/>
<path d="M87.7725 54.0967V51.377C87.7725 51.1686 87.7301 50.988 87.6455 50.835C87.5641 50.6787 87.4404 50.5583 87.2744 50.4736C87.1084 50.389 86.9033 50.3467 86.6592 50.3467C86.4313 50.3467 86.2311 50.3857 86.0586 50.4639C85.8893 50.542 85.7559 50.6445 85.6582 50.7715C85.5638 50.8984 85.5166 51.0352 85.5166 51.1816H84.6133C84.6133 50.9928 84.6621 50.8057 84.7598 50.6201C84.8574 50.4346 84.9974 50.2669 85.1797 50.1172C85.3652 49.9642 85.5866 49.8438 85.8438 49.7559C86.1042 49.6647 86.3939 49.6191 86.7129 49.6191C87.097 49.6191 87.4355 49.6842 87.7285 49.8145C88.0247 49.9447 88.2559 50.1416 88.4219 50.4053C88.5911 50.6657 88.6758 50.9928 88.6758 51.3867V53.8477C88.6758 54.0234 88.6904 54.2106 88.7197 54.4092C88.7523 54.6077 88.7995 54.7786 88.8613 54.9219V55H87.9189C87.8734 54.8958 87.8376 54.7575 87.8115 54.585C87.7855 54.4092 87.7725 54.2464 87.7725 54.0967ZM87.9287 51.7969L87.9385 52.4316H87.0254C86.7682 52.4316 86.5387 52.4528 86.3369 52.4951C86.1351 52.5342 85.9658 52.5944 85.8291 52.6758C85.6924 52.7572 85.5882 52.8597 85.5166 52.9834C85.445 53.1038 85.4092 53.2454 85.4092 53.4082C85.4092 53.5742 85.4466 53.7256 85.5215 53.8623C85.5964 53.999 85.7087 54.1081 85.8584 54.1895C86.0114 54.2676 86.1986 54.3066 86.4199 54.3066C86.6966 54.3066 86.9408 54.248 87.1523 54.1309C87.3639 54.0137 87.5316 53.8704 87.6553 53.7012C87.7822 53.5319 87.8506 53.3675 87.8604 53.208L88.2461 53.6426C88.2233 53.7793 88.1615 53.9307 88.0605 54.0967C87.9596 54.2627 87.8245 54.4222 87.6553 54.5752C87.4893 54.7249 87.2907 54.8503 87.0596 54.9512C86.8317 55.0488 86.5745 55.0977 86.2881 55.0977C85.93 55.0977 85.6159 55.0277 85.3457 54.8877C85.0788 54.7477 84.8704 54.5605 84.7207 54.3262C84.5742 54.0885 84.501 53.8232 84.501 53.5303C84.501 53.2471 84.5563 52.998 84.667 52.7832C84.7777 52.5651 84.9372 52.3844 85.1455 52.2412C85.3538 52.0947 85.6045 51.984 85.8975 51.9092C86.1904 51.8343 86.5176 51.7969 86.8789 51.7969H87.9287ZM87.084 47.5L88.2949 48.833V48.8818H87.543L86.8105 48.0566L86.083 48.8818H85.3408V48.8281L86.5371 47.5H87.084ZM85.8584 56.2012C85.8584 56.0547 85.9023 55.931 85.9902 55.8301C86.0814 55.7292 86.2148 55.6787 86.3906 55.6787C86.5632 55.6787 86.695 55.7292 86.7861 55.8301C86.8805 55.931 86.9277 56.0547 86.9277 56.2012C86.9277 56.3411 86.8805 56.46 86.7861 56.5576C86.695 56.6585 86.5632 56.709 86.3906 56.709C86.2148 56.709 86.0814 56.6585 85.9902 56.5576C85.9023 56.46 85.8584 56.3411 85.8584 56.2012Z" fill="#555555"/>
<path d="M90.5 50.7324V57.0312H89.5918V49.7168H90.4219L90.5 50.7324ZM94.0596 52.3145V52.417C94.0596 52.8011 94.014 53.1576 93.9229 53.4863C93.8317 53.8118 93.6982 54.0951 93.5225 54.3359C93.3499 54.5768 93.1367 54.764 92.8828 54.8975C92.6289 55.0309 92.3376 55.0977 92.0088 55.0977C91.6735 55.0977 91.3773 55.0423 91.1201 54.9316C90.863 54.821 90.6449 54.6598 90.4658 54.4482C90.2868 54.2367 90.1436 53.9827 90.0361 53.6865C89.932 53.3903 89.8604 53.0566 89.8213 52.6855V52.1387C89.8604 51.748 89.9336 51.3981 90.041 51.0889C90.1484 50.7796 90.29 50.516 90.4658 50.2979C90.6449 50.0765 90.8613 49.9089 91.1152 49.7949C91.3691 49.6777 91.6621 49.6191 91.9941 49.6191C92.3262 49.6191 92.6208 49.6842 92.8779 49.8145C93.1351 49.9414 93.3516 50.1237 93.5273 50.3613C93.7031 50.599 93.835 50.8838 93.9229 51.2158C94.014 51.5446 94.0596 51.9108 94.0596 52.3145ZM93.1514 52.417V52.3145C93.1514 52.0508 93.1237 51.8034 93.0684 51.5723C93.013 51.3379 92.9268 51.1328 92.8096 50.957C92.6956 50.778 92.5492 50.638 92.3701 50.5371C92.1911 50.4329 91.9779 50.3809 91.7305 50.3809C91.5026 50.3809 91.304 50.4199 91.1348 50.498C90.9688 50.5762 90.8271 50.682 90.71 50.8154C90.5928 50.9456 90.4967 51.0954 90.4219 51.2646C90.3503 51.4307 90.2965 51.6032 90.2607 51.7822V53.0469C90.3258 53.2747 90.417 53.4896 90.5342 53.6914C90.6514 53.89 90.8076 54.0511 91.0029 54.1748C91.1982 54.2952 91.444 54.3555 91.7402 54.3555C91.9844 54.3555 92.1943 54.305 92.3701 54.2041C92.5492 54.0999 92.6956 53.9583 92.8096 53.7793C92.9268 53.6003 93.013 53.3952 93.0684 53.1641C93.1237 52.9297 93.1514 52.6807 93.1514 52.417Z" fill="#555555"/>
<path d="M100.022 53.9746V47.5H100.931V55H100.101L100.022 53.9746ZM96.4678 52.417V52.3145C96.4678 51.9108 96.5166 51.5446 96.6143 51.2158C96.7152 50.8838 96.8568 50.599 97.0391 50.3613C97.2246 50.1237 97.4443 49.9414 97.6982 49.8145C97.9554 49.6842 98.2419 49.6191 98.5576 49.6191C98.8896 49.6191 99.1794 49.6777 99.4268 49.7949C99.6774 49.9089 99.889 50.0765 100.062 50.2979C100.237 50.516 100.376 50.7796 100.477 51.0889C100.577 51.3981 100.647 51.748 100.687 52.1387V52.5879C100.651 52.9753 100.581 53.3236 100.477 53.6328C100.376 53.9421 100.237 54.2057 100.062 54.4238C99.889 54.6419 99.6774 54.8096 99.4268 54.9268C99.1761 55.0407 98.8831 55.0977 98.5479 55.0977C98.2386 55.0977 97.9554 55.0309 97.6982 54.8975C97.4443 54.764 97.2246 54.5768 97.0391 54.3359C96.8568 54.0951 96.7152 53.8118 96.6143 53.4863C96.5166 53.1576 96.4678 52.8011 96.4678 52.417ZM97.376 52.3145V52.417C97.376 52.6807 97.402 52.9281 97.4541 53.1592C97.5094 53.3903 97.5941 53.5938 97.708 53.7695C97.8219 53.9453 97.9668 54.0837 98.1426 54.1846C98.3184 54.2822 98.5283 54.3311 98.7725 54.3311C99.0719 54.3311 99.3177 54.2676 99.5098 54.1406C99.7051 54.0137 99.8613 53.846 99.9785 53.6377C100.096 53.4294 100.187 53.2031 100.252 52.959V51.7822C100.213 51.6032 100.156 51.4307 100.081 51.2646C100.009 51.0954 99.915 50.9456 99.7979 50.8154C99.6839 50.682 99.5423 50.5762 99.373 50.498C99.207 50.4199 99.0101 50.3809 98.7822 50.3809C98.5348 50.3809 98.3216 50.4329 98.1426 50.5371C97.9668 50.638 97.8219 50.778 97.708 50.957C97.5941 51.1328 97.5094 51.3379 97.4541 51.5723C97.402 51.8034 97.376 52.0508 97.376 52.3145Z" fill="#555555"/>
<path d="M106.783 49.292H107.477C107.477 49.6468 107.429 49.9447 107.335 50.1855C107.244 50.4264 107.083 50.6071 106.852 50.7275C106.62 50.848 106.295 50.9082 105.875 50.9082V50.3516C106.168 50.3516 106.378 50.3158 106.505 50.2441C106.632 50.1693 106.71 50.0537 106.739 49.8975C106.769 49.7412 106.783 49.5394 106.783 49.292ZM105.069 53.7793V49.7168H105.978V55H105.113L105.069 53.7793ZM105.24 52.666L105.616 52.6562C105.616 53.0078 105.579 53.3333 105.504 53.6328C105.432 53.929 105.315 54.1862 105.152 54.4043C104.99 54.6224 104.776 54.7933 104.513 54.917C104.249 55.0374 103.928 55.0977 103.551 55.0977C103.294 55.0977 103.058 55.0602 102.843 54.9854C102.631 54.9105 102.449 54.7949 102.296 54.6387C102.143 54.4824 102.024 54.279 101.939 54.0283C101.858 53.7777 101.817 53.4766 101.817 53.125V49.7168H102.721V53.1348C102.721 53.3724 102.747 53.5693 102.799 53.7256C102.854 53.8786 102.927 54.0007 103.019 54.0918C103.113 54.1797 103.217 54.2415 103.331 54.2773C103.448 54.3132 103.569 54.3311 103.692 54.3311C104.076 54.3311 104.381 54.2578 104.605 54.1113C104.83 53.9616 104.991 53.7614 105.089 53.5107C105.19 53.2568 105.24 52.9753 105.24 52.666ZM105.104 47.7002L105.714 47.7539C105.714 47.9915 105.667 48.1999 105.572 48.3789C105.478 48.5579 105.351 48.6963 105.191 48.7939C105.035 48.8916 104.858 48.9404 104.659 48.9404C104.493 48.9404 104.356 48.9176 104.249 48.8721C104.142 48.8232 104.046 48.7695 103.961 48.7109C103.876 48.6491 103.787 48.5954 103.692 48.5498C103.601 48.501 103.487 48.4766 103.351 48.4766C103.214 48.4766 103.098 48.5286 103.004 48.6328C102.913 48.737 102.867 48.8656 102.867 49.0186L102.257 48.9893C102.257 48.7516 102.302 48.5433 102.394 48.3643C102.488 48.182 102.615 48.0404 102.774 47.9395C102.934 47.8353 103.111 47.7832 103.307 47.7832C103.447 47.7832 103.569 47.8076 103.673 47.8564C103.78 47.902 103.881 47.9557 103.976 48.0176C104.07 48.0762 104.168 48.1299 104.269 48.1787C104.369 48.2243 104.485 48.2471 104.615 48.2471C104.752 48.2471 104.868 48.195 104.962 48.0908C105.056 47.9834 105.104 47.8532 105.104 47.7002Z" fill="#555555"/>
<path d="M110.49 47.5V55H109.582V47.5H110.49Z" fill="#555555"/>
<path d="M112.422 49.7168V55H111.514V49.7168H112.422ZM111.445 48.3154C111.445 48.1689 111.489 48.0452 111.577 47.9443C111.668 47.8434 111.802 47.793 111.978 47.793C112.15 47.793 112.282 47.8434 112.373 47.9443C112.467 48.0452 112.515 48.1689 112.515 48.3154C112.515 48.4554 112.467 48.5758 112.373 48.6768C112.282 48.7744 112.15 48.8232 111.978 48.8232C111.802 48.8232 111.668 48.7744 111.577 48.6768C111.489 48.5758 111.445 48.4554 111.445 48.3154Z" fill="#555555"/>
<path d="M115.564 55.0977C115.197 55.0977 114.863 55.0358 114.563 54.9121C114.267 54.7852 114.012 54.6077 113.797 54.3799C113.585 54.152 113.423 53.8818 113.309 53.5693C113.195 53.2568 113.138 52.915 113.138 52.5439V52.3389C113.138 51.9092 113.201 51.5267 113.328 51.1914C113.455 50.8529 113.628 50.5664 113.846 50.332C114.064 50.0977 114.311 49.9202 114.588 49.7998C114.865 49.6794 115.151 49.6191 115.447 49.6191C115.825 49.6191 116.15 49.6842 116.424 49.8145C116.701 49.9447 116.927 50.127 117.103 50.3613C117.278 50.5924 117.409 50.8659 117.493 51.1816C117.578 51.4941 117.62 51.8359 117.62 52.207V52.6123H113.675V51.875H116.717V51.8066C116.704 51.5723 116.655 51.3444 116.57 51.123C116.489 50.9017 116.359 50.7194 116.18 50.5762C116.001 50.4329 115.757 50.3613 115.447 50.3613C115.242 50.3613 115.053 50.4053 114.881 50.4932C114.708 50.5778 114.56 50.7048 114.437 50.874C114.313 51.0433 114.217 51.25 114.148 51.4941C114.08 51.7383 114.046 52.0199 114.046 52.3389V52.5439C114.046 52.7946 114.08 53.0306 114.148 53.252C114.22 53.4701 114.323 53.6621 114.456 53.8281C114.593 53.9941 114.757 54.1243 114.949 54.2188C115.145 54.3132 115.366 54.3604 115.613 54.3604C115.932 54.3604 116.202 54.2952 116.424 54.165C116.645 54.0348 116.839 53.8607 117.005 53.6426L117.552 54.0771C117.438 54.2497 117.293 54.4141 117.117 54.5703C116.941 54.7266 116.725 54.8535 116.468 54.9512C116.214 55.0488 115.913 55.0977 115.564 55.0977ZM115.716 47.5L116.927 48.833V48.8818H116.175L115.442 48.0566L114.715 48.8818H113.973V48.8281L115.169 47.5H115.716ZM114.896 56.2012C114.896 56.0547 114.939 55.931 115.027 55.8301C115.118 55.7292 115.252 55.6787 115.428 55.6787C115.6 55.6787 115.732 55.7292 115.823 55.8301C115.918 55.931 115.965 56.0547 115.965 56.2012C115.965 56.3411 115.918 56.46 115.823 56.5576C115.732 56.6585 115.6 56.709 115.428 56.709C115.252 56.709 115.118 56.6585 115.027 56.5576C114.939 56.46 114.896 56.3411 114.896 56.2012Z" fill="#555555"/>
<path d="M121.407 53.7793V49.7168H122.315V55H121.451L121.407 53.7793ZM121.578 52.666L121.954 52.6562C121.954 53.0078 121.917 53.3333 121.842 53.6328C121.77 53.929 121.653 54.1862 121.49 54.4043C121.327 54.6224 121.114 54.7933 120.851 54.917C120.587 55.0374 120.266 55.0977 119.889 55.0977C119.632 55.0977 119.396 55.0602 119.181 54.9854C118.969 54.9105 118.787 54.7949 118.634 54.6387C118.481 54.4824 118.362 54.279 118.277 54.0283C118.196 53.7777 118.155 53.4766 118.155 53.125V49.7168H119.059V53.1348C119.059 53.3724 119.085 53.5693 119.137 53.7256C119.192 53.8786 119.265 54.0007 119.356 54.0918C119.451 54.1797 119.555 54.2415 119.669 54.2773C119.786 54.3132 119.907 54.3311 120.03 54.3311C120.414 54.3311 120.719 54.2578 120.943 54.1113C121.168 53.9616 121.329 53.7614 121.427 53.5107C121.528 53.2568 121.578 52.9753 121.578 52.666Z" fill="#555555"/>
<path d="M77.3758 66.3555C77.5906 66.3555 77.7892 66.3115 77.9715 66.2236C78.1538 66.1357 78.3035 66.0153 78.4207 65.8623C78.5379 65.7061 78.6046 65.5286 78.6209 65.3301H79.4803C79.464 65.6426 79.3582 65.9339 79.1629 66.2041C78.9708 66.471 78.7186 66.6875 78.4061 66.8535C78.0936 67.0163 77.7501 67.0977 77.3758 67.0977C76.9786 67.0977 76.632 67.0277 76.3357 66.8877C76.0428 66.7477 75.7986 66.5557 75.6033 66.3115C75.4113 66.0674 75.2664 65.7874 75.1687 65.4717C75.0743 65.1527 75.0271 64.8158 75.0271 64.4609V64.2559C75.0271 63.901 75.0743 63.5658 75.1687 63.25C75.2664 62.931 75.4113 62.6494 75.6033 62.4053C75.7986 62.1611 76.0428 61.9691 76.3357 61.8291C76.632 61.6891 76.9786 61.6191 77.3758 61.6191C77.7892 61.6191 78.1505 61.7038 78.4598 61.873C78.769 62.0391 79.0115 62.2669 79.1873 62.5566C79.3663 62.8431 79.464 63.1686 79.4803 63.5332H78.6209C78.6046 63.3151 78.5428 63.1182 78.4353 62.9424C78.3312 62.7666 78.188 62.6266 78.0057 62.5225C77.8266 62.415 77.6167 62.3613 77.3758 62.3613C77.0991 62.3613 76.8663 62.4167 76.6775 62.5273C76.492 62.6348 76.3439 62.7812 76.2332 62.9668C76.1258 63.1491 76.0477 63.3525 75.9988 63.5771C75.9533 63.7985 75.9305 64.0247 75.9305 64.2559V64.4609C75.9305 64.6921 75.9533 64.9199 75.9988 65.1445C76.0444 65.3691 76.1209 65.5726 76.2283 65.7549C76.339 65.9372 76.4871 66.0837 76.6727 66.1943C76.8615 66.3018 77.0958 66.3555 77.3758 66.3555Z" fill="#555555"/>
<path d="M83.8283 65.7793V61.7168H84.7365V67H83.8723L83.8283 65.7793ZM83.9992 64.666L84.3752 64.6562C84.3752 65.0078 84.3378 65.3333 84.2629 65.6328C84.1913 65.929 84.0741 66.1862 83.9113 66.4043C83.7486 66.6224 83.5353 66.7933 83.2717 66.917C83.008 67.0374 82.6874 67.0977 82.3098 67.0977C82.0526 67.0977 81.8166 67.0602 81.6018 66.9854C81.3902 66.9105 81.2079 66.7949 81.0549 66.6387C80.9019 66.4824 80.7831 66.279 80.6984 66.0283C80.6171 65.7777 80.5764 65.4766 80.5764 65.125V61.7168H81.4797V65.1348C81.4797 65.3724 81.5057 65.5693 81.5578 65.7256C81.6131 65.8786 81.6864 66.0007 81.7775 66.0918C81.8719 66.1797 81.9761 66.2415 82.09 66.2773C82.2072 66.3132 82.3277 66.3311 82.4514 66.3311C82.8355 66.3311 83.1398 66.2578 83.3644 66.1113C83.5891 65.9616 83.7502 65.7614 83.8478 65.5107C83.9488 65.2568 83.9992 64.9753 83.9992 64.666ZM83.0178 60.8574H82.3684L82.3635 60.1152C82.5295 60.1055 82.6646 60.0892 82.7687 60.0664C82.8729 60.0404 82.9494 60.0029 82.9982 59.9541C83.0471 59.902 83.0715 59.8337 83.0715 59.749C83.0715 59.6807 83.0503 59.6237 83.008 59.5781C82.9657 59.5293 82.9071 59.4902 82.8322 59.4609C82.7574 59.4284 82.6711 59.4056 82.5734 59.3926C82.4758 59.3796 82.3716 59.373 82.2609 59.373L82.2951 58.8555C82.536 58.8555 82.7476 58.8766 82.9299 58.9189C83.1154 58.9613 83.27 59.0231 83.3937 59.1045C83.5207 59.1859 83.6151 59.2835 83.6769 59.3975C83.7421 59.5081 83.7746 59.6318 83.7746 59.7686C83.7746 60.016 83.6965 60.1966 83.5402 60.3105C83.384 60.4212 83.2115 60.4896 83.0227 60.5156L83.0178 60.8574Z" fill="#555555"/>
<path d="M89.3287 66.0967V63.377C89.3287 63.1686 89.2864 62.988 89.2018 62.835C89.1204 62.6787 88.9967 62.5583 88.8307 62.4736C88.6646 62.389 88.4596 62.3467 88.2154 62.3467C87.9876 62.3467 87.7874 62.3857 87.6148 62.4639C87.4456 62.542 87.3121 62.6445 87.2144 62.7715C87.12 62.8984 87.0728 63.0352 87.0728 63.1816H86.1695C86.1695 62.9928 86.2184 62.8057 86.316 62.6201C86.4137 62.4346 86.5536 62.2669 86.7359 62.1172C86.9215 61.9642 87.1428 61.8438 87.4 61.7559C87.6604 61.6647 87.9501 61.6191 88.2691 61.6191C88.6532 61.6191 88.9918 61.6842 89.2848 61.8145C89.581 61.9447 89.8121 62.1416 89.9781 62.4053C90.1474 62.6657 90.232 62.9928 90.232 63.3867V65.8477C90.232 66.0234 90.2467 66.2106 90.276 66.4092C90.3085 66.6077 90.3557 66.7786 90.4176 66.9219V67H89.4752C89.4296 66.8958 89.3938 66.7575 89.3678 66.585C89.3417 66.4092 89.3287 66.2464 89.3287 66.0967ZM89.485 63.7969L89.4947 64.4316H88.5816C88.3245 64.4316 88.095 64.4528 87.8932 64.4951C87.6913 64.5342 87.5221 64.5944 87.3853 64.6758C87.2486 64.7572 87.1445 64.8597 87.0728 64.9834C87.0012 65.1038 86.9654 65.2454 86.9654 65.4082C86.9654 65.5742 87.0029 65.7256 87.0777 65.8623C87.1526 65.999 87.2649 66.1081 87.4146 66.1895C87.5676 66.2676 87.7548 66.3066 87.9762 66.3066C88.2529 66.3066 88.497 66.248 88.7086 66.1309C88.9202 66.0137 89.0878 65.8704 89.2115 65.7012C89.3385 65.5319 89.4068 65.3675 89.4166 65.208L89.8023 65.6426C89.7796 65.7793 89.7177 65.9307 89.6168 66.0967C89.5159 66.2627 89.3808 66.4222 89.2115 66.5752C89.0455 66.7249 88.8469 66.8503 88.6158 66.9512C88.3879 67.0488 88.1308 67.0977 87.8443 67.0977C87.4863 67.0977 87.1721 67.0277 86.9019 66.8877C86.635 66.7477 86.4267 66.5605 86.2769 66.3262C86.1305 66.0885 86.0572 65.8232 86.0572 65.5303C86.0572 65.2471 86.1126 64.998 86.2232 64.7832C86.3339 64.5651 86.4934 64.3844 86.7018 64.2412C86.9101 64.0947 87.1607 63.984 87.4537 63.9092C87.7467 63.8343 88.0738 63.7969 88.4352 63.7969H89.485Z" fill="#555555"/>
<path d="M94.3285 59.5H95.2367V65.9746L95.1586 67H94.3285V59.5ZM98.8061 64.3145V64.417C98.8061 64.8011 98.7605 65.1576 98.6693 65.4863C98.5782 65.8118 98.4447 66.0951 98.2689 66.3359C98.0932 66.5768 97.8783 66.764 97.6244 66.8975C97.3705 67.0309 97.0792 67.0977 96.7504 67.0977C96.4151 67.0977 96.1205 67.0407 95.8666 66.9268C95.6159 66.8096 95.4044 66.6419 95.2318 66.4238C95.0593 66.2057 94.921 65.9421 94.8168 65.6328C94.7159 65.3236 94.6459 64.9753 94.6068 64.5879V64.1387C94.6459 63.748 94.7159 63.3981 94.8168 63.0889C94.921 62.7796 95.0593 62.516 95.2318 62.2979C95.4044 62.0765 95.6159 61.9089 95.8666 61.7949C96.1173 61.6777 96.4086 61.6191 96.7406 61.6191C97.0727 61.6191 97.3673 61.6842 97.6244 61.8145C97.8816 61.9414 98.0964 62.1237 98.2689 62.3613C98.4447 62.599 98.5782 62.8838 98.6693 63.2158C98.7605 63.5446 98.8061 63.9108 98.8061 64.3145ZM97.8979 64.417V64.3145C97.8979 64.0508 97.8734 63.8034 97.8246 63.5723C97.7758 63.3379 97.6977 63.1328 97.5902 62.957C97.4828 62.778 97.3412 62.638 97.1654 62.5371C96.9896 62.4329 96.7732 62.3809 96.516 62.3809C96.2881 62.3809 96.0896 62.4199 95.9203 62.498C95.7543 62.5762 95.6127 62.682 95.4955 62.8154C95.3783 62.9456 95.2823 63.0954 95.2074 63.2646C95.1358 63.4307 95.0821 63.6032 95.0463 63.7822V64.959C95.0984 65.1868 95.183 65.4066 95.3002 65.6182C95.4206 65.8265 95.5801 65.9974 95.7787 66.1309C95.9805 66.2643 96.2296 66.3311 96.5258 66.3311C96.7699 66.3311 96.9783 66.2822 97.1508 66.1846C97.3266 66.0837 97.4682 65.9453 97.5756 65.7695C97.6863 65.5938 97.7676 65.3903 97.8197 65.1592C97.8718 64.9281 97.8979 64.6807 97.8979 64.417Z" fill="#555555"/>
<path d="M103.164 66.0967V63.377C103.164 63.1686 103.122 62.988 103.037 62.835C102.956 62.6787 102.832 62.5583 102.666 62.4736C102.5 62.389 102.295 62.3467 102.051 62.3467C101.823 62.3467 101.623 62.3857 101.45 62.4639C101.281 62.542 101.147 62.6445 101.05 62.7715C100.955 62.8984 100.908 63.0352 100.908 63.1816H100.005C100.005 62.9928 100.054 62.8057 100.151 62.6201C100.249 62.4346 100.389 62.2669 100.571 62.1172C100.757 61.9642 100.978 61.8438 101.235 61.7559C101.496 61.6647 101.785 61.6191 102.104 61.6191C102.488 61.6191 102.827 61.6842 103.12 61.8145C103.416 61.9447 103.647 62.1416 103.813 62.4053C103.983 62.6657 104.067 62.9928 104.067 63.3867V65.8477C104.067 66.0234 104.082 66.2106 104.111 66.4092C104.144 66.6077 104.191 66.7786 104.253 66.9219V67H103.31C103.265 66.8958 103.229 66.7575 103.203 66.585C103.177 66.4092 103.164 66.2464 103.164 66.0967ZM103.32 63.7969L103.33 64.4316H102.417C102.16 64.4316 101.93 64.4528 101.728 64.4951C101.526 64.5342 101.357 64.5944 101.221 64.6758C101.084 64.7572 100.98 64.8597 100.908 64.9834C100.836 65.1038 100.801 65.2454 100.801 65.4082C100.801 65.5742 100.838 65.7256 100.913 65.8623C100.988 65.999 101.1 66.1081 101.25 66.1895C101.403 66.2676 101.59 66.3066 101.811 66.3066C102.088 66.3066 102.332 66.248 102.544 66.1309C102.755 66.0137 102.923 65.8704 103.047 65.7012C103.174 65.5319 103.242 65.3675 103.252 65.208L103.637 65.6426C103.615 65.7793 103.553 65.9307 103.452 66.0967C103.351 66.2627 103.216 66.4222 103.047 66.5752C102.881 66.7249 102.682 66.8503 102.451 66.9512C102.223 67.0488 101.966 67.0977 101.679 67.0977C101.321 67.0977 101.007 67.0277 100.737 66.8877C100.47 66.7477 100.262 66.5605 100.112 66.3262C99.9656 66.0885 99.8924 65.8232 99.8924 65.5303C99.8924 65.2471 99.9477 64.998 100.058 64.7832C100.169 64.5651 100.329 64.3844 100.537 64.2412C100.745 64.0947 100.996 63.984 101.289 63.9092C101.582 63.8343 101.909 63.7969 102.27 63.7969H103.32ZM101.25 68.2012C101.25 68.0547 101.294 67.931 101.382 67.8301C101.473 67.7292 101.606 67.6787 101.782 67.6787C101.955 67.6787 102.086 67.7292 102.178 67.8301C102.272 67.931 102.319 68.0547 102.319 68.2012C102.319 68.3411 102.272 68.46 102.178 68.5576C102.086 68.6585 101.955 68.709 101.782 68.709C101.606 68.709 101.473 68.6585 101.382 68.5576C101.294 68.46 101.25 68.3411 101.25 68.2012Z" fill="#555555"/>
<path d="M106.491 62.8447V67H105.588V61.7168H106.443L106.491 62.8447ZM106.277 64.1582L105.901 64.1436C105.904 63.7822 105.958 63.4486 106.062 63.1426C106.166 62.8333 106.312 62.5648 106.501 62.3369C106.69 62.109 106.915 61.9333 107.175 61.8096C107.439 61.6826 107.73 61.6191 108.049 61.6191C108.309 61.6191 108.544 61.6549 108.752 61.7266C108.96 61.7949 109.138 61.9056 109.284 62.0586C109.434 62.2116 109.548 62.4102 109.626 62.6543C109.704 62.8952 109.743 63.1898 109.743 63.5381V67H108.835V63.5283C108.835 63.2516 108.794 63.0303 108.713 62.8643C108.632 62.695 108.513 62.5729 108.357 62.498C108.2 62.4199 108.008 62.3809 107.78 62.3809C107.556 62.3809 107.351 62.4281 107.165 62.5225C106.983 62.6169 106.825 62.7471 106.692 62.9131C106.561 63.0791 106.459 63.2695 106.384 63.4844C106.312 63.696 106.277 63.9206 106.277 64.1582Z" fill="#555555"/>
<path d="M61.6277 37.7588L61.7645 38.6963L61.9646 37.8516L63.3709 32.8906H64.1619L65.534 37.8516L65.7293 38.7109L65.8807 37.7539L66.9842 32.8906H67.9266L66.2029 40H65.3484L63.8836 34.8193L63.7713 34.2773L63.659 34.8193L62.1404 40H61.2859L59.5672 32.8906H60.5047L61.6277 37.7588ZM71.166 40.0977C70.4499 40.0977 69.8672 39.8633 69.418 39.3945C68.9688 38.9225 68.7441 38.2926 68.7441 37.5049V37.3389C68.7441 36.8148 68.8434 36.3477 69.042 35.9375C69.2438 35.5241 69.5238 35.2018 69.8818 34.9707C70.2432 34.7363 70.6338 34.6191 71.0537 34.6191C71.7406 34.6191 72.2744 34.8454 72.6553 35.2979C73.0361 35.7503 73.2266 36.3981 73.2266 37.2412V37.6172H69.6475C69.6605 38.138 69.8118 38.5596 70.1016 38.8818C70.3945 39.2008 70.7656 39.3604 71.2148 39.3604C71.5339 39.3604 71.804 39.2952 72.0254 39.165C72.2467 39.0348 72.4404 38.8623 72.6064 38.6475L73.1582 39.0771C72.7155 39.7575 72.0514 40.0977 71.166 40.0977ZM71.0537 35.3613C70.6891 35.3613 70.3831 35.4948 70.1357 35.7617C69.8883 36.0254 69.7354 36.3965 69.6768 36.875H72.3232V36.8066C72.2972 36.3477 72.1735 35.9928 71.9521 35.7422C71.7308 35.4883 71.4313 35.3613 71.0537 35.3613ZM79.049 37.417C79.049 38.2243 78.8635 38.8737 78.4924 39.3652C78.1213 39.8535 77.6232 40.0977 76.9982 40.0977C76.3309 40.0977 75.815 39.8617 75.4504 39.3896L75.4064 40H74.5764V32.5H75.4797V35.2979C75.8443 34.8454 76.3472 34.6191 76.9885 34.6191C77.6298 34.6191 78.1327 34.8617 78.4973 35.3467C78.8651 35.8317 79.049 36.4958 79.049 37.3389V37.417ZM78.1457 37.3145C78.1457 36.6992 78.0269 36.224 77.7893 35.8887C77.5516 35.5534 77.2098 35.3857 76.7639 35.3857C76.1682 35.3857 75.7401 35.6624 75.4797 36.2158V38.501C75.7564 39.0544 76.1877 39.3311 76.7736 39.3311C77.2066 39.3311 77.5435 39.1634 77.7844 38.8281C78.0253 38.4928 78.1457 37.9883 78.1457 37.3145ZM87.3395 38.1445H84.3609L83.692 40H82.7252L85.44 32.8906H86.2604L88.9801 40H88.0182L87.3395 38.1445ZM84.6441 37.373H87.0611L85.8502 34.0479L84.6441 37.373ZM90.95 34.7168L90.9793 35.3809C91.3829 34.873 91.9103 34.6191 92.5613 34.6191C93.6779 34.6191 94.241 35.249 94.2508 36.5088V40H93.3475V36.5039C93.3442 36.123 93.2563 35.8415 93.0838 35.6592C92.9145 35.4769 92.6492 35.3857 92.2879 35.3857C91.9949 35.3857 91.7378 35.4639 91.5164 35.6201C91.295 35.7764 91.1225 35.9814 90.9988 36.2354V40H90.0955V34.7168H90.95ZM99.1748 40C99.1227 39.8958 99.0804 39.7103 99.0479 39.4434C98.6279 39.8796 98.1266 40.0977 97.5439 40.0977C97.0231 40.0977 96.5951 39.9512 96.2598 39.6582C95.9277 39.362 95.7617 38.9876 95.7617 38.5352C95.7617 37.985 95.9701 37.5586 96.3867 37.2559C96.8066 36.9499 97.3958 36.7969 98.1543 36.7969H99.0332V36.3818C99.0332 36.0661 98.9388 35.8154 98.75 35.6299C98.5612 35.4411 98.2829 35.3467 97.915 35.3467C97.5928 35.3467 97.3226 35.4281 97.1045 35.5908C96.8864 35.7536 96.7773 35.9505 96.7773 36.1816H95.8691C95.8691 35.918 95.9619 35.6641 96.1475 35.4199C96.3363 35.1725 96.5902 34.9772 96.9092 34.834C97.2314 34.6908 97.5846 34.6191 97.9688 34.6191C98.5775 34.6191 99.0544 34.7721 99.3994 35.0781C99.7445 35.3809 99.9235 35.7992 99.9365 36.333V38.7646C99.9365 39.2497 99.9984 39.6354 100.122 39.9219V40H99.1748ZM97.6758 39.3115C97.959 39.3115 98.2275 39.2383 98.4814 39.0918C98.7354 38.9453 98.9193 38.7549 99.0332 38.5205V37.4365H98.3252C97.2184 37.4365 96.665 37.7604 96.665 38.4082C96.665 38.6914 96.7594 38.9128 96.9482 39.0723C97.137 39.2318 97.3796 39.3115 97.6758 39.3115ZM102.634 40H101.731V32.5H102.634V40ZM106.113 38.6768L107.343 34.7168H108.31L106.186 40.8154C105.857 41.6943 105.335 42.1338 104.619 42.1338L104.448 42.1191L104.111 42.0557V41.3232L104.355 41.3428C104.661 41.3428 104.899 41.2809 105.068 41.1572C105.24 41.0335 105.382 40.8073 105.493 40.4785L105.693 39.9414L103.808 34.7168H104.794L106.113 38.6768ZM110.646 33.4375V34.7168H111.632V35.415H110.646V38.6914C110.646 38.903 110.69 39.0625 110.778 39.1699C110.866 39.2741 111.016 39.3262 111.227 39.3262C111.331 39.3262 111.475 39.3066 111.657 39.2676V40C111.419 40.0651 111.188 40.0977 110.963 40.0977C110.56 40.0977 110.255 39.9756 110.05 39.7314C109.845 39.4873 109.743 39.1406 109.743 38.6914V35.415H108.781V34.7168H109.743V33.4375H110.646ZM113.973 40H113.07V34.7168H113.973V40ZM112.997 33.3154C112.997 33.1689 113.041 33.0452 113.129 32.9443C113.22 32.8434 113.353 32.793 113.529 32.793C113.705 32.793 113.838 32.8434 113.929 32.9443C114.021 33.0452 114.066 33.1689 114.066 33.3154C114.066 33.4619 114.021 33.584 113.929 33.6816C113.838 33.7793 113.705 33.8281 113.529 33.8281C113.353 33.8281 113.22 33.7793 113.129 33.6816C113.041 33.584 112.997 33.4619 112.997 33.3154ZM117.843 39.3604C118.165 39.3604 118.447 39.2627 118.688 39.0674C118.928 38.8721 119.062 38.6279 119.088 38.335H119.942C119.926 38.6377 119.822 38.9258 119.63 39.1992C119.438 39.4727 119.181 39.6908 118.858 39.8535C118.539 40.0163 118.201 40.0977 117.843 40.0977C117.123 40.0977 116.55 39.8584 116.124 39.3799C115.701 38.8981 115.489 38.2406 115.489 37.4072V37.2559C115.489 36.7415 115.584 36.2842 115.772 35.8838C115.961 35.4834 116.231 35.1725 116.583 34.9512C116.938 34.7298 117.356 34.6191 117.838 34.6191C118.43 34.6191 118.922 34.7965 119.312 35.1514C119.706 35.5062 119.916 35.9668 119.942 36.5332H119.088C119.062 36.1914 118.932 35.9115 118.697 35.6934C118.466 35.472 118.18 35.3613 117.838 35.3613C117.379 35.3613 117.022 35.5273 116.769 35.8594C116.518 36.1882 116.393 36.665 116.393 37.29V37.4609C116.393 38.0697 116.518 38.5384 116.769 38.8672C117.019 39.196 117.377 39.3604 117.843 39.3604ZM124.334 38.5986C124.334 38.3545 124.241 38.1657 124.056 38.0322C123.874 37.8955 123.553 37.7783 123.094 37.6807C122.638 37.583 122.275 37.4658 122.005 37.3291C121.738 37.1924 121.54 37.0296 121.409 36.8408C121.282 36.652 121.219 36.4274 121.219 36.167C121.219 35.734 121.401 35.3678 121.766 35.0684C122.134 34.7689 122.602 34.6191 123.172 34.6191C123.771 34.6191 124.256 34.7738 124.627 35.083C125.002 35.3923 125.189 35.7878 125.189 36.2695H124.28C124.28 36.0221 124.175 35.8089 123.963 35.6299C123.755 35.4508 123.491 35.3613 123.172 35.3613C122.843 35.3613 122.586 35.4329 122.401 35.5762C122.215 35.7194 122.122 35.9066 122.122 36.1377C122.122 36.3558 122.209 36.5202 122.381 36.6309C122.554 36.7415 122.864 36.8473 123.314 36.9482C123.766 37.0492 124.132 37.1696 124.412 37.3096C124.692 37.4495 124.899 37.6188 125.032 37.8174C125.169 38.0127 125.238 38.252 125.238 38.5352C125.238 39.0072 125.049 39.3864 124.671 39.6729C124.293 39.9561 123.804 40.0977 123.201 40.0977C122.778 40.0977 122.404 40.0228 122.078 39.873C121.753 39.7233 121.497 39.515 121.312 39.248C121.129 38.9779 121.038 38.6865 121.038 38.374H121.942C121.958 38.6768 122.078 38.9176 122.303 39.0967C122.531 39.2725 122.83 39.3604 123.201 39.3604C123.543 39.3604 123.817 39.292 124.022 39.1553C124.23 39.0153 124.334 38.8298 124.334 38.5986Z" fill="#555555"/>
<path d="M83.8934 19.3594H77.2625V26H76.0613V11.7812H84.8699V12.8066H77.2625V18.334H83.8934V19.3594ZM94.5758 26C94.4586 25.668 94.3837 25.1764 94.3512 24.5254C93.941 25.0592 93.4169 25.4727 92.7789 25.7656C92.1474 26.0521 91.4768 26.1953 90.7672 26.1953C89.7516 26.1953 88.928 25.9121 88.2965 25.3457C87.6715 24.7793 87.359 24.0632 87.359 23.1973C87.359 22.1686 87.7854 21.3548 88.6383 20.7559C89.4977 20.1569 90.6923 19.8574 92.2223 19.8574H94.3414V18.6562C94.3414 17.901 94.107 17.3086 93.6383 16.8789C93.176 16.4427 92.499 16.2246 91.607 16.2246C90.7932 16.2246 90.1194 16.4329 89.5855 16.8496C89.0517 17.2663 88.7848 17.7676 88.7848 18.3535L87.6129 18.3438C87.6129 17.5039 88.0035 16.778 88.7848 16.166C89.566 15.5475 90.5263 15.2383 91.6656 15.2383C92.844 15.2383 93.7717 15.5345 94.4488 16.127C95.1324 16.7129 95.484 17.5332 95.5035 18.5879V23.5879C95.5035 24.61 95.6109 25.375 95.8258 25.8828V26H94.5758ZM90.9039 25.1602C91.6852 25.1602 92.3818 24.9714 92.9937 24.5938C93.6122 24.2161 94.0615 23.7116 94.3414 23.0801V20.7559H92.2516C91.0862 20.7689 90.1747 20.9837 89.5172 21.4004C88.8596 21.8105 88.5309 22.377 88.5309 23.0996C88.5309 23.6921 88.749 24.1836 89.1852 24.5742C89.6279 24.9648 90.2008 25.1602 90.9039 25.1602ZM101.137 26H99.9652V15.4336H101.137V26ZM99.7602 12.377C99.7602 12.1556 99.8318 11.9701 99.975 11.8203C100.118 11.6641 100.314 11.5859 100.561 11.5859C100.808 11.5859 101.004 11.6641 101.147 11.8203C101.297 11.9701 101.371 12.1556 101.371 12.377C101.371 12.5983 101.297 12.7839 101.147 12.9336C101.004 13.0833 100.808 13.1582 100.561 13.1582C100.314 13.1582 100.118 13.0833 99.975 12.9336C99.8318 12.7839 99.7602 12.5983 99.7602 12.377ZM110.404 16.4297C110.156 16.3841 109.892 16.3613 109.612 16.3613C108.883 16.3613 108.265 16.5664 107.757 16.9766C107.256 17.3802 106.898 17.9694 106.683 18.7441V26H105.521V15.4336H106.663L106.683 17.1133C107.301 15.8633 108.294 15.2383 109.661 15.2383C109.987 15.2383 110.244 15.2806 110.433 15.3652L110.404 16.4297Z" fill="#555555"/>
</svg>
