<svg width="296" height="18" viewBox="0 0 296 18" fill="none" xmlns="http://www.w3.org/2000/svg">
<rect x="0.5" y="0.5" width="295" height="17" rx="1.5" fill="#EEEEEE" stroke="#555555"/>
<rect x="116" width="180" height="18" rx="2" fill="#555555"/>
<path d="M129.226 10.959H125.95L125.214 13H124.15L127.137 5.17969H128.039L131.031 13H129.973L129.226 10.959ZM126.261 10.1104H128.92L127.588 6.45264L126.261 10.1104Z" fill="#EEEEEE"/>
<path d="M134.039 12.2964C134.393 12.2964 134.703 12.189 134.968 11.9741C135.233 11.7593 135.38 11.4907 135.408 11.1685H136.348C136.33 11.5015 136.216 11.8184 136.005 12.1191C135.793 12.4199 135.51 12.6598 135.156 12.8389C134.805 13.0179 134.433 13.1074 134.039 13.1074C133.247 13.1074 132.617 12.8442 132.148 12.3179C131.683 11.7879 131.45 11.0646 131.45 10.1479V9.98145C131.45 9.41569 131.554 8.9126 131.761 8.47217C131.969 8.03174 132.266 7.68978 132.653 7.44629C133.043 7.2028 133.503 7.08105 134.033 7.08105C134.685 7.08105 135.226 7.2762 135.655 7.6665C136.089 8.0568 136.32 8.56348 136.348 9.18652H135.408C135.38 8.81055 135.237 8.5026 134.979 8.2627C134.724 8.01921 134.409 7.89746 134.033 7.89746C133.529 7.89746 133.136 8.08008 132.857 8.44531C132.581 8.80697 132.444 9.33154 132.444 10.019V10.207C132.444 10.8766 132.581 11.3923 132.857 11.7539C133.133 12.1156 133.527 12.2964 134.039 12.2964Z" fill="#EEEEEE"/>
<path d="M139.577 12.2964C139.931 12.2964 140.241 12.189 140.506 11.9741C140.771 11.7593 140.918 11.4907 140.946 11.1685H141.886C141.868 11.5015 141.754 11.8184 141.542 12.1191C141.331 12.4199 141.048 12.6598 140.694 12.8389C140.343 13.0179 139.97 13.1074 139.577 13.1074C138.785 13.1074 138.155 12.8442 137.686 12.3179C137.22 11.7879 136.988 11.0646 136.988 10.1479V9.98145C136.988 9.41569 137.092 8.9126 137.299 8.47217C137.507 8.03174 137.804 7.68978 138.191 7.44629C138.581 7.2028 139.041 7.08105 139.571 7.08105C140.223 7.08105 140.764 7.2762 141.193 7.6665C141.627 8.0568 141.858 8.56348 141.886 9.18652H140.946C140.918 8.81055 140.774 8.5026 140.517 8.2627C140.262 8.01921 139.947 7.89746 139.571 7.89746C139.066 7.89746 138.674 8.08008 138.395 8.44531C138.119 8.80697 137.981 9.33154 137.981 10.019V10.207C137.981 10.8766 138.119 11.3923 138.395 11.7539C138.671 12.1156 139.065 12.2964 139.577 12.2964Z" fill="#EEEEEE"/>
<path d="M145.195 13.1074C144.407 13.1074 143.766 12.8496 143.272 12.334C142.778 11.8148 142.531 11.1219 142.531 10.2554V10.0728C142.531 9.49626 142.64 8.98242 142.859 8.53125C143.081 8.0765 143.389 7.72201 143.782 7.46777C144.18 7.20996 144.61 7.08105 145.071 7.08105C145.827 7.08105 146.414 7.32992 146.833 7.82764C147.252 8.32536 147.462 9.03792 147.462 9.96533V10.3789H143.525C143.539 10.9518 143.705 11.4155 144.024 11.77C144.346 12.1209 144.755 12.2964 145.249 12.2964C145.6 12.2964 145.897 12.2248 146.14 12.0815C146.384 11.9383 146.597 11.7485 146.779 11.5122L147.386 11.9849C146.899 12.7332 146.169 13.1074 145.195 13.1074ZM145.071 7.89746C144.67 7.89746 144.334 8.04427 144.062 8.33789C143.79 8.62793 143.621 9.03613 143.557 9.5625H146.468V9.4873C146.439 8.98242 146.303 8.59212 146.06 8.31641C145.816 8.03711 145.487 7.89746 145.071 7.89746ZM145.555 4.75H146.758L145.319 6.3291H144.518L145.555 4.75Z" fill="#EEEEEE"/>
<path d="M148.155 10.0459C148.155 9.1543 148.366 8.43815 148.788 7.89746C149.211 7.35319 149.764 7.08105 150.448 7.08105C151.128 7.08105 151.667 7.3138 152.065 7.7793V4.75H153.058V13H152.145L152.097 12.377C151.7 12.8639 151.146 13.1074 150.437 13.1074C149.764 13.1074 149.215 12.8317 148.788 12.2803C148.366 11.7288 148.155 11.0091 148.155 10.1211V10.0459ZM149.148 10.1587C149.148 10.8175 149.284 11.3332 149.557 11.7056C149.829 12.078 150.205 12.2642 150.684 12.2642C151.315 12.2642 151.775 11.9813 152.065 11.4155V8.74609C151.768 8.19824 151.311 7.92432 150.695 7.92432C150.208 7.92432 149.829 8.1123 149.557 8.48828C149.284 8.86426 149.148 9.42106 149.148 10.1587Z" fill="#EEEEEE"/>
<path d="M156.797 13.1074C156.009 13.1074 155.368 12.8496 154.874 12.334C154.38 11.8148 154.133 11.1219 154.133 10.2554V10.0728C154.133 9.49626 154.242 8.98242 154.461 8.53125C154.683 8.0765 154.99 7.72201 155.384 7.46777C155.782 7.20996 156.212 7.08105 156.673 7.08105C157.429 7.08105 158.016 7.32992 158.435 7.82764C158.854 8.32536 159.064 9.03792 159.064 9.96533V10.3789H155.127C155.141 10.9518 155.307 11.4155 155.626 11.77C155.948 12.1209 156.357 12.2964 156.851 12.2964C157.202 12.2964 157.499 12.2248 157.742 12.0815C157.986 11.9383 158.199 11.7485 158.381 11.5122L158.988 11.9849C158.501 12.7332 157.771 13.1074 156.797 13.1074ZM156.673 7.89746C156.272 7.89746 155.936 8.04427 155.664 8.33789C155.392 8.62793 155.223 9.03613 155.159 9.5625H158.07V9.4873C158.041 8.98242 157.905 8.59212 157.662 8.31641C157.418 8.03711 157.089 7.89746 156.673 7.89746Z" fill="#EEEEEE"/>
<path d="M162.807 8.08008C162.657 8.05501 162.494 8.04248 162.319 8.04248C161.667 8.04248 161.225 8.31999 160.992 8.875V13H159.998V7.18848H160.965L160.981 7.85986C161.307 7.34066 161.769 7.08105 162.367 7.08105C162.56 7.08105 162.707 7.10612 162.807 7.15625V8.08008Z" fill="#EEEEEE"/>
<path d="M169.602 13C169.545 12.8854 169.498 12.6813 169.463 12.3877C169.001 12.8675 168.449 13.1074 167.808 13.1074C167.235 13.1074 166.765 12.9463 166.396 12.624C166.031 12.2982 165.848 11.8864 165.848 11.3887C165.848 10.7835 166.077 10.3145 166.535 9.98145C166.997 9.64486 167.645 9.47656 168.48 9.47656H169.447V9.02002C169.447 8.67269 169.343 8.39697 169.135 8.19287C168.927 7.98519 168.621 7.88135 168.217 7.88135C167.862 7.88135 167.565 7.97087 167.325 8.1499C167.085 8.32894 166.965 8.54557 166.965 8.7998H165.966C165.966 8.50977 166.068 8.23047 166.272 7.96191C166.48 7.68978 166.759 7.47493 167.11 7.31738C167.465 7.15983 167.853 7.08105 168.276 7.08105C168.945 7.08105 169.47 7.24935 169.849 7.58594C170.229 7.91895 170.426 8.37907 170.44 8.96631V11.6411C170.44 12.1746 170.508 12.599 170.644 12.9141V13H169.602ZM167.953 12.2427C168.265 12.2427 168.56 12.1621 168.84 12.001C169.119 11.8398 169.321 11.6304 169.447 11.3726V10.1802H168.668C167.45 10.1802 166.842 10.5365 166.842 11.249C166.842 11.5605 166.945 11.804 167.153 11.9795C167.361 12.1549 167.628 12.2427 167.953 12.2427ZM168.952 6.3291H168.098L166.713 4.75H167.91L168.952 6.3291Z" fill="#EEEEEE"/>
<path d="M176.204 11.6519L177.643 7.18848H178.658L176.574 13H175.817L173.712 7.18848H174.727L176.204 11.6519Z" fill="#EEEEEE"/>
<path d="M179.045 10.0405C179.045 9.47119 179.156 8.95915 179.378 8.50439C179.604 8.04964 179.915 7.69873 180.313 7.45166C180.714 7.20459 181.17 7.08105 181.683 7.08105C182.474 7.08105 183.113 7.35498 183.6 7.90283C184.091 8.45068 184.336 9.17936 184.336 10.0889V10.1587C184.336 10.7244 184.227 11.2329 184.008 11.6841C183.793 12.1317 183.484 12.4808 183.079 12.7314C182.678 12.9821 182.216 13.1074 181.693 13.1074C180.906 13.1074 180.266 12.8335 179.776 12.2856C179.289 11.7378 179.045 11.0127 179.045 10.1104V10.0405ZM180.044 10.1587C180.044 10.8032 180.193 11.3206 180.49 11.7109C180.791 12.1012 181.192 12.2964 181.693 12.2964C182.198 12.2964 182.599 12.0994 182.896 11.7056C183.194 11.3081 183.342 10.7531 183.342 10.0405C183.342 9.40316 183.19 8.88753 182.886 8.49365C182.585 8.09619 182.184 7.89746 181.683 7.89746C181.192 7.89746 180.796 8.09261 180.496 8.48291C180.195 8.87321 180.044 9.4318 180.044 10.1587Z" fill="#EEEEEE"/>
<path d="M188.746 11.4585C188.746 11.1899 188.644 10.9823 188.44 10.8354C188.239 10.6851 187.886 10.5562 187.381 10.4487C186.88 10.3413 186.481 10.2124 186.184 10.062C185.89 9.91162 185.672 9.73258 185.528 9.5249C185.389 9.31722 185.319 9.07015 185.319 8.78369C185.319 8.30745 185.52 7.90462 185.921 7.5752C186.325 7.24577 186.841 7.08105 187.467 7.08105C188.126 7.08105 188.66 7.25114 189.068 7.59131C189.48 7.93148 189.686 8.36654 189.686 8.89648H188.687C188.687 8.62435 188.57 8.38981 188.338 8.19287C188.108 7.99593 187.818 7.89746 187.467 7.89746C187.106 7.89746 186.823 7.97624 186.619 8.13379C186.415 8.29134 186.313 8.49723 186.313 8.75146C186.313 8.99137 186.408 9.1722 186.597 9.29395C186.787 9.41569 187.129 9.53206 187.623 9.64307C188.121 9.75407 188.524 9.88656 188.832 10.0405C189.14 10.1945 189.367 10.3807 189.514 10.5991C189.664 10.814 189.739 11.0771 189.739 11.3887C189.739 11.9079 189.532 12.325 189.116 12.6401C188.701 12.9517 188.162 13.1074 187.5 13.1074C187.034 13.1074 186.622 13.0251 186.264 12.8604C185.906 12.6956 185.625 12.4665 185.421 12.1729C185.221 11.8757 185.12 11.5552 185.12 11.2114H186.114C186.132 11.5444 186.264 11.8094 186.511 12.0063C186.762 12.1997 187.091 12.2964 187.5 12.2964C187.876 12.2964 188.176 12.2212 188.402 12.0708C188.631 11.9168 188.746 11.7127 188.746 11.4585Z" fill="#EEEEEE"/>
<path d="M193.081 10.0459C193.081 9.1543 193.292 8.43815 193.714 7.89746C194.137 7.35319 194.69 7.08105 195.374 7.08105C196.054 7.08105 196.593 7.3138 196.991 7.7793V4.75H197.984V13H197.071L197.023 12.377C196.626 12.8639 196.072 13.1074 195.363 13.1074C194.69 13.1074 194.141 12.8317 193.714 12.2803C193.292 11.7288 193.081 11.0091 193.081 10.1211V10.0459ZM194.074 10.1587C194.074 10.8175 194.21 11.3332 194.482 11.7056C194.755 12.078 195.131 12.2642 195.61 12.2642C196.241 12.2642 196.701 11.9813 196.991 11.4155V8.74609C196.694 8.19824 196.237 7.92432 195.621 7.92432C195.134 7.92432 194.755 8.1123 194.482 8.48828C194.21 8.86426 194.074 9.42106 194.074 10.1587Z" fill="#EEEEEE"/>
<path d="M199.048 10.0405C199.048 9.47119 199.159 8.95915 199.381 8.50439C199.607 8.04964 199.918 7.69873 200.316 7.45166C200.717 7.20459 201.173 7.08105 201.685 7.08105C202.477 7.08105 203.116 7.35498 203.603 7.90283C204.093 8.45068 204.339 9.17936 204.339 10.0889V10.1587C204.339 10.7244 204.229 11.2329 204.011 11.6841C203.796 12.1317 203.486 12.4808 203.082 12.7314C202.681 12.9821 202.219 13.1074 201.696 13.1074C200.908 13.1074 200.269 12.8335 199.779 12.2856C199.292 11.7378 199.048 11.0127 199.048 10.1104V10.0405ZM200.047 10.1587C200.047 10.8032 200.196 11.3206 200.493 11.7109C200.794 12.1012 201.195 12.2964 201.696 12.2964C202.201 12.2964 202.602 12.0994 202.899 11.7056C203.196 11.3081 203.345 10.7531 203.345 10.0405C203.345 9.40316 203.193 8.88753 202.888 8.49365C202.588 8.09619 202.187 7.89746 201.685 7.89746C201.195 7.89746 200.799 8.09261 200.498 8.48291C200.198 8.87321 200.047 9.4318 200.047 10.1587Z" fill="#EEEEEE"/>
<path d="M206.305 7.18848L206.337 7.91895C206.781 7.36035 207.361 7.08105 208.077 7.08105C209.305 7.08105 209.925 7.77393 209.936 9.15967V13H208.942V9.1543C208.938 8.73535 208.842 8.42562 208.652 8.2251C208.466 8.02458 208.174 7.92432 207.776 7.92432C207.454 7.92432 207.171 8.01025 206.928 8.18213C206.684 8.354 206.494 8.57959 206.358 8.85889V13H205.365V7.18848H206.305Z" fill="#EEEEEE"/>
<path d="M212.154 7.18848L212.186 7.91895C212.63 7.36035 213.21 7.08105 213.927 7.08105C215.155 7.08105 215.774 7.77393 215.785 9.15967V13H214.791V9.1543C214.788 8.73535 214.691 8.42562 214.501 8.2251C214.315 8.02458 214.023 7.92432 213.626 7.92432C213.303 7.92432 213.021 8.01025 212.777 8.18213C212.534 8.354 212.344 8.57959 212.208 8.85889V13H211.214V7.18848H212.154Z" fill="#EEEEEE"/>
<path d="M219.475 13.1074C218.687 13.1074 218.046 12.8496 217.552 12.334C217.058 11.8148 216.811 11.1219 216.811 10.2554V10.0728C216.811 9.49626 216.92 8.98242 217.139 8.53125C217.361 8.0765 217.669 7.72201 218.062 7.46777C218.46 7.20996 218.89 7.08105 219.352 7.08105C220.107 7.08105 220.694 7.32992 221.113 7.82764C221.532 8.32536 221.742 9.03792 221.742 9.96533V10.3789H217.805C217.819 10.9518 217.985 11.4155 218.304 11.77C218.626 12.1209 219.035 12.2964 219.529 12.2964C219.88 12.2964 220.177 12.2248 220.42 12.0815C220.664 11.9383 220.877 11.7485 221.06 11.5122L221.666 11.9849C221.179 12.7332 220.449 13.1074 219.475 13.1074ZM219.352 7.89746C218.95 7.89746 218.614 8.04427 218.342 8.33789C218.07 8.62793 217.901 9.03613 217.837 9.5625H220.748V9.4873C220.719 8.98242 220.583 8.59212 220.34 8.31641C220.096 8.03711 219.767 7.89746 219.352 7.89746ZM219.835 4.75H221.038L219.599 6.3291H218.798L219.835 4.75Z" fill="#EEEEEE"/>
<path d="M225.088 13.1074C224.3 13.1074 223.659 12.8496 223.165 12.334C222.671 11.8148 222.424 11.1219 222.424 10.2554V10.0728C222.424 9.49626 222.533 8.98242 222.752 8.53125C222.974 8.0765 223.282 7.72201 223.675 7.46777C224.073 7.20996 224.503 7.08105 224.965 7.08105C225.72 7.08105 226.307 7.32992 226.726 7.82764C227.145 8.32536 227.355 9.03792 227.355 9.96533V10.3789H223.418C223.432 10.9518 223.598 11.4155 223.917 11.77C224.239 12.1209 224.648 12.2964 225.142 12.2964C225.493 12.2964 225.79 12.2248 226.033 12.0815C226.277 11.9383 226.49 11.7485 226.673 11.5122L227.279 11.9849C226.792 12.7332 226.062 13.1074 225.088 13.1074ZM224.965 7.89746C224.563 7.89746 224.227 8.04427 223.955 8.33789C223.683 8.62793 223.514 9.03613 223.45 9.5625H226.361V9.4873C226.332 8.98242 226.196 8.59212 225.953 8.31641C225.709 8.03711 225.38 7.89746 224.965 7.89746Z" fill="#EEEEEE"/>
<path d="M231.673 11.4585C231.673 11.1899 231.571 10.9823 231.367 10.8354C231.167 10.6851 230.814 10.5562 230.309 10.4487C229.808 10.3413 229.408 10.2124 229.111 10.062C228.818 9.91162 228.599 9.73258 228.456 9.5249C228.316 9.31722 228.246 9.07015 228.246 8.78369C228.246 8.30745 228.447 7.90462 228.848 7.5752C229.253 7.24577 229.768 7.08105 230.395 7.08105C231.054 7.08105 231.587 7.25114 231.996 7.59131C232.407 7.93148 232.613 8.36654 232.613 8.89648H231.614C231.614 8.62435 231.498 8.38981 231.265 8.19287C231.036 7.99593 230.746 7.89746 230.395 7.89746C230.033 7.89746 229.75 7.97624 229.546 8.13379C229.342 8.29134 229.24 8.49723 229.24 8.75146C229.24 8.99137 229.335 9.1722 229.525 9.29395C229.715 9.41569 230.057 9.53206 230.551 9.64307C231.048 9.75407 231.451 9.88656 231.759 10.0405C232.067 10.1945 232.294 10.3807 232.441 10.5991C232.592 10.814 232.667 11.0771 232.667 11.3887C232.667 11.9079 232.459 12.325 232.044 12.6401C231.628 12.9517 231.09 13.1074 230.427 13.1074C229.962 13.1074 229.55 13.0251 229.192 12.8604C228.834 12.6956 228.553 12.4665 228.349 12.1729C228.148 11.8757 228.048 11.5552 228.048 11.2114H229.041C229.059 11.5444 229.192 11.8094 229.439 12.0063C229.69 12.1997 230.019 12.2964 230.427 12.2964C230.803 12.2964 231.104 12.2212 231.329 12.0708C231.559 11.9168 231.673 11.7127 231.673 11.4585Z" fill="#EEEEEE"/>
<path d="M236.008 10.0459C236.008 9.1543 236.219 8.43815 236.642 7.89746C237.064 7.35319 237.618 7.08105 238.302 7.08105C238.982 7.08105 239.521 7.3138 239.918 7.7793V4.75H240.912V13H239.999L239.951 12.377C239.553 12.8639 239 13.1074 238.291 13.1074C237.618 13.1074 237.068 12.8317 236.642 12.2803C236.219 11.7288 236.008 11.0091 236.008 10.1211V10.0459ZM237.002 10.1587C237.002 10.8175 237.138 11.3332 237.41 11.7056C237.682 12.078 238.058 12.2642 238.538 12.2642C239.168 12.2642 239.628 11.9813 239.918 11.4155V8.74609C239.621 8.19824 239.165 7.92432 238.549 7.92432C238.062 7.92432 237.682 8.1123 237.41 8.48828C237.138 8.86426 237.002 9.42106 237.002 10.1587Z" fill="#EEEEEE"/>
<path d="M242.846 5.34619L242.733 7.32275H242.04L242.045 4.75H242.846V5.34619Z" fill="#EEEEEE"/>
<path d="M247.53 12.4253C247.143 12.88 246.575 13.1074 245.827 13.1074C245.207 13.1074 244.735 12.9284 244.409 12.5703C244.087 12.2087 243.924 11.6751 243.92 10.9697V7.18848H244.914V10.9429C244.914 11.8237 245.272 12.2642 245.988 12.2642C246.747 12.2642 247.252 11.9813 247.503 11.4155V7.18848H248.496V13H247.551L247.53 12.4253Z" fill="#EEEEEE"/>
<path d="M251.139 5.78125V7.18848H252.224V7.95654H251.139V11.5605C251.139 11.7933 251.188 11.9688 251.284 12.0869C251.381 12.2015 251.546 12.2588 251.778 12.2588C251.893 12.2588 252.05 12.2373 252.251 12.1943V13C251.99 13.0716 251.735 13.1074 251.488 13.1074C251.044 13.1074 250.709 12.9731 250.484 12.7046C250.258 12.436 250.146 12.0547 250.146 11.5605V7.95654H249.087V7.18848H250.146V5.78125H251.139Z" fill="#EEEEEE"/>
<path d="M254.249 13H253.256V7.18848H254.249V13ZM253.175 5.64697C253.175 5.48584 253.223 5.34977 253.32 5.23877C253.42 5.12777 253.567 5.07227 253.76 5.07227C253.954 5.07227 254.101 5.12777 254.201 5.23877C254.301 5.34977 254.351 5.48584 254.351 5.64697C254.351 5.80811 254.301 5.94238 254.201 6.0498C254.101 6.15723 253.954 6.21094 253.76 6.21094C253.567 6.21094 253.42 6.15723 253.32 6.0498C253.223 5.94238 253.175 5.80811 253.175 5.64697Z" fill="#EEEEEE"/>
<path d="M256.704 13H255.71V4.75H256.704V13Z" fill="#EEEEEE"/>
<path d="M259.159 13H258.165V7.18848H259.159V13ZM258.085 5.64697C258.085 5.48584 258.133 5.34977 258.23 5.23877C258.33 5.12777 258.477 5.07227 258.67 5.07227C258.863 5.07227 259.01 5.12777 259.111 5.23877C259.211 5.34977 259.261 5.48584 259.261 5.64697C259.261 5.80811 259.211 5.94238 259.111 6.0498C259.01 6.15723 258.863 6.21094 258.67 6.21094C258.477 6.21094 258.33 6.15723 258.23 6.0498C258.133 5.94238 258.085 5.80811 258.085 5.64697Z" fill="#EEEEEE"/>
<path d="M263.918 11.4585C263.918 11.1899 263.816 10.9823 263.612 10.8354C263.411 10.6851 263.058 10.5562 262.554 10.4487C262.052 10.3413 261.653 10.2124 261.356 10.062C261.062 9.91162 260.844 9.73258 260.701 9.5249C260.561 9.31722 260.491 9.07015 260.491 8.78369C260.491 8.30745 260.692 7.90462 261.093 7.5752C261.497 7.24577 262.013 7.08105 262.64 7.08105C263.298 7.08105 263.832 7.25114 264.24 7.59131C264.652 7.93148 264.858 8.36654 264.858 8.89648H263.859C263.859 8.62435 263.742 8.38981 263.51 8.19287C263.28 7.99593 262.99 7.89746 262.64 7.89746C262.278 7.89746 261.995 7.97624 261.791 8.13379C261.587 8.29134 261.485 8.49723 261.485 8.75146C261.485 8.99137 261.58 9.1722 261.769 9.29395C261.959 9.41569 262.301 9.53206 262.795 9.64307C263.293 9.75407 263.696 9.88656 264.004 10.0405C264.312 10.1945 264.539 10.3807 264.686 10.5991C264.836 10.814 264.911 11.0771 264.911 11.3887C264.911 11.9079 264.704 12.325 264.288 12.6401C263.873 12.9517 263.334 13.1074 262.672 13.1074C262.206 13.1074 261.794 13.0251 261.436 12.8604C261.078 12.6956 260.797 12.4665 260.593 12.1729C260.393 11.8757 260.292 11.5552 260.292 11.2114H261.286C261.304 11.5444 261.436 11.8094 261.683 12.0063C261.934 12.1997 262.264 12.2964 262.672 12.2964C263.048 12.2964 263.349 12.2212 263.574 12.0708C263.803 11.9168 263.918 11.7127 263.918 11.4585Z" fill="#EEEEEE"/>
<path d="M269.574 13C269.517 12.8854 269.47 12.6813 269.434 12.3877C268.972 12.8675 268.421 13.1074 267.78 13.1074C267.207 13.1074 266.736 12.9463 266.367 12.624C266.002 12.2982 265.819 11.8864 265.819 11.3887C265.819 10.7835 266.049 10.3145 266.507 9.98145C266.969 9.64486 267.617 9.47656 268.451 9.47656H269.418V9.02002C269.418 8.67269 269.314 8.39697 269.107 8.19287C268.899 7.98519 268.593 7.88135 268.188 7.88135C267.834 7.88135 267.536 7.97087 267.296 8.1499C267.057 8.32894 266.937 8.54557 266.937 8.7998H265.938C265.938 8.50977 266.04 8.23047 266.244 7.96191C266.451 7.68978 266.731 7.47493 267.082 7.31738C267.436 7.15983 267.825 7.08105 268.247 7.08105C268.917 7.08105 269.441 7.24935 269.821 7.58594C270.2 7.91895 270.397 8.37907 270.412 8.96631V11.6411C270.412 12.1746 270.48 12.599 270.616 12.9141V13H269.574ZM267.925 12.2427C268.236 12.2427 268.532 12.1621 268.811 12.001C269.09 11.8398 269.293 11.6304 269.418 11.3726V10.1802H268.639C267.422 10.1802 266.813 10.5365 266.813 11.249C266.813 11.5605 266.917 11.804 267.125 11.9795C267.332 12.1549 267.599 12.2427 267.925 12.2427Z" fill="#EEEEEE"/>
<path d="M273.097 5.78125V7.18848H274.182V7.95654H273.097V11.5605C273.097 11.7933 273.146 11.9688 273.242 12.0869C273.339 12.2015 273.504 12.2588 273.737 12.2588C273.851 12.2588 274.009 12.2373 274.209 12.1943V13C273.948 13.0716 273.694 13.1074 273.447 13.1074C273.003 13.1074 272.668 12.9731 272.442 12.7046C272.217 12.436 272.104 12.0547 272.104 11.5605V7.95654H271.046V7.18848H272.104V5.78125H273.097Z" fill="#EEEEEE"/>
<path d="M276.208 13H275.214V7.18848H276.208V13ZM275.133 5.64697C275.133 5.48584 275.182 5.34977 275.278 5.23877C275.379 5.12777 275.525 5.07227 275.719 5.07227C275.912 5.07227 276.059 5.12777 276.159 5.23877C276.259 5.34977 276.31 5.48584 276.31 5.64697C276.31 5.80811 276.259 5.94238 276.159 6.0498C276.059 6.15723 275.912 6.21094 275.719 6.21094C275.525 6.21094 275.379 6.15723 275.278 6.0498C275.182 5.94238 275.133 5.80811 275.133 5.64697Z" fill="#EEEEEE"/>
<path d="M277.32 10.0405C277.32 9.47119 277.431 8.95915 277.653 8.50439C277.878 8.04964 278.19 7.69873 278.587 7.45166C278.988 7.20459 279.445 7.08105 279.957 7.08105C280.748 7.08105 281.387 7.35498 281.874 7.90283C282.365 8.45068 282.61 9.17936 282.61 10.0889V10.1587C282.61 10.7244 282.501 11.2329 282.282 11.6841C282.068 12.1317 281.758 12.4808 281.353 12.7314C280.952 12.9821 280.49 13.1074 279.968 13.1074C279.18 13.1074 278.541 12.8335 278.05 12.2856C277.563 11.7378 277.32 11.0127 277.32 10.1104V10.0405ZM278.319 10.1587C278.319 10.8032 278.467 11.3206 278.764 11.7109C279.065 12.1012 279.466 12.2964 279.968 12.2964C280.472 12.2964 280.873 12.0994 281.171 11.7056C281.468 11.3081 281.616 10.7531 281.616 10.0405C281.616 9.40316 281.464 8.88753 281.16 8.49365C280.859 8.09619 280.458 7.89746 279.957 7.89746C279.466 7.89746 279.071 8.09261 278.77 8.48291C278.469 8.87321 278.319 9.4318 278.319 10.1587Z" fill="#EEEEEE"/>
<path d="M284.576 7.18848L284.608 7.91895C285.052 7.36035 285.632 7.08105 286.349 7.08105C287.577 7.08105 288.196 7.77393 288.207 9.15967V13H287.213V9.1543C287.21 8.73535 287.113 8.42562 286.923 8.2251C286.737 8.02458 286.445 7.92432 286.048 7.92432C285.726 7.92432 285.443 8.01025 285.199 8.18213C284.956 8.354 284.766 8.57959 284.63 8.85889V13H283.636V7.18848H284.576Z" fill="#EEEEEE"/>
<path d="M11.675 10.959H8.39859L7.66275 13H6.59927L9.5856 5.17969H10.4879L13.4796 13H12.4215L11.675 10.959ZM8.71011 10.1104H11.3688L10.0368 6.45264L8.71011 10.1104Z" fill="#555555"/>
<path d="M15.0966 7.18848L15.1288 7.91895C15.5728 7.36035 16.1529 7.08105 16.869 7.08105C18.0972 7.08105 18.7167 7.77393 18.7274 9.15967V13H17.7338V9.1543C17.7302 8.73535 17.6335 8.42562 17.4437 8.2251C17.2575 8.02458 16.9657 7.92432 16.5682 7.92432C16.246 7.92432 15.9631 8.01025 15.7196 8.18213C15.4761 8.354 15.2863 8.57959 15.1503 8.85889V13H14.1566V7.18848H15.0966Z" fill="#555555"/>
<path d="M23.5938 13C23.5366 12.8854 23.49 12.6813 23.4542 12.3877C22.9923 12.8675 22.4408 13.1074 21.7999 13.1074C21.227 13.1074 20.7561 12.9463 20.3873 12.624C20.0221 12.2982 19.8394 11.8864 19.8394 11.3887C19.8394 10.7835 20.0686 10.3145 20.5269 9.98145C20.9889 9.64486 21.637 9.47656 22.4713 9.47656H23.4381V9.02002C23.4381 8.67269 23.3342 8.39697 23.1266 8.19287C22.9189 7.98519 22.6127 7.88135 22.2081 7.88135C21.8536 7.88135 21.5564 7.97087 21.3165 8.1499C21.0766 8.32894 20.9566 8.54557 20.9566 8.7998H19.9576C19.9576 8.50977 20.0597 8.23047 20.2638 7.96191C20.4714 7.68978 20.7507 7.47493 21.1017 7.31738C21.4561 7.15983 21.8447 7.08105 22.2672 7.08105C22.9368 7.08105 23.4614 7.24935 23.8409 7.58594C24.2205 7.91895 24.4174 8.37907 24.4317 8.96631V11.6411C24.4317 12.1746 24.4998 12.599 24.6358 12.9141V13H23.5938ZM21.9449 12.2427C22.2564 12.2427 22.5519 12.1621 22.8312 12.001C23.1104 11.8398 23.3128 11.6304 23.4381 11.3726V10.1802H22.6593C21.4418 10.1802 20.8331 10.5365 20.8331 11.249C20.8331 11.5605 20.9369 11.804 21.1446 11.9795C21.3523 12.1549 21.6191 12.2427 21.9449 12.2427Z" fill="#555555"/>
<path d="M26.8489 13H25.8553V4.75H26.8489V13Z" fill="#555555"/>
<path d="M30.1255 11.5444L31.479 7.18848H32.5425L30.2061 13.897C29.8444 14.8638 29.2697 15.3472 28.482 15.3472L28.294 15.3311L27.9234 15.2612V14.4556L28.1919 14.4771C28.5285 14.4771 28.7899 14.409 28.9761 14.2729C29.1659 14.1369 29.3217 13.888 29.4434 13.5264L29.6636 12.9355L27.5904 7.18848H28.6753L30.1255 11.5444Z" fill="#555555"/>
<path d="M36.5979 11.4585C36.5979 11.1899 36.4959 10.9823 36.2918 10.8354C36.0912 10.6851 35.7385 10.5562 35.2336 10.4487C34.7323 10.3413 34.3331 10.2124 34.0359 10.062C33.7423 9.91162 33.5239 9.73258 33.3806 9.5249C33.241 9.31722 33.1711 9.07015 33.1711 8.78369C33.1711 8.30745 33.3717 7.90462 33.7727 7.5752C34.1773 7.24577 34.693 7.08105 35.3196 7.08105C35.9784 7.08105 36.512 7.25114 36.9202 7.59131C37.332 7.93148 37.5378 8.36654 37.5378 8.89648H36.5388C36.5388 8.62435 36.4225 8.38981 36.1897 8.19287C35.9605 7.99593 35.6705 7.89746 35.3196 7.89746C34.9579 7.89746 34.6751 7.97624 34.471 8.13379C34.2669 8.29134 34.1648 8.49723 34.1648 8.75146C34.1648 8.99137 34.2597 9.1722 34.4495 9.29395C34.6392 9.41569 34.9812 9.53206 35.4753 9.64307C35.9731 9.75407 36.3759 9.88656 36.6838 10.0405C36.9918 10.1945 37.2192 10.3807 37.366 10.5991C37.5164 10.814 37.5916 11.0771 37.5916 11.3887C37.5916 11.9079 37.3839 12.325 36.9685 12.6401C36.5531 12.9517 36.0142 13.1074 35.3518 13.1074C34.8863 13.1074 34.4745 13.0251 34.1165 12.8604C33.7584 12.6956 33.4773 12.4665 33.2732 12.1729C33.0727 11.8757 32.9724 11.5552 32.9724 11.2114H33.9661C33.984 11.5444 34.1165 11.8094 34.3635 12.0063C34.6142 12.1997 34.9436 12.2964 35.3518 12.2964C35.7278 12.2964 36.0286 12.2212 36.2542 12.0708C36.4833 11.9168 36.5979 11.7127 36.5979 11.4585Z" fill="#555555"/>
<path d="M41.0776 13.1074C40.2899 13.1074 39.6489 12.8496 39.1548 12.334C38.6606 11.8148 38.4136 11.1219 38.4136 10.2554V10.0728C38.4136 9.49626 38.5228 8.98242 38.7412 8.53125C38.9632 8.0765 39.2711 7.72201 39.665 7.46777C40.0625 7.20996 40.4922 7.08105 40.9541 7.08105C41.7096 7.08105 42.2969 7.32992 42.7158 7.82764C43.1347 8.32536 43.3442 9.03792 43.3442 9.96533V10.3789H39.4072C39.4215 10.9518 39.588 11.4155 39.9067 11.77C40.229 12.1209 40.6372 12.2964 41.1313 12.2964C41.4822 12.2964 41.7794 12.2248 42.0229 12.0815C42.2664 11.9383 42.4795 11.7485 42.6621 11.5122L43.269 11.9849C42.782 12.7332 42.0516 13.1074 41.0776 13.1074ZM40.9541 7.89746C40.553 7.89746 40.2164 8.04427 39.9443 8.33789C39.6722 8.62793 39.5039 9.03613 39.4394 9.5625H42.3506V9.4873C42.3219 8.98242 42.1858 8.59212 41.9424 8.31641C41.6989 8.03711 41.3694 7.89746 40.9541 7.89746Z" fill="#555555"/>
<path d="M47.6628 11.4585C47.6628 11.1899 47.5607 10.9823 47.3566 10.8354C47.1561 10.6851 46.8034 10.5562 46.2985 10.4487C45.7972 10.3413 45.398 10.2124 45.1008 10.062C44.8072 9.91162 44.5887 9.73258 44.4455 9.5249C44.3059 9.31722 44.236 9.07015 44.236 8.78369C44.236 8.30745 44.4366 7.90462 44.8376 7.5752C45.2422 7.24577 45.7578 7.08105 46.3845 7.08105C47.0433 7.08105 47.5769 7.25114 47.9851 7.59131C48.3968 7.93148 48.6027 8.36654 48.6027 8.89648H47.6037C47.6037 8.62435 47.4873 8.38981 47.2546 8.19287C47.0254 7.99593 46.7354 7.89746 46.3845 7.89746C46.0228 7.89746 45.7399 7.97624 45.5358 8.13379C45.3317 8.29134 45.2297 8.49723 45.2297 8.75146C45.2297 8.99137 45.3246 9.1722 45.5144 9.29395C45.7041 9.41569 46.0461 9.53206 46.5402 9.64307C47.038 9.75407 47.4408 9.88656 47.7487 10.0405C48.0567 10.1945 48.284 10.3807 48.4309 10.5991C48.5812 10.814 48.6564 11.0771 48.6564 11.3887C48.6564 11.9079 48.4488 12.325 48.0334 12.6401C47.618 12.9517 47.0791 13.1074 46.4167 13.1074C45.9512 13.1074 45.5394 13.0251 45.1813 12.8604C44.8233 12.6956 44.5422 12.4665 44.3381 12.1729C44.1376 11.8757 44.0373 11.5552 44.0373 11.2114H45.031C45.0489 11.5444 45.1813 11.8094 45.4284 12.0063C45.6791 12.1997 46.0085 12.2964 46.4167 12.2964C46.7927 12.2964 47.0935 12.2212 47.319 12.0708C47.5482 11.9168 47.6628 11.7127 47.6628 11.4585Z" fill="#555555"/>
<path d="M54.0817 10.5347L54.2321 11.5659L54.4523 10.6367L55.9992 5.17969H56.8693L58.3786 10.6367L58.5934 11.582L58.7599 10.5293L59.9738 5.17969H61.0104L59.1144 13H58.1744L56.5631 7.30127L56.4396 6.70508L56.3161 7.30127L54.6456 13H53.7057L51.8151 5.17969H52.8463L54.0817 10.5347Z" fill="#555555"/>
<path d="M64.0238 13.1074C63.236 13.1074 62.5951 12.8496 62.1009 12.334C61.6068 11.8148 61.3597 11.1219 61.3597 10.2554V10.0728C61.3597 9.49626 61.4689 8.98242 61.6874 8.53125C61.9094 8.0765 62.2173 7.72201 62.6112 7.46777C63.0086 7.20996 63.4383 7.08105 63.9002 7.08105C64.6558 7.08105 65.243 7.32992 65.662 7.82764C66.0809 8.32536 66.2904 9.03792 66.2904 9.96533V10.3789H62.3534C62.3677 10.9518 62.5342 11.4155 62.8529 11.77C63.1752 12.1209 63.5834 12.2964 64.0775 12.2964C64.4284 12.2964 64.7256 12.2248 64.9691 12.0815C65.2126 11.9383 65.4256 11.7485 65.6083 11.5122L66.2152 11.9849C65.7282 12.7332 64.9977 13.1074 64.0238 13.1074ZM63.9002 7.89746C63.4992 7.89746 63.1626 8.04427 62.8905 8.33789C62.6183 8.62793 62.4501 9.03613 62.3856 9.5625H65.2967V9.4873C65.2681 8.98242 65.132 8.59212 64.8885 8.31641C64.645 8.03711 64.3156 7.89746 63.9002 7.89746Z" fill="#555555"/>
<path d="M72.1451 10.1587C72.1451 11.0467 71.941 11.7611 71.5328 12.3018C71.1246 12.8389 70.5767 13.1074 69.8892 13.1074C69.1552 13.1074 68.5876 12.8478 68.1866 12.3286L68.1383 13H67.2252V4.75H68.2188V7.82764C68.6199 7.32992 69.1731 7.08105 69.8785 7.08105C70.5839 7.08105 71.1371 7.34782 71.5382 7.88135C71.9428 8.41488 72.1451 9.14535 72.1451 10.0728V10.1587ZM71.1514 10.0459C71.1514 9.36914 71.0207 8.84635 70.7594 8.47754C70.498 8.10872 70.122 7.92432 69.6314 7.92432C68.9762 7.92432 68.5053 8.22868 68.2188 8.8374V11.3511C68.5232 11.9598 68.9976 12.2642 69.6422 12.2642C70.1184 12.2642 70.489 12.0798 70.754 11.7109C71.019 11.3421 71.1514 10.7871 71.1514 10.0459Z" fill="#555555"/>
<path d="M78.1021 13.1074C77.3143 13.1074 76.6734 12.8496 76.1792 12.334C75.6851 11.8148 75.438 11.1219 75.438 10.2554V10.0728C75.438 9.49626 75.5472 8.98242 75.7656 8.53125C75.9876 8.0765 76.2956 7.72201 76.6895 7.46777C77.0869 7.20996 77.5166 7.08105 77.9785 7.08105C78.7341 7.08105 79.3213 7.32992 79.7402 7.82764C80.1592 8.32536 80.3687 9.03792 80.3687 9.96533V10.3789H76.4317C76.446 10.9518 76.6125 11.4155 76.9312 11.77C77.2534 12.1209 77.6616 12.2964 78.1558 12.2964C78.5067 12.2964 78.8039 12.2248 79.0474 12.0815C79.2909 11.9383 79.5039 11.7485 79.6865 11.5122L80.2935 11.9849C79.8065 12.7332 79.076 13.1074 78.1021 13.1074ZM77.9785 7.89746C77.5775 7.89746 77.2409 8.04427 76.9688 8.33789C76.6966 8.62793 76.5283 9.03613 76.4639 9.5625H79.375V9.4873C79.3464 8.98242 79.2103 8.59212 78.9668 8.31641C78.7233 8.03711 78.3939 7.89746 77.9785 7.89746ZM78.4619 4.75H79.6651L78.2256 6.3291H77.4253L78.4619 4.75Z" fill="#555555"/>
<path d="M82.6516 5.78125V7.18848H83.7366V7.95654H82.6516V11.5605C82.6516 11.7933 82.6999 11.9688 82.7966 12.0869C82.8933 12.2015 83.058 12.2588 83.2908 12.2588C83.4053 12.2588 83.5629 12.2373 83.7634 12.1943V13C83.502 13.0716 83.2478 13.1074 83.0007 13.1074C82.5567 13.1074 82.2219 12.9731 81.9963 12.7046C81.7707 12.436 81.6579 12.0547 81.6579 11.5605V7.95654H80.5998V7.18848H81.6579V5.78125H82.6516Z" fill="#555555"/>
<path d="M85.7617 13H84.768V7.18848H85.7617V13ZM84.6875 5.64697C84.6875 5.48584 84.7358 5.34977 84.8325 5.23877C84.9327 5.12777 85.0795 5.07227 85.2729 5.07227C85.4663 5.07227 85.6131 5.12777 85.7133 5.23877C85.8136 5.34977 85.8637 5.48584 85.8637 5.64697C85.8637 5.80811 85.8136 5.94238 85.7133 6.0498C85.6131 6.15723 85.4663 6.21094 85.2729 6.21094C85.0795 6.21094 84.9327 6.15723 84.8325 6.0498C84.7358 5.94238 84.6875 5.80811 84.6875 5.64697Z" fill="#555555"/>
<path d="M86.8952 10.0459C86.8952 9.13281 87.1047 8.4113 87.5236 7.88135C87.9426 7.34782 88.5047 7.08105 89.2101 7.08105C89.8976 7.08105 90.4401 7.31201 90.8376 7.77393L90.8806 7.18848H91.7936V15.2344H90.8V12.4629C90.3989 12.8926 89.8654 13.1074 89.1994 13.1074C88.4976 13.1074 87.9372 12.8353 87.5182 12.291C87.1029 11.7432 86.8952 11.0181 86.8952 10.1157V10.0459ZM87.8889 10.1587C87.8889 10.8247 88.0285 11.3475 88.3078 11.7271C88.5907 12.1066 88.9702 12.2964 89.4465 12.2964C90.0373 12.2964 90.4885 12.035 90.8 11.5122V8.66553C90.4849 8.15348 90.0373 7.89746 89.4572 7.89746C88.9774 7.89746 88.596 8.08903 88.3132 8.47217C88.0303 8.85173 87.8889 9.4139 87.8889 10.1587Z" fill="#555555"/>
<path d="M96.7567 12.4253C96.37 12.88 95.8025 13.1074 95.0541 13.1074C94.4346 13.1074 93.962 12.9284 93.6361 12.5703C93.3139 12.2087 93.151 11.6751 93.1474 10.9697V7.18848H94.141V10.9429C94.141 11.8237 94.4991 12.2642 95.2152 12.2642C95.9744 12.2642 96.4792 11.9813 96.7299 11.4155V7.18848H97.7235V13H96.7782L96.7567 12.4253Z" fill="#555555"/>
<path d="M101.43 13.1074C100.642 13.1074 100.001 12.8496 99.507 12.334C99.0128 11.8148 98.7657 11.1219 98.7657 10.2554V10.0728C98.7657 9.49626 98.875 8.98242 99.0934 8.53125C99.3154 8.0765 99.6233 7.72201 100.017 7.46777C100.415 7.20996 100.844 7.08105 101.306 7.08105C102.062 7.08105 102.649 7.32992 103.068 7.82764C103.487 8.32536 103.696 9.03792 103.696 9.96533V10.3789H99.7594C99.7737 10.9518 99.9402 11.4155 100.259 11.77C100.581 12.1209 100.989 12.2964 101.484 12.2964C101.834 12.2964 102.132 12.2248 102.375 12.0815C102.619 11.9383 102.832 11.7485 103.014 11.5122L103.621 11.9849C103.134 12.7332 102.404 13.1074 101.43 13.1074ZM101.306 7.89746C100.905 7.89746 100.569 8.04427 100.297 8.33789C100.024 8.62793 99.8561 9.03613 99.7916 9.5625H102.703V9.4873C102.674 8.98242 102.538 8.59212 102.295 8.31641C102.051 8.03711 101.722 7.89746 101.306 7.89746Z" fill="#555555"/>
<path d="M108.015 11.4585C108.015 11.1899 107.913 10.9823 107.709 10.8354C107.508 10.6851 107.156 10.5562 106.651 10.4487C106.149 10.3413 105.75 10.2124 105.453 10.062C105.159 9.91162 104.941 9.73258 104.798 9.5249C104.658 9.31722 104.588 9.07015 104.588 8.78369C104.588 8.30745 104.789 7.90462 105.19 7.5752C105.594 7.24577 106.11 7.08105 106.737 7.08105C107.396 7.08105 107.929 7.25114 108.337 7.59131C108.749 7.93148 108.955 8.36654 108.955 8.89648H107.956C107.956 8.62435 107.84 8.38981 107.607 8.19287C107.378 7.99593 107.088 7.89746 106.737 7.89746C106.375 7.89746 106.092 7.97624 105.888 8.13379C105.684 8.29134 105.582 8.49723 105.582 8.75146C105.582 8.99137 105.677 9.1722 105.867 9.29395C106.056 9.41569 106.398 9.53206 106.892 9.64307C107.39 9.75407 107.793 9.88656 108.101 10.0405C108.409 10.1945 108.636 10.3807 108.783 10.5991C108.933 10.814 109.009 11.0771 109.009 11.3887C109.009 11.9079 108.801 12.325 108.386 12.6401C107.97 12.9517 107.431 13.1074 106.769 13.1074C106.303 13.1074 105.892 13.0251 105.534 12.8604C105.175 12.6956 104.894 12.4665 104.69 12.1729C104.49 11.8757 104.389 11.5552 104.389 11.2114H105.383C105.401 11.5444 105.534 11.8094 105.781 12.0063C106.031 12.1997 106.361 12.2964 106.769 12.2964C107.145 12.2964 107.446 12.2212 107.671 12.0708C107.9 11.9168 108.015 11.7127 108.015 11.4585Z" fill="#555555"/>
</svg>
