<svg width="78" height="78" viewBox="0 0 78 78" fill="none" xmlns="http://www.w3.org/2000/svg">
<circle cx="39" cy="39" r="38.5" fill="#EEEEEE" stroke="#555555"/>
<path d="M9.44719 50.3867H12.7011V51H8.56047V50.4375L11.6777 45.9297H8.61125V45.3125H12.5761V45.8633L9.44719 50.3867Z" fill="#555555"/>
<path d="M16.3317 50.582C16.0505 50.9128 15.6377 51.0781 15.0934 51.0781C14.6429 51.0781 14.2992 50.9479 14.0622 50.6875C13.8278 50.4245 13.7093 50.0365 13.7067 49.5234V46.7734H14.4294V49.5039C14.4294 50.1445 14.6898 50.4648 15.2106 50.4648C15.7627 50.4648 16.1299 50.2591 16.3122 49.8477V46.7734H17.0348V51H16.3473L16.3317 50.582Z" fill="#555555"/>
<path d="M18.2045 48.8516C18.2045 48.1927 18.3569 47.6693 18.6616 47.2812C18.9662 46.8906 19.3699 46.6953 19.8725 46.6953C20.3881 46.6953 20.7905 46.8776 21.0795 47.2422L21.1147 46.7734H21.7748V50.8984C21.7748 51.4453 21.6121 51.8763 21.2866 52.1914C20.9636 52.5065 20.5287 52.6641 19.9819 52.6641C19.6772 52.6641 19.379 52.599 19.0873 52.4688C18.7957 52.3385 18.573 52.1602 18.4194 51.9336L18.7944 51.5C19.1043 51.8828 19.4832 52.0742 19.9311 52.0742C20.2827 52.0742 20.5561 51.9753 20.7514 51.7773C20.9493 51.5794 21.0483 51.3008 21.0483 50.9414V50.5781C20.7592 50.9115 20.3647 51.0781 19.8647 51.0781C19.3699 51.0781 18.9689 50.8789 18.6616 50.4805C18.3569 50.082 18.2045 49.5391 18.2045 48.8516ZM18.9311 48.9336C18.9311 49.4102 19.0287 49.7852 19.2241 50.0586C19.4194 50.3294 19.6928 50.4648 20.0444 50.4648C20.5001 50.4648 20.8347 50.2578 21.0483 49.8438V47.9141C20.8269 47.5104 20.4949 47.3086 20.0522 47.3086C19.7006 47.3086 19.4259 47.4453 19.228 47.7188C19.03 47.9922 18.9311 48.3971 18.9311 48.9336Z" fill="#555555"/>
<path d="M25.1516 47.4219C25.0422 47.4036 24.9237 47.3945 24.7961 47.3945C24.3221 47.3945 24.0005 47.5964 23.8313 48V51H23.1086V46.7734H23.8117L23.8234 47.2617C24.0604 46.8841 24.3964 46.6953 24.8313 46.6953C24.9719 46.6953 25.0786 46.7135 25.1516 46.75V47.4219Z" fill="#555555"/>
<path d="M26.8447 51H26.122V46.7734H26.8447V51ZM26.0634 45.6523C26.0634 45.5352 26.0986 45.4362 26.1689 45.3555C26.2418 45.2747 26.3486 45.2344 26.4892 45.2344C26.6298 45.2344 26.7366 45.2747 26.8095 45.3555C26.8824 45.4362 26.9189 45.5352 26.9189 45.6523C26.9189 45.7695 26.8824 45.8672 26.8095 45.9453C26.7366 46.0234 26.6298 46.0625 26.4892 46.0625C26.3486 46.0625 26.2418 46.0234 26.1689 45.9453C26.0986 45.8672 26.0634 45.7695 26.0634 45.6523Z" fill="#555555"/>
<path d="M28.6003 51V47.332H27.9323V46.7734H28.6003V46.3398C28.6003 45.8867 28.7214 45.5365 28.9636 45.2891C29.2058 45.0417 29.5482 44.918 29.9909 44.918C30.1576 44.918 30.323 44.9401 30.487 44.9844L30.448 45.5703C30.3256 45.5469 30.1954 45.5352 30.0573 45.5352C29.823 45.5352 29.642 45.6042 29.5144 45.7422C29.3868 45.8776 29.323 46.0729 29.323 46.3281V46.7734H30.2253V47.332H29.323V51H28.6003Z" fill="#555555"/>
<path d="M31.6216 51V47.332H30.9536V46.7734H31.6216V46.3398C31.6216 45.8867 31.7427 45.5365 31.9848 45.2891C32.227 45.0417 32.5695 44.918 33.0122 44.918C33.1789 44.918 33.3442 44.9401 33.5083 44.9844L33.4692 45.5703C33.3468 45.5469 33.2166 45.5352 33.0786 45.5352C32.8442 45.5352 32.6632 45.6042 32.5356 45.7422C32.408 45.8776 32.3442 46.0729 32.3442 46.3281V46.7734H33.2466V47.332H32.3442V51H31.6216Z" fill="#555555"/>
<path d="M39.1211 51C39.0794 50.9167 39.0456 50.7682 39.0195 50.5547C38.6836 50.9036 38.2826 51.0781 37.8164 51.0781C37.3997 51.0781 37.0573 50.9609 36.7891 50.7266C36.5234 50.4896 36.3906 50.1901 36.3906 49.8281C36.3906 49.388 36.5573 49.0469 36.8906 48.8047C37.2266 48.5599 37.6979 48.4375 38.3047 48.4375H39.0078V48.1055C39.0078 47.8529 38.9323 47.6523 38.7812 47.5039C38.6302 47.3529 38.4076 47.2773 38.1133 47.2773C37.8555 47.2773 37.6393 47.3424 37.4648 47.4727C37.2904 47.6029 37.2031 47.7604 37.2031 47.9453H36.4766C36.4766 47.7344 36.5508 47.5312 36.6992 47.3359C36.8503 47.138 37.0534 46.9818 37.3086 46.8672C37.5664 46.7526 37.849 46.6953 38.1562 46.6953C38.6432 46.6953 39.0247 46.8177 39.3008 47.0625C39.5768 47.3047 39.7201 47.6393 39.7305 48.0664V50.0117C39.7305 50.3997 39.7799 50.7083 39.8789 50.9375V51H39.1211ZM37.9219 50.4492C38.1484 50.4492 38.3633 50.3906 38.5664 50.2734C38.7695 50.1562 38.9167 50.0039 39.0078 49.8164V48.9492H38.4414C37.556 48.9492 37.1133 49.2083 37.1133 49.7266C37.1133 49.9531 37.1888 50.1302 37.3398 50.2578C37.4909 50.3854 37.6849 50.4492 37.9219 50.4492Z" fill="#555555"/>
<path d="M43.7127 50.582C43.4314 50.9128 43.0187 51.0781 42.4744 51.0781C42.0239 51.0781 41.6801 50.9479 41.4431 50.6875C41.2088 50.4245 41.0903 50.0365 41.0877 49.5234V46.7734H41.8103V49.5039C41.8103 50.1445 42.0707 50.4648 42.5916 50.4648C43.1437 50.4648 43.5108 50.2591 43.6931 49.8477V46.7734H44.4158V51H43.7283L43.7127 50.582Z" fill="#555555"/>
<path d="M46.1128 51V47.332H45.4448V46.7734H46.1128V46.3398C46.1128 45.8867 46.2339 45.5365 46.4761 45.2891C46.7183 45.0417 47.0607 44.918 47.5034 44.918C47.6701 44.918 47.8355 44.9401 47.9995 44.9844L47.9605 45.5703C47.8381 45.5469 47.7079 45.5352 47.5698 45.5352C47.3355 45.5352 47.1545 45.6042 47.0269 45.7422C46.8993 45.8776 46.8355 46.0729 46.8355 46.3281V46.7734H47.7378V47.332H46.8355V51H46.1128Z" fill="#555555"/>
<path d="M50.8272 48.8516C50.8272 48.2031 50.9808 47.6823 51.2881 47.2891C51.5954 46.8932 51.9978 46.6953 52.4952 46.6953C52.99 46.6953 53.3819 46.8646 53.6709 47.2031V45H54.3936V51H53.7295L53.6944 50.5469C53.4053 50.901 53.003 51.0781 52.4874 51.0781C51.9978 51.0781 51.598 50.8776 51.2881 50.4766C50.9808 50.0755 50.8272 49.5521 50.8272 48.9062V48.8516ZM51.5499 48.9336C51.5499 49.4128 51.6488 49.7878 51.8467 50.0586C52.0446 50.3294 52.3181 50.4648 52.667 50.4648C53.1254 50.4648 53.46 50.2591 53.6709 49.8477V47.9062C53.4548 47.5078 53.1228 47.3086 52.6749 47.3086C52.3207 47.3086 52.0446 47.4453 51.8467 47.7188C51.6488 47.9922 51.5499 48.3971 51.5499 48.9336Z" fill="#555555"/>
<path d="M57.5125 51.0781C56.9396 51.0781 56.4734 50.8906 56.1141 50.5156C55.7547 50.138 55.575 49.6341 55.575 49.0039V48.8711C55.575 48.4518 55.6544 48.0781 55.8133 47.75C55.9747 47.4193 56.1987 47.1615 56.4852 46.9766C56.7742 46.7891 57.0867 46.6953 57.4227 46.6953C57.9721 46.6953 58.3992 46.8763 58.7039 47.2383C59.0086 47.6003 59.1609 48.1185 59.1609 48.793V49.0938H56.2977C56.3081 49.5104 56.4292 49.8477 56.6609 50.1055C56.8953 50.3607 57.1922 50.4883 57.5516 50.4883C57.8068 50.4883 58.0229 50.4362 58.2 50.332C58.3771 50.2279 58.532 50.0898 58.6648 49.918L59.1062 50.2617C58.7521 50.806 58.2208 51.0781 57.5125 51.0781ZM57.4227 47.2891C57.131 47.2891 56.8862 47.3958 56.6883 47.6094C56.4904 47.8203 56.368 48.1172 56.3211 48.5H58.4383V48.4453C58.4174 48.0781 58.3185 47.7943 58.1414 47.5938C57.9643 47.3906 57.7247 47.2891 57.4227 47.2891Z" fill="#555555"/>
<path d="M61.0259 51H60.3033V46.7734H61.0259V51ZM60.2447 45.6523C60.2447 45.5352 60.2798 45.4362 60.3502 45.3555C60.4231 45.2747 60.5298 45.2344 60.6705 45.2344C60.8111 45.2344 60.9179 45.2747 60.9908 45.3555C61.0637 45.4362 61.1002 45.5352 61.1002 45.6523C61.1002 45.7695 61.0637 45.8672 60.9908 45.9453C60.9179 46.0234 60.8111 46.0625 60.6705 46.0625C60.5298 46.0625 60.4231 46.0234 60.3502 45.9453C60.2798 45.8672 60.2447 45.7695 60.2447 45.6523Z" fill="#555555"/>
<path d="M63.1097 46.7734L63.1331 47.3047C63.456 46.8984 63.8779 46.6953 64.3988 46.6953C65.292 46.6953 65.7425 47.1992 65.7503 48.207V51H65.0277V48.2031C65.0251 47.8984 64.9547 47.6732 64.8167 47.5273C64.6813 47.3815 64.4691 47.3086 64.18 47.3086C63.9456 47.3086 63.7399 47.3711 63.5628 47.4961C63.3857 47.6211 63.2477 47.7852 63.1488 47.9883V51H62.4261V46.7734H63.1097Z" fill="#555555"/>
<path d="M68.8341 51.0781C68.2611 51.0781 67.795 50.8906 67.4356 50.5156C67.0762 50.138 66.8966 49.6341 66.8966 49.0039V48.8711C66.8966 48.4518 66.976 48.0781 67.1348 47.75C67.2963 47.4193 67.5203 47.1615 67.8067 46.9766C68.0958 46.7891 68.4083 46.6953 68.7442 46.6953C69.2937 46.6953 69.7208 46.8763 70.0255 47.2383C70.3302 47.6003 70.4825 48.1185 70.4825 48.793V49.0938H67.6192C67.6296 49.5104 67.7507 49.8477 67.9825 50.1055C68.2169 50.3607 68.5137 50.4883 68.8731 50.4883C69.1283 50.4883 69.3445 50.4362 69.5216 50.332C69.6986 50.2279 69.8536 50.0898 69.9864 49.918L70.4278 50.2617C70.0736 50.806 69.5424 51.0781 68.8341 51.0781ZM68.7442 47.2891C68.4526 47.2891 68.2078 47.3958 68.0098 47.6094C67.8119 47.8203 67.6895 48.1172 67.6427 48.5H69.7598V48.4453C69.739 48.0781 69.6401 47.7943 69.463 47.5938C69.2859 47.3906 69.0463 47.2891 68.7442 47.2891Z" fill="#555555"/>
<path d="M18.3467 61H17.5928L14.7295 56.6172V61H13.9756V55.3125H14.7295L17.6006 59.7148V55.3125H18.3467V61Z" fill="#555555"/>
<path d="M22.0148 60.582C21.7336 60.9128 21.3208 61.0781 20.7766 61.0781C20.326 61.0781 19.9823 60.9479 19.7453 60.6875C19.5109 60.4245 19.3925 60.0365 19.3898 59.5234V56.7734H20.1125V59.5039C20.1125 60.1445 20.3729 60.4648 20.8938 60.4648C21.4458 60.4648 21.813 60.2591 21.9953 59.8477V56.7734H22.718V61H22.0305L22.0148 60.582Z" fill="#555555"/>
<path d="M24.64 55.75V56.7734H25.4291V57.332H24.64V59.9531C24.64 60.1224 24.6752 60.25 24.7455 60.3359C24.8158 60.4193 24.9356 60.4609 25.1048 60.4609C25.1882 60.4609 25.3028 60.4453 25.4486 60.4141V61C25.2585 61.0521 25.0736 61.0781 24.8939 61.0781C24.571 61.0781 24.3275 60.9805 24.1634 60.7852C23.9994 60.5898 23.9173 60.3125 23.9173 59.9531V57.332H23.1478V56.7734H23.9173V55.75H24.64Z" fill="#555555"/>
<path d="M26.7964 60.4102H29.2691V61H25.9136V60.4688L28.2456 57.3711H25.9487V56.7734H29.1519V57.2852L26.7964 60.4102Z" fill="#555555"/>
<path d="M32.5348 60.582C32.2536 60.9128 31.8408 61.0781 31.2966 61.0781C30.846 61.0781 30.5023 60.9479 30.2653 60.6875C30.0309 60.4245 29.9124 60.0365 29.9098 59.5234V56.7734H30.6325V59.5039C30.6325 60.1445 30.8929 60.4648 31.4137 60.4648C31.9658 60.4648 32.333 60.2591 32.5153 59.8477V56.7734H33.238V61H32.5505L32.5348 60.582Z" fill="#555555"/>
<path d="M34.8631 56.7734L34.8866 57.3047C35.2095 56.8984 35.6314 56.6953 36.1522 56.6953C37.0454 56.6953 37.4959 57.1992 37.5038 58.207V61H36.7811V58.2031C36.7785 57.8984 36.7082 57.6732 36.5702 57.5273C36.4347 57.3815 36.2225 57.3086 35.9334 57.3086C35.6991 57.3086 35.4933 57.3711 35.3163 57.4961C35.1392 57.6211 35.0011 57.7852 34.9022 57.9883V61H34.1795V56.7734H34.8631Z" fill="#555555"/>
<path d="M38.2617 58.8516C38.2617 58.1927 38.4141 57.6693 38.7188 57.2812C39.0234 56.8906 39.4271 56.6953 39.9297 56.6953C40.4453 56.6953 40.8477 56.8776 41.1367 57.2422L41.1719 56.7734H41.832V60.8984C41.832 61.4453 41.6693 61.8763 41.3438 62.1914C41.0208 62.5065 40.5859 62.6641 40.0391 62.6641C39.7344 62.6641 39.4362 62.599 39.1445 62.4688C38.8529 62.3385 38.6302 62.1602 38.4766 61.9336L38.8516 61.5C39.1615 61.8828 39.5404 62.0742 39.9883 62.0742C40.3398 62.0742 40.6133 61.9753 40.8086 61.7773C41.0065 61.5794 41.1055 61.3008 41.1055 60.9414V60.5781C40.8164 60.9115 40.4219 61.0781 39.9219 61.0781C39.4271 61.0781 39.026 60.8789 38.7188 60.4805C38.4141 60.082 38.2617 59.5391 38.2617 58.8516ZM38.9883 58.9336C38.9883 59.4102 39.0859 59.7852 39.2812 60.0586C39.4766 60.3294 39.75 60.4648 40.1016 60.4648C40.5573 60.4648 40.8919 60.2578 41.1055 59.8438V57.9141C40.8841 57.5104 40.5521 57.3086 40.1094 57.3086C39.7578 57.3086 39.4831 57.4453 39.2852 57.7188C39.0872 57.9922 38.9883 58.3971 38.9883 58.9336Z" fill="#555555"/>
<path d="M45.2267 59.8789C45.2267 59.6836 45.1525 59.5326 45.0041 59.4258C44.8582 59.3164 44.6017 59.2227 44.2345 59.1445C43.8699 59.0664 43.5796 58.9727 43.3634 58.8633C43.1499 58.7539 42.991 58.6237 42.8869 58.4727C42.7853 58.3216 42.7345 58.1419 42.7345 57.9336C42.7345 57.5872 42.8804 57.2943 43.172 57.0547C43.4663 56.8151 43.8413 56.6953 44.297 56.6953C44.7762 56.6953 45.1642 56.819 45.4611 57.0664C45.7606 57.3138 45.9103 57.6302 45.9103 58.0156H45.1837C45.1837 57.8177 45.0991 57.6471 44.9298 57.5039C44.7632 57.3607 44.5522 57.2891 44.297 57.2891C44.034 57.2891 43.8283 57.3464 43.6798 57.4609C43.5314 57.5755 43.4572 57.7253 43.4572 57.9102C43.4572 58.0846 43.5262 58.2161 43.6642 58.3047C43.8022 58.3932 44.0509 58.4779 44.4103 58.5586C44.7723 58.6393 45.0653 58.7357 45.2892 58.8477C45.5132 58.9596 45.6785 59.0951 45.7853 59.2539C45.8947 59.4102 45.9494 59.6016 45.9494 59.8281C45.9494 60.2057 45.7983 60.5091 45.4962 60.7383C45.1942 60.9648 44.8022 61.0781 44.3205 61.0781C43.9819 61.0781 43.6824 61.0182 43.422 60.8984C43.1616 60.7786 42.9572 60.612 42.8087 60.3984C42.6629 60.1823 42.59 59.9492 42.59 59.6992H43.3127C43.3257 59.9414 43.422 60.1341 43.6017 60.2773C43.784 60.418 44.0236 60.4883 44.3205 60.4883C44.5939 60.4883 44.8127 60.4336 44.9767 60.3242C45.1434 60.2122 45.2267 60.0638 45.2267 59.8789Z" fill="#555555"/>
<path d="M46.555 58.8516C46.555 58.2031 46.7086 57.6823 47.0159 57.2891C47.3232 56.8932 47.7256 56.6953 48.223 56.6953C48.7178 56.6953 49.1097 56.8646 49.3988 57.2031V55H50.1214V61H49.4573L49.4222 60.5469C49.1331 60.901 48.7308 61.0781 48.2152 61.0781C47.7256 61.0781 47.3258 60.8776 47.0159 60.4766C46.7086 60.0755 46.555 59.5521 46.555 58.9062V58.8516ZM47.2777 58.9336C47.2777 59.4128 47.3766 59.7878 47.5745 60.0586C47.7724 60.3294 48.0459 60.4648 48.3948 60.4648C48.8532 60.4648 49.1878 60.2591 49.3988 59.8477V57.9062C49.1826 57.5078 48.8506 57.3086 48.4027 57.3086C48.0485 57.3086 47.7724 57.4453 47.5745 57.7188C47.3766 57.9922 47.2777 58.3971 47.2777 58.9336Z" fill="#555555"/>
<path d="M53.6958 61C53.6541 60.9167 53.6203 60.7682 53.5942 60.5547C53.2583 60.9036 52.8572 61.0781 52.3911 61.0781C51.9744 61.0781 51.632 60.9609 51.3638 60.7266C51.0981 60.4896 50.9653 60.1901 50.9653 59.8281C50.9653 59.388 51.132 59.0469 51.4653 58.8047C51.8013 58.5599 52.2726 58.4375 52.8794 58.4375H53.5825V58.1055C53.5825 57.8529 53.507 57.6523 53.3559 57.5039C53.2049 57.3529 52.9822 57.2773 52.688 57.2773C52.4302 57.2773 52.214 57.3424 52.0395 57.4727C51.8651 57.6029 51.7778 57.7604 51.7778 57.9453H51.0513C51.0513 57.7344 51.1255 57.5312 51.2739 57.3359C51.425 57.138 51.6281 56.9818 51.8833 56.8672C52.1411 56.7526 52.4237 56.6953 52.7309 56.6953C53.2179 56.6953 53.5994 56.8177 53.8755 57.0625C54.1515 57.3047 54.2947 57.6393 54.3052 58.0664V60.0117C54.3052 60.3997 54.3546 60.7083 54.4536 60.9375V61H53.6958ZM52.4966 60.4492C52.7231 60.4492 52.938 60.3906 53.1411 60.2734C53.3442 60.1562 53.4914 60.0039 53.5825 59.8164V58.9492H53.0161C52.1307 58.9492 51.688 59.2083 51.688 59.7266C51.688 59.9531 51.7635 60.1302 51.9145 60.2578C52.0656 60.3854 52.2596 60.4492 52.4966 60.4492Z" fill="#555555"/>
<path d="M56.2584 55.75V56.7734H57.0475V57.332H56.2584V59.9531C56.2584 60.1224 56.2936 60.25 56.3639 60.3359C56.4342 60.4193 56.554 60.4609 56.7233 60.4609C56.8066 60.4609 56.9212 60.4453 57.067 60.4141V61C56.8769 61.0521 56.692 61.0781 56.5123 61.0781C56.1894 61.0781 55.9459 60.9805 55.7819 60.7852C55.6178 60.5898 55.5358 60.3125 55.5358 59.9531V57.332H54.7663V56.7734H55.5358V55.75H56.2584Z" fill="#555555"/>
<path d="M59.4891 61.0781C58.9161 61.0781 58.45 60.8906 58.0906 60.5156C57.7312 60.138 57.5516 59.6341 57.5516 59.0039V58.8711C57.5516 58.4518 57.631 58.0781 57.7898 57.75C57.9513 57.4193 58.1753 57.1615 58.4617 56.9766C58.7508 56.7891 59.0633 56.6953 59.3992 56.6953C59.9487 56.6953 60.3758 56.8763 60.6805 57.2383C60.9852 57.6003 61.1375 58.1185 61.1375 58.793V59.0938H58.2742C58.2846 59.5104 58.4057 59.8477 58.6375 60.1055C58.8719 60.3607 59.1687 60.4883 59.5281 60.4883C59.7833 60.4883 59.9995 60.4362 60.1766 60.332C60.3536 60.2279 60.5086 60.0898 60.6414 59.918L61.0828 60.2617C60.7286 60.806 60.1974 61.0781 59.4891 61.0781ZM59.3992 57.2891C59.1075 57.2891 58.8628 57.3958 58.6648 57.6094C58.4669 57.8203 58.3445 58.1172 58.2977 58.5H60.4148V58.4453C60.394 58.0781 60.295 57.7943 60.118 57.5938C59.9409 57.3906 59.7013 57.2891 59.3992 57.2891Z" fill="#555555"/>
<path d="M62.5009 56.7734L62.5244 57.3047C62.8473 56.8984 63.2692 56.6953 63.79 56.6953C64.6832 56.6953 65.1338 57.1992 65.1416 58.207V61H64.4189V58.2031C64.4163 57.8984 64.346 57.6732 64.208 57.5273C64.0726 57.3815 63.8603 57.3086 63.5713 57.3086C63.3369 57.3086 63.1311 57.3711 62.9541 57.4961C62.777 57.6211 62.639 57.7852 62.54 57.9883V61H61.8173V56.7734H62.5009Z" fill="#555555"/>
<path d="M8.62773 35.7588L8.76445 36.6963L8.96465 35.8516L10.3709 30.8906H11.1619L12.534 35.8516L12.7293 36.7109L12.8807 35.7539L13.9842 30.8906H14.9266L13.2029 38H12.3484L10.8836 32.8193L10.7713 32.2773L10.659 32.8193L9.14043 38H8.28593L6.56718 30.8906H7.50468L8.62773 35.7588Z" fill="#555555"/>
<path d="M18.166 38.0977C17.4499 38.0977 16.8672 37.8633 16.418 37.3945C15.9687 36.9225 15.7441 36.2926 15.7441 35.5049V35.3389C15.7441 34.8148 15.8434 34.3477 16.042 33.9375C16.2438 33.5241 16.5238 33.2018 16.8818 32.9707C17.2432 32.7363 17.6338 32.6191 18.0537 32.6191C18.7406 32.6191 19.2744 32.8454 19.6553 33.2979C20.0361 33.7503 20.2266 34.3981 20.2266 35.2412V35.6172H16.6475C16.6605 36.138 16.8118 36.5596 17.1016 36.8818C17.3945 37.2008 17.7656 37.3604 18.2148 37.3604C18.5339 37.3604 18.804 37.2952 19.0254 37.165C19.2467 37.0348 19.4404 36.8623 19.6064 36.6475L20.1582 37.0771C19.7155 37.7575 19.0514 38.0977 18.166 38.0977ZM18.0537 33.3613C17.6891 33.3613 17.3831 33.4948 17.1357 33.7617C16.8883 34.0254 16.7353 34.3965 16.6768 34.875H19.3232V34.8066C19.2972 34.3477 19.1735 33.9928 18.9521 33.7422C18.7308 33.4883 18.4313 33.3613 18.0537 33.3613Z" fill="#555555"/>
<path d="M26.049 35.417C26.049 36.2243 25.8635 36.8737 25.4924 37.3652C25.1213 37.8535 24.6232 38.0977 23.9982 38.0977C23.3309 38.0977 22.815 37.8617 22.4504 37.3896L22.4064 38H21.5764V30.5H22.4797V33.2979C22.8443 32.8454 23.3472 32.6191 23.9885 32.6191C24.6298 32.6191 25.1327 32.8617 25.4973 33.3467C25.8651 33.8317 26.049 34.4958 26.049 35.3389V35.417ZM25.1457 35.3145C25.1457 34.6992 25.0269 34.224 24.7893 33.8887C24.5516 33.5534 24.2098 33.3857 23.7639 33.3857C23.1682 33.3857 22.7401 33.6624 22.4797 34.2158V36.501C22.7564 37.0544 23.1877 37.3311 23.7736 37.3311C24.2066 37.3311 24.5435 37.1634 24.7844 36.8281C25.0253 36.4928 25.1457 35.9883 25.1457 35.3145Z" fill="#555555"/>
<path d="M34.3395 36.1445H31.3609L30.692 38H29.7252L32.44 30.8906H33.2603L35.9801 38H35.0182L34.3395 36.1445ZM31.6441 35.373H34.0611L32.8502 32.0479L31.6441 35.373Z" fill="#555555"/>
<path d="M37.95 32.7168L37.9793 33.3809C38.3829 32.873 38.9103 32.6191 39.5613 32.6191C40.6779 32.6191 41.241 33.249 41.2508 34.5088V38H40.3475V34.5039C40.3442 34.123 40.2563 33.8415 40.0838 33.6592C39.9145 33.4769 39.6492 33.3857 39.2879 33.3857C38.9949 33.3857 38.7378 33.4639 38.5164 33.6201C38.295 33.7764 38.1225 33.9814 37.9988 34.2354V38H37.0955V32.7168H37.95Z" fill="#555555"/>
<path d="M46.1748 38C46.1227 37.8958 46.0804 37.7103 46.0478 37.4434C45.6279 37.8796 45.1266 38.0977 44.5439 38.0977C44.0231 38.0977 43.595 37.9512 43.2598 37.6582C42.9277 37.362 42.7617 36.9876 42.7617 36.5352C42.7617 35.985 42.97 35.5586 43.3867 35.2559C43.8066 34.9499 44.3958 34.7969 45.1543 34.7969H46.0332V34.3818C46.0332 34.0661 45.9388 33.8154 45.75 33.6299C45.5612 33.4411 45.2829 33.3467 44.915 33.3467C44.5928 33.3467 44.3226 33.4281 44.1045 33.5908C43.8864 33.7536 43.7773 33.9505 43.7773 34.1816H42.8691C42.8691 33.918 42.9619 33.6641 43.1475 33.4199C43.3363 33.1725 43.5902 32.9772 43.9092 32.834C44.2314 32.6908 44.5846 32.6191 44.9687 32.6191C45.5775 32.6191 46.0544 32.7721 46.3994 33.0781C46.7445 33.3809 46.9235 33.7992 46.9365 34.333V36.7646C46.9365 37.2497 46.9984 37.6354 47.1221 37.9219V38H46.1748ZM44.6758 37.3115C44.959 37.3115 45.2275 37.2383 45.4814 37.0918C45.7353 36.9453 45.9193 36.7549 46.0332 36.5205V35.4365H45.3252C44.2184 35.4365 43.665 35.7604 43.665 36.4082C43.665 36.6914 43.7594 36.9128 43.9482 37.0723C44.137 37.2318 44.3796 37.3115 44.6758 37.3115Z" fill="#555555"/>
<path d="M49.634 38H48.7307V30.5H49.634V38Z" fill="#555555"/>
<path d="M53.1127 36.6768L54.3432 32.7168H55.31L53.1859 38.8154C52.8572 39.6943 52.3347 40.1338 51.6186 40.1338L51.4477 40.1191L51.1107 40.0557V39.3232L51.3549 39.3428C51.6609 39.3428 51.8985 39.2809 52.0678 39.1572C52.2403 39.0335 52.3819 38.8073 52.4926 38.4785L52.6928 37.9414L50.808 32.7168H51.7943L53.1127 36.6768Z" fill="#555555"/>
<path d="M57.6461 31.4375V32.7168H58.6324V33.415H57.6461V36.6914C57.6461 36.903 57.69 37.0625 57.7779 37.1699C57.8658 37.2741 58.0156 37.3262 58.2271 37.3262C58.3313 37.3262 58.4745 37.3066 58.6568 37.2676V38C58.4192 38.0651 58.1881 38.0977 57.9635 38.0977C57.5598 38.0977 57.2555 37.9756 57.0504 37.7314C56.8453 37.4873 56.7428 37.1406 56.7428 36.6914V33.415H55.7809V32.7168H56.7428V31.4375H57.6461Z" fill="#555555"/>
<path d="M60.9734 38H60.0701V32.7168H60.9734V38ZM59.9969 31.3154C59.9969 31.1689 60.0408 31.0452 60.1287 30.9443C60.2198 30.8434 60.3533 30.793 60.5291 30.793C60.7049 30.793 60.8383 30.8434 60.9295 30.9443C61.0206 31.0452 61.0662 31.1689 61.0662 31.3154C61.0662 31.4619 61.0206 31.584 60.9295 31.6816C60.8383 31.7793 60.7049 31.8281 60.5291 31.8281C60.3533 31.8281 60.2198 31.7793 60.1287 31.6816C60.0408 31.584 59.9969 31.4619 59.9969 31.3154Z" fill="#555555"/>
<path d="M64.8428 37.3604C65.165 37.3604 65.4466 37.2627 65.6875 37.0674C65.9284 36.8721 66.0618 36.6279 66.0879 36.335H66.9424C66.9261 36.6377 66.8219 36.9258 66.6299 37.1992C66.4378 37.4727 66.1807 37.6908 65.8584 37.8535C65.5394 38.0163 65.2008 38.0977 64.8428 38.0977C64.1234 38.0977 63.5505 37.8584 63.124 37.3799C62.7008 36.8981 62.4893 36.2406 62.4893 35.4072V35.2559C62.4893 34.7415 62.5837 34.2842 62.7725 33.8838C62.9613 33.4834 63.2314 33.1725 63.583 32.9512C63.9378 32.7298 64.3561 32.6191 64.8379 32.6191C65.4303 32.6191 65.9219 32.7965 66.3125 33.1514C66.7064 33.5062 66.9163 33.9668 66.9424 34.5332H66.0879C66.0618 34.1914 65.9316 33.9115 65.6973 33.6934C65.4661 33.472 65.1797 33.3613 64.8379 33.3613C64.3789 33.3613 64.0225 33.5273 63.7686 33.8594C63.5179 34.1882 63.3926 34.665 63.3926 35.29V35.4609C63.3926 36.0697 63.5179 36.5384 63.7686 36.8672C64.0192 37.196 64.3773 37.3604 64.8428 37.3604Z" fill="#555555"/>
<path d="M71.3342 36.5986C71.3342 36.3545 71.2414 36.1657 71.0559 36.0322C70.8736 35.8955 70.5529 35.7783 70.0939 35.6807C69.6382 35.583 69.2753 35.4658 69.0051 35.3291C68.7382 35.1924 68.5396 35.0296 68.4094 34.8408C68.2824 34.652 68.2189 34.4274 68.2189 34.167C68.2189 33.734 68.4012 33.3678 68.7658 33.0684C69.1337 32.7689 69.6024 32.6191 70.1721 32.6191C70.771 32.6191 71.2561 32.7738 71.6272 33.083C72.0015 33.3923 72.1887 33.7878 72.1887 34.2695H71.2805C71.2805 34.0221 71.1747 33.8089 70.9631 33.6299C70.7548 33.4508 70.4911 33.3613 70.1721 33.3613C69.8433 33.3613 69.5861 33.4329 69.4006 33.5762C69.215 33.7194 69.1223 33.9066 69.1223 34.1377C69.1223 34.3558 69.2085 34.5202 69.3811 34.6309C69.5536 34.7415 69.8645 34.8473 70.3137 34.9482C70.7661 35.0492 71.1324 35.1696 71.4123 35.3096C71.6923 35.4495 71.899 35.6188 72.0324 35.8174C72.1691 36.0127 72.2375 36.252 72.2375 36.5352C72.2375 37.0072 72.0487 37.3864 71.6711 37.6729C71.2935 37.9561 70.8036 38.0977 70.2014 38.0977C69.7782 38.0977 69.4038 38.0228 69.0783 37.873C68.7528 37.7233 68.4973 37.515 68.3117 37.248C68.1294 36.9779 68.0383 36.6865 68.0383 36.374H68.9416C68.9579 36.6768 69.0783 36.9176 69.3029 37.0967C69.5308 37.2725 69.8303 37.3604 70.2014 37.3604C70.5432 37.3604 70.8166 37.292 71.0217 37.1553C71.23 37.0153 71.3342 36.8298 71.3342 36.5986Z" fill="#555555"/>
<path d="M30.8934 17.3594H24.2625V24H23.0613V9.78125H31.8699V10.8066H24.2625V16.334H30.8934V17.3594Z" fill="#555555"/>
<path d="M41.5758 24C41.4586 23.668 41.3837 23.1764 41.3512 22.5254C40.941 23.0592 40.4169 23.4727 39.7789 23.7656C39.1474 24.0521 38.4768 24.1953 37.7672 24.1953C36.7516 24.1953 35.928 23.9121 35.2965 23.3457C34.6715 22.7793 34.359 22.0632 34.359 21.1973C34.359 20.1686 34.7854 19.3548 35.6383 18.7559C36.4977 18.1569 37.6923 17.8574 39.2223 17.8574H41.3414V16.6562C41.3414 15.901 41.107 15.3086 40.6383 14.8789C40.176 14.4427 39.499 14.2246 38.607 14.2246C37.7932 14.2246 37.1194 14.4329 36.5855 14.8496C36.0517 15.2663 35.7848 15.7676 35.7848 16.3535L34.6129 16.3438C34.6129 15.5039 35.0035 14.778 35.7848 14.166C36.566 13.5475 37.5263 13.2383 38.6656 13.2383C39.844 13.2383 40.7717 13.5345 41.4488 14.127C42.1324 14.7129 42.484 15.5332 42.5035 16.5879V21.5879C42.5035 22.61 42.6109 23.375 42.8258 23.8828V24H41.5758ZM37.9039 23.1602C38.6852 23.1602 39.3818 22.9714 39.9937 22.5938C40.6122 22.2161 41.0615 21.7116 41.3414 21.0801V18.7559H39.2516C38.0862 18.7689 37.1747 18.9837 36.5172 19.4004C35.8596 19.8105 35.5309 20.377 35.5309 21.0996C35.5309 21.6921 35.749 22.1836 36.1852 22.5742C36.6279 22.9648 37.2008 23.1602 37.9039 23.1602Z" fill="#555555"/>
<path d="M48.1371 24H46.9652V13.4336H48.1371V24ZM46.7602 10.377C46.7602 10.1556 46.8318 9.97005 46.975 9.82031C47.1182 9.66406 47.3135 9.58594 47.5609 9.58594C47.8083 9.58594 48.0036 9.66406 48.1469 9.82031C48.2966 9.97005 48.3715 10.1556 48.3715 10.377C48.3715 10.5983 48.2966 10.7839 48.1469 10.9336C48.0036 11.0833 47.8083 11.1582 47.5609 11.1582C47.3135 11.1582 47.1182 11.0833 46.975 10.9336C46.8318 10.7839 46.7602 10.5983 46.7602 10.377Z" fill="#555555"/>
<path d="M57.4035 14.4297C57.1561 14.3841 56.8924 14.3613 56.6125 14.3613C55.8833 14.3613 55.2648 14.5664 54.757 14.9766C54.2557 15.3802 53.8977 15.9694 53.6828 16.7441V24H52.5207V13.4336H53.6633L53.6828 15.1133C54.3013 13.8633 55.2941 13.2383 56.6613 13.2383C56.9868 13.2383 57.244 13.2806 57.4328 13.3652L57.4035 14.4297Z" fill="#555555"/>
</svg>
