<svg width="278" height="18" viewBox="0 0 278 18" fill="none" xmlns="http://www.w3.org/2000/svg">
<rect x="0.5" y="0.5" width="277" height="17" rx="1.5" fill="#EEEEEE" stroke="#555555"/>
<rect x="102" width="176" height="18" rx="2" fill="#555555"/>
<path d="M112.797 5.17969V13H111.777V5.17969H112.797ZM115.311 5.17969V6.02832H109.269V5.17969H115.311Z" fill="#EEEEEE"/>
<path d="M116.686 8.10156V13H115.693V7.18848H116.659L116.686 8.10156ZM118.502 7.15625L118.496 8.08008C118.414 8.06217 118.335 8.05143 118.26 8.04785C118.188 8.04069 118.106 8.03711 118.013 8.03711C117.784 8.03711 117.581 8.07292 117.406 8.14453C117.231 8.21615 117.082 8.31641 116.96 8.44531C116.838 8.57422 116.742 8.72819 116.67 8.90723C116.602 9.08268 116.557 9.27604 116.536 9.4873L116.257 9.64844C116.257 9.29753 116.291 8.9681 116.359 8.66016C116.43 8.35221 116.539 8.08008 116.686 7.84375C116.833 7.60384 117.019 7.41764 117.245 7.28516C117.474 7.14909 117.746 7.08105 118.061 7.08105C118.133 7.08105 118.215 7.09001 118.308 7.10791C118.401 7.12223 118.466 7.13835 118.502 7.15625Z" fill="#EEEEEE"/>
<path d="M122.756 11.6572V7.18848H123.755V13H122.804L122.756 11.6572ZM122.944 10.4326L123.357 10.4219C123.357 10.8086 123.316 11.1667 123.234 11.4961C123.155 11.8219 123.026 12.1048 122.847 12.3447C122.668 12.5846 122.434 12.7726 122.143 12.9087C121.853 13.0412 121.501 13.1074 121.085 13.1074C120.803 13.1074 120.543 13.0662 120.307 12.9839C120.074 12.9015 119.873 12.7744 119.705 12.6025C119.537 12.4307 119.406 12.2069 119.313 11.9312C119.223 11.6554 119.179 11.3242 119.179 10.9375V7.18848H120.172V10.9482C120.172 11.2096 120.201 11.4263 120.258 11.5981C120.319 11.7664 120.4 11.9007 120.5 12.001C120.604 12.0977 120.718 12.1657 120.844 12.2051C120.973 12.2445 121.105 12.2642 121.241 12.2642C121.664 12.2642 121.998 12.1836 122.246 12.0225C122.493 11.8577 122.67 11.6375 122.777 11.3618C122.888 11.0825 122.944 10.7728 122.944 10.4326Z" fill="#EEEEEE"/>
<path d="M126.682 12.3984L128.299 7.18848H129.362L127.031 13.897C126.978 14.0402 126.906 14.1942 126.817 14.3589C126.731 14.5272 126.62 14.6865 126.484 14.8369C126.347 14.9873 126.183 15.109 125.989 15.2021C125.8 15.2988 125.572 15.3472 125.307 15.3472C125.229 15.3472 125.128 15.3364 125.007 15.3149C124.885 15.2935 124.799 15.2756 124.749 15.2612L124.743 14.4556C124.772 14.4591 124.817 14.4627 124.878 14.4663C124.942 14.4735 124.987 14.4771 125.012 14.4771C125.237 14.4771 125.429 14.4466 125.587 14.3857C125.744 14.3285 125.877 14.23 125.984 14.0903C126.095 13.9543 126.19 13.7663 126.269 13.5264L126.682 12.3984ZM125.495 7.18848L127.005 11.7002L127.262 12.7476L126.548 13.1128L124.41 7.18848H125.495Z" fill="#EEEEEE"/>
<path d="M134.874 12.291C135.11 12.291 135.328 12.2427 135.529 12.146C135.729 12.0493 135.894 11.9168 136.023 11.7485C136.152 11.5767 136.225 11.3815 136.243 11.1631H137.189C137.171 11.5068 137.054 11.8273 136.839 12.1245C136.628 12.4181 136.351 12.6562 136.007 12.8389C135.663 13.0179 135.285 13.1074 134.874 13.1074C134.437 13.1074 134.055 13.0304 133.73 12.8765C133.407 12.7225 133.139 12.5112 132.924 12.2427C132.713 11.9741 132.553 11.6662 132.446 11.3188C132.342 10.9679 132.29 10.5973 132.29 10.207V9.98145C132.29 9.59115 132.342 9.22233 132.446 8.875C132.553 8.52409 132.713 8.21436 132.924 7.9458C133.139 7.67725 133.407 7.46598 133.73 7.31201C134.055 7.15804 134.437 7.08105 134.874 7.08105C135.328 7.08105 135.726 7.17415 136.066 7.36035C136.406 7.54297 136.673 7.79362 136.866 8.1123C137.063 8.42741 137.171 8.78548 137.189 9.18652H136.243C136.225 8.94661 136.157 8.72998 136.039 8.53662C135.925 8.34326 135.767 8.18929 135.567 8.07471C135.37 7.95654 135.139 7.89746 134.874 7.89746C134.569 7.89746 134.313 7.95833 134.106 8.08008C133.901 8.19824 133.739 8.35938 133.617 8.56348C133.499 8.764 133.413 8.98779 133.359 9.23486C133.309 9.47835 133.284 9.72721 133.284 9.98145V10.207C133.284 10.4613 133.309 10.7119 133.359 10.959C133.409 11.2061 133.493 11.4299 133.611 11.6304C133.733 11.8309 133.896 11.992 134.1 12.1138C134.308 12.2319 134.566 12.291 134.874 12.291Z" fill="#EEEEEE"/>
<path d="M141.513 12.0063V9.01465C141.513 8.78548 141.466 8.58675 141.373 8.41846C141.283 8.24658 141.147 8.1141 140.965 8.021C140.782 7.9279 140.556 7.88135 140.288 7.88135C140.037 7.88135 139.817 7.92432 139.627 8.01025C139.441 8.09619 139.294 8.20898 139.187 8.34863C139.083 8.48828 139.031 8.63867 139.031 8.7998H138.037C138.037 8.59212 138.091 8.38623 138.199 8.18213C138.306 7.97803 138.46 7.79362 138.66 7.62891C138.865 7.46061 139.108 7.32812 139.391 7.23145C139.677 7.13118 139.996 7.08105 140.347 7.08105C140.77 7.08105 141.142 7.15267 141.464 7.2959C141.79 7.43913 142.044 7.65576 142.227 7.9458C142.413 8.23226 142.506 8.59212 142.506 9.02539V11.7324C142.506 11.9258 142.522 12.1317 142.555 12.3501C142.59 12.5685 142.642 12.7565 142.71 12.9141V13H141.674C141.624 12.8854 141.584 12.7332 141.555 12.5435C141.527 12.3501 141.513 12.1711 141.513 12.0063ZM141.684 9.47656L141.695 10.1748H140.691C140.408 10.1748 140.155 10.1981 139.933 10.2446C139.711 10.2876 139.525 10.3538 139.375 10.4434C139.224 10.5329 139.11 10.6457 139.031 10.7817C138.952 10.9142 138.913 11.07 138.913 11.249C138.913 11.4316 138.954 11.5981 139.036 11.7485C139.119 11.8989 139.242 12.0189 139.407 12.1084C139.575 12.1943 139.781 12.2373 140.025 12.2373C140.329 12.2373 140.598 12.1729 140.83 12.0439C141.063 11.915 141.248 11.7575 141.384 11.5713C141.523 11.3851 141.598 11.2043 141.609 11.0288L142.034 11.5068C142.008 11.6572 141.94 11.8237 141.829 12.0063C141.718 12.189 141.57 12.3644 141.384 12.5327C141.201 12.6974 140.983 12.8353 140.728 12.9463C140.478 13.0537 140.195 13.1074 139.88 13.1074C139.486 13.1074 139.14 13.0304 138.843 12.8765C138.549 12.7225 138.32 12.5166 138.156 12.2588C137.994 11.9974 137.914 11.7056 137.914 11.3833C137.914 11.0718 137.975 10.7979 138.097 10.5615C138.218 10.3216 138.394 10.1229 138.623 9.96533C138.852 9.8042 139.128 9.68245 139.45 9.6001C139.772 9.51774 140.132 9.47656 140.53 9.47656H141.684ZM140.755 4.75L142.087 6.21631V6.27002H141.26L140.454 5.3623L139.654 6.27002H138.838V6.21094L140.154 4.75H140.755ZM139.407 14.3213C139.407 14.1602 139.455 14.0241 139.552 13.9131C139.652 13.8021 139.799 13.7466 139.993 13.7466C140.182 13.7466 140.327 13.8021 140.428 13.9131C140.531 14.0241 140.583 14.1602 140.583 14.3213C140.583 14.4753 140.531 14.606 140.428 14.7134C140.327 14.8244 140.182 14.8799 139.993 14.8799C139.799 14.8799 139.652 14.8244 139.552 14.7134C139.455 14.606 139.407 14.4753 139.407 14.3213Z" fill="#EEEEEE"/>
<path d="M144.843 8.30566V15.2344H143.844V7.18848H144.757L144.843 8.30566ZM148.758 10.0459V10.1587C148.758 10.5812 148.708 10.9733 148.608 11.335C148.508 11.693 148.361 12.0046 148.168 12.2695C147.978 12.5345 147.743 12.7404 147.464 12.8872C147.185 13.034 146.864 13.1074 146.502 13.1074C146.134 13.1074 145.808 13.0465 145.525 12.9248C145.242 12.8031 145.002 12.6258 144.805 12.3931C144.608 12.1603 144.451 11.881 144.333 11.5552C144.218 11.2293 144.139 10.8623 144.096 10.4541V9.85254C144.139 9.42285 144.22 9.03792 144.338 8.69775C144.456 8.35758 144.612 8.06755 144.805 7.82764C145.002 7.58415 145.24 7.39974 145.52 7.27441C145.799 7.14551 146.121 7.08105 146.486 7.08105C146.852 7.08105 147.176 7.15267 147.459 7.2959C147.741 7.43555 147.98 7.63607 148.173 7.89746C148.366 8.15885 148.511 8.47217 148.608 8.8374C148.708 9.19906 148.758 9.60189 148.758 10.0459ZM147.759 10.1587V10.0459C147.759 9.75586 147.729 9.48372 147.668 9.22949C147.607 8.97168 147.512 8.74609 147.383 8.55273C147.258 8.35579 147.097 8.20182 146.9 8.09082C146.703 7.97624 146.468 7.91895 146.196 7.91895C145.946 7.91895 145.727 7.96191 145.541 8.04785C145.358 8.13379 145.203 8.25016 145.074 8.39697C144.945 8.5402 144.839 8.70492 144.757 8.89111C144.678 9.07373 144.619 9.26351 144.58 9.46045V10.8516C144.651 11.1022 144.752 11.3385 144.88 11.5605C145.009 11.779 145.181 11.9562 145.396 12.0923C145.611 12.2248 145.881 12.291 146.207 12.291C146.476 12.291 146.707 12.2355 146.9 12.1245C147.097 12.0099 147.258 11.8542 147.383 11.6572C147.512 11.4603 147.607 11.2347 147.668 10.9805C147.729 10.7227 147.759 10.4487 147.759 10.1587Z" fill="#EEEEEE"/>
<path d="M155.978 11.8721V4.75H156.977V13H156.063L155.978 11.8721ZM152.067 10.1587V10.0459C152.067 9.60189 152.121 9.19906 152.228 8.8374C152.339 8.47217 152.495 8.15885 152.696 7.89746C152.9 7.63607 153.142 7.43555 153.421 7.2959C153.704 7.15267 154.019 7.08105 154.366 7.08105C154.731 7.08105 155.05 7.14551 155.322 7.27441C155.598 7.39974 155.831 7.58415 156.02 7.82764C156.214 8.06755 156.366 8.35758 156.477 8.69775C156.588 9.03792 156.665 9.42285 156.708 9.85254V10.3467C156.669 10.7728 156.592 11.1559 156.477 11.4961C156.366 11.8363 156.214 12.1263 156.02 12.3662C155.831 12.6061 155.598 12.7905 155.322 12.9194C155.047 13.0448 154.724 13.1074 154.355 13.1074C154.015 13.1074 153.704 13.034 153.421 12.8872C153.142 12.7404 152.9 12.5345 152.696 12.2695C152.495 12.0046 152.339 11.693 152.228 11.335C152.121 10.9733 152.067 10.5812 152.067 10.1587ZM153.066 10.0459V10.1587C153.066 10.4487 153.095 10.7209 153.152 10.9751C153.213 11.2293 153.306 11.4531 153.432 11.6465C153.557 11.8398 153.716 11.992 153.91 12.103C154.103 12.2104 154.334 12.2642 154.603 12.2642C154.932 12.2642 155.202 12.1943 155.414 12.0547C155.628 11.915 155.8 11.7306 155.929 11.5015C156.058 11.2723 156.158 11.0234 156.23 10.7549V9.46045C156.187 9.26351 156.124 9.07373 156.042 8.89111C155.963 8.70492 155.859 8.5402 155.73 8.39697C155.605 8.25016 155.449 8.13379 155.263 8.04785C155.081 7.96191 154.864 7.91895 154.613 7.91895C154.341 7.91895 154.107 7.97624 153.91 8.09082C153.716 8.20182 153.557 8.35579 153.432 8.55273C153.306 8.74609 153.213 8.97168 153.152 9.22949C153.095 9.48372 153.066 9.75586 153.066 10.0459Z" fill="#EEEEEE"/>
<path d="M163.744 6.72119H164.507C164.507 7.11149 164.455 7.43913 164.351 7.7041C164.251 7.96908 164.074 8.16781 163.82 8.30029C163.565 8.43278 163.207 8.49902 162.745 8.49902V7.88672C163.068 7.88672 163.299 7.84733 163.438 7.76855C163.578 7.6862 163.664 7.55908 163.696 7.38721C163.728 7.21533 163.744 6.99333 163.744 6.72119ZM161.859 11.6572V7.18848H162.858V13H161.907L161.859 11.6572ZM162.047 10.4326L162.461 10.4219C162.461 10.8086 162.419 11.1667 162.337 11.4961C162.258 11.8219 162.129 12.1048 161.95 12.3447C161.771 12.5846 161.537 12.7726 161.247 12.9087C160.957 13.0412 160.604 13.1074 160.189 13.1074C159.906 13.1074 159.646 13.0662 159.41 12.9839C159.177 12.9015 158.977 12.7744 158.808 12.6025C158.64 12.4307 158.509 12.2069 158.416 11.9312C158.327 11.6554 158.282 11.3242 158.282 10.9375V7.18848H159.276V10.9482C159.276 11.2096 159.304 11.4263 159.362 11.5981C159.422 11.7664 159.503 11.9007 159.603 12.001C159.707 12.0977 159.822 12.1657 159.947 12.2051C160.076 12.2445 160.208 12.2642 160.344 12.2642C160.767 12.2642 161.102 12.1836 161.349 12.0225C161.596 11.8577 161.773 11.6375 161.881 11.3618C161.992 11.0825 162.047 10.7728 162.047 10.4326ZM161.897 4.97021L162.568 5.0293C162.568 5.29069 162.516 5.51986 162.412 5.7168C162.308 5.91374 162.169 6.06592 161.993 6.17334C161.821 6.28076 161.626 6.33447 161.408 6.33447C161.225 6.33447 161.075 6.30941 160.957 6.25928C160.839 6.20557 160.733 6.14648 160.64 6.08203C160.547 6.014 160.448 5.95492 160.344 5.90479C160.244 5.85107 160.119 5.82422 159.968 5.82422C159.818 5.82422 159.691 5.88151 159.587 5.99609C159.487 6.11068 159.437 6.25212 159.437 6.42041L158.765 6.38818C158.765 6.12679 158.815 5.89762 158.916 5.70068C159.02 5.50016 159.159 5.3444 159.335 5.2334C159.51 5.11882 159.705 5.06152 159.92 5.06152C160.074 5.06152 160.208 5.08838 160.323 5.14209C160.441 5.19222 160.552 5.2513 160.656 5.31934C160.76 5.38379 160.867 5.44287 160.978 5.49658C161.089 5.54671 161.216 5.57178 161.36 5.57178C161.51 5.57178 161.637 5.51449 161.741 5.3999C161.845 5.28174 161.897 5.13851 161.897 4.97021Z" fill="#EEEEEE"/>
<path d="M168.482 4.75V13H167.483V4.75H168.482Z" fill="#EEEEEE"/>
<path d="M170.937 7.18848V13H169.938V7.18848H170.937ZM169.863 5.64697C169.863 5.48584 169.911 5.34977 170.008 5.23877C170.108 5.12777 170.255 5.07227 170.448 5.07227C170.638 5.07227 170.783 5.12777 170.883 5.23877C170.987 5.34977 171.039 5.48584 171.039 5.64697C171.039 5.80094 170.987 5.93343 170.883 6.04443C170.783 6.15186 170.638 6.20557 170.448 6.20557C170.255 6.20557 170.108 6.15186 170.008 6.04443C169.911 5.93343 169.863 5.80094 169.863 5.64697Z" fill="#EEEEEE"/>
<path d="M174.724 13.1074C174.319 13.1074 173.952 13.0394 173.623 12.9033C173.297 12.7637 173.016 12.5685 172.779 12.3179C172.547 12.0672 172.368 11.77 172.242 11.4263C172.117 11.0825 172.054 10.7065 172.054 10.2983V10.0728C172.054 9.6001 172.124 9.17936 172.264 8.81055C172.403 8.43815 172.593 8.12305 172.833 7.86523C173.073 7.60742 173.345 7.41227 173.649 7.27979C173.954 7.1473 174.269 7.08105 174.595 7.08105C175.01 7.08105 175.368 7.15267 175.669 7.2959C175.973 7.43913 176.222 7.63965 176.416 7.89746C176.609 8.15169 176.752 8.45247 176.845 8.7998C176.938 9.14355 176.985 9.51953 176.985 9.92773V10.3735H172.645V9.5625H175.991V9.4873C175.977 9.22949 175.923 8.97884 175.83 8.73535C175.741 8.49186 175.597 8.29134 175.4 8.13379C175.204 7.97624 174.935 7.89746 174.595 7.89746C174.369 7.89746 174.162 7.9458 173.972 8.04248C173.782 8.13558 173.619 8.27523 173.483 8.46143C173.347 8.64762 173.241 8.875 173.166 9.14355C173.091 9.41211 173.053 9.72184 173.053 10.0728V10.2983C173.053 10.5741 173.091 10.8337 173.166 11.0771C173.245 11.3171 173.358 11.5283 173.504 11.7109C173.655 11.8936 173.836 12.0368 174.047 12.1406C174.262 12.2445 174.505 12.2964 174.777 12.2964C175.128 12.2964 175.426 12.2248 175.669 12.0815C175.913 11.9383 176.126 11.7467 176.308 11.5068L176.91 11.9849C176.784 12.1746 176.625 12.3555 176.432 12.5273C176.238 12.6992 176 12.8389 175.717 12.9463C175.438 13.0537 175.107 13.1074 174.724 13.1074ZM174.89 4.75L176.222 6.21631V6.27002H175.395L174.589 5.3623L173.789 6.27002H172.973V6.21094L174.289 4.75H174.89ZM173.988 14.3213C173.988 14.1602 174.036 14.0241 174.133 13.9131C174.233 13.8021 174.38 13.7466 174.573 13.7466C174.763 13.7466 174.908 13.8021 175.008 13.9131C175.112 14.0241 175.164 14.1602 175.164 14.3213C175.164 14.4753 175.112 14.606 175.008 14.7134C174.908 14.8244 174.763 14.8799 174.573 14.8799C174.38 14.8799 174.233 14.8244 174.133 14.7134C174.036 14.606 173.988 14.4753 173.988 14.3213Z" fill="#EEEEEE"/>
<path d="M181.481 11.6572V7.18848H182.48V13H181.529L181.481 11.6572ZM181.669 10.4326L182.082 10.4219C182.082 10.8086 182.041 11.1667 181.959 11.4961C181.88 11.8219 181.751 12.1048 181.572 12.3447C181.393 12.5846 181.158 12.7726 180.868 12.9087C180.578 13.0412 180.226 13.1074 179.81 13.1074C179.527 13.1074 179.268 13.0662 179.032 12.9839C178.799 12.9015 178.598 12.7744 178.43 12.6025C178.262 12.4307 178.131 12.2069 178.038 11.9312C177.948 11.6554 177.904 11.3242 177.904 10.9375V7.18848H178.897V10.9482C178.897 11.2096 178.926 11.4263 178.983 11.5981C179.044 11.7664 179.125 11.9007 179.225 12.001C179.329 12.0977 179.443 12.1657 179.569 12.2051C179.698 12.2445 179.83 12.2642 179.966 12.2642C180.389 12.2642 180.723 12.1836 180.971 12.0225C181.218 11.8577 181.395 11.6375 181.502 11.3618C181.613 11.0825 181.669 10.7728 181.669 10.4326Z" fill="#EEEEEE"/>
<path d="M189.946 11.8721V4.75H190.945V13H190.032L189.946 11.8721ZM186.036 10.1587V10.0459C186.036 9.60189 186.09 9.19906 186.197 8.8374C186.308 8.47217 186.464 8.15885 186.664 7.89746C186.868 7.63607 187.11 7.43555 187.389 7.2959C187.672 7.15267 187.987 7.08105 188.335 7.08105C188.7 7.08105 189.019 7.14551 189.291 7.27441C189.566 7.39974 189.799 7.58415 189.989 7.82764C190.182 8.06755 190.335 8.35758 190.446 8.69775C190.557 9.03792 190.634 9.42285 190.677 9.85254V10.3467C190.637 10.7728 190.56 11.1559 190.446 11.4961C190.335 11.8363 190.182 12.1263 189.989 12.3662C189.799 12.6061 189.566 12.7905 189.291 12.9194C189.015 13.0448 188.693 13.1074 188.324 13.1074C187.984 13.1074 187.672 13.034 187.389 12.8872C187.11 12.7404 186.868 12.5345 186.664 12.2695C186.464 12.0046 186.308 11.693 186.197 11.335C186.09 10.9733 186.036 10.5812 186.036 10.1587ZM187.035 10.0459V10.1587C187.035 10.4487 187.064 10.7209 187.121 10.9751C187.182 11.2293 187.275 11.4531 187.4 11.6465C187.525 11.8398 187.685 11.992 187.878 12.103C188.072 12.2104 188.302 12.2642 188.571 12.2642C188.9 12.2642 189.171 12.1943 189.382 12.0547C189.597 11.915 189.769 11.7306 189.898 11.5015C190.027 11.2723 190.127 11.0234 190.198 10.7549V9.46045C190.156 9.26351 190.093 9.07373 190.01 8.89111C189.932 8.70492 189.828 8.5402 189.699 8.39697C189.574 8.25016 189.418 8.13379 189.232 8.04785C189.049 7.96191 188.832 7.91895 188.582 7.91895C188.31 7.91895 188.075 7.97624 187.878 8.09082C187.685 8.20182 187.525 8.35579 187.4 8.55273C187.275 8.74609 187.182 8.97168 187.121 9.22949C187.064 9.48372 187.035 9.75586 187.035 10.0459Z" fill="#EEEEEE"/>
<path d="M195.828 11.6572V7.18848H196.827V13H195.876L195.828 11.6572ZM196.016 10.4326L196.429 10.4219C196.429 10.8086 196.388 11.1667 196.306 11.4961C196.227 11.8219 196.098 12.1048 195.919 12.3447C195.74 12.5846 195.505 12.7726 195.215 12.9087C194.925 13.0412 194.573 13.1074 194.157 13.1074C193.874 13.1074 193.615 13.0662 193.378 12.9839C193.146 12.9015 192.945 12.7744 192.777 12.6025C192.609 12.4307 192.478 12.2069 192.385 11.9312C192.295 11.6554 192.25 11.3242 192.25 10.9375V7.18848H193.244V10.9482C193.244 11.2096 193.273 11.4263 193.33 11.5981C193.391 11.7664 193.471 11.9007 193.572 12.001C193.676 12.0977 193.79 12.1657 193.915 12.2051C194.044 12.2445 194.177 12.2642 194.313 12.2642C194.735 12.2642 195.07 12.1836 195.317 12.0225C195.564 11.8577 195.742 11.6375 195.849 11.3618C195.96 11.0825 196.016 10.7728 196.016 10.4326ZM194.087 4.75L195.124 6.3291H194.27L192.884 4.75H194.087Z" fill="#EEEEEE"/>
<path d="M199.115 8.4292V13H198.121V7.18848H199.061L199.115 8.4292ZM198.879 9.87402L198.465 9.85791C198.469 9.46045 198.528 9.09342 198.642 8.75684C198.757 8.41667 198.918 8.12126 199.126 7.87061C199.333 7.61995 199.58 7.4266 199.867 7.29053C200.157 7.15088 200.477 7.08105 200.828 7.08105C201.115 7.08105 201.373 7.12044 201.602 7.19922C201.831 7.27441 202.026 7.39616 202.187 7.56445C202.352 7.73275 202.477 7.95117 202.563 8.21973C202.649 8.4847 202.692 8.80876 202.692 9.19189V13H201.693V9.18115C201.693 8.87679 201.648 8.6333 201.559 8.45068C201.469 8.26449 201.339 8.13021 201.167 8.04785C200.995 7.96191 200.784 7.91895 200.533 7.91895C200.286 7.91895 200.06 7.97087 199.856 8.07471C199.656 8.17855 199.482 8.32178 199.335 8.50439C199.192 8.68701 199.079 8.89648 198.997 9.13281C198.918 9.36556 198.879 9.61263 198.879 9.87402Z" fill="#EEEEEE"/>
<path d="M207.746 7.18848H208.649V12.8765C208.649 13.3885 208.545 13.8254 208.337 14.187C208.13 14.5487 207.84 14.8226 207.467 15.0088C207.098 15.1986 206.672 15.2935 206.189 15.2935C205.988 15.2935 205.752 15.2612 205.48 15.1968C205.211 15.1359 204.946 15.0303 204.685 14.8799C204.427 14.7331 204.211 14.5343 204.035 14.2837L204.556 13.6929C204.8 13.9865 205.054 14.1906 205.319 14.3052C205.587 14.4198 205.852 14.4771 206.114 14.4771C206.429 14.4771 206.701 14.418 206.93 14.2998C207.159 14.1816 207.336 14.0062 207.462 13.7734C207.591 13.5443 207.655 13.2614 207.655 12.9248V8.4668L207.746 7.18848ZM203.745 10.1587V10.0459C203.745 9.60189 203.797 9.19906 203.901 8.8374C204.008 8.47217 204.16 8.15885 204.357 7.89746C204.558 7.63607 204.8 7.43555 205.082 7.2959C205.365 7.15267 205.684 7.08105 206.038 7.08105C206.404 7.08105 206.722 7.14551 206.995 7.27441C207.27 7.39974 207.503 7.58415 207.693 7.82764C207.886 8.06755 208.038 8.35758 208.149 8.69775C208.26 9.03792 208.337 9.42285 208.38 9.85254V10.3467C208.341 10.7728 208.264 11.1559 208.149 11.4961C208.038 11.8363 207.886 12.1263 207.693 12.3662C207.503 12.6061 207.27 12.7905 206.995 12.9194C206.719 13.0448 206.397 13.1074 206.028 13.1074C205.68 13.1074 205.365 13.034 205.082 12.8872C204.803 12.7404 204.563 12.5345 204.363 12.2695C204.162 12.0046 204.008 11.693 203.901 11.335C203.797 10.9733 203.745 10.5812 203.745 10.1587ZM204.739 10.0459V10.1587C204.739 10.4487 204.767 10.7209 204.825 10.9751C204.885 11.2293 204.977 11.4531 205.099 11.6465C205.224 11.8398 205.383 11.992 205.577 12.103C205.77 12.2104 206.001 12.2642 206.269 12.2642C206.599 12.2642 206.871 12.1943 207.086 12.0547C207.301 11.915 207.471 11.7306 207.596 11.5015C207.725 11.2723 207.825 11.0234 207.897 10.7549V9.46045C207.857 9.26351 207.797 9.07373 207.714 8.89111C207.635 8.70492 207.532 8.5402 207.403 8.39697C207.277 8.25016 207.122 8.13379 206.935 8.04785C206.749 7.96191 206.531 7.91895 206.28 7.91895C206.008 7.91895 205.774 7.97624 205.577 8.09082C205.383 8.20182 205.224 8.35579 205.099 8.55273C204.977 8.74609 204.885 8.97168 204.825 9.22949C204.767 9.48372 204.739 9.75586 204.739 10.0459Z" fill="#EEEEEE"/>
<path d="M213.918 11.9688L215.411 7.18848H216.067L215.938 8.13916L214.418 13H213.779L213.918 11.9688ZM212.914 7.18848L214.187 12.0225L214.278 13H213.607L211.92 7.18848H212.914ZM217.495 11.9849L218.709 7.18848H219.698L218.011 13H217.345L217.495 11.9849ZM216.212 7.18848L217.673 11.8882L217.839 13H217.205L215.642 8.12842L215.514 7.18848H216.212Z" fill="#EEEEEE"/>
<path d="M222.91 13.1074C222.505 13.1074 222.138 13.0394 221.809 12.9033C221.483 12.7637 221.202 12.5685 220.965 12.3179C220.733 12.0672 220.554 11.77 220.428 11.4263C220.303 11.0825 220.24 10.7065 220.24 10.2983V10.0728C220.24 9.6001 220.31 9.17936 220.45 8.81055C220.589 8.43815 220.779 8.12305 221.019 7.86523C221.259 7.60742 221.531 7.41227 221.836 7.27979C222.14 7.1473 222.455 7.08105 222.781 7.08105C223.196 7.08105 223.554 7.15267 223.855 7.2959C224.159 7.43913 224.408 7.63965 224.602 7.89746C224.795 8.15169 224.938 8.45247 225.031 8.7998C225.124 9.14355 225.171 9.51953 225.171 9.92773V10.3735H220.831V9.5625H224.177V9.4873C224.163 9.22949 224.109 8.97884 224.016 8.73535C223.927 8.49186 223.783 8.29134 223.586 8.13379C223.39 7.97624 223.121 7.89746 222.781 7.89746C222.555 7.89746 222.348 7.9458 222.158 8.04248C221.968 8.13558 221.805 8.27523 221.669 8.46143C221.533 8.64762 221.427 8.875 221.352 9.14355C221.277 9.41211 221.239 9.72184 221.239 10.0728V10.2983C221.239 10.5741 221.277 10.8337 221.352 11.0771C221.431 11.3171 221.544 11.5283 221.69 11.7109C221.841 11.8936 222.022 12.0368 222.233 12.1406C222.448 12.2445 222.691 12.2964 222.963 12.2964C223.314 12.2964 223.612 12.2248 223.855 12.0815C224.099 11.9383 224.312 11.7467 224.494 11.5068L225.096 11.9849C224.97 12.1746 224.811 12.3555 224.618 12.5273C224.424 12.6992 224.186 12.8389 223.903 12.9463C223.624 13.0537 223.293 13.1074 222.91 13.1074Z" fill="#EEEEEE"/>
<path d="M226.106 4.75H227.105V11.8721L227.019 13H226.106V4.75ZM231.031 10.0459V10.1587C231.031 10.5812 230.981 10.9733 230.881 11.335C230.78 11.693 230.634 12.0046 230.44 12.2695C230.247 12.5345 230.011 12.7404 229.731 12.8872C229.452 13.034 229.131 13.1074 228.77 13.1074C228.401 13.1074 228.077 13.0448 227.798 12.9194C227.522 12.7905 227.289 12.6061 227.099 12.3662C226.91 12.1263 226.757 11.8363 226.643 11.4961C226.532 11.1559 226.455 10.7728 226.412 10.3467V9.85254C226.455 9.42285 226.532 9.03792 226.643 8.69775C226.757 8.35758 226.91 8.06755 227.099 7.82764C227.289 7.58415 227.522 7.39974 227.798 7.27441C228.073 7.14551 228.394 7.08105 228.759 7.08105C229.124 7.08105 229.448 7.15267 229.731 7.2959C230.014 7.43555 230.25 7.63607 230.44 7.89746C230.634 8.15885 230.78 8.47217 230.881 8.8374C230.981 9.19906 231.031 9.60189 231.031 10.0459ZM230.032 10.1587V10.0459C230.032 9.75586 230.005 9.48372 229.951 9.22949C229.898 8.97168 229.812 8.74609 229.694 8.55273C229.575 8.35579 229.42 8.20182 229.226 8.09082C229.033 7.97624 228.795 7.91895 228.512 7.91895C228.261 7.91895 228.043 7.96191 227.857 8.04785C227.674 8.13379 227.518 8.25016 227.389 8.39697C227.261 8.5402 227.155 8.70492 227.073 8.89111C226.994 9.07373 226.935 9.26351 226.895 9.46045V10.7549C226.953 11.0055 227.046 11.2472 227.175 11.48C227.307 11.7091 227.483 11.8971 227.701 12.0439C227.923 12.1908 228.197 12.2642 228.523 12.2642C228.791 12.2642 229.02 12.2104 229.21 12.103C229.404 11.992 229.559 11.8398 229.678 11.6465C229.799 11.4531 229.889 11.2293 229.946 10.9751C230.003 10.7209 230.032 10.4487 230.032 10.1587Z" fill="#EEEEEE"/>
<path d="M236.902 12.291C237.138 12.291 237.357 12.2427 237.557 12.146C237.758 12.0493 237.923 11.9168 238.051 11.7485C238.18 11.5767 238.254 11.3815 238.272 11.1631H239.217C239.199 11.5068 239.083 11.8273 238.868 12.1245C238.657 12.4181 238.379 12.6562 238.035 12.8389C237.692 13.0179 237.314 13.1074 236.902 13.1074C236.465 13.1074 236.084 13.0304 235.758 12.8765C235.436 12.7225 235.167 12.5112 234.952 12.2427C234.741 11.9741 234.582 11.6662 234.474 11.3188C234.37 10.9679 234.319 10.5973 234.319 10.207V9.98145C234.319 9.59115 234.37 9.22233 234.474 8.875C234.582 8.52409 234.741 8.21436 234.952 7.9458C235.167 7.67725 235.436 7.46598 235.758 7.31201C236.084 7.15804 236.465 7.08105 236.902 7.08105C237.357 7.08105 237.754 7.17415 238.094 7.36035C238.435 7.54297 238.701 7.79362 238.895 8.1123C239.092 8.42741 239.199 8.78548 239.217 9.18652H238.272C238.254 8.94661 238.186 8.72998 238.068 8.53662C237.953 8.34326 237.795 8.18929 237.595 8.07471C237.398 7.95654 237.167 7.89746 236.902 7.89746C236.598 7.89746 236.342 7.95833 236.134 8.08008C235.93 8.19824 235.767 8.35938 235.645 8.56348C235.527 8.764 235.441 8.98779 235.387 9.23486C235.337 9.47835 235.312 9.72721 235.312 9.98145V10.207C235.312 10.4613 235.337 10.7119 235.387 10.959C235.438 11.2061 235.522 11.4299 235.64 11.6304C235.762 11.8309 235.925 11.992 236.129 12.1138C236.336 12.2319 236.594 12.291 236.902 12.291Z" fill="#EEEEEE"/>
<path d="M243.67 11.6572V7.18848H244.669V13H243.718L243.67 11.6572ZM243.858 10.4326L244.271 10.4219C244.271 10.8086 244.23 11.1667 244.148 11.4961C244.069 11.8219 243.94 12.1048 243.761 12.3447C243.582 12.5846 243.348 12.7726 243.058 12.9087C242.768 13.0412 242.415 13.1074 241.999 13.1074C241.717 13.1074 241.457 13.0662 241.221 12.9839C240.988 12.9015 240.787 12.7744 240.619 12.6025C240.451 12.4307 240.32 12.2069 240.227 11.9312C240.137 11.6554 240.093 11.3242 240.093 10.9375V7.18848H241.086V10.9482C241.086 11.2096 241.115 11.4263 241.172 11.5981C241.233 11.7664 241.314 11.9007 241.414 12.001C241.518 12.0977 241.632 12.1657 241.758 12.2051C241.887 12.2445 242.019 12.2642 242.155 12.2642C242.578 12.2642 242.913 12.1836 243.16 12.0225C243.407 11.8577 243.584 11.6375 243.691 11.3618C243.802 11.0825 243.858 10.7728 243.858 10.4326ZM242.778 6.24316H242.064L242.059 5.42676C242.241 5.41602 242.39 5.39811 242.504 5.37305C242.619 5.3444 242.703 5.30322 242.757 5.24951C242.81 5.19222 242.837 5.11702 242.837 5.02393C242.837 4.94873 242.814 4.88607 242.768 4.83594C242.721 4.78223 242.657 4.73926 242.574 4.70703C242.492 4.67122 242.397 4.64616 242.289 4.63184C242.182 4.61751 242.067 4.61035 241.946 4.61035L241.983 4.04102C242.248 4.04102 242.481 4.06429 242.682 4.11084C242.886 4.15739 243.056 4.22542 243.192 4.31494C243.331 4.40446 243.435 4.51188 243.503 4.63721C243.575 4.75895 243.611 4.89502 243.611 5.04541C243.611 5.31755 243.525 5.51628 243.353 5.6416C243.181 5.76335 242.991 5.83854 242.784 5.86719L242.778 6.24316Z" fill="#EEEEEE"/>
<path d="M249.39 12.0063V9.01465C249.39 8.78548 249.344 8.58675 249.251 8.41846C249.161 8.24658 249.025 8.1141 248.842 8.021C248.66 7.9279 248.434 7.88135 248.166 7.88135C247.915 7.88135 247.695 7.92432 247.505 8.01025C247.319 8.09619 247.172 8.20898 247.065 8.34863C246.961 8.48828 246.909 8.63867 246.909 8.7998H245.915C245.915 8.59212 245.969 8.38623 246.076 8.18213C246.184 7.97803 246.338 7.79362 246.538 7.62891C246.742 7.46061 246.986 7.32812 247.269 7.23145C247.555 7.13118 247.874 7.08105 248.225 7.08105C248.647 7.08105 249.02 7.15267 249.342 7.2959C249.668 7.43913 249.922 7.65576 250.105 7.9458C250.291 8.23226 250.384 8.59212 250.384 9.02539V11.7324C250.384 11.9258 250.4 12.1317 250.432 12.3501C250.468 12.5685 250.52 12.7565 250.588 12.9141V13H249.551C249.501 12.8854 249.462 12.7332 249.433 12.5435C249.405 12.3501 249.39 12.1711 249.39 12.0063ZM249.562 9.47656L249.573 10.1748H248.569C248.286 10.1748 248.033 10.1981 247.811 10.2446C247.589 10.2876 247.403 10.3538 247.253 10.4434C247.102 10.5329 246.988 10.6457 246.909 10.7817C246.83 10.9142 246.791 11.07 246.791 11.249C246.791 11.4316 246.832 11.5981 246.914 11.7485C246.997 11.8989 247.12 12.0189 247.285 12.1084C247.453 12.1943 247.659 12.2373 247.902 12.2373C248.207 12.2373 248.475 12.1729 248.708 12.0439C248.941 11.915 249.125 11.7575 249.261 11.5713C249.401 11.3851 249.476 11.2043 249.487 11.0288L249.911 11.5068C249.886 11.6572 249.818 11.8237 249.707 12.0063C249.596 12.189 249.448 12.3644 249.261 12.5327C249.079 12.6974 248.86 12.8353 248.606 12.9463C248.355 13.0537 248.073 13.1074 247.757 13.1074C247.364 13.1074 247.018 13.0304 246.721 12.8765C246.427 12.7225 246.198 12.5166 246.033 12.2588C245.872 11.9974 245.792 11.7056 245.792 11.3833C245.792 11.0718 245.853 10.7979 245.974 10.5615C246.096 10.3216 246.271 10.1229 246.501 9.96533C246.73 9.8042 247.006 9.68245 247.328 9.6001C247.65 9.51774 248.01 9.47656 248.407 9.47656H249.562Z" fill="#EEEEEE"/>
<path d="M254.23 4.75H255.229V11.8721L255.143 13H254.23V4.75ZM259.155 10.0459V10.1587C259.155 10.5812 259.105 10.9733 259.005 11.335C258.905 11.693 258.758 12.0046 258.565 12.2695C258.371 12.5345 258.135 12.7404 257.856 12.8872C257.576 13.034 257.256 13.1074 256.894 13.1074C256.525 13.1074 256.201 13.0448 255.922 12.9194C255.646 12.7905 255.414 12.6061 255.224 12.3662C255.034 12.1263 254.882 11.8363 254.767 11.4961C254.656 11.1559 254.579 10.7728 254.536 10.3467V9.85254C254.579 9.42285 254.656 9.03792 254.767 8.69775C254.882 8.35758 255.034 8.06755 255.224 7.82764C255.414 7.58415 255.646 7.39974 255.922 7.27441C256.198 7.14551 256.518 7.08105 256.883 7.08105C257.249 7.08105 257.573 7.15267 257.856 7.2959C258.138 7.43555 258.375 7.63607 258.565 7.89746C258.758 8.15885 258.905 8.47217 259.005 8.8374C259.105 9.19906 259.155 9.60189 259.155 10.0459ZM258.156 10.1587V10.0459C258.156 9.75586 258.129 9.48372 258.076 9.22949C258.022 8.97168 257.936 8.74609 257.818 8.55273C257.7 8.35579 257.544 8.20182 257.351 8.09082C257.157 7.97624 256.919 7.91895 256.636 7.91895C256.386 7.91895 256.167 7.96191 255.981 8.04785C255.798 8.13379 255.643 8.25016 255.514 8.39697C255.385 8.5402 255.279 8.70492 255.197 8.89111C255.118 9.07373 255.059 9.26351 255.02 9.46045V10.7549C255.077 11.0055 255.17 11.2472 255.299 11.48C255.431 11.7091 255.607 11.8971 255.825 12.0439C256.047 12.1908 256.321 12.2642 256.647 12.2642C256.916 12.2642 257.145 12.2104 257.335 12.103C257.528 11.992 257.684 11.8398 257.802 11.6465C257.924 11.4531 258.013 11.2293 258.07 10.9751C258.128 10.7209 258.156 10.4487 258.156 10.1587Z" fill="#EEEEEE"/>
<path d="M263.619 12.0063V9.01465C263.619 8.78548 263.572 8.58675 263.479 8.41846C263.39 8.24658 263.254 8.1141 263.071 8.021C262.888 7.9279 262.663 7.88135 262.394 7.88135C262.144 7.88135 261.923 7.92432 261.734 8.01025C261.548 8.09619 261.401 8.20898 261.293 8.34863C261.189 8.48828 261.138 8.63867 261.138 8.7998H260.144C260.144 8.59212 260.198 8.38623 260.305 8.18213C260.412 7.97803 260.566 7.79362 260.767 7.62891C260.971 7.46061 261.214 7.32812 261.497 7.23145C261.784 7.13118 262.103 7.08105 262.453 7.08105C262.876 7.08105 263.248 7.15267 263.571 7.2959C263.896 7.43913 264.151 7.65576 264.333 7.9458C264.52 8.23226 264.613 8.59212 264.613 9.02539V11.7324C264.613 11.9258 264.629 12.1317 264.661 12.3501C264.697 12.5685 264.749 12.7565 264.817 12.9141V13H263.78C263.73 12.8854 263.691 12.7332 263.662 12.5435C263.633 12.3501 263.619 12.1711 263.619 12.0063ZM263.791 9.47656L263.802 10.1748H262.797C262.514 10.1748 262.262 10.1981 262.04 10.2446C261.818 10.2876 261.632 10.3538 261.481 10.4434C261.331 10.5329 261.216 10.6457 261.138 10.7817C261.059 10.9142 261.019 11.07 261.019 11.249C261.019 11.4316 261.061 11.5981 261.143 11.7485C261.225 11.8989 261.349 12.0189 261.513 12.1084C261.682 12.1943 261.888 12.2373 262.131 12.2373C262.436 12.2373 262.704 12.1729 262.937 12.0439C263.17 11.915 263.354 11.7575 263.49 11.5713C263.63 11.3851 263.705 11.2043 263.716 11.0288L264.14 11.5068C264.115 11.6572 264.047 11.8237 263.936 12.0063C263.825 12.189 263.676 12.3644 263.49 12.5327C263.307 12.6974 263.089 12.8353 262.835 12.9463C262.584 13.0537 262.301 13.1074 261.986 13.1074C261.592 13.1074 261.247 13.0304 260.95 12.8765C260.656 12.7225 260.427 12.5166 260.262 12.2588C260.101 11.9974 260.02 11.7056 260.02 11.3833C260.02 11.0718 260.081 10.7979 260.203 10.5615C260.325 10.3216 260.5 10.1229 260.729 9.96533C260.958 9.8042 261.234 9.68245 261.556 9.6001C261.879 9.51774 262.239 9.47656 262.636 9.47656H263.791ZM261.513 14.3213C261.513 14.1602 261.562 14.0241 261.659 13.9131C261.759 13.8021 261.906 13.7466 262.099 13.7466C262.289 13.7466 262.434 13.8021 262.534 13.9131C262.638 14.0241 262.69 14.1602 262.69 14.3213C262.69 14.4753 262.638 14.606 262.534 14.7134C262.434 14.8244 262.289 14.8799 262.099 14.8799C261.906 14.8799 261.759 14.8244 261.659 14.7134C261.562 14.606 261.513 14.4753 261.513 14.3213Z" fill="#EEEEEE"/>
<path d="M266.949 8.4292V13H265.956V7.18848H266.896L266.949 8.4292ZM266.713 9.87402L266.299 9.85791C266.303 9.46045 266.362 9.09342 266.477 8.75684C266.591 8.41667 266.752 8.12126 266.96 7.87061C267.168 7.61995 267.415 7.4266 267.701 7.29053C267.991 7.15088 268.312 7.08105 268.663 7.08105C268.949 7.08105 269.207 7.12044 269.436 7.19922C269.665 7.27441 269.86 7.39616 270.022 7.56445C270.186 7.73275 270.312 7.95117 270.398 8.21973C270.483 8.4847 270.526 8.80876 270.526 9.19189V13H269.527V9.18115C269.527 8.87679 269.483 8.6333 269.393 8.45068C269.304 8.26449 269.173 8.13021 269.001 8.04785C268.829 7.96191 268.618 7.91895 268.367 7.91895C268.12 7.91895 267.895 7.97087 267.69 8.07471C267.49 8.17855 267.316 8.32178 267.169 8.50439C267.026 8.68701 266.913 8.89648 266.831 9.13281C266.752 9.36556 266.713 9.61263 266.713 9.87402Z" fill="#EEEEEE"/>
<path d="M13.3979 9.54639H10.1162V13H9.08496V5.17969H13.9297V6.02832H10.1162V8.70312H13.3979V9.54639ZM18.4146 13C18.3573 12.8854 18.3107 12.6813 18.2749 12.3877C17.813 12.8675 17.2616 13.1074 16.6206 13.1074C16.0477 13.1074 15.5768 12.9463 15.208 12.624C14.8428 12.2982 14.6602 11.8864 14.6602 11.3887C14.6602 10.7835 14.8893 10.3145 15.3477 9.98145C15.8096 9.64486 16.4577 9.47656 17.292 9.47656H18.2588V9.02002C18.2588 8.67269 18.1549 8.39697 17.9473 8.19287C17.7396 7.98519 17.4334 7.88135 17.0288 7.88135C16.6743 7.88135 16.3771 7.97087 16.1372 8.1499C15.8973 8.32894 15.7773 8.54557 15.7773 8.7998H14.7783C14.7783 8.50977 14.8804 8.23047 15.0845 7.96191C15.2922 7.68978 15.5715 7.47493 15.9224 7.31738C16.2769 7.15983 16.6654 7.08105 17.0879 7.08105C17.7575 7.08105 18.2821 7.24935 18.6616 7.58594C19.0412 7.91895 19.2381 8.37907 19.2524 8.96631V11.6411C19.2524 12.1746 19.3205 12.599 19.4565 12.9141V13H18.4146ZM16.7656 12.2427C17.0771 12.2427 17.3726 12.1621 17.6519 12.001C17.9312 11.8398 18.1335 11.6304 18.2588 11.3726V10.1802H17.48C16.2625 10.1802 15.6538 10.5365 15.6538 11.249C15.6538 11.5605 15.7576 11.804 15.9653 11.9795C16.173 12.1549 16.4398 12.2427 16.7656 12.2427ZM21.8896 13H20.896V7.18848H21.8896V13ZM20.8154 5.64697C20.8154 5.48584 20.8638 5.34977 20.9604 5.23877C21.0607 5.12777 21.2075 5.07227 21.4009 5.07227C21.5942 5.07227 21.741 5.12777 21.8413 5.23877C21.9416 5.34977 21.9917 5.48584 21.9917 5.64697C21.9917 5.80811 21.9416 5.94238 21.8413 6.0498C21.741 6.15723 21.5942 6.21094 21.4009 6.21094C21.2075 6.21094 21.0607 6.15723 20.9604 6.0498C20.8638 5.94238 20.8154 5.80811 20.8154 5.64697ZM26.2939 8.08008C26.1436 8.05501 25.9806 8.04248 25.8052 8.04248C25.1535 8.04248 24.7113 8.31999 24.4785 8.875V13H23.4849V7.18848H24.4517L24.4678 7.85986C24.7936 7.34066 25.2555 7.08105 25.8535 7.08105C26.0469 7.08105 26.1937 7.10612 26.2939 7.15625V8.08008ZM35.0864 11.6304L36.2036 7.18848H37.1973L35.5054 13H34.6997L33.2871 8.5957L31.9121 13H31.1064L29.4199 7.18848H30.4082L31.5522 11.5391L32.9058 7.18848H33.7061L35.0864 11.6304ZM40.624 13.1074C39.8363 13.1074 39.1953 12.8496 38.7012 12.334C38.207 11.8148 37.96 11.1219 37.96 10.2554V10.0728C37.96 9.49626 38.0692 8.98242 38.2876 8.53125C38.5096 8.0765 38.8175 7.72201 39.2114 7.46777C39.6089 7.20996 40.0386 7.08105 40.5005 7.08105C41.256 7.08105 41.8433 7.32992 42.2622 7.82764C42.6812 8.32536 42.8906 9.03792 42.8906 9.96533V10.3789H38.9536C38.9679 10.9518 39.1344 11.4155 39.4531 11.77C39.7754 12.1209 40.1836 12.2964 40.6777 12.2964C41.0286 12.2964 41.3258 12.2248 41.5693 12.0815C41.8128 11.9383 42.0259 11.7485 42.2085 11.5122L42.8154 11.9849C42.3285 12.7332 41.598 13.1074 40.624 13.1074ZM40.5005 7.89746C40.0994 7.89746 39.7629 8.04427 39.4907 8.33789C39.2186 8.62793 39.0503 9.03613 38.9858 9.5625H41.897V9.4873C41.8683 8.98242 41.7323 8.59212 41.4888 8.31641C41.2453 8.03711 40.9159 7.89746 40.5005 7.89746ZM48.9653 10.1587C48.9653 11.0467 48.7612 11.7611 48.353 12.3018C47.9448 12.8389 47.397 13.1074 46.7095 13.1074C45.9754 13.1074 45.4079 12.8478 45.0068 12.3286L44.9585 13H44.0454V4.75H45.0391V7.82764C45.4401 7.32992 45.9933 7.08105 46.6987 7.08105C47.4041 7.08105 47.9574 7.34782 48.3584 7.88135C48.763 8.41488 48.9653 9.14535 48.9653 10.0728V10.1587ZM47.9717 10.0459C47.9717 9.36914 47.841 8.84635 47.5796 8.47754C47.3182 8.10872 46.9422 7.92432 46.4517 7.92432C45.7964 7.92432 45.3255 8.22868 45.0391 8.8374V11.3511C45.3434 11.9598 45.8179 12.2642 46.4624 12.2642C46.9386 12.2642 47.3092 12.0798 47.5742 11.7109C47.8392 11.3421 47.9717 10.7871 47.9717 10.0459ZM56.5386 13C56.4813 12.8854 56.4347 12.6813 56.3989 12.3877C55.937 12.8675 55.3856 13.1074 54.7446 13.1074C54.1717 13.1074 53.7008 12.9463 53.332 12.624C52.9668 12.2982 52.7842 11.8864 52.7842 11.3887C52.7842 10.7835 53.0133 10.3145 53.4717 9.98145C53.9336 9.64486 54.5817 9.47656 55.416 9.47656H56.3828V9.02002C56.3828 8.67269 56.279 8.39697 56.0713 8.19287C55.8636 7.98519 55.5575 7.88135 55.1528 7.88135C54.7983 7.88135 54.5011 7.97087 54.2612 8.1499C54.0213 8.32894 53.9014 8.54557 53.9014 8.7998H52.9023C52.9023 8.50977 53.0044 8.23047 53.2085 7.96191C53.4162 7.68978 53.6955 7.47493 54.0464 7.31738C54.4009 7.15983 54.7894 7.08105 55.2119 7.08105C55.8815 7.08105 56.4061 7.24935 56.7856 7.58594C57.1652 7.91895 57.3621 8.37907 57.3765 8.96631V11.6411C57.3765 12.1746 57.4445 12.599 57.5806 12.9141V13H56.5386ZM54.8896 12.2427C55.2012 12.2427 55.4966 12.1621 55.7759 12.001C56.0552 11.8398 56.2575 11.6304 56.3828 11.3726V10.1802H55.604C54.3866 10.1802 53.7778 10.5365 53.7778 11.249C53.7778 11.5605 53.8817 11.804 54.0894 11.9795C54.297 12.1549 54.5638 12.2427 54.8896 12.2427ZM59.874 7.18848L59.9062 7.91895C60.3503 7.36035 60.9303 7.08105 61.6465 7.08105C62.8747 7.08105 63.4941 7.77393 63.5049 9.15967V13H62.5112V9.1543C62.5076 8.73535 62.411 8.42562 62.2212 8.2251C62.035 8.02458 61.7432 7.92432 61.3457 7.92432C61.0234 7.92432 60.7406 8.01025 60.4971 8.18213C60.2536 8.354 60.0638 8.57959 59.9277 8.85889V13H58.9341V7.18848H59.874ZM68.5913 13C68.534 12.8854 68.4875 12.6813 68.4517 12.3877C67.9897 12.8675 67.4383 13.1074 66.7974 13.1074C66.2244 13.1074 65.7536 12.9463 65.3848 12.624C65.0195 12.2982 64.8369 11.8864 64.8369 11.3887C64.8369 10.7835 65.0661 10.3145 65.5244 9.98145C65.9863 9.64486 66.6344 9.47656 67.4688 9.47656H68.4355V9.02002C68.4355 8.67269 68.3317 8.39697 68.124 8.19287C67.9163 7.98519 67.6102 7.88135 67.2056 7.88135C66.8511 7.88135 66.5539 7.97087 66.314 8.1499C66.0741 8.32894 65.9541 8.54557 65.9541 8.7998H64.9551C64.9551 8.50977 65.0571 8.23047 65.2612 7.96191C65.4689 7.68978 65.7482 7.47493 66.0991 7.31738C66.4536 7.15983 66.8421 7.08105 67.2646 7.08105C67.9342 7.08105 68.4588 7.24935 68.8384 7.58594C69.2179 7.91895 69.4149 8.37907 69.4292 8.96631V11.6411C69.4292 12.1746 69.4972 12.599 69.6333 12.9141V13H68.5913ZM66.9424 12.2427C67.2539 12.2427 67.5493 12.1621 67.8286 12.001C68.1079 11.8398 68.3102 11.6304 68.4355 11.3726V10.1802H67.6567C66.4393 10.1802 65.8306 10.5365 65.8306 11.249C65.8306 11.5605 65.9344 11.804 66.1421 11.9795C66.3498 12.1549 66.6165 12.2427 66.9424 12.2427ZM72.0664 13H71.0728V4.75H72.0664V13ZM75.563 11.5444L76.9165 7.18848H77.98L75.6436 13.897C75.2819 14.8638 74.7072 15.3472 73.9194 15.3472L73.7314 15.3311L73.3608 15.2612V14.4556L73.6294 14.4771C73.966 14.4771 74.2274 14.409 74.4136 14.2729C74.6034 14.1369 74.7591 13.888 74.8809 13.5264L75.1011 12.9355L73.0278 7.18848H74.1128L75.563 11.5444ZM80.2197 5.78125V7.18848H81.3047V7.95654H80.2197V11.5605C80.2197 11.7933 80.2681 11.9688 80.3647 12.0869C80.4614 12.2015 80.6261 12.2588 80.8589 12.2588C80.9735 12.2588 81.131 12.2373 81.3315 12.1943V13C81.0701 13.0716 80.8159 13.1074 80.5688 13.1074C80.1248 13.1074 79.79 12.9731 79.5645 12.7046C79.3389 12.436 79.2261 12.0547 79.2261 11.5605V7.95654H78.168V7.18848H79.2261V5.78125H80.2197ZM83.5498 13H82.5562V7.18848H83.5498V13ZM82.4756 5.64697C82.4756 5.48584 82.5239 5.34977 82.6206 5.23877C82.7209 5.12777 82.8677 5.07227 83.061 5.07227C83.2544 5.07227 83.4012 5.12777 83.5015 5.23877C83.6017 5.34977 83.6519 5.48584 83.6519 5.64697C83.6519 5.80811 83.6017 5.94238 83.5015 6.0498C83.4012 6.15723 83.2544 6.21094 83.061 6.21094C82.8677 6.21094 82.7209 6.15723 82.6206 6.0498C82.5239 5.94238 82.4756 5.80811 82.4756 5.64697ZM87.4761 12.2964C87.8306 12.2964 88.1403 12.189 88.4053 11.9741C88.6702 11.7593 88.8171 11.4907 88.8457 11.1685H89.7856C89.7677 11.5015 89.6532 11.8184 89.4419 12.1191C89.2306 12.4199 88.9478 12.6598 88.5933 12.8389C88.2424 13.0179 87.87 13.1074 87.4761 13.1074C86.6847 13.1074 86.0545 12.8442 85.5854 12.3179C85.12 11.7879 84.8872 11.0646 84.8872 10.1479V9.98145C84.8872 9.41569 84.991 8.9126 85.1987 8.47217C85.4064 8.03174 85.7036 7.68978 86.0903 7.44629C86.4806 7.2028 86.9408 7.08105 87.4707 7.08105C88.1224 7.08105 88.6631 7.2762 89.0928 7.6665C89.526 8.0568 89.757 8.56348 89.7856 9.18652H88.8457C88.8171 8.81055 88.6738 8.5026 88.416 8.2627C88.1618 8.01921 87.8467 7.89746 87.4707 7.89746C86.9658 7.89746 86.5737 8.08008 86.2944 8.44531C86.0187 8.80697 85.8809 9.33154 85.8809 10.019V10.207C85.8809 10.8766 86.0187 11.3923 86.2944 11.7539C86.5701 12.1156 86.964 12.2964 87.4761 12.2964ZM94.2866 11.4585C94.2866 11.1899 94.1846 10.9823 93.9805 10.8354C93.7799 10.6851 93.4272 10.5562 92.9224 10.4487C92.4211 10.3413 92.0218 10.2124 91.7246 10.062C91.431 9.91162 91.2126 9.73258 91.0693 9.5249C90.9297 9.31722 90.8599 9.07015 90.8599 8.78369C90.8599 8.30745 91.0604 7.90462 91.4614 7.5752C91.866 7.24577 92.3817 7.08105 93.0083 7.08105C93.6672 7.08105 94.2007 7.25114 94.6089 7.59131C95.0207 7.93148 95.2266 8.36654 95.2266 8.89648H94.2275C94.2275 8.62435 94.1112 8.38981 93.8784 8.19287C93.6493 7.99593 93.3592 7.89746 93.0083 7.89746C92.6466 7.89746 92.3638 7.97624 92.1597 8.13379C91.9556 8.29134 91.8535 8.49723 91.8535 8.75146C91.8535 8.99137 91.9484 9.1722 92.1382 9.29395C92.328 9.41569 92.6699 9.53206 93.1641 9.64307C93.6618 9.75407 94.0646 9.88656 94.3726 10.0405C94.6805 10.1945 94.9079 10.3807 95.0547 10.5991C95.2051 10.814 95.2803 11.0771 95.2803 11.3887C95.2803 11.9079 95.0726 12.325 94.6572 12.6401C94.2419 12.9517 93.703 13.1074 93.0405 13.1074C92.575 13.1074 92.1632 13.0251 91.8052 12.8604C91.4471 12.6956 91.166 12.4665 90.9619 12.1729C90.7614 11.8757 90.6611 11.5552 90.6611 11.2114H91.6548C91.6727 11.5444 91.8052 11.8094 92.0522 12.0063C92.3029 12.1997 92.6323 12.2964 93.0405 12.2964C93.4165 12.2964 93.7173 12.2212 93.9429 12.0708C94.172 11.9168 94.2866 11.7127 94.2866 11.4585Z" fill="#555555"/>
</svg>
