<svg width="78" height="78" viewBox="0 0 78 78" fill="none" xmlns="http://www.w3.org/2000/svg">
<circle cx="39" cy="39" r="38.5" fill="#EEEEEE" stroke="#555555"/>
<path d="M12.1184 53.1445H9.13985L8.4709 55H7.5041L10.2189 47.8906H11.0393L13.759 55H12.7971L12.1184 53.1445ZM9.42305 52.373H11.84L10.6291 49.0479L9.42305 52.373Z" fill="#555555"/>
<path d="M16.8936 54.3604C17.2158 54.3604 17.4974 54.2627 17.7383 54.0674C17.9792 53.8721 18.1126 53.6279 18.1387 53.335H18.9932C18.9769 53.6377 18.8727 53.9258 18.6807 54.1992C18.4886 54.4727 18.2314 54.6908 17.9092 54.8535C17.5902 55.0163 17.2516 55.0977 16.8936 55.0977C16.1742 55.0977 15.6012 54.8584 15.1748 54.3799C14.7516 53.8981 14.54 53.2406 14.54 52.4072V52.2559C14.54 51.7415 14.6344 51.2842 14.8232 50.8838C15.012 50.4834 15.2822 50.1725 15.6338 49.9512C15.9886 49.7298 16.4069 49.6191 16.8887 49.6191C17.4811 49.6191 17.9727 49.7965 18.3633 50.1514C18.7572 50.5062 18.9671 50.9668 18.9932 51.5332H18.1387C18.1126 51.1914 17.9824 50.9115 17.7481 50.6934C17.5169 50.472 17.2305 50.3613 16.8887 50.3613C16.4297 50.3613 16.0732 50.5273 15.8193 50.8594C15.5687 51.1882 15.4434 51.665 15.4434 52.29V52.4609C15.4434 53.0697 15.5687 53.5384 15.8193 53.8672C16.07 54.196 16.4281 54.3604 16.8936 54.3604Z" fill="#555555"/>
<path d="M22.3279 54.3604C22.6502 54.3604 22.9318 54.2627 23.1727 54.0674C23.4135 53.8721 23.547 53.6279 23.573 53.335H24.4275C24.4113 53.6377 24.3071 53.9258 24.115 54.1992C23.923 54.4727 23.6658 54.6908 23.3436 54.8535C23.0245 55.0163 22.686 55.0977 22.3279 55.0977C21.6085 55.0977 21.0356 54.8584 20.6092 54.3799C20.186 53.8981 19.9744 53.2406 19.9744 52.4072V52.2559C19.9744 51.7415 20.0688 51.2842 20.2576 50.8838C20.4464 50.4834 20.7166 50.1725 21.0682 49.9512C21.423 49.7298 21.8413 49.6191 22.323 49.6191C22.9155 49.6191 23.407 49.7965 23.7977 50.1514C24.1915 50.5062 24.4015 50.9668 24.4275 51.5332H23.573C23.547 51.1914 23.4168 50.9115 23.1824 50.6934C22.9513 50.472 22.6648 50.3613 22.323 50.3613C21.8641 50.3613 21.5076 50.5273 21.2537 50.8594C21.0031 51.1882 20.8777 51.665 20.8777 52.29V52.4609C20.8777 53.0697 21.0031 53.5384 21.2537 53.8672C21.5044 54.196 21.8624 54.3604 22.3279 54.3604Z" fill="#555555"/>
<path d="M27.8356 55.0977C27.1194 55.0977 26.5367 54.8633 26.0875 54.3945C25.6383 53.9225 25.4137 53.2926 25.4137 52.5049V52.3389C25.4137 51.8148 25.513 51.3477 25.7115 50.9375C25.9134 50.5241 26.1933 50.2018 26.5514 49.9707C26.9127 49.7363 27.3033 49.6191 27.7232 49.6191C28.4101 49.6191 28.944 49.8454 29.3248 50.2979C29.7057 50.7503 29.8961 51.3981 29.8961 52.2412V52.6172H26.317C26.33 53.138 26.4814 53.5596 26.7711 53.8818C27.0641 54.2008 27.4352 54.3604 27.8844 54.3604C28.2034 54.3604 28.4736 54.2952 28.6949 54.165C28.9163 54.0348 29.11 53.8623 29.276 53.6475L29.8277 54.0771C29.385 54.7575 28.721 55.0977 27.8356 55.0977ZM27.7232 50.3613C27.3587 50.3613 27.0527 50.4948 26.8053 50.7617C26.5579 51.0254 26.4049 51.3965 26.3463 51.875H28.9928V51.8066C28.9667 51.3477 28.843 50.9928 28.6217 50.7422C28.4003 50.4883 28.1009 50.3613 27.7232 50.3613Z" fill="#555555"/>
<path d="M34.2221 53.5986C34.2221 53.3545 34.1293 53.1657 33.9438 53.0322C33.7615 52.8955 33.4408 52.7783 32.9818 52.6807C32.5261 52.583 32.1632 52.4658 31.893 52.3291C31.626 52.1924 31.4275 52.0296 31.2973 51.8408C31.1703 51.652 31.1068 51.4274 31.1068 51.167C31.1068 50.734 31.2891 50.3678 31.6537 50.0684C32.0216 49.7689 32.4903 49.6191 33.06 49.6191C33.6589 49.6191 34.1439 49.7738 34.515 50.083C34.8894 50.3923 35.0766 50.7878 35.0766 51.2695H34.1684C34.1684 51.0221 34.0626 50.8089 33.851 50.6299C33.6426 50.4508 33.379 50.3613 33.06 50.3613C32.7312 50.3613 32.474 50.4329 32.2885 50.5762C32.1029 50.7194 32.0102 50.9066 32.0102 51.1377C32.0102 51.3558 32.0964 51.5202 32.2689 51.6309C32.4415 51.7415 32.7523 51.8473 33.2016 51.9482C33.654 52.0492 34.0202 52.1696 34.3002 52.3096C34.5801 52.4495 34.7869 52.6188 34.9203 52.8174C35.057 53.0127 35.1254 53.252 35.1254 53.5352C35.1254 54.0072 34.9366 54.3864 34.559 54.6729C34.1814 54.9561 33.6915 55.0977 33.0893 55.0977C32.6661 55.0977 32.2917 55.0228 31.9662 54.873C31.6407 54.7233 31.3852 54.515 31.1996 54.248C31.0173 53.9779 30.9262 53.6865 30.9262 53.374H31.8295C31.8458 53.6768 31.9662 53.9176 32.1908 54.0967C32.4187 54.2725 32.7182 54.3604 33.0893 54.3604C33.4311 54.3604 33.7045 54.292 33.9096 54.1553C34.1179 54.0153 34.2221 53.8298 34.2221 53.5986Z" fill="#555555"/>
<path d="M36.2629 52.3096C36.2629 51.792 36.3638 51.3265 36.5656 50.9131C36.7707 50.4997 37.0539 50.1807 37.4152 49.9561C37.7798 49.7314 38.1949 49.6191 38.6604 49.6191C39.3798 49.6191 39.9608 49.8682 40.4035 50.3662C40.8495 50.8643 41.0725 51.5267 41.0725 52.3535V52.417C41.0725 52.9313 40.9732 53.3936 40.7746 53.8037C40.5793 54.2106 40.2977 54.528 39.9299 54.7559C39.5653 54.9837 39.1454 55.0977 38.6701 55.0977C37.954 55.0977 37.3729 54.8486 36.927 54.3506C36.4843 53.8525 36.2629 53.1934 36.2629 52.373V52.3096ZM37.1711 52.417C37.1711 53.0029 37.3062 53.4733 37.5764 53.8281C37.8498 54.1829 38.2144 54.3604 38.6701 54.3604C39.1291 54.3604 39.4937 54.1813 39.7639 53.8232C40.0341 53.4619 40.1691 52.9574 40.1691 52.3096C40.1691 51.7301 40.0308 51.2614 39.7541 50.9033C39.4807 50.542 39.1161 50.3613 38.6604 50.3613C38.2144 50.3613 37.8547 50.5387 37.5813 50.8936C37.3078 51.2484 37.1711 51.7562 37.1711 52.417Z" fill="#555555"/>
<path d="M48.3475 55C48.2954 54.8958 48.2531 54.7103 48.2205 54.4434C47.8006 54.8796 47.2993 55.0977 46.7166 55.0977C46.1958 55.0977 45.7677 54.9512 45.4324 54.6582C45.1004 54.362 44.9344 53.9876 44.9344 53.5352C44.9344 52.985 45.1427 52.5586 45.5594 52.2559C45.9793 51.9499 46.5685 51.7969 47.327 51.7969H48.2059V51.3818C48.2059 51.0661 48.1115 50.8154 47.9227 50.6299C47.7339 50.4411 47.4555 50.3467 47.0877 50.3467C46.7654 50.3467 46.4952 50.4281 46.2771 50.5908C46.0591 50.7536 45.95 50.9505 45.95 51.1816H45.0418C45.0418 50.918 45.1346 50.6641 45.3201 50.4199C45.5089 50.1725 45.7628 49.9772 46.0818 49.834C46.4041 49.6908 46.7573 49.6191 47.1414 49.6191C47.7501 49.6191 48.227 49.7721 48.5721 50.0781C48.9171 50.3809 49.0962 50.7992 49.1092 51.333V53.7646C49.1092 54.2497 49.171 54.6354 49.2947 54.9219V55H48.3475ZM46.8484 54.3115C47.1316 54.3115 47.4002 54.2383 47.6541 54.0918C47.908 53.9453 48.0919 53.7549 48.2059 53.5205V52.4365H47.4979C46.3911 52.4365 45.8377 52.7604 45.8377 53.4082C45.8377 53.6914 45.9321 53.9128 46.1209 54.0723C46.3097 54.2318 46.5522 54.3115 46.8484 54.3115Z" fill="#555555"/>
<path d="M56.4818 53.5986C56.4818 53.3545 56.3891 53.1657 56.2035 53.0322C56.0212 52.8955 55.7006 52.7783 55.2416 52.6807C54.7859 52.583 54.4229 52.4658 54.1527 52.3291C53.8858 52.1924 53.6872 52.0296 53.557 51.8408C53.4301 51.652 53.3666 51.4274 53.3666 51.167C53.3666 50.734 53.5489 50.3678 53.9135 50.0684C54.2813 49.7689 54.7501 49.6191 55.3197 49.6191C55.9187 49.6191 56.4037 49.7738 56.7748 50.083C57.1492 50.3923 57.3363 50.7878 57.3363 51.2695H56.4281C56.4281 51.0221 56.3223 50.8089 56.1107 50.6299C55.9024 50.4508 55.6387 50.3613 55.3197 50.3613C54.991 50.3613 54.7338 50.4329 54.5482 50.5762C54.3627 50.7194 54.2699 50.9066 54.2699 51.1377C54.2699 51.3558 54.3562 51.5202 54.5287 51.6309C54.7012 51.7415 55.0121 51.8473 55.4613 51.9482C55.9138 52.0492 56.28 52.1696 56.56 52.3096C56.8399 52.4495 57.0466 52.6188 57.1801 52.8174C57.3168 53.0127 57.3852 53.252 57.3852 53.5352C57.3852 54.0072 57.1964 54.3864 56.8188 54.6729C56.4411 54.9561 55.9512 55.0977 55.349 55.0977C54.9258 55.0977 54.5515 55.0228 54.226 54.873C53.9005 54.7233 53.6449 54.515 53.4594 54.248C53.2771 53.9779 53.1859 53.6865 53.1859 53.374H54.0893C54.1055 53.6768 54.226 53.9176 54.4506 54.0967C54.6785 54.2725 54.9779 54.3604 55.349 54.3604C55.6908 54.3604 55.9643 54.292 56.1693 54.1553C56.3777 54.0153 56.4818 53.8298 56.4818 53.5986Z" fill="#555555"/>
<path d="M62.0236 54.4775C61.6721 54.891 61.1561 55.0977 60.4758 55.0977C59.9126 55.0977 59.4829 54.9349 59.1867 54.6094C58.8938 54.2806 58.7456 53.7956 58.7424 53.1543V49.7168H59.6457V53.1299C59.6457 53.9307 59.9712 54.3311 60.6223 54.3311C61.3124 54.3311 61.7714 54.0739 61.9992 53.5596V49.7168H62.9025V55H62.0432L62.0236 54.4775Z" fill="#555555"/>
<path d="M67.5557 53.5986C67.5557 53.3545 67.4629 53.1657 67.2773 53.0322C67.0951 52.8955 66.7744 52.7783 66.3154 52.6807C65.8597 52.583 65.4967 52.4658 65.2266 52.3291C64.9596 52.1924 64.7611 52.0296 64.6309 51.8408C64.5039 51.652 64.4404 51.4274 64.4404 51.167C64.4404 50.734 64.6227 50.3678 64.9873 50.0684C65.3551 49.7689 65.8239 49.6191 66.3936 49.6191C66.9925 49.6191 67.4775 49.7738 67.8486 50.083C68.223 50.3923 68.4102 50.7878 68.4102 51.2695H67.502C67.502 51.0221 67.3962 50.8089 67.1846 50.6299C66.9762 50.4508 66.7126 50.3613 66.3936 50.3613C66.0648 50.3613 65.8076 50.4329 65.6221 50.5762C65.4365 50.7194 65.3438 50.9066 65.3438 51.1377C65.3438 51.3558 65.43 51.5202 65.6025 51.6309C65.7751 51.7415 66.0859 51.8473 66.5352 51.9482C66.9876 52.0492 67.3538 52.1696 67.6338 52.3096C67.9137 52.4495 68.1204 52.6188 68.2539 52.8174C68.3906 53.0127 68.459 53.252 68.459 53.5352C68.459 54.0072 68.2702 54.3864 67.8926 54.6729C67.515 54.9561 67.0251 55.0977 66.4229 55.0977C65.9997 55.0977 65.6253 55.0228 65.2998 54.873C64.9743 54.7233 64.7188 54.515 64.5332 54.248C64.3509 53.9779 64.2598 53.6865 64.2598 53.374H65.1631C65.1794 53.6768 65.2998 53.9176 65.5244 54.0967C65.7523 54.2725 66.0518 54.3604 66.4229 54.3604C66.7647 54.3604 67.0381 54.292 67.2432 54.1553C67.4515 54.0153 67.5557 53.8298 67.5557 53.5986Z" fill="#555555"/>
<path d="M27.0053 64.3145C27.0053 63.5039 27.1973 62.8529 27.5814 62.3613C27.9656 61.8665 28.4685 61.6191 29.0902 61.6191C29.7087 61.6191 30.1986 61.8307 30.56 62.2539V59.5H31.4633V67H30.6332L30.5893 66.4336C30.2279 66.8763 29.725 67.0977 29.0805 67.0977C28.4685 67.0977 27.9688 66.847 27.5814 66.3457C27.1973 65.8444 27.0053 65.1901 27.0053 64.3828V64.3145ZM27.9086 64.417C27.9086 65.016 28.0323 65.4847 28.2797 65.8232C28.5271 66.1618 28.8689 66.3311 29.3051 66.3311C29.878 66.3311 30.2963 66.0739 30.56 65.5596V63.1328C30.2898 62.6348 29.8747 62.3857 29.3148 62.3857C28.8721 62.3857 28.5271 62.5566 28.2797 62.8984C28.0323 63.2402 27.9086 63.7464 27.9086 64.417Z" fill="#555555"/>
<path d="M36.3312 67C36.2792 66.8958 36.2368 66.7103 36.2043 66.4434C35.7844 66.8796 35.2831 67.0977 34.7004 67.0977C34.1796 67.0977 33.7515 66.9512 33.4162 66.6582C33.0842 66.362 32.9182 65.9876 32.9182 65.5352C32.9182 64.985 33.1265 64.5586 33.5432 64.2559C33.9631 63.9499 34.5523 63.7969 35.3107 63.7969H36.1896V63.3818C36.1896 63.0661 36.0952 62.8154 35.9064 62.6299C35.7176 62.4411 35.4393 62.3467 35.0715 62.3467C34.7492 62.3467 34.479 62.4281 34.2609 62.5908C34.0428 62.7536 33.9338 62.9505 33.9338 63.1816H33.0256C33.0256 62.918 33.1184 62.6641 33.3039 62.4199C33.4927 62.1725 33.7466 61.9772 34.0656 61.834C34.3879 61.6908 34.7411 61.6191 35.1252 61.6191C35.7339 61.6191 36.2108 61.7721 36.5559 62.0781C36.9009 62.3809 37.0799 62.7992 37.093 63.333V65.7646C37.093 66.2497 37.1548 66.6354 37.2785 66.9219V67H36.3312ZM34.8322 66.3115C35.1154 66.3115 35.384 66.2383 35.6379 66.0918C35.8918 65.9453 36.0757 65.7549 36.1896 65.5205V64.4365H35.4816C34.3749 64.4365 33.8215 64.7604 33.8215 65.4082C33.8215 65.6914 33.9159 65.9128 34.1047 66.0723C34.2935 66.2318 34.536 66.3115 34.8322 66.3115Z" fill="#555555"/>
<path d="M39.9346 60.4375V61.7168H40.9209V62.415H39.9346V65.6914C39.9346 65.903 39.9785 66.0625 40.0664 66.1699C40.1543 66.2741 40.304 66.3262 40.5156 66.3262C40.6198 66.3262 40.763 66.3066 40.9453 66.2676V67C40.7077 67.0651 40.4766 67.0977 40.252 67.0977C39.8483 67.0977 39.5439 66.9756 39.3389 66.7314C39.1338 66.4873 39.0313 66.1406 39.0313 65.6914V62.415H38.0693V61.7168H39.0313V60.4375H39.9346Z" fill="#555555"/>
<path d="M41.8436 64.3096C41.8436 63.792 41.9445 63.3265 42.1463 62.9131C42.3514 62.4997 42.6346 62.1807 42.9959 61.9561C43.3605 61.7314 43.7755 61.6191 44.241 61.6191C44.9604 61.6191 45.5415 61.8682 45.9842 62.3662C46.4301 62.8643 46.6531 63.5267 46.6531 64.3535V64.417C46.6531 64.9313 46.5538 65.3936 46.3553 65.8037C46.16 66.2106 45.8784 66.528 45.5105 66.7559C45.146 66.9837 44.726 67.0977 44.2508 67.0977C43.5346 67.0977 42.9536 66.8486 42.5076 66.3506C42.0649 65.8525 41.8436 65.1934 41.8436 64.373V64.3096ZM42.7518 64.417C42.7518 65.0029 42.8868 65.4733 43.157 65.8281C43.4305 66.1829 43.7951 66.3604 44.2508 66.3604C44.7098 66.3604 45.0743 66.1813 45.3445 65.8232C45.6147 65.4619 45.7498 64.9574 45.7498 64.3096C45.7498 63.7301 45.6115 63.2614 45.3348 62.9033C45.0613 62.542 44.6967 62.3613 44.241 62.3613C43.7951 62.3613 43.4354 62.5387 43.1619 62.8936C42.8885 63.2484 42.7518 63.7562 42.7518 64.417Z" fill="#555555"/>
<path d="M51.0621 65.5986C51.0621 65.3545 50.9693 65.1657 50.7838 65.0322C50.6015 64.8955 50.2809 64.7783 49.8219 64.6807C49.3661 64.583 49.0032 64.4658 48.733 64.3291C48.4661 64.1924 48.2675 64.0296 48.1373 63.8408C48.0103 63.652 47.9469 63.4274 47.9469 63.167C47.9469 62.734 48.1292 62.3678 48.4937 62.0684C48.8616 61.7689 49.3303 61.6191 49.9 61.6191C50.499 61.6191 50.984 61.7738 51.3551 62.083C51.7294 62.3923 51.9166 62.7878 51.9166 63.2695H51.0084C51.0084 63.0221 50.9026 62.8089 50.691 62.6299C50.4827 62.4508 50.219 62.3613 49.9 62.3613C49.5712 62.3613 49.3141 62.4329 49.1285 62.5762C48.943 62.7194 48.8502 62.9066 48.8502 63.1377C48.8502 63.3558 48.9365 63.5202 49.109 63.6309C49.2815 63.7415 49.5924 63.8473 50.0416 63.9482C50.4941 64.0492 50.8603 64.1696 51.1402 64.3096C51.4202 64.4495 51.6269 64.6188 51.7603 64.8174C51.8971 65.0127 51.9654 65.252 51.9654 65.5352C51.9654 66.0072 51.7766 66.3864 51.399 66.6729C51.0214 66.9561 50.5315 67.0977 49.9293 67.0977C49.5061 67.0977 49.1318 67.0228 48.8062 66.873C48.4807 66.7233 48.2252 66.515 48.0396 66.248C47.8574 65.9779 47.7662 65.6865 47.7662 65.374H48.6695C48.6858 65.6768 48.8062 65.9176 49.0309 66.0967C49.2587 66.2725 49.5582 66.3604 49.9293 66.3604C50.2711 66.3604 50.5445 66.292 50.7496 66.1553C50.9579 66.0153 51.0621 65.8298 51.0621 65.5986Z" fill="#555555"/>
<path d="M8.62773 37.7588L8.76445 38.6963L8.96465 37.8516L10.3709 32.8906H11.1619L12.534 37.8516L12.7293 38.7109L12.8807 37.7539L13.9842 32.8906H14.9266L13.2029 40H12.3484L10.8836 34.8193L10.7713 34.2773L10.659 34.8193L9.14043 40H8.28593L6.56718 32.8906H7.50468L8.62773 37.7588Z" fill="#555555"/>
<path d="M18.166 40.0977C17.4499 40.0977 16.8672 39.8633 16.418 39.3945C15.9687 38.9225 15.7441 38.2926 15.7441 37.5049V37.3389C15.7441 36.8148 15.8434 36.3477 16.042 35.9375C16.2438 35.5241 16.5238 35.2018 16.8818 34.9707C17.2432 34.7363 17.6338 34.6191 18.0537 34.6191C18.7406 34.6191 19.2744 34.8454 19.6553 35.2979C20.0361 35.7503 20.2266 36.3981 20.2266 37.2412V37.6172H16.6475C16.6605 38.138 16.8118 38.5596 17.1016 38.8818C17.3945 39.2008 17.7656 39.3604 18.2148 39.3604C18.5339 39.3604 18.804 39.2952 19.0254 39.165C19.2467 39.0348 19.4404 38.8623 19.6064 38.6475L20.1582 39.0771C19.7155 39.7575 19.0514 40.0977 18.166 40.0977ZM18.0537 35.3613C17.6891 35.3613 17.3831 35.4948 17.1357 35.7617C16.8883 36.0254 16.7353 36.3965 16.6768 36.875H19.3232V36.8066C19.2972 36.3477 19.1735 35.9928 18.9521 35.7422C18.7308 35.4883 18.4313 35.3613 18.0537 35.3613Z" fill="#555555"/>
<path d="M26.049 37.417C26.049 38.2243 25.8635 38.8737 25.4924 39.3652C25.1213 39.8535 24.6232 40.0977 23.9982 40.0977C23.3309 40.0977 22.815 39.8617 22.4504 39.3896L22.4064 40H21.5764V32.5H22.4797V35.2979C22.8443 34.8454 23.3472 34.6191 23.9885 34.6191C24.6298 34.6191 25.1327 34.8617 25.4973 35.3467C25.8651 35.8317 26.049 36.4958 26.049 37.3389V37.417ZM25.1457 37.3145C25.1457 36.6992 25.0269 36.224 24.7893 35.8887C24.5516 35.5534 24.2098 35.3857 23.7639 35.3857C23.1682 35.3857 22.7401 35.6624 22.4797 36.2158V38.501C22.7564 39.0544 23.1877 39.3311 23.7736 39.3311C24.2066 39.3311 24.5435 39.1634 24.7844 38.8281C25.0253 38.4928 25.1457 37.9883 25.1457 37.3145Z" fill="#555555"/>
<path d="M34.3395 38.1445H31.3609L30.692 40H29.7252L32.44 32.8906H33.2603L35.9801 40H35.0182L34.3395 38.1445ZM31.6441 37.373H34.0611L32.8502 34.0479L31.6441 37.373Z" fill="#555555"/>
<path d="M37.95 34.7168L37.9793 35.3809C38.3829 34.873 38.9103 34.6191 39.5613 34.6191C40.6779 34.6191 41.241 35.249 41.2508 36.5088V40H40.3475V36.5039C40.3442 36.123 40.2563 35.8415 40.0838 35.6592C39.9145 35.4769 39.6492 35.3857 39.2879 35.3857C38.9949 35.3857 38.7378 35.4639 38.5164 35.6201C38.295 35.7764 38.1225 35.9814 37.9988 36.2354V40H37.0955V34.7168H37.95Z" fill="#555555"/>
<path d="M46.1748 40C46.1227 39.8958 46.0804 39.7103 46.0478 39.4434C45.6279 39.8796 45.1266 40.0977 44.5439 40.0977C44.0231 40.0977 43.595 39.9512 43.2598 39.6582C42.9277 39.362 42.7617 38.9876 42.7617 38.5352C42.7617 37.985 42.97 37.5586 43.3867 37.2559C43.8066 36.9499 44.3958 36.7969 45.1543 36.7969H46.0332V36.3818C46.0332 36.0661 45.9388 35.8154 45.75 35.6299C45.5612 35.4411 45.2829 35.3467 44.915 35.3467C44.5928 35.3467 44.3226 35.4281 44.1045 35.5908C43.8864 35.7536 43.7773 35.9505 43.7773 36.1816H42.8691C42.8691 35.918 42.9619 35.6641 43.1475 35.4199C43.3363 35.1725 43.5902 34.9772 43.9092 34.834C44.2314 34.6908 44.5846 34.6191 44.9687 34.6191C45.5775 34.6191 46.0544 34.7721 46.3994 35.0781C46.7445 35.3809 46.9235 35.7992 46.9365 36.333V38.7646C46.9365 39.2497 46.9984 39.6354 47.1221 39.9219V40H46.1748ZM44.6758 39.3115C44.959 39.3115 45.2275 39.2383 45.4814 39.0918C45.7353 38.9453 45.9193 38.7549 46.0332 38.5205V37.4365H45.3252C44.2184 37.4365 43.665 37.7604 43.665 38.4082C43.665 38.6914 43.7594 38.9128 43.9482 39.0723C44.137 39.2318 44.3796 39.3115 44.6758 39.3115Z" fill="#555555"/>
<path d="M49.634 40H48.7307V32.5H49.634V40Z" fill="#555555"/>
<path d="M53.1127 38.6768L54.3432 34.7168H55.31L53.1859 40.8154C52.8572 41.6943 52.3347 42.1338 51.6186 42.1338L51.4477 42.1191L51.1107 42.0557V41.3232L51.3549 41.3428C51.6609 41.3428 51.8985 41.2809 52.0678 41.1572C52.2403 41.0335 52.3819 40.8073 52.4926 40.4785L52.6928 39.9414L50.808 34.7168H51.7943L53.1127 38.6768Z" fill="#555555"/>
<path d="M57.6461 33.4375V34.7168H58.6324V35.415H57.6461V38.6914C57.6461 38.903 57.69 39.0625 57.7779 39.1699C57.8658 39.2741 58.0156 39.3262 58.2271 39.3262C58.3313 39.3262 58.4745 39.3066 58.6568 39.2676V40C58.4192 40.0651 58.1881 40.0977 57.9635 40.0977C57.5598 40.0977 57.2555 39.9756 57.0504 39.7314C56.8453 39.4873 56.7428 39.1406 56.7428 38.6914V35.415H55.7809V34.7168H56.7428V33.4375H57.6461Z" fill="#555555"/>
<path d="M60.9734 40H60.0701V34.7168H60.9734V40ZM59.9969 33.3154C59.9969 33.1689 60.0408 33.0452 60.1287 32.9443C60.2198 32.8434 60.3533 32.793 60.5291 32.793C60.7049 32.793 60.8383 32.8434 60.9295 32.9443C61.0206 33.0452 61.0662 33.1689 61.0662 33.3154C61.0662 33.4619 61.0206 33.584 60.9295 33.6816C60.8383 33.7793 60.7049 33.8281 60.5291 33.8281C60.3533 33.8281 60.2198 33.7793 60.1287 33.6816C60.0408 33.584 59.9969 33.4619 59.9969 33.3154Z" fill="#555555"/>
<path d="M64.8428 39.3604C65.165 39.3604 65.4466 39.2627 65.6875 39.0674C65.9284 38.8721 66.0618 38.6279 66.0879 38.335H66.9424C66.9261 38.6377 66.8219 38.9258 66.6299 39.1992C66.4378 39.4727 66.1807 39.6908 65.8584 39.8535C65.5394 40.0163 65.2008 40.0977 64.8428 40.0977C64.1234 40.0977 63.5505 39.8584 63.124 39.3799C62.7008 38.8981 62.4893 38.2406 62.4893 37.4072V37.2559C62.4893 36.7415 62.5837 36.2842 62.7725 35.8838C62.9613 35.4834 63.2314 35.1725 63.583 34.9512C63.9378 34.7298 64.3561 34.6191 64.8379 34.6191C65.4303 34.6191 65.9219 34.7965 66.3125 35.1514C66.7064 35.5062 66.9163 35.9668 66.9424 36.5332H66.0879C66.0618 36.1914 65.9316 35.9115 65.6973 35.6934C65.4661 35.472 65.1797 35.3613 64.8379 35.3613C64.3789 35.3613 64.0225 35.5273 63.7686 35.8594C63.5179 36.1882 63.3926 36.665 63.3926 37.29V37.4609C63.3926 38.0697 63.5179 38.5384 63.7686 38.8672C64.0192 39.196 64.3773 39.3604 64.8428 39.3604Z" fill="#555555"/>
<path d="M71.3342 38.5986C71.3342 38.3545 71.2414 38.1657 71.0559 38.0322C70.8736 37.8955 70.5529 37.7783 70.0939 37.6807C69.6382 37.583 69.2753 37.4658 69.0051 37.3291C68.7382 37.1924 68.5396 37.0296 68.4094 36.8408C68.2824 36.652 68.2189 36.4274 68.2189 36.167C68.2189 35.734 68.4012 35.3678 68.7658 35.0684C69.1337 34.7689 69.6024 34.6191 70.1721 34.6191C70.771 34.6191 71.2561 34.7738 71.6272 35.083C72.0015 35.3923 72.1887 35.7878 72.1887 36.2695H71.2805C71.2805 36.0221 71.1747 35.8089 70.9631 35.6299C70.7548 35.4508 70.4911 35.3613 70.1721 35.3613C69.8433 35.3613 69.5861 35.4329 69.4006 35.5762C69.215 35.7194 69.1223 35.9066 69.1223 36.1377C69.1223 36.3558 69.2085 36.5202 69.3811 36.6309C69.5536 36.7415 69.8645 36.8473 70.3137 36.9482C70.7661 37.0492 71.1324 37.1696 71.4123 37.3096C71.6923 37.4495 71.899 37.6188 72.0324 37.8174C72.1691 38.0127 72.2375 38.252 72.2375 38.5352C72.2375 39.0072 72.0487 39.3864 71.6711 39.6729C71.2935 39.9561 70.8036 40.0977 70.2014 40.0977C69.7782 40.0977 69.4038 40.0228 69.0783 39.873C68.7528 39.7233 68.4973 39.515 68.3117 39.248C68.1294 38.9779 68.0383 38.6865 68.0383 38.374H68.9416C68.9579 38.6768 69.0783 38.9176 69.3029 39.0967C69.5308 39.2725 69.8303 39.3604 70.2014 39.3604C70.5432 39.3604 70.8166 39.292 71.0217 39.1553C71.23 39.0153 71.3342 38.8298 71.3342 38.5986Z" fill="#555555"/>
<path d="M30.8934 19.3594H24.2625V26H23.0613V11.7812H31.8699V12.8066H24.2625V18.334H30.8934V19.3594Z" fill="#555555"/>
<path d="M41.5758 26C41.4586 25.668 41.3837 25.1764 41.3512 24.5254C40.941 25.0592 40.4169 25.4727 39.7789 25.7656C39.1474 26.0521 38.4768 26.1953 37.7672 26.1953C36.7516 26.1953 35.928 25.9121 35.2965 25.3457C34.6715 24.7793 34.359 24.0632 34.359 23.1973C34.359 22.1686 34.7854 21.3548 35.6383 20.7559C36.4977 20.1569 37.6923 19.8574 39.2223 19.8574H41.3414V18.6562C41.3414 17.901 41.107 17.3086 40.6383 16.8789C40.176 16.4427 39.499 16.2246 38.607 16.2246C37.7932 16.2246 37.1194 16.4329 36.5855 16.8496C36.0517 17.2663 35.7848 17.7676 35.7848 18.3535L34.6129 18.3438C34.6129 17.5039 35.0035 16.778 35.7848 16.166C36.566 15.5475 37.5263 15.2383 38.6656 15.2383C39.844 15.2383 40.7717 15.5345 41.4488 16.127C42.1324 16.7129 42.484 17.5332 42.5035 18.5879V23.5879C42.5035 24.61 42.6109 25.375 42.8258 25.8828V26H41.5758ZM37.9039 25.1602C38.6852 25.1602 39.3818 24.9714 39.9937 24.5938C40.6122 24.2161 41.0615 23.7116 41.3414 23.0801V20.7559H39.2516C38.0862 20.7689 37.1747 20.9837 36.5172 21.4004C35.8596 21.8105 35.5309 22.377 35.5309 23.0996C35.5309 23.6921 35.749 24.1836 36.1852 24.5742C36.6279 24.9648 37.2008 25.1602 37.9039 25.1602Z" fill="#555555"/>
<path d="M48.1371 26H46.9652V15.4336H48.1371V26ZM46.7602 12.377C46.7602 12.1556 46.8318 11.9701 46.975 11.8203C47.1182 11.6641 47.3135 11.5859 47.5609 11.5859C47.8083 11.5859 48.0036 11.6641 48.1469 11.8203C48.2966 11.9701 48.3715 12.1556 48.3715 12.377C48.3715 12.5983 48.2966 12.7839 48.1469 12.9336C48.0036 13.0833 47.8083 13.1582 47.5609 13.1582C47.3135 13.1582 47.1182 13.0833 46.975 12.9336C46.8318 12.7839 46.7602 12.5983 46.7602 12.377Z" fill="#555555"/>
<path d="M57.4035 16.4297C57.1561 16.3841 56.8924 16.3613 56.6125 16.3613C55.8833 16.3613 55.2648 16.5664 54.757 16.9766C54.2557 17.3802 53.8977 17.9694 53.6828 18.7441V26H52.5207V15.4336H53.6633L53.6828 17.1133C54.3013 15.8633 55.2941 15.2383 56.6613 15.2383C56.9868 15.2383 57.244 15.2806 57.4328 15.3652L57.4035 16.4297Z" fill="#555555"/>
</svg>
