<svg width="78" height="78" viewBox="0 0 78 78" fill="none" xmlns="http://www.w3.org/2000/svg">
<circle cx="39" cy="39" r="38.5" fill="#EEEEEE" stroke="#555555"/>
<path d="M16.0732 53.1445H13.0947L12.4258 55H11.459L14.1738 47.8906H14.9941L17.7139 55H16.752L16.0732 53.1445ZM13.3779 52.373H15.7949L14.584 49.0479L13.3779 52.373Z" fill="#555555"/>
<path d="M20.8484 54.3604C21.1707 54.3604 21.4523 54.2627 21.6932 54.0674C21.934 53.8721 22.0675 53.6279 22.0936 53.335H22.948C22.9318 53.6377 22.8276 53.9258 22.6355 54.1992C22.4435 54.4727 22.1863 54.6908 21.8641 54.8535C21.545 55.0163 21.2065 55.0977 20.8484 55.0977C20.129 55.0977 19.5561 54.8584 19.1297 54.3799C18.7065 53.8981 18.4949 53.2406 18.4949 52.4072V52.2559C18.4949 51.7415 18.5893 51.2842 18.7781 50.8838C18.9669 50.4834 19.2371 50.1725 19.5887 49.9512C19.9435 49.7298 20.3618 49.6191 20.8436 49.6191C21.436 49.6191 21.9275 49.7965 22.3182 50.1514C22.712 50.5062 22.922 50.9668 22.948 51.5332H22.0936C22.0675 51.1914 21.9373 50.9115 21.7029 50.6934C21.4718 50.472 21.1853 50.3613 20.8436 50.3613C20.3846 50.3613 20.0281 50.5273 19.7742 50.8594C19.5236 51.1882 19.3982 51.665 19.3982 52.29V52.4609C19.3982 53.0697 19.5236 53.5384 19.7742 53.8672C20.0249 54.196 20.3829 54.3604 20.8484 54.3604Z" fill="#555555"/>
<path d="M26.2828 54.3604C26.6051 54.3604 26.8867 54.2627 27.1275 54.0674C27.3684 53.8721 27.5019 53.6279 27.5279 53.335H28.3824C28.3661 53.6377 28.262 53.9258 28.0699 54.1992C27.8779 54.4727 27.6207 54.6908 27.2984 54.8535C26.9794 55.0163 26.6409 55.0977 26.2828 55.0977C25.5634 55.0977 24.9905 54.8584 24.5641 54.3799C24.1409 53.8981 23.9293 53.2406 23.9293 52.4072V52.2559C23.9293 51.7415 24.0237 51.2842 24.2125 50.8838C24.4013 50.4834 24.6715 50.1725 25.023 49.9512C25.3779 49.7298 25.7962 49.6191 26.2779 49.6191C26.8704 49.6191 27.3619 49.7965 27.7525 50.1514C28.1464 50.5062 28.3564 50.9668 28.3824 51.5332H27.5279C27.5019 51.1914 27.3717 50.9115 27.1373 50.6934C26.9062 50.472 26.6197 50.3613 26.2779 50.3613C25.8189 50.3613 25.4625 50.5273 25.2086 50.8594C24.9579 51.1882 24.8326 51.665 24.8326 52.29V52.4609C24.8326 53.0697 24.9579 53.5384 25.2086 53.8672C25.4592 54.196 25.8173 54.3604 26.2828 54.3604Z" fill="#555555"/>
<path d="M31.7904 55.0977C31.0743 55.0977 30.4916 54.8633 30.0424 54.3945C29.5932 53.9225 29.3686 53.2926 29.3686 52.5049V52.3389C29.3686 51.8148 29.4678 51.3477 29.6664 50.9375C29.8682 50.5241 30.1482 50.2018 30.5062 49.9707C30.8676 49.7363 31.2582 49.6191 31.6781 49.6191C32.365 49.6191 32.8988 49.8454 33.2797 50.2979C33.6605 50.7503 33.851 51.3981 33.851 52.2412V52.6172H30.2719C30.2849 53.138 30.4363 53.5596 30.726 53.8818C31.0189 54.2008 31.39 54.3604 31.8393 54.3604C32.1583 54.3604 32.4284 54.2952 32.6498 54.165C32.8712 54.0348 33.0648 53.8623 33.2309 53.6475L33.7826 54.0771C33.3399 54.7575 32.6758 55.0977 31.7904 55.0977ZM31.6781 50.3613C31.3135 50.3613 31.0076 50.4948 30.7602 50.7617C30.5128 51.0254 30.3598 51.3965 30.3012 51.875H32.9477V51.8066C32.9216 51.3477 32.7979 50.9928 32.5766 50.7422C32.3552 50.4883 32.0557 50.3613 31.6781 50.3613Z" fill="#555555"/>
<path d="M38.177 53.5986C38.177 53.3545 38.0842 53.1657 37.8986 53.0322C37.7163 52.8955 37.3957 52.7783 36.9367 52.6807C36.481 52.583 36.118 52.4658 35.8479 52.3291C35.5809 52.1924 35.3824 52.0296 35.2522 51.8408C35.1252 51.652 35.0617 51.4274 35.0617 51.167C35.0617 50.734 35.244 50.3678 35.6086 50.0684C35.9764 49.7689 36.4452 49.6191 37.0148 49.6191C37.6138 49.6191 38.0988 49.7738 38.4699 50.083C38.8443 50.3923 39.0314 50.7878 39.0314 51.2695H38.1232C38.1232 51.0221 38.0175 50.8089 37.8059 50.6299C37.5975 50.4508 37.3339 50.3613 37.0148 50.3613C36.6861 50.3613 36.4289 50.4329 36.2434 50.5762C36.0578 50.7194 35.965 50.9066 35.965 51.1377C35.965 51.3558 36.0513 51.5202 36.2238 51.6309C36.3964 51.7415 36.7072 51.8473 37.1564 51.9482C37.6089 52.0492 37.9751 52.1696 38.2551 52.3096C38.535 52.4495 38.7417 52.6188 38.8752 52.8174C39.0119 53.0127 39.0803 53.252 39.0803 53.5352C39.0803 54.0072 38.8915 54.3864 38.5139 54.6729C38.1363 54.9561 37.6464 55.0977 37.0441 55.0977C36.621 55.0977 36.2466 55.0228 35.9211 54.873C35.5956 54.7233 35.34 54.515 35.1545 54.248C34.9722 53.9779 34.8811 53.6865 34.8811 53.374H35.7844C35.8007 53.6768 35.9211 53.9176 36.1457 54.0967C36.3736 54.2725 36.673 54.3604 37.0441 54.3604C37.3859 54.3604 37.6594 54.292 37.8645 54.1553C38.0728 54.0153 38.177 53.8298 38.177 53.5986Z" fill="#555555"/>
<path d="M43.5332 53.5986C43.5332 53.3545 43.4404 53.1657 43.2549 53.0322C43.0726 52.8955 42.752 52.7783 42.293 52.6807C41.8372 52.583 41.4743 52.4658 41.2041 52.3291C40.9372 52.1924 40.7386 52.0296 40.6084 51.8408C40.4814 51.652 40.418 51.4274 40.418 51.167C40.418 50.734 40.6003 50.3678 40.9648 50.0684C41.3327 49.7689 41.8014 49.6191 42.3711 49.6191C42.9701 49.6191 43.4551 49.7738 43.8262 50.083C44.2005 50.3923 44.3877 50.7878 44.3877 51.2695H43.4795C43.4795 51.0221 43.3737 50.8089 43.1621 50.6299C42.9538 50.4508 42.6901 50.3613 42.3711 50.3613C42.0423 50.3613 41.7852 50.4329 41.5996 50.5762C41.4141 50.7194 41.3213 50.9066 41.3213 51.1377C41.3213 51.3558 41.4076 51.5202 41.5801 51.6309C41.7526 51.7415 42.0635 51.8473 42.5127 51.9482C42.9652 52.0492 43.3314 52.1696 43.6113 52.3096C43.8913 52.4495 44.098 52.6188 44.2314 52.8174C44.3682 53.0127 44.4365 53.252 44.4365 53.5352C44.4365 54.0072 44.2477 54.3864 43.8701 54.6729C43.4925 54.9561 43.0026 55.0977 42.4004 55.0977C41.9772 55.0977 41.6029 55.0228 41.2773 54.873C40.9518 54.7233 40.6963 54.515 40.5107 54.248C40.3285 53.9779 40.2373 53.6865 40.2373 53.374H41.1406C41.1569 53.6768 41.2773 53.9176 41.502 54.0967C41.7298 54.2725 42.0293 54.3604 42.4004 54.3604C42.7422 54.3604 43.0156 54.292 43.2207 54.1553C43.429 54.0153 43.5332 53.8298 43.5332 53.5986Z" fill="#555555"/>
<path d="M50.2223 53.6768L51.4527 49.7168H52.4195L50.2955 55.8154C49.9667 56.6943 49.4443 57.1338 48.7281 57.1338L48.5572 57.1191L48.2203 57.0557V56.3232L48.4645 56.3428C48.7704 56.3428 49.0081 56.2809 49.1773 56.1572C49.3499 56.0335 49.4915 55.8073 49.6021 55.4785L49.8023 54.9414L47.9176 49.7168H48.9039L50.2223 53.6768Z" fill="#555555"/>
<path d="M53.1127 52.3096C53.1127 51.792 53.2136 51.3265 53.4154 50.9131C53.6205 50.4997 53.9037 50.1807 54.265 49.9561C54.6296 49.7314 55.0447 49.6191 55.5102 49.6191C56.2296 49.6191 56.8106 49.8682 57.2533 50.3662C57.6993 50.8643 57.9223 51.5267 57.9223 52.3535V52.417C57.9223 52.9313 57.823 53.3936 57.6244 53.8037C57.4291 54.2106 57.1475 54.528 56.7797 54.7559C56.4151 54.9837 55.9952 55.0977 55.5199 55.0977C54.8038 55.0977 54.2227 54.8486 53.7768 54.3506C53.334 53.8525 53.1127 53.1934 53.1127 52.373V52.3096ZM54.0209 52.417C54.0209 53.0029 54.156 53.4733 54.4262 53.8281C54.6996 54.1829 55.0642 54.3604 55.5199 54.3604C55.9789 54.3604 56.3435 54.1813 56.6137 53.8232C56.8839 53.4619 57.0189 52.9574 57.0189 52.3096C57.0189 51.7301 56.8806 51.2614 56.6039 50.9033C56.3305 50.542 55.9659 50.3613 55.5102 50.3613C55.0642 50.3613 54.7045 50.5387 54.4311 50.8936C54.1576 51.2484 54.0209 51.7562 54.0209 52.417Z" fill="#555555"/>
<path d="M62.5168 54.4775C62.1652 54.891 61.6493 55.0977 60.9689 55.0977C60.4058 55.0977 59.9761 54.9349 59.6799 54.6094C59.3869 54.2806 59.2388 53.7956 59.2355 53.1543V49.7168H60.1389V53.1299C60.1389 53.9307 60.4644 54.3311 61.1154 54.3311C61.8055 54.3311 62.2645 54.0739 62.4924 53.5596V49.7168H63.3957V55H62.5363L62.5168 54.4775Z" fill="#555555"/>
<path d="M67.5264 50.5273C67.3896 50.5046 67.2415 50.4932 67.082 50.4932C66.4896 50.4932 66.0876 50.7454 65.876 51.25V55H64.9727V49.7168H65.8516L65.8662 50.3271C66.1624 49.8551 66.5824 49.6191 67.126 49.6191C67.3018 49.6191 67.4352 49.6419 67.5264 49.6875V50.5273Z" fill="#555555"/>
<path d="M29.7664 64.3145C29.7664 63.5039 29.9585 62.8529 30.3426 62.3613C30.7267 61.8665 31.2296 61.6191 31.8514 61.6191C32.4699 61.6191 32.9598 61.8307 33.3211 62.2539V59.5H34.2244V67H33.3943L33.3504 66.4336C32.9891 66.8763 32.4861 67.0977 31.8416 67.0977C31.2296 67.0977 30.7299 66.847 30.3426 66.3457C29.9585 65.8444 29.7664 65.1901 29.7664 64.3828V64.3145ZM30.6697 64.417C30.6697 65.016 30.7934 65.4847 31.0408 65.8232C31.2882 66.1618 31.63 66.3311 32.0662 66.3311C32.6391 66.3311 33.0574 66.0739 33.3211 65.5596V63.1328C33.0509 62.6348 32.6359 62.3857 32.076 62.3857C31.6333 62.3857 31.2882 62.5566 31.0408 62.8984C30.7934 63.2402 30.6697 63.7464 30.6697 64.417Z" fill="#555555"/>
<path d="M39.0924 67C39.0403 66.8958 38.998 66.7103 38.9654 66.4434C38.5455 66.8796 38.0442 67.0977 37.4615 67.0977C36.9407 67.0977 36.5126 66.9512 36.1773 66.6582C35.8453 66.362 35.6793 65.9876 35.6793 65.5352C35.6793 64.985 35.8876 64.5586 36.3043 64.2559C36.7242 63.9499 37.3134 63.7969 38.0719 63.7969H38.9508V63.3818C38.9508 63.0661 38.8564 62.8154 38.6676 62.6299C38.4788 62.4411 38.2004 62.3467 37.8326 62.3467C37.5103 62.3467 37.2402 62.4281 37.0221 62.5908C36.804 62.7536 36.6949 62.9505 36.6949 63.1816H35.7867C35.7867 62.918 35.8795 62.6641 36.065 62.4199C36.2538 62.1725 36.5077 61.9772 36.8268 61.834C37.149 61.6908 37.5022 61.6191 37.8863 61.6191C38.495 61.6191 38.9719 61.7721 39.317 62.0781C39.662 62.3809 39.8411 62.7992 39.8541 63.333V65.7646C39.8541 66.2497 39.9159 66.6354 40.0396 66.9219V67H39.0924ZM37.5934 66.3115C37.8766 66.3115 38.1451 66.2383 38.399 66.0918C38.6529 65.9453 38.8368 65.7549 38.9508 65.5205V64.4365H38.2428C37.136 64.4365 36.5826 64.7604 36.5826 65.4082C36.5826 65.6914 36.677 65.9128 36.8658 66.0723C37.0546 66.2318 37.2971 66.3115 37.5934 66.3115Z" fill="#555555"/>
<path d="M42.6957 60.4375V61.7168H43.682V62.415H42.6957V65.6914C42.6957 65.903 42.7396 66.0625 42.8275 66.1699C42.9154 66.2741 43.0652 66.3262 43.2768 66.3262C43.3809 66.3262 43.5242 66.3066 43.7064 66.2676V67C43.4688 67.0651 43.2377 67.0977 43.0131 67.0977C42.6094 67.0977 42.3051 66.9756 42.1 66.7314C41.8949 66.4873 41.7924 66.1406 41.7924 65.6914V62.415H40.8305V61.7168H41.7924V60.4375H42.6957Z" fill="#555555"/>
<path d="M48.2033 67C48.1512 66.8958 48.1089 66.7103 48.0764 66.4434C47.6564 66.8796 47.1551 67.0977 46.5725 67.0977C46.0516 67.0977 45.6236 66.9512 45.2883 66.6582C44.9562 66.362 44.7902 65.9876 44.7902 65.5352C44.7902 64.985 44.9986 64.5586 45.4152 64.2559C45.8352 63.9499 46.4243 63.7969 47.1828 63.7969H48.0617V63.3818C48.0617 63.0661 47.9673 62.8154 47.7785 62.6299C47.5897 62.4411 47.3114 62.3467 46.9436 62.3467C46.6213 62.3467 46.3511 62.4281 46.133 62.5908C45.9149 62.7536 45.8059 62.9505 45.8059 63.1816H44.8977C44.8977 62.918 44.9904 62.6641 45.176 62.4199C45.3648 62.1725 45.6187 61.9772 45.9377 61.834C46.26 61.6908 46.6131 61.6191 46.9973 61.6191C47.606 61.6191 48.0829 61.7721 48.4279 62.0781C48.773 62.3809 48.952 62.7992 48.965 63.333V65.7646C48.965 66.2497 49.0269 66.6354 49.1506 66.9219V67H48.2033ZM46.7043 66.3115C46.9875 66.3115 47.2561 66.2383 47.51 66.0918C47.7639 65.9453 47.9478 65.7549 48.0617 65.5205V64.4365H47.3537C46.2469 64.4365 45.6936 64.7604 45.6936 65.4082C45.6936 65.6914 45.788 65.9128 45.9768 66.0723C46.1656 66.2318 46.4081 66.3115 46.7043 66.3115Z" fill="#555555"/>
<path d="M8.62773 37.7588L8.76445 38.6963L8.96465 37.8516L10.3709 32.8906H11.1619L12.534 37.8516L12.7293 38.7109L12.8807 37.7539L13.9842 32.8906H14.9266L13.2029 40H12.3484L10.8836 34.8193L10.7713 34.2773L10.659 34.8193L9.14043 40H8.28593L6.56718 32.8906H7.50468L8.62773 37.7588Z" fill="#555555"/>
<path d="M18.166 40.0977C17.4499 40.0977 16.8672 39.8633 16.418 39.3945C15.9687 38.9225 15.7441 38.2926 15.7441 37.5049V37.3389C15.7441 36.8148 15.8434 36.3477 16.042 35.9375C16.2438 35.5241 16.5238 35.2018 16.8818 34.9707C17.2432 34.7363 17.6338 34.6191 18.0537 34.6191C18.7406 34.6191 19.2744 34.8454 19.6553 35.2979C20.0361 35.7503 20.2266 36.3981 20.2266 37.2412V37.6172H16.6475C16.6605 38.138 16.8118 38.5596 17.1016 38.8818C17.3945 39.2008 17.7656 39.3604 18.2148 39.3604C18.5339 39.3604 18.804 39.2952 19.0254 39.165C19.2467 39.0348 19.4404 38.8623 19.6064 38.6475L20.1582 39.0771C19.7155 39.7575 19.0514 40.0977 18.166 40.0977ZM18.0537 35.3613C17.6891 35.3613 17.3831 35.4948 17.1357 35.7617C16.8883 36.0254 16.7353 36.3965 16.6768 36.875H19.3232V36.8066C19.2972 36.3477 19.1735 35.9928 18.9521 35.7422C18.7308 35.4883 18.4313 35.3613 18.0537 35.3613Z" fill="#555555"/>
<path d="M26.049 37.417C26.049 38.2243 25.8635 38.8737 25.4924 39.3652C25.1213 39.8535 24.6232 40.0977 23.9982 40.0977C23.3309 40.0977 22.815 39.8617 22.4504 39.3896L22.4064 40H21.5764V32.5H22.4797V35.2979C22.8443 34.8454 23.3472 34.6191 23.9885 34.6191C24.6298 34.6191 25.1327 34.8617 25.4973 35.3467C25.8651 35.8317 26.049 36.4958 26.049 37.3389V37.417ZM25.1457 37.3145C25.1457 36.6992 25.0269 36.224 24.7893 35.8887C24.5516 35.5534 24.2098 35.3857 23.7639 35.3857C23.1682 35.3857 22.7401 35.6624 22.4797 36.2158V38.501C22.7564 39.0544 23.1877 39.3311 23.7736 39.3311C24.2066 39.3311 24.5435 39.1634 24.7844 38.8281C25.0253 38.4928 25.1457 37.9883 25.1457 37.3145Z" fill="#555555"/>
<path d="M34.3395 38.1445H31.3609L30.692 40H29.7252L32.44 32.8906H33.2603L35.9801 40H35.0182L34.3395 38.1445ZM31.6441 37.373H34.0611L32.8502 34.0479L31.6441 37.373Z" fill="#555555"/>
<path d="M37.95 34.7168L37.9793 35.3809C38.3829 34.873 38.9103 34.6191 39.5613 34.6191C40.6779 34.6191 41.241 35.249 41.2508 36.5088V40H40.3475V36.5039C40.3442 36.123 40.2563 35.8415 40.0838 35.6592C39.9145 35.4769 39.6492 35.3857 39.2879 35.3857C38.9949 35.3857 38.7378 35.4639 38.5164 35.6201C38.295 35.7764 38.1225 35.9814 37.9988 36.2354V40H37.0955V34.7168H37.95Z" fill="#555555"/>
<path d="M46.1748 40C46.1227 39.8958 46.0804 39.7103 46.0478 39.4434C45.6279 39.8796 45.1266 40.0977 44.5439 40.0977C44.0231 40.0977 43.595 39.9512 43.2598 39.6582C42.9277 39.362 42.7617 38.9876 42.7617 38.5352C42.7617 37.985 42.97 37.5586 43.3867 37.2559C43.8066 36.9499 44.3958 36.7969 45.1543 36.7969H46.0332V36.3818C46.0332 36.0661 45.9388 35.8154 45.75 35.6299C45.5612 35.4411 45.2829 35.3467 44.915 35.3467C44.5928 35.3467 44.3226 35.4281 44.1045 35.5908C43.8864 35.7536 43.7773 35.9505 43.7773 36.1816H42.8691C42.8691 35.918 42.9619 35.6641 43.1475 35.4199C43.3363 35.1725 43.5902 34.9772 43.9092 34.834C44.2314 34.6908 44.5846 34.6191 44.9687 34.6191C45.5775 34.6191 46.0544 34.7721 46.3994 35.0781C46.7445 35.3809 46.9235 35.7992 46.9365 36.333V38.7646C46.9365 39.2497 46.9984 39.6354 47.1221 39.9219V40H46.1748ZM44.6758 39.3115C44.959 39.3115 45.2275 39.2383 45.4814 39.0918C45.7353 38.9453 45.9193 38.7549 46.0332 38.5205V37.4365H45.3252C44.2184 37.4365 43.665 37.7604 43.665 38.4082C43.665 38.6914 43.7594 38.9128 43.9482 39.0723C44.137 39.2318 44.3796 39.3115 44.6758 39.3115Z" fill="#555555"/>
<path d="M49.634 40H48.7307V32.5H49.634V40Z" fill="#555555"/>
<path d="M53.1127 38.6768L54.3432 34.7168H55.31L53.1859 40.8154C52.8572 41.6943 52.3347 42.1338 51.6186 42.1338L51.4477 42.1191L51.1107 42.0557V41.3232L51.3549 41.3428C51.6609 41.3428 51.8985 41.2809 52.0678 41.1572C52.2403 41.0335 52.3819 40.8073 52.4926 40.4785L52.6928 39.9414L50.808 34.7168H51.7943L53.1127 38.6768Z" fill="#555555"/>
<path d="M57.6461 33.4375V34.7168H58.6324V35.415H57.6461V38.6914C57.6461 38.903 57.69 39.0625 57.7779 39.1699C57.8658 39.2741 58.0156 39.3262 58.2271 39.3262C58.3313 39.3262 58.4745 39.3066 58.6568 39.2676V40C58.4192 40.0651 58.1881 40.0977 57.9635 40.0977C57.5598 40.0977 57.2555 39.9756 57.0504 39.7314C56.8453 39.4873 56.7428 39.1406 56.7428 38.6914V35.415H55.7809V34.7168H56.7428V33.4375H57.6461Z" fill="#555555"/>
<path d="M60.9734 40H60.0701V34.7168H60.9734V40ZM59.9969 33.3154C59.9969 33.1689 60.0408 33.0452 60.1287 32.9443C60.2198 32.8434 60.3533 32.793 60.5291 32.793C60.7049 32.793 60.8383 32.8434 60.9295 32.9443C61.0206 33.0452 61.0662 33.1689 61.0662 33.3154C61.0662 33.4619 61.0206 33.584 60.9295 33.6816C60.8383 33.7793 60.7049 33.8281 60.5291 33.8281C60.3533 33.8281 60.2198 33.7793 60.1287 33.6816C60.0408 33.584 59.9969 33.4619 59.9969 33.3154Z" fill="#555555"/>
<path d="M64.8428 39.3604C65.165 39.3604 65.4466 39.2627 65.6875 39.0674C65.9284 38.8721 66.0618 38.6279 66.0879 38.335H66.9424C66.9261 38.6377 66.8219 38.9258 66.6299 39.1992C66.4378 39.4727 66.1807 39.6908 65.8584 39.8535C65.5394 40.0163 65.2008 40.0977 64.8428 40.0977C64.1234 40.0977 63.5505 39.8584 63.124 39.3799C62.7008 38.8981 62.4893 38.2406 62.4893 37.4072V37.2559C62.4893 36.7415 62.5837 36.2842 62.7725 35.8838C62.9613 35.4834 63.2314 35.1725 63.583 34.9512C63.9378 34.7298 64.3561 34.6191 64.8379 34.6191C65.4303 34.6191 65.9219 34.7965 66.3125 35.1514C66.7064 35.5062 66.9163 35.9668 66.9424 36.5332H66.0879C66.0618 36.1914 65.9316 35.9115 65.6973 35.6934C65.4661 35.472 65.1797 35.3613 64.8379 35.3613C64.3789 35.3613 64.0225 35.5273 63.7686 35.8594C63.5179 36.1882 63.3926 36.665 63.3926 37.29V37.4609C63.3926 38.0697 63.5179 38.5384 63.7686 38.8672C64.0192 39.196 64.3773 39.3604 64.8428 39.3604Z" fill="#555555"/>
<path d="M71.3342 38.5986C71.3342 38.3545 71.2414 38.1657 71.0559 38.0322C70.8736 37.8955 70.5529 37.7783 70.0939 37.6807C69.6382 37.583 69.2753 37.4658 69.0051 37.3291C68.7382 37.1924 68.5396 37.0296 68.4094 36.8408C68.2824 36.652 68.2189 36.4274 68.2189 36.167C68.2189 35.734 68.4012 35.3678 68.7658 35.0684C69.1337 34.7689 69.6024 34.6191 70.1721 34.6191C70.771 34.6191 71.2561 34.7738 71.6272 35.083C72.0015 35.3923 72.1887 35.7878 72.1887 36.2695H71.2805C71.2805 36.0221 71.1747 35.8089 70.9631 35.6299C70.7548 35.4508 70.4911 35.3613 70.1721 35.3613C69.8433 35.3613 69.5861 35.4329 69.4006 35.5762C69.215 35.7194 69.1223 35.9066 69.1223 36.1377C69.1223 36.3558 69.2085 36.5202 69.3811 36.6309C69.5536 36.7415 69.8645 36.8473 70.3137 36.9482C70.7661 37.0492 71.1324 37.1696 71.4123 37.3096C71.6923 37.4495 71.899 37.6188 72.0324 37.8174C72.1691 38.0127 72.2375 38.252 72.2375 38.5352C72.2375 39.0072 72.0487 39.3864 71.6711 39.6729C71.2935 39.9561 70.8036 40.0977 70.2014 40.0977C69.7782 40.0977 69.4038 40.0228 69.0783 39.873C68.7528 39.7233 68.4973 39.515 68.3117 39.248C68.1294 38.9779 68.0383 38.6865 68.0383 38.374H68.9416C68.9579 38.6768 69.0783 38.9176 69.3029 39.0967C69.5308 39.2725 69.8303 39.3604 70.2014 39.3604C70.5432 39.3604 70.8166 39.292 71.0217 39.1553C71.23 39.0153 71.3342 38.8298 71.3342 38.5986Z" fill="#555555"/>
<path d="M30.8934 19.3594H24.2625V26H23.0613V11.7812H31.8699V12.8066H24.2625V18.334H30.8934V19.3594Z" fill="#555555"/>
<path d="M41.5758 26C41.4586 25.668 41.3837 25.1764 41.3512 24.5254C40.941 25.0592 40.4169 25.4727 39.7789 25.7656C39.1474 26.0521 38.4768 26.1953 37.7672 26.1953C36.7516 26.1953 35.928 25.9121 35.2965 25.3457C34.6715 24.7793 34.359 24.0632 34.359 23.1973C34.359 22.1686 34.7854 21.3548 35.6383 20.7559C36.4977 20.1569 37.6923 19.8574 39.2223 19.8574H41.3414V18.6562C41.3414 17.901 41.107 17.3086 40.6383 16.8789C40.176 16.4427 39.499 16.2246 38.607 16.2246C37.7932 16.2246 37.1194 16.4329 36.5855 16.8496C36.0517 17.2663 35.7848 17.7676 35.7848 18.3535L34.6129 18.3438C34.6129 17.5039 35.0035 16.778 35.7848 16.166C36.566 15.5475 37.5263 15.2383 38.6656 15.2383C39.844 15.2383 40.7717 15.5345 41.4488 16.127C42.1324 16.7129 42.484 17.5332 42.5035 18.5879V23.5879C42.5035 24.61 42.6109 25.375 42.8258 25.8828V26H41.5758ZM37.9039 25.1602C38.6852 25.1602 39.3818 24.9714 39.9937 24.5938C40.6122 24.2161 41.0615 23.7116 41.3414 23.0801V20.7559H39.2516C38.0862 20.7689 37.1747 20.9837 36.5172 21.4004C35.8596 21.8105 35.5309 22.377 35.5309 23.0996C35.5309 23.6921 35.749 24.1836 36.1852 24.5742C36.6279 24.9648 37.2008 25.1602 37.9039 25.1602Z" fill="#555555"/>
<path d="M48.1371 26H46.9652V15.4336H48.1371V26ZM46.7602 12.377C46.7602 12.1556 46.8318 11.9701 46.975 11.8203C47.1182 11.6641 47.3135 11.5859 47.5609 11.5859C47.8083 11.5859 48.0036 11.6641 48.1469 11.8203C48.2966 11.9701 48.3715 12.1556 48.3715 12.377C48.3715 12.5983 48.2966 12.7839 48.1469 12.9336C48.0036 13.0833 47.8083 13.1582 47.5609 13.1582C47.3135 13.1582 47.1182 13.0833 46.975 12.9336C46.8318 12.7839 46.7602 12.5983 46.7602 12.377Z" fill="#555555"/>
<path d="M57.4035 16.4297C57.1561 16.3841 56.8924 16.3613 56.6125 16.3613C55.8833 16.3613 55.2648 16.5664 54.757 16.9766C54.2557 17.3802 53.8977 17.9694 53.6828 18.7441V26H52.5207V15.4336H53.6633L53.6828 17.1133C54.3013 15.8633 55.2941 15.2383 56.6613 15.2383C56.9868 15.2383 57.244 15.2806 57.4328 15.3652L57.4035 16.4297Z" fill="#555555"/>
</svg>
