<svg width="178" height="37" viewBox="0 0 178 37" fill="none" xmlns="http://www.w3.org/2000/svg">
<rect width="178" height="37" rx="2" fill="#555555"/>
<rect x="0.5" y="19.5" width="177" height="17" rx="1.5" fill="#EEEEEE" stroke="#555555"/>
<path d="M12.2261 28.959H8.94971L8.21387 31H7.15039L10.1367 23.1797H11.0391L14.0308 31H12.9727L12.2261 28.959ZM9.26123 28.1104H11.9199L10.5879 24.4526L9.26123 28.1104Z" fill="#555555"/>
<path d="M17.0388 30.2964C17.3933 30.2964 17.703 30.189 17.968 29.9741C18.233 29.7593 18.3798 29.4907 18.4084 29.1685H19.3484C19.3305 29.5015 19.2159 29.8184 19.0046 30.1191C18.7933 30.4199 18.5105 30.6598 18.156 30.8389C17.8051 31.0179 17.4327 31.1074 17.0388 31.1074C16.2474 31.1074 15.6172 30.8442 15.1482 30.3179C14.6827 29.7879 14.4499 29.0646 14.4499 28.1479V27.9814C14.4499 27.4157 14.5538 26.9126 14.7614 26.4722C14.9691 26.0317 15.2663 25.6898 15.653 25.4463C16.0433 25.2028 16.5035 25.0811 17.0334 25.0811C17.6851 25.0811 18.2258 25.2762 18.6555 25.6665C19.0888 26.0568 19.3197 26.5635 19.3484 27.1865H18.4084C18.3798 26.8105 18.2365 26.5026 17.9787 26.2627C17.7245 26.0192 17.4094 25.8975 17.0334 25.8975C16.5285 25.8975 16.1364 26.0801 15.8571 26.4453C15.5814 26.807 15.4436 27.3315 15.4436 28.019V28.207C15.4436 28.8766 15.5814 29.3923 15.8571 29.7539C16.1329 30.1156 16.5267 30.2964 17.0388 30.2964Z" fill="#555555"/>
<path d="M22.5766 30.2964C22.9311 30.2964 23.2408 30.189 23.5058 29.9741C23.7708 29.7593 23.9176 29.4907 23.9462 29.1685H24.8862C24.8683 29.5015 24.7537 29.8184 24.5424 30.1191C24.3312 30.4199 24.0483 30.6598 23.6938 30.8389C23.3429 31.0179 22.9705 31.1074 22.5766 31.1074C21.7853 31.1074 21.1551 30.8442 20.686 30.3179C20.2205 29.7879 19.9877 29.0646 19.9877 28.1479V27.9814C19.9877 27.4157 20.0916 26.9126 20.2993 26.4722C20.5069 26.0317 20.8041 25.6898 21.1909 25.4463C21.5812 25.2028 22.0413 25.0811 22.5712 25.0811C23.2229 25.0811 23.7636 25.2762 24.1933 25.6665C24.6266 26.0568 24.8575 26.5635 24.8862 27.1865H23.9462C23.9176 26.8105 23.7744 26.5026 23.5165 26.2627C23.2623 26.0192 22.9472 25.8975 22.5712 25.8975C22.0663 25.8975 21.6743 26.0801 21.395 26.4453C21.1192 26.807 20.9814 27.3315 20.9814 28.019V28.207C20.9814 28.8766 21.1192 29.3923 21.395 29.7539C21.6707 30.1156 22.0646 30.2964 22.5766 30.2964Z" fill="#555555"/>
<path d="M28.195 31.1074C27.4072 31.1074 26.7663 30.8496 26.2721 30.334C25.778 29.8148 25.5309 29.1219 25.5309 28.2554V28.0728C25.5309 27.4963 25.6401 26.9824 25.8586 26.5312C26.0806 26.0765 26.3885 25.722 26.7824 25.4678C27.1798 25.21 27.6095 25.0811 28.0714 25.0811C28.827 25.0811 29.4142 25.3299 29.8332 25.8276C30.2521 26.3254 30.4616 27.0379 30.4616 27.9653V28.3789H26.5246C26.5389 28.9518 26.7054 29.4155 27.0241 29.77C27.3463 30.1209 27.7546 30.2964 28.2487 30.2964C28.5996 30.2964 28.8968 30.2248 29.1403 30.0815C29.3838 29.9383 29.5968 29.7485 29.7795 29.5122L30.3864 29.9849C29.8994 30.7332 29.1689 31.1074 28.195 31.1074ZM28.0714 25.8975C27.6704 25.8975 27.3338 26.0443 27.0617 26.3379C26.7895 26.6279 26.6213 27.0361 26.5568 27.5625H29.4679V27.4873C29.4393 26.9824 29.3032 26.5921 29.0597 26.3164C28.8162 26.0371 28.4868 25.8975 28.0714 25.8975ZM28.5548 22.75H29.758L28.3185 24.3291H27.5182L28.5548 22.75Z" fill="#555555"/>
<path d="M31.1547 28.0459C31.1547 27.1543 31.3659 26.4382 31.7885 25.8975C32.211 25.3532 32.7642 25.0811 33.4481 25.0811C34.1285 25.0811 34.6674 25.3138 35.0648 25.7793V22.75H36.0585V31H35.1454L35.0971 30.377C34.6996 30.8639 34.1464 31.1074 33.4374 31.1074C32.7642 31.1074 32.2146 30.8317 31.7885 30.2803C31.3659 29.7288 31.1547 29.0091 31.1547 28.1211V28.0459ZM32.1483 28.1587C32.1483 28.8175 32.2844 29.3332 32.5565 29.7056C32.8287 30.078 33.2046 30.2642 33.6845 30.2642C34.3147 30.2642 34.7748 29.9813 35.0648 29.4155V26.7461C34.7676 26.1982 34.3111 25.9243 33.6952 25.9243C33.2082 25.9243 32.8287 26.1123 32.5565 26.4883C32.2844 26.8643 32.1483 27.4211 32.1483 28.1587Z" fill="#555555"/>
<path d="M39.797 31.1074C39.0092 31.1074 38.3683 30.8496 37.8741 30.334C37.38 29.8148 37.1329 29.1219 37.1329 28.2554V28.0728C37.1329 27.4963 37.2421 26.9824 37.4605 26.5312C37.6826 26.0765 37.9905 25.722 38.3844 25.4678C38.7818 25.21 39.2115 25.0811 39.6734 25.0811C40.429 25.0811 41.0162 25.3299 41.4352 25.8276C41.8541 26.3254 42.0636 27.0379 42.0636 27.9653V28.3789H38.1266C38.1409 28.9518 38.3074 29.4155 38.6261 29.77C38.9483 30.1209 39.3565 30.2964 39.8507 30.2964C40.2016 30.2964 40.4988 30.2248 40.7423 30.0815C40.9858 29.9383 41.1988 29.7485 41.3814 29.5122L41.9884 29.9849C41.5014 30.7332 40.7709 31.1074 39.797 31.1074ZM39.6734 25.8975C39.2724 25.8975 38.9358 26.0443 38.6637 26.3379C38.3915 26.6279 38.2232 27.0361 38.1588 27.5625H41.0699V27.4873C41.0413 26.9824 40.9052 26.5921 40.6617 26.3164C40.4182 26.0371 40.0888 25.8975 39.6734 25.8975Z" fill="#555555"/>
<path d="M45.8074 26.0801C45.6571 26.055 45.4941 26.0425 45.3187 26.0425C44.667 26.0425 44.2248 26.32 43.992 26.875V31H42.9984V25.1885H43.9652L43.9813 25.8599C44.3071 25.3407 44.769 25.0811 45.367 25.0811C45.5604 25.0811 45.7072 25.1061 45.8074 25.1562V26.0801Z" fill="#555555"/>
<path d="M52.6023 31C52.545 30.8854 52.4985 30.6813 52.4627 30.3877C52.0007 30.8675 51.4493 31.1074 50.8084 31.1074C50.2354 31.1074 49.7646 30.9463 49.3958 30.624C49.0305 30.2982 48.8479 29.8864 48.8479 29.3887C48.8479 28.7835 49.0771 28.3145 49.5354 27.9814C49.9973 27.6449 50.6454 27.4766 51.4797 27.4766H52.4465V27.02C52.4465 26.6727 52.3427 26.397 52.135 26.1929C51.9273 25.9852 51.6212 25.8813 51.2166 25.8813C50.8621 25.8813 50.5649 25.9709 50.325 26.1499C50.0851 26.3289 49.9651 26.5456 49.9651 26.7998H48.9661C48.9661 26.5098 49.0681 26.2305 49.2722 25.9619C49.4799 25.6898 49.7592 25.4749 50.1101 25.3174C50.4646 25.1598 50.8531 25.0811 51.2756 25.0811C51.9452 25.0811 52.4698 25.2493 52.8494 25.5859C53.2289 25.9189 53.4259 26.3791 53.4402 26.9663V29.6411C53.4402 30.1746 53.5082 30.599 53.6443 30.9141V31H52.6023ZM50.9534 30.2427C51.2649 30.2427 51.5603 30.1621 51.8396 30.001C52.1189 29.8398 52.3212 29.6304 52.4465 29.3726V28.1802H51.6677C50.4503 28.1802 49.8416 28.5365 49.8416 29.249C49.8416 29.5605 49.9454 29.804 50.1531 29.9795C50.3608 30.1549 50.6275 30.2427 50.9534 30.2427ZM51.9524 24.3291H51.0984L49.7127 22.75H50.9104L51.9524 24.3291Z" fill="#555555"/>
<path d="M59.2038 29.6519L60.6433 25.1885H61.6584L59.5744 31H58.8171L56.7116 25.1885H57.7268L59.2038 29.6519Z" fill="#555555"/>
<path d="M62.0453 28.0405C62.0453 27.4712 62.1563 26.9591 62.3783 26.5044C62.6039 26.0496 62.9155 25.6987 63.3129 25.4517C63.714 25.2046 64.1705 25.0811 64.6825 25.0811C65.4739 25.0811 66.113 25.355 66.6 25.9028C67.0906 26.4507 67.3359 27.1794 67.3359 28.0889V28.1587C67.3359 28.7244 67.2266 29.2329 67.0082 29.6841C66.7934 30.1317 66.4836 30.4808 66.079 30.7314C65.678 30.9821 65.2161 31.1074 64.6933 31.1074C63.9055 31.1074 63.2664 30.8335 62.7758 30.2856C62.2888 29.7378 62.0453 29.0127 62.0453 28.1104V28.0405ZM63.0444 28.1587C63.0444 28.8032 63.193 29.3206 63.4902 29.7109C63.7909 30.1012 64.192 30.2964 64.6933 30.2964C65.1982 30.2964 65.5992 30.0994 65.8964 29.7056C66.1936 29.3081 66.3422 28.7531 66.3422 28.0405C66.3422 27.4032 66.19 26.8875 65.8857 26.4937C65.5849 26.0962 65.1838 25.8975 64.6825 25.8975C64.192 25.8975 63.7963 26.0926 63.4955 26.4829C63.1947 26.8732 63.0444 27.4318 63.0444 28.1587Z" fill="#555555"/>
<path d="M71.7457 29.4585C71.7457 29.1899 71.6437 28.9823 71.4396 28.8354C71.2391 28.6851 70.8864 28.5562 70.3815 28.4487C69.8802 28.3413 69.4809 28.2124 69.1837 28.062C68.8901 27.9116 68.6717 27.7326 68.5285 27.5249C68.3888 27.3172 68.319 27.0701 68.319 26.7837C68.319 26.3075 68.5195 25.9046 68.9205 25.5752C69.3252 25.2458 69.8408 25.0811 70.4674 25.0811C71.1263 25.0811 71.6598 25.2511 72.068 25.5913C72.4798 25.9315 72.6857 26.3665 72.6857 26.8965H71.6867C71.6867 26.6243 71.5703 26.3898 71.3375 26.1929C71.1084 25.9959 70.8183 25.8975 70.4674 25.8975C70.1058 25.8975 69.8229 25.9762 69.6188 26.1338C69.4147 26.2913 69.3126 26.4972 69.3126 26.7515C69.3126 26.9914 69.4075 27.1722 69.5973 27.2939C69.7871 27.4157 70.129 27.5321 70.6232 27.6431C71.1209 27.7541 71.5237 27.8866 71.8317 28.0405C72.1396 28.1945 72.367 28.3807 72.5138 28.5991C72.6642 28.814 72.7394 29.0771 72.7394 29.3887C72.7394 29.9079 72.5317 30.325 72.1163 30.6401C71.701 30.9517 71.1621 31.1074 70.4996 31.1074C70.0342 31.1074 69.6224 31.0251 69.2643 30.8604C68.9062 30.6956 68.6251 30.4665 68.421 30.1729C68.2205 29.8757 68.1203 29.5552 68.1203 29.2114H69.1139C69.1318 29.5444 69.2643 29.8094 69.5114 30.0063C69.762 30.1997 70.0914 30.2964 70.4996 30.2964C70.8756 30.2964 71.1764 30.2212 71.402 30.0708C71.6312 29.9168 71.7457 29.7127 71.7457 29.4585Z" fill="#555555"/>
<path d="M76.0806 28.0459C76.0806 27.1543 76.2919 26.4382 76.7144 25.8975C77.137 25.3532 77.6902 25.0811 78.3741 25.0811C79.0544 25.0811 79.5933 25.3138 79.9908 25.7793V22.75H80.9845V31H80.0714L80.023 30.377C79.6256 30.8639 79.0723 31.1074 78.3634 31.1074C77.6902 31.1074 77.1405 30.8317 76.7144 30.2803C76.2919 29.7288 76.0806 29.0091 76.0806 28.1211V28.0459ZM77.0743 28.1587C77.0743 28.8175 77.2104 29.3332 77.4825 29.7056C77.7546 30.078 78.1306 30.2642 78.6104 30.2642C79.2406 30.2642 79.7008 29.9813 79.9908 29.4155V26.7461C79.6936 26.1982 79.2371 25.9243 78.6212 25.9243C78.1342 25.9243 77.7546 26.1123 77.4825 26.4883C77.2104 26.8643 77.0743 27.4211 77.0743 28.1587Z" fill="#555555"/>
<path d="M82.0481 28.0405C82.0481 27.4712 82.1591 26.9591 82.3811 26.5044C82.6067 26.0496 82.9183 25.6987 83.3157 25.4517C83.7168 25.2046 84.1733 25.0811 84.6853 25.0811C85.4767 25.0811 86.1158 25.355 86.6028 25.9028C87.0934 26.4507 87.3387 27.1794 87.3387 28.0889V28.1587C87.3387 28.7244 87.2295 29.2329 87.011 29.6841C86.7962 30.1317 86.4865 30.4808 86.0818 30.7314C85.6808 30.9821 85.2189 31.1074 84.6961 31.1074C83.9083 31.1074 83.2692 30.8335 82.7786 30.2856C82.2916 29.7378 82.0481 29.0127 82.0481 28.1104V28.0405ZM83.0472 28.1587C83.0472 28.8032 83.1958 29.3206 83.493 29.7109C83.7937 30.1012 84.1948 30.2964 84.6961 30.2964C85.201 30.2964 85.602 30.0994 85.8992 29.7056C86.1964 29.3081 86.345 28.7531 86.345 28.0405C86.345 27.4032 86.1928 26.8875 85.8885 26.4937C85.5877 26.0962 85.1867 25.8975 84.6853 25.8975C84.1948 25.8975 83.7991 26.0926 83.4983 26.4829C83.1976 26.8732 83.0472 27.4318 83.0472 28.1587Z" fill="#555555"/>
<path d="M89.3047 25.1885L89.3369 25.9189C89.7809 25.3604 90.361 25.0811 91.0772 25.0811C92.3054 25.0811 92.9248 25.7739 92.9356 27.1597V31H91.9419V27.1543C91.9383 26.7354 91.8417 26.4256 91.6519 26.2251C91.4657 26.0246 91.1739 25.9243 90.7764 25.9243C90.4541 25.9243 90.1712 26.0103 89.9278 26.1821C89.6843 26.354 89.4945 26.5796 89.3584 26.8589V31H88.3648V25.1885H89.3047Z" fill="#555555"/>
<path d="M95.154 25.1885L95.1863 25.9189C95.6303 25.3604 96.2104 25.0811 96.9265 25.0811C98.1547 25.0811 98.7742 25.7739 98.7849 27.1597V31H97.7913V27.1543C97.7877 26.7354 97.691 26.4256 97.5012 26.2251C97.315 26.0246 97.0232 25.9243 96.6257 25.9243C96.3035 25.9243 96.0206 26.0103 95.7771 26.1821C95.5336 26.354 95.3438 26.5796 95.2078 26.8589V31H94.2141V25.1885H95.154Z" fill="#555555"/>
<path d="M102.475 31.1074C101.687 31.1074 101.046 30.8496 100.552 30.334C100.058 29.8148 99.811 29.1219 99.811 28.2554V28.0728C99.811 27.4963 99.9202 26.9824 100.139 26.5312C100.361 26.0765 100.669 25.722 101.062 25.4678C101.46 25.21 101.89 25.0811 102.352 25.0811C103.107 25.0811 103.694 25.3299 104.113 25.8276C104.532 26.3254 104.742 27.0379 104.742 27.9653V28.3789H100.805C100.819 28.9518 100.985 29.4155 101.304 29.77C101.626 30.1209 102.035 30.2964 102.529 30.2964C102.88 30.2964 103.177 30.2248 103.42 30.0815C103.664 29.9383 103.877 29.7485 104.06 29.5122L104.666 29.9849C104.179 30.7332 103.449 31.1074 102.475 31.1074ZM102.352 25.8975C101.95 25.8975 101.614 26.0443 101.342 26.3379C101.07 26.6279 100.901 27.0361 100.837 27.5625H103.748V27.4873C103.719 26.9824 103.583 26.5921 103.34 26.3164C103.096 26.0371 102.767 25.8975 102.352 25.8975ZM102.835 22.75H104.038L102.599 24.3291H101.798L102.835 22.75Z" fill="#555555"/>
<path d="M108.088 31.1074C107.3 31.1074 106.659 30.8496 106.165 30.334C105.671 29.8148 105.424 29.1219 105.424 28.2554V28.0728C105.424 27.4963 105.533 26.9824 105.752 26.5312C105.974 26.0765 106.282 25.722 106.675 25.4678C107.073 25.21 107.503 25.0811 107.965 25.0811C108.72 25.0811 109.307 25.3299 109.726 25.8276C110.145 26.3254 110.355 27.0379 110.355 27.9653V28.3789H106.418C106.432 28.9518 106.598 29.4155 106.917 29.77C107.239 30.1209 107.648 30.2964 108.142 30.2964C108.493 30.2964 108.79 30.2248 109.033 30.0815C109.277 29.9383 109.49 29.7485 109.673 29.5122L110.279 29.9849C109.792 30.7332 109.062 31.1074 108.088 31.1074ZM107.965 25.8975C107.563 25.8975 107.227 26.0443 106.955 26.3379C106.683 26.6279 106.514 27.0361 106.45 27.5625H109.361V27.4873C109.332 26.9824 109.196 26.5921 108.953 26.3164C108.709 26.0371 108.38 25.8975 107.965 25.8975Z" fill="#555555"/>
<path d="M114.673 29.4585C114.673 29.1899 114.571 28.9823 114.367 28.8354C114.167 28.6851 113.814 28.5562 113.309 28.4487C112.808 28.3413 112.408 28.2124 112.111 28.062C111.818 27.9116 111.599 27.7326 111.456 27.5249C111.316 27.3172 111.246 27.0701 111.246 26.7837C111.246 26.3075 111.447 25.9046 111.848 25.5752C112.253 25.2458 112.768 25.0811 113.395 25.0811C114.054 25.0811 114.587 25.2511 114.996 25.5913C115.407 25.9315 115.613 26.3665 115.613 26.8965H114.614C114.614 26.6243 114.498 26.3898 114.265 26.1929C114.036 25.9959 113.746 25.8975 113.395 25.8975C113.033 25.8975 112.75 25.9762 112.546 26.1338C112.342 26.2913 112.24 26.4972 112.24 26.7515C112.24 26.9914 112.335 27.1722 112.525 27.2939C112.715 27.4157 113.057 27.5321 113.551 27.6431C114.048 27.7541 114.451 27.8866 114.759 28.0405C115.067 28.1945 115.294 28.3807 115.441 28.5991C115.592 28.814 115.667 29.0771 115.667 29.3887C115.667 29.9079 115.459 30.325 115.044 30.6401C114.628 30.9517 114.09 31.1074 113.427 31.1074C112.962 31.1074 112.55 31.0251 112.192 30.8604C111.834 30.6956 111.553 30.4665 111.349 30.1729C111.148 29.8757 111.048 29.5552 111.048 29.2114H112.041C112.059 29.5444 112.192 29.8094 112.439 30.0063C112.69 30.1997 113.019 30.2964 113.427 30.2964C113.803 30.2964 114.104 30.2212 114.329 30.0708C114.559 29.9168 114.673 29.7127 114.673 29.4585Z" fill="#555555"/>
<path d="M119.008 28.0459C119.008 27.1543 119.219 26.4382 119.642 25.8975C120.064 25.3532 120.618 25.0811 121.302 25.0811C121.982 25.0811 122.521 25.3138 122.918 25.7793V22.75H123.912V31H122.999L122.951 30.377C122.553 30.8639 122 31.1074 121.291 31.1074C120.618 31.1074 120.068 30.8317 119.642 30.2803C119.219 29.7288 119.008 29.0091 119.008 28.1211V28.0459ZM120.002 28.1587C120.002 28.8175 120.138 29.3332 120.41 29.7056C120.682 30.078 121.058 30.2642 121.538 30.2642C122.168 30.2642 122.628 29.9813 122.918 29.4155V26.7461C122.621 26.1982 122.165 25.9243 121.549 25.9243C121.062 25.9243 120.682 26.1123 120.41 26.4883C120.138 26.8643 120.002 27.4211 120.002 28.1587Z" fill="#555555"/>
<path d="M125.846 23.3462L125.733 25.3228H125.04L125.045 22.75H125.846V23.3462Z" fill="#555555"/>
<path d="M130.53 30.4253C130.143 30.88 129.575 31.1074 128.827 31.1074C128.207 31.1074 127.735 30.9284 127.409 30.5703C127.087 30.2087 126.924 29.6751 126.92 28.9697V25.1885H127.914V28.9429C127.914 29.8237 128.272 30.2642 128.988 30.2642C129.747 30.2642 130.252 29.9813 130.503 29.4155V25.1885H131.496V31H130.551L130.53 30.4253Z" fill="#555555"/>
<path d="M134.139 23.7812V25.1885H135.224V25.9565H134.139V29.5605C134.139 29.7933 134.188 29.9688 134.284 30.0869C134.381 30.2015 134.546 30.2588 134.778 30.2588C134.893 30.2588 135.05 30.2373 135.251 30.1943V31C134.99 31.0716 134.735 31.1074 134.488 31.1074C134.044 31.1074 133.709 30.9731 133.484 30.7046C133.258 30.436 133.146 30.0547 133.146 29.5605V25.9565H132.087V25.1885H133.146V23.7812H134.139Z" fill="#555555"/>
<path d="M137.249 31H136.256V25.1885H137.249V31ZM136.175 23.647C136.175 23.4858 136.223 23.3498 136.32 23.2388C136.42 23.1278 136.567 23.0723 136.76 23.0723C136.954 23.0723 137.101 23.1278 137.201 23.2388C137.301 23.3498 137.351 23.4858 137.351 23.647C137.351 23.8081 137.301 23.9424 137.201 24.0498C137.101 24.1572 136.954 24.2109 136.76 24.2109C136.567 24.2109 136.42 24.1572 136.32 24.0498C136.223 23.9424 136.175 23.8081 136.175 23.647Z" fill="#555555"/>
<path d="M139.704 31H138.71V22.75H139.704V31Z" fill="#555555"/>
<path d="M142.159 31H141.165V25.1885H142.159V31ZM141.085 23.647C141.085 23.4858 141.133 23.3498 141.23 23.2388C141.33 23.1278 141.477 23.0723 141.67 23.0723C141.863 23.0723 142.01 23.1278 142.111 23.2388C142.211 23.3498 142.261 23.4858 142.261 23.647C142.261 23.8081 142.211 23.9424 142.111 24.0498C142.01 24.1572 141.863 24.2109 141.67 24.2109C141.477 24.2109 141.33 24.1572 141.23 24.0498C141.133 23.9424 141.085 23.8081 141.085 23.647Z" fill="#555555"/>
<path d="M146.918 29.4585C146.918 29.1899 146.816 28.9823 146.612 28.8354C146.411 28.6851 146.058 28.5562 145.554 28.4487C145.052 28.3413 144.653 28.2124 144.356 28.062C144.062 27.9116 143.844 27.7326 143.701 27.5249C143.561 27.3172 143.491 27.0701 143.491 26.7837C143.491 26.3075 143.692 25.9046 144.093 25.5752C144.497 25.2458 145.013 25.0811 145.64 25.0811C146.298 25.0811 146.832 25.2511 147.24 25.5913C147.652 25.9315 147.858 26.3665 147.858 26.8965H146.859C146.859 26.6243 146.742 26.3898 146.51 26.1929C146.28 25.9959 145.99 25.8975 145.64 25.8975C145.278 25.8975 144.995 25.9762 144.791 26.1338C144.587 26.2913 144.485 26.4972 144.485 26.7515C144.485 26.9914 144.58 27.1722 144.769 27.2939C144.959 27.4157 145.301 27.5321 145.795 27.6431C146.293 27.7541 146.696 27.8866 147.004 28.0405C147.312 28.1945 147.539 28.3807 147.686 28.5991C147.836 28.814 147.911 29.0771 147.911 29.3887C147.911 29.9079 147.704 30.325 147.288 30.6401C146.873 30.9517 146.334 31.1074 145.672 31.1074C145.206 31.1074 144.794 31.0251 144.436 30.8604C144.078 30.6956 143.797 30.4665 143.593 30.1729C143.393 29.8757 143.292 29.5552 143.292 29.2114H144.286C144.304 29.5444 144.436 29.8094 144.683 30.0063C144.934 30.1997 145.264 30.2964 145.672 30.2964C146.048 30.2964 146.349 30.2212 146.574 30.0708C146.803 29.9168 146.918 29.7127 146.918 29.4585Z" fill="#555555"/>
<path d="M152.574 31C152.517 30.8854 152.47 30.6813 152.434 30.3877C151.972 30.8675 151.421 31.1074 150.78 31.1074C150.207 31.1074 149.736 30.9463 149.367 30.624C149.002 30.2982 148.819 29.8864 148.819 29.3887C148.819 28.7835 149.049 28.3145 149.507 27.9814C149.969 27.6449 150.617 27.4766 151.451 27.4766H152.418V27.02C152.418 26.6727 152.314 26.397 152.107 26.1929C151.899 25.9852 151.593 25.8813 151.188 25.8813C150.834 25.8813 150.536 25.9709 150.296 26.1499C150.057 26.3289 149.937 26.5456 149.937 26.7998H148.938C148.938 26.5098 149.04 26.2305 149.244 25.9619C149.451 25.6898 149.731 25.4749 150.082 25.3174C150.436 25.1598 150.825 25.0811 151.247 25.0811C151.917 25.0811 152.441 25.2493 152.821 25.5859C153.2 25.9189 153.397 26.3791 153.412 26.9663V29.6411C153.412 30.1746 153.48 30.599 153.616 30.9141V31H152.574ZM150.925 30.2427C151.236 30.2427 151.532 30.1621 151.811 30.001C152.09 29.8398 152.293 29.6304 152.418 29.3726V28.1802H151.639C150.422 28.1802 149.813 28.5365 149.813 29.249C149.813 29.5605 149.917 29.804 150.125 29.9795C150.332 30.1549 150.599 30.2427 150.925 30.2427Z" fill="#555555"/>
<path d="M156.097 23.7812V25.1885H157.182V25.9565H156.097V29.5605C156.097 29.7933 156.146 29.9688 156.242 30.0869C156.339 30.2015 156.504 30.2588 156.737 30.2588C156.851 30.2588 157.009 30.2373 157.209 30.1943V31C156.948 31.0716 156.694 31.1074 156.447 31.1074C156.003 31.1074 155.668 30.9731 155.442 30.7046C155.217 30.436 155.104 30.0547 155.104 29.5605V25.9565H154.046V25.1885H155.104V23.7812H156.097Z" fill="#555555"/>
<path d="M159.208 31H158.214V25.1885H159.208V31ZM158.133 23.647C158.133 23.4858 158.182 23.3498 158.278 23.2388C158.379 23.1278 158.525 23.0723 158.719 23.0723C158.912 23.0723 159.059 23.1278 159.159 23.2388C159.259 23.3498 159.31 23.4858 159.31 23.647C159.31 23.8081 159.259 23.9424 159.159 24.0498C159.059 24.1572 158.912 24.2109 158.719 24.2109C158.525 24.2109 158.379 24.1572 158.278 24.0498C158.182 23.9424 158.133 23.8081 158.133 23.647Z" fill="#555555"/>
<path d="M160.32 28.0405C160.32 27.4712 160.431 26.9591 160.653 26.5044C160.878 26.0496 161.19 25.6987 161.587 25.4517C161.988 25.2046 162.445 25.0811 162.957 25.0811C163.748 25.0811 164.387 25.355 164.874 25.9028C165.365 26.4507 165.61 27.1794 165.61 28.0889V28.1587C165.61 28.7244 165.501 29.2329 165.282 29.6841C165.068 30.1317 164.758 30.4808 164.353 30.7314C163.952 30.9821 163.49 31.1074 162.968 31.1074C162.18 31.1074 161.541 30.8335 161.05 30.2856C160.563 29.7378 160.32 29.0127 160.32 28.1104V28.0405ZM161.319 28.1587C161.319 28.8032 161.467 29.3206 161.764 29.7109C162.065 30.1012 162.466 30.2964 162.968 30.2964C163.472 30.2964 163.873 30.0994 164.171 29.7056C164.468 29.3081 164.616 28.7531 164.616 28.0405C164.616 27.4032 164.464 26.8875 164.16 26.4937C163.859 26.0962 163.458 25.8975 162.957 25.8975C162.466 25.8975 162.071 26.0926 161.77 26.4829C161.469 26.8732 161.319 27.4318 161.319 28.1587Z" fill="#555555"/>
<path d="M167.576 25.1885L167.608 25.9189C168.052 25.3604 168.632 25.0811 169.349 25.0811C170.577 25.0811 171.196 25.7739 171.207 27.1597V31H170.213V27.1543C170.21 26.7354 170.113 26.4256 169.923 26.2251C169.737 26.0246 169.445 25.9243 169.048 25.9243C168.726 25.9243 168.443 26.0103 168.199 26.1821C167.956 26.354 167.766 26.5796 167.63 26.8589V31H166.636V25.1885H167.576Z" fill="#555555"/>
<path d="M35.45 10.959H32.1736L31.4378 13H30.3743L33.3606 5.17969H34.263L37.2547 13H36.1965L35.45 10.959ZM32.4851 10.1104H35.1438L33.8118 6.45264L32.4851 10.1104Z" fill="#EEEEEE"/>
<path d="M39.4216 7.18848L39.4538 7.91895C39.8978 7.36035 40.4779 7.08105 41.194 7.08105C42.4222 7.08105 43.0417 7.77393 43.0524 9.15967V13H42.0588V9.1543C42.0552 8.73535 41.9585 8.42562 41.7687 8.2251C41.5825 8.02458 41.2907 7.92432 40.8932 7.92432C40.571 7.92432 40.2881 8.01025 40.0446 8.18213C39.8011 8.354 39.6113 8.57959 39.4753 8.85889V13H38.4816V7.18848H39.4216Z" fill="#EEEEEE"/>
<path d="M48.4689 13C48.4116 12.8854 48.365 12.6813 48.3292 12.3877C47.8673 12.8675 47.3159 13.1074 46.6749 13.1074C46.102 13.1074 45.6311 12.9463 45.2623 12.624C44.8971 12.2982 44.7145 11.8864 44.7145 11.3887C44.7145 10.7835 44.9436 10.3145 45.402 9.98145C45.8639 9.64486 46.512 9.47656 47.3463 9.47656H48.3131V9.02002C48.3131 8.67269 48.2093 8.39697 48.0016 8.19287C47.7939 7.98519 47.4877 7.88135 47.0831 7.88135C46.7286 7.88135 46.4314 7.97087 46.1915 8.1499C45.9516 8.32894 45.8316 8.54557 45.8316 8.7998H44.8326C44.8326 8.50977 44.9347 8.23047 45.1388 7.96191C45.3465 7.68978 45.6258 7.47493 45.9767 7.31738C46.3312 7.15983 46.7197 7.08105 47.1422 7.08105C47.8118 7.08105 48.3364 7.24935 48.7159 7.58594C49.0955 7.91895 49.2924 8.37907 49.3067 8.96631V11.6411C49.3067 12.1746 49.3748 12.599 49.5108 12.9141V13H48.4689ZM46.8199 12.2427C47.1315 12.2427 47.4269 12.1621 47.7062 12.001C47.9855 11.8398 48.1878 11.6304 48.3131 11.3726V10.1802H47.5343C46.3168 10.1802 45.7081 10.5365 45.7081 11.249C45.7081 11.5605 45.812 11.804 46.0196 11.9795C46.2273 12.1549 46.4941 12.2427 46.8199 12.2427Z" fill="#EEEEEE"/>
<path d="M52.274 13H51.2803V4.75H52.274V13Z" fill="#EEEEEE"/>
<path d="M56.1005 11.5444L57.454 7.18848H58.5175L56.1811 13.897C55.8194 14.8638 55.2447 15.3472 54.457 15.3472L54.269 15.3311L53.8984 15.2612V14.4556L54.1669 14.4771C54.5035 14.4771 54.7649 14.409 54.9511 14.2729C55.1409 14.1369 55.2967 13.888 55.4184 13.5264L55.6386 12.9355L53.5654 7.18848H54.6503L56.1005 11.5444Z" fill="#EEEEEE"/>
<path d="M63.1229 11.4585C63.1229 11.1899 63.0209 10.9823 62.8168 10.8354C62.6162 10.6851 62.2635 10.5562 61.7587 10.4487C61.2574 10.3413 60.8581 10.2124 60.5609 10.062C60.2673 9.91162 60.0489 9.73258 59.9056 9.5249C59.766 9.31722 59.6962 9.07015 59.6962 8.78369C59.6962 8.30745 59.8967 7.90462 60.2977 7.5752C60.7023 7.24577 61.218 7.08105 61.8446 7.08105C62.5034 7.08105 63.037 7.25114 63.4452 7.59131C63.857 7.93148 64.0629 8.36654 64.0629 8.89648H63.0638C63.0638 8.62435 62.9475 8.38981 62.7147 8.19287C62.4855 7.99593 62.1955 7.89746 61.8446 7.89746C61.4829 7.89746 61.2001 7.97624 60.996 8.13379C60.7919 8.29134 60.6898 8.49723 60.6898 8.75146C60.6898 8.99137 60.7847 9.1722 60.9745 9.29395C61.1643 9.41569 61.5062 9.53206 62.0004 9.64307C62.4981 9.75407 62.9009 9.88656 63.2089 10.0405C63.5168 10.1945 63.7442 10.3807 63.891 10.5991C64.0414 10.814 64.1166 11.0771 64.1166 11.3887C64.1166 11.9079 63.9089 12.325 63.4935 12.6401C63.0782 12.9517 62.5393 13.1074 61.8768 13.1074C61.4113 13.1074 60.9995 13.0251 60.6415 12.8604C60.2834 12.6956 60.0023 12.4665 59.7982 12.1729C59.5977 11.8757 59.4974 11.5552 59.4974 11.2114H60.4911C60.509 11.5444 60.6415 11.8094 60.8885 12.0063C61.1392 12.1997 61.4686 12.2964 61.8768 12.2964C62.2528 12.2964 62.5536 12.2212 62.7792 12.0708C63.0083 11.9168 63.1229 11.7127 63.1229 11.4585Z" fill="#EEEEEE"/>
<path d="M68.1526 13.1074C67.3649 13.1074 66.7239 12.8496 66.2298 12.334C65.7356 11.8148 65.4886 11.1219 65.4886 10.2554V10.0728C65.4886 9.49626 65.5978 8.98242 65.8162 8.53125C66.0382 8.0765 66.3461 7.72201 66.74 7.46777C67.1375 7.20996 67.5672 7.08105 68.0291 7.08105C68.7846 7.08105 69.3719 7.32992 69.7908 7.82764C70.2098 8.32536 70.4192 9.03792 70.4192 9.96533V10.3789H66.4822C66.4965 10.9518 66.663 11.4155 66.9817 11.77C67.304 12.1209 67.7122 12.2964 68.2063 12.2964C68.5572 12.2964 68.8544 12.2248 69.0979 12.0815C69.3414 11.9383 69.5545 11.7485 69.7371 11.5122L70.344 11.9849C69.857 12.7332 69.1266 13.1074 68.1526 13.1074ZM68.0291 7.89746C67.628 7.89746 67.2915 8.04427 67.0193 8.33789C66.7472 8.62793 66.5789 9.03613 66.5144 9.5625H69.4256V9.4873C69.3969 8.98242 69.2609 8.59212 69.0174 8.31641C68.7739 8.03711 68.4445 7.89746 68.0291 7.89746Z" fill="#EEEEEE"/>
<path d="M75.2878 11.4585C75.2878 11.1899 75.1857 10.9823 74.9816 10.8354C74.7811 10.6851 74.4284 10.5562 73.9235 10.4487C73.4222 10.3413 73.023 10.2124 72.7258 10.062C72.4322 9.91162 72.2137 9.73258 72.0705 9.5249C71.9309 9.31722 71.861 9.07015 71.861 8.78369C71.861 8.30745 72.0616 7.90462 72.4626 7.5752C72.8672 7.24577 73.3829 7.08105 74.0095 7.08105C74.6683 7.08105 75.2019 7.25114 75.6101 7.59131C76.0218 7.93148 76.2277 8.36654 76.2277 8.89648H75.2287C75.2287 8.62435 75.1123 8.38981 74.8796 8.19287C74.6504 7.99593 74.3604 7.89746 74.0095 7.89746C73.6478 7.89746 73.3649 7.97624 73.1608 8.13379C72.9567 8.29134 72.8547 8.49723 72.8547 8.75146C72.8547 8.99137 72.9496 9.1722 73.1394 9.29395C73.3291 9.41569 73.6711 9.53206 74.1652 9.64307C74.663 9.75407 75.0658 9.88656 75.3737 10.0405C75.6817 10.1945 75.9091 10.3807 76.0559 10.5991C76.2063 10.814 76.2815 11.0771 76.2815 11.3887C76.2815 11.9079 76.0738 12.325 75.6584 12.6401C75.243 12.9517 74.7041 13.1074 74.0417 13.1074C73.5762 13.1074 73.1644 13.0251 72.8064 12.8604C72.4483 12.6956 72.1672 12.4665 71.9631 12.1729C71.7626 11.8757 71.6623 11.5552 71.6623 11.2114H72.656C72.6739 11.5444 72.8064 11.8094 73.0534 12.0063C73.3041 12.1997 73.6335 12.2964 74.0417 12.2964C74.4177 12.2964 74.7185 12.2212 74.944 12.0708C75.1732 11.9168 75.2878 11.7127 75.2878 11.4585Z" fill="#EEEEEE"/>
<path d="M82.8067 10.5347L82.9571 11.5659L83.1773 10.6367L84.7242 5.17969H85.5943L87.1036 10.6367L87.3184 11.582L87.4849 10.5293L88.6988 5.17969H89.7354L87.8394 13H86.8995L85.2881 7.30127L85.1646 6.70508L85.0411 7.30127L83.3707 13H82.4307L80.5401 5.17969H81.5713L82.8067 10.5347Z" fill="#EEEEEE"/>
<path d="M93.2988 13.1074C92.511 13.1074 91.8701 12.8496 91.3759 12.334C90.8818 11.8148 90.6347 11.1219 90.6347 10.2554V10.0728C90.6347 9.49626 90.7439 8.98242 90.9624 8.53125C91.1844 8.0765 91.4923 7.72201 91.8862 7.46777C92.2837 7.20996 92.7133 7.08105 93.1753 7.08105C93.9308 7.08105 94.518 7.32992 94.937 7.82764C95.3559 8.32536 95.5654 9.03792 95.5654 9.96533V10.3789H91.6284C91.6427 10.9518 91.8092 11.4155 92.1279 11.77C92.4502 12.1209 92.8584 12.2964 93.3525 12.2964C93.7034 12.2964 94.0006 12.2248 94.2441 12.0815C94.4876 11.9383 94.7007 11.7485 94.8833 11.5122L95.4902 11.9849C95.0032 12.7332 94.2728 13.1074 93.2988 13.1074ZM93.1753 7.89746C92.7742 7.89746 92.4376 8.04427 92.1655 8.33789C91.8934 8.62793 91.7251 9.03613 91.6606 9.5625H94.5717V9.4873C94.5431 8.98242 94.407 8.59212 94.1635 8.31641C93.9201 8.03711 93.5906 7.89746 93.1753 7.89746Z" fill="#EEEEEE"/>
<path d="M101.97 10.1587C101.97 11.0467 101.766 11.7611 101.358 12.3018C100.95 12.8389 100.402 13.1074 99.7142 13.1074C98.9802 13.1074 98.4126 12.8478 98.0116 12.3286L97.9633 13H97.0502V4.75H98.0438V7.82764C98.4449 7.32992 98.9981 7.08105 99.7035 7.08105C100.409 7.08105 100.962 7.34782 101.363 7.88135C101.768 8.41488 101.97 9.14535 101.97 10.0728V10.1587ZM100.976 10.0459C100.976 9.36914 100.846 8.84635 100.584 8.47754C100.323 8.10872 99.947 7.92432 99.4564 7.92432C98.8011 7.92432 98.3303 8.22868 98.0438 8.8374V11.3511C98.3482 11.9598 98.8226 12.2642 99.4672 12.2642C99.9434 12.2642 100.314 12.0798 100.579 11.7109C100.844 11.3421 100.976 10.7871 100.976 10.0459Z" fill="#EEEEEE"/>
<path d="M109.027 13.1074C108.239 13.1074 107.598 12.8496 107.104 12.334C106.61 11.8148 106.363 11.1219 106.363 10.2554V10.0728C106.363 9.49626 106.472 8.98242 106.691 8.53125C106.913 8.0765 107.221 7.72201 107.614 7.46777C108.012 7.20996 108.442 7.08105 108.904 7.08105C109.659 7.08105 110.246 7.32992 110.665 7.82764C111.084 8.32536 111.294 9.03792 111.294 9.96533V10.3789H107.357C107.371 10.9518 107.537 11.4155 107.856 11.77C108.178 12.1209 108.587 12.2964 109.081 12.2964C109.432 12.2964 109.729 12.2248 109.972 12.0815C110.216 11.9383 110.429 11.7485 110.612 11.5122L111.218 11.9849C110.731 12.7332 110.001 13.1074 109.027 13.1074ZM108.904 7.89746C108.502 7.89746 108.166 8.04427 107.894 8.33789C107.622 8.62793 107.453 9.03613 107.389 9.5625H110.3V9.4873C110.271 8.98242 110.135 8.59212 109.892 8.31641C109.648 8.03711 109.319 7.89746 108.904 7.89746ZM109.387 4.75H110.59L109.151 6.3291H108.35L109.387 4.75Z" fill="#EEEEEE"/>
<path d="M114.127 5.78125V7.18848H115.212V7.95654H114.127V11.5605C114.127 11.7933 114.175 11.9688 114.272 12.0869C114.368 12.2015 114.533 12.2588 114.766 12.2588C114.88 12.2588 115.038 12.2373 115.238 12.1943V13C114.977 13.0716 114.723 13.1074 114.476 13.1074C114.032 13.1074 113.697 12.9731 113.471 12.7046C113.246 12.436 113.133 12.0547 113.133 11.5605V7.95654H112.075V7.18848H113.133V5.78125H114.127Z" fill="#EEEEEE"/>
<path d="M117.787 13H116.793V7.18848H117.787V13ZM116.712 5.64697C116.712 5.48584 116.761 5.34977 116.857 5.23877C116.958 5.12777 117.105 5.07227 117.298 5.07227C117.491 5.07227 117.638 5.12777 117.738 5.23877C117.839 5.34977 117.889 5.48584 117.889 5.64697C117.889 5.80811 117.839 5.94238 117.738 6.0498C117.638 6.15723 117.491 6.21094 117.298 6.21094C117.105 6.21094 116.958 6.15723 116.857 6.0498C116.761 5.94238 116.712 5.80811 116.712 5.64697Z" fill="#EEEEEE"/>
<path d="M119.47 10.0459C119.47 9.13281 119.68 8.4113 120.099 7.88135C120.518 7.34782 121.08 7.08105 121.785 7.08105C122.473 7.08105 123.015 7.31201 123.413 7.77393L123.456 7.18848H124.369V15.2344H123.375V12.4629C122.974 12.8926 122.44 13.1074 121.774 13.1074C121.073 13.1074 120.512 12.8353 120.093 12.291C119.678 11.7432 119.47 11.0181 119.47 10.1157V10.0459ZM120.464 10.1587C120.464 10.8247 120.604 11.3475 120.883 11.7271C121.166 12.1066 121.545 12.2964 122.021 12.2964C122.612 12.2964 123.063 12.035 123.375 11.5122V8.66553C123.06 8.15348 122.612 7.89746 122.032 7.89746C121.552 7.89746 121.171 8.08903 120.888 8.47217C120.605 8.85173 120.464 9.4139 120.464 10.1587Z" fill="#EEEEEE"/>
<path d="M129.882 12.4253C129.495 12.88 128.927 13.1074 128.179 13.1074C127.56 13.1074 127.087 12.9284 126.761 12.5703C126.439 12.2087 126.276 11.6751 126.272 10.9697V7.18848H127.266V10.9429C127.266 11.8237 127.624 12.2642 128.34 12.2642C129.099 12.2642 129.604 11.9813 129.855 11.4155V7.18848H130.849V13H129.903L129.882 12.4253Z" fill="#EEEEEE"/>
<path d="M135.105 13.1074C134.317 13.1074 133.676 12.8496 133.182 12.334C132.688 11.8148 132.441 11.1219 132.441 10.2554V10.0728C132.441 9.49626 132.55 8.98242 132.768 8.53125C132.99 8.0765 133.298 7.72201 133.692 7.46777C134.09 7.20996 134.519 7.08105 134.981 7.08105C135.737 7.08105 136.324 7.32992 136.743 7.82764C137.162 8.32536 137.371 9.03792 137.371 9.96533V10.3789H133.434C133.449 10.9518 133.615 11.4155 133.934 11.77C134.256 12.1209 134.664 12.2964 135.159 12.2964C135.509 12.2964 135.807 12.2248 136.05 12.0815C136.294 11.9383 136.507 11.7485 136.689 11.5122L137.296 11.9849C136.809 12.7332 136.079 13.1074 135.105 13.1074ZM134.981 7.89746C134.58 7.89746 134.244 8.04427 133.972 8.33789C133.699 8.62793 133.531 9.03613 133.467 9.5625H136.378V9.4873C136.349 8.98242 136.213 8.59212 135.97 8.31641C135.726 8.03711 135.397 7.89746 134.981 7.89746Z" fill="#EEEEEE"/>
<path d="M142.24 11.4585C142.24 11.1899 142.138 10.9823 141.934 10.8354C141.733 10.6851 141.381 10.5562 140.876 10.4487C140.374 10.3413 139.975 10.2124 139.678 10.062C139.384 9.91162 139.166 9.73258 139.023 9.5249C138.883 9.31722 138.813 9.07015 138.813 8.78369C138.813 8.30745 139.014 7.90462 139.415 7.5752C139.819 7.24577 140.335 7.08105 140.962 7.08105C141.621 7.08105 142.154 7.25114 142.562 7.59131C142.974 7.93148 143.18 8.36654 143.18 8.89648H142.181C142.181 8.62435 142.065 8.38981 141.832 8.19287C141.603 7.99593 141.313 7.89746 140.962 7.89746C140.6 7.89746 140.317 7.97624 140.113 8.13379C139.909 8.29134 139.807 8.49723 139.807 8.75146C139.807 8.99137 139.902 9.1722 140.092 9.29395C140.281 9.41569 140.623 9.53206 141.117 9.64307C141.615 9.75407 142.018 9.88656 142.326 10.0405C142.634 10.1945 142.861 10.3807 143.008 10.5991C143.158 10.814 143.234 11.0771 143.234 11.3887C143.234 11.9079 143.026 12.325 142.611 12.6401C142.195 12.9517 141.656 13.1074 140.994 13.1074C140.528 13.1074 140.117 13.0251 139.759 12.8604C139.4 12.6956 139.119 12.4665 138.915 12.1729C138.715 11.8757 138.614 11.5552 138.614 11.2114H139.608C139.626 11.5444 139.759 11.8094 140.006 12.0063C140.256 12.1997 140.586 12.2964 140.994 12.2964C141.37 12.2964 141.671 12.2212 141.896 12.0708C142.125 11.9168 142.24 11.7127 142.24 11.4585Z" fill="#EEEEEE"/>
</svg>
