<svg width="105" height="37" viewBox="0 0 105 37" fill="none" xmlns="http://www.w3.org/2000/svg">
<path d="M0 2C0 0.895432 0.895431 0 2 0H103C104.105 0 105 0.89543 105 2V35C105 36.1046 104.105 37 103 37H2C0.89543 37 0 36.1046 0 35V2Z" fill="#555555"/>
<path d="M0 21C0 19.8954 0.895431 19 2 19H103C104.105 19 105 19.8954 105 21V35C105 36.1046 104.105 37 103 37H2C0.89543 37 0 36.1046 0 35V21Z" fill="#EEEEEE"/>
<path d="M9.80273 23.8726L7.21387 31H6.15576L9.13672 23.1797H9.81885L9.80273 23.8726ZM11.9727 31L9.37842 23.8726L9.3623 23.1797H10.0444L13.0361 31H11.9727ZM11.8384 28.105V28.9536H7.44482V28.105H11.8384Z" fill="#555555"/>
<path d="M15.9288 30.291C16.1651 30.291 16.3835 30.2427 16.5841 30.146C16.7846 30.0493 16.9493 29.9168 17.0782 29.7485C17.2071 29.5767 17.2805 29.3815 17.2984 29.1631H18.2437C18.2258 29.5068 18.1095 29.8273 17.8946 30.1245C17.6833 30.4181 17.4058 30.6562 17.0621 30.8389C16.7183 31.0179 16.3406 31.1074 15.9288 31.1074C15.4919 31.1074 15.1106 31.0304 14.7847 30.8765C14.4625 30.7225 14.1939 30.5112 13.9791 30.2427C13.7678 29.9741 13.6085 29.6662 13.5011 29.3188C13.3972 28.9679 13.3453 28.5973 13.3453 28.207V27.9814C13.3453 27.5911 13.3972 27.2223 13.5011 26.875C13.6085 26.5241 13.7678 26.2144 13.9791 25.9458C14.1939 25.6772 14.4625 25.466 14.7847 25.312C15.1106 25.158 15.4919 25.0811 15.9288 25.0811C16.3835 25.0811 16.781 25.1742 17.1212 25.3604C17.4613 25.543 17.7281 25.7936 17.9215 26.1123C18.1184 26.4274 18.2258 26.7855 18.2437 27.1865H17.2984C17.2805 26.9466 17.2125 26.73 17.0943 26.5366C16.9797 26.3433 16.8222 26.1893 16.6217 26.0747C16.4247 25.9565 16.1938 25.8975 15.9288 25.8975C15.6244 25.8975 15.3684 25.9583 15.1607 26.0801C14.9566 26.1982 14.7937 26.3594 14.672 26.5635C14.5538 26.764 14.4679 26.9878 14.4141 27.2349C14.364 27.4784 14.3389 27.7272 14.3389 27.9814V28.207C14.3389 28.4613 14.364 28.7119 14.4141 28.959C14.4643 29.2061 14.5484 29.4299 14.6666 29.6304C14.7883 29.8309 14.9513 29.992 15.1554 30.1138C15.363 30.2319 15.6208 30.291 15.9288 30.291Z" fill="#555555"/>
<path d="M21.4425 31.1074C21.0379 31.1074 20.6709 31.0394 20.3415 30.9033C20.0156 30.7637 19.7345 30.5685 19.4982 30.3179C19.2655 30.0672 19.0864 29.77 18.9611 29.4263C18.8358 29.0825 18.7731 28.7065 18.7731 28.2983V28.0728C18.7731 27.6001 18.8429 27.1794 18.9826 26.8105C19.1222 26.4382 19.312 26.123 19.5519 25.8652C19.7918 25.6074 20.064 25.4123 20.3683 25.2798C20.6727 25.1473 20.9878 25.0811 21.3136 25.0811C21.729 25.0811 22.0871 25.1527 22.3879 25.2959C22.6922 25.4391 22.9411 25.6396 23.1344 25.8975C23.3278 26.1517 23.471 26.4525 23.5641 26.7998C23.6572 27.1436 23.7038 27.5195 23.7038 27.9277V28.3735H19.3639V27.5625H22.7101V27.4873C22.6958 27.2295 22.6421 26.9788 22.549 26.7354C22.4595 26.4919 22.3162 26.2913 22.1193 26.1338C21.9224 25.9762 21.6538 25.8975 21.3136 25.8975C21.088 25.8975 20.8804 25.9458 20.6906 26.0425C20.5008 26.1356 20.3379 26.2752 20.2018 26.4614C20.0657 26.6476 19.9601 26.875 19.8849 27.1436C19.8097 27.4121 19.7721 27.7218 19.7721 28.0728V28.2983C19.7721 28.5741 19.8097 28.8337 19.8849 29.0771C19.9637 29.3171 20.0765 29.5283 20.2233 29.7109C20.3737 29.8936 20.5545 30.0368 20.7658 30.1406C20.9806 30.2445 21.2241 30.2964 21.4963 30.2964C21.8472 30.2964 22.1444 30.2248 22.3879 30.0815C22.6313 29.9383 22.8444 29.7467 23.027 29.5068L23.6286 29.9849C23.5032 30.1746 23.3439 30.3555 23.1505 30.5273C22.9572 30.6992 22.7191 30.8389 22.4362 30.9463C22.1569 31.0537 21.8257 31.1074 21.4425 31.1074Z" fill="#555555"/>
<path d="M27.9177 29.4585C27.9177 29.3153 27.8855 29.1828 27.821 29.061C27.7602 28.9357 27.633 28.8229 27.4397 28.7227C27.2499 28.6188 26.9635 28.5293 26.5803 28.4541C26.258 28.3861 25.9662 28.3055 25.7048 28.2124C25.447 28.1193 25.2268 28.0065 25.0442 27.874C24.8651 27.7415 24.7273 27.5858 24.6306 27.4067C24.5339 27.2277 24.4856 27.0182 24.4856 26.7783C24.4856 26.5492 24.5357 26.3325 24.636 26.1284C24.7398 25.9243 24.8848 25.7435 25.071 25.5859C25.2608 25.4284 25.4882 25.3049 25.7532 25.2153C26.0181 25.1258 26.3135 25.0811 26.6394 25.0811C27.1049 25.0811 27.5024 25.1634 27.8318 25.3281C28.1612 25.4928 28.4136 25.7131 28.5891 25.9888C28.7646 26.2609 28.8523 26.5635 28.8523 26.8965H27.8586C27.8586 26.7354 27.8103 26.5796 27.7136 26.4292C27.6205 26.2752 27.4827 26.1481 27.3 26.0479C27.121 25.9476 26.9008 25.8975 26.6394 25.8975C26.3637 25.8975 26.1399 25.9404 25.968 26.0264C25.7997 26.1087 25.6762 26.2144 25.5974 26.3433C25.5222 26.4722 25.4846 26.6082 25.4846 26.7515C25.4846 26.8589 25.5025 26.9556 25.5383 27.0415C25.5777 27.1239 25.6457 27.2008 25.7424 27.2725C25.8391 27.3405 25.9752 27.4049 26.1506 27.4658C26.3261 27.5267 26.5499 27.5876 26.822 27.6484C27.2982 27.7559 27.6903 27.8848 27.9983 28.0352C28.3062 28.1855 28.5354 28.37 28.6858 28.5884C28.8362 28.8068 28.9114 29.0718 28.9114 29.3833C28.9114 29.6375 28.8577 29.8703 28.7502 30.0815C28.6464 30.2928 28.4942 30.4754 28.2937 30.6294C28.0968 30.7798 27.8604 30.8979 27.5847 30.9839C27.3126 31.0662 27.0064 31.1074 26.6663 31.1074C26.1542 31.1074 25.7209 31.0161 25.3664 30.8335C25.012 30.6509 24.7434 30.4146 24.5608 30.1245C24.3782 29.8345 24.2869 29.5283 24.2869 29.2061H25.2859C25.3002 29.4782 25.379 29.6948 25.5222 29.856C25.6654 30.0135 25.8409 30.1263 26.0486 30.1943C26.2563 30.2588 26.4621 30.291 26.6663 30.291C26.9384 30.291 27.1658 30.2552 27.3484 30.1836C27.5346 30.112 27.676 30.0135 27.7727 29.8882C27.8694 29.7629 27.9177 29.6196 27.9177 29.4585Z" fill="#555555"/>
<path d="M33.2703 29.4585C33.2703 29.3153 33.2381 29.1828 33.1737 29.061C33.1128 28.9357 32.9857 28.8229 32.7923 28.7227C32.6025 28.6188 32.3161 28.5293 31.9329 28.4541C31.6107 28.3861 31.3188 28.3055 31.0574 28.2124C30.7996 28.1193 30.5794 28.0065 30.3968 27.874C30.2178 27.7415 30.0799 27.5858 29.9832 27.4067C29.8865 27.2277 29.8382 27.0182 29.8382 26.7783C29.8382 26.5492 29.8883 26.3325 29.9886 26.1284C30.0924 25.9243 30.2375 25.7435 30.4237 25.5859C30.6134 25.4284 30.8408 25.3049 31.1058 25.2153C31.3708 25.1258 31.6662 25.0811 31.992 25.0811C32.4575 25.0811 32.855 25.1634 33.1844 25.3281C33.5138 25.4928 33.7663 25.7131 33.9417 25.9888C34.1172 26.2609 34.2049 26.5635 34.2049 26.8965H33.2113C33.2113 26.7354 33.1629 26.5796 33.0662 26.4292C32.9731 26.2752 32.8353 26.1481 32.6527 26.0479C32.4736 25.9476 32.2534 25.8975 31.992 25.8975C31.7163 25.8975 31.4925 25.9404 31.3206 26.0264C31.1523 26.1087 31.0288 26.2144 30.95 26.3433C30.8748 26.4722 30.8372 26.6082 30.8372 26.7515C30.8372 26.8589 30.8551 26.9556 30.8909 27.0415C30.9303 27.1239 30.9984 27.2008 31.095 27.2725C31.1917 27.3405 31.3278 27.4049 31.5032 27.4658C31.6787 27.5267 31.9025 27.5876 32.1746 27.6484C32.6509 27.7559 33.043 27.8848 33.3509 28.0352C33.6588 28.1855 33.888 28.37 34.0384 28.5884C34.1888 28.8068 34.264 29.0718 34.264 29.3833C34.264 29.6375 34.2103 29.8703 34.1029 30.0815C33.999 30.2928 33.8468 30.4754 33.6463 30.6294C33.4494 30.7798 33.213 30.8979 32.9373 30.9839C32.6652 31.0662 32.359 31.1074 32.0189 31.1074C31.5068 31.1074 31.0736 31.0161 30.7191 30.8335C30.3646 30.6509 30.096 30.4146 29.9134 30.1245C29.7308 29.8345 29.6395 29.5283 29.6395 29.2061H30.6385C30.6528 29.4782 30.7316 29.6948 30.8748 29.856C31.0181 30.0135 31.1935 30.1263 31.4012 30.1943C31.6089 30.2588 31.8148 30.291 32.0189 30.291C32.291 30.291 32.5184 30.2552 32.701 30.1836C32.8872 30.112 33.0286 30.0135 33.1253 29.8882C33.222 29.7629 33.2703 29.6196 33.2703 29.4585Z" fill="#555555"/>
<path d="M38.6659 30.0063V27.0146C38.6659 26.7855 38.6194 26.5868 38.5263 26.4185C38.4367 26.2466 38.3007 26.1141 38.1181 26.021C37.9354 25.9279 37.7099 25.8813 37.4413 25.8813C37.1907 25.8813 36.9704 25.9243 36.7807 26.0103C36.5945 26.0962 36.4477 26.209 36.3402 26.3486C36.2364 26.4883 36.1845 26.6387 36.1845 26.7998H35.1908C35.1908 26.5921 35.2445 26.3862 35.352 26.1821C35.4594 25.978 35.6133 25.7936 35.8139 25.6289C36.018 25.4606 36.2615 25.3281 36.5443 25.2314C36.8308 25.1312 37.1495 25.0811 37.5004 25.0811C37.9229 25.0811 38.2953 25.1527 38.6176 25.2959C38.9434 25.4391 39.1977 25.6558 39.3803 25.9458C39.5665 26.2323 39.6596 26.5921 39.6596 27.0254V29.7324C39.6596 29.9258 39.6757 30.1317 39.7079 30.3501C39.7437 30.5685 39.7956 30.7565 39.8637 30.9141V31H38.827C38.7769 30.8854 38.7375 30.7332 38.7089 30.5435C38.6802 30.3501 38.6659 30.1711 38.6659 30.0063ZM38.8378 27.4766L38.8485 28.1748H37.8441C37.5613 28.1748 37.3088 28.1981 37.0868 28.2446C36.8648 28.2876 36.6786 28.3538 36.5282 28.4434C36.3778 28.5329 36.2632 28.6457 36.1845 28.7817C36.1057 28.9142 36.0663 29.07 36.0663 29.249C36.0663 29.4316 36.1075 29.5981 36.1898 29.7485C36.2722 29.8989 36.3957 30.0189 36.5604 30.1084C36.7287 30.1943 36.9346 30.2373 37.1781 30.2373C37.4825 30.2373 37.751 30.1729 37.9838 30.0439C38.2165 29.915 38.4009 29.7575 38.537 29.5713C38.6767 29.3851 38.7519 29.2043 38.7626 29.0288L39.1869 29.5068C39.1618 29.6572 39.0938 29.8237 38.9828 30.0063C38.8718 30.189 38.7232 30.3644 38.537 30.5327C38.3544 30.6974 38.136 30.8353 37.8817 30.9463C37.6311 31.0537 37.3482 31.1074 37.0331 31.1074C36.6392 31.1074 36.2937 31.0304 35.9965 30.8765C35.7029 30.7225 35.4737 30.5166 35.309 30.2588C35.1479 29.9974 35.0673 29.7056 35.0673 29.3833C35.0673 29.0718 35.1282 28.7979 35.2499 28.5615C35.3716 28.3216 35.5471 28.1229 35.7763 27.9653C36.0054 27.8042 36.2812 27.6825 36.6034 27.6001C36.9257 27.5177 37.2855 27.4766 37.683 27.4766H38.8378Z" fill="#555555"/>
<path d="M41.8862 26.1016V31H40.8926V25.1885H41.8594L41.8862 26.1016ZM43.7016 25.1562L43.6963 26.0801C43.6139 26.0622 43.5351 26.0514 43.4599 26.0479C43.3883 26.0407 43.306 26.0371 43.2129 26.0371C42.9837 26.0371 42.7814 26.0729 42.6059 26.1445C42.4305 26.2161 42.2819 26.3164 42.1601 26.4453C42.0384 26.5742 41.9417 26.7282 41.8701 26.9072C41.8021 27.0827 41.7573 27.276 41.7358 27.4873L41.4565 27.6484C41.4565 27.2975 41.4905 26.9681 41.5586 26.6602C41.6302 26.3522 41.7394 26.0801 41.8862 25.8438C42.033 25.6038 42.2192 25.4176 42.4448 25.2852C42.674 25.1491 42.9461 25.0811 43.2612 25.0811C43.3328 25.0811 43.4152 25.09 43.5083 25.1079C43.6014 25.1222 43.6658 25.1383 43.7016 25.1562Z" fill="#555555"/>
<path d="M50.0724 29.4585C50.0724 29.3153 50.0402 29.1828 49.9757 29.061C49.9149 28.9357 49.7877 28.8229 49.5944 28.7227C49.4046 28.6188 49.1181 28.5293 48.735 28.4541C48.4127 28.3861 48.1209 28.3055 47.8595 28.2124C47.6017 28.1193 47.3815 28.0065 47.1989 27.874C47.0198 27.7415 46.882 27.5858 46.7853 27.4067C46.6886 27.2277 46.6403 27.0182 46.6403 26.7783C46.6403 26.5492 46.6904 26.3325 46.7907 26.1284C46.8945 25.9243 47.0395 25.7435 47.2257 25.5859C47.4155 25.4284 47.6429 25.3049 47.9079 25.2153C48.1728 25.1258 48.4682 25.0811 48.7941 25.0811C49.2596 25.0811 49.657 25.1634 49.9865 25.3281C50.3159 25.4928 50.5683 25.7131 50.7438 25.9888C50.9192 26.2609 51.007 26.5635 51.007 26.8965H50.0133C50.0133 26.7354 49.965 26.5796 49.8683 26.4292C49.7752 26.2752 49.6373 26.1481 49.4547 26.0479C49.2757 25.9476 49.0555 25.8975 48.7941 25.8975C48.5184 25.8975 48.2946 25.9404 48.1227 26.0264C47.9544 26.1087 47.8309 26.2144 47.7521 26.3433C47.6769 26.4722 47.6393 26.6082 47.6393 26.7515C47.6393 26.8589 47.6572 26.9556 47.693 27.0415C47.7324 27.1239 47.8004 27.2008 47.8971 27.2725C47.9938 27.3405 48.1299 27.4049 48.3053 27.4658C48.4808 27.5267 48.7046 27.5876 48.9767 27.6484C49.4529 27.7559 49.845 27.8848 50.153 28.0352C50.4609 28.1855 50.6901 28.37 50.8405 28.5884C50.9909 28.8068 51.0661 29.0718 51.0661 29.3833C51.0661 29.6375 51.0123 29.8703 50.9049 30.0815C50.8011 30.2928 50.6489 30.4754 50.4484 30.6294C50.2514 30.7798 50.0151 30.8979 49.7394 30.9839C49.4673 31.0662 49.1611 31.1074 48.8209 31.1074C48.3089 31.1074 47.8756 31.0161 47.5211 30.8335C47.1666 30.6509 46.8981 30.4146 46.7155 30.1245C46.5329 29.8345 46.4415 29.5283 46.4415 29.2061H47.4406C47.4549 29.4782 47.5337 29.6948 47.6769 29.856C47.8201 30.0135 47.9956 30.1263 48.2033 30.1943C48.4109 30.2588 48.6168 30.291 48.8209 30.291C49.0931 30.291 49.3204 30.2552 49.5031 30.1836C49.6893 30.112 49.8307 30.0135 49.9274 29.8882C50.0241 29.7629 50.0724 29.6196 50.0724 29.4585Z" fill="#555555"/>
<path d="M54.4529 31.1074C54.0482 31.1074 53.6812 31.0394 53.3518 30.9033C53.0259 30.7637 52.7448 30.5685 52.5085 30.3179C52.2758 30.0672 52.0967 29.77 51.9714 29.4263C51.8461 29.0825 51.7834 28.7065 51.7834 28.2983V28.0728C51.7834 27.6001 51.8532 27.1794 51.9929 26.8105C52.1325 26.4382 52.3223 26.123 52.5622 25.8652C52.8021 25.6074 53.0743 25.4123 53.3786 25.2798C53.683 25.1473 53.9981 25.0811 54.3239 25.0811C54.7393 25.0811 55.0974 25.1527 55.3982 25.2959C55.7025 25.4391 55.9514 25.6396 56.1447 25.8975C56.3381 26.1517 56.4813 26.4525 56.5744 26.7998C56.6675 27.1436 56.7141 27.5195 56.7141 27.9277V28.3735H52.3742V27.5625H55.7204V27.4873C55.7061 27.2295 55.6524 26.9788 55.5593 26.7354C55.4698 26.4919 55.3265 26.2913 55.1296 26.1338C54.9327 25.9762 54.6641 25.8975 54.3239 25.8975C54.0984 25.8975 53.8907 25.9458 53.7009 26.0425C53.5111 26.1356 53.3482 26.2752 53.2121 26.4614C53.0761 26.6476 52.9704 26.875 52.8952 27.1436C52.82 27.4121 52.7824 27.7218 52.7824 28.0728V28.2983C52.7824 28.5741 52.82 28.8337 52.8952 29.0771C52.974 29.3171 53.0868 29.5283 53.2336 29.7109C53.384 29.8936 53.5648 30.0368 53.7761 30.1406C53.9909 30.2445 54.2344 30.2964 54.5066 30.2964C54.8575 30.2964 55.1547 30.2248 55.3982 30.0815C55.6417 29.9383 55.8547 29.7467 56.0373 29.5068L56.6389 29.9849C56.5136 30.1746 56.3542 30.3555 56.1609 30.5273C55.9675 30.6992 55.7294 30.8389 55.4465 30.9463C55.1672 31.0537 54.836 31.1074 54.4529 31.1074Z" fill="#555555"/>
<path d="M61.0999 29.6572V25.1885H62.0989V31H61.1482L61.0999 29.6572ZM61.2879 28.4326L61.7015 28.4219C61.7015 28.8086 61.6603 29.1667 61.5779 29.4961C61.4992 29.8219 61.3702 30.1048 61.1912 30.3447C61.0122 30.5846 60.7776 30.7726 60.4876 30.9087C60.1976 31.0412 59.8449 31.1074 59.4295 31.1074C59.1466 31.1074 58.887 31.0662 58.6507 30.9839C58.4179 30.9015 58.2174 30.7744 58.0491 30.6025C57.8808 30.4307 57.7501 30.2069 57.657 29.9312C57.5675 29.6554 57.5228 29.3242 57.5228 28.9375V25.1885H58.5164V28.9482C58.5164 29.2096 58.5451 29.4263 58.6023 29.5981C58.6632 29.7664 58.7438 29.9007 58.844 30.001C58.9479 30.0977 59.0625 30.1657 59.1878 30.2051C59.3167 30.2445 59.4492 30.2642 59.5853 30.2642C60.0078 30.2642 60.3426 30.1836 60.5896 30.0225C60.8367 29.8577 61.014 29.6375 61.1214 29.3618C61.2324 29.0825 61.2879 28.7728 61.2879 28.4326Z" fill="#555555"/>
<path d="M66.6674 29.4585C66.6674 29.3153 66.6351 29.1828 66.5707 29.061C66.5098 28.9357 66.3827 28.8229 66.1893 28.7227C65.9996 28.6188 65.7131 28.5293 65.33 28.4541C65.0077 28.3861 64.7159 28.3055 64.4545 28.2124C64.1967 28.1193 63.9764 28.0065 63.7938 27.874C63.6148 27.7415 63.4769 27.5858 63.3803 27.4067C63.2836 27.2277 63.2352 27.0182 63.2352 26.7783C63.2352 26.5492 63.2854 26.3325 63.3856 26.1284C63.4895 25.9243 63.6345 25.7435 63.8207 25.5859C64.0105 25.4284 64.2378 25.3049 64.5028 25.2153C64.7678 25.1258 65.0632 25.0811 65.389 25.0811C65.8545 25.0811 66.252 25.1634 66.5814 25.3281C66.9108 25.4928 67.1633 25.7131 67.3387 25.9888C67.5142 26.2609 67.6019 26.5635 67.6019 26.8965H66.6083C66.6083 26.7354 66.5599 26.5796 66.4633 26.4292C66.3702 26.2752 66.2323 26.1481 66.0497 26.0479C65.8706 25.9476 65.6504 25.8975 65.389 25.8975C65.1133 25.8975 64.8895 25.9404 64.7177 26.0264C64.5494 26.1087 64.4258 26.2144 64.347 26.3433C64.2719 26.4722 64.2343 26.6082 64.2343 26.7515C64.2343 26.8589 64.2522 26.9556 64.288 27.0415C64.3274 27.1239 64.3954 27.2008 64.4921 27.2725C64.5887 27.3405 64.7248 27.4049 64.9003 27.4658C65.0757 27.5267 65.2995 27.5876 65.5717 27.6484C66.0479 27.7559 66.44 27.8848 66.7479 28.0352C67.0559 28.1855 67.285 28.37 67.4354 28.5884C67.5858 28.8068 67.661 29.0718 67.661 29.3833C67.661 29.6375 67.6073 29.8703 67.4999 30.0815C67.396 30.2928 67.2439 30.4754 67.0433 30.6294C66.8464 30.7798 66.6101 30.8979 66.3344 30.9839C66.0622 31.0662 65.7561 31.1074 65.4159 31.1074C64.9038 31.1074 64.4706 31.0161 64.1161 30.8335C63.7616 30.6509 63.493 30.4146 63.3104 30.1245C63.1278 29.8345 63.0365 29.5283 63.0365 29.2061H64.0355C64.0498 29.4782 64.1286 29.6948 64.2719 29.856C64.4151 30.0135 64.5905 30.1263 64.7982 30.1943C65.0059 30.2588 65.2118 30.291 65.4159 30.291C65.688 30.291 65.9154 30.2552 66.098 30.1836C66.2842 30.112 66.4257 30.0135 66.5223 29.8882C66.619 29.7629 66.6674 29.6196 66.6674 29.4585Z" fill="#555555"/>
<path d="M74.6978 29.8721V22.75H75.6968V31H74.7837L74.6978 29.8721ZM70.7876 28.1587V28.0459C70.7876 27.6019 70.8413 27.1991 70.9488 26.8374C71.0598 26.4722 71.2155 26.1589 71.4161 25.8975C71.6202 25.6361 71.8619 25.4355 72.1412 25.2959C72.424 25.1527 72.7391 25.0811 73.0865 25.0811C73.4517 25.0811 73.7704 25.1455 74.0425 25.2744C74.3182 25.3997 74.551 25.5841 74.7408 25.8276C74.9341 26.0675 75.0863 26.3576 75.1973 26.6978C75.3083 27.0379 75.3853 27.4229 75.4283 27.8525V28.3467C75.3889 28.7728 75.3119 29.1559 75.1973 29.4961C75.0863 29.8363 74.9341 30.1263 74.7408 30.3662C74.551 30.6061 74.3182 30.7905 74.0425 30.9194C73.7668 31.0448 73.4445 31.1074 73.0757 31.1074C72.7356 31.1074 72.424 31.034 72.1412 30.8872C71.8619 30.7404 71.6202 30.5345 71.4161 30.2695C71.2155 30.0046 71.0598 29.693 70.9488 29.335C70.8413 28.9733 70.7876 28.5812 70.7876 28.1587ZM71.7867 28.0459V28.1587C71.7867 28.4487 71.8153 28.7209 71.8726 28.9751C71.9335 29.2293 72.0266 29.4531 72.1519 29.6465C72.2772 29.8398 72.4366 29.992 72.6299 30.103C72.8233 30.2104 73.0542 30.2642 73.3228 30.2642C73.6522 30.2642 73.9226 30.1943 74.1338 30.0547C74.3487 29.915 74.5205 29.7306 74.6495 29.5015C74.7784 29.2723 74.8786 29.0234 74.9502 28.7549V27.4604C74.9073 27.2635 74.8446 27.0737 74.7622 26.8911C74.6835 26.7049 74.5796 26.5402 74.4507 26.397C74.3254 26.2502 74.1696 26.1338 73.9834 26.0479C73.8008 25.9619 73.5842 25.9189 73.3335 25.9189C73.0614 25.9189 72.8269 25.9762 72.6299 26.0908C72.4366 26.2018 72.2772 26.3558 72.1519 26.5527C72.0266 26.7461 71.9335 26.9717 71.8726 27.2295C71.8153 27.4837 71.7867 27.7559 71.7867 28.0459Z" fill="#555555"/>
<path d="M80.3404 30.0063V27.0146C80.3404 26.7855 80.2939 26.5868 80.2008 26.4185C80.1113 26.2466 79.9752 26.1141 79.7926 26.021C79.61 25.9279 79.3844 25.8813 79.1158 25.8813C78.8652 25.8813 78.645 25.9243 78.4552 26.0103C78.269 26.0962 78.1222 26.209 78.0148 26.3486C77.9109 26.4883 77.859 26.6387 77.859 26.7998H76.8653C76.8653 26.5921 76.9191 26.3862 77.0265 26.1821C77.1339 25.978 77.2879 25.7936 77.4884 25.6289C77.6925 25.4606 77.936 25.3281 78.2189 25.2314C78.5053 25.1312 78.824 25.0811 79.1749 25.0811C79.5974 25.0811 79.9698 25.1527 80.2921 25.2959C80.618 25.4391 80.8722 25.6558 81.0548 25.9458C81.241 26.2323 81.3341 26.5921 81.3341 27.0254V29.7324C81.3341 29.9258 81.3502 30.1317 81.3824 30.3501C81.4182 30.5685 81.4702 30.7565 81.5382 30.9141V31H80.5016C80.4514 30.8854 80.4121 30.7332 80.3834 30.5435C80.3548 30.3501 80.3404 30.1711 80.3404 30.0063ZM80.5123 27.4766L80.5231 28.1748H79.5187C79.2358 28.1748 78.9834 28.1981 78.7613 28.2446C78.5393 28.2876 78.3531 28.3538 78.2028 28.4434C78.0524 28.5329 77.9378 28.6457 77.859 28.7817C77.7802 28.9142 77.7408 29.07 77.7408 29.249C77.7408 29.4316 77.782 29.5981 77.8644 29.7485C77.9467 29.8989 78.0703 30.0189 78.235 30.1084C78.4033 30.1943 78.6092 30.2373 78.8527 30.2373C79.157 30.2373 79.4256 30.1729 79.6583 30.0439C79.8911 29.915 80.0755 29.7575 80.2115 29.5713C80.3512 29.3851 80.4264 29.2043 80.4371 29.0288L80.8614 29.5068C80.8364 29.6572 80.7683 29.8237 80.6573 30.0063C80.5463 30.189 80.3977 30.3644 80.2115 30.5327C80.0289 30.6974 79.8105 30.8353 79.5563 30.9463C79.3056 31.0537 79.0227 31.1074 78.7076 31.1074C78.3138 31.1074 77.9682 31.0304 77.671 30.8765C77.3774 30.7225 77.1482 30.5166 76.9835 30.2588C76.8224 29.9974 76.7418 29.7056 76.7418 29.3833C76.7418 29.0718 76.8027 28.7979 76.9244 28.5615C77.0462 28.3216 77.2216 28.1229 77.4508 27.9653C77.68 27.8042 77.9557 27.6825 78.2779 27.6001C78.6002 27.5177 78.9601 27.4766 79.3575 27.4766H80.5123Z" fill="#555555"/>
<path d="M86.2302 29.8721V22.75H87.2292V31H86.3161L86.2302 29.8721ZM82.32 28.1587V28.0459C82.32 27.6019 82.3737 27.1991 82.4812 26.8374C82.5922 26.4722 82.7479 26.1589 82.9484 25.8975C83.1525 25.6361 83.3942 25.4355 83.6735 25.2959C83.9564 25.1527 84.2715 25.0811 84.6189 25.0811C84.9841 25.0811 85.3028 25.1455 85.5749 25.2744C85.8506 25.3997 86.0834 25.5841 86.2731 25.8276C86.4665 26.0675 86.6187 26.3576 86.7297 26.6978C86.8407 27.0379 86.9177 27.4229 86.9606 27.8525V28.3467C86.9213 28.7728 86.8443 29.1559 86.7297 29.4961C86.6187 29.8363 86.4665 30.1263 86.2731 30.3662C86.0834 30.6061 85.8506 30.7905 85.5749 30.9194C85.2992 31.0448 84.9769 31.1074 84.6081 31.1074C84.2679 31.1074 83.9564 31.034 83.6735 30.8872C83.3942 30.7404 83.1525 30.5345 82.9484 30.2695C82.7479 30.0046 82.5922 29.693 82.4812 29.335C82.3737 28.9733 82.32 28.5812 82.32 28.1587ZM83.319 28.0459V28.1587C83.319 28.4487 83.3477 28.7209 83.405 28.9751C83.4659 29.2293 83.559 29.4531 83.6843 29.6465C83.8096 29.8398 83.9689 29.992 84.1623 30.103C84.3557 30.2104 84.5866 30.2642 84.8552 30.2642C85.1846 30.2642 85.455 30.1943 85.6662 30.0547C85.8811 29.915 86.0529 29.7306 86.1818 29.5015C86.3107 29.2723 86.411 29.0234 86.4826 28.7549V27.4604C86.4397 27.2635 86.377 27.0737 86.2946 26.8911C86.2159 26.7049 86.112 26.5402 85.9831 26.397C85.8578 26.2502 85.702 26.1338 85.5158 26.0479C85.3332 25.9619 85.1166 25.9189 84.8659 25.9189C84.5938 25.9189 84.3592 25.9762 84.1623 26.0908C83.9689 26.2018 83.8096 26.3558 83.6843 26.5527C83.559 26.7461 83.4659 26.9717 83.405 27.2295C83.3477 27.4837 83.319 27.7559 83.319 28.0459Z" fill="#555555"/>
<path d="M88.1829 28.1587V28.0352C88.1829 27.6162 88.2438 27.2277 88.3655 26.8696C88.4873 26.508 88.6627 26.1947 88.8919 25.9297C89.121 25.6611 89.3985 25.4535 89.7244 25.3066C90.0502 25.1562 90.4155 25.0811 90.8201 25.0811C91.2283 25.0811 91.5953 25.1562 91.9212 25.3066C92.2506 25.4535 92.5299 25.6611 92.7591 25.9297C92.9918 26.1947 93.1691 26.508 93.2908 26.8696C93.4125 27.2277 93.4734 27.6162 93.4734 28.0352V28.1587C93.4734 28.5776 93.4125 28.9661 93.2908 29.3242C93.1691 29.6823 92.9918 29.9956 92.7591 30.2642C92.5299 30.5291 92.2524 30.7368 91.9265 30.8872C91.6043 31.034 91.239 31.1074 90.8308 31.1074C90.4226 31.1074 90.0556 31.034 89.7298 30.8872C89.4039 30.7368 89.1246 30.5291 88.8919 30.2642C88.6627 29.9956 88.4873 29.6823 88.3655 29.3242C88.2438 28.9661 88.1829 28.5776 88.1829 28.1587ZM89.1765 28.0352V28.1587C89.1765 28.4487 89.2106 28.7227 89.2786 28.9805C89.3466 29.2347 89.4487 29.4603 89.5847 29.6572C89.7244 29.8542 89.8981 30.0099 90.1057 30.1245C90.3134 30.2355 90.5551 30.291 90.8308 30.291C91.103 30.291 91.3411 30.2355 91.5452 30.1245C91.7529 30.0099 91.9248 29.8542 92.0608 29.6572C92.1969 29.4603 92.2989 29.2347 92.367 28.9805C92.4386 28.7227 92.4744 28.4487 92.4744 28.1587V28.0352C92.4744 27.7487 92.4386 27.4784 92.367 27.2241C92.2989 26.9663 92.1951 26.7389 92.0555 26.542C91.9194 26.3415 91.7475 26.1839 91.5398 26.0693C91.3357 25.9548 91.0958 25.8975 90.8201 25.8975C90.548 25.8975 90.3081 25.9548 90.1004 26.0693C89.8963 26.1839 89.7244 26.3415 89.5847 26.542C89.4487 26.7389 89.3466 26.9663 89.2786 27.2241C89.2106 27.4784 89.1765 27.7487 89.1765 28.0352Z" fill="#555555"/>
<path d="M97.7733 29.4585C97.7733 29.3153 97.7411 29.1828 97.6766 29.061C97.6157 28.9357 97.4886 28.8229 97.2953 28.7227C97.1055 28.6188 96.819 28.5293 96.4359 28.4541C96.1136 28.3861 95.8218 28.3055 95.5604 28.2124C95.3026 28.1193 95.0824 28.0065 94.8998 27.874C94.7207 27.7415 94.5829 27.5858 94.4862 27.4067C94.3895 27.2277 94.3412 27.0182 94.3412 26.7783C94.3412 26.5492 94.3913 26.3325 94.4916 26.1284C94.5954 25.9243 94.7404 25.7435 94.9266 25.5859C95.1164 25.4284 95.3438 25.3049 95.6087 25.2153C95.8737 25.1258 96.1691 25.0811 96.495 25.0811C96.9605 25.0811 97.3579 25.1634 97.6874 25.3281C98.0168 25.4928 98.2692 25.7131 98.4447 25.9888C98.6201 26.2609 98.7079 26.5635 98.7079 26.8965H97.7142C97.7142 26.7354 97.6659 26.5796 97.5692 26.4292C97.4761 26.2752 97.3382 26.1481 97.1556 26.0479C96.9766 25.9476 96.7564 25.8975 96.495 25.8975C96.2193 25.8975 95.9955 25.9404 95.8236 26.0264C95.6553 26.1087 95.5318 26.2144 95.453 26.3433C95.3778 26.4722 95.3402 26.6082 95.3402 26.7515C95.3402 26.8589 95.3581 26.9556 95.3939 27.0415C95.4333 27.1239 95.5013 27.2008 95.598 27.2725C95.6947 27.3405 95.8308 27.4049 96.0062 27.4658C96.1817 27.5267 96.4055 27.5876 96.6776 27.6484C97.1538 27.7559 97.5459 27.8848 97.8539 28.0352C98.1618 28.1855 98.391 28.37 98.5414 28.5884C98.6918 28.8068 98.767 29.0718 98.767 29.3833C98.767 29.6375 98.7132 29.8703 98.6058 30.0815C98.502 30.2928 98.3498 30.4754 98.1493 30.6294C97.9523 30.7798 97.716 30.8979 97.4403 30.9839C97.1682 31.0662 96.862 31.1074 96.5218 31.1074C96.0098 31.1074 95.5765 31.0161 95.222 30.8335C94.8675 30.6509 94.599 30.4146 94.4164 30.1245C94.2337 29.8345 94.1424 29.5283 94.1424 29.2061H95.1415C95.1558 29.4782 95.2346 29.6948 95.3778 29.856C95.521 30.0135 95.6965 30.1263 95.9042 30.1943C96.1118 30.2588 96.3177 30.291 96.5218 30.291C96.794 30.291 97.0213 30.2552 97.204 30.1836C97.3902 30.112 97.5316 30.0135 97.6283 29.8882C97.725 29.7629 97.7733 29.6196 97.7733 29.4585Z" fill="#555555"/>
<path d="M14.3979 9.54639H11.1162V13H10.085V5.17969H14.9297V6.02832H11.1162V8.70312H14.3979V9.54639Z" fill="#EEEEEE"/>
<path d="M19.4146 13C19.3573 12.8854 19.3107 12.6813 19.2749 12.3877C18.813 12.8675 18.2616 13.1074 17.6206 13.1074C17.0477 13.1074 16.5768 12.9463 16.208 12.624C15.8428 12.2982 15.6602 11.8864 15.6602 11.3887C15.6602 10.7835 15.8893 10.3145 16.3477 9.98145C16.8096 9.64486 17.4577 9.47656 18.292 9.47656H19.2588V9.02002C19.2588 8.67269 19.1549 8.39697 18.9473 8.19287C18.7396 7.98519 18.4334 7.88135 18.0288 7.88135C17.6743 7.88135 17.3771 7.97087 17.1372 8.1499C16.8973 8.32894 16.7773 8.54557 16.7773 8.7998H15.7783C15.7783 8.50977 15.8804 8.23047 16.0845 7.96191C16.2922 7.68978 16.5715 7.47493 16.9224 7.31738C17.2769 7.15983 17.6654 7.08105 18.0879 7.08105C18.7575 7.08105 19.2821 7.24935 19.6616 7.58594C20.0412 7.91895 20.2381 8.37907 20.2524 8.96631V11.6411C20.2524 12.1746 20.3205 12.599 20.4565 12.9141V13H19.4146ZM17.7656 12.2427C18.0771 12.2427 18.3726 12.1621 18.6519 12.001C18.9312 11.8398 19.1335 11.6304 19.2588 11.3726V10.1802H18.48C17.2625 10.1802 16.6538 10.5365 16.6538 11.249C16.6538 11.5605 16.7576 11.804 16.9653 11.9795C17.173 12.1549 17.4398 12.2427 17.7656 12.2427Z" fill="#EEEEEE"/>
<path d="M22.8896 13H21.896V7.18848H22.8896V13ZM21.8154 5.64697C21.8154 5.48584 21.8638 5.34977 21.9604 5.23877C22.0607 5.12777 22.2075 5.07227 22.4009 5.07227C22.5942 5.07227 22.741 5.12777 22.8413 5.23877C22.9416 5.34977 22.9917 5.48584 22.9917 5.64697C22.9917 5.80811 22.9416 5.94238 22.8413 6.0498C22.741 6.15723 22.5942 6.21094 22.4009 6.21094C22.2075 6.21094 22.0607 6.15723 21.9604 6.0498C21.8638 5.94238 21.8154 5.80811 21.8154 5.64697Z" fill="#EEEEEE"/>
<path d="M27.2939 8.08008C27.1436 8.05501 26.9806 8.04248 26.8052 8.04248C26.1535 8.04248 25.7113 8.31999 25.4785 8.875V13H24.4849V7.18848H25.4517L25.4678 7.85986C25.7936 7.34066 26.2555 7.08105 26.8535 7.08105C27.0469 7.08105 27.1937 7.10612 27.2939 7.15625V8.08008Z" fill="#EEEEEE"/>
<path d="M36.0864 11.6304L37.2036 7.18848H38.1973L36.5054 13H35.6997L34.2871 8.5957L32.9121 13H32.1064L30.4199 7.18848H31.4082L32.5522 11.5391L33.9058 7.18848H34.7061L36.0864 11.6304Z" fill="#EEEEEE"/>
<path d="M41.624 13.1074C40.8363 13.1074 40.1953 12.8496 39.7012 12.334C39.207 11.8148 38.96 11.1219 38.96 10.2554V10.0728C38.96 9.49626 39.0692 8.98242 39.2876 8.53125C39.5096 8.0765 39.8175 7.72201 40.2114 7.46777C40.6089 7.20996 41.0386 7.08105 41.5005 7.08105C42.256 7.08105 42.8433 7.32992 43.2622 7.82764C43.6812 8.32536 43.8906 9.03792 43.8906 9.96533V10.3789H39.9536C39.9679 10.9518 40.1344 11.4155 40.4531 11.77C40.7754 12.1209 41.1836 12.2964 41.6777 12.2964C42.0286 12.2964 42.3258 12.2248 42.5693 12.0815C42.8128 11.9383 43.0259 11.7485 43.2085 11.5122L43.8154 11.9849C43.3285 12.7332 42.598 13.1074 41.624 13.1074ZM41.5005 7.89746C41.0994 7.89746 40.7629 8.04427 40.4907 8.33789C40.2186 8.62793 40.0503 9.03613 39.9858 9.5625H42.897V9.4873C42.8683 8.98242 42.7323 8.59212 42.4888 8.31641C42.2453 8.03711 41.9159 7.89746 41.5005 7.89746Z" fill="#EEEEEE"/>
<path d="M49.9653 10.1587C49.9653 11.0467 49.7612 11.7611 49.353 12.3018C48.9448 12.8389 48.397 13.1074 47.7095 13.1074C46.9754 13.1074 46.4079 12.8478 46.0068 12.3286L45.9585 13H45.0454V4.75H46.0391V7.82764C46.4401 7.32992 46.9933 7.08105 47.6987 7.08105C48.4041 7.08105 48.9574 7.34782 49.3584 7.88135C49.763 8.41488 49.9653 9.14535 49.9653 10.0728V10.1587ZM48.9717 10.0459C48.9717 9.36914 48.841 8.84635 48.5796 8.47754C48.3182 8.10872 47.9422 7.92432 47.4517 7.92432C46.7964 7.92432 46.3255 8.22868 46.0391 8.8374V11.3511C46.3434 11.9598 46.8179 12.2642 47.4624 12.2642C47.9386 12.2642 48.3092 12.0798 48.5742 11.7109C48.8392 11.3421 48.9717 10.7871 48.9717 10.0459Z" fill="#EEEEEE"/>
<path d="M57.5386 13C57.4813 12.8854 57.4347 12.6813 57.3989 12.3877C56.937 12.8675 56.3856 13.1074 55.7446 13.1074C55.1717 13.1074 54.7008 12.9463 54.332 12.624C53.9668 12.2982 53.7842 11.8864 53.7842 11.3887C53.7842 10.7835 54.0133 10.3145 54.4717 9.98145C54.9336 9.64486 55.5817 9.47656 56.416 9.47656H57.3828V9.02002C57.3828 8.67269 57.279 8.39697 57.0713 8.19287C56.8636 7.98519 56.5575 7.88135 56.1528 7.88135C55.7983 7.88135 55.5011 7.97087 55.2612 8.1499C55.0213 8.32894 54.9014 8.54557 54.9014 8.7998H53.9023C53.9023 8.50977 54.0044 8.23047 54.2085 7.96191C54.4162 7.68978 54.6955 7.47493 55.0464 7.31738C55.4009 7.15983 55.7894 7.08105 56.2119 7.08105C56.8815 7.08105 57.4061 7.24935 57.7856 7.58594C58.1652 7.91895 58.3621 8.37907 58.3765 8.96631V11.6411C58.3765 12.1746 58.4445 12.599 58.5806 12.9141V13H57.5386ZM55.8896 12.2427C56.2012 12.2427 56.4966 12.1621 56.7759 12.001C57.0552 11.8398 57.2575 11.6304 57.3828 11.3726V10.1802H56.604C55.3866 10.1802 54.7778 10.5365 54.7778 11.249C54.7778 11.5605 54.8817 11.804 55.0894 11.9795C55.297 12.1549 55.5638 12.2427 55.8896 12.2427Z" fill="#EEEEEE"/>
<path d="M60.874 7.18848L60.9062 7.91895C61.3503 7.36035 61.9303 7.08105 62.6465 7.08105C63.8747 7.08105 64.4941 7.77393 64.5049 9.15967V13H63.5112V9.1543C63.5076 8.73535 63.411 8.42562 63.2212 8.2251C63.035 8.02458 62.7432 7.92432 62.3457 7.92432C62.0234 7.92432 61.7406 8.01025 61.4971 8.18213C61.2536 8.354 61.0638 8.57959 60.9277 8.85889V13H59.9341V7.18848H60.874Z" fill="#EEEEEE"/>
<path d="M69.5913 13C69.534 12.8854 69.4875 12.6813 69.4517 12.3877C68.9897 12.8675 68.4383 13.1074 67.7974 13.1074C67.2244 13.1074 66.7536 12.9463 66.3848 12.624C66.0195 12.2982 65.8369 11.8864 65.8369 11.3887C65.8369 10.7835 66.0661 10.3145 66.5244 9.98145C66.9863 9.64486 67.6344 9.47656 68.4688 9.47656H69.4355V9.02002C69.4355 8.67269 69.3317 8.39697 69.124 8.19287C68.9163 7.98519 68.6102 7.88135 68.2056 7.88135C67.8511 7.88135 67.5539 7.97087 67.314 8.1499C67.0741 8.32894 66.9541 8.54557 66.9541 8.7998H65.9551C65.9551 8.50977 66.0571 8.23047 66.2612 7.96191C66.4689 7.68978 66.7482 7.47493 67.0991 7.31738C67.4536 7.15983 67.8421 7.08105 68.2646 7.08105C68.9342 7.08105 69.4588 7.24935 69.8384 7.58594C70.2179 7.91895 70.4149 8.37907 70.4292 8.96631V11.6411C70.4292 12.1746 70.4972 12.599 70.6333 12.9141V13H69.5913ZM67.9424 12.2427C68.2539 12.2427 68.5493 12.1621 68.8286 12.001C69.1079 11.8398 69.3102 11.6304 69.4355 11.3726V10.1802H68.6567C67.4393 10.1802 66.8306 10.5365 66.8306 11.249C66.8306 11.5605 66.9344 11.804 67.1421 11.9795C67.3498 12.1549 67.6165 12.2427 67.9424 12.2427Z" fill="#EEEEEE"/>
<path d="M73.0664 13H72.0728V4.75H73.0664V13Z" fill="#EEEEEE"/>
<path d="M76.563 11.5444L77.9165 7.18848H78.98L76.6436 13.897C76.2819 14.8638 75.7072 15.3472 74.9194 15.3472L74.7314 15.3311L74.3608 15.2612V14.4556L74.6294 14.4771C74.966 14.4771 75.2274 14.409 75.4136 14.2729C75.6034 14.1369 75.7591 13.888 75.8809 13.5264L76.1011 12.9355L74.0278 7.18848H75.1128L76.563 11.5444Z" fill="#EEEEEE"/>
<path d="M81.2197 5.78125V7.18848H82.3047V7.95654H81.2197V11.5605C81.2197 11.7933 81.2681 11.9688 81.3647 12.0869C81.4614 12.2015 81.6261 12.2588 81.8589 12.2588C81.9735 12.2588 82.131 12.2373 82.3315 12.1943V13C82.0701 13.0716 81.8159 13.1074 81.5688 13.1074C81.1248 13.1074 80.79 12.9731 80.5645 12.7046C80.3389 12.436 80.2261 12.0547 80.2261 11.5605V7.95654H79.168V7.18848H80.2261V5.78125H81.2197Z" fill="#EEEEEE"/>
<path d="M84.5498 13H83.5562V7.18848H84.5498V13ZM83.4756 5.64697C83.4756 5.48584 83.5239 5.34977 83.6206 5.23877C83.7209 5.12777 83.8677 5.07227 84.061 5.07227C84.2544 5.07227 84.4012 5.12777 84.5015 5.23877C84.6017 5.34977 84.6519 5.48584 84.6519 5.64697C84.6519 5.80811 84.6017 5.94238 84.5015 6.0498C84.4012 6.15723 84.2544 6.21094 84.061 6.21094C83.8677 6.21094 83.7209 6.15723 83.6206 6.0498C83.5239 5.94238 83.4756 5.80811 83.4756 5.64697Z" fill="#EEEEEE"/>
<path d="M88.4761 12.2964C88.8306 12.2964 89.1403 12.189 89.4053 11.9741C89.6702 11.7593 89.8171 11.4907 89.8457 11.1685H90.7856C90.7677 11.5015 90.6532 11.8184 90.4419 12.1191C90.2306 12.4199 89.9478 12.6598 89.5933 12.8389C89.2424 13.0179 88.87 13.1074 88.4761 13.1074C87.6847 13.1074 87.0545 12.8442 86.5854 12.3179C86.12 11.7879 85.8872 11.0646 85.8872 10.1479V9.98145C85.8872 9.41569 85.991 8.9126 86.1987 8.47217C86.4064 8.03174 86.7036 7.68978 87.0903 7.44629C87.4806 7.2028 87.9408 7.08105 88.4707 7.08105C89.1224 7.08105 89.6631 7.2762 90.0928 7.6665C90.526 8.0568 90.757 8.56348 90.7856 9.18652H89.8457C89.8171 8.81055 89.6738 8.5026 89.416 8.2627C89.1618 8.01921 88.8467 7.89746 88.4707 7.89746C87.9658 7.89746 87.5737 8.08008 87.2944 8.44531C87.0187 8.80697 86.8809 9.33154 86.8809 10.019V10.207C86.8809 10.8766 87.0187 11.3923 87.2944 11.7539C87.5701 12.1156 87.964 12.2964 88.4761 12.2964Z" fill="#EEEEEE"/>
<path d="M95.2866 11.4585C95.2866 11.1899 95.1846 10.9823 94.9805 10.8354C94.7799 10.6851 94.4272 10.5562 93.9224 10.4487C93.4211 10.3413 93.0218 10.2124 92.7246 10.062C92.431 9.91162 92.2126 9.73258 92.0693 9.5249C91.9297 9.31722 91.8599 9.07015 91.8599 8.78369C91.8599 8.30745 92.0604 7.90462 92.4614 7.5752C92.866 7.24577 93.3817 7.08105 94.0083 7.08105C94.6672 7.08105 95.2007 7.25114 95.6089 7.59131C96.0207 7.93148 96.2266 8.36654 96.2266 8.89648H95.2275C95.2275 8.62435 95.1112 8.38981 94.8784 8.19287C94.6493 7.99593 94.3592 7.89746 94.0083 7.89746C93.6466 7.89746 93.3638 7.97624 93.1597 8.13379C92.9556 8.29134 92.8535 8.49723 92.8535 8.75146C92.8535 8.99137 92.9484 9.1722 93.1382 9.29395C93.328 9.41569 93.6699 9.53206 94.1641 9.64307C94.6618 9.75407 95.0646 9.88656 95.3726 10.0405C95.6805 10.1945 95.9079 10.3807 96.0547 10.5991C96.2051 10.814 96.2803 11.0771 96.2803 11.3887C96.2803 11.9079 96.0726 12.325 95.6572 12.6401C95.2419 12.9517 94.703 13.1074 94.0405 13.1074C93.575 13.1074 93.1632 13.0251 92.8052 12.8604C92.4471 12.6956 92.166 12.4665 91.9619 12.1729C91.7614 11.8757 91.6611 11.5552 91.6611 11.2114H92.6548C92.6727 11.5444 92.8052 11.8094 93.0522 12.0063C93.3029 12.1997 93.6323 12.2964 94.0405 12.2964C94.4165 12.2964 94.7173 12.2212 94.9429 12.0708C95.172 11.9168 95.2866 11.7127 95.2866 11.4585Z" fill="#EEEEEE"/>
</svg>
