<svg width="99" height="37" viewBox="0 0 99 37" fill="none" xmlns="http://www.w3.org/2000/svg">
<rect width="99" height="37" rx="2" fill="#555555"/>
<rect x="0.5" y="19.5" width="98" height="17" rx="1.5" fill="#EEEEEE" stroke="#555555"/>
<path d="M13.2261 28.959H9.94971L9.21387 31H8.15039L11.1367 23.1797H12.0391L15.0308 31H13.9727L13.2261 28.959ZM10.2612 28.1104H12.9199L11.5879 24.4526L10.2612 28.1104Z" fill="#555555"/>
<path d="M18.2588 30.2964C18.6133 30.2964 18.923 30.189 19.188 29.9741C19.453 29.7593 19.5998 29.4907 19.6284 29.1685H20.5684C20.5505 29.5015 20.4359 29.8184 20.2246 30.1191C20.0133 30.4199 19.7305 30.6598 19.376 30.8389C19.0251 31.0179 18.6527 31.1074 18.2588 31.1074C17.4674 31.1074 16.8372 30.8442 16.3682 30.3179C15.9027 29.7879 15.6699 29.0646 15.6699 28.1479V27.9814C15.6699 27.4157 15.7738 26.9126 15.9814 26.4722C16.1891 26.0317 16.4863 25.6898 16.873 25.4463C17.2633 25.2028 17.7235 25.0811 18.2534 25.0811C18.9051 25.0811 19.4458 25.2762 19.8755 25.6665C20.3088 26.0568 20.5397 26.5635 20.5684 27.1865H19.6284C19.5998 26.8105 19.4565 26.5026 19.1987 26.2627C18.9445 26.0192 18.6294 25.8975 18.2534 25.8975C17.7485 25.8975 17.3564 26.0801 17.0771 26.4453C16.8014 26.807 16.6636 27.3315 16.6636 28.019V28.207C16.6636 28.8766 16.8014 29.3923 17.0771 29.7539C17.3529 30.1156 17.7467 30.2964 18.2588 30.2964Z" fill="#555555"/>
<path d="M24.0166 30.2964C24.3711 30.2964 24.6808 30.189 24.9458 29.9741C25.2108 29.7593 25.3576 29.4907 25.3862 29.1685H26.3262C26.3083 29.5015 26.1937 29.8184 25.9824 30.1191C25.7712 30.4199 25.4883 30.6598 25.1338 30.8389C24.7829 31.0179 24.4105 31.1074 24.0166 31.1074C23.2253 31.1074 22.5951 30.8442 22.126 30.3179C21.6605 29.7879 21.4277 29.0646 21.4277 28.1479V27.9814C21.4277 27.4157 21.5316 26.9126 21.7393 26.4722C21.9469 26.0317 22.2441 25.6898 22.6309 25.4463C23.0212 25.2028 23.4813 25.0811 24.0112 25.0811C24.6629 25.0811 25.2036 25.2762 25.6333 25.6665C26.0666 26.0568 26.2975 26.5635 26.3262 27.1865H25.3862C25.3576 26.8105 25.2144 26.5026 24.9565 26.2627C24.7023 26.0192 24.3872 25.8975 24.0112 25.8975C23.5063 25.8975 23.1143 26.0801 22.835 26.4453C22.5592 26.807 22.4214 27.3315 22.4214 28.019V28.207C22.4214 28.8766 22.5592 29.3923 22.835 29.7539C23.1107 30.1156 23.5046 30.2964 24.0166 30.2964Z" fill="#555555"/>
<path d="M29.855 31.1074C29.0672 31.1074 28.4263 30.8496 27.9321 30.334C27.438 29.8148 27.1909 29.1219 27.1909 28.2554V28.0728C27.1909 27.4963 27.3001 26.9824 27.5186 26.5312C27.7406 26.0765 28.0485 25.722 28.4424 25.4678C28.8398 25.21 29.2695 25.0811 29.7314 25.0811C30.487 25.0811 31.0742 25.3299 31.4932 25.8276C31.9121 26.3254 32.1216 27.0379 32.1216 27.9653V28.3789H28.1846C28.1989 28.9518 28.3654 29.4155 28.6841 29.77C29.0063 30.1209 29.4146 30.2964 29.9087 30.2964C30.2596 30.2964 30.5568 30.2248 30.8003 30.0815C31.0438 29.9383 31.2568 29.7485 31.4395 29.5122L32.0464 29.9849C31.5594 30.7332 30.8289 31.1074 29.855 31.1074ZM29.7314 25.8975C29.3304 25.8975 28.9938 26.0443 28.7217 26.3379C28.4495 26.6279 28.2812 27.0361 28.2168 27.5625H31.1279V27.4873C31.0993 26.9824 30.9632 26.5921 30.7197 26.3164C30.4762 26.0371 30.1468 25.8975 29.7314 25.8975Z" fill="#555555"/>
<path d="M36.6602 29.4585C36.6602 29.1899 36.5581 28.9823 36.354 28.8354C36.1535 28.6851 35.8008 28.5562 35.2959 28.4487C34.7946 28.3413 34.3953 28.2124 34.0981 28.062C33.8045 27.9116 33.5861 27.7326 33.4429 27.5249C33.3032 27.3172 33.2334 27.0701 33.2334 26.7837C33.2334 26.3075 33.4339 25.9046 33.835 25.5752C34.2396 25.2458 34.7552 25.0811 35.3818 25.0811C36.0407 25.0811 36.5742 25.2511 36.9824 25.5913C37.3942 25.9315 37.6001 26.3665 37.6001 26.8965H36.6011C36.6011 26.6243 36.4847 26.3898 36.252 26.1929C36.0228 25.9959 35.7327 25.8975 35.3818 25.8975C35.0202 25.8975 34.7373 25.9762 34.5332 26.1338C34.3291 26.2913 34.2271 26.4972 34.2271 26.7515C34.2271 26.9914 34.3219 27.1722 34.5117 27.2939C34.7015 27.4157 35.0435 27.5321 35.5376 27.6431C36.0353 27.7541 36.4382 27.8866 36.7461 28.0405C37.054 28.1945 37.2814 28.3807 37.4282 28.5991C37.5786 28.814 37.6538 29.0771 37.6538 29.3887C37.6538 29.9079 37.4461 30.325 37.0308 30.6401C36.6154 30.9517 36.0765 31.1074 35.4141 31.1074C34.9486 31.1074 34.5368 31.0251 34.1787 30.8604C33.8206 30.6956 33.5396 30.4665 33.3354 30.1729C33.1349 29.8757 33.0347 29.5552 33.0347 29.2114H34.0283C34.0462 29.5444 34.1787 29.8094 34.4258 30.0063C34.6764 30.1997 35.0059 30.2964 35.4141 30.2964C35.79 30.2964 36.0908 30.2212 36.3164 30.0708C36.5456 29.9168 36.6602 29.7127 36.6602 29.4585Z" fill="#555555"/>
<path d="M42.332 29.4585C42.332 29.1899 42.23 28.9823 42.0259 28.8354C41.8254 28.6851 41.4727 28.5562 40.9678 28.4487C40.4665 28.3413 40.0672 28.2124 39.77 28.062C39.4764 27.9116 39.258 27.7326 39.1147 27.5249C38.9751 27.3172 38.9053 27.0701 38.9053 26.7837C38.9053 26.3075 39.1058 25.9046 39.5068 25.5752C39.9115 25.2458 40.4271 25.0811 41.0537 25.0811C41.7126 25.0811 42.2461 25.2511 42.6543 25.5913C43.0661 25.9315 43.272 26.3665 43.272 26.8965H42.2729C42.2729 26.6243 42.1566 26.3898 41.9238 26.1929C41.6947 25.9959 41.4046 25.8975 41.0537 25.8975C40.6921 25.8975 40.4092 25.9762 40.2051 26.1338C40.001 26.2913 39.8989 26.4972 39.8989 26.7515C39.8989 26.9914 39.9938 27.1722 40.1836 27.2939C40.3734 27.4157 40.7153 27.5321 41.2095 27.6431C41.7072 27.7541 42.11 27.8866 42.418 28.0405C42.7259 28.1945 42.9533 28.3807 43.1001 28.5991C43.2505 28.814 43.3257 29.0771 43.3257 29.3887C43.3257 29.9079 43.118 30.325 42.7026 30.6401C42.2873 30.9517 41.7484 31.1074 41.0859 31.1074C40.6204 31.1074 40.2087 31.0251 39.8506 30.8604C39.4925 30.6956 39.2114 30.4665 39.0073 30.1729C38.8068 29.8757 38.7065 29.5552 38.7065 29.2114H39.7002C39.7181 29.5444 39.8506 29.8094 40.0977 30.0063C40.3483 30.1997 40.6777 30.2964 41.0859 30.2964C41.4619 30.2964 41.7627 30.2212 41.9883 30.0708C42.2174 29.9168 42.332 29.7127 42.332 29.4585Z" fill="#555555"/>
<path d="M49.25 29.5444L50.6035 25.1885H51.667L49.3306 31.897C48.9689 32.8638 48.3942 33.3472 47.6064 33.3472L47.4185 33.3311L47.0479 33.2612V32.4556L47.3164 32.4771C47.653 32.4771 47.9144 32.409 48.1006 32.2729C48.2904 32.1369 48.4461 31.888 48.5679 31.5264L48.7881 30.9355L46.7148 25.1885H47.7998L49.25 29.5444Z" fill="#555555"/>
<path d="M52.2095 28.0405C52.2095 27.4712 52.3205 26.9591 52.5425 26.5044C52.7681 26.0496 53.0796 25.6987 53.4771 25.4517C53.8781 25.2046 54.3346 25.0811 54.8467 25.0811C55.638 25.0811 56.2772 25.355 56.7642 25.9028C57.2547 26.4507 57.5 27.1794 57.5 28.0889V28.1587C57.5 28.7244 57.3908 29.2329 57.1724 29.6841C56.9575 30.1317 56.6478 30.4808 56.2432 30.7314C55.8421 30.9821 55.3802 31.1074 54.8574 31.1074C54.0697 31.1074 53.4305 30.8335 52.9399 30.2856C52.453 29.7378 52.2095 29.0127 52.2095 28.1104V28.0405ZM53.2085 28.1587C53.2085 28.8032 53.3571 29.3206 53.6543 29.7109C53.9551 30.1012 54.3561 30.2964 54.8574 30.2964C55.3623 30.2964 55.7633 30.0994 56.0605 29.7056C56.3577 29.3081 56.5063 28.7531 56.5063 28.0405C56.5063 27.4032 56.3542 26.8875 56.0498 26.4937C55.749 26.0962 55.348 25.8975 54.8467 25.8975C54.3561 25.8975 53.9604 26.0926 53.6597 26.4829C53.3589 26.8732 53.2085 27.4318 53.2085 28.1587Z" fill="#555555"/>
<path d="M62.334 30.4253C61.9473 30.88 61.3797 31.1074 60.6313 31.1074C60.0119 31.1074 59.5392 30.9284 59.2134 30.5703C58.8911 30.2087 58.7282 29.6751 58.7246 28.9697V25.1885H59.7183V28.9429C59.7183 29.8237 60.0763 30.2642 60.7925 30.2642C61.5516 30.2642 62.0565 29.9813 62.3071 29.4155V25.1885H63.3008V31H62.3555L62.334 30.4253Z" fill="#555555"/>
<path d="M67.6245 26.0801C67.4741 26.055 67.3112 26.0425 67.1357 26.0425C66.484 26.0425 66.0418 26.32 65.8091 26.875V31H64.8154V25.1885H65.7822L65.7983 25.8599C66.1242 25.3407 66.5861 25.0811 67.1841 25.0811C67.3774 25.0811 67.5243 25.1061 67.6245 25.1562V26.0801Z" fill="#555555"/>
<path d="M71.0298 28.0459C71.0298 27.1543 71.241 26.4382 71.6636 25.8975C72.0861 25.3532 72.6393 25.0811 73.3232 25.0811C74.0036 25.0811 74.5425 25.3138 74.9399 25.7793V22.75H75.9336V31H75.0205L74.9722 30.377C74.5747 30.8639 74.0215 31.1074 73.3125 31.1074C72.6393 31.1074 72.0897 30.8317 71.6636 30.2803C71.241 29.7288 71.0298 29.0091 71.0298 28.1211V28.0459ZM72.0234 28.1587C72.0234 28.8175 72.1595 29.3332 72.4316 29.7056C72.7038 30.078 73.0798 30.2642 73.5596 30.2642C74.1898 30.2642 74.6499 29.9813 74.9399 29.4155V26.7461C74.6427 26.1982 74.1862 25.9243 73.5703 25.9243C73.0833 25.9243 72.7038 26.1123 72.4316 26.4883C72.1595 26.8643 72.0234 27.4211 72.0234 28.1587Z" fill="#555555"/>
<path d="M81.0684 31C81.0111 30.8854 80.9645 30.6813 80.9287 30.3877C80.4668 30.8675 79.9154 31.1074 79.2744 31.1074C78.7015 31.1074 78.2306 30.9463 77.8618 30.624C77.4966 30.2982 77.314 29.8864 77.314 29.3887C77.314 28.7835 77.5431 28.3145 78.0015 27.9814C78.4634 27.6449 79.1115 27.4766 79.9458 27.4766H80.9126V27.02C80.9126 26.6727 80.8088 26.397 80.6011 26.1929C80.3934 25.9852 80.0872 25.8813 79.6826 25.8813C79.3281 25.8813 79.0309 25.9709 78.791 26.1499C78.5511 26.3289 78.4312 26.5456 78.4312 26.7998H77.4321C77.4321 26.5098 77.5342 26.2305 77.7383 25.9619C77.946 25.6898 78.2253 25.4749 78.5762 25.3174C78.9307 25.1598 79.3192 25.0811 79.7417 25.0811C80.4113 25.0811 80.9359 25.2493 81.3154 25.5859C81.695 25.9189 81.8919 26.3791 81.9062 26.9663V29.6411C81.9062 30.1746 81.9743 30.599 82.1104 30.9141V31H81.0684ZM79.4194 30.2427C79.731 30.2427 80.0264 30.1621 80.3057 30.001C80.585 29.8398 80.7873 29.6304 80.9126 29.3726V28.1802H80.1338C78.9163 28.1802 78.3076 28.5365 78.3076 29.249C78.3076 29.5605 78.4115 29.804 78.6191 29.9795C78.8268 30.1549 79.0936 30.2427 79.4194 30.2427Z" fill="#555555"/>
<path d="M84.812 23.7812V25.1885H85.897V25.9565H84.812V29.5605C84.812 29.7933 84.8604 29.9688 84.957 30.0869C85.0537 30.2015 85.2184 30.2588 85.4512 30.2588C85.5658 30.2588 85.7233 30.2373 85.9238 30.1943V31C85.6624 31.0716 85.4082 31.1074 85.1611 31.1074C84.7171 31.1074 84.3823 30.9731 84.1567 30.7046C83.9312 30.436 83.8184 30.0547 83.8184 29.5605V25.9565H82.7603V25.1885H83.8184V23.7812H84.812Z" fill="#555555"/>
<path d="M90.6504 31C90.5931 30.8854 90.5465 30.6813 90.5107 30.3877C90.0488 30.8675 89.4974 31.1074 88.8564 31.1074C88.2835 31.1074 87.8127 30.9463 87.4438 30.624C87.0786 30.2982 86.896 29.8864 86.896 29.3887C86.896 28.7835 87.1252 28.3145 87.5835 27.9814C88.0454 27.6449 88.6935 27.4766 89.5278 27.4766H90.4946V27.02C90.4946 26.6727 90.3908 26.397 90.1831 26.1929C89.9754 25.9852 89.6693 25.8813 89.2646 25.8813C88.9102 25.8813 88.613 25.9709 88.373 26.1499C88.1331 26.3289 88.0132 26.5456 88.0132 26.7998H87.0142C87.0142 26.5098 87.1162 26.2305 87.3203 25.9619C87.528 25.6898 87.8073 25.4749 88.1582 25.3174C88.5127 25.1598 88.9012 25.0811 89.3237 25.0811C89.9933 25.0811 90.5179 25.2493 90.8975 25.5859C91.277 25.9189 91.474 26.3791 91.4883 26.9663V29.6411C91.4883 30.1746 91.5563 30.599 91.6924 30.9141V31H90.6504ZM89.0015 30.2427C89.313 30.2427 89.6084 30.1621 89.8877 30.001C90.167 29.8398 90.3693 29.6304 90.4946 29.3726V28.1802H89.7158C88.4984 28.1802 87.8896 28.5365 87.8896 29.249C87.8896 29.5605 87.9935 29.804 88.2012 29.9795C88.4089 30.1549 88.6756 30.2427 89.0015 30.2427Z" fill="#555555"/>
<path d="M11.3979 9.54639H8.11621V13H7.08496V5.17969H11.9297V6.02832H8.11621V8.70312H11.3979V9.54639Z" fill="#EEEEEE"/>
<path d="M16.4146 13C16.3573 12.8854 16.3107 12.6813 16.2749 12.3877C15.813 12.8675 15.2616 13.1074 14.6206 13.1074C14.0477 13.1074 13.5768 12.9463 13.208 12.624C12.8428 12.2982 12.6602 11.8864 12.6602 11.3887C12.6602 10.7835 12.8893 10.3145 13.3477 9.98145C13.8096 9.64486 14.4577 9.47656 15.292 9.47656H16.2588V9.02002C16.2588 8.67269 16.1549 8.39697 15.9473 8.19287C15.7396 7.98519 15.4334 7.88135 15.0288 7.88135C14.6743 7.88135 14.3771 7.97087 14.1372 8.1499C13.8973 8.32894 13.7773 8.54557 13.7773 8.7998H12.7783C12.7783 8.50977 12.8804 8.23047 13.0845 7.96191C13.2922 7.68978 13.5715 7.47493 13.9224 7.31738C14.2769 7.15983 14.6654 7.08105 15.0879 7.08105C15.7575 7.08105 16.2821 7.24935 16.6616 7.58594C17.0412 7.91895 17.2381 8.37907 17.2524 8.96631V11.6411C17.2524 12.1746 17.3205 12.599 17.4565 12.9141V13H16.4146ZM14.7656 12.2427C15.0771 12.2427 15.3726 12.1621 15.6519 12.001C15.9312 11.8398 16.1335 11.6304 16.2588 11.3726V10.1802H15.48C14.2625 10.1802 13.6538 10.5365 13.6538 11.249C13.6538 11.5605 13.7576 11.804 13.9653 11.9795C14.173 12.1549 14.4398 12.2427 14.7656 12.2427Z" fill="#EEEEEE"/>
<path d="M19.8896 13H18.896V7.18848H19.8896V13ZM18.8154 5.64697C18.8154 5.48584 18.8638 5.34977 18.9604 5.23877C19.0607 5.12777 19.2075 5.07227 19.4009 5.07227C19.5942 5.07227 19.741 5.12777 19.8413 5.23877C19.9416 5.34977 19.9917 5.48584 19.9917 5.64697C19.9917 5.80811 19.9416 5.94238 19.8413 6.0498C19.741 6.15723 19.5942 6.21094 19.4009 6.21094C19.2075 6.21094 19.0607 6.15723 18.9604 6.0498C18.8638 5.94238 18.8154 5.80811 18.8154 5.64697Z" fill="#EEEEEE"/>
<path d="M24.2939 8.08008C24.1436 8.05501 23.9806 8.04248 23.8052 8.04248C23.1535 8.04248 22.7113 8.31999 22.4785 8.875V13H21.4849V7.18848H22.4517L22.4678 7.85986C22.7936 7.34066 23.2555 7.08105 23.8535 7.08105C24.0469 7.08105 24.1937 7.10612 24.2939 7.15625V8.08008Z" fill="#EEEEEE"/>
<path d="M33.0864 11.6304L34.2036 7.18848H35.1973L33.5054 13H32.6997L31.2871 8.5957L29.9121 13H29.1064L27.4199 7.18848H28.4082L29.5522 11.5391L30.9058 7.18848H31.7061L33.0864 11.6304Z" fill="#EEEEEE"/>
<path d="M38.624 13.1074C37.8363 13.1074 37.1953 12.8496 36.7012 12.334C36.207 11.8148 35.96 11.1219 35.96 10.2554V10.0728C35.96 9.49626 36.0692 8.98242 36.2876 8.53125C36.5096 8.0765 36.8175 7.72201 37.2114 7.46777C37.6089 7.20996 38.0386 7.08105 38.5005 7.08105C39.256 7.08105 39.8433 7.32992 40.2622 7.82764C40.6812 8.32536 40.8906 9.03792 40.8906 9.96533V10.3789H36.9536C36.9679 10.9518 37.1344 11.4155 37.4531 11.77C37.7754 12.1209 38.1836 12.2964 38.6777 12.2964C39.0286 12.2964 39.3258 12.2248 39.5693 12.0815C39.8128 11.9383 40.0259 11.7485 40.2085 11.5122L40.8154 11.9849C40.3285 12.7332 39.598 13.1074 38.624 13.1074ZM38.5005 7.89746C38.0994 7.89746 37.7629 8.04427 37.4907 8.33789C37.2186 8.62793 37.0503 9.03613 36.9858 9.5625H39.897V9.4873C39.8683 8.98242 39.7323 8.59212 39.4888 8.31641C39.2453 8.03711 38.9159 7.89746 38.5005 7.89746Z" fill="#EEEEEE"/>
<path d="M46.9653 10.1587C46.9653 11.0467 46.7612 11.7611 46.353 12.3018C45.9448 12.8389 45.397 13.1074 44.7095 13.1074C43.9754 13.1074 43.4079 12.8478 43.0068 12.3286L42.9585 13H42.0454V4.75H43.0391V7.82764C43.4401 7.32992 43.9933 7.08105 44.6987 7.08105C45.4041 7.08105 45.9574 7.34782 46.3584 7.88135C46.763 8.41488 46.9653 9.14535 46.9653 10.0728V10.1587ZM45.9717 10.0459C45.9717 9.36914 45.841 8.84635 45.5796 8.47754C45.3182 8.10872 44.9422 7.92432 44.4517 7.92432C43.7964 7.92432 43.3255 8.22868 43.0391 8.8374V11.3511C43.3434 11.9598 43.8179 12.2642 44.4624 12.2642C44.9386 12.2642 45.3092 12.0798 45.5742 11.7109C45.8392 11.3421 45.9717 10.7871 45.9717 10.0459Z" fill="#EEEEEE"/>
<path d="M54.5386 13C54.4813 12.8854 54.4347 12.6813 54.3989 12.3877C53.937 12.8675 53.3856 13.1074 52.7446 13.1074C52.1717 13.1074 51.7008 12.9463 51.332 12.624C50.9668 12.2982 50.7842 11.8864 50.7842 11.3887C50.7842 10.7835 51.0133 10.3145 51.4717 9.98145C51.9336 9.64486 52.5817 9.47656 53.416 9.47656H54.3828V9.02002C54.3828 8.67269 54.279 8.39697 54.0713 8.19287C53.8636 7.98519 53.5575 7.88135 53.1528 7.88135C52.7983 7.88135 52.5011 7.97087 52.2612 8.1499C52.0213 8.32894 51.9014 8.54557 51.9014 8.7998H50.9023C50.9023 8.50977 51.0044 8.23047 51.2085 7.96191C51.4162 7.68978 51.6955 7.47493 52.0464 7.31738C52.4009 7.15983 52.7894 7.08105 53.2119 7.08105C53.8815 7.08105 54.4061 7.24935 54.7856 7.58594C55.1652 7.91895 55.3621 8.37907 55.3765 8.96631V11.6411C55.3765 12.1746 55.4445 12.599 55.5806 12.9141V13H54.5386ZM52.8896 12.2427C53.2012 12.2427 53.4966 12.1621 53.7759 12.001C54.0552 11.8398 54.2575 11.6304 54.3828 11.3726V10.1802H53.604C52.3866 10.1802 51.7778 10.5365 51.7778 11.249C51.7778 11.5605 51.8817 11.804 52.0894 11.9795C52.297 12.1549 52.5638 12.2427 52.8896 12.2427Z" fill="#EEEEEE"/>
<path d="M57.874 7.18848L57.9062 7.91895C58.3503 7.36035 58.9303 7.08105 59.6465 7.08105C60.8747 7.08105 61.4941 7.77393 61.5049 9.15967V13H60.5112V9.1543C60.5076 8.73535 60.411 8.42562 60.2212 8.2251C60.035 8.02458 59.7432 7.92432 59.3457 7.92432C59.0234 7.92432 58.7406 8.01025 58.4971 8.18213C58.2536 8.354 58.0638 8.57959 57.9277 8.85889V13H56.9341V7.18848H57.874Z" fill="#EEEEEE"/>
<path d="M66.5913 13C66.534 12.8854 66.4875 12.6813 66.4517 12.3877C65.9897 12.8675 65.4383 13.1074 64.7974 13.1074C64.2244 13.1074 63.7536 12.9463 63.3848 12.624C63.0195 12.2982 62.8369 11.8864 62.8369 11.3887C62.8369 10.7835 63.0661 10.3145 63.5244 9.98145C63.9863 9.64486 64.6344 9.47656 65.4688 9.47656H66.4355V9.02002C66.4355 8.67269 66.3317 8.39697 66.124 8.19287C65.9163 7.98519 65.6102 7.88135 65.2056 7.88135C64.8511 7.88135 64.5539 7.97087 64.314 8.1499C64.0741 8.32894 63.9541 8.54557 63.9541 8.7998H62.9551C62.9551 8.50977 63.0571 8.23047 63.2612 7.96191C63.4689 7.68978 63.7482 7.47493 64.0991 7.31738C64.4536 7.15983 64.8421 7.08105 65.2646 7.08105C65.9342 7.08105 66.4588 7.24935 66.8384 7.58594C67.2179 7.91895 67.4149 8.37907 67.4292 8.96631V11.6411C67.4292 12.1746 67.4972 12.599 67.6333 12.9141V13H66.5913ZM64.9424 12.2427C65.2539 12.2427 65.5493 12.1621 65.8286 12.001C66.1079 11.8398 66.3102 11.6304 66.4355 11.3726V10.1802H65.6567C64.4393 10.1802 63.8306 10.5365 63.8306 11.249C63.8306 11.5605 63.9344 11.804 64.1421 11.9795C64.3498 12.1549 64.6165 12.2427 64.9424 12.2427Z" fill="#EEEEEE"/>
<path d="M70.0664 13H69.0728V4.75H70.0664V13Z" fill="#EEEEEE"/>
<path d="M73.563 11.5444L74.9165 7.18848H75.98L73.6436 13.897C73.2819 14.8638 72.7072 15.3472 71.9194 15.3472L71.7314 15.3311L71.3608 15.2612V14.4556L71.6294 14.4771C71.966 14.4771 72.2274 14.409 72.4136 14.2729C72.6034 14.1369 72.7591 13.888 72.8809 13.5264L73.1011 12.9355L71.0278 7.18848H72.1128L73.563 11.5444Z" fill="#EEEEEE"/>
<path d="M78.2197 5.78125V7.18848H79.3047V7.95654H78.2197V11.5605C78.2197 11.7933 78.2681 11.9688 78.3647 12.0869C78.4614 12.2015 78.6261 12.2588 78.8589 12.2588C78.9735 12.2588 79.131 12.2373 79.3315 12.1943V13C79.0701 13.0716 78.8159 13.1074 78.5688 13.1074C78.1248 13.1074 77.79 12.9731 77.5645 12.7046C77.3389 12.436 77.2261 12.0547 77.2261 11.5605V7.95654H76.168V7.18848H77.2261V5.78125H78.2197Z" fill="#EEEEEE"/>
<path d="M81.5498 13H80.5562V7.18848H81.5498V13ZM80.4756 5.64697C80.4756 5.48584 80.5239 5.34977 80.6206 5.23877C80.7209 5.12777 80.8677 5.07227 81.061 5.07227C81.2544 5.07227 81.4012 5.12777 81.5015 5.23877C81.6017 5.34977 81.6519 5.48584 81.6519 5.64697C81.6519 5.80811 81.6017 5.94238 81.5015 6.0498C81.4012 6.15723 81.2544 6.21094 81.061 6.21094C80.8677 6.21094 80.7209 6.15723 80.6206 6.0498C80.5239 5.94238 80.4756 5.80811 80.4756 5.64697Z" fill="#EEEEEE"/>
<path d="M85.4761 12.2964C85.8306 12.2964 86.1403 12.189 86.4053 11.9741C86.6702 11.7593 86.8171 11.4907 86.8457 11.1685H87.7856C87.7677 11.5015 87.6532 11.8184 87.4419 12.1191C87.2306 12.4199 86.9478 12.6598 86.5933 12.8389C86.2424 13.0179 85.87 13.1074 85.4761 13.1074C84.6847 13.1074 84.0545 12.8442 83.5854 12.3179C83.12 11.7879 82.8872 11.0646 82.8872 10.1479V9.98145C82.8872 9.41569 82.991 8.9126 83.1987 8.47217C83.4064 8.03174 83.7036 7.68978 84.0903 7.44629C84.4806 7.2028 84.9408 7.08105 85.4707 7.08105C86.1224 7.08105 86.6631 7.2762 87.0928 7.6665C87.526 8.0568 87.757 8.56348 87.7856 9.18652H86.8457C86.8171 8.81055 86.6738 8.5026 86.416 8.2627C86.1618 8.01921 85.8467 7.89746 85.4707 7.89746C84.9658 7.89746 84.5737 8.08008 84.2944 8.44531C84.0187 8.80697 83.8809 9.33154 83.8809 10.019V10.207C83.8809 10.8766 84.0187 11.3923 84.2944 11.7539C84.5701 12.1156 84.964 12.2964 85.4761 12.2964Z" fill="#EEEEEE"/>
<path d="M92.2866 11.4585C92.2866 11.1899 92.1846 10.9823 91.9805 10.8354C91.7799 10.6851 91.4272 10.5562 90.9224 10.4487C90.4211 10.3413 90.0218 10.2124 89.7246 10.062C89.431 9.91162 89.2126 9.73258 89.0693 9.5249C88.9297 9.31722 88.8599 9.07015 88.8599 8.78369C88.8599 8.30745 89.0604 7.90462 89.4614 7.5752C89.866 7.24577 90.3817 7.08105 91.0083 7.08105C91.6672 7.08105 92.2007 7.25114 92.6089 7.59131C93.0207 7.93148 93.2266 8.36654 93.2266 8.89648H92.2275C92.2275 8.62435 92.1112 8.38981 91.8784 8.19287C91.6493 7.99593 91.3592 7.89746 91.0083 7.89746C90.6466 7.89746 90.3638 7.97624 90.1597 8.13379C89.9556 8.29134 89.8535 8.49723 89.8535 8.75146C89.8535 8.99137 89.9484 9.1722 90.1382 9.29395C90.328 9.41569 90.6699 9.53206 91.1641 9.64307C91.6618 9.75407 92.0646 9.88656 92.3726 10.0405C92.6805 10.1945 92.9079 10.3807 93.0547 10.5991C93.2051 10.814 93.2803 11.0771 93.2803 11.3887C93.2803 11.9079 93.0726 12.325 92.6572 12.6401C92.2419 12.9517 91.703 13.1074 91.0405 13.1074C90.575 13.1074 90.1632 13.0251 89.8052 12.8604C89.4471 12.6956 89.166 12.4665 88.9619 12.1729C88.7614 11.8757 88.6611 11.5552 88.6611 11.2114H89.6548C89.6727 11.5444 89.8052 11.8094 90.0522 12.0063C90.3029 12.1997 90.6323 12.2964 91.0405 12.2964C91.4165 12.2964 91.7173 12.2212 91.9429 12.0708C92.172 11.9168 92.2866 11.7127 92.2866 11.4585Z" fill="#EEEEEE"/>
</svg>
