<svg width="268" height="18" viewBox="0 0 268 18" fill="none" xmlns="http://www.w3.org/2000/svg">
<rect x="0.5" y="0.5" width="267" height="17" rx="1.5" fill="#EEEEEE" stroke="#555555"/>
<rect x="102" width="166" height="18" rx="2" fill="#555555"/>
<path d="M111.681 12.1567H116.155V13H110.462V12.2266L114.748 6.02832H110.532V5.17969H115.983V5.93701L111.681 12.1567Z" fill="#EEEEEE"/>
<path d="M120.597 12.4253C120.211 12.88 119.643 13.1074 118.895 13.1074C118.275 13.1074 117.803 12.9284 117.477 12.5703C117.155 12.2087 116.992 11.6751 116.988 10.9697V7.18848H117.982V10.9429C117.982 11.8237 118.34 12.2642 119.056 12.2642C119.815 12.2642 120.32 11.9813 120.571 11.4155V7.18848H121.564V13H120.619L120.597 12.4253Z" fill="#EEEEEE"/>
<path d="M122.623 10.0459C122.623 9.13997 122.832 8.42025 123.251 7.88672C123.67 7.34961 124.225 7.08105 124.916 7.08105C125.625 7.08105 126.178 7.33171 126.576 7.83301L126.624 7.18848H127.532V12.8604C127.532 13.6123 127.308 14.2049 126.86 14.6382C126.416 15.0715 125.818 15.2881 125.066 15.2881C124.647 15.2881 124.237 15.1986 123.836 15.0195C123.435 14.8405 123.129 14.5952 122.918 14.2837L123.434 13.6875C123.86 14.2139 124.381 14.4771 124.997 14.4771C125.48 14.4771 125.856 14.341 126.124 14.0688C126.397 13.7967 126.533 13.4136 126.533 12.9194V12.4199C126.135 12.8783 125.593 13.1074 124.905 13.1074C124.225 13.1074 123.673 12.8335 123.251 12.2856C122.832 11.7378 122.623 10.9912 122.623 10.0459ZM123.622 10.1587C123.622 10.814 123.756 11.3296 124.024 11.7056C124.293 12.078 124.669 12.2642 125.152 12.2642C125.779 12.2642 126.239 11.9795 126.533 11.4102V8.75684C126.228 8.20182 125.772 7.92432 125.163 7.92432C124.68 7.92432 124.302 8.1123 124.03 8.48828C123.758 8.86426 123.622 9.42106 123.622 10.1587Z" fill="#EEEEEE"/>
<path d="M131.625 8.08008C131.474 8.05501 131.311 8.04248 131.136 8.04248C130.484 8.04248 130.042 8.31999 129.809 8.875V13H128.816V7.18848H129.782L129.798 7.85986C130.124 7.34066 130.586 7.08105 131.184 7.08105C131.378 7.08105 131.524 7.10612 131.625 7.15625V8.08008Z" fill="#EEEEEE"/>
<path d="M133.403 13H132.409V7.18848H133.403V13ZM132.328 5.64697C132.328 5.48584 132.377 5.34977 132.474 5.23877C132.574 5.12777 132.721 5.07227 132.914 5.07227C133.107 5.07227 133.254 5.12777 133.354 5.23877C133.455 5.34977 133.505 5.48584 133.505 5.64697C133.505 5.80811 133.455 5.94238 133.354 6.0498C133.254 6.15723 133.107 6.21094 132.914 6.21094C132.721 6.21094 132.574 6.15723 132.474 6.0498C132.377 5.94238 132.328 5.80811 132.328 5.64697Z" fill="#EEEEEE"/>
<path d="M135.267 13V7.95654H134.348V7.18848H135.267V6.59229C135.267 5.96924 135.433 5.48763 135.766 5.14746C136.099 4.80729 136.57 4.63721 137.179 4.63721C137.408 4.63721 137.635 4.66764 137.861 4.72852L137.807 5.53418C137.639 5.50195 137.46 5.48584 137.27 5.48584C136.948 5.48584 136.699 5.58073 136.524 5.77051C136.348 5.95671 136.26 6.22526 136.26 6.57617V7.18848H137.501V7.95654H136.26V13H135.267Z" fill="#EEEEEE"/>
<path d="M138.871 13V7.95654H137.952V7.18848H138.871V6.59229C138.871 5.96924 139.037 5.48763 139.37 5.14746C139.703 4.80729 140.174 4.63721 140.783 4.63721C141.012 4.63721 141.24 4.66764 141.465 4.72852L141.411 5.53418C141.243 5.50195 141.064 5.48584 140.874 5.48584C140.552 5.48584 140.303 5.58073 140.128 5.77051C139.952 5.95671 139.865 6.22526 139.865 6.57617V7.18848H141.105V7.95654H139.865V13H138.871Z" fill="#EEEEEE"/>
<path d="M148.083 13C148.025 12.8854 147.979 12.6813 147.943 12.3877C147.481 12.8675 146.93 13.1074 146.289 13.1074C145.716 13.1074 145.245 12.9463 144.876 12.624C144.511 12.2982 144.328 11.8864 144.328 11.3887C144.328 10.7835 144.558 10.3145 145.016 9.98145C145.478 9.64486 146.126 9.47656 146.96 9.47656H147.927V9.02002C147.927 8.67269 147.823 8.39697 147.615 8.19287C147.408 7.98519 147.102 7.88135 146.697 7.88135C146.343 7.88135 146.045 7.97087 145.805 8.1499C145.566 8.32894 145.446 8.54557 145.446 8.7998H144.447C144.447 8.50977 144.549 8.23047 144.753 7.96191C144.96 7.68978 145.24 7.47493 145.591 7.31738C145.945 7.15983 146.334 7.08105 146.756 7.08105C147.426 7.08105 147.95 7.24935 148.33 7.58594C148.709 7.91895 148.906 8.37907 148.921 8.96631V11.6411C148.921 12.1746 148.989 12.599 149.125 12.9141V13H148.083ZM146.434 12.2427C146.745 12.2427 147.041 12.1621 147.32 12.001C147.599 11.8398 147.802 11.6304 147.927 11.3726V10.1802H147.148C145.931 10.1802 145.322 10.5365 145.322 11.249C145.322 11.5605 145.426 11.804 145.634 11.9795C145.841 12.1549 146.108 12.2427 146.434 12.2427Z" fill="#EEEEEE"/>
<path d="M153.846 12.4253C153.459 12.88 152.892 13.1074 152.144 13.1074C151.524 13.1074 151.051 12.9284 150.726 12.5703C150.403 12.2087 150.24 11.6751 150.237 10.9697V7.18848H151.23V10.9429C151.23 11.8237 151.589 12.2642 152.305 12.2642C153.064 12.2642 153.569 11.9813 153.819 11.4155V7.18848H154.813V13H153.868L153.846 12.4253Z" fill="#EEEEEE"/>
<path d="M156.596 13V7.95654H155.678V7.18848H156.596V6.59229C156.596 5.96924 156.763 5.48763 157.096 5.14746C157.429 4.80729 157.9 4.63721 158.508 4.63721C158.738 4.63721 158.965 4.66764 159.191 4.72852L159.137 5.53418C158.969 5.50195 158.79 5.48584 158.6 5.48584C158.278 5.48584 158.029 5.58073 157.853 5.77051C157.678 5.95671 157.59 6.22526 157.59 6.57617V7.18848H158.831V7.95654H157.59V13H156.596Z" fill="#EEEEEE"/>
<path d="M161.979 10.0459C161.979 9.1543 162.19 8.43815 162.612 7.89746C163.035 7.35319 163.588 7.08105 164.272 7.08105C164.952 7.08105 165.491 7.3138 165.889 7.7793V4.75H166.882V13H165.969L165.921 12.377C165.524 12.8639 164.97 13.1074 164.261 13.1074C163.588 13.1074 163.039 12.8317 162.612 12.2803C162.19 11.7288 161.979 11.0091 161.979 10.1211V10.0459ZM162.972 10.1587C162.972 10.8175 163.108 11.3332 163.381 11.7056C163.653 12.078 164.029 12.2642 164.508 12.2642C165.139 12.2642 165.599 11.9813 165.889 11.4155V8.74609C165.592 8.19824 165.135 7.92432 164.519 7.92432C164.032 7.92432 163.653 8.1123 163.381 8.48828C163.108 8.86426 162.972 9.42106 162.972 10.1587Z" fill="#EEEEEE"/>
<path d="M170.621 13.1074C169.833 13.1074 169.192 12.8496 168.698 12.334C168.204 11.8148 167.957 11.1219 167.957 10.2554V10.0728C167.957 9.49626 168.066 8.98242 168.285 8.53125C168.507 8.0765 168.814 7.72201 169.208 7.46777C169.606 7.20996 170.036 7.08105 170.497 7.08105C171.253 7.08105 171.84 7.32992 172.259 7.82764C172.678 8.32536 172.888 9.03792 172.888 9.96533V10.3789H168.951C168.965 10.9518 169.131 11.4155 169.45 11.77C169.772 12.1209 170.181 12.2964 170.675 12.2964C171.026 12.2964 171.323 12.2248 171.566 12.0815C171.81 11.9383 172.023 11.7485 172.205 11.5122L172.812 11.9849C172.325 12.7332 171.595 13.1074 170.621 13.1074ZM170.497 7.89746C170.096 7.89746 169.76 8.04427 169.488 8.33789C169.216 8.62793 169.047 9.03613 168.983 9.5625H171.894V9.4873C171.865 8.98242 171.729 8.59212 171.486 8.31641C171.242 8.03711 170.913 7.89746 170.497 7.89746Z" fill="#EEEEEE"/>
<path d="M174.902 13H173.908V7.18848H174.902V13ZM173.828 5.64697C173.828 5.48584 173.876 5.34977 173.973 5.23877C174.073 5.12777 174.22 5.07227 174.413 5.07227C174.607 5.07227 174.753 5.12777 174.854 5.23877C174.954 5.34977 175.004 5.48584 175.004 5.64697C175.004 5.80811 174.954 5.94238 174.854 6.0498C174.753 6.15723 174.607 6.21094 174.413 6.21094C174.22 6.21094 174.073 6.15723 173.973 6.0498C173.876 5.94238 173.828 5.80811 173.828 5.64697Z" fill="#EEEEEE"/>
<path d="M177.217 7.18848L177.249 7.91895C177.693 7.36035 178.273 7.08105 178.99 7.08105C180.218 7.08105 180.837 7.77393 180.848 9.15967V13H179.854V9.1543C179.851 8.73535 179.754 8.42562 179.564 8.2251C179.378 8.02458 179.086 7.92432 178.689 7.92432C178.367 7.92432 178.084 8.01025 177.84 8.18213C177.597 8.354 177.407 8.57959 177.271 8.85889V13H176.277V7.18848H177.217Z" fill="#EEEEEE"/>
<path d="M184.538 13.1074C183.75 13.1074 183.109 12.8496 182.615 12.334C182.121 11.8148 181.874 11.1219 181.874 10.2554V10.0728C181.874 9.49626 181.983 8.98242 182.202 8.53125C182.424 8.0765 182.732 7.72201 183.126 7.46777C183.523 7.20996 183.953 7.08105 184.415 7.08105C185.17 7.08105 185.757 7.32992 186.176 7.82764C186.595 8.32536 186.805 9.03792 186.805 9.96533V10.3789H182.868C182.882 10.9518 183.049 11.4155 183.367 11.77C183.689 12.1209 184.098 12.2964 184.592 12.2964C184.943 12.2964 185.24 12.2248 185.483 12.0815C185.727 11.9383 185.94 11.7485 186.123 11.5122L186.73 11.9849C186.243 12.7332 185.512 13.1074 184.538 13.1074ZM184.415 7.89746C184.014 7.89746 183.677 8.04427 183.405 8.33789C183.133 8.62793 182.964 9.03613 182.9 9.5625H185.811V9.4873C185.782 8.98242 185.646 8.59212 185.403 8.31641C185.159 8.03711 184.83 7.89746 184.415 7.89746Z" fill="#EEEEEE"/>
<path d="M196.414 13H195.377L191.44 6.97363V13H190.404V5.17969H191.44L195.388 11.2329V5.17969H196.414V13Z" fill="#EEEEEE"/>
<path d="M201.458 12.4253C201.071 12.88 200.503 13.1074 199.755 13.1074C199.136 13.1074 198.663 12.9284 198.337 12.5703C198.015 12.2087 197.852 11.6751 197.848 10.9697V7.18848H198.842V10.9429C198.842 11.8237 199.2 12.2642 199.916 12.2642C200.675 12.2642 201.18 11.9813 201.431 11.4155V7.18848H202.424V13H201.479L201.458 12.4253Z" fill="#EEEEEE"/>
<path d="M205.067 5.78125V7.18848H206.152V7.95654H205.067V11.5605C205.067 11.7933 205.116 11.9688 205.212 12.0869C205.309 12.2015 205.474 12.2588 205.706 12.2588C205.821 12.2588 205.979 12.2373 206.179 12.1943V13C205.918 13.0716 205.663 13.1074 205.416 13.1074C204.972 13.1074 204.638 12.9731 204.412 12.7046C204.186 12.436 204.074 12.0547 204.074 11.5605V7.95654H203.016V7.18848H204.074V5.78125H205.067Z" fill="#EEEEEE"/>
<path d="M208.032 12.189H211.432V13H206.818V12.2695L210.025 8.01025H206.867V7.18848H211.271V7.89209L208.032 12.189Z" fill="#EEEEEE"/>
<path d="M215.923 12.4253C215.536 12.88 214.968 13.1074 214.22 13.1074C213.601 13.1074 213.128 12.9284 212.802 12.5703C212.48 12.2087 212.317 11.6751 212.313 10.9697V7.18848H213.307V10.9429C213.307 11.8237 213.665 12.2642 214.381 12.2642C215.14 12.2642 215.645 11.9813 215.896 11.4155V7.18848H216.889V13H215.944L215.923 12.4253Z" fill="#EEEEEE"/>
<path d="M219.124 7.18848L219.156 7.91895C219.6 7.36035 220.18 7.08105 220.897 7.08105C222.125 7.08105 222.744 7.77393 222.755 9.15967V13H221.761V9.1543C221.758 8.73535 221.661 8.42562 221.471 8.2251C221.285 8.02458 220.993 7.92432 220.596 7.92432C220.273 7.92432 219.991 8.01025 219.747 8.18213C219.504 8.354 219.314 8.57959 219.178 8.85889V13H218.184V7.18848H219.124Z" fill="#EEEEEE"/>
<path d="M223.797 10.0459C223.797 9.13997 224.007 8.42025 224.426 7.88672C224.845 7.34961 225.4 7.08105 226.091 7.08105C226.8 7.08105 227.353 7.33171 227.75 7.83301L227.799 7.18848H228.706V12.8604C228.706 13.6123 228.483 14.2049 228.035 14.6382C227.591 15.0715 226.993 15.2881 226.241 15.2881C225.822 15.2881 225.412 15.1986 225.011 15.0195C224.61 14.8405 224.304 14.5952 224.093 14.2837L224.608 13.6875C225.034 14.2139 225.555 14.4771 226.171 14.4771C226.655 14.4771 227.031 14.341 227.299 14.0688C227.571 13.7967 227.707 13.4136 227.707 12.9194V12.4199C227.31 12.8783 226.767 13.1074 226.08 13.1074C225.4 13.1074 224.848 12.8335 224.426 12.2856C224.007 11.7378 223.797 10.9912 223.797 10.0459ZM224.796 10.1587C224.796 10.814 224.93 11.3296 225.199 11.7056C225.468 12.078 225.844 12.2642 226.327 12.2642C226.954 12.2642 227.414 11.9795 227.707 11.4102V8.75684C227.403 8.20182 226.946 7.92432 226.338 7.92432C225.854 7.92432 225.477 8.1123 225.204 8.48828C224.932 8.86426 224.796 9.42106 224.796 10.1587Z" fill="#EEEEEE"/>
<path d="M233.374 11.4585C233.374 11.1899 233.272 10.9823 233.068 10.8354C232.867 10.6851 232.515 10.5562 232.01 10.4487C231.508 10.3413 231.109 10.2124 230.812 10.062C230.518 9.91162 230.3 9.73258 230.157 9.5249C230.017 9.31722 229.947 9.07015 229.947 8.78369C229.947 8.30745 230.148 7.90462 230.549 7.5752C230.953 7.24577 231.469 7.08105 232.096 7.08105C232.755 7.08105 233.288 7.25114 233.696 7.59131C234.108 7.93148 234.314 8.36654 234.314 8.89648H233.315C233.315 8.62435 233.199 8.38981 232.966 8.19287C232.737 7.99593 232.447 7.89746 232.096 7.89746C231.734 7.89746 231.451 7.97624 231.247 8.13379C231.043 8.29134 230.941 8.49723 230.941 8.75146C230.941 8.99137 231.036 9.1722 231.226 9.29395C231.415 9.41569 231.757 9.53206 232.251 9.64307C232.749 9.75407 233.152 9.88656 233.46 10.0405C233.768 10.1945 233.995 10.3807 234.142 10.5991C234.292 10.814 234.368 11.0771 234.368 11.3887C234.368 11.9079 234.16 12.325 233.745 12.6401C233.329 12.9517 232.79 13.1074 232.128 13.1074C231.662 13.1074 231.251 13.0251 230.893 12.8604C230.535 12.6956 230.253 12.4665 230.049 12.1729C229.849 11.8757 229.749 11.5552 229.749 11.2114H230.742C230.76 11.5444 230.893 11.8094 231.14 12.0063C231.39 12.1997 231.72 12.2964 232.128 12.2964C232.504 12.2964 232.805 12.2212 233.03 12.0708C233.259 11.9168 233.374 11.7127 233.374 11.4585Z" fill="#EEEEEE"/>
<path d="M235.2 10.0459C235.2 9.1543 235.412 8.43815 235.834 7.89746C236.257 7.35319 236.81 7.08105 237.494 7.08105C238.174 7.08105 238.713 7.3138 239.111 7.7793V4.75H240.104V13H239.191L239.143 12.377C238.745 12.8639 238.192 13.1074 237.483 13.1074C236.81 13.1074 236.26 12.8317 235.834 12.2803C235.412 11.7288 235.2 11.0091 235.2 10.1211V10.0459ZM236.194 10.1587C236.194 10.8175 236.33 11.3332 236.602 11.7056C236.874 12.078 237.25 12.2642 237.73 12.2642C238.36 12.2642 238.821 11.9813 239.111 11.4155V8.74609C238.813 8.19824 238.357 7.92432 237.741 7.92432C237.254 7.92432 236.874 8.1123 236.602 8.48828C236.33 8.86426 236.194 9.42106 236.194 10.1587Z" fill="#EEEEEE"/>
<path d="M245.019 13C244.962 12.8854 244.915 12.6813 244.879 12.3877C244.417 12.8675 243.866 13.1074 243.225 13.1074C242.652 13.1074 242.181 12.9463 241.812 12.624C241.447 12.2982 241.265 11.8864 241.265 11.3887C241.265 10.7835 241.494 10.3145 241.952 9.98145C242.414 9.64486 243.062 9.47656 243.896 9.47656H244.863V9.02002C244.863 8.67269 244.759 8.39697 244.552 8.19287C244.344 7.98519 244.038 7.88135 243.633 7.88135C243.279 7.88135 242.982 7.97087 242.742 8.1499C242.502 8.32894 242.382 8.54557 242.382 8.7998H241.383C241.383 8.50977 241.485 8.23047 241.689 7.96191C241.897 7.68978 242.176 7.47493 242.527 7.31738C242.881 7.15983 243.27 7.08105 243.692 7.08105C244.362 7.08105 244.886 7.24935 245.266 7.58594C245.646 7.91895 245.843 8.37907 245.857 8.96631V11.6411C245.857 12.1746 245.925 12.599 246.061 12.9141V13H245.019ZM243.37 12.2427C243.682 12.2427 243.977 12.1621 244.256 12.001C244.536 11.8398 244.738 11.6304 244.863 11.3726V10.1802H244.084C242.867 10.1802 242.258 10.5365 242.258 11.249C242.258 11.5605 242.362 11.804 242.57 11.9795C242.777 12.1549 243.044 12.2427 243.37 12.2427Z" fill="#EEEEEE"/>
<path d="M248.543 5.78125V7.18848H249.628V7.95654H248.543V11.5605C248.543 11.7933 248.591 11.9688 248.688 12.0869C248.784 12.2015 248.949 12.2588 249.182 12.2588C249.296 12.2588 249.454 12.2373 249.654 12.1943V13C249.393 13.0716 249.139 13.1074 248.892 13.1074C248.448 13.1074 248.113 12.9731 247.887 12.7046C247.662 12.436 247.549 12.0547 247.549 11.5605V7.95654H246.491V7.18848H247.549V5.78125H248.543Z" fill="#EEEEEE"/>
<path d="M252.985 13.1074C252.197 13.1074 251.556 12.8496 251.062 12.334C250.568 11.8148 250.321 11.1219 250.321 10.2554V10.0728C250.321 9.49626 250.43 8.98242 250.648 8.53125C250.87 8.0765 251.178 7.72201 251.572 7.46777C251.97 7.20996 252.399 7.08105 252.861 7.08105C253.617 7.08105 254.204 7.32992 254.623 7.82764C255.042 8.32536 255.251 9.03792 255.251 9.96533V10.3789H251.314C251.329 10.9518 251.495 11.4155 251.814 11.77C252.136 12.1209 252.544 12.2964 253.038 12.2964C253.389 12.2964 253.687 12.2248 253.93 12.0815C254.174 11.9383 254.387 11.7485 254.569 11.5122L255.176 11.9849C254.689 12.7332 253.959 13.1074 252.985 13.1074ZM252.861 7.89746C252.46 7.89746 252.124 8.04427 251.851 8.33789C251.579 8.62793 251.411 9.03613 251.347 9.5625H254.258V9.4873C254.229 8.98242 254.093 8.59212 253.849 8.31641C253.606 8.03711 253.277 7.89746 252.861 7.89746Z" fill="#EEEEEE"/>
<path d="M257.126 7.18848L257.158 7.91895C257.602 7.36035 258.182 7.08105 258.899 7.08105C260.127 7.08105 260.746 7.77393 260.757 9.15967V13H259.763V9.1543C259.76 8.73535 259.663 8.42562 259.473 8.2251C259.287 8.02458 258.995 7.92432 258.598 7.92432C258.275 7.92432 257.993 8.01025 257.749 8.18213C257.506 8.354 257.316 8.57959 257.18 8.85889V13H256.186V7.18848H257.126Z" fill="#EEEEEE"/>
<path d="M13.3979 9.54639H10.1162V13H9.08496V5.17969H13.9297V6.02832H10.1162V8.70312H13.3979V9.54639Z" fill="#555555"/>
<path d="M18.4146 13C18.3573 12.8854 18.3107 12.6813 18.2749 12.3877C17.813 12.8675 17.2616 13.1074 16.6206 13.1074C16.0477 13.1074 15.5768 12.9463 15.208 12.624C14.8428 12.2982 14.6602 11.8864 14.6602 11.3887C14.6602 10.7835 14.8893 10.3145 15.3477 9.98145C15.8096 9.64486 16.4577 9.47656 17.292 9.47656H18.2588V9.02002C18.2588 8.67269 18.1549 8.39697 17.9473 8.19287C17.7396 7.98519 17.4334 7.88135 17.0288 7.88135C16.6743 7.88135 16.3771 7.97087 16.1372 8.1499C15.8973 8.32894 15.7773 8.54557 15.7773 8.7998H14.7783C14.7783 8.50977 14.8804 8.23047 15.0845 7.96191C15.2922 7.68978 15.5715 7.47493 15.9224 7.31738C16.2769 7.15983 16.6654 7.08105 17.0879 7.08105C17.7575 7.08105 18.2821 7.24935 18.6616 7.58594C19.0412 7.91895 19.2381 8.37907 19.2524 8.96631V11.6411C19.2524 12.1746 19.3205 12.599 19.4565 12.9141V13H18.4146ZM16.7656 12.2427C17.0771 12.2427 17.3726 12.1621 17.6519 12.001C17.9312 11.8398 18.1335 11.6304 18.2588 11.3726V10.1802H17.48C16.2625 10.1802 15.6538 10.5365 15.6538 11.249C15.6538 11.5605 15.7576 11.804 15.9653 11.9795C16.173 12.1549 16.4398 12.2427 16.7656 12.2427Z" fill="#555555"/>
<path d="M21.8896 13H20.896V7.18848H21.8896V13ZM20.8154 5.64697C20.8154 5.48584 20.8638 5.34977 20.9604 5.23877C21.0607 5.12777 21.2075 5.07227 21.4009 5.07227C21.5942 5.07227 21.741 5.12777 21.8413 5.23877C21.9416 5.34977 21.9917 5.48584 21.9917 5.64697C21.9917 5.80811 21.9416 5.94238 21.8413 6.0498C21.741 6.15723 21.5942 6.21094 21.4009 6.21094C21.2075 6.21094 21.0607 6.15723 20.9604 6.0498C20.8638 5.94238 20.8154 5.80811 20.8154 5.64697Z" fill="#555555"/>
<path d="M26.2939 8.08008C26.1436 8.05501 25.9806 8.04248 25.8052 8.04248C25.1535 8.04248 24.7113 8.31999 24.4785 8.875V13H23.4849V7.18848H24.4517L24.4678 7.85986C24.7936 7.34066 25.2555 7.08105 25.8535 7.08105C26.0469 7.08105 26.1937 7.10612 26.2939 7.15625V8.08008Z" fill="#555555"/>
<path d="M35.0864 11.6304L36.2036 7.18848H37.1973L35.5054 13H34.6997L33.2871 8.5957L31.9121 13H31.1064L29.4199 7.18848H30.4082L31.5522 11.5391L32.9058 7.18848H33.7061L35.0864 11.6304Z" fill="#555555"/>
<path d="M40.624 13.1074C39.8363 13.1074 39.1953 12.8496 38.7012 12.334C38.207 11.8148 37.96 11.1219 37.96 10.2554V10.0728C37.96 9.49626 38.0692 8.98242 38.2876 8.53125C38.5096 8.0765 38.8175 7.72201 39.2114 7.46777C39.6089 7.20996 40.0386 7.08105 40.5005 7.08105C41.256 7.08105 41.8433 7.32992 42.2622 7.82764C42.6812 8.32536 42.8906 9.03792 42.8906 9.96533V10.3789H38.9536C38.9679 10.9518 39.1344 11.4155 39.4531 11.77C39.7754 12.1209 40.1836 12.2964 40.6777 12.2964C41.0286 12.2964 41.3258 12.2248 41.5693 12.0815C41.8128 11.9383 42.0259 11.7485 42.2085 11.5122L42.8154 11.9849C42.3285 12.7332 41.598 13.1074 40.624 13.1074ZM40.5005 7.89746C40.0994 7.89746 39.7629 8.04427 39.4907 8.33789C39.2186 8.62793 39.0503 9.03613 38.9858 9.5625H41.897V9.4873C41.8683 8.98242 41.7323 8.59212 41.4888 8.31641C41.2453 8.03711 40.9159 7.89746 40.5005 7.89746Z" fill="#555555"/>
<path d="M48.9653 10.1587C48.9653 11.0467 48.7612 11.7611 48.353 12.3018C47.9448 12.8389 47.397 13.1074 46.7095 13.1074C45.9754 13.1074 45.4079 12.8478 45.0068 12.3286L44.9585 13H44.0454V4.75H45.0391V7.82764C45.4401 7.32992 45.9933 7.08105 46.6987 7.08105C47.4041 7.08105 47.9574 7.34782 48.3584 7.88135C48.763 8.41488 48.9653 9.14535 48.9653 10.0728V10.1587ZM47.9717 10.0459C47.9717 9.36914 47.841 8.84635 47.5796 8.47754C47.3182 8.10872 46.9422 7.92432 46.4517 7.92432C45.7964 7.92432 45.3255 8.22868 45.0391 8.8374V11.3511C45.3434 11.9598 45.8179 12.2642 46.4624 12.2642C46.9386 12.2642 47.3092 12.0798 47.5742 11.7109C47.8392 11.3421 47.9717 10.7871 47.9717 10.0459Z" fill="#555555"/>
<path d="M56.5386 13C56.4813 12.8854 56.4347 12.6813 56.3989 12.3877C55.937 12.8675 55.3856 13.1074 54.7446 13.1074C54.1717 13.1074 53.7008 12.9463 53.332 12.624C52.9668 12.2982 52.7842 11.8864 52.7842 11.3887C52.7842 10.7835 53.0133 10.3145 53.4717 9.98145C53.9336 9.64486 54.5817 9.47656 55.416 9.47656H56.3828V9.02002C56.3828 8.67269 56.279 8.39697 56.0713 8.19287C55.8636 7.98519 55.5575 7.88135 55.1528 7.88135C54.7983 7.88135 54.5011 7.97087 54.2612 8.1499C54.0213 8.32894 53.9014 8.54557 53.9014 8.7998H52.9023C52.9023 8.50977 53.0044 8.23047 53.2085 7.96191C53.4162 7.68978 53.6955 7.47493 54.0464 7.31738C54.4009 7.15983 54.7894 7.08105 55.2119 7.08105C55.8815 7.08105 56.4061 7.24935 56.7856 7.58594C57.1652 7.91895 57.3621 8.37907 57.3765 8.96631V11.6411C57.3765 12.1746 57.4445 12.599 57.5806 12.9141V13H56.5386ZM54.8896 12.2427C55.2012 12.2427 55.4966 12.1621 55.7759 12.001C56.0552 11.8398 56.2575 11.6304 56.3828 11.3726V10.1802H55.604C54.3866 10.1802 53.7778 10.5365 53.7778 11.249C53.7778 11.5605 53.8817 11.804 54.0894 11.9795C54.297 12.1549 54.5638 12.2427 54.8896 12.2427Z" fill="#555555"/>
<path d="M59.874 7.18848L59.9062 7.91895C60.3503 7.36035 60.9303 7.08105 61.6465 7.08105C62.8747 7.08105 63.4941 7.77393 63.5049 9.15967V13H62.5112V9.1543C62.5076 8.73535 62.411 8.42562 62.2212 8.2251C62.035 8.02458 61.7432 7.92432 61.3457 7.92432C61.0234 7.92432 60.7406 8.01025 60.4971 8.18213C60.2536 8.354 60.0638 8.57959 59.9277 8.85889V13H58.9341V7.18848H59.874Z" fill="#555555"/>
<path d="M68.5913 13C68.534 12.8854 68.4875 12.6813 68.4517 12.3877C67.9897 12.8675 67.4383 13.1074 66.7974 13.1074C66.2244 13.1074 65.7536 12.9463 65.3848 12.624C65.0195 12.2982 64.8369 11.8864 64.8369 11.3887C64.8369 10.7835 65.0661 10.3145 65.5244 9.98145C65.9863 9.64486 66.6344 9.47656 67.4688 9.47656H68.4355V9.02002C68.4355 8.67269 68.3317 8.39697 68.124 8.19287C67.9163 7.98519 67.6102 7.88135 67.2056 7.88135C66.8511 7.88135 66.5539 7.97087 66.314 8.1499C66.0741 8.32894 65.9541 8.54557 65.9541 8.7998H64.9551C64.9551 8.50977 65.0571 8.23047 65.2612 7.96191C65.4689 7.68978 65.7482 7.47493 66.0991 7.31738C66.4536 7.15983 66.8421 7.08105 67.2646 7.08105C67.9342 7.08105 68.4588 7.24935 68.8384 7.58594C69.2179 7.91895 69.4149 8.37907 69.4292 8.96631V11.6411C69.4292 12.1746 69.4972 12.599 69.6333 12.9141V13H68.5913ZM66.9424 12.2427C67.2539 12.2427 67.5493 12.1621 67.8286 12.001C68.1079 11.8398 68.3102 11.6304 68.4355 11.3726V10.1802H67.6567C66.4393 10.1802 65.8306 10.5365 65.8306 11.249C65.8306 11.5605 65.9344 11.804 66.1421 11.9795C66.3498 12.1549 66.6165 12.2427 66.9424 12.2427Z" fill="#555555"/>
<path d="M72.0664 13H71.0728V4.75H72.0664V13Z" fill="#555555"/>
<path d="M75.563 11.5444L76.9165 7.18848H77.98L75.6436 13.897C75.2819 14.8638 74.7072 15.3472 73.9194 15.3472L73.7314 15.3311L73.3608 15.2612V14.4556L73.6294 14.4771C73.966 14.4771 74.2274 14.409 74.4136 14.2729C74.6034 14.1369 74.7591 13.888 74.8809 13.5264L75.1011 12.9355L73.0278 7.18848H74.1128L75.563 11.5444Z" fill="#555555"/>
<path d="M80.2197 5.78125V7.18848H81.3047V7.95654H80.2197V11.5605C80.2197 11.7933 80.2681 11.9688 80.3647 12.0869C80.4614 12.2015 80.6261 12.2588 80.8589 12.2588C80.9735 12.2588 81.131 12.2373 81.3315 12.1943V13C81.0701 13.0716 80.8159 13.1074 80.5688 13.1074C80.1248 13.1074 79.79 12.9731 79.5645 12.7046C79.3389 12.436 79.2261 12.0547 79.2261 11.5605V7.95654H78.168V7.18848H79.2261V5.78125H80.2197Z" fill="#555555"/>
<path d="M83.5498 13H82.5562V7.18848H83.5498V13ZM82.4756 5.64697C82.4756 5.48584 82.5239 5.34977 82.6206 5.23877C82.7209 5.12777 82.8677 5.07227 83.061 5.07227C83.2544 5.07227 83.4012 5.12777 83.5015 5.23877C83.6017 5.34977 83.6519 5.48584 83.6519 5.64697C83.6519 5.80811 83.6017 5.94238 83.5015 6.0498C83.4012 6.15723 83.2544 6.21094 83.061 6.21094C82.8677 6.21094 82.7209 6.15723 82.6206 6.0498C82.5239 5.94238 82.4756 5.80811 82.4756 5.64697Z" fill="#555555"/>
<path d="M87.4761 12.2964C87.8306 12.2964 88.1403 12.189 88.4053 11.9741C88.6702 11.7593 88.8171 11.4907 88.8457 11.1685H89.7856C89.7677 11.5015 89.6532 11.8184 89.4419 12.1191C89.2306 12.4199 88.9478 12.6598 88.5933 12.8389C88.2424 13.0179 87.87 13.1074 87.4761 13.1074C86.6847 13.1074 86.0545 12.8442 85.5854 12.3179C85.12 11.7879 84.8872 11.0646 84.8872 10.1479V9.98145C84.8872 9.41569 84.991 8.9126 85.1987 8.47217C85.4064 8.03174 85.7036 7.68978 86.0903 7.44629C86.4806 7.2028 86.9408 7.08105 87.4707 7.08105C88.1224 7.08105 88.6631 7.2762 89.0928 7.6665C89.526 8.0568 89.757 8.56348 89.7856 9.18652H88.8457C88.8171 8.81055 88.6738 8.5026 88.416 8.2627C88.1618 8.01921 87.8467 7.89746 87.4707 7.89746C86.9658 7.89746 86.5737 8.08008 86.2944 8.44531C86.0187 8.80697 85.8809 9.33154 85.8809 10.019V10.207C85.8809 10.8766 86.0187 11.3923 86.2944 11.7539C86.5701 12.1156 86.964 12.2964 87.4761 12.2964Z" fill="#555555"/>
<path d="M94.2866 11.4585C94.2866 11.1899 94.1846 10.9823 93.9805 10.8354C93.7799 10.6851 93.4272 10.5562 92.9224 10.4487C92.4211 10.3413 92.0218 10.2124 91.7246 10.062C91.431 9.91162 91.2126 9.73258 91.0693 9.5249C90.9297 9.31722 90.8599 9.07015 90.8599 8.78369C90.8599 8.30745 91.0604 7.90462 91.4614 7.5752C91.866 7.24577 92.3817 7.08105 93.0083 7.08105C93.6672 7.08105 94.2007 7.25114 94.6089 7.59131C95.0207 7.93148 95.2266 8.36654 95.2266 8.89648H94.2275C94.2275 8.62435 94.1112 8.38981 93.8784 8.19287C93.6493 7.99593 93.3592 7.89746 93.0083 7.89746C92.6466 7.89746 92.3638 7.97624 92.1597 8.13379C91.9556 8.29134 91.8535 8.49723 91.8535 8.75146C91.8535 8.99137 91.9484 9.1722 92.1382 9.29395C92.328 9.41569 92.6699 9.53206 93.1641 9.64307C93.6618 9.75407 94.0646 9.88656 94.3726 10.0405C94.6805 10.1945 94.9079 10.3807 95.0547 10.5991C95.2051 10.814 95.2803 11.0771 95.2803 11.3887C95.2803 11.9079 95.0726 12.325 94.6572 12.6401C94.2419 12.9517 93.703 13.1074 93.0405 13.1074C92.575 13.1074 92.1632 13.0251 91.8052 12.8604C91.4471 12.6956 91.166 12.4665 90.9619 12.1729C90.7614 11.8757 90.6611 11.5552 90.6611 11.2114H91.6548C91.6727 11.5444 91.8052 11.8094 92.0522 12.0063C92.3029 12.1997 92.6323 12.2964 93.0405 12.2964C93.4165 12.2964 93.7173 12.2212 93.9429 12.0708C94.172 11.9168 94.2866 11.7127 94.2866 11.4585Z" fill="#555555"/>
</svg>
