<svg width="248" height="18" viewBox="0 0 248 18" fill="none" xmlns="http://www.w3.org/2000/svg">
<path d="M0 2C0 0.89543 0.895431 0 2 0H246C247.105 0 248 0.895431 248 2V16C248 17.1046 247.105 18 246 18H2C0.895429 18 0 17.1046 0 16V2Z" fill="#EEEEEE"/>
<path d="M102 2C102 0.89543 102.895 0 104 0H246C247.105 0 248 0.895431 248 2V16C248 17.1046 247.105 18 246 18H104C102.895 18 102 17.1046 102 16V2Z" fill="#555555"/>
<path d="M113.803 5.87256L111.214 13H110.156L113.137 5.17969H113.819L113.803 5.87256ZM115.973 13L113.378 5.87256L113.362 5.17969H114.044L117.036 13H115.973ZM115.838 10.105V10.9536H111.445V10.105H115.838Z" fill="#EEEEEE"/>
<path d="M120.039 12.291C120.275 12.291 120.494 12.2427 120.694 12.146C120.895 12.0493 121.059 11.9168 121.188 11.7485C121.317 11.5767 121.391 11.3815 121.408 11.1631H122.354C122.336 11.5068 122.219 11.8273 122.005 12.1245C121.793 12.4181 121.516 12.6562 121.172 12.8389C120.828 13.0179 120.451 13.1074 120.039 13.1074C119.602 13.1074 119.221 13.0304 118.895 12.8765C118.572 12.7225 118.304 12.5112 118.089 12.2427C117.878 11.9741 117.718 11.6662 117.611 11.3188C117.507 10.9679 117.455 10.5973 117.455 10.207V9.98145C117.455 9.59115 117.507 9.22233 117.611 8.875C117.718 8.52409 117.878 8.21436 118.089 7.9458C118.304 7.67725 118.572 7.46598 118.895 7.31201C119.221 7.15804 119.602 7.08105 120.039 7.08105C120.494 7.08105 120.891 7.17415 121.231 7.36035C121.571 7.54297 121.838 7.79362 122.031 8.1123C122.228 8.42741 122.336 8.78548 122.354 9.18652H121.408C121.391 8.94661 121.322 8.72998 121.204 8.53662C121.09 8.34326 120.932 8.18929 120.732 8.07471C120.535 7.95654 120.304 7.89746 120.039 7.89746C119.734 7.89746 119.478 7.95833 119.271 8.08008C119.067 8.19824 118.904 8.35938 118.782 8.56348C118.664 8.764 118.578 8.98779 118.524 9.23486C118.474 9.47835 118.449 9.72721 118.449 9.98145V10.207C118.449 10.4613 118.474 10.7119 118.524 10.959C118.574 11.2061 118.658 11.4299 118.777 11.6304C118.898 11.8309 119.061 11.992 119.265 12.1138C119.473 12.2319 119.731 12.291 120.039 12.291Z" fill="#EEEEEE"/>
<path d="M125.663 13.1074C125.258 13.1074 124.891 13.0394 124.561 12.9033C124.236 12.7637 123.955 12.5685 123.718 12.3179C123.485 12.0672 123.306 11.77 123.181 11.4263C123.056 11.0825 122.993 10.7065 122.993 10.2983V10.0728C122.993 9.6001 123.063 9.17936 123.203 8.81055C123.342 8.43815 123.532 8.12305 123.772 7.86523C124.012 7.60742 124.284 7.41227 124.588 7.27979C124.893 7.1473 125.208 7.08105 125.534 7.08105C125.949 7.08105 126.307 7.15267 126.608 7.2959C126.912 7.43913 127.161 7.63965 127.354 7.89746C127.548 8.15169 127.691 8.45247 127.784 8.7998C127.877 9.14355 127.924 9.51953 127.924 9.92773V10.3735H123.584V9.5625H126.93V9.4873C126.916 9.22949 126.862 8.97884 126.769 8.73535C126.679 8.49186 126.536 8.29134 126.339 8.13379C126.142 7.97624 125.874 7.89746 125.534 7.89746C125.308 7.89746 125.1 7.9458 124.911 8.04248C124.721 8.13558 124.558 8.27523 124.422 8.46143C124.286 8.64762 124.18 8.875 124.105 9.14355C124.03 9.41211 123.992 9.72184 123.992 10.0728V10.2983C123.992 10.5741 124.03 10.8337 124.105 11.0771C124.184 11.3171 124.296 11.5283 124.443 11.7109C124.594 11.8936 124.775 12.0368 124.986 12.1406C125.201 12.2445 125.444 12.2964 125.716 12.2964C126.067 12.2964 126.364 12.2248 126.608 12.0815C126.851 11.9383 127.064 11.7467 127.247 11.5068L127.849 11.9849C127.723 12.1746 127.564 12.3555 127.371 12.5273C127.177 12.6992 126.939 12.8389 126.656 12.9463C126.377 13.0537 126.046 13.1074 125.663 13.1074Z" fill="#EEEEEE"/>
<path d="M132.248 11.4585C132.248 11.3153 132.215 11.1828 132.151 11.061C132.09 10.9357 131.963 10.8229 131.77 10.7227C131.58 10.6188 131.293 10.5293 130.91 10.4541C130.588 10.3861 130.296 10.3055 130.035 10.2124C129.777 10.1193 129.557 10.0065 129.374 9.87402C129.195 9.74154 129.057 9.58577 128.961 9.40674C128.864 9.2277 128.816 9.01823 128.816 8.77832C128.816 8.54915 128.866 8.33252 128.966 8.12842C129.07 7.92432 129.215 7.74349 129.401 7.58594C129.591 7.42839 129.818 7.30485 130.083 7.21533C130.348 7.12581 130.644 7.08105 130.969 7.08105C131.435 7.08105 131.832 7.16341 132.162 7.32812C132.491 7.49284 132.744 7.71305 132.919 7.98877C133.095 8.2609 133.182 8.56348 133.182 8.89648H132.189C132.189 8.73535 132.14 8.57959 132.044 8.4292C131.951 8.27523 131.813 8.14811 131.63 8.04785C131.451 7.94759 131.231 7.89746 130.969 7.89746C130.694 7.89746 130.47 7.94043 130.298 8.02637C130.13 8.10872 130.006 8.21436 129.927 8.34326C129.852 8.47217 129.815 8.60824 129.815 8.75146C129.815 8.85889 129.833 8.95557 129.868 9.0415C129.908 9.12386 129.976 9.20085 130.072 9.27246C130.169 9.34049 130.305 9.40495 130.481 9.46582C130.656 9.52669 130.88 9.58757 131.152 9.64844C131.628 9.75586 132.02 9.88477 132.328 10.0352C132.636 10.1855 132.865 10.37 133.016 10.5884C133.166 10.8068 133.241 11.0718 133.241 11.3833C133.241 11.6375 133.188 11.8703 133.08 12.0815C132.976 12.2928 132.824 12.4754 132.624 12.6294C132.427 12.7798 132.19 12.8979 131.915 12.9839C131.643 13.0662 131.336 13.1074 130.996 13.1074C130.484 13.1074 130.051 13.0161 129.696 12.8335C129.342 12.6509 129.073 12.4146 128.891 12.1245C128.708 11.8345 128.617 11.5283 128.617 11.2061H129.616C129.63 11.4782 129.709 11.6948 129.852 11.856C129.995 12.0135 130.171 12.1263 130.379 12.1943C130.586 12.2588 130.792 12.291 130.996 12.291C131.268 12.291 131.496 12.2552 131.678 12.1836C131.865 12.112 132.006 12.0135 132.103 11.8882C132.199 11.7629 132.248 11.6196 132.248 11.4585Z" fill="#EEEEEE"/>
<path d="M137.71 11.4585C137.71 11.3153 137.678 11.1828 137.614 11.061C137.553 10.9357 137.426 10.8229 137.232 10.7227C137.043 10.6188 136.756 10.5293 136.373 10.4541C136.051 10.3861 135.759 10.3055 135.497 10.2124C135.24 10.1193 135.019 10.0065 134.837 9.87402C134.658 9.74154 134.52 9.58577 134.423 9.40674C134.327 9.2277 134.278 9.01823 134.278 8.77832C134.278 8.54915 134.328 8.33252 134.429 8.12842C134.532 7.92432 134.677 7.74349 134.864 7.58594C135.053 7.42839 135.281 7.30485 135.546 7.21533C135.811 7.12581 136.106 7.08105 136.432 7.08105C136.898 7.08105 137.295 7.16341 137.624 7.32812C137.954 7.49284 138.206 7.71305 138.382 7.98877C138.557 8.2609 138.645 8.56348 138.645 8.89648H137.651C137.651 8.73535 137.603 8.57959 137.506 8.4292C137.413 8.27523 137.275 8.14811 137.093 8.04785C136.914 7.94759 136.693 7.89746 136.432 7.89746C136.156 7.89746 135.932 7.94043 135.761 8.02637C135.592 8.10872 135.469 8.21436 135.39 8.34326C135.315 8.47217 135.277 8.60824 135.277 8.75146C135.277 8.85889 135.295 8.95557 135.331 9.0415C135.37 9.12386 135.438 9.20085 135.535 9.27246C135.632 9.34049 135.768 9.40495 135.943 9.46582C136.119 9.52669 136.342 9.58757 136.615 9.64844C137.091 9.75586 137.483 9.88477 137.791 10.0352C138.099 10.1855 138.328 10.37 138.478 10.5884C138.629 10.8068 138.704 11.0718 138.704 11.3833C138.704 11.6375 138.65 11.8703 138.543 12.0815C138.439 12.2928 138.287 12.4754 138.086 12.6294C137.889 12.7798 137.653 12.8979 137.377 12.9839C137.105 13.0662 136.799 13.1074 136.459 13.1074C135.947 13.1074 135.514 13.0161 135.159 12.8335C134.805 12.6509 134.536 12.4146 134.353 12.1245C134.171 11.8345 134.079 11.5283 134.079 11.2061H135.078C135.093 11.4782 135.172 11.6948 135.315 11.856C135.458 12.0135 135.634 12.1263 135.841 12.1943C136.049 12.2588 136.255 12.291 136.459 12.291C136.731 12.291 136.958 12.2552 137.141 12.1836C137.327 12.112 137.469 12.0135 137.565 11.8882C137.662 11.7629 137.71 11.6196 137.71 11.4585Z" fill="#EEEEEE"/>
<path d="M143.216 12.0063V9.01465C143.216 8.78548 143.169 8.58675 143.076 8.41846C142.987 8.24658 142.851 8.1141 142.668 8.021C142.485 7.9279 142.26 7.88135 141.991 7.88135C141.741 7.88135 141.52 7.92432 141.331 8.01025C141.144 8.09619 140.998 8.20898 140.89 8.34863C140.786 8.48828 140.734 8.63867 140.734 8.7998H139.741C139.741 8.59212 139.795 8.38623 139.902 8.18213C140.009 7.97803 140.163 7.79362 140.364 7.62891C140.568 7.46061 140.811 7.32812 141.094 7.23145C141.381 7.13118 141.699 7.08105 142.05 7.08105C142.473 7.08105 142.845 7.15267 143.168 7.2959C143.493 7.43913 143.748 7.65576 143.93 7.9458C144.116 8.23226 144.21 8.59212 144.21 9.02539V11.7324C144.21 11.9258 144.226 12.1317 144.258 12.3501C144.294 12.5685 144.346 12.7565 144.414 12.9141V13H143.377C143.327 12.8854 143.288 12.7332 143.259 12.5435C143.23 12.3501 143.216 12.1711 143.216 12.0063ZM143.388 9.47656L143.399 10.1748H142.394C142.111 10.1748 141.859 10.1981 141.637 10.2446C141.415 10.2876 141.229 10.3538 141.078 10.4434C140.928 10.5329 140.813 10.6457 140.734 10.7817C140.656 10.9142 140.616 11.07 140.616 11.249C140.616 11.4316 140.657 11.5981 140.74 11.7485C140.822 11.8989 140.946 12.0189 141.11 12.1084C141.279 12.1943 141.485 12.2373 141.728 12.2373C142.032 12.2373 142.301 12.1729 142.534 12.0439C142.767 11.915 142.951 11.7575 143.087 11.5713C143.227 11.3851 143.302 11.2043 143.313 11.0288L143.737 11.5068C143.712 11.6572 143.644 11.8237 143.533 12.0063C143.422 12.189 143.273 12.3644 143.087 12.5327C142.904 12.6974 142.686 12.8353 142.432 12.9463C142.181 13.0537 141.898 13.1074 141.583 13.1074C141.189 13.1074 140.844 13.0304 140.546 12.8765C140.253 12.7225 140.024 12.5166 139.859 12.2588C139.698 11.9974 139.617 11.7056 139.617 11.3833C139.617 11.0718 139.678 10.7979 139.8 10.5615C139.922 10.3216 140.097 10.1229 140.326 9.96533C140.555 9.8042 140.831 9.68245 141.153 9.6001C141.476 9.51774 141.836 9.47656 142.233 9.47656H143.388Z" fill="#EEEEEE"/>
<path d="M146.546 8.10156V13H145.553V7.18848H146.519L146.546 8.10156ZM148.362 7.15625L148.356 8.08008C148.274 8.06217 148.195 8.05143 148.12 8.04785C148.048 8.04069 147.966 8.03711 147.873 8.03711C147.644 8.03711 147.441 8.07292 147.266 8.14453C147.09 8.21615 146.942 8.31641 146.82 8.44531C146.698 8.57422 146.602 8.72819 146.53 8.90723C146.462 9.08268 146.417 9.27604 146.396 9.4873L146.117 9.64844C146.117 9.29753 146.151 8.9681 146.219 8.66016C146.29 8.35221 146.399 8.08008 146.546 7.84375C146.693 7.60384 146.879 7.41764 147.105 7.28516C147.334 7.14909 147.606 7.08105 147.921 7.08105C147.993 7.08105 148.075 7.09001 148.168 7.10791C148.261 7.12223 148.326 7.13835 148.362 7.15625Z" fill="#EEEEEE"/>
<path d="M154.952 11.4585C154.952 11.3153 154.92 11.1828 154.856 11.061C154.795 10.9357 154.668 10.8229 154.474 10.7227C154.285 10.6188 153.998 10.5293 153.615 10.4541C153.293 10.3861 153.001 10.3055 152.74 10.2124C152.482 10.1193 152.261 10.0065 152.079 9.87402C151.9 9.74154 151.762 9.58577 151.665 9.40674C151.569 9.2277 151.52 9.01823 151.52 8.77832C151.52 8.54915 151.57 8.33252 151.671 8.12842C151.775 7.92432 151.92 7.74349 152.106 7.58594C152.296 7.42839 152.523 7.30485 152.788 7.21533C153.053 7.12581 153.348 7.08105 153.674 7.08105C154.14 7.08105 154.537 7.16341 154.866 7.32812C155.196 7.49284 155.448 7.71305 155.624 7.98877C155.799 8.2609 155.887 8.56348 155.887 8.89648H154.893C154.893 8.73535 154.845 8.57959 154.748 8.4292C154.655 8.27523 154.517 8.14811 154.335 8.04785C154.156 7.94759 153.935 7.89746 153.674 7.89746C153.398 7.89746 153.175 7.94043 153.003 8.02637C152.834 8.10872 152.711 8.21436 152.632 8.34326C152.557 8.47217 152.519 8.60824 152.519 8.75146C152.519 8.85889 152.537 8.95557 152.573 9.0415C152.612 9.12386 152.68 9.20085 152.777 9.27246C152.874 9.34049 153.01 9.40495 153.185 9.46582C153.361 9.52669 153.585 9.58757 153.857 9.64844C154.333 9.75586 154.725 9.88477 155.033 10.0352C155.341 10.1855 155.57 10.37 155.72 10.5884C155.871 10.8068 155.946 11.0718 155.946 11.3833C155.946 11.6375 155.892 11.8703 155.785 12.0815C155.681 12.2928 155.529 12.4754 155.328 12.6294C155.131 12.7798 154.895 12.8979 154.619 12.9839C154.347 13.0662 154.041 13.1074 153.701 13.1074C153.189 13.1074 152.756 13.0161 152.401 12.8335C152.047 12.6509 151.778 12.4146 151.595 12.1245C151.413 11.8345 151.322 11.5283 151.322 11.2061H152.321C152.335 11.4782 152.414 11.6948 152.557 11.856C152.7 12.0135 152.876 12.1263 153.083 12.1943C153.291 12.2588 153.497 12.291 153.701 12.291C153.973 12.291 154.2 12.2552 154.383 12.1836C154.569 12.112 154.711 12.0135 154.807 11.8882C154.904 11.7629 154.952 11.6196 154.952 11.4585Z" fill="#EEEEEE"/>
<path d="M159.443 13.1074C159.038 13.1074 158.671 13.0394 158.342 12.9033C158.016 12.7637 157.735 12.5685 157.499 12.3179C157.266 12.0672 157.087 11.77 156.961 11.4263C156.836 11.0825 156.773 10.7065 156.773 10.2983V10.0728C156.773 9.6001 156.843 9.17936 156.983 8.81055C157.123 8.43815 157.312 8.12305 157.552 7.86523C157.792 7.60742 158.064 7.41227 158.369 7.27979C158.673 7.1473 158.988 7.08105 159.314 7.08105C159.729 7.08105 160.087 7.15267 160.388 7.2959C160.693 7.43913 160.941 7.63965 161.135 7.89746C161.328 8.15169 161.471 8.45247 161.564 8.7998C161.658 9.14355 161.704 9.51953 161.704 9.92773V10.3735H157.364V9.5625H160.71V9.4873C160.696 9.22949 160.642 8.97884 160.549 8.73535C160.46 8.49186 160.317 8.29134 160.12 8.13379C159.923 7.97624 159.654 7.89746 159.314 7.89746C159.088 7.89746 158.881 7.9458 158.691 8.04248C158.501 8.13558 158.338 8.27523 158.202 8.46143C158.066 8.64762 157.96 8.875 157.885 9.14355C157.81 9.41211 157.772 9.72184 157.772 10.0728V10.2983C157.772 10.5741 157.81 10.8337 157.885 11.0771C157.964 11.3171 158.077 11.5283 158.224 11.7109C158.374 11.8936 158.555 12.0368 158.766 12.1406C158.981 12.2445 159.224 12.2964 159.497 12.2964C159.847 12.2964 160.145 12.2248 160.388 12.0815C160.632 11.9383 160.845 11.7467 161.027 11.5068L161.629 11.9849C161.504 12.1746 161.344 12.3555 161.151 12.5273C160.958 12.6992 160.719 12.8389 160.437 12.9463C160.157 13.0537 159.826 13.1074 159.443 13.1074Z" fill="#EEEEEE"/>
<path d="M166.2 11.6572V7.18848H167.199V13H166.248L166.2 11.6572ZM166.388 10.4326L166.801 10.4219C166.801 10.8086 166.76 11.1667 166.678 11.4961C166.599 11.8219 166.47 12.1048 166.291 12.3447C166.112 12.5846 165.878 12.7726 165.588 12.9087C165.298 13.0412 164.945 13.1074 164.529 13.1074C164.247 13.1074 163.987 13.0662 163.751 12.9839C163.518 12.9015 163.317 12.7744 163.149 12.6025C162.981 12.4307 162.85 12.2069 162.757 11.9312C162.668 11.6554 162.623 11.3242 162.623 10.9375V7.18848H163.616V10.9482C163.616 11.2096 163.645 11.4263 163.702 11.5981C163.763 11.7664 163.844 11.9007 163.944 12.001C164.048 12.0977 164.162 12.1657 164.288 12.2051C164.417 12.2445 164.549 12.2642 164.685 12.2642C165.108 12.2642 165.443 12.1836 165.69 12.0225C165.937 11.8577 166.114 11.6375 166.221 11.3618C166.332 11.0825 166.388 10.7728 166.388 10.4326Z" fill="#EEEEEE"/>
<path d="M171.877 11.4585C171.877 11.3153 171.845 11.1828 171.781 11.061C171.72 10.9357 171.593 10.8229 171.399 10.7227C171.21 10.6188 170.923 10.5293 170.54 10.4541C170.218 10.3861 169.926 10.3055 169.664 10.2124C169.407 10.1193 169.186 10.0065 169.004 9.87402C168.825 9.74154 168.687 9.58577 168.59 9.40674C168.494 9.2277 168.445 9.01823 168.445 8.77832C168.445 8.54915 168.495 8.33252 168.596 8.12842C168.699 7.92432 168.844 7.74349 169.031 7.58594C169.22 7.42839 169.448 7.30485 169.713 7.21533C169.978 7.12581 170.273 7.08105 170.599 7.08105C171.065 7.08105 171.462 7.16341 171.791 7.32812C172.121 7.49284 172.373 7.71305 172.549 7.98877C172.724 8.2609 172.812 8.56348 172.812 8.89648H171.818C171.818 8.73535 171.77 8.57959 171.673 8.4292C171.58 8.27523 171.442 8.14811 171.26 8.04785C171.081 7.94759 170.86 7.89746 170.599 7.89746C170.323 7.89746 170.1 7.94043 169.928 8.02637C169.759 8.10872 169.636 8.21436 169.557 8.34326C169.482 8.47217 169.444 8.60824 169.444 8.75146C169.444 8.85889 169.462 8.95557 169.498 9.0415C169.537 9.12386 169.605 9.20085 169.702 9.27246C169.799 9.34049 169.935 9.40495 170.11 9.46582C170.286 9.52669 170.51 9.58757 170.782 9.64844C171.258 9.75586 171.65 9.88477 171.958 10.0352C172.266 10.1855 172.495 10.37 172.645 10.5884C172.796 10.8068 172.871 11.0718 172.871 11.3833C172.871 11.6375 172.817 11.8703 172.71 12.0815C172.606 12.2928 172.454 12.4754 172.253 12.6294C172.056 12.7798 171.82 12.8979 171.544 12.9839C171.272 13.0662 170.966 13.1074 170.626 13.1074C170.114 13.1074 169.681 13.0161 169.326 12.8335C168.972 12.6509 168.703 12.4146 168.52 12.1245C168.338 11.8345 168.247 11.5283 168.247 11.2061H169.246C169.26 11.4782 169.339 11.6948 169.482 11.856C169.625 12.0135 169.801 12.1263 170.008 12.1943C170.216 12.2588 170.422 12.291 170.626 12.291C170.898 12.291 171.125 12.2552 171.308 12.1836C171.494 12.112 171.636 12.0135 171.732 11.8882C171.829 11.7629 171.877 11.6196 171.877 11.4585Z" fill="#EEEEEE"/>
<path d="M180.128 11.8721V4.75H181.127V13H180.214L180.128 11.8721ZM176.218 10.1587V10.0459C176.218 9.60189 176.271 9.19906 176.379 8.8374C176.49 8.47217 176.646 8.15885 176.846 7.89746C177.05 7.63607 177.292 7.43555 177.571 7.2959C177.854 7.15267 178.169 7.08105 178.516 7.08105C178.882 7.08105 179.2 7.14551 179.473 7.27441C179.748 7.39974 179.981 7.58415 180.171 7.82764C180.364 8.06755 180.516 8.35758 180.627 8.69775C180.738 9.03792 180.815 9.42285 180.858 9.85254V10.3467C180.819 10.7728 180.742 11.1559 180.627 11.4961C180.516 11.8363 180.364 12.1263 180.171 12.3662C179.981 12.6061 179.748 12.7905 179.473 12.9194C179.197 13.0448 178.875 13.1074 178.506 13.1074C178.166 13.1074 177.854 13.034 177.571 12.8872C177.292 12.7404 177.05 12.5345 176.846 12.2695C176.646 12.0046 176.49 11.693 176.379 11.335C176.271 10.9733 176.218 10.5812 176.218 10.1587ZM177.217 10.0459V10.1587C177.217 10.4487 177.245 10.7209 177.303 10.9751C177.363 11.2293 177.457 11.4531 177.582 11.6465C177.707 11.8398 177.867 11.992 178.06 12.103C178.253 12.2104 178.484 12.2642 178.753 12.2642C179.082 12.2642 179.353 12.1943 179.564 12.0547C179.779 11.915 179.951 11.7306 180.079 11.5015C180.208 11.2723 180.309 11.0234 180.38 10.7549V9.46045C180.337 9.26351 180.275 9.07373 180.192 8.89111C180.113 8.70492 180.01 8.5402 179.881 8.39697C179.755 8.25016 179.6 8.13379 179.413 8.04785C179.231 7.96191 179.014 7.91895 178.764 7.91895C178.491 7.91895 178.257 7.97624 178.06 8.09082C177.867 8.20182 177.707 8.35579 177.582 8.55273C177.457 8.74609 177.363 8.97168 177.303 9.22949C177.245 9.48372 177.217 9.75586 177.217 10.0459Z" fill="#EEEEEE"/>
<path d="M185.88 12.0063V9.01465C185.88 8.78548 185.834 8.58675 185.741 8.41846C185.651 8.24658 185.515 8.1141 185.333 8.021C185.15 7.9279 184.924 7.88135 184.656 7.88135C184.405 7.88135 184.185 7.92432 183.995 8.01025C183.809 8.09619 183.662 8.20898 183.555 8.34863C183.451 8.48828 183.399 8.63867 183.399 8.7998H182.405C182.405 8.59212 182.459 8.38623 182.566 8.18213C182.674 7.97803 182.828 7.79362 183.028 7.62891C183.232 7.46061 183.476 7.32812 183.759 7.23145C184.045 7.13118 184.364 7.08105 184.715 7.08105C185.137 7.08105 185.51 7.15267 185.832 7.2959C186.158 7.43913 186.412 7.65576 186.595 7.9458C186.781 8.23226 186.874 8.59212 186.874 9.02539V11.7324C186.874 11.9258 186.89 12.1317 186.922 12.3501C186.958 12.5685 187.01 12.7565 187.078 12.9141V13H186.042C185.991 12.8854 185.952 12.7332 185.923 12.5435C185.895 12.3501 185.88 12.1711 185.88 12.0063ZM186.052 9.47656L186.063 10.1748H185.059C184.776 10.1748 184.523 10.1981 184.301 10.2446C184.079 10.2876 183.893 10.3538 183.743 10.4434C183.592 10.5329 183.478 10.6457 183.399 10.7817C183.32 10.9142 183.281 11.07 183.281 11.249C183.281 11.4316 183.322 11.5981 183.404 11.7485C183.487 11.8989 183.61 12.0189 183.775 12.1084C183.943 12.1943 184.149 12.2373 184.393 12.2373C184.697 12.2373 184.966 12.1729 185.198 12.0439C185.431 11.915 185.615 11.7575 185.752 11.5713C185.891 11.3851 185.966 11.2043 185.977 11.0288L186.401 11.5068C186.376 11.6572 186.308 11.8237 186.197 12.0063C186.086 12.189 185.938 12.3644 185.752 12.5327C185.569 12.6974 185.35 12.8353 185.096 12.9463C184.846 13.0537 184.563 13.1074 184.248 13.1074C183.854 13.1074 183.508 13.0304 183.211 12.8765C182.917 12.7225 182.688 12.5166 182.524 12.2588C182.362 11.9974 182.282 11.7056 182.282 11.3833C182.282 11.0718 182.343 10.7979 182.464 10.5615C182.586 10.3216 182.762 10.1229 182.991 9.96533C183.22 9.8042 183.496 9.68245 183.818 9.6001C184.14 9.51774 184.5 9.47656 184.898 9.47656H186.052Z" fill="#EEEEEE"/>
<path d="M191.88 11.8721V4.75H192.879V13H191.966L191.88 11.8721ZM187.97 10.1587V10.0459C187.97 9.60189 188.024 9.19906 188.131 8.8374C188.242 8.47217 188.398 8.15885 188.598 7.89746C188.803 7.63607 189.044 7.43555 189.324 7.2959C189.606 7.15267 189.922 7.08105 190.269 7.08105C190.634 7.08105 190.953 7.14551 191.225 7.27441C191.501 7.39974 191.733 7.58415 191.923 7.82764C192.117 8.06755 192.269 8.35758 192.38 8.69775C192.491 9.03792 192.568 9.42285 192.611 9.85254V10.3467C192.571 10.7728 192.494 11.1559 192.38 11.4961C192.269 11.8363 192.117 12.1263 191.923 12.3662C191.733 12.6061 191.501 12.7905 191.225 12.9194C190.949 13.0448 190.627 13.1074 190.258 13.1074C189.918 13.1074 189.606 13.034 189.324 12.8872C189.044 12.7404 188.803 12.5345 188.598 12.2695C188.398 12.0046 188.242 11.693 188.131 11.335C188.024 10.9733 187.97 10.5812 187.97 10.1587ZM188.969 10.0459V10.1587C188.969 10.4487 188.998 10.7209 189.055 10.9751C189.116 11.2293 189.209 11.4531 189.334 11.6465C189.46 11.8398 189.619 11.992 189.812 12.103C190.006 12.2104 190.237 12.2642 190.505 12.2642C190.835 12.2642 191.105 12.1943 191.316 12.0547C191.531 11.915 191.703 11.7306 191.832 11.5015C191.961 11.2723 192.061 11.0234 192.133 10.7549V9.46045C192.09 9.26351 192.027 9.07373 191.945 8.89111C191.866 8.70492 191.762 8.5402 191.633 8.39697C191.508 8.25016 191.352 8.13379 191.166 8.04785C190.983 7.96191 190.767 7.91895 190.516 7.91895C190.244 7.91895 190.009 7.97624 189.812 8.09082C189.619 8.20182 189.46 8.35579 189.334 8.55273C189.209 8.74609 189.116 8.97168 189.055 9.22949C188.998 9.48372 188.969 9.75586 188.969 10.0459Z" fill="#EEEEEE"/>
<path d="M193.943 10.1587V10.0352C193.943 9.61621 194.004 9.2277 194.126 8.86963C194.247 8.50798 194.423 8.19466 194.652 7.92969C194.881 7.66113 195.159 7.45345 195.484 7.30664C195.81 7.15625 196.175 7.08105 196.58 7.08105C196.988 7.08105 197.355 7.15625 197.681 7.30664C198.011 7.45345 198.29 7.66113 198.519 7.92969C198.752 8.19466 198.929 8.50798 199.051 8.86963C199.173 9.2277 199.233 9.61621 199.233 10.0352V10.1587C199.233 10.5776 199.173 10.9661 199.051 11.3242C198.929 11.6823 198.752 11.9956 198.519 12.2642C198.29 12.5291 198.012 12.7368 197.687 12.8872C197.364 13.034 196.999 13.1074 196.591 13.1074C196.183 13.1074 195.816 13.034 195.49 12.8872C195.164 12.7368 194.885 12.5291 194.652 12.2642C194.423 11.9956 194.247 11.6823 194.126 11.3242C194.004 10.9661 193.943 10.5776 193.943 10.1587ZM194.937 10.0352V10.1587C194.937 10.4487 194.971 10.7227 195.039 10.9805C195.107 11.2347 195.209 11.4603 195.345 11.6572C195.484 11.8542 195.658 12.0099 195.866 12.1245C196.073 12.2355 196.315 12.291 196.591 12.291C196.863 12.291 197.101 12.2355 197.305 12.1245C197.513 12.0099 197.685 11.8542 197.821 11.6572C197.957 11.4603 198.059 11.2347 198.127 10.9805C198.199 10.7227 198.234 10.4487 198.234 10.1587V10.0352C198.234 9.7487 198.199 9.47835 198.127 9.22412C198.059 8.96631 197.955 8.73893 197.815 8.54199C197.679 8.34147 197.508 8.18392 197.3 8.06934C197.096 7.95475 196.856 7.89746 196.58 7.89746C196.308 7.89746 196.068 7.95475 195.86 8.06934C195.656 8.18392 195.484 8.34147 195.345 8.54199C195.209 8.73893 195.107 8.96631 195.039 9.22412C194.971 9.47835 194.937 9.7487 194.937 10.0352Z" fill="#EEEEEE"/>
<path d="M203.643 11.4585C203.643 11.3153 203.611 11.1828 203.547 11.061C203.486 10.9357 203.359 10.8229 203.165 10.7227C202.976 10.6188 202.689 10.5293 202.306 10.4541C201.984 10.3861 201.692 10.3055 201.43 10.2124C201.173 10.1193 200.952 10.0065 200.77 9.87402C200.591 9.74154 200.453 9.58577 200.356 9.40674C200.26 9.2277 200.211 9.01823 200.211 8.77832C200.211 8.54915 200.261 8.33252 200.362 8.12842C200.465 7.92432 200.61 7.74349 200.797 7.58594C200.986 7.42839 201.214 7.30485 201.479 7.21533C201.744 7.12581 202.039 7.08105 202.365 7.08105C202.83 7.08105 203.228 7.16341 203.557 7.32812C203.887 7.49284 204.139 7.71305 204.315 7.98877C204.49 8.2609 204.578 8.56348 204.578 8.89648H203.584C203.584 8.73535 203.536 8.57959 203.439 8.4292C203.346 8.27523 203.208 8.14811 203.026 8.04785C202.847 7.94759 202.626 7.89746 202.365 7.89746C202.089 7.89746 201.865 7.94043 201.694 8.02637C201.525 8.10872 201.402 8.21436 201.323 8.34326C201.248 8.47217 201.21 8.60824 201.21 8.75146C201.21 8.85889 201.228 8.95557 201.264 9.0415C201.303 9.12386 201.371 9.20085 201.468 9.27246C201.565 9.34049 201.701 9.40495 201.876 9.46582C202.052 9.52669 202.275 9.58757 202.548 9.64844C203.024 9.75586 203.416 9.88477 203.724 10.0352C204.032 10.1855 204.261 10.37 204.411 10.5884C204.562 10.8068 204.637 11.0718 204.637 11.3833C204.637 11.6375 204.583 11.8703 204.476 12.0815C204.372 12.2928 204.22 12.4754 204.019 12.6294C203.822 12.7798 203.586 12.8979 203.31 12.9839C203.038 13.0662 202.732 13.1074 202.392 13.1074C201.88 13.1074 201.447 13.0161 201.092 12.8335C200.738 12.6509 200.469 12.4146 200.286 12.1245C200.104 11.8345 200.012 11.5283 200.012 11.2061H201.011C201.026 11.4782 201.105 11.6948 201.248 11.856C201.391 12.0135 201.566 12.1263 201.774 12.1943C201.982 12.2588 202.188 12.291 202.392 12.291C202.664 12.291 202.891 12.2552 203.074 12.1836C203.26 12.112 203.402 12.0135 203.498 11.8882C203.595 11.7629 203.643 11.6196 203.643 11.4585Z" fill="#EEEEEE"/>
<path d="M211.894 11.8721V4.75H212.893V13H211.98L211.894 11.8721ZM207.984 10.1587V10.0459C207.984 9.60189 208.037 9.19906 208.145 8.8374C208.256 8.47217 208.411 8.15885 208.612 7.89746C208.816 7.63607 209.058 7.43555 209.337 7.2959C209.62 7.15267 209.935 7.08105 210.282 7.08105C210.648 7.08105 210.966 7.14551 211.238 7.27441C211.514 7.39974 211.747 7.58415 211.937 7.82764C212.13 8.06755 212.282 8.35758 212.393 8.69775C212.504 9.03792 212.581 9.42285 212.624 9.85254V10.3467C212.585 10.7728 212.508 11.1559 212.393 11.4961C212.282 11.8363 212.13 12.1263 211.937 12.3662C211.747 12.6061 211.514 12.7905 211.238 12.9194C210.963 13.0448 210.64 13.1074 210.272 13.1074C209.931 13.1074 209.62 13.034 209.337 12.8872C209.058 12.7404 208.816 12.5345 208.612 12.2695C208.411 12.0046 208.256 11.693 208.145 11.335C208.037 10.9733 207.984 10.5812 207.984 10.1587ZM208.983 10.0459V10.1587C208.983 10.4487 209.011 10.7209 209.069 10.9751C209.129 11.2293 209.223 11.4531 209.348 11.6465C209.473 11.8398 209.633 11.992 209.826 12.103C210.019 12.2104 210.25 12.2642 210.519 12.2642C210.848 12.2642 211.119 12.1943 211.33 12.0547C211.545 11.915 211.716 11.7306 211.845 11.5015C211.974 11.2723 212.075 11.0234 212.146 10.7549V9.46045C212.103 9.26351 212.041 9.07373 211.958 8.89111C211.879 8.70492 211.776 8.5402 211.647 8.39697C211.521 8.25016 211.366 8.13379 211.179 8.04785C210.997 7.96191 210.78 7.91895 210.529 7.91895C210.257 7.91895 210.023 7.97624 209.826 8.09082C209.633 8.20182 209.473 8.35579 209.348 8.55273C209.223 8.74609 209.129 8.97168 209.069 9.22949C209.011 9.48372 208.983 9.75586 208.983 10.0459Z" fill="#EEEEEE"/>
<path d="M216.631 13.1074C216.227 13.1074 215.86 13.0394 215.53 12.9033C215.204 12.7637 214.923 12.5685 214.687 12.3179C214.454 12.0672 214.275 11.77 214.15 11.4263C214.024 11.0825 213.962 10.7065 213.962 10.2983V10.0728C213.962 9.6001 214.032 9.17936 214.171 8.81055C214.311 8.43815 214.501 8.12305 214.741 7.86523C214.981 7.60742 215.253 7.41227 215.557 7.27979C215.861 7.1473 216.177 7.08105 216.502 7.08105C216.918 7.08105 217.276 7.15267 217.577 7.2959C217.881 7.43913 218.13 7.63965 218.323 7.89746C218.517 8.15169 218.66 8.45247 218.753 8.7998C218.846 9.14355 218.892 9.51953 218.892 9.92773V10.3735H214.553V9.5625H217.899V9.4873C217.885 9.22949 217.831 8.97884 217.738 8.73535C217.648 8.49186 217.505 8.29134 217.308 8.13379C217.111 7.97624 216.843 7.89746 216.502 7.89746C216.277 7.89746 216.069 7.9458 215.879 8.04248C215.69 8.13558 215.527 8.27523 215.391 8.46143C215.254 8.64762 215.149 8.875 215.074 9.14355C214.998 9.41211 214.961 9.72184 214.961 10.0728V10.2983C214.961 10.5741 214.998 10.8337 215.074 11.0771C215.152 11.3171 215.265 11.5283 215.412 11.7109C215.562 11.8936 215.743 12.0368 215.954 12.1406C216.169 12.2445 216.413 12.2964 216.685 12.2964C217.036 12.2964 217.333 12.2248 217.577 12.0815C217.82 11.9383 218.033 11.7467 218.216 11.5068L218.817 11.9849C218.692 12.1746 218.533 12.3555 218.339 12.5273C218.146 12.6992 217.908 12.8389 217.625 12.9463C217.346 13.0537 217.014 13.1074 216.631 13.1074Z" fill="#EEEEEE"/>
<path d="M225.897 11.6572V7.18848H226.896V13H225.945L225.897 11.6572ZM226.085 10.4326L226.498 10.4219C226.498 10.8086 226.457 11.1667 226.375 11.4961C226.296 11.8219 226.167 12.1048 225.988 12.3447C225.809 12.5846 225.575 12.7726 225.285 12.9087C224.994 13.0412 224.642 13.1074 224.226 13.1074C223.944 13.1074 223.684 13.0662 223.448 12.9839C223.215 12.9015 223.014 12.7744 222.846 12.6025C222.678 12.4307 222.547 12.2069 222.454 11.9312C222.364 11.6554 222.32 11.3242 222.32 10.9375V7.18848H223.313V10.9482C223.313 11.2096 223.342 11.4263 223.399 11.5981C223.46 11.7664 223.541 11.9007 223.641 12.001C223.745 12.0977 223.859 12.1657 223.985 12.2051C224.114 12.2445 224.246 12.2642 224.382 12.2642C224.805 12.2642 225.139 12.1836 225.387 12.0225C225.634 11.8577 225.811 11.6375 225.918 11.3618C226.029 11.0825 226.085 10.7728 226.085 10.4326Z" fill="#EEEEEE"/>
<path d="M231.574 11.4585C231.574 11.3153 231.542 11.1828 231.478 11.061C231.417 10.9357 231.29 10.8229 231.096 10.7227C230.906 10.6188 230.62 10.5293 230.237 10.4541C229.915 10.3861 229.623 10.3055 229.361 10.2124C229.104 10.1193 228.883 10.0065 228.701 9.87402C228.522 9.74154 228.384 9.58577 228.287 9.40674C228.19 9.2277 228.142 9.01823 228.142 8.77832C228.142 8.54915 228.192 8.33252 228.293 8.12842C228.396 7.92432 228.541 7.74349 228.728 7.58594C228.917 7.42839 229.145 7.30485 229.41 7.21533C229.675 7.12581 229.97 7.08105 230.296 7.08105C230.761 7.08105 231.159 7.16341 231.488 7.32812C231.818 7.49284 232.07 7.71305 232.246 7.98877C232.421 8.2609 232.509 8.56348 232.509 8.89648H231.515C231.515 8.73535 231.467 8.57959 231.37 8.4292C231.277 8.27523 231.139 8.14811 230.957 8.04785C230.778 7.94759 230.557 7.89746 230.296 7.89746C230.02 7.89746 229.796 7.94043 229.625 8.02637C229.456 8.10872 229.333 8.21436 229.254 8.34326C229.179 8.47217 229.141 8.60824 229.141 8.75146C229.141 8.85889 229.159 8.95557 229.195 9.0415C229.234 9.12386 229.302 9.20085 229.399 9.27246C229.496 9.34049 229.632 9.40495 229.807 9.46582C229.983 9.52669 230.206 9.58757 230.479 9.64844C230.955 9.75586 231.347 9.88477 231.655 10.0352C231.963 10.1855 232.192 10.37 232.342 10.5884C232.493 10.8068 232.568 11.0718 232.568 11.3833C232.568 11.6375 232.514 11.8703 232.407 12.0815C232.303 12.2928 232.151 12.4754 231.95 12.6294C231.753 12.7798 231.517 12.8979 231.241 12.9839C230.969 13.0662 230.663 13.1074 230.323 13.1074C229.811 13.1074 229.378 13.0161 229.023 12.8335C228.669 12.6509 228.4 12.4146 228.217 12.1245C228.035 11.8345 227.943 11.5283 227.943 11.2061H228.942C228.957 11.4782 229.036 11.6948 229.179 11.856C229.322 12.0135 229.497 12.1263 229.705 12.1943C229.913 12.2588 230.119 12.291 230.323 12.291C230.595 12.291 230.822 12.2552 231.005 12.1836C231.191 12.112 231.333 12.0135 231.429 11.8882C231.526 11.7629 231.574 11.6196 231.574 11.4585Z" fill="#EEEEEE"/>
<path d="M233.39 10.1587V10.0352C233.39 9.61621 233.451 9.2277 233.573 8.86963C233.694 8.50798 233.87 8.19466 234.099 7.92969C234.328 7.66113 234.606 7.45345 234.931 7.30664C235.257 7.15625 235.623 7.08105 236.027 7.08105C236.435 7.08105 236.802 7.15625 237.128 7.30664C237.458 7.45345 237.737 7.66113 237.966 7.92969C238.199 8.19466 238.376 8.50798 238.498 8.86963C238.62 9.2277 238.68 9.61621 238.68 10.0352V10.1587C238.68 10.5776 238.62 10.9661 238.498 11.3242C238.376 11.6823 238.199 11.9956 237.966 12.2642C237.737 12.5291 237.459 12.7368 237.134 12.8872C236.811 13.034 236.446 13.1074 236.038 13.1074C235.63 13.1074 235.263 13.034 234.937 12.8872C234.611 12.7368 234.332 12.5291 234.099 12.2642C233.87 11.9956 233.694 11.6823 233.573 11.3242C233.451 10.9661 233.39 10.5776 233.39 10.1587ZM234.384 10.0352V10.1587C234.384 10.4487 234.418 10.7227 234.486 10.9805C234.554 11.2347 234.656 11.4603 234.792 11.6572C234.931 11.8542 235.105 12.0099 235.313 12.1245C235.52 12.2355 235.762 12.291 236.038 12.291C236.31 12.291 236.548 12.2355 236.752 12.1245C236.96 12.0099 237.132 11.8542 237.268 11.6572C237.404 11.4603 237.506 11.2347 237.574 10.9805C237.646 10.7227 237.681 10.4487 237.681 10.1587V10.0352C237.681 9.7487 237.646 9.47835 237.574 9.22412C237.506 8.96631 237.402 8.73893 237.262 8.54199C237.126 8.34147 236.955 8.18392 236.747 8.06934C236.543 7.95475 236.303 7.89746 236.027 7.89746C235.755 7.89746 235.515 7.95475 235.307 8.06934C235.103 8.18392 234.931 8.34147 234.792 8.54199C234.656 8.73893 234.554 8.96631 234.486 9.22412C234.418 9.47835 234.384 9.7487 234.384 10.0352Z" fill="#EEEEEE"/>
<path d="M13.3979 9.54639H10.1162V13H9.08496V5.17969H13.9297V6.02832H10.1162V8.70312H13.3979V9.54639Z" fill="#555555"/>
<path d="M18.4146 13C18.3573 12.8854 18.3107 12.6813 18.2749 12.3877C17.813 12.8675 17.2616 13.1074 16.6206 13.1074C16.0477 13.1074 15.5768 12.9463 15.208 12.624C14.8428 12.2982 14.6602 11.8864 14.6602 11.3887C14.6602 10.7835 14.8893 10.3145 15.3477 9.98145C15.8096 9.64486 16.4577 9.47656 17.292 9.47656H18.2588V9.02002C18.2588 8.67269 18.1549 8.39697 17.9473 8.19287C17.7396 7.98519 17.4334 7.88135 17.0288 7.88135C16.6743 7.88135 16.3771 7.97087 16.1372 8.1499C15.8973 8.32894 15.7773 8.54557 15.7773 8.7998H14.7783C14.7783 8.50977 14.8804 8.23047 15.0845 7.96191C15.2922 7.68978 15.5715 7.47493 15.9224 7.31738C16.2769 7.15983 16.6654 7.08105 17.0879 7.08105C17.7575 7.08105 18.2821 7.24935 18.6616 7.58594C19.0412 7.91895 19.2381 8.37907 19.2524 8.96631V11.6411C19.2524 12.1746 19.3205 12.599 19.4565 12.9141V13H18.4146ZM16.7656 12.2427C17.0771 12.2427 17.3726 12.1621 17.6519 12.001C17.9312 11.8398 18.1335 11.6304 18.2588 11.3726V10.1802H17.48C16.2625 10.1802 15.6538 10.5365 15.6538 11.249C15.6538 11.5605 15.7576 11.804 15.9653 11.9795C16.173 12.1549 16.4398 12.2427 16.7656 12.2427Z" fill="#555555"/>
<path d="M21.8896 13H20.896V7.18848H21.8896V13ZM20.8154 5.64697C20.8154 5.48584 20.8638 5.34977 20.9604 5.23877C21.0607 5.12777 21.2075 5.07227 21.4009 5.07227C21.5942 5.07227 21.741 5.12777 21.8413 5.23877C21.9416 5.34977 21.9917 5.48584 21.9917 5.64697C21.9917 5.80811 21.9416 5.94238 21.8413 6.0498C21.741 6.15723 21.5942 6.21094 21.4009 6.21094C21.2075 6.21094 21.0607 6.15723 20.9604 6.0498C20.8638 5.94238 20.8154 5.80811 20.8154 5.64697Z" fill="#555555"/>
<path d="M26.2939 8.08008C26.1436 8.05501 25.9806 8.04248 25.8052 8.04248C25.1535 8.04248 24.7113 8.31999 24.4785 8.875V13H23.4849V7.18848H24.4517L24.4678 7.85986C24.7936 7.34066 25.2555 7.08105 25.8535 7.08105C26.0469 7.08105 26.1937 7.10612 26.2939 7.15625V8.08008Z" fill="#555555"/>
<path d="M35.0864 11.6304L36.2036 7.18848H37.1973L35.5054 13H34.6997L33.2871 8.5957L31.9121 13H31.1064L29.4199 7.18848H30.4082L31.5522 11.5391L32.9058 7.18848H33.7061L35.0864 11.6304Z" fill="#555555"/>
<path d="M40.624 13.1074C39.8363 13.1074 39.1953 12.8496 38.7012 12.334C38.207 11.8148 37.96 11.1219 37.96 10.2554V10.0728C37.96 9.49626 38.0692 8.98242 38.2876 8.53125C38.5096 8.0765 38.8175 7.72201 39.2114 7.46777C39.6089 7.20996 40.0386 7.08105 40.5005 7.08105C41.256 7.08105 41.8433 7.32992 42.2622 7.82764C42.6812 8.32536 42.8906 9.03792 42.8906 9.96533V10.3789H38.9536C38.9679 10.9518 39.1344 11.4155 39.4531 11.77C39.7754 12.1209 40.1836 12.2964 40.6777 12.2964C41.0286 12.2964 41.3258 12.2248 41.5693 12.0815C41.8128 11.9383 42.0259 11.7485 42.2085 11.5122L42.8154 11.9849C42.3285 12.7332 41.598 13.1074 40.624 13.1074ZM40.5005 7.89746C40.0994 7.89746 39.7629 8.04427 39.4907 8.33789C39.2186 8.62793 39.0503 9.03613 38.9858 9.5625H41.897V9.4873C41.8683 8.98242 41.7323 8.59212 41.4888 8.31641C41.2453 8.03711 40.9159 7.89746 40.5005 7.89746Z" fill="#555555"/>
<path d="M48.9653 10.1587C48.9653 11.0467 48.7612 11.7611 48.353 12.3018C47.9448 12.8389 47.397 13.1074 46.7095 13.1074C45.9754 13.1074 45.4079 12.8478 45.0068 12.3286L44.9585 13H44.0454V4.75H45.0391V7.82764C45.4401 7.32992 45.9933 7.08105 46.6987 7.08105C47.4041 7.08105 47.9574 7.34782 48.3584 7.88135C48.763 8.41488 48.9653 9.14535 48.9653 10.0728V10.1587ZM47.9717 10.0459C47.9717 9.36914 47.841 8.84635 47.5796 8.47754C47.3182 8.10872 46.9422 7.92432 46.4517 7.92432C45.7964 7.92432 45.3255 8.22868 45.0391 8.8374V11.3511C45.3434 11.9598 45.8179 12.2642 46.4624 12.2642C46.9386 12.2642 47.3092 12.0798 47.5742 11.7109C47.8392 11.3421 47.9717 10.7871 47.9717 10.0459Z" fill="#555555"/>
<path d="M56.5386 13C56.4813 12.8854 56.4347 12.6813 56.3989 12.3877C55.937 12.8675 55.3856 13.1074 54.7446 13.1074C54.1717 13.1074 53.7008 12.9463 53.332 12.624C52.9668 12.2982 52.7842 11.8864 52.7842 11.3887C52.7842 10.7835 53.0133 10.3145 53.4717 9.98145C53.9336 9.64486 54.5817 9.47656 55.416 9.47656H56.3828V9.02002C56.3828 8.67269 56.279 8.39697 56.0713 8.19287C55.8636 7.98519 55.5575 7.88135 55.1528 7.88135C54.7983 7.88135 54.5011 7.97087 54.2612 8.1499C54.0213 8.32894 53.9014 8.54557 53.9014 8.7998H52.9023C52.9023 8.50977 53.0044 8.23047 53.2085 7.96191C53.4162 7.68978 53.6955 7.47493 54.0464 7.31738C54.4009 7.15983 54.7894 7.08105 55.2119 7.08105C55.8815 7.08105 56.4061 7.24935 56.7856 7.58594C57.1652 7.91895 57.3621 8.37907 57.3765 8.96631V11.6411C57.3765 12.1746 57.4445 12.599 57.5806 12.9141V13H56.5386ZM54.8896 12.2427C55.2012 12.2427 55.4966 12.1621 55.7759 12.001C56.0552 11.8398 56.2575 11.6304 56.3828 11.3726V10.1802H55.604C54.3866 10.1802 53.7778 10.5365 53.7778 11.249C53.7778 11.5605 53.8817 11.804 54.0894 11.9795C54.297 12.1549 54.5638 12.2427 54.8896 12.2427Z" fill="#555555"/>
<path d="M59.874 7.18848L59.9062 7.91895C60.3503 7.36035 60.9303 7.08105 61.6465 7.08105C62.8747 7.08105 63.4941 7.77393 63.5049 9.15967V13H62.5112V9.1543C62.5076 8.73535 62.411 8.42562 62.2212 8.2251C62.035 8.02458 61.7432 7.92432 61.3457 7.92432C61.0234 7.92432 60.7406 8.01025 60.4971 8.18213C60.2536 8.354 60.0638 8.57959 59.9277 8.85889V13H58.9341V7.18848H59.874Z" fill="#555555"/>
<path d="M68.5913 13C68.534 12.8854 68.4875 12.6813 68.4517 12.3877C67.9897 12.8675 67.4383 13.1074 66.7974 13.1074C66.2244 13.1074 65.7536 12.9463 65.3848 12.624C65.0195 12.2982 64.8369 11.8864 64.8369 11.3887C64.8369 10.7835 65.0661 10.3145 65.5244 9.98145C65.9863 9.64486 66.6344 9.47656 67.4688 9.47656H68.4355V9.02002C68.4355 8.67269 68.3317 8.39697 68.124 8.19287C67.9163 7.98519 67.6102 7.88135 67.2056 7.88135C66.8511 7.88135 66.5539 7.97087 66.314 8.1499C66.0741 8.32894 65.9541 8.54557 65.9541 8.7998H64.9551C64.9551 8.50977 65.0571 8.23047 65.2612 7.96191C65.4689 7.68978 65.7482 7.47493 66.0991 7.31738C66.4536 7.15983 66.8421 7.08105 67.2646 7.08105C67.9342 7.08105 68.4588 7.24935 68.8384 7.58594C69.2179 7.91895 69.4149 8.37907 69.4292 8.96631V11.6411C69.4292 12.1746 69.4972 12.599 69.6333 12.9141V13H68.5913ZM66.9424 12.2427C67.2539 12.2427 67.5493 12.1621 67.8286 12.001C68.1079 11.8398 68.3102 11.6304 68.4355 11.3726V10.1802H67.6567C66.4393 10.1802 65.8306 10.5365 65.8306 11.249C65.8306 11.5605 65.9344 11.804 66.1421 11.9795C66.3498 12.1549 66.6165 12.2427 66.9424 12.2427Z" fill="#555555"/>
<path d="M72.0664 13H71.0728V4.75H72.0664V13Z" fill="#555555"/>
<path d="M75.563 11.5444L76.9165 7.18848H77.98L75.6436 13.897C75.2819 14.8638 74.7072 15.3472 73.9194 15.3472L73.7314 15.3311L73.3608 15.2612V14.4556L73.6294 14.4771C73.966 14.4771 74.2274 14.409 74.4136 14.2729C74.6034 14.1369 74.7591 13.888 74.8809 13.5264L75.1011 12.9355L73.0278 7.18848H74.1128L75.563 11.5444Z" fill="#555555"/>
<path d="M80.2197 5.78125V7.18848H81.3047V7.95654H80.2197V11.5605C80.2197 11.7933 80.2681 11.9688 80.3647 12.0869C80.4614 12.2015 80.6261 12.2588 80.8589 12.2588C80.9735 12.2588 81.131 12.2373 81.3315 12.1943V13C81.0701 13.0716 80.8159 13.1074 80.5688 13.1074C80.1248 13.1074 79.79 12.9731 79.5645 12.7046C79.3389 12.436 79.2261 12.0547 79.2261 11.5605V7.95654H78.168V7.18848H79.2261V5.78125H80.2197Z" fill="#555555"/>
<path d="M83.5498 13H82.5562V7.18848H83.5498V13ZM82.4756 5.64697C82.4756 5.48584 82.5239 5.34977 82.6206 5.23877C82.7209 5.12777 82.8677 5.07227 83.061 5.07227C83.2544 5.07227 83.4012 5.12777 83.5015 5.23877C83.6017 5.34977 83.6519 5.48584 83.6519 5.64697C83.6519 5.80811 83.6017 5.94238 83.5015 6.0498C83.4012 6.15723 83.2544 6.21094 83.061 6.21094C82.8677 6.21094 82.7209 6.15723 82.6206 6.0498C82.5239 5.94238 82.4756 5.80811 82.4756 5.64697Z" fill="#555555"/>
<path d="M87.4761 12.2964C87.8306 12.2964 88.1403 12.189 88.4053 11.9741C88.6702 11.7593 88.8171 11.4907 88.8457 11.1685H89.7856C89.7677 11.5015 89.6532 11.8184 89.4419 12.1191C89.2306 12.4199 88.9478 12.6598 88.5933 12.8389C88.2424 13.0179 87.87 13.1074 87.4761 13.1074C86.6847 13.1074 86.0545 12.8442 85.5854 12.3179C85.12 11.7879 84.8872 11.0646 84.8872 10.1479V9.98145C84.8872 9.41569 84.991 8.9126 85.1987 8.47217C85.4064 8.03174 85.7036 7.68978 86.0903 7.44629C86.4806 7.2028 86.9408 7.08105 87.4707 7.08105C88.1224 7.08105 88.6631 7.2762 89.0928 7.6665C89.526 8.0568 89.757 8.56348 89.7856 9.18652H88.8457C88.8171 8.81055 88.6738 8.5026 88.416 8.2627C88.1618 8.01921 87.8467 7.89746 87.4707 7.89746C86.9658 7.89746 86.5737 8.08008 86.2944 8.44531C86.0187 8.80697 85.8809 9.33154 85.8809 10.019V10.207C85.8809 10.8766 86.0187 11.3923 86.2944 11.7539C86.5701 12.1156 86.964 12.2964 87.4761 12.2964Z" fill="#555555"/>
<path d="M94.2866 11.4585C94.2866 11.1899 94.1846 10.9823 93.9805 10.8354C93.7799 10.6851 93.4272 10.5562 92.9224 10.4487C92.4211 10.3413 92.0218 10.2124 91.7246 10.062C91.431 9.91162 91.2126 9.73258 91.0693 9.5249C90.9297 9.31722 90.8599 9.07015 90.8599 8.78369C90.8599 8.30745 91.0604 7.90462 91.4614 7.5752C91.866 7.24577 92.3817 7.08105 93.0083 7.08105C93.6672 7.08105 94.2007 7.25114 94.6089 7.59131C95.0207 7.93148 95.2266 8.36654 95.2266 8.89648H94.2275C94.2275 8.62435 94.1112 8.38981 93.8784 8.19287C93.6493 7.99593 93.3592 7.89746 93.0083 7.89746C92.6466 7.89746 92.3638 7.97624 92.1597 8.13379C91.9556 8.29134 91.8535 8.49723 91.8535 8.75146C91.8535 8.99137 91.9484 9.1722 92.1382 9.29395C92.328 9.41569 92.6699 9.53206 93.1641 9.64307C93.6618 9.75407 94.0646 9.88656 94.3726 10.0405C94.6805 10.1945 94.9079 10.3807 95.0547 10.5991C95.2051 10.814 95.2803 11.0771 95.2803 11.3887C95.2803 11.9079 95.0726 12.325 94.6572 12.6401C94.2419 12.9517 93.703 13.1074 93.0405 13.1074C92.575 13.1074 92.1632 13.0251 91.8052 12.8604C91.4471 12.6956 91.166 12.4665 90.9619 12.1729C90.7614 11.8757 90.6611 11.5552 90.6611 11.2114H91.6548C91.6727 11.5444 91.8052 11.8094 92.0522 12.0063C92.3029 12.1997 92.6323 12.2964 93.0405 12.2964C93.4165 12.2964 93.7173 12.2212 93.9429 12.0708C94.172 11.9168 94.2866 11.7127 94.2866 11.4585Z" fill="#555555"/>
</svg>
