<svg width="124" height="37" viewBox="0 0 124 37" fill="none" xmlns="http://www.w3.org/2000/svg">
<rect width="124" height="37" rx="2" fill="#555555"/>
<rect x="0.5" y="19.5" width="123" height="17" rx="1.5" fill="#EEEEEE" stroke="#555555"/>
<path d="M9.79736 23.1797V31H8.77686V23.1797H9.79736ZM12.311 23.1797V24.0283H6.26855V23.1797H12.311Z" fill="#555555"/>
<path d="M13.5763 26.1016V31H12.5826V25.1885H13.5494L13.5763 26.1016ZM15.3917 25.1562L15.3863 26.0801C15.304 26.0622 15.2252 26.0514 15.15 26.0479C15.0784 26.0407 14.996 26.0371 14.9029 26.0371C14.6737 26.0371 14.4714 26.0729 14.296 26.1445C14.1205 26.2161 13.9719 26.3164 13.8502 26.4453C13.7284 26.5742 13.6318 26.7282 13.5601 26.9072C13.4921 27.0827 13.4473 27.276 13.4259 27.4873L13.1466 27.6484C13.1466 27.2975 13.1806 26.9681 13.2486 26.6602C13.3202 26.3522 13.4294 26.0801 13.5763 25.8438C13.7231 25.6038 13.9093 25.4176 14.1348 25.2852C14.364 25.1491 14.6361 25.0811 14.9513 25.0811C15.0229 25.0811 15.1052 25.09 15.1983 25.1079C15.2914 25.1222 15.3559 25.1383 15.3917 25.1562Z" fill="#555555"/>
<path d="M19.5358 29.6572V25.1885H20.5348V31H19.5841L19.5358 29.6572ZM19.7238 28.4326L20.1374 28.4219C20.1374 28.8086 20.0962 29.1667 20.0138 29.4961C19.9351 29.8219 19.8061 30.1048 19.6271 30.3447C19.4481 30.5846 19.2135 30.7726 18.9235 30.9087C18.6335 31.0412 18.2808 31.1074 17.8654 31.1074C17.5825 31.1074 17.3229 31.0662 17.0866 30.9839C16.8538 30.9015 16.6533 30.7744 16.485 30.6025C16.3167 30.4307 16.186 30.2069 16.0929 29.9312C16.0034 29.6554 15.9587 29.3242 15.9587 28.9375V25.1885H16.9523V28.9482C16.9523 29.2096 16.981 29.4263 17.0382 29.5981C17.0991 29.7664 17.1797 29.9007 17.2799 30.001C17.3838 30.0977 17.4984 30.1657 17.6237 30.2051C17.7526 30.2445 17.8851 30.2642 18.0212 30.2642C18.4437 30.2642 18.7785 30.1836 19.0255 30.0225C19.2726 29.8577 19.4499 29.6375 19.5573 29.3618C19.6683 29.0825 19.7238 28.7728 19.7238 28.4326Z" fill="#555555"/>
<path d="M23.3523 30.3984L24.969 25.1885H26.0325L23.7014 31.897C23.6477 32.0402 23.5761 32.1942 23.4866 32.3589C23.4006 32.5272 23.2896 32.6865 23.1536 32.8369C23.0175 32.9873 22.8528 33.109 22.6594 33.2021C22.4696 33.2988 22.2423 33.3472 21.9773 33.3472C21.8985 33.3472 21.7982 33.3364 21.6765 33.3149C21.5548 33.2935 21.4688 33.2756 21.4187 33.2612L21.4133 32.4556C21.442 32.4591 21.4867 32.4627 21.5476 32.4663C21.6121 32.4735 21.6568 32.4771 21.6819 32.4771C21.9075 32.4771 22.099 32.4466 22.2566 32.3857C22.4141 32.3285 22.5466 32.23 22.654 32.0903C22.765 31.9543 22.8599 31.7663 22.9387 31.5264L23.3523 30.3984ZM22.1653 25.1885L23.6746 29.7002L23.9324 30.7476L23.218 31.1128L21.0803 25.1885H22.1653Z" fill="#555555"/>
<path d="M31.3236 30.291C31.56 30.291 31.7784 30.2427 31.9789 30.146C32.1794 30.0493 32.3441 29.9168 32.473 29.7485C32.602 29.5767 32.6754 29.3815 32.6933 29.1631H33.6386C33.6207 29.5068 33.5043 29.8273 33.2895 30.1245C33.0782 30.4181 32.8007 30.6562 32.4569 30.8389C32.1132 31.0179 31.7354 31.1074 31.3236 31.1074C30.8868 31.1074 30.5054 31.0304 30.1796 30.8765C29.8573 30.7225 29.5888 30.5112 29.3739 30.2427C29.1627 29.9741 29.0033 29.6662 28.8959 29.3188C28.7921 28.9679 28.7401 28.5973 28.7401 28.207V27.9814C28.7401 27.5911 28.7921 27.2223 28.8959 26.875C29.0033 26.5241 29.1627 26.2144 29.3739 25.9458C29.5888 25.6772 29.8573 25.466 30.1796 25.312C30.5054 25.158 30.8868 25.0811 31.3236 25.0811C31.7784 25.0811 32.1758 25.1742 32.516 25.3604C32.8562 25.543 33.1229 25.7936 33.3163 26.1123C33.5132 26.4274 33.6207 26.7855 33.6386 27.1865H32.6933C32.6754 26.9466 32.6073 26.73 32.4892 26.5366C32.3746 26.3433 32.217 26.1893 32.0165 26.0747C31.8196 25.9565 31.5886 25.8975 31.3236 25.8975C31.0193 25.8975 30.7632 25.9583 30.5556 26.0801C30.3515 26.1982 30.1885 26.3594 30.0668 26.5635C29.9486 26.764 29.8627 26.9878 29.809 27.2349C29.7589 27.4784 29.7338 27.7272 29.7338 27.9814V28.207C29.7338 28.4613 29.7589 28.7119 29.809 28.959C29.8591 29.2061 29.9433 29.4299 30.0614 29.6304C30.1832 29.8309 30.3461 29.992 30.5502 30.1138C30.7579 30.2319 31.0157 30.291 31.3236 30.291Z" fill="#555555"/>
<path d="M37.8525 30.0063V27.0146C37.8525 26.7855 37.806 26.5868 37.7129 26.4185C37.6234 26.2466 37.4873 26.1141 37.3047 26.021C37.1221 25.9279 36.8965 25.8813 36.6279 25.8813C36.3773 25.8813 36.157 25.9243 35.9673 26.0103C35.7811 26.0962 35.6343 26.209 35.5268 26.3486C35.423 26.4883 35.3711 26.6387 35.3711 26.7998H34.3774C34.3774 26.5921 34.4311 26.3862 34.5386 26.1821C34.646 25.978 34.7999 25.7936 35.0005 25.6289C35.2046 25.4606 35.4481 25.3281 35.7309 25.2314C36.0174 25.1312 36.3361 25.0811 36.687 25.0811C37.1095 25.0811 37.4819 25.1527 37.8042 25.2959C38.13 25.4391 38.3843 25.6558 38.5669 25.9458C38.7531 26.2323 38.8462 26.5921 38.8462 27.0254V29.7324C38.8462 29.9258 38.8623 30.1317 38.8945 30.3501C38.9303 30.5685 38.9822 30.7565 39.0503 30.9141V31H38.0137C37.9635 30.8854 37.9241 30.7332 37.8955 30.5435C37.8668 30.3501 37.8525 30.1711 37.8525 30.0063ZM38.0244 27.4766L38.0351 28.1748H37.0307C36.7479 28.1748 36.4954 28.1981 36.2734 28.2446C36.0514 28.2876 35.8652 28.3538 35.7148 28.4434C35.5644 28.5329 35.4499 28.6457 35.3711 28.7817C35.2923 28.9142 35.2529 29.07 35.2529 29.249C35.2529 29.4316 35.2941 29.5981 35.3764 29.7485C35.4588 29.8989 35.5823 30.0189 35.7471 30.1084C35.9153 30.1943 36.1212 30.2373 36.3647 30.2373C36.6691 30.2373 36.9376 30.1729 37.1704 30.0439C37.4031 29.915 37.5875 29.7575 37.7236 29.5713C37.8633 29.3851 37.9385 29.2043 37.9492 29.0288L38.3735 29.5068C38.3485 29.6572 38.2804 29.8237 38.1694 30.0063C38.0584 30.189 37.9098 30.3644 37.7236 30.5327C37.541 30.6974 37.3226 30.8353 37.0683 30.9463C36.8177 31.0537 36.5348 31.1074 36.2197 31.1074C35.8258 31.1074 35.4803 31.0304 35.1831 30.8765C34.8895 30.7225 34.6603 30.5166 34.4956 30.2588C34.3345 29.9974 34.2539 29.7056 34.2539 29.3833C34.2539 29.0718 34.3148 28.7979 34.4365 28.5615C34.5582 28.3216 34.7337 28.1229 34.9629 27.9653C35.192 27.8042 35.4678 27.6825 35.79 27.6001C36.1123 27.5177 36.4721 27.4766 36.8696 27.4766H38.0244ZM37.0952 22.75L38.4272 24.2163V24.27H37.6001L36.7944 23.3623L35.9941 24.27H35.1777V24.2109L36.4936 22.75H37.0952ZM35.7471 32.3213C35.7471 32.1602 35.7954 32.0241 35.8921 31.9131C35.9923 31.8021 36.1391 31.7466 36.3325 31.7466C36.5223 31.7466 36.6673 31.8021 36.7676 31.9131C36.8714 32.0241 36.9233 32.1602 36.9233 32.3213C36.9233 32.4753 36.8714 32.606 36.7676 32.7134C36.6673 32.8244 36.5223 32.8799 36.3325 32.8799C36.1391 32.8799 35.9923 32.8244 35.8921 32.7134C35.7954 32.606 35.7471 32.4753 35.7471 32.3213Z" fill="#555555"/>
<path d="M41.0728 26.3057V33.2344H40.0738V25.1885H40.9869L41.0728 26.3057ZM44.9883 28.0459V28.1587C44.9883 28.5812 44.9382 28.9733 44.8379 29.335C44.7377 29.693 44.5909 30.0046 44.3975 30.2695C44.2077 30.5345 43.9732 30.7404 43.6939 30.8872C43.4146 31.034 43.0941 31.1074 42.7325 31.1074C42.3637 31.1074 42.0378 31.0465 41.7549 30.9248C41.4721 30.8031 41.2322 30.6258 41.0352 30.3931C40.8383 30.1603 40.6807 29.881 40.5626 29.5552C40.448 29.2293 40.3692 28.8623 40.3262 28.4541V27.8525C40.3692 27.4229 40.4498 27.0379 40.5679 26.6978C40.6861 26.3576 40.8419 26.0675 41.0352 25.8276C41.2322 25.5841 41.4703 25.3997 41.7496 25.2744C42.0289 25.1455 42.3511 25.0811 42.7164 25.0811C43.0816 25.0811 43.4057 25.1527 43.6885 25.2959C43.9714 25.4355 44.2095 25.6361 44.4029 25.8975C44.5962 26.1589 44.7413 26.4722 44.8379 26.8374C44.9382 27.1991 44.9883 27.6019 44.9883 28.0459ZM43.9893 28.1587V28.0459C43.9893 27.7559 43.9589 27.4837 43.898 27.2295C43.8371 26.9717 43.7422 26.7461 43.6133 26.5527C43.488 26.3558 43.3269 26.2018 43.1299 26.0908C42.933 25.9762 42.6985 25.9189 42.4263 25.9189C42.1757 25.9189 41.9573 25.9619 41.7711 26.0479C41.5884 26.1338 41.4327 26.2502 41.3038 26.397C41.1749 26.5402 41.0692 26.7049 40.9869 26.8911C40.9081 27.0737 40.849 27.2635 40.8096 27.4604V28.8516C40.8812 29.1022 40.9815 29.3385 41.1104 29.5605C41.2393 29.779 41.4112 29.9562 41.626 30.0923C41.8409 30.2248 42.1112 30.291 42.4371 30.291C42.7056 30.291 42.9366 30.2355 43.1299 30.1245C43.3269 30.0099 43.488 29.8542 43.6133 29.6572C43.7422 29.4603 43.8371 29.2347 43.898 28.9805C43.9589 28.7227 43.9893 28.4487 43.9893 28.1587Z" fill="#555555"/>
<path d="M51.9875 29.8721V22.75H52.9865V31H52.0735L51.9875 29.8721ZM48.0774 28.1587V28.0459C48.0774 27.6019 48.1311 27.1991 48.2385 26.8374C48.3495 26.4722 48.5053 26.1589 48.7058 25.8975C48.9099 25.6361 49.1516 25.4355 49.4309 25.2959C49.7138 25.1527 50.0289 25.0811 50.3762 25.0811C50.7414 25.0811 51.0601 25.1455 51.3322 25.2744C51.608 25.3997 51.8407 25.5841 52.0305 25.8276C52.2238 26.0675 52.376 26.3576 52.487 26.6978C52.598 27.0379 52.675 27.4229 52.718 27.8525V28.3467C52.6786 28.7728 52.6016 29.1559 52.487 29.4961C52.376 29.8363 52.2238 30.1263 52.0305 30.3662C51.8407 30.6061 51.608 30.7905 51.3322 30.9194C51.0565 31.0448 50.7343 31.1074 50.3654 31.1074C50.0253 31.1074 49.7138 31.034 49.4309 30.8872C49.1516 30.7404 48.9099 30.5345 48.7058 30.2695C48.5053 30.0046 48.3495 29.693 48.2385 29.335C48.1311 28.9733 48.0774 28.5812 48.0774 28.1587ZM49.0764 28.0459V28.1587C49.0764 28.4487 49.105 28.7209 49.1623 28.9751C49.2232 29.2293 49.3163 29.4531 49.4416 29.6465C49.5669 29.8398 49.7263 29.992 49.9196 30.103C50.113 30.2104 50.344 30.2642 50.6125 30.2642C50.9419 30.2642 51.2123 30.1943 51.4236 30.0547C51.6384 29.915 51.8103 29.7306 51.9392 29.5015C52.0681 29.2723 52.1683 29.0234 52.24 28.7549V27.4604C52.197 27.2635 52.1343 27.0737 52.052 26.8911C51.9732 26.7049 51.8694 26.5402 51.7404 26.397C51.6151 26.2502 51.4594 26.1338 51.2732 26.0479C51.0905 25.9619 50.8739 25.9189 50.6233 25.9189C50.3511 25.9189 50.1166 25.9762 49.9196 26.0908C49.7263 26.2018 49.5669 26.3558 49.4416 26.5527C49.3163 26.7461 49.2232 26.9717 49.1623 27.2295C49.105 27.4837 49.0764 27.7559 49.0764 28.0459Z" fill="#555555"/>
<path d="M59.6443 24.7212H60.407C60.407 25.1115 60.3551 25.4391 60.2513 25.7041C60.151 25.9691 59.9738 26.1678 59.7195 26.3003C59.4653 26.4328 59.1072 26.499 58.6453 26.499V25.8867C58.9676 25.8867 59.1985 25.8473 59.3382 25.7686C59.4778 25.6862 59.5638 25.5591 59.596 25.3872C59.6282 25.2153 59.6443 24.9933 59.6443 24.7212ZM57.7591 29.6572V25.1885H58.7581V31H57.8074L57.7591 29.6572ZM57.9471 28.4326L58.3606 28.4219C58.3606 28.8086 58.3195 29.1667 58.2371 29.4961C58.1583 29.8219 58.0294 30.1048 57.8504 30.3447C57.6714 30.5846 57.4368 30.7726 57.1468 30.9087C56.8567 31.0412 56.504 31.1074 56.0887 31.1074C55.8058 31.1074 55.5462 31.0662 55.3099 30.9839C55.0771 30.9015 54.8766 30.7744 54.7083 30.6025C54.54 30.4307 54.4093 30.2069 54.3162 29.9312C54.2267 29.6554 54.1819 29.3242 54.1819 28.9375V25.1885H55.1756V28.9482C55.1756 29.2096 55.2042 29.4263 55.2615 29.5981C55.3224 29.7664 55.403 29.9007 55.5032 30.001C55.6071 30.0977 55.7216 30.1657 55.847 30.2051C55.9759 30.2445 56.1084 30.2642 56.2444 30.2642C56.667 30.2642 57.0018 30.1836 57.2488 30.0225C57.4959 29.8577 57.6731 29.6375 57.7806 29.3618C57.8916 29.0825 57.9471 28.7728 57.9471 28.4326ZM57.7967 22.9702L58.4681 23.0293C58.4681 23.2907 58.4161 23.5199 58.3123 23.7168C58.2085 23.9137 58.0688 24.0659 57.8934 24.1733C57.7215 24.2808 57.5263 24.3345 57.3079 24.3345C57.1253 24.3345 56.9749 24.3094 56.8567 24.2593C56.7386 24.2056 56.6329 24.1465 56.5398 24.082C56.4467 24.014 56.3483 23.9549 56.2444 23.9048C56.1442 23.8511 56.0188 23.8242 55.8685 23.8242C55.7181 23.8242 55.591 23.8815 55.4871 23.9961C55.3868 24.1107 55.3367 24.2521 55.3367 24.4204L54.6653 24.3882C54.6653 24.1268 54.7155 23.8976 54.8157 23.7007C54.9196 23.5002 55.0592 23.3444 55.2347 23.2334C55.4101 23.1188 55.6053 23.0615 55.8201 23.0615C55.9741 23.0615 56.1084 23.0884 56.2229 23.1421C56.3411 23.1922 56.4521 23.2513 56.556 23.3193C56.6598 23.3838 56.7672 23.4429 56.8782 23.4966C56.9892 23.5467 57.1163 23.5718 57.2596 23.5718C57.41 23.5718 57.5371 23.5145 57.6409 23.3999C57.7448 23.2817 57.7967 23.1385 57.7967 22.9702Z" fill="#555555"/>
<path d="M64.1621 22.75V31H63.163V22.75H64.1621Z" fill="#555555"/>
<path d="M66.5069 25.1885V31H65.5079V25.1885H66.5069ZM65.4327 23.647C65.4327 23.4858 65.481 23.3498 65.5777 23.2388C65.6779 23.1278 65.8247 23.0723 66.0181 23.0723C66.2079 23.0723 66.3529 23.1278 66.4532 23.2388C66.557 23.3498 66.6089 23.4858 66.6089 23.647C66.6089 23.8009 66.557 23.9334 66.4532 24.0444C66.3529 24.1519 66.2079 24.2056 66.0181 24.2056C65.8247 24.2056 65.6779 24.1519 65.5777 24.0444C65.481 23.9334 65.4327 23.8009 65.4327 23.647Z" fill="#555555"/>
<path d="M70.1837 31.1074C69.7791 31.1074 69.4121 31.0394 69.0826 30.9033C68.7568 30.7637 68.4757 30.5685 68.2394 30.3179C68.0066 30.0672 67.8276 29.77 67.7023 29.4263C67.5769 29.0825 67.5143 28.7065 67.5143 28.2983V28.0728C67.5143 27.6001 67.5841 27.1794 67.7238 26.8105C67.8634 26.4382 68.0532 26.123 68.2931 25.8652C68.533 25.6074 68.8051 25.4123 69.1095 25.2798C69.4139 25.1473 69.729 25.0811 70.0548 25.0811C70.4702 25.0811 70.8282 25.1527 71.129 25.2959C71.4334 25.4391 71.6823 25.6396 71.8756 25.8975C72.069 26.1517 72.2122 26.4525 72.3053 26.7998C72.3984 27.1436 72.4449 27.5195 72.4449 27.9277V28.3735H68.1051V27.5625H71.4513V27.4873C71.437 27.2295 71.3833 26.9788 71.2902 26.7354C71.2006 26.4919 71.0574 26.2913 70.8605 26.1338C70.6635 25.9762 70.395 25.8975 70.0548 25.8975C69.8292 25.8975 69.6215 25.9458 69.4318 26.0425C69.242 26.1356 69.0791 26.2752 68.943 26.4614C68.8069 26.6476 68.7013 26.875 68.6261 27.1436C68.5509 27.4121 68.5133 27.7218 68.5133 28.0728V28.2983C68.5133 28.5741 68.5509 28.8337 68.6261 29.0771C68.7049 29.3171 68.8177 29.5283 68.9645 29.7109C69.1149 29.8936 69.2957 30.0368 69.507 30.1406C69.7218 30.2445 69.9653 30.2964 70.2374 30.2964C70.5883 30.2964 70.8855 30.2248 71.129 30.0815C71.3725 29.9383 71.5856 29.7467 71.7682 29.5068L72.3698 29.9849C72.2444 30.1746 72.0851 30.3555 71.8917 30.5273C71.6984 30.6992 71.4602 30.8389 71.1774 30.9463C70.8981 31.0537 70.5669 31.1074 70.1837 31.1074ZM70.3502 22.75L71.6823 24.2163V24.27H70.8551L70.0494 23.3623L69.2491 24.27H68.4327V24.2109L69.7487 22.75H70.3502ZM69.4479 32.3213C69.4479 32.1602 69.4962 32.0241 69.5929 31.9131C69.6932 31.8021 69.84 31.7466 70.0333 31.7466C70.2231 31.7466 70.3681 31.8021 70.4684 31.9131C70.5722 32.0241 70.6241 32.1602 70.6241 32.3213C70.6241 32.4753 70.5722 32.606 70.4684 32.7134C70.3681 32.8244 70.2231 32.8799 70.0333 32.8799C69.84 32.8799 69.6932 32.8244 69.5929 32.7134C69.4962 32.606 69.4479 32.4753 69.4479 32.3213Z" fill="#555555"/>
<path d="M76.8308 29.6572V25.1885H77.8298V31H76.8791L76.8308 29.6572ZM77.0188 28.4326L77.4323 28.4219C77.4323 28.8086 77.3911 29.1667 77.3088 29.4961C77.23 29.8219 77.1011 30.1048 76.9221 30.3447C76.743 30.5846 76.5085 30.7726 76.2185 30.9087C75.9284 31.0412 75.5757 31.1074 75.1604 31.1074C74.8775 31.1074 74.6179 31.0662 74.3815 30.9839C74.1488 30.9015 73.9483 30.7744 73.78 30.6025C73.6117 30.4307 73.481 30.2069 73.3879 29.9312C73.2984 29.6554 73.2536 29.3242 73.2536 28.9375V25.1885H74.2473V28.9482C74.2473 29.2096 74.2759 29.4263 74.3332 29.5981C74.3941 29.7664 74.4746 29.9007 74.5749 30.001C74.6787 30.0977 74.7933 30.1657 74.9187 30.2051C75.0476 30.2445 75.18 30.2642 75.3161 30.2642C75.7386 30.2642 76.0734 30.1836 76.3205 30.0225C76.5676 29.8577 76.7448 29.6375 76.8522 29.3618C76.9633 29.0825 77.0188 28.7728 77.0188 28.4326Z" fill="#555555"/>
<path d="M83.7386 30.291C83.975 30.291 84.1934 30.2427 84.3939 30.146C84.5944 30.0493 84.7591 29.9168 84.888 29.7485C85.017 29.5767 85.0904 29.3815 85.1083 29.1631H86.0536C86.0357 29.5068 85.9193 29.8273 85.7045 30.1245C85.4932 30.4181 85.2157 30.6562 84.8719 30.8389C84.5282 31.0179 84.1504 31.1074 83.7386 31.1074C83.3018 31.1074 82.9204 31.0304 82.5946 30.8765C82.2723 30.7225 82.0038 30.5112 81.7889 30.2427C81.5777 29.9741 81.4183 29.6662 81.3109 29.3188C81.2071 28.9679 81.1551 28.5973 81.1551 28.207V27.9814C81.1551 27.5911 81.2071 27.2223 81.3109 26.875C81.4183 26.5241 81.5777 26.2144 81.7889 25.9458C82.0038 25.6772 82.2723 25.466 82.5946 25.312C82.9204 25.158 83.3018 25.0811 83.7386 25.0811C84.1934 25.0811 84.5908 25.1742 84.931 25.3604C85.2712 25.543 85.5379 25.7936 85.7313 26.1123C85.9282 26.4274 86.0357 26.7855 86.0536 27.1865H85.1083C85.0904 26.9466 85.0223 26.73 84.9042 26.5366C84.7896 26.3433 84.632 26.1893 84.4315 26.0747C84.2346 25.9565 84.0036 25.8975 83.7386 25.8975C83.4343 25.8975 83.1782 25.9583 82.9706 26.0801C82.7665 26.1982 82.6035 26.3594 82.4818 26.5635C82.3636 26.764 82.2777 26.9878 82.224 27.2349C82.1739 27.4784 82.1488 27.7272 82.1488 27.9814V28.207C82.1488 28.4613 82.1739 28.7119 82.224 28.959C82.2741 29.2061 82.3583 29.4299 82.4764 29.6304C82.5982 29.8309 82.7611 29.992 82.9652 30.1138C83.1729 30.2319 83.4307 30.291 83.7386 30.291Z" fill="#555555"/>
<path d="M90.3964 29.6572V25.1885H91.3954V31H90.4448L90.3964 29.6572ZM90.5844 28.4326L90.998 28.4219C90.998 28.8086 90.9568 29.1667 90.8745 29.4961C90.7957 29.8219 90.6668 30.1048 90.4877 30.3447C90.3087 30.5846 90.0742 30.7726 89.7841 30.9087C89.4941 31.0412 89.1414 31.1074 88.726 31.1074C88.4431 31.1074 88.1835 31.0662 87.9472 30.9839C87.7145 30.9015 87.5139 30.7744 87.3456 30.6025C87.1773 30.4307 87.0467 30.2069 86.9536 29.9312C86.864 29.6554 86.8193 29.3242 86.8193 28.9375V25.1885H87.8129V28.9482C87.8129 29.2096 87.8416 29.4263 87.8989 29.5981C87.9597 29.7664 88.0403 29.9007 88.1406 30.001C88.2444 30.0977 88.359 30.1657 88.4843 30.2051C88.6132 30.2445 88.7457 30.2642 88.8818 30.2642C89.3043 30.2642 89.6391 30.1836 89.8862 30.0225C90.1332 29.8577 90.3105 29.6375 90.4179 29.3618C90.5289 29.0825 90.5844 28.7728 90.5844 28.4326ZM89.5048 24.2432H88.7905L88.7851 23.4268C88.9677 23.416 89.1163 23.3981 89.2309 23.373C89.3455 23.3444 89.4296 23.3032 89.4833 23.2495C89.537 23.1922 89.5639 23.117 89.5639 23.0239C89.5639 22.9487 89.5406 22.8861 89.4941 22.8359C89.4475 22.7822 89.3831 22.7393 89.3007 22.707C89.2184 22.6712 89.1235 22.6462 89.0161 22.6318C88.9086 22.6175 88.794 22.6104 88.6723 22.6104L88.7099 22.041C88.9749 22.041 89.2076 22.0643 89.4081 22.1108C89.6122 22.1574 89.7823 22.2254 89.9184 22.3149C90.058 22.4045 90.1619 22.5119 90.2299 22.6372C90.3015 22.759 90.3373 22.895 90.3373 23.0454C90.3373 23.3175 90.2514 23.5163 90.0795 23.6416C89.9077 23.7633 89.7179 23.8385 89.5102 23.8672L89.5048 24.2432Z" fill="#555555"/>
<path d="M96.0069 30.0063V27.0146C96.0069 26.7855 95.9603 26.5868 95.8672 26.4185C95.7777 26.2466 95.6416 26.1141 95.459 26.021C95.2764 25.9279 95.0508 25.8813 94.7822 25.8813C94.5316 25.8813 94.3114 25.9243 94.1216 26.0103C93.9354 26.0962 93.7886 26.209 93.6812 26.3486C93.5773 26.4883 93.5254 26.6387 93.5254 26.7998H92.5318C92.5318 26.5921 92.5855 26.3862 92.6929 26.1821C92.8003 25.978 92.9543 25.7936 93.1548 25.6289C93.3589 25.4606 93.6024 25.3281 93.8853 25.2314C94.1717 25.1312 94.4904 25.0811 94.8413 25.0811C95.2639 25.0811 95.6363 25.1527 95.9585 25.2959C96.2844 25.4391 96.5386 25.6558 96.7212 25.9458C96.9074 26.2323 97.0005 26.5921 97.0005 27.0254V29.7324C97.0005 29.9258 97.0166 30.1317 97.0489 30.3501C97.0847 30.5685 97.1366 30.7565 97.2046 30.9141V31H96.168C96.1179 30.8854 96.0785 30.7332 96.0498 30.5435C96.0212 30.3501 96.0069 30.1711 96.0069 30.0063ZM96.1787 27.4766L96.1895 28.1748H95.1851C94.9022 28.1748 94.6498 28.1981 94.4278 28.2446C94.2058 28.2876 94.0196 28.3538 93.8692 28.4434C93.7188 28.5329 93.6042 28.6457 93.5254 28.7817C93.4466 28.9142 93.4072 29.07 93.4072 29.249C93.4072 29.4316 93.4484 29.5981 93.5308 29.7485C93.6131 29.8989 93.7367 30.0189 93.9014 30.1084C94.0697 30.1943 94.2756 30.2373 94.5191 30.2373C94.8234 30.2373 95.092 30.1729 95.3247 30.0439C95.5575 29.915 95.7419 29.7575 95.878 29.5713C96.0176 29.3851 96.0928 29.2043 96.1035 29.0288L96.5279 29.5068C96.5028 29.6572 96.4348 29.8237 96.3238 30.0063C96.2128 30.189 96.0642 30.3644 95.878 30.5327C95.6953 30.6974 95.4769 30.8353 95.2227 30.9463C94.972 31.0537 94.6892 31.1074 94.374 31.1074C93.9802 31.1074 93.6346 31.0304 93.3374 30.8765C93.0438 30.7225 92.8146 30.5166 92.6499 30.2588C92.4888 29.9974 92.4082 29.7056 92.4082 29.3833C92.4082 29.0718 92.4691 28.7979 92.5908 28.5615C92.7126 28.3216 92.888 28.1229 93.1172 27.9653C93.3464 27.8042 93.6221 27.6825 93.9444 27.6001C94.2666 27.5177 94.6265 27.4766 95.0239 27.4766H96.1787Z" fill="#555555"/>
<path d="M100.627 22.75H101.626V29.8721L101.54 31H100.627V22.75ZM105.552 28.0459V28.1587C105.552 28.5812 105.502 28.9733 105.402 29.335C105.301 29.693 105.154 30.0046 104.961 30.2695C104.768 30.5345 104.531 30.7404 104.252 30.8872C103.973 31.034 103.652 31.1074 103.291 31.1074C102.922 31.1074 102.598 31.0448 102.319 30.9194C102.043 30.7905 101.81 30.6061 101.62 30.3662C101.431 30.1263 101.278 29.8363 101.164 29.4961C101.053 29.1559 100.976 28.7728 100.933 28.3467V27.8525C100.976 27.4229 101.053 27.0379 101.164 26.6978C101.278 26.3576 101.431 26.0675 101.62 25.8276C101.81 25.5841 102.043 25.3997 102.319 25.2744C102.594 25.1455 102.915 25.0811 103.28 25.0811C103.645 25.0811 103.969 25.1527 104.252 25.2959C104.535 25.4355 104.771 25.6361 104.961 25.8975C105.154 26.1589 105.301 26.4722 105.402 26.8374C105.502 27.1991 105.552 27.6019 105.552 28.0459ZM104.553 28.1587V28.0459C104.553 27.7559 104.526 27.4837 104.472 27.2295C104.419 26.9717 104.333 26.7461 104.215 26.5527C104.096 26.3558 103.941 26.2018 103.747 26.0908C103.554 25.9762 103.316 25.9189 103.033 25.9189C102.782 25.9189 102.564 25.9619 102.378 26.0479C102.195 26.1338 102.039 26.2502 101.91 26.397C101.781 26.5402 101.676 26.7049 101.593 26.8911C101.515 27.0737 101.456 27.2635 101.416 27.4604V28.7549C101.473 29.0055 101.567 29.2472 101.695 29.48C101.828 29.7091 102.003 29.8971 102.222 30.0439C102.444 30.1908 102.718 30.2642 103.044 30.2642C103.312 30.2642 103.541 30.2104 103.731 30.103C103.924 29.992 104.08 29.8398 104.198 29.6465C104.32 29.4531 104.41 29.2293 104.467 28.9751C104.524 28.7209 104.553 28.4487 104.553 28.1587Z" fill="#555555"/>
<path d="M109.906 30.0063V27.0146C109.906 26.7855 109.859 26.5868 109.766 26.4185C109.676 26.2466 109.54 26.1141 109.358 26.021C109.175 25.9279 108.949 25.8813 108.681 25.8813C108.43 25.8813 108.21 25.9243 108.02 26.0103C107.834 26.0962 107.687 26.209 107.58 26.3486C107.476 26.4883 107.424 26.6387 107.424 26.7998H106.43C106.43 26.5921 106.484 26.3862 106.592 26.1821C106.699 25.978 106.853 25.7936 107.053 25.6289C107.258 25.4606 107.501 25.3281 107.784 25.2314C108.07 25.1312 108.389 25.0811 108.74 25.0811C109.163 25.0811 109.535 25.1527 109.857 25.2959C110.183 25.4391 110.437 25.6558 110.62 25.9458C110.806 26.2323 110.899 26.5921 110.899 27.0254V29.7324C110.899 29.9258 110.915 30.1317 110.948 30.3501C110.983 30.5685 111.035 30.7565 111.103 30.9141V31H110.067C110.017 30.8854 109.977 30.7332 109.948 30.5435C109.92 30.3501 109.906 30.1711 109.906 30.0063ZM110.077 27.4766L110.088 28.1748H109.084C108.801 28.1748 108.548 28.1981 108.326 28.2446C108.104 28.2876 107.918 28.3538 107.768 28.4434C107.617 28.5329 107.503 28.6457 107.424 28.7817C107.345 28.9142 107.306 29.07 107.306 29.249C107.306 29.4316 107.347 29.5981 107.429 29.7485C107.512 29.8989 107.635 30.0189 107.8 30.1084C107.968 30.1943 108.174 30.2373 108.418 30.2373C108.722 30.2373 108.991 30.1729 109.223 30.0439C109.456 29.915 109.641 29.7575 109.777 29.5713C109.916 29.3851 109.991 29.2043 110.002 29.0288L110.427 29.5068C110.401 29.6572 110.333 29.8237 110.222 30.0063C110.111 30.189 109.963 30.3644 109.777 30.5327C109.594 30.6974 109.376 30.8353 109.121 30.9463C108.871 31.0537 108.588 31.1074 108.273 31.1074C107.879 31.1074 107.533 31.0304 107.236 30.8765C106.942 30.7225 106.713 30.5166 106.549 30.2588C106.387 29.9974 106.307 29.7056 106.307 29.3833C106.307 29.0718 106.368 28.7979 106.49 28.5615C106.611 28.3216 106.787 28.1229 107.016 27.9653C107.245 27.8042 107.521 27.6825 107.843 27.6001C108.165 27.5177 108.525 27.4766 108.923 27.4766H110.077ZM107.8 32.3213C107.8 32.1602 107.848 32.0241 107.945 31.9131C108.045 31.8021 108.192 31.7466 108.386 31.7466C108.575 31.7466 108.72 31.8021 108.821 31.9131C108.924 32.0241 108.976 32.1602 108.976 32.3213C108.976 32.4753 108.924 32.606 108.821 32.7134C108.72 32.8244 108.575 32.8799 108.386 32.8799C108.192 32.8799 108.045 32.8244 107.945 32.7134C107.848 32.606 107.8 32.4753 107.8 32.3213Z" fill="#555555"/>
<path d="M113.126 26.4292V31H112.132V25.1885H113.072L113.126 26.4292ZM112.889 27.874L112.476 27.8579C112.479 27.4604 112.539 27.0934 112.653 26.7568C112.768 26.4167 112.929 26.1213 113.137 25.8706C113.344 25.62 113.591 25.4266 113.878 25.2905C114.168 25.1509 114.488 25.0811 114.839 25.0811C115.126 25.0811 115.383 25.1204 115.613 25.1992C115.842 25.2744 116.037 25.3962 116.198 25.5645C116.363 25.7327 116.488 25.9512 116.574 26.2197C116.66 26.4847 116.703 26.8088 116.703 27.1919V31H115.704V27.1812C115.704 26.8768 115.659 26.6333 115.57 26.4507C115.48 26.2645 115.349 26.1302 115.178 26.0479C115.006 25.9619 114.794 25.9189 114.544 25.9189C114.297 25.9189 114.071 25.9709 113.867 26.0747C113.667 26.1785 113.493 26.3218 113.346 26.5044C113.203 26.687 113.09 26.8965 113.008 27.1328C112.929 27.3656 112.889 27.6126 112.889 27.874Z" fill="#555555"/>
<path d="M23.3979 9.54639H20.1162V13H19.085V5.17969H23.9297V6.02832H20.1162V8.70312H23.3979V9.54639ZM28.4146 13C28.3573 12.8854 28.3107 12.6813 28.2749 12.3877C27.813 12.8675 27.2616 13.1074 26.6206 13.1074C26.0477 13.1074 25.5768 12.9463 25.208 12.624C24.8428 12.2982 24.6602 11.8864 24.6602 11.3887C24.6602 10.7835 24.8893 10.3145 25.3477 9.98145C25.8096 9.64486 26.4577 9.47656 27.292 9.47656H28.2588V9.02002C28.2588 8.67269 28.1549 8.39697 27.9473 8.19287C27.7396 7.98519 27.4334 7.88135 27.0288 7.88135C26.6743 7.88135 26.3771 7.97087 26.1372 8.1499C25.8973 8.32894 25.7773 8.54557 25.7773 8.7998H24.7783C24.7783 8.50977 24.8804 8.23047 25.0845 7.96191C25.2922 7.68978 25.5715 7.47493 25.9224 7.31738C26.2769 7.15983 26.6654 7.08105 27.0879 7.08105C27.7575 7.08105 28.2821 7.24935 28.6616 7.58594C29.0412 7.91895 29.2381 8.37907 29.2524 8.96631V11.6411C29.2524 12.1746 29.3205 12.599 29.4565 12.9141V13H28.4146ZM26.7656 12.2427C27.0771 12.2427 27.3726 12.1621 27.6519 12.001C27.9312 11.8398 28.1335 11.6304 28.2588 11.3726V10.1802H27.48C26.2625 10.1802 25.6538 10.5365 25.6538 11.249C25.6538 11.5605 25.7576 11.804 25.9653 11.9795C26.173 12.1549 26.4398 12.2427 26.7656 12.2427ZM31.8896 13H30.896V7.18848H31.8896V13ZM30.8154 5.64697C30.8154 5.48584 30.8638 5.34977 30.9604 5.23877C31.0607 5.12777 31.2075 5.07227 31.4009 5.07227C31.5942 5.07227 31.741 5.12777 31.8413 5.23877C31.9416 5.34977 31.9917 5.48584 31.9917 5.64697C31.9917 5.80811 31.9416 5.94238 31.8413 6.0498C31.741 6.15723 31.5942 6.21094 31.4009 6.21094C31.2075 6.21094 31.0607 6.15723 30.9604 6.0498C30.8638 5.94238 30.8154 5.80811 30.8154 5.64697ZM36.2939 8.08008C36.1436 8.05501 35.9806 8.04248 35.8052 8.04248C35.1535 8.04248 34.7113 8.31999 34.4785 8.875V13H33.4849V7.18848H34.4517L34.4678 7.85986C34.7936 7.34066 35.2555 7.08105 35.8535 7.08105C36.0469 7.08105 36.1937 7.10612 36.2939 7.15625V8.08008ZM45.0864 11.6304L46.2036 7.18848H47.1973L45.5054 13H44.6997L43.2871 8.5957L41.9121 13H41.1064L39.4199 7.18848H40.4082L41.5522 11.5391L42.9058 7.18848H43.7061L45.0864 11.6304ZM50.624 13.1074C49.8363 13.1074 49.1953 12.8496 48.7012 12.334C48.207 11.8148 47.96 11.1219 47.96 10.2554V10.0728C47.96 9.49626 48.0692 8.98242 48.2876 8.53125C48.5096 8.0765 48.8175 7.72201 49.2114 7.46777C49.6089 7.20996 50.0386 7.08105 50.5005 7.08105C51.256 7.08105 51.8433 7.32992 52.2622 7.82764C52.6812 8.32536 52.8906 9.03792 52.8906 9.96533V10.3789H48.9536C48.9679 10.9518 49.1344 11.4155 49.4531 11.77C49.7754 12.1209 50.1836 12.2964 50.6777 12.2964C51.0286 12.2964 51.3258 12.2248 51.5693 12.0815C51.8128 11.9383 52.0259 11.7485 52.2085 11.5122L52.8154 11.9849C52.3285 12.7332 51.598 13.1074 50.624 13.1074ZM50.5005 7.89746C50.0994 7.89746 49.7629 8.04427 49.4907 8.33789C49.2186 8.62793 49.0503 9.03613 48.9858 9.5625H51.897V9.4873C51.8683 8.98242 51.7323 8.59212 51.4888 8.31641C51.2453 8.03711 50.9159 7.89746 50.5005 7.89746ZM58.9653 10.1587C58.9653 11.0467 58.7612 11.7611 58.353 12.3018C57.9448 12.8389 57.397 13.1074 56.7095 13.1074C55.9754 13.1074 55.4079 12.8478 55.0068 12.3286L54.9585 13H54.0454V4.75H55.0391V7.82764C55.4401 7.32992 55.9933 7.08105 56.6987 7.08105C57.4041 7.08105 57.9574 7.34782 58.3584 7.88135C58.763 8.41488 58.9653 9.14535 58.9653 10.0728V10.1587ZM57.9717 10.0459C57.9717 9.36914 57.841 8.84635 57.5796 8.47754C57.3182 8.10872 56.9422 7.92432 56.4517 7.92432C55.7964 7.92432 55.3255 8.22868 55.0391 8.8374V11.3511C55.3434 11.9598 55.8179 12.2642 56.4624 12.2642C56.9386 12.2642 57.3092 12.0798 57.5742 11.7109C57.8392 11.3421 57.9717 10.7871 57.9717 10.0459ZM66.5386 13C66.4813 12.8854 66.4347 12.6813 66.3989 12.3877C65.937 12.8675 65.3856 13.1074 64.7446 13.1074C64.1717 13.1074 63.7008 12.9463 63.332 12.624C62.9668 12.2982 62.7842 11.8864 62.7842 11.3887C62.7842 10.7835 63.0133 10.3145 63.4717 9.98145C63.9336 9.64486 64.5817 9.47656 65.416 9.47656H66.3828V9.02002C66.3828 8.67269 66.279 8.39697 66.0713 8.19287C65.8636 7.98519 65.5575 7.88135 65.1528 7.88135C64.7983 7.88135 64.5011 7.97087 64.2612 8.1499C64.0213 8.32894 63.9014 8.54557 63.9014 8.7998H62.9023C62.9023 8.50977 63.0044 8.23047 63.2085 7.96191C63.4162 7.68978 63.6955 7.47493 64.0464 7.31738C64.4009 7.15983 64.7894 7.08105 65.2119 7.08105C65.8815 7.08105 66.4061 7.24935 66.7856 7.58594C67.1652 7.91895 67.3621 8.37907 67.3765 8.96631V11.6411C67.3765 12.1746 67.4445 12.599 67.5806 12.9141V13H66.5386ZM64.8896 12.2427C65.2012 12.2427 65.4966 12.1621 65.7759 12.001C66.0552 11.8398 66.2575 11.6304 66.3828 11.3726V10.1802H65.604C64.3866 10.1802 63.7778 10.5365 63.7778 11.249C63.7778 11.5605 63.8817 11.804 64.0894 11.9795C64.297 12.1549 64.5638 12.2427 64.8896 12.2427ZM69.874 7.18848L69.9062 7.91895C70.3503 7.36035 70.9303 7.08105 71.6465 7.08105C72.8747 7.08105 73.4941 7.77393 73.5049 9.15967V13H72.5112V9.1543C72.5076 8.73535 72.411 8.42562 72.2212 8.2251C72.035 8.02458 71.7432 7.92432 71.3457 7.92432C71.0234 7.92432 70.7406 8.01025 70.4971 8.18213C70.2536 8.354 70.0638 8.57959 69.9277 8.85889V13H68.9341V7.18848H69.874ZM78.5913 13C78.534 12.8854 78.4875 12.6813 78.4517 12.3877C77.9897 12.8675 77.4383 13.1074 76.7974 13.1074C76.2244 13.1074 75.7536 12.9463 75.3848 12.624C75.0195 12.2982 74.8369 11.8864 74.8369 11.3887C74.8369 10.7835 75.0661 10.3145 75.5244 9.98145C75.9863 9.64486 76.6344 9.47656 77.4688 9.47656H78.4355V9.02002C78.4355 8.67269 78.3317 8.39697 78.124 8.19287C77.9163 7.98519 77.6102 7.88135 77.2056 7.88135C76.8511 7.88135 76.5539 7.97087 76.314 8.1499C76.0741 8.32894 75.9541 8.54557 75.9541 8.7998H74.9551C74.9551 8.50977 75.0571 8.23047 75.2612 7.96191C75.4689 7.68978 75.7482 7.47493 76.0991 7.31738C76.4536 7.15983 76.8421 7.08105 77.2646 7.08105C77.9342 7.08105 78.4588 7.24935 78.8384 7.58594C79.2179 7.91895 79.4149 8.37907 79.4292 8.96631V11.6411C79.4292 12.1746 79.4972 12.599 79.6333 12.9141V13H78.5913ZM76.9424 12.2427C77.2539 12.2427 77.5493 12.1621 77.8286 12.001C78.1079 11.8398 78.3102 11.6304 78.4355 11.3726V10.1802H77.6567C76.4393 10.1802 75.8306 10.5365 75.8306 11.249C75.8306 11.5605 75.9344 11.804 76.1421 11.9795C76.3498 12.1549 76.6165 12.2427 76.9424 12.2427ZM82.0664 13H81.0728V4.75H82.0664V13ZM85.563 11.5444L86.9165 7.18848H87.98L85.6436 13.897C85.2819 14.8638 84.7072 15.3472 83.9194 15.3472L83.7314 15.3311L83.3608 15.2612V14.4556L83.6294 14.4771C83.966 14.4771 84.2274 14.409 84.4136 14.2729C84.6034 14.1369 84.7591 13.888 84.8809 13.5264L85.1011 12.9355L83.0278 7.18848H84.1128L85.563 11.5444ZM90.2197 5.78125V7.18848H91.3047V7.95654H90.2197V11.5605C90.2197 11.7933 90.2681 11.9688 90.3647 12.0869C90.4614 12.2015 90.6261 12.2588 90.8589 12.2588C90.9735 12.2588 91.131 12.2373 91.3315 12.1943V13C91.0701 13.0716 90.8159 13.1074 90.5688 13.1074C90.1248 13.1074 89.79 12.9731 89.5645 12.7046C89.3389 12.436 89.2261 12.0547 89.2261 11.5605V7.95654H88.168V7.18848H89.2261V5.78125H90.2197ZM93.5498 13H92.5562V7.18848H93.5498V13ZM92.4756 5.64697C92.4756 5.48584 92.5239 5.34977 92.6206 5.23877C92.7209 5.12777 92.8677 5.07227 93.061 5.07227C93.2544 5.07227 93.4012 5.12777 93.5015 5.23877C93.6017 5.34977 93.6519 5.48584 93.6519 5.64697C93.6519 5.80811 93.6017 5.94238 93.5015 6.0498C93.4012 6.15723 93.2544 6.21094 93.061 6.21094C92.8677 6.21094 92.7209 6.15723 92.6206 6.0498C92.5239 5.94238 92.4756 5.80811 92.4756 5.64697ZM97.4761 12.2964C97.8306 12.2964 98.1403 12.189 98.4053 11.9741C98.6702 11.7593 98.8171 11.4907 98.8457 11.1685H99.7856C99.7677 11.5015 99.6532 11.8184 99.4419 12.1191C99.2306 12.4199 98.9478 12.6598 98.5933 12.8389C98.2424 13.0179 97.87 13.1074 97.4761 13.1074C96.6847 13.1074 96.0545 12.8442 95.5854 12.3179C95.12 11.7879 94.8872 11.0646 94.8872 10.1479V9.98145C94.8872 9.41569 94.991 8.9126 95.1987 8.47217C95.4064 8.03174 95.7036 7.68978 96.0903 7.44629C96.4806 7.2028 96.9408 7.08105 97.4707 7.08105C98.1224 7.08105 98.6631 7.2762 99.0928 7.6665C99.526 8.0568 99.757 8.56348 99.7856 9.18652H98.8457C98.8171 8.81055 98.6738 8.5026 98.416 8.2627C98.1618 8.01921 97.8467 7.89746 97.4707 7.89746C96.9658 7.89746 96.5737 8.08008 96.2944 8.44531C96.0187 8.80697 95.8809 9.33154 95.8809 10.019V10.207C95.8809 10.8766 96.0187 11.3923 96.2944 11.7539C96.5701 12.1156 96.964 12.2964 97.4761 12.2964ZM104.287 11.4585C104.287 11.1899 104.185 10.9823 103.98 10.8354C103.78 10.6851 103.427 10.5562 102.922 10.4487C102.421 10.3413 102.022 10.2124 101.725 10.062C101.431 9.91162 101.213 9.73258 101.069 9.5249C100.93 9.31722 100.86 9.07015 100.86 8.78369C100.86 8.30745 101.06 7.90462 101.461 7.5752C101.866 7.24577 102.382 7.08105 103.008 7.08105C103.667 7.08105 104.201 7.25114 104.609 7.59131C105.021 7.93148 105.227 8.36654 105.227 8.89648H104.228C104.228 8.62435 104.111 8.38981 103.878 8.19287C103.649 7.99593 103.359 7.89746 103.008 7.89746C102.647 7.89746 102.364 7.97624 102.16 8.13379C101.956 8.29134 101.854 8.49723 101.854 8.75146C101.854 8.99137 101.948 9.1722 102.138 9.29395C102.328 9.41569 102.67 9.53206 103.164 9.64307C103.662 9.75407 104.065 9.88656 104.373 10.0405C104.681 10.1945 104.908 10.3807 105.055 10.5991C105.205 10.814 105.28 11.0771 105.28 11.3887C105.28 11.9079 105.073 12.325 104.657 12.6401C104.242 12.9517 103.703 13.1074 103.041 13.1074C102.575 13.1074 102.163 13.0251 101.805 12.8604C101.447 12.6956 101.166 12.4665 100.962 12.1729C100.761 11.8757 100.661 11.5552 100.661 11.2114H101.655C101.673 11.5444 101.805 11.8094 102.052 12.0063C102.303 12.1997 102.632 12.2964 103.041 12.2964C103.417 12.2964 103.717 12.2212 103.943 12.0708C104.172 11.9168 104.287 11.7127 104.287 11.4585Z" fill="#EEEEEE"/>
</svg>
