<svg width="78" height="78" viewBox="0 0 78 78" fill="none" xmlns="http://www.w3.org/2000/svg">
<circle cx="39" cy="39" r="38.5" fill="#EEEEEE" stroke="#555555"/>
<path d="M18.2383 47.5156H15.8555L15.3203 49H14.5469L16.7188 43.3125H17.375L19.5508 49H18.7812L18.2383 47.5156ZM16.082 46.8984H18.0156L17.0469 44.2383L16.082 46.8984Z" fill="#555555"/>
<path d="M21.8984 48.4883C22.1562 48.4883 22.3815 48.4102 22.5742 48.2539C22.7669 48.0977 22.8737 47.9023 22.8945 47.668H23.5781C23.5651 47.9102 23.4818 48.1406 23.3281 48.3594C23.1745 48.5781 22.9688 48.7526 22.7109 48.8828C22.4557 49.013 22.1849 49.0781 21.8984 49.0781C21.3229 49.0781 20.8646 48.8867 20.5234 48.5039C20.1849 48.1185 20.0156 47.5924 20.0156 46.9258V46.8047C20.0156 46.3932 20.0911 46.0273 20.2422 45.707C20.3932 45.3867 20.6094 45.138 20.8906 44.9609C21.1745 44.7839 21.5091 44.6953 21.8945 44.6953C22.3685 44.6953 22.7617 44.8372 23.0742 45.1211C23.3893 45.4049 23.5573 45.7734 23.5781 46.2266H22.8945C22.8737 45.9531 22.7695 45.7292 22.582 45.5547C22.3971 45.3776 22.168 45.2891 21.8945 45.2891C21.5273 45.2891 21.2422 45.4219 21.0391 45.6875C20.8385 45.9505 20.7383 46.332 20.7383 46.832V46.9688C20.7383 47.4557 20.8385 47.8307 21.0391 48.0938C21.2396 48.3568 21.526 48.4883 21.8984 48.4883Z" fill="#555555"/>
<path d="M26.0859 48.4883C26.3438 48.4883 26.569 48.4102 26.7617 48.2539C26.9544 48.0977 27.0612 47.9023 27.082 47.668H27.7656C27.7526 47.9102 27.6693 48.1406 27.5156 48.3594C27.362 48.5781 27.1562 48.7526 26.8984 48.8828C26.6432 49.013 26.3724 49.0781 26.0859 49.0781C25.5104 49.0781 25.0521 48.8867 24.7109 48.5039C24.3724 48.1185 24.2031 47.5924 24.2031 46.9258V46.8047C24.2031 46.3932 24.2786 46.0273 24.4297 45.707C24.5807 45.3867 24.7969 45.138 25.0781 44.9609C25.362 44.7839 25.6966 44.6953 26.082 44.6953C26.556 44.6953 26.9492 44.8372 27.2617 45.1211C27.5768 45.4049 27.7448 45.7734 27.7656 46.2266H27.082C27.0612 45.9531 26.957 45.7292 26.7695 45.5547C26.5846 45.3776 26.3555 45.2891 26.082 45.2891C25.7148 45.2891 25.4297 45.4219 25.2266 45.6875C25.026 45.9505 24.9258 46.332 24.9258 46.832V46.9688C24.9258 47.4557 25.026 47.8307 25.2266 48.0938C25.4271 48.3568 25.7135 48.4883 26.0859 48.4883Z" fill="#555555"/>
<path d="M30.332 49.0781C29.7591 49.0781 29.293 48.8906 28.9336 48.5156C28.5742 48.138 28.3945 47.6341 28.3945 47.0039V46.8711C28.3945 46.4518 28.474 46.0781 28.6328 45.75C28.7943 45.4193 29.0182 45.1615 29.3047 44.9766C29.5938 44.7891 29.9062 44.6953 30.2422 44.6953C30.7917 44.6953 31.2188 44.8763 31.5234 45.2383C31.8281 45.6003 31.9805 46.1185 31.9805 46.793V47.0938H29.1172C29.1276 47.5104 29.2487 47.8477 29.4805 48.1055C29.7148 48.3607 30.0117 48.4883 30.3711 48.4883C30.6263 48.4883 30.8424 48.4362 31.0195 48.332C31.1966 48.2279 31.3516 48.0898 31.4844 47.918L31.9258 48.2617C31.5716 48.806 31.0404 49.0781 30.332 49.0781ZM30.2422 45.2891C29.9505 45.2891 29.7057 45.3958 29.5078 45.6094C29.3099 45.8203 29.1875 46.1172 29.1406 46.5H31.2578V46.4453C31.237 46.0781 31.138 45.7943 30.9609 45.5938C30.7839 45.3906 30.5443 45.2891 30.2422 45.2891ZM30.5938 43H31.4688L30.4219 44.1484H29.8398L30.5938 43Z" fill="#555555"/>
<path d="M32.6445 46.8516C32.6445 46.2031 32.7982 45.6823 33.1055 45.2891C33.4128 44.8932 33.8151 44.6953 34.3125 44.6953C34.8073 44.6953 35.1992 44.8646 35.4883 45.2031V43H36.2109V49H35.5469L35.5117 48.5469C35.2227 48.901 34.8203 49.0781 34.3047 49.0781C33.8151 49.0781 33.4154 48.8776 33.1055 48.4766C32.7982 48.0755 32.6445 47.5521 32.6445 46.9062V46.8516ZM33.3672 46.9336C33.3672 47.4128 33.4661 47.7878 33.6641 48.0586C33.862 48.3294 34.1354 48.4648 34.4844 48.4648C34.9427 48.4648 35.2773 48.2591 35.4883 47.8477V45.9062C35.2721 45.5078 34.9401 45.3086 34.4922 45.3086C34.138 45.3086 33.862 45.4453 33.6641 45.7188C33.4661 45.9922 33.3672 46.3971 33.3672 46.9336Z" fill="#555555"/>
<path d="M39.0898 49.0781C38.5169 49.0781 38.0508 48.8906 37.6914 48.5156C37.332 48.138 37.1523 47.6341 37.1523 47.0039V46.8711C37.1523 46.4518 37.2318 46.0781 37.3906 45.75C37.5521 45.4193 37.776 45.1615 38.0625 44.9766C38.3516 44.7891 38.6641 44.6953 39 44.6953C39.5495 44.6953 39.9766 44.8763 40.2812 45.2383C40.5859 45.6003 40.7383 46.1185 40.7383 46.793V47.0938H37.875C37.8854 47.5104 38.0065 47.8477 38.2383 48.1055C38.4727 48.3607 38.7695 48.4883 39.1289 48.4883C39.3841 48.4883 39.6003 48.4362 39.7773 48.332C39.9544 48.2279 40.1094 48.0898 40.2422 47.918L40.6836 48.2617C40.3294 48.806 39.7982 49.0781 39.0898 49.0781ZM39 45.2891C38.7083 45.2891 38.4635 45.3958 38.2656 45.6094C38.0677 45.8203 37.9453 46.1172 37.8984 46.5H40.0156V46.4453C39.9948 46.0781 39.8958 45.7943 39.7188 45.5938C39.5417 45.3906 39.3021 45.2891 39 45.2891Z" fill="#555555"/>
<path d="M43.6211 45.4219C43.5117 45.4036 43.3932 45.3945 43.2656 45.3945C42.7917 45.3945 42.4701 45.5964 42.3008 46V49H41.5781V44.7734H42.2812L42.293 45.2617C42.5299 44.8841 42.8659 44.6953 43.3008 44.6953C43.4414 44.6953 43.5482 44.7135 43.6211 44.75V45.4219Z" fill="#555555"/>
<path d="M48.8828 49C48.8411 48.9167 48.8073 48.7682 48.7812 48.5547C48.4453 48.9036 48.0443 49.0781 47.5781 49.0781C47.1615 49.0781 46.819 48.9609 46.5508 48.7266C46.2852 48.4896 46.1523 48.1901 46.1523 47.8281C46.1523 47.388 46.319 47.0469 46.6523 46.8047C46.9883 46.5599 47.4596 46.4375 48.0664 46.4375H48.7695V46.1055C48.7695 45.8529 48.694 45.6523 48.543 45.5039C48.3919 45.3529 48.1693 45.2773 47.875 45.2773C47.6172 45.2773 47.401 45.3424 47.2266 45.4727C47.0521 45.6029 46.9648 45.7604 46.9648 45.9453H46.2383C46.2383 45.7344 46.3125 45.5312 46.4609 45.3359C46.612 45.138 46.8151 44.9818 47.0703 44.8672C47.3281 44.7526 47.6107 44.6953 47.918 44.6953C48.4049 44.6953 48.7865 44.8177 49.0625 45.0625C49.3385 45.3047 49.4818 45.6393 49.4922 46.0664V48.0117C49.4922 48.3997 49.5417 48.7083 49.6406 48.9375V49H48.8828ZM47.6836 48.4492C47.9102 48.4492 48.125 48.3906 48.3281 48.2734C48.5312 48.1562 48.6784 48.0039 48.7695 47.8164V46.9492H48.2031C47.3177 46.9492 46.875 47.2083 46.875 47.7266C46.875 47.9531 46.9505 48.1302 47.1016 48.2578C47.2526 48.3854 47.4466 48.4492 47.6836 48.4492ZM48.4102 44.1484H47.7891L46.7812 43H47.6523L48.4102 44.1484Z" fill="#555555"/>
<path d="M54.0039 48.0195L55.0508 44.7734H55.7891L54.2734 49H53.7227L52.1914 44.7734H52.9297L54.0039 48.0195Z" fill="#555555"/>
<path d="M56.2305 46.8477C56.2305 46.4336 56.3112 46.0612 56.4727 45.7305C56.6367 45.3997 56.8633 45.1445 57.1523 44.9648C57.444 44.7852 57.776 44.6953 58.1484 44.6953C58.724 44.6953 59.1888 44.8945 59.543 45.293C59.8997 45.6914 60.0781 46.2214 60.0781 46.8828V46.9336C60.0781 47.3451 59.9987 47.7148 59.8398 48.043C59.6836 48.3685 59.4583 48.6224 59.1641 48.8047C58.8724 48.987 58.5365 49.0781 58.1562 49.0781C57.5833 49.0781 57.1185 48.8789 56.7617 48.4805C56.4076 48.082 56.2305 47.5547 56.2305 46.8984V46.8477ZM56.957 46.9336C56.957 47.4023 57.0651 47.7786 57.2812 48.0625C57.5 48.3464 57.7917 48.4883 58.1562 48.4883C58.5234 48.4883 58.8151 48.3451 59.0312 48.0586C59.2474 47.7695 59.3555 47.3659 59.3555 46.8477C59.3555 46.3841 59.2448 46.0091 59.0234 45.7227C58.8047 45.4336 58.513 45.2891 58.1484 45.2891C57.7917 45.2891 57.5039 45.431 57.2852 45.7148C57.0664 45.9987 56.957 46.4049 56.957 46.9336Z" fill="#555555"/>
<path d="M63.4453 47.8789C63.4453 47.6836 63.3711 47.5326 63.2227 47.4258C63.0768 47.3164 62.8203 47.2227 62.4531 47.1445C62.0885 47.0664 61.7982 46.9727 61.582 46.8633C61.3685 46.7539 61.2096 46.6237 61.1055 46.4727C61.0039 46.3216 60.9531 46.1419 60.9531 45.9336C60.9531 45.5872 61.099 45.2943 61.3906 45.0547C61.6849 44.8151 62.0599 44.6953 62.5156 44.6953C62.9948 44.6953 63.3828 44.819 63.6797 45.0664C63.9792 45.3138 64.1289 45.6302 64.1289 46.0156H63.4023C63.4023 45.8177 63.3177 45.6471 63.1484 45.5039C62.9818 45.3607 62.7708 45.2891 62.5156 45.2891C62.2526 45.2891 62.0469 45.3464 61.8984 45.4609C61.75 45.5755 61.6758 45.7253 61.6758 45.9102C61.6758 46.0846 61.7448 46.2161 61.8828 46.3047C62.0208 46.3932 62.2695 46.4779 62.6289 46.5586C62.9909 46.6393 63.2839 46.7357 63.5078 46.8477C63.7318 46.9596 63.8971 47.0951 64.0039 47.2539C64.1133 47.4102 64.168 47.6016 64.168 47.8281C64.168 48.2057 64.0169 48.5091 63.7148 48.7383C63.4128 48.9648 63.0208 49.0781 62.5391 49.0781C62.2005 49.0781 61.901 49.0182 61.6406 48.8984C61.3802 48.7786 61.1758 48.612 61.0273 48.3984C60.8815 48.1823 60.8086 47.9492 60.8086 47.6992H61.5312C61.5443 47.9414 61.6406 48.1341 61.8203 48.2773C62.0026 48.418 62.2422 48.4883 62.5391 48.4883C62.8125 48.4883 63.0312 48.4336 63.1953 48.3242C63.362 48.2122 63.4453 48.0638 63.4453 47.8789Z" fill="#555555"/>
<path d="M24.6133 55.8516C24.6133 55.2031 24.7669 54.6823 25.0742 54.2891C25.3815 53.8932 25.7839 53.6953 26.2812 53.6953C26.776 53.6953 27.168 53.8646 27.457 54.2031V52H28.1797V58H27.5156L27.4805 57.5469C27.1914 57.901 26.7891 58.0781 26.2734 58.0781C25.7839 58.0781 25.3841 57.8776 25.0742 57.4766C24.7669 57.0755 24.6133 56.5521 24.6133 55.9062V55.8516ZM25.3359 55.9336C25.3359 56.4128 25.4349 56.7878 25.6328 57.0586C25.8307 57.3294 26.1042 57.4648 26.4531 57.4648C26.9115 57.4648 27.2461 57.2591 27.457 56.8477V54.9062C27.2409 54.5078 26.9089 54.3086 26.4609 54.3086C26.1068 54.3086 25.8307 54.4453 25.6328 54.7188C25.4349 54.9922 25.3359 55.3971 25.3359 55.9336Z" fill="#555555"/>
<path d="M29.1133 55.8477C29.1133 55.4336 29.194 55.0612 29.3555 54.7305C29.5195 54.3997 29.7461 54.1445 30.0352 53.9648C30.3268 53.7852 30.6589 53.6953 31.0312 53.6953C31.6068 53.6953 32.0716 53.8945 32.4258 54.293C32.7826 54.6914 32.9609 55.2214 32.9609 55.8828V55.9336C32.9609 56.3451 32.8815 56.7148 32.7227 57.043C32.5664 57.3685 32.3411 57.6224 32.0469 57.8047C31.7552 57.987 31.4193 58.0781 31.0391 58.0781C30.4661 58.0781 30.0013 57.8789 29.6445 57.4805C29.2904 57.082 29.1133 56.5547 29.1133 55.8984V55.8477ZM29.8398 55.9336C29.8398 56.4023 29.9479 56.7786 30.1641 57.0625C30.3828 57.3464 30.6745 57.4883 31.0391 57.4883C31.4062 57.4883 31.6979 57.3451 31.9141 57.0586C32.1302 56.7695 32.2383 56.3659 32.2383 55.8477C32.2383 55.3841 32.1276 55.0091 31.9062 54.7227C31.6875 54.4336 31.3958 54.2891 31.0312 54.2891C30.6745 54.2891 30.3867 54.431 30.168 54.7148C29.9492 54.9987 29.8398 55.4049 29.8398 55.9336Z" fill="#555555"/>
<path d="M34.5508 53.7734L34.5742 54.3047C34.8971 53.8984 35.319 53.6953 35.8398 53.6953C36.7331 53.6953 37.1836 54.1992 37.1914 55.207V58H36.4688V55.2031C36.4661 54.8984 36.3958 54.6732 36.2578 54.5273C36.1224 54.3815 35.9102 54.3086 35.6211 54.3086C35.3867 54.3086 35.181 54.3711 35.0039 54.4961C34.8268 54.6211 34.6888 54.7852 34.5898 54.9883V58H33.8672V53.7734H34.5508Z" fill="#555555"/>
<path d="M38.9648 53.7734L38.9883 54.3047C39.3112 53.8984 39.7331 53.6953 40.2539 53.6953C41.1471 53.6953 41.5977 54.1992 41.6055 55.207V58H40.8828V55.2031C40.8802 54.8984 40.8099 54.6732 40.6719 54.5273C40.5365 54.3815 40.3242 54.3086 40.0352 54.3086C39.8008 54.3086 39.5951 54.3711 39.418 54.4961C39.2409 54.6211 39.1029 54.7852 39.0039 54.9883V58H38.2812V53.7734H38.9648Z" fill="#555555"/>
<path d="M44.4492 58.0781C43.8763 58.0781 43.4102 57.8906 43.0508 57.5156C42.6914 57.138 42.5117 56.6341 42.5117 56.0039V55.8711C42.5117 55.4518 42.5911 55.0781 42.75 54.75C42.9115 54.4193 43.1354 54.1615 43.4219 53.9766C43.7109 53.7891 44.0234 53.6953 44.3594 53.6953C44.9089 53.6953 45.3359 53.8763 45.6406 54.2383C45.9453 54.6003 46.0977 55.1185 46.0977 55.793V56.0938H43.2344C43.2448 56.5104 43.3659 56.8477 43.5977 57.1055C43.832 57.3607 44.1289 57.4883 44.4883 57.4883C44.7435 57.4883 44.9596 57.4362 45.1367 57.332C45.3138 57.2279 45.4688 57.0898 45.6016 56.918L46.043 57.2617C45.6888 57.806 45.1576 58.0781 44.4492 58.0781ZM44.3594 54.2891C44.0677 54.2891 43.8229 54.3958 43.625 54.6094C43.4271 54.8203 43.3047 55.1172 43.2578 55.5H45.375V55.4453C45.3542 55.0781 45.2552 54.7943 45.0781 54.5938C44.901 54.3906 44.6615 54.2891 44.3594 54.2891ZM44.7109 52H45.5859L44.5391 53.1484H43.957L44.7109 52Z" fill="#555555"/>
<path d="M48.6914 58.0781C48.1185 58.0781 47.6523 57.8906 47.293 57.5156C46.9336 57.138 46.7539 56.6341 46.7539 56.0039V55.8711C46.7539 55.4518 46.8333 55.0781 46.9922 54.75C47.1536 54.4193 47.3776 54.1615 47.6641 53.9766C47.9531 53.7891 48.2656 53.6953 48.6016 53.6953C49.151 53.6953 49.5781 53.8763 49.8828 54.2383C50.1875 54.6003 50.3398 55.1185 50.3398 55.793V56.0938H47.4766C47.487 56.5104 47.6081 56.8477 47.8398 57.1055C48.0742 57.3607 48.3711 57.4883 48.7305 57.4883C48.9857 57.4883 49.2018 57.4362 49.3789 57.332C49.556 57.2279 49.7109 57.0898 49.8438 56.918L50.2852 57.2617C49.931 57.806 49.3997 58.0781 48.6914 58.0781ZM48.6016 54.2891C48.3099 54.2891 48.0651 54.3958 47.8672 54.6094C47.6693 54.8203 47.5469 55.1172 47.5 55.5H49.6172V55.4453C49.5964 55.0781 49.4974 54.7943 49.3203 54.5938C49.1432 54.3906 48.9036 54.2891 48.6016 54.2891Z" fill="#555555"/>
<path d="M53.6406 56.8789C53.6406 56.6836 53.5664 56.5326 53.418 56.4258C53.2721 56.3164 53.0156 56.2227 52.6484 56.1445C52.2839 56.0664 51.9935 55.9727 51.7773 55.8633C51.5638 55.7539 51.4049 55.6237 51.3008 55.4727C51.1992 55.3216 51.1484 55.1419 51.1484 54.9336C51.1484 54.5872 51.2943 54.2943 51.5859 54.0547C51.8802 53.8151 52.2552 53.6953 52.7109 53.6953C53.1901 53.6953 53.5781 53.819 53.875 54.0664C54.1745 54.3138 54.3242 54.6302 54.3242 55.0156H53.5977C53.5977 54.8177 53.513 54.6471 53.3438 54.5039C53.1771 54.3607 52.9661 54.2891 52.7109 54.2891C52.4479 54.2891 52.2422 54.3464 52.0938 54.4609C51.9453 54.5755 51.8711 54.7253 51.8711 54.9102C51.8711 55.0846 51.9401 55.2161 52.0781 55.3047C52.2161 55.3932 52.4648 55.4779 52.8242 55.5586C53.1862 55.6393 53.4792 55.7357 53.7031 55.8477C53.9271 55.9596 54.0924 56.0951 54.1992 56.2539C54.3086 56.4102 54.3633 56.6016 54.3633 56.8281C54.3633 57.2057 54.2122 57.5091 53.9102 57.7383C53.6081 57.9648 53.2161 58.0781 52.7344 58.0781C52.3958 58.0781 52.0964 58.0182 51.8359 57.8984C51.5755 57.7786 51.3711 57.612 51.2227 57.3984C51.0768 57.1823 51.0039 56.9492 51.0039 56.6992H51.7266C51.7396 56.9414 51.8359 57.1341 52.0156 57.2773C52.1979 57.418 52.4375 57.4883 52.7344 57.4883C53.0078 57.4883 53.2266 57.4336 53.3906 57.3242C53.5573 57.2122 53.6406 57.0638 53.6406 56.8789Z" fill="#555555"/>
<path d="M20.4327 64.8516C20.4327 64.2031 20.5863 63.6823 20.8936 63.2891C21.2009 62.8932 21.6032 62.6953 22.1006 62.6953C22.5954 62.6953 22.9873 62.8646 23.2764 63.2031V61H23.9991V67H23.335L23.2998 66.5469C23.0108 66.901 22.6084 67.0781 22.0928 67.0781C21.6032 67.0781 21.2035 66.8776 20.8936 66.4766C20.5863 66.0755 20.4327 65.5521 20.4327 64.9062V64.8516ZM21.1553 64.9336C21.1553 65.4128 21.2543 65.7878 21.4522 66.0586C21.6501 66.3294 21.9235 66.4648 22.2725 66.4648C22.7308 66.4648 23.0655 66.2591 23.2764 65.8477V63.9062C23.0603 63.5078 22.7282 63.3086 22.2803 63.3086C21.9261 63.3086 21.6501 63.4453 21.4522 63.7188C21.2543 63.9922 21.1553 64.3971 21.1553 64.9336Z" fill="#555555"/>
<path d="M25.4055 61.4336L25.3234 62.8711H24.8195L24.8234 61H25.4055V61.4336Z" fill="#555555"/>
<path d="M28.8119 66.582C28.5306 66.9128 28.1179 67.0781 27.5736 67.0781C27.1231 67.0781 26.7793 66.9479 26.5423 66.6875C26.308 66.4245 26.1895 66.0365 26.1869 65.5234V62.7734H26.9095V65.5039C26.9095 66.1445 27.1699 66.4648 27.6908 66.4648C28.2429 66.4648 28.6101 66.2591 28.7923 65.8477V62.7734H29.515V67H28.8275L28.8119 66.582Z" fill="#555555"/>
<path d="M31.437 61.75V62.7734H32.2261V63.332H31.437V65.9531C31.437 66.1224 31.4722 66.25 31.5425 66.3359C31.6128 66.4193 31.7326 66.4609 31.9019 66.4609C31.9852 66.4609 32.0998 66.4453 32.2456 66.4141V67C32.0555 67.0521 31.8706 67.0781 31.6909 67.0781C31.368 67.0781 31.1245 66.9805 30.9605 66.7852C30.7964 66.5898 30.7144 66.3125 30.7144 65.9531V63.332H29.9448V62.7734H30.7144V61.75H31.437Z" fill="#555555"/>
<path d="M33.6989 67H32.9762V62.7734H33.6989V67ZM32.9177 61.6523C32.9177 61.5352 32.9528 61.4362 33.0231 61.3555C33.096 61.2747 33.2028 61.2344 33.3434 61.2344C33.4841 61.2344 33.5908 61.2747 33.6637 61.3555C33.7367 61.4362 33.7731 61.5352 33.7731 61.6523C33.7731 61.7695 33.7367 61.8672 33.6637 61.9453C33.5908 62.0234 33.4841 62.0625 33.3434 62.0625C33.2028 62.0625 33.096 62.0234 33.0231 61.9453C32.9528 61.8672 32.9177 61.7695 32.9177 61.6523Z" fill="#555555"/>
<path d="M35.4842 67H34.7616V61H35.4842V67Z" fill="#555555"/>
<path d="M37.2695 67H36.5469V62.7734H37.2695V67ZM36.4883 61.6523C36.4883 61.5352 36.5234 61.4362 36.5938 61.3555C36.6667 61.2747 36.7734 61.2344 36.9141 61.2344C37.0547 61.2344 37.1615 61.2747 37.2344 61.3555C37.3073 61.4362 37.3438 61.5352 37.3438 61.6523C37.3438 61.7695 37.3073 61.8672 37.2344 61.9453C37.1615 62.0234 37.0547 62.0625 36.9141 62.0625C36.7734 62.0625 36.6667 62.0234 36.5938 61.9453C36.5234 61.8672 36.4883 61.7695 36.4883 61.6523Z" fill="#555555"/>
<path d="M40.7306 65.8789C40.7306 65.6836 40.6564 65.5326 40.508 65.4258C40.3621 65.3164 40.1056 65.2227 39.7384 65.1445C39.3739 65.0664 39.0835 64.9727 38.8673 64.8633C38.6538 64.7539 38.4949 64.6237 38.3908 64.4727C38.2892 64.3216 38.2384 64.1419 38.2384 63.9336C38.2384 63.5872 38.3843 63.2943 38.6759 63.0547C38.9702 62.8151 39.3452 62.6953 39.8009 62.6953C40.2801 62.6953 40.6681 62.819 40.965 63.0664C41.2645 63.3138 41.4142 63.6302 41.4142 64.0156H40.6877C40.6877 63.8177 40.603 63.6471 40.4337 63.5039C40.2671 63.3607 40.0561 63.2891 39.8009 63.2891C39.5379 63.2891 39.3322 63.3464 39.1837 63.4609C39.0353 63.5755 38.9611 63.7253 38.9611 63.9102C38.9611 64.0846 39.0301 64.2161 39.1681 64.3047C39.3061 64.3932 39.5548 64.4779 39.9142 64.5586C40.2762 64.6393 40.5692 64.7357 40.7931 64.8477C41.0171 64.9596 41.1824 65.0951 41.2892 65.2539C41.3986 65.4102 41.4533 65.6016 41.4533 65.8281C41.4533 66.2057 41.3022 66.5091 41.0002 66.7383C40.6981 66.9648 40.3061 67.0781 39.8244 67.0781C39.4858 67.0781 39.1864 67.0182 38.9259 66.8984C38.6655 66.7786 38.4611 66.612 38.3127 66.3984C38.1668 66.1823 38.0939 65.9492 38.0939 65.6992H38.8166C38.8296 65.9414 38.9259 66.1341 39.1056 66.2773C39.2879 66.418 39.5275 66.4883 39.8244 66.4883C40.0978 66.4883 40.3166 66.4336 40.4806 66.3242C40.6473 66.2122 40.7306 66.0638 40.7306 65.8789Z" fill="#555555"/>
<path d="M44.8441 67C44.8024 66.9167 44.7685 66.7682 44.7425 66.5547C44.4066 66.9036 44.0055 67.0781 43.5394 67.0781C43.1227 67.0781 42.7803 66.9609 42.512 66.7266C42.2464 66.4896 42.1136 66.1901 42.1136 65.8281C42.1136 65.388 42.2803 65.0469 42.6136 64.8047C42.9495 64.5599 43.4209 64.4375 44.0277 64.4375H44.7308V64.1055C44.7308 63.8529 44.6553 63.6523 44.5042 63.5039C44.3532 63.3529 44.1305 63.2773 43.8363 63.2773C43.5784 63.2773 43.3623 63.3424 43.1878 63.4727C43.0133 63.6029 42.9261 63.7604 42.9261 63.9453H42.1995C42.1995 63.7344 42.2738 63.5312 42.4222 63.3359C42.5732 63.138 42.7764 62.9818 43.0316 62.8672C43.2894 62.7526 43.5719 62.6953 43.8792 62.6953C44.3662 62.6953 44.7477 62.8177 45.0238 63.0625C45.2998 63.3047 45.443 63.6393 45.4534 64.0664V66.0117C45.4534 66.3997 45.5029 66.7083 45.6019 66.9375V67H44.8441ZM43.6448 66.4492C43.8714 66.4492 44.0863 66.3906 44.2894 66.2734C44.4925 66.1562 44.6396 66.0039 44.7308 65.8164V64.9492H44.1644C43.279 64.9492 42.8363 65.2083 42.8363 65.7266C42.8363 65.9531 42.9118 66.1302 43.0628 66.2578C43.2139 66.3854 43.4079 66.4492 43.6448 66.4492Z" fill="#555555"/>
<path d="M47.4067 61.75V62.7734H48.1958V63.332H47.4067V65.9531C47.4067 66.1224 47.4419 66.25 47.5122 66.3359C47.5825 66.4193 47.7023 66.4609 47.8716 66.4609C47.9549 66.4609 48.0695 66.4453 48.2153 66.4141V67C48.0252 67.0521 47.8403 67.0781 47.6606 67.0781C47.3377 67.0781 47.0942 66.9805 46.9302 66.7852C46.7661 66.5898 46.6841 66.3125 46.6841 65.9531V63.332H45.9145V62.7734H46.6841V61.75H47.4067Z" fill="#555555"/>
<path d="M49.6686 67H48.9459V62.7734H49.6686V67ZM48.8873 61.6523C48.8873 61.5352 48.9225 61.4362 48.9928 61.3555C49.0657 61.2747 49.1725 61.2344 49.3131 61.2344C49.4538 61.2344 49.5605 61.2747 49.6334 61.3555C49.7064 61.4362 49.7428 61.5352 49.7428 61.6523C49.7428 61.7695 49.7064 61.8672 49.6334 61.9453C49.5605 62.0234 49.4538 62.0625 49.3131 62.0625C49.1725 62.0625 49.0657 62.0234 48.9928 61.9453C48.9225 61.8672 48.8873 61.7695 48.8873 61.6523Z" fill="#555555"/>
<path d="M50.4773 64.8477C50.4773 64.4336 50.5581 64.0612 50.7195 63.7305C50.8836 63.3997 51.1102 63.1445 51.3992 62.9648C51.6909 62.7852 52.0229 62.6953 52.3953 62.6953C52.9708 62.6953 53.4357 62.8945 53.7898 63.293C54.1466 63.6914 54.325 64.2214 54.325 64.8828V64.9336C54.325 65.3451 54.2456 65.7148 54.0867 66.043C53.9305 66.3685 53.7052 66.6224 53.4109 66.8047C53.1193 66.987 52.7833 67.0781 52.4031 67.0781C51.8302 67.0781 51.3654 66.8789 51.0086 66.4805C50.6544 66.082 50.4773 65.5547 50.4773 64.8984V64.8477ZM51.2039 64.9336C51.2039 65.4023 51.312 65.7786 51.5281 66.0625C51.7469 66.3464 52.0385 66.4883 52.4031 66.4883C52.7703 66.4883 53.062 66.3451 53.2781 66.0586C53.4943 65.7695 53.6023 65.3659 53.6023 64.8477C53.6023 64.3841 53.4917 64.0091 53.2703 63.7227C53.0516 63.4336 52.7599 63.2891 52.3953 63.2891C52.0385 63.2891 51.7508 63.431 51.532 63.7148C51.3133 63.9987 51.2039 64.4049 51.2039 64.9336Z" fill="#555555"/>
<path d="M55.7548 62.7734L55.7783 63.3047C56.1012 62.8984 56.5231 62.6953 57.0439 62.6953C57.9371 62.6953 58.3877 63.1992 58.3955 64.207V67H57.6728V64.2031C57.6702 63.8984 57.5999 63.6732 57.4619 63.5273C57.3265 63.3815 57.1142 63.3086 56.8252 63.3086C56.5908 63.3086 56.3851 63.3711 56.208 63.4961C56.0309 63.6211 55.8929 63.7852 55.7939 63.9883V67H55.0713V62.7734H55.7548Z" fill="#555555"/>
<path d="M9.23047 34.3105L9.39453 35.4355L9.63477 34.4219L11.3223 28.4688H12.2715L13.918 34.4219L14.1523 35.4531L14.334 34.3047L15.6582 28.4688H16.7891L14.7207 37H13.6953L11.9375 30.7832L11.8027 30.1328L11.668 30.7832L9.8457 37H8.82031L6.75781 28.4688H7.88281L9.23047 34.3105Z" fill="#555555"/>
<path d="M20.3164 37.1172C19.457 37.1172 18.7578 36.8359 18.2188 36.2734C17.6797 35.707 17.4102 34.9512 17.4102 34.0059V33.8066C17.4102 33.1777 17.5293 32.6172 17.7676 32.125C18.0098 31.6289 18.3457 31.2422 18.7754 30.9648C19.209 30.6836 19.6777 30.543 20.1816 30.543C21.0059 30.543 21.6465 30.8145 22.1035 31.3574C22.5605 31.9004 22.7891 32.6777 22.7891 33.6895V34.1406H18.4941C18.5098 34.7656 18.6914 35.2715 19.0391 35.6582C19.3906 36.041 19.8359 36.2324 20.375 36.2324C20.7578 36.2324 21.082 36.1543 21.3477 35.998C21.6133 35.8418 21.8457 35.6348 22.0449 35.377L22.707 35.8926C22.1758 36.709 21.3789 37.1172 20.3164 37.1172ZM20.1816 31.4336C19.7441 31.4336 19.377 31.5938 19.0801 31.9141C18.7832 32.2305 18.5996 32.6758 18.5293 33.25H21.7051V33.168C21.6738 32.6172 21.5254 32.1914 21.2598 31.8906C20.9941 31.5859 20.6348 31.4336 20.1816 31.4336Z" fill="#555555"/>
<path d="M29.416 33.9004C29.416 34.8691 29.1934 35.6484 28.748 36.2383C28.3027 36.8242 27.7051 37.1172 26.9551 37.1172C26.1543 37.1172 25.5352 36.834 25.0977 36.2676L25.0449 37H24.0488V28H25.1328V31.3574C25.5703 30.8145 26.1738 30.543 26.9434 30.543C27.7129 30.543 28.3164 30.834 28.7539 31.416C29.1953 31.998 29.416 32.7949 29.416 33.8066V33.9004ZM28.332 33.7773C28.332 33.0391 28.1895 32.4688 27.9043 32.0664C27.6191 31.6641 27.209 31.4629 26.6738 31.4629C25.959 31.4629 25.4453 31.7949 25.1328 32.459V35.2012C25.4648 35.8652 25.9824 36.1973 26.6855 36.1973C27.2051 36.1973 27.6094 35.9961 27.8984 35.5938C28.1875 35.1914 28.332 34.5859 28.332 33.7773Z" fill="#555555"/>
<path d="M38.7559 33.0566H35.0586V36.0801H39.3535V37H33.9336V28.4688H39.2949V29.3945H35.0586V32.1367H38.7559V33.0566ZM37.1035 26.1133H38.416L36.8457 27.8359H35.9727L37.1035 26.1133Z" fill="#555555"/>
<path d="M42.0547 29.125V30.6602H43.2383V31.498H42.0547V35.4297C42.0547 35.6836 42.1074 35.875 42.2129 36.0039C42.3184 36.1289 42.498 36.1914 42.752 36.1914C42.877 36.1914 43.0488 36.168 43.2676 36.1211V37C42.9824 37.0781 42.7051 37.1172 42.4355 37.1172C41.9512 37.1172 41.5859 36.9707 41.3398 36.6777C41.0938 36.3848 40.9707 35.9688 40.9707 35.4297V31.498H39.8164V30.6602H40.9707V29.125H42.0547Z" fill="#555555"/>
<path d="M45.6875 37H44.6035V30.6602H45.6875V37ZM44.5156 28.9785C44.5156 28.8027 44.5684 28.6543 44.6738 28.5332C44.7832 28.4121 44.9434 28.3516 45.1543 28.3516C45.3652 28.3516 45.5254 28.4121 45.6348 28.5332C45.7441 28.6543 45.7988 28.8027 45.7988 28.9785C45.7988 29.1543 45.7441 29.3008 45.6348 29.418C45.5254 29.5352 45.3652 29.5938 45.1543 29.5938C44.9434 29.5938 44.7832 29.5352 44.6738 29.418C44.5684 29.3008 44.5156 29.1543 44.5156 28.9785Z" fill="#555555"/>
<path d="M47.1641 33.7773C47.1641 32.7812 47.3926 31.9941 47.8496 31.416C48.3066 30.834 48.9199 30.543 49.6895 30.543C50.4395 30.543 51.0312 30.7949 51.4648 31.2988L51.5117 30.6602H52.5078V39.4375H51.4238V36.4141C50.9863 36.8828 50.4043 37.1172 49.6777 37.1172C48.9121 37.1172 48.3008 36.8203 47.8438 36.2266C47.3906 35.6289 47.1641 34.8379 47.1641 33.8535V33.7773ZM48.248 33.9004C48.248 34.627 48.4004 35.1973 48.7051 35.6113C49.0137 36.0254 49.4277 36.2324 49.9473 36.2324C50.5918 36.2324 51.084 35.9473 51.4238 35.377V32.2715C51.0801 31.7129 50.5918 31.4336 49.959 31.4336C49.4355 31.4336 49.0195 31.6426 48.7109 32.0605C48.4023 32.4746 48.248 33.0879 48.248 33.9004Z" fill="#555555"/>
<path d="M58.1621 36.373C57.7402 36.8691 57.1211 37.1172 56.3047 37.1172C55.6289 37.1172 55.1133 36.9219 54.7578 36.5312C54.4062 36.1367 54.2285 35.5547 54.2246 34.7852V30.6602H55.3086V34.7559C55.3086 35.7168 55.6992 36.1973 56.4805 36.1973C57.3086 36.1973 57.8594 35.8887 58.1328 35.2715V30.6602H59.2168V37H58.1855L58.1621 36.373Z" fill="#555555"/>
<path d="M63.5 37.1172C62.6406 37.1172 61.9414 36.8359 61.4023 36.2734C60.8633 35.707 60.5938 34.9512 60.5938 34.0059V33.8066C60.5938 33.1777 60.7129 32.6172 60.9512 32.125C61.1934 31.6289 61.5293 31.2422 61.959 30.9648C62.3926 30.6836 62.8613 30.543 63.3652 30.543C64.1895 30.543 64.8301 30.8145 65.2871 31.3574C65.7441 31.9004 65.9727 32.6777 65.9727 33.6895V34.1406H61.6777C61.6934 34.7656 61.875 35.2715 62.2227 35.6582C62.5742 36.041 63.0195 36.2324 63.5586 36.2324C63.9414 36.2324 64.2656 36.1543 64.5312 35.998C64.7969 35.8418 65.0293 35.6348 65.2285 35.377L65.8906 35.8926C65.3594 36.709 64.5625 37.1172 63.5 37.1172ZM63.3652 31.4336C62.9277 31.4336 62.5605 31.5938 62.2637 31.9141C61.9668 32.2305 61.7832 32.6758 61.7129 33.25H64.8887V33.168C64.8574 32.6172 64.709 32.1914 64.4434 31.8906C64.1777 31.5859 63.8184 31.4336 63.3652 31.4336Z" fill="#555555"/>
<path d="M70.9238 35.3184C70.9238 35.0254 70.8125 34.7988 70.5898 34.6387C70.3711 34.4746 69.9863 34.334 69.4355 34.2168C68.8887 34.0996 68.4531 33.959 68.1289 33.7949C67.8086 33.6309 67.5703 33.4355 67.4141 33.209C67.2617 32.9824 67.1855 32.7129 67.1855 32.4004C67.1855 31.8809 67.4043 31.4414 67.8418 31.082C68.2832 30.7227 68.8457 30.543 69.5293 30.543C70.248 30.543 70.8301 30.7285 71.2754 31.0996C71.7246 31.4707 71.9492 31.9453 71.9492 32.5234H70.8594C70.8594 32.2266 70.7324 31.9707 70.4785 31.7559C70.2285 31.541 69.9121 31.4336 69.5293 31.4336C69.1348 31.4336 68.8262 31.5195 68.6035 31.6914C68.3809 31.8633 68.2695 32.0879 68.2695 32.3652C68.2695 32.627 68.373 32.8242 68.5801 32.957C68.7871 33.0898 69.1602 33.2168 69.6992 33.3379C70.2422 33.459 70.6816 33.6035 71.0176 33.7715C71.3535 33.9395 71.6016 34.1426 71.7617 34.3809C71.9258 34.6152 72.0078 34.9023 72.0078 35.2422C72.0078 35.8086 71.7812 36.2637 71.3281 36.6074C70.875 36.9473 70.2871 37.1172 69.5645 37.1172C69.0566 37.1172 68.6074 37.0273 68.2168 36.8477C67.8262 36.668 67.5195 36.418 67.2969 36.0977C67.0781 35.7734 66.9688 35.4238 66.9688 35.0488H68.0527C68.0723 35.4121 68.2168 35.7012 68.4863 35.916C68.7598 36.127 69.1191 36.2324 69.5645 36.2324C69.9746 36.2324 70.3027 36.1504 70.5488 35.9863C70.7988 35.8184 70.9238 35.5957 70.9238 35.3184Z" fill="#555555"/>
<path d="M21.043 18.7734H17.4688L16.666 21H15.5059L18.7637 12.4688H19.748L23.0117 21H21.8574L21.043 18.7734ZM17.8086 17.8477H20.709L19.2559 13.8574L17.8086 17.8477Z" fill="#555555"/>
<path d="M25.0156 14.6602L25.0508 15.457C25.5352 14.8477 26.168 14.543 26.9492 14.543C28.2891 14.543 28.9648 15.2988 28.9766 16.8105V21H27.8926V16.8047C27.8887 16.3477 27.7832 16.0098 27.5762 15.791C27.373 15.5723 27.0547 15.4629 26.6211 15.4629C26.2695 15.4629 25.9609 15.5566 25.6953 15.7441C25.4297 15.9316 25.2227 16.1777 25.0742 16.4824V21H23.9902V14.6602H25.0156Z" fill="#555555"/>
<path d="M34.5254 21C34.4629 20.875 34.4121 20.6523 34.373 20.332C33.8691 20.8555 33.2676 21.1172 32.5684 21.1172C31.9434 21.1172 31.4297 20.9414 31.0273 20.5898C30.6289 20.2344 30.4297 19.7852 30.4297 19.2422C30.4297 18.582 30.6797 18.0703 31.1797 17.707C31.6836 17.3398 32.3906 17.1562 33.3008 17.1562H34.3555V16.6582C34.3555 16.2793 34.2422 15.9785 34.0156 15.7559C33.7891 15.5293 33.4551 15.416 33.0137 15.416C32.627 15.416 32.3027 15.5137 32.041 15.709C31.7793 15.9043 31.6484 16.1406 31.6484 16.418H30.5586C30.5586 16.1016 30.6699 15.7969 30.8926 15.5039C31.1191 15.207 31.4238 14.9727 31.8066 14.8008C32.1934 14.6289 32.6172 14.543 33.0781 14.543C33.8086 14.543 34.3809 14.7266 34.7949 15.0938C35.209 15.457 35.4238 15.959 35.4395 16.5996V19.5176C35.4395 20.0996 35.5137 20.5625 35.6621 20.9062V21H34.5254ZM32.7266 20.1738C33.0664 20.1738 33.3887 20.0859 33.6934 19.9102C33.998 19.7344 34.2188 19.5059 34.3555 19.2246V17.9238H33.5059C32.1777 17.9238 31.5137 18.3125 31.5137 19.0898C31.5137 19.4297 31.627 19.6953 31.8535 19.8867C32.0801 20.0781 32.3711 20.1738 32.7266 20.1738Z" fill="#555555"/>
<path d="M38.3164 21H37.2324V12H38.3164V21Z" fill="#555555"/>
<path d="M42.1309 19.4121L43.6074 14.6602H44.7676L42.2188 21.9785C41.8242 23.0332 41.1973 23.5605 40.3379 23.5605L40.1328 23.543L39.7285 23.4668V22.5879L40.0215 22.6113C40.3887 22.6113 40.6738 22.5371 40.877 22.3887C41.084 22.2402 41.2539 21.9688 41.3867 21.5742L41.627 20.9297L39.3652 14.6602H40.5488L42.1309 19.4121Z" fill="#555555"/>
<path d="M49.4316 19.3184C49.4316 19.0254 49.3203 18.7988 49.0977 18.6387C48.8789 18.4746 48.4941 18.334 47.9434 18.2168C47.3965 18.0996 46.9609 17.959 46.6367 17.7949C46.3164 17.6309 46.0781 17.4355 45.9219 17.209C45.7695 16.9824 45.6934 16.7129 45.6934 16.4004C45.6934 15.8809 45.9121 15.4414 46.3496 15.082C46.791 14.7227 47.3535 14.543 48.0371 14.543C48.7559 14.543 49.3379 14.7285 49.7832 15.0996C50.2324 15.4707 50.457 15.9453 50.457 16.5234H49.3672C49.3672 16.2266 49.2402 15.9707 48.9863 15.7559C48.7363 15.541 48.4199 15.4336 48.0371 15.4336C47.6426 15.4336 47.334 15.5195 47.1113 15.6914C46.8887 15.8633 46.7773 16.0879 46.7773 16.3652C46.7773 16.627 46.8809 16.8242 47.0879 16.957C47.2949 17.0898 47.668 17.2168 48.207 17.3379C48.75 17.459 49.1895 17.6035 49.5254 17.7715C49.8613 17.9395 50.1094 18.1426 50.2695 18.3809C50.4336 18.6152 50.5156 18.9023 50.5156 19.2422C50.5156 19.8086 50.2891 20.2637 49.8359 20.6074C49.3828 20.9473 48.7949 21.1172 48.0723 21.1172C47.5645 21.1172 47.1152 21.0273 46.7246 20.8477C46.334 20.668 46.0273 20.418 45.8047 20.0977C45.5859 19.7734 45.4766 19.4238 45.4766 19.0488H46.5605C46.5801 19.4121 46.7246 19.7012 46.9941 19.916C47.2676 20.127 47.627 20.2324 48.0723 20.2324C48.4824 20.2324 48.8105 20.1504 49.0566 19.9863C49.3066 19.8184 49.4316 19.5957 49.4316 19.3184Z" fill="#555555"/>
<path d="M54.5586 21.1172C53.6992 21.1172 53 20.8359 52.4609 20.2734C51.9219 19.707 51.6523 18.9512 51.6523 18.0059V17.8066C51.6523 17.1777 51.7715 16.6172 52.0098 16.125C52.252 15.6289 52.5879 15.2422 53.0176 14.9648C53.4512 14.6836 53.9199 14.543 54.4238 14.543C55.248 14.543 55.8887 14.8145 56.3457 15.3574C56.8027 15.9004 57.0312 16.6777 57.0312 17.6895V18.1406H52.7363C52.752 18.7656 52.9336 19.2715 53.2812 19.6582C53.6328 20.041 54.0781 20.2324 54.6172 20.2324C55 20.2324 55.3242 20.1543 55.5898 19.998C55.8555 19.8418 56.0879 19.6348 56.2871 19.377L56.9492 19.8926C56.418 20.709 55.6211 21.1172 54.5586 21.1172ZM54.4238 15.4336C53.9863 15.4336 53.6191 15.5938 53.3223 15.9141C53.0254 16.2305 52.8418 16.6758 52.7715 17.25H55.9473V17.168C55.916 16.6172 55.7676 16.1914 55.502 15.8906C55.2363 15.5859 54.877 15.4336 54.4238 15.4336Z" fill="#555555"/>
<path d="M61.9824 19.3184C61.9824 19.0254 61.8711 18.7988 61.6484 18.6387C61.4297 18.4746 61.0449 18.334 60.4941 18.2168C59.9473 18.0996 59.5117 17.959 59.1875 17.7949C58.8672 17.6309 58.6289 17.4355 58.4727 17.209C58.3203 16.9824 58.2441 16.7129 58.2441 16.4004C58.2441 15.8809 58.4629 15.4414 58.9004 15.082C59.3418 14.7227 59.9043 14.543 60.5879 14.543C61.3066 14.543 61.8887 14.7285 62.334 15.0996C62.7832 15.4707 63.0078 15.9453 63.0078 16.5234H61.918C61.918 16.2266 61.791 15.9707 61.5371 15.7559C61.2871 15.541 60.9707 15.4336 60.5879 15.4336C60.1934 15.4336 59.8848 15.5195 59.6621 15.6914C59.4395 15.8633 59.3281 16.0879 59.3281 16.3652C59.3281 16.627 59.4316 16.8242 59.6387 16.957C59.8457 17.0898 60.2188 17.2168 60.7578 17.3379C61.3008 17.459 61.7402 17.6035 62.0762 17.7715C62.4121 17.9395 62.6602 18.1426 62.8203 18.3809C62.9844 18.6152 63.0664 18.9023 63.0664 19.2422C63.0664 19.8086 62.8398 20.2637 62.3867 20.6074C61.9336 20.9473 61.3457 21.1172 60.623 21.1172C60.1152 21.1172 59.666 21.0273 59.2754 20.8477C58.8848 20.668 58.5781 20.418 58.3555 20.0977C58.1367 19.7734 58.0273 19.4238 58.0273 19.0488H59.1113C59.1309 19.4121 59.2754 19.7012 59.5449 19.916C59.8184 20.127 60.1777 20.2324 60.623 20.2324C61.0332 20.2324 61.3613 20.1504 61.6074 19.9863C61.8574 19.8184 61.9824 19.5957 61.9824 19.3184Z" fill="#555555"/>
</svg>
