<svg width="135" height="37" viewBox="0 0 135 37" fill="none" xmlns="http://www.w3.org/2000/svg">
<rect width="135" height="37" rx="2" fill="#555555"/>
<rect x="0.5" y="19.5" width="134" height="17" rx="1.5" fill="#EEEEEE" stroke="#555555"/>
<path d="M7.90771 31V23.1797H10.1152C10.7956 23.1797 11.3971 23.3301 11.9199 23.6309C12.4427 23.9316 12.8455 24.3595 13.1284 24.9146C13.4149 25.4696 13.5599 26.1069 13.5635 26.8267V27.3262C13.5635 28.0638 13.4202 28.7101 13.1338 29.2651C12.8509 29.8201 12.4445 30.2463 11.9146 30.5435C11.3882 30.8407 10.7741 30.9928 10.0723 31H7.90771ZM8.93896 24.0283V30.1567H10.0239C10.8188 30.1567 11.4365 29.9097 11.877 29.4155C12.321 28.9214 12.543 28.2178 12.543 27.3047V26.8481C12.543 25.9601 12.3335 25.2708 11.9146 24.7803C11.4992 24.2861 10.9084 24.0355 10.1421 24.0283H8.93896Z" fill="#555555"/>
<path d="M17.1623 31.1074C16.3746 31.1074 15.7336 30.8496 15.2395 30.334C14.7453 29.8148 14.4983 29.1219 14.4983 28.2554V28.0728C14.4983 27.4963 14.6075 26.9824 14.8259 26.5312C15.0479 26.0765 15.3558 25.722 15.7497 25.4678C16.1472 25.21 16.5769 25.0811 17.0388 25.0811C17.7943 25.0811 18.3816 25.3299 18.8005 25.8276C19.2195 26.3254 19.4289 27.0379 19.4289 27.9653V28.3789H15.4919C15.5062 28.9518 15.6727 29.4155 15.9914 29.77C16.3137 30.1209 16.7219 30.2964 17.216 30.2964C17.5669 30.2964 17.8641 30.2248 18.1076 30.0815C18.3511 29.9383 18.5642 29.7485 18.7468 29.5122L19.3537 29.9849C18.8668 30.7332 18.1363 31.1074 17.1623 31.1074ZM17.0388 25.8975C16.6377 25.8975 16.3012 26.0443 16.029 26.3379C15.7569 26.6279 15.5886 27.0361 15.5241 27.5625H18.4353V27.4873C18.4066 26.9824 18.2706 26.5921 18.0271 26.3164C17.7836 26.0371 17.4542 25.8975 17.0388 25.8975Z" fill="#555555"/>
<path d="M21.4433 31H20.4496V25.1885H21.4433V31ZM20.3691 23.647C20.3691 23.4858 20.4174 23.3498 20.5141 23.2388C20.6144 23.1278 20.7612 23.0723 20.9545 23.0723C21.1479 23.0723 21.2947 23.1278 21.395 23.2388C21.4952 23.3498 21.5454 23.4858 21.5454 23.647C21.5454 23.8081 21.4952 23.9424 21.395 24.0498C21.2947 24.1572 21.1479 24.2109 20.9545 24.2109C20.7612 24.2109 20.6144 24.1572 20.5141 24.0498C20.4174 23.9424 20.3691 23.8081 20.3691 23.647Z" fill="#555555"/>
<path d="M23.7585 25.1885L23.7907 25.9189C24.2347 25.3604 24.8148 25.0811 25.5309 25.0811C26.7591 25.0811 27.3786 25.7739 27.3893 27.1597V31H26.3957V27.1543C26.3921 26.7354 26.2954 26.4256 26.1056 26.2251C25.9194 26.0246 25.6276 25.9243 25.2301 25.9243C24.9079 25.9243 24.625 26.0103 24.3815 26.1821C24.138 26.354 23.9482 26.5796 23.8122 26.8589V31H22.8185V25.1885H23.7585Z" fill="#555555"/>
<path d="M31.0795 31.1074C30.2917 31.1074 29.6508 30.8496 29.1566 30.334C28.6625 29.8148 28.4154 29.1219 28.4154 28.2554V28.0728C28.4154 27.4963 28.5246 26.9824 28.743 26.5312C28.9651 26.0765 29.273 25.722 29.6669 25.4678C30.0643 25.21 30.494 25.0811 30.9559 25.0811C31.7115 25.0811 32.2987 25.3299 32.7177 25.8276C33.1366 26.3254 33.3461 27.0379 33.3461 27.9653V28.3789H29.4091C29.4234 28.9518 29.5899 29.4155 29.9086 29.77C30.2308 30.1209 30.639 30.2964 31.1332 30.2964C31.4841 30.2964 31.7813 30.2248 32.0248 30.0815C32.2683 29.9383 32.4813 29.7485 32.6639 29.5122L33.2709 29.9849C32.7839 30.7332 32.0534 31.1074 31.0795 31.1074ZM30.9559 25.8975C30.5549 25.8975 30.2183 26.0443 29.9462 26.3379C29.674 26.6279 29.5057 27.0361 29.4413 27.5625H32.3524V27.4873C32.3238 26.9824 32.1877 26.5921 31.9442 26.3164C31.7007 26.0371 31.3713 25.8975 30.9559 25.8975Z" fill="#555555"/>
<path d="M42.9554 31H41.9188L37.9818 24.9736V31H36.9451V23.1797H37.9818L41.9295 29.2329V23.1797H42.9554V31Z" fill="#555555"/>
<path d="M47.9991 30.4253C47.6123 30.88 47.0448 31.1074 46.2964 31.1074C45.677 31.1074 45.2043 30.9284 44.8785 30.5703C44.5562 30.2087 44.3933 29.6751 44.3897 28.9697V25.1885H45.3833V28.9429C45.3833 29.8237 45.7414 30.2642 46.4576 30.2642C47.2167 30.2642 47.7216 29.9813 47.9722 29.4155V25.1885H48.9659V31H48.0205L47.9991 30.4253Z" fill="#555555"/>
<path d="M51.6087 23.7812V25.1885H52.6936V25.9565H51.6087V29.5605C51.6087 29.7933 51.657 29.9688 51.7537 30.0869C51.8504 30.2015 52.0151 30.2588 52.2478 30.2588C52.3624 30.2588 52.5199 30.2373 52.7205 30.1943V31C52.4591 31.0716 52.2048 31.1074 51.9578 31.1074C51.5138 31.1074 51.179 30.9731 50.9534 30.7046C50.7278 30.436 50.615 30.0547 50.615 29.5605V25.9565H49.5569V25.1885H50.615V23.7812H51.6087Z" fill="#555555"/>
<path d="M54.5737 30.189H57.9736V31H53.3598V30.2695L56.5664 26.0103H53.4082V25.1885H57.8125V25.8921L54.5737 30.189Z" fill="#555555"/>
<path d="M62.4641 30.4253C62.0773 30.88 61.5098 31.1074 60.7614 31.1074C60.142 31.1074 59.6693 30.9284 59.3435 30.5703C59.0212 30.2087 58.8583 29.6751 58.8547 28.9697V25.1885H59.8483V28.9429C59.8483 29.8237 60.2064 30.2642 60.9226 30.2642C61.6817 30.2642 62.1866 29.9813 62.4372 29.4155V25.1885H63.4309V31H62.4855L62.4641 30.4253Z" fill="#555555"/>
<path d="M65.6655 25.1885L65.6977 25.9189C66.1417 25.3604 66.7218 25.0811 67.4379 25.0811C68.6661 25.0811 69.2856 25.7739 69.2963 27.1597V31H68.3027V27.1543C68.2991 26.7354 68.2024 26.4256 68.0126 26.2251C67.8264 26.0246 67.5346 25.9243 67.1371 25.9243C66.8149 25.9243 66.532 26.0103 66.2885 26.1821C66.045 26.354 65.8552 26.5796 65.7192 26.8589V31H64.7255V25.1885H65.6655Z" fill="#555555"/>
<path d="M70.3385 28.0459C70.3385 27.14 70.548 26.4202 70.9669 25.8867C71.3859 25.3496 71.9409 25.0811 72.632 25.0811C73.341 25.0811 73.8942 25.3317 74.2916 25.833L74.34 25.1885H75.2477V30.8604C75.2477 31.6123 75.0239 32.2049 74.5763 32.6382C74.1323 33.0715 73.5343 33.2881 72.7824 33.2881C72.3634 33.2881 71.9534 33.1986 71.5524 33.0195C71.1513 32.8405 70.8452 32.5952 70.6339 32.2837L71.1496 31.6875C71.5757 32.2139 72.0967 32.4771 72.7125 32.4771C73.1959 32.4771 73.5719 32.341 73.8405 32.0688C74.1126 31.7967 74.2487 31.4136 74.2487 30.9194V30.4199C73.8512 30.8783 73.3087 31.1074 72.6212 31.1074C71.9409 31.1074 71.3895 30.8335 70.9669 30.2856C70.548 29.7378 70.3385 28.9912 70.3385 28.0459ZM71.3375 28.1587C71.3375 28.814 71.4718 29.3296 71.7404 29.7056C72.0089 30.078 72.3849 30.2642 72.8683 30.2642C73.4949 30.2642 73.9551 29.9795 74.2487 29.4102V26.7568C73.9443 26.2018 73.4878 25.9243 72.879 25.9243C72.3956 25.9243 72.0179 26.1123 71.7457 26.4883C71.4736 26.8643 71.3375 27.4211 71.3375 28.1587Z" fill="#555555"/>
<path d="M79.9154 29.4585C79.9154 29.1899 79.8133 28.9823 79.6092 28.8354C79.4087 28.6851 79.056 28.5562 78.5511 28.4487C78.0498 28.3413 77.6506 28.2124 77.3534 28.062C77.0598 27.9116 76.8413 27.7326 76.6981 27.5249C76.5585 27.3172 76.4886 27.0701 76.4886 26.7837C76.4886 26.3075 76.6892 25.9046 77.0902 25.5752C77.4948 25.2458 78.0104 25.0811 78.6371 25.0811C79.2959 25.0811 79.8295 25.2511 80.2377 25.5913C80.6494 25.9315 80.8553 26.3665 80.8553 26.8965H79.8563C79.8563 26.6243 79.7399 26.3898 79.5072 26.1929C79.278 25.9959 78.988 25.8975 78.6371 25.8975C78.2754 25.8975 77.9925 25.9762 77.7884 26.1338C77.5843 26.2913 77.4823 26.4972 77.4823 26.7515C77.4823 26.9914 77.5772 27.1722 77.767 27.2939C77.9567 27.4157 78.2987 27.5321 78.7928 27.6431C79.2906 27.7541 79.6934 27.8866 80.0013 28.0405C80.3093 28.1945 80.5366 28.3807 80.6835 28.5991C80.8338 28.814 80.909 29.0771 80.909 29.3887C80.909 29.9079 80.7014 30.325 80.286 30.6401C79.8706 30.9517 79.3317 31.1074 78.6693 31.1074C78.2038 31.1074 77.792 31.0251 77.4339 30.8604C77.0759 30.6956 76.7948 30.4665 76.5907 30.1729C76.3902 29.8757 76.2899 29.5552 76.2899 29.2114H77.2836C77.3015 29.5444 77.4339 29.8094 77.681 30.0063C77.9317 30.1997 78.2611 30.2964 78.6693 30.2964C79.0453 30.2964 79.3461 30.2212 79.5716 30.0708C79.8008 29.9168 79.9154 29.7127 79.9154 29.4585Z" fill="#555555"/>
<path d="M81.7418 28.0459C81.7418 27.1543 81.953 26.4382 82.3756 25.8975C82.7981 25.3532 83.3513 25.0811 84.0352 25.0811C84.7156 25.0811 85.2545 25.3138 85.6519 25.7793V22.75H86.6456V31H85.7325L85.6842 30.377C85.2867 30.8639 84.7335 31.1074 84.0245 31.1074C83.3513 31.1074 82.8017 30.8317 82.3756 30.2803C81.953 29.7288 81.7418 29.0091 81.7418 28.1211V28.0459ZM82.7354 28.1587C82.7354 28.8175 82.8715 29.3332 83.1436 29.7056C83.4158 30.078 83.7917 30.2642 84.2716 30.2642C84.9018 30.2642 85.3619 29.9813 85.6519 29.4155V26.7461C85.3547 26.1982 84.8982 25.9243 84.2823 25.9243C83.7953 25.9243 83.4158 26.1123 83.1436 26.4883C82.8715 26.8643 82.7354 27.4211 82.7354 28.1587Z" fill="#555555"/>
<path d="M91.5603 31C91.5031 30.8854 91.4565 30.6813 91.4207 30.3877C90.9588 30.8675 90.4074 31.1074 89.7664 31.1074C89.1935 31.1074 88.7226 30.9463 88.3538 30.624C87.9886 30.2982 87.806 29.8864 87.806 29.3887C87.806 28.7835 88.0351 28.3145 88.4935 27.9814C88.9554 27.6449 89.6035 27.4766 90.4378 27.4766H91.4046V27.02C91.4046 26.6727 91.3007 26.397 91.0931 26.1929C90.8854 25.9852 90.5792 25.8813 90.1746 25.8813C89.8201 25.8813 89.5229 25.9709 89.283 26.1499C89.0431 26.3289 88.9231 26.5456 88.9231 26.7998H87.9241C87.9241 26.5098 88.0262 26.2305 88.2303 25.9619C88.438 25.6898 88.7172 25.4749 89.0682 25.3174C89.4227 25.1598 89.8112 25.0811 90.2337 25.0811C90.9033 25.0811 91.4279 25.2493 91.8074 25.5859C92.187 25.9189 92.3839 26.3791 92.3982 26.9663V29.6411C92.3982 30.1746 92.4663 30.599 92.6023 30.9141V31H91.5603ZM89.9114 30.2427C90.2229 30.2427 90.5184 30.1621 90.7977 30.001C91.077 29.8398 91.2793 29.6304 91.4046 29.3726V28.1802H90.6258C89.4083 28.1802 88.7996 28.5365 88.7996 29.249C88.7996 29.5605 88.9034 29.804 89.1111 29.9795C89.3188 30.1549 89.5856 30.2427 89.9114 30.2427Z" fill="#555555"/>
<path d="M95.084 23.7812V25.1885H96.169V25.9565H95.084V29.5605C95.084 29.7933 95.1323 29.9688 95.229 30.0869C95.3257 30.2015 95.4904 30.2588 95.7232 30.2588C95.8378 30.2588 95.9953 30.2373 96.1958 30.1943V31C95.9344 31.0716 95.6802 31.1074 95.4331 31.1074C94.9891 31.1074 94.6543 30.9731 94.4287 30.7046C94.2031 30.436 94.0904 30.0547 94.0904 29.5605V25.9565H93.0322V25.1885H94.0904V23.7812H95.084Z" fill="#555555"/>
<path d="M99.5261 31.1074C98.7384 31.1074 98.0974 30.8496 97.6033 30.334C97.1091 29.8148 96.8621 29.1219 96.8621 28.2554V28.0728C96.8621 27.4963 96.9713 26.9824 97.1897 26.5312C97.4117 26.0765 97.7196 25.722 98.1135 25.4678C98.511 25.21 98.9407 25.0811 99.4026 25.0811C100.158 25.0811 100.745 25.3299 101.164 25.8276C101.583 26.3254 101.793 27.0379 101.793 27.9653V28.3789H97.8557C97.87 28.9518 98.0365 29.4155 98.3552 29.77C98.6775 30.1209 99.0857 30.2964 99.5798 30.2964C99.9307 30.2964 100.228 30.2248 100.471 30.0815C100.715 29.9383 100.928 29.7485 101.111 29.5122L101.718 29.9849C101.231 30.7332 100.5 31.1074 99.5261 31.1074ZM99.4026 25.8975C99.0015 25.8975 98.665 26.0443 98.3928 26.3379C98.1207 26.6279 97.9524 27.0361 97.8879 27.5625H100.799V27.4873C100.77 26.9824 100.634 26.5921 100.391 26.3164C100.147 26.0371 99.8179 25.8975 99.4026 25.8975Z" fill="#555555"/>
<path d="M103.667 25.1885L103.7 25.9189C104.144 25.3604 104.724 25.0811 105.44 25.0811C106.668 25.0811 107.288 25.7739 107.298 27.1597V31H106.305V27.1543C106.301 26.7354 106.204 26.4256 106.015 26.2251C105.828 26.0246 105.537 25.9243 105.139 25.9243C104.817 25.9243 104.534 26.0103 104.29 26.1821C104.047 26.354 103.857 26.5796 103.721 26.8589V31H102.728V25.1885H103.667Z" fill="#555555"/>
<path d="M112.079 25.8921C112.519 25.3514 113.092 25.0811 113.798 25.0811C115.026 25.0811 115.645 25.7739 115.656 27.1597V31H114.662V27.1543C114.659 26.7354 114.562 26.4256 114.372 26.2251C114.186 26.0246 113.894 25.9243 113.497 25.9243C113.175 25.9243 112.892 26.0103 112.648 26.1821C112.405 26.354 112.215 26.5796 112.079 26.8589V31H111.085V22.75H112.079V25.8921Z" fill="#555555"/>
<path d="M118.004 31H117.01V25.1885H118.004V31ZM116.929 23.647C116.929 23.4858 116.978 23.3498 117.074 23.2388C117.175 23.1278 117.321 23.0723 117.515 23.0723C117.708 23.0723 117.855 23.1278 117.955 23.2388C118.055 23.3498 118.106 23.4858 118.106 23.647C118.106 23.8081 118.055 23.9424 117.955 24.0498C117.855 24.1572 117.708 24.2109 117.515 24.2109C117.321 24.2109 117.175 24.1572 117.074 24.0498C116.978 23.9424 116.929 23.8081 116.929 23.647Z" fill="#555555"/>
<path d="M121.79 31.1074C121.003 31.1074 120.362 30.8496 119.868 30.334C119.373 29.8148 119.126 29.1219 119.126 28.2554V28.0728C119.126 27.4963 119.236 26.9824 119.454 26.5312C119.676 26.0765 119.984 25.722 120.378 25.4678C120.775 25.21 121.205 25.0811 121.667 25.0811C122.422 25.0811 123.01 25.3299 123.429 25.8276C123.848 26.3254 124.057 27.0379 124.057 27.9653V28.3789H120.12C120.134 28.9518 120.301 29.4155 120.619 29.77C120.942 30.1209 121.35 30.2964 121.844 30.2964C122.195 30.2964 122.492 30.2248 122.736 30.0815C122.979 29.9383 123.192 29.7485 123.375 29.5122L123.982 29.9849C123.495 30.7332 122.764 31.1074 121.79 31.1074ZM121.667 25.8975C121.266 25.8975 120.929 26.0443 120.657 26.3379C120.385 26.6279 120.217 27.0361 120.152 27.5625H123.063V27.4873C123.035 26.9824 122.899 26.5921 122.655 26.3164C122.412 26.0371 122.082 25.8975 121.667 25.8975Z" fill="#555555"/>
<path d="M127.801 26.0801C127.65 26.055 127.488 26.0425 127.312 26.0425C126.66 26.0425 126.218 26.32 125.985 26.875V31H124.992V25.1885H125.959L125.975 25.8599C126.301 25.3407 126.762 25.0811 127.36 25.0811C127.554 25.0811 127.701 25.1061 127.801 25.1562V26.0801Z" fill="#555555"/>
<path d="M25.593 9.54639H22.3112V13H21.28V5.17969H26.1247V6.02832H22.3112V8.70312H25.593V9.54639Z" fill="#EEEEEE"/>
<path d="M30.9396 13C30.8823 12.8854 30.8357 12.6813 30.7999 12.3877C30.338 12.8675 29.7866 13.1074 29.1456 13.1074C28.5727 13.1074 28.1018 12.9463 27.733 12.624C27.3678 12.2982 27.1852 11.8864 27.1852 11.3887C27.1852 10.7835 27.4143 10.3145 27.8727 9.98145C28.3346 9.64486 28.9827 9.47656 29.817 9.47656H30.7838V9.02002C30.7838 8.67269 30.68 8.39697 30.4723 8.19287C30.2646 7.98519 29.9584 7.88135 29.5538 7.88135C29.1993 7.88135 28.9021 7.97087 28.6622 8.1499C28.4223 8.32894 28.3024 8.54557 28.3024 8.7998H27.3033C27.3033 8.50977 27.4054 8.23047 27.6095 7.96191C27.8172 7.68978 28.0965 7.47493 28.4474 7.31738C28.8019 7.15983 29.1904 7.08105 29.6129 7.08105C30.2825 7.08105 30.8071 7.24935 31.1866 7.58594C31.5662 7.91895 31.7631 8.37907 31.7774 8.96631V11.6411C31.7774 12.1746 31.8455 12.599 31.9816 12.9141V13H30.9396ZM29.2906 12.2427C29.6022 12.2427 29.8976 12.1621 30.1769 12.001C30.4562 11.8398 30.6585 11.6304 30.7838 11.3726V10.1802H30.005C28.7875 10.1802 28.1788 10.5365 28.1788 11.249C28.1788 11.5605 28.2827 11.804 28.4903 11.9795C28.698 12.1549 28.9648 12.2427 29.2906 12.2427Z" fill="#EEEEEE"/>
<path d="M34.7447 13H33.751V7.18848H34.7447V13ZM33.6704 5.64697C33.6704 5.48584 33.7188 5.34977 33.8155 5.23877C33.9157 5.12777 34.0625 5.07227 34.2559 5.07227C34.4492 5.07227 34.5961 5.12777 34.6963 5.23877C34.7966 5.34977 34.8467 5.48584 34.8467 5.64697C34.8467 5.80811 34.7966 5.94238 34.6963 6.0498C34.5961 6.15723 34.4492 6.21094 34.2559 6.21094C34.0625 6.21094 33.9157 6.15723 33.8155 6.0498C33.7188 5.94238 33.6704 5.80811 33.6704 5.64697Z" fill="#EEEEEE"/>
<path d="M39.479 8.08008C39.3286 8.05501 39.1656 8.04248 38.9902 8.04248C38.3385 8.04248 37.8963 8.31999 37.6635 8.875V13H36.6699V7.18848H37.6367L37.6528 7.85986C37.9786 7.34066 38.4405 7.08105 39.0385 7.08105C39.2319 7.08105 39.3787 7.10612 39.479 7.15625V8.08008Z" fill="#EEEEEE"/>
<path d="M48.9314 11.6304L50.0486 7.18848H51.0423L49.3504 13H48.5447L47.1321 8.5957L45.7571 13H44.9515L43.2649 7.18848H44.2532L45.3973 11.5391L46.7508 7.18848H47.5511L48.9314 11.6304Z" fill="#EEEEEE"/>
<path d="M54.799 13.1074C54.0113 13.1074 53.3703 12.8496 52.8762 12.334C52.382 11.8148 52.135 11.1219 52.135 10.2554V10.0728C52.135 9.49626 52.2442 8.98242 52.4626 8.53125C52.6846 8.0765 52.9926 7.72201 53.3864 7.46777C53.7839 7.20996 54.2136 7.08105 54.6755 7.08105C55.431 7.08105 56.0183 7.32992 56.4372 7.82764C56.8562 8.32536 57.0656 9.03792 57.0656 9.96533V10.3789H53.1286C53.1429 10.9518 53.3094 11.4155 53.6281 11.77C53.9504 12.1209 54.3586 12.2964 54.8527 12.2964C55.2037 12.2964 55.5009 12.2248 55.7443 12.0815C55.9878 11.9383 56.2009 11.7485 56.3835 11.5122L56.9904 11.9849C56.5035 12.7332 55.773 13.1074 54.799 13.1074ZM54.6755 7.89746C54.2745 7.89746 53.9379 8.04427 53.6657 8.33789C53.3936 8.62793 53.2253 9.03613 53.1608 9.5625H56.072V9.4873C56.0433 8.98242 55.9073 8.59212 55.6638 8.31641C55.4203 8.03711 55.0909 7.89746 54.6755 7.89746Z" fill="#EEEEEE"/>
<path d="M63.4703 10.1587C63.4703 11.0467 63.2662 11.7611 62.858 12.3018C62.4498 12.8389 61.902 13.1074 61.2145 13.1074C60.4804 13.1074 59.9129 12.8478 59.5118 12.3286L59.4635 13H58.5504V4.75H59.5441V7.82764C59.9451 7.32992 60.4983 7.08105 61.2037 7.08105C61.9091 7.08105 62.4624 7.34782 62.8634 7.88135C63.268 8.41488 63.4703 9.14535 63.4703 10.0728V10.1587ZM62.4767 10.0459C62.4767 9.36914 62.346 8.84635 62.0846 8.47754C61.8232 8.10872 61.4472 7.92432 60.9567 7.92432C60.3014 7.92432 59.8305 8.22868 59.5441 8.8374V11.3511C59.8484 11.9598 60.3229 12.2642 60.9674 12.2642C61.4436 12.2642 61.8143 12.0798 62.0792 11.7109C62.3442 11.3421 62.4767 10.7871 62.4767 10.0459Z" fill="#EEEEEE"/>
<path d="M71.7036 13C71.6463 12.8854 71.5997 12.6813 71.5639 12.3877C71.102 12.8675 70.5506 13.1074 69.9096 13.1074C69.3367 13.1074 68.8659 12.9463 68.497 12.624C68.1318 12.2982 67.9492 11.8864 67.9492 11.3887C67.9492 10.7835 68.1784 10.3145 68.6367 9.98145C69.0986 9.64486 69.7467 9.47656 70.581 9.47656H71.5478V9.02002C71.5478 8.67269 71.444 8.39697 71.2363 8.19287C71.0286 7.98519 70.7225 7.88135 70.3178 7.88135C69.9633 7.88135 69.6661 7.97087 69.4262 8.1499C69.1863 8.32894 69.0664 8.54557 69.0664 8.7998H68.0674C68.0674 8.50977 68.1694 8.23047 68.3735 7.96191C68.5812 7.68978 68.8605 7.47493 69.2114 7.31738C69.5659 7.15983 69.9544 7.08105 70.3769 7.08105C71.0465 7.08105 71.5711 7.24935 71.9507 7.58594C72.3302 7.91895 72.5272 8.37907 72.5415 8.96631V11.6411C72.5415 12.1746 72.6095 12.599 72.7456 12.9141V13H71.7036ZM70.0547 12.2427C70.3662 12.2427 70.6616 12.1621 70.9409 12.001C71.2202 11.8398 71.4225 11.6304 71.5478 11.3726V10.1802H70.769C69.5516 10.1802 68.9428 10.5365 68.9428 11.249C68.9428 11.5605 69.0467 11.804 69.2544 11.9795C69.462 12.1549 69.7288 12.2427 70.0547 12.2427Z" fill="#EEEEEE"/>
<path d="M75.369 7.18848L75.4013 7.91895C75.8453 7.36035 76.4253 7.08105 77.1415 7.08105C78.3697 7.08105 78.9891 7.77393 78.9999 9.15967V13H78.0062V9.1543C78.0027 8.73535 77.906 8.42562 77.7162 8.2251C77.53 8.02458 77.2382 7.92432 76.8407 7.92432C76.5184 7.92432 76.2356 8.01025 75.9921 8.18213C75.7486 8.354 75.5588 8.57959 75.4227 8.85889V13H74.4291V7.18848H75.369Z" fill="#EEEEEE"/>
<path d="M84.4163 13C84.359 12.8854 84.3125 12.6813 84.2767 12.3877C83.8148 12.8675 83.2633 13.1074 82.6224 13.1074C82.0495 13.1074 81.5786 12.9463 81.2098 12.624C80.8445 12.2982 80.6619 11.8864 80.6619 11.3887C80.6619 10.7835 80.8911 10.3145 81.3494 9.98145C81.8113 9.64486 82.4594 9.47656 83.2938 9.47656H84.2606V9.02002C84.2606 8.67269 84.1567 8.39697 83.949 8.19287C83.7413 7.98519 83.4352 7.88135 83.0306 7.88135C82.6761 7.88135 82.3789 7.97087 82.139 8.1499C81.8991 8.32894 81.7791 8.54557 81.7791 8.7998H80.7801C80.7801 8.50977 80.8821 8.23047 81.0862 7.96191C81.2939 7.68978 81.5732 7.47493 81.9241 7.31738C82.2786 7.15983 82.6671 7.08105 83.0897 7.08105C83.7592 7.08105 84.2838 7.24935 84.6634 7.58594C85.0429 7.91895 85.2399 8.37907 85.2542 8.96631V11.6411C85.2542 12.1746 85.3222 12.599 85.4583 12.9141V13H84.4163ZM82.7674 12.2427C83.0789 12.2427 83.3743 12.1621 83.6536 12.001C83.9329 11.8398 84.1352 11.6304 84.2606 11.3726V10.1802H83.4817C82.2643 10.1802 81.6556 10.5365 81.6556 11.249C81.6556 11.5605 81.7594 11.804 81.9671 11.9795C82.1748 12.1549 82.4415 12.2427 82.7674 12.2427Z" fill="#EEEEEE"/>
<path d="M88.2214 13H87.2278V4.75H88.2214V13Z" fill="#EEEEEE"/>
<path d="M92.048 11.5444L93.4015 7.18848H94.465L92.1286 13.897C91.7669 14.8638 91.1922 15.3472 90.4044 15.3472L90.2165 15.3311L89.8458 15.2612V14.4556L90.1144 14.4771C90.451 14.4771 90.7124 14.409 90.8986 14.2729C91.0884 14.1369 91.2441 13.888 91.3659 13.5264L91.5861 12.9355L89.5128 7.18848H90.5978L92.048 11.5444Z" fill="#EEEEEE"/>
<path d="M97.0347 5.78125V7.18848H98.1197V7.95654H97.0347V11.5605C97.0347 11.7933 97.0831 11.9688 97.1798 12.0869C97.2764 12.2015 97.4411 12.2588 97.6739 12.2588C97.7885 12.2588 97.946 12.2373 98.1466 12.1943V13C97.8852 13.0716 97.6309 13.1074 97.3839 13.1074C96.9398 13.1074 96.605 12.9731 96.3795 12.7046C96.1539 12.436 96.0411 12.0547 96.0411 11.5605V7.95654H94.983V7.18848H96.0411V5.78125H97.0347Z" fill="#EEEEEE"/>
<path d="M100.695 13H99.7012V7.18848H100.695V13ZM99.6206 5.64697C99.6206 5.48584 99.6689 5.34977 99.7656 5.23877C99.8659 5.12777 100.013 5.07227 100.206 5.07227C100.399 5.07227 100.546 5.12777 100.646 5.23877C100.747 5.34977 100.797 5.48584 100.797 5.64697C100.797 5.80811 100.747 5.94238 100.646 6.0498C100.546 6.15723 100.399 6.21094 100.206 6.21094C100.013 6.21094 99.8659 6.15723 99.7656 6.0498C99.6689 5.94238 99.6206 5.80811 99.6206 5.64697Z" fill="#EEEEEE"/>
<path d="M104.951 12.2964C105.306 12.2964 105.615 12.189 105.88 11.9741C106.145 11.7593 106.292 11.4907 106.321 11.1685H107.261C107.243 11.5015 107.128 11.8184 106.917 12.1191C106.706 12.4199 106.423 12.6598 106.068 12.8389C105.717 13.0179 105.345 13.1074 104.951 13.1074C104.16 13.1074 103.53 12.8442 103.06 12.3179C102.595 11.7879 102.362 11.0646 102.362 10.1479V9.98145C102.362 9.41569 102.466 8.9126 102.674 8.47217C102.881 8.03174 103.179 7.68978 103.565 7.44629C103.956 7.2028 104.416 7.08105 104.946 7.08105C105.597 7.08105 106.138 7.2762 106.568 7.6665C107.001 8.0568 107.232 8.56348 107.261 9.18652H106.321C106.292 8.81055 106.149 8.5026 105.891 8.2627C105.637 8.01921 105.322 7.89746 104.946 7.89746C104.441 7.89746 104.049 8.08008 103.769 8.44531C103.494 8.80697 103.356 9.33154 103.356 10.019V10.207C103.356 10.8766 103.494 11.3923 103.769 11.7539C104.045 12.1156 104.439 12.2964 104.951 12.2964Z" fill="#EEEEEE"/>
<path d="M112.092 11.4585C112.092 11.1899 111.99 10.9823 111.785 10.8354C111.585 10.6851 111.232 10.5562 110.727 10.4487C110.226 10.3413 109.827 10.2124 109.53 10.062C109.236 9.91162 109.018 9.73258 108.874 9.5249C108.735 9.31722 108.665 9.07015 108.665 8.78369C108.665 8.30745 108.865 7.90462 109.266 7.5752C109.671 7.24577 110.187 7.08105 110.813 7.08105C111.472 7.08105 112.006 7.25114 112.414 7.59131C112.826 7.93148 113.032 8.36654 113.032 8.89648H112.033C112.033 8.62435 111.916 8.38981 111.683 8.19287C111.454 7.99593 111.164 7.89746 110.813 7.89746C110.452 7.89746 110.169 7.97624 109.965 8.13379C109.761 8.29134 109.659 8.49723 109.659 8.75146C109.659 8.99137 109.753 9.1722 109.943 9.29395C110.133 9.41569 110.475 9.53206 110.969 9.64307C111.467 9.75407 111.87 9.88656 112.178 10.0405C112.486 10.1945 112.713 10.3807 112.86 10.5991C113.01 10.814 113.085 11.0771 113.085 11.3887C113.085 11.9079 112.878 12.325 112.462 12.6401C112.047 12.9517 111.508 13.1074 110.846 13.1074C110.38 13.1074 109.968 13.0251 109.61 12.8604C109.252 12.6956 108.971 12.4665 108.767 12.1729C108.566 11.8757 108.466 11.5552 108.466 11.2114H109.46C109.478 11.5444 109.61 11.8094 109.857 12.0063C110.108 12.1997 110.437 12.2964 110.846 12.2964C111.222 12.2964 111.522 12.2212 111.748 12.0708C111.977 11.9168 112.092 11.7127 112.092 11.4585Z" fill="#EEEEEE"/>
</svg>
