<svg width="78" height="78" viewBox="0 0 78 78" fill="none" xmlns="http://www.w3.org/2000/svg">
<path d="M78 39C78 60.5391 60.5391 78 39 78C17.4609 78 0 60.5391 0 39C0 17.4609 17.4609 0 39 0C60.5391 0 78 17.4609 78 39Z" fill="#EEEEEE"/>
<path d="M12.4803 48.5205L10.1268 55H9.16484L11.8748 47.8906H12.4949L12.4803 48.5205ZM14.4529 55L12.0945 48.5205L12.0799 47.8906H12.7L15.4197 55H14.4529ZM14.3309 52.3682V53.1396H10.3367V52.3682H14.3309Z" fill="#555555"/>
<path d="M18.4494 54.3555C18.6643 54.3555 18.8628 54.3115 19.0451 54.2236C19.2274 54.1357 19.3772 54.0153 19.4943 53.8623C19.6115 53.7061 19.6783 53.5286 19.6945 53.3301H20.5539C20.5376 53.6426 20.4318 53.9339 20.2365 54.2041C20.0445 54.471 19.7922 54.6875 19.4797 54.8535C19.1672 55.0163 18.8238 55.0977 18.4494 55.0977C18.0523 55.0977 17.7056 55.0277 17.4094 54.8877C17.1164 54.7477 16.8723 54.5557 16.677 54.3115C16.4849 54.0674 16.34 53.7874 16.2424 53.4717C16.148 53.1527 16.1008 52.8158 16.1008 52.4609V52.2559C16.1008 51.901 16.148 51.5658 16.2424 51.25C16.34 50.931 16.4849 50.6494 16.677 50.4053C16.8723 50.1611 17.1164 49.9691 17.4094 49.8291C17.7056 49.6891 18.0523 49.6191 18.4494 49.6191C18.8628 49.6191 19.2242 49.7038 19.5334 49.873C19.8426 50.0391 20.0852 50.2669 20.2609 50.5566C20.44 50.8431 20.5376 51.1686 20.5539 51.5332H19.6945C19.6783 51.3151 19.6164 51.1182 19.509 50.9424C19.4048 50.7666 19.2616 50.6266 19.0793 50.5225C18.9003 50.415 18.6903 50.3613 18.4494 50.3613C18.1727 50.3613 17.94 50.4167 17.7512 50.5273C17.5656 50.6348 17.4175 50.7812 17.3068 50.9668C17.1994 51.1491 17.1213 51.3525 17.0725 51.5771C17.0269 51.7985 17.0041 52.0247 17.0041 52.2559V52.4609C17.0041 52.6921 17.0269 52.9199 17.0725 53.1445C17.118 53.3691 17.1945 53.5726 17.302 53.7549C17.4126 53.9372 17.5607 54.0837 17.7463 54.1943C17.9351 54.3018 18.1695 54.3555 18.4494 54.3555Z" fill="#555555"/>
<path d="M23.8619 55.0977C23.4941 55.0977 23.1604 55.0358 22.8609 54.9121C22.5647 54.7852 22.3092 54.6077 22.0943 54.3799C21.8827 54.152 21.72 53.8818 21.6061 53.5693C21.4921 53.2568 21.4352 52.915 21.4352 52.5439V52.3389C21.4352 51.9092 21.4986 51.5267 21.6256 51.1914C21.7525 50.8529 21.9251 50.5664 22.1432 50.332C22.3613 50.0977 22.6087 49.9202 22.8854 49.7998C23.162 49.6794 23.4485 49.6191 23.7447 49.6191C24.1223 49.6191 24.4479 49.6842 24.7213 49.8145C24.998 49.9447 25.2242 50.127 25.4 50.3613C25.5758 50.5924 25.706 50.8659 25.7906 51.1816C25.8753 51.4941 25.9176 51.8359 25.9176 52.207V52.6123H21.9723V51.875H25.0143V51.8066C25.0012 51.5723 24.9524 51.3444 24.8678 51.123C24.7864 50.9017 24.6562 50.7194 24.4771 50.5762C24.2981 50.4329 24.054 50.3613 23.7447 50.3613C23.5396 50.3613 23.3508 50.4053 23.1783 50.4932C23.0058 50.5778 22.8577 50.7048 22.734 50.874C22.6103 51.0433 22.5143 51.25 22.4459 51.4941C22.3775 51.7383 22.3434 52.0199 22.3434 52.3389V52.5439C22.3434 52.7946 22.3775 53.0306 22.4459 53.252C22.5175 53.4701 22.6201 53.6621 22.7535 53.8281C22.8902 53.9941 23.0546 54.1243 23.2467 54.2188C23.442 54.3132 23.6633 54.3604 23.9107 54.3604C24.2298 54.3604 24.4999 54.2952 24.7213 54.165C24.9426 54.0348 25.1363 53.8607 25.3023 53.6426L25.8492 54.0771C25.7353 54.2497 25.5904 54.4141 25.4146 54.5703C25.2389 54.7266 25.0224 54.8535 24.7652 54.9512C24.5113 55.0488 24.2102 55.0977 23.8619 55.0977Z" fill="#555555"/>
<path d="M30.1484 53.5986C30.1484 53.4684 30.1191 53.348 30.0605 53.2373C30.0052 53.1234 29.8896 53.0208 29.7139 52.9297C29.5413 52.8353 29.2809 52.7539 28.9326 52.6855C28.6396 52.6237 28.3743 52.5505 28.1367 52.4658C27.9023 52.3812 27.7021 52.2786 27.5361 52.1582C27.3734 52.0378 27.248 51.8962 27.1602 51.7334C27.0723 51.5706 27.0283 51.3802 27.0283 51.1621C27.0283 50.9538 27.0739 50.7568 27.165 50.5713C27.2594 50.3857 27.3913 50.2214 27.5605 50.0781C27.7331 49.9349 27.9398 49.8226 28.1807 49.7412C28.4215 49.6598 28.6901 49.6191 28.9863 49.6191C29.4095 49.6191 29.7708 49.694 30.0703 49.8438C30.3698 49.9935 30.5993 50.1937 30.7588 50.4443C30.9183 50.6917 30.998 50.9668 30.998 51.2695H30.0947C30.0947 51.123 30.0508 50.9814 29.9629 50.8447C29.8783 50.7048 29.7529 50.5892 29.5869 50.498C29.4242 50.4069 29.224 50.3613 28.9863 50.3613C28.7357 50.3613 28.5322 50.4004 28.376 50.4785C28.223 50.5534 28.1107 50.6494 28.0391 50.7666C27.9707 50.8838 27.9365 51.0075 27.9365 51.1377C27.9365 51.2354 27.9528 51.3232 27.9854 51.4014C28.0212 51.4762 28.083 51.5462 28.1709 51.6113C28.2588 51.6732 28.3825 51.7318 28.542 51.7871C28.7015 51.8424 28.9049 51.8978 29.1523 51.9531C29.5853 52.0508 29.9417 52.168 30.2217 52.3047C30.5016 52.4414 30.71 52.609 30.8467 52.8076C30.9834 53.0062 31.0518 53.2471 31.0518 53.5303C31.0518 53.7614 31.0029 53.973 30.9053 54.165C30.8109 54.3571 30.6725 54.5231 30.4902 54.6631C30.3112 54.7998 30.0964 54.9072 29.8457 54.9854C29.5983 55.0602 29.32 55.0977 29.0107 55.0977C28.5452 55.0977 28.1514 55.0146 27.8291 54.8486C27.5068 54.6826 27.2627 54.4678 27.0967 54.2041C26.9307 53.9404 26.8477 53.6621 26.8477 53.3691H27.7559C27.7689 53.6165 27.8405 53.8135 27.9707 53.96C28.1009 54.1032 28.2604 54.2057 28.4492 54.2676C28.638 54.3262 28.8252 54.3555 29.0107 54.3555C29.2581 54.3555 29.4648 54.3229 29.6309 54.2578C29.8001 54.1927 29.9287 54.1032 30.0166 53.9893C30.1045 53.8753 30.1484 53.7451 30.1484 53.5986Z" fill="#555555"/>
<path d="M35.4145 53.5986C35.4145 53.4684 35.3852 53.348 35.3266 53.2373C35.2712 53.1234 35.1557 53.0208 34.9799 52.9297C34.8074 52.8353 34.5469 52.7539 34.1986 52.6855C33.9057 52.6237 33.6404 52.5505 33.4027 52.4658C33.1684 52.3812 32.9682 52.2786 32.8021 52.1582C32.6394 52.0378 32.5141 51.8962 32.4262 51.7334C32.3383 51.5706 32.2943 51.3802 32.2943 51.1621C32.2943 50.9538 32.3399 50.7568 32.4311 50.5713C32.5255 50.3857 32.6573 50.2214 32.8266 50.0781C32.9991 49.9349 33.2058 49.8226 33.4467 49.7412C33.6876 49.6598 33.9561 49.6191 34.2523 49.6191C34.6755 49.6191 35.0368 49.694 35.3363 49.8438C35.6358 49.9935 35.8653 50.1937 36.0248 50.4443C36.1843 50.6917 36.2641 50.9668 36.2641 51.2695H35.3607C35.3607 51.123 35.3168 50.9814 35.2289 50.8447C35.1443 50.7048 35.0189 50.5892 34.8529 50.498C34.6902 50.4069 34.49 50.3613 34.2523 50.3613C34.0017 50.3613 33.7982 50.4004 33.642 50.4785C33.489 50.5534 33.3767 50.6494 33.3051 50.7666C33.2367 50.8838 33.2025 51.0075 33.2025 51.1377C33.2025 51.2354 33.2188 51.3232 33.2514 51.4014C33.2872 51.4762 33.349 51.5462 33.4369 51.6113C33.5248 51.6732 33.6485 51.7318 33.808 51.7871C33.9675 51.8424 34.171 51.8978 34.4184 51.9531C34.8513 52.0508 35.2077 52.168 35.4877 52.3047C35.7676 52.4414 35.976 52.609 36.1127 52.8076C36.2494 53.0062 36.3178 53.2471 36.3178 53.5303C36.3178 53.7614 36.2689 53.973 36.1713 54.165C36.0769 54.3571 35.9385 54.5231 35.7562 54.6631C35.5772 54.7998 35.3624 54.9072 35.1117 54.9854C34.8643 55.0602 34.586 55.0977 34.2768 55.0977C33.8113 55.0977 33.4174 55.0146 33.0951 54.8486C32.7729 54.6826 32.5287 54.4678 32.3627 54.2041C32.1967 53.9404 32.1137 53.6621 32.1137 53.3691H33.0219C33.0349 53.6165 33.1065 53.8135 33.2367 53.96C33.3669 54.1032 33.5264 54.2057 33.7152 54.2676C33.904 54.3262 34.0912 54.3555 34.2768 54.3555C34.5242 54.3555 34.7309 54.3229 34.8969 54.2578C35.0661 54.1927 35.1947 54.1032 35.2826 53.9893C35.3705 53.8753 35.4145 53.7451 35.4145 53.5986Z" fill="#555555"/>
<path d="M40.7195 54.0967V51.377C40.7195 51.1686 40.6772 50.988 40.5926 50.835C40.5112 50.6787 40.3875 50.5583 40.2215 50.4736C40.0555 50.389 39.8504 50.3467 39.6062 50.3467C39.3784 50.3467 39.1782 50.3857 39.0057 50.4639C38.8364 50.542 38.7029 50.6445 38.6053 50.7715C38.5109 50.8984 38.4637 51.0352 38.4637 51.1816H37.5603C37.5603 50.9928 37.6092 50.8057 37.7068 50.6201C37.8045 50.4346 37.9445 50.2669 38.1268 50.1172C38.3123 49.9642 38.5337 49.8438 38.7908 49.7559C39.0512 49.6647 39.3409 49.6191 39.66 49.6191C40.0441 49.6191 40.3826 49.6842 40.6756 49.8145C40.9718 49.9447 41.2029 50.1416 41.3689 50.4053C41.5382 50.6657 41.6228 50.9928 41.6228 51.3867V53.8477C41.6228 54.0234 41.6375 54.2106 41.6668 54.4092C41.6993 54.6077 41.7465 54.7786 41.8084 54.9219V55H40.866C40.8204 54.8958 40.7846 54.7575 40.7586 54.585C40.7325 54.4092 40.7195 54.2464 40.7195 54.0967ZM40.8758 51.7969L40.8855 52.4316H39.9725C39.7153 52.4316 39.4858 52.4528 39.284 52.4951C39.0822 52.5342 38.9129 52.5944 38.7762 52.6758C38.6395 52.7572 38.5353 52.8597 38.4637 52.9834C38.3921 53.1038 38.3562 53.2454 38.3562 53.4082C38.3562 53.5742 38.3937 53.7256 38.4686 53.8623C38.5434 53.999 38.6557 54.1081 38.8055 54.1895C38.9585 54.2676 39.1456 54.3066 39.367 54.3066C39.6437 54.3066 39.8878 54.248 40.0994 54.1309C40.311 54.0137 40.4786 53.8704 40.6023 53.7012C40.7293 53.5319 40.7977 53.3675 40.8074 53.208L41.1932 53.6426C41.1704 53.7793 41.1085 53.9307 41.0076 54.0967C40.9067 54.2627 40.7716 54.4222 40.6023 54.5752C40.4363 54.7249 40.2378 54.8503 40.0066 54.9512C39.7788 55.0488 39.5216 55.0977 39.2352 55.0977C38.8771 55.0977 38.563 55.0277 38.2928 54.8877C38.0258 54.7477 37.8175 54.5605 37.6678 54.3262C37.5213 54.0885 37.448 53.8232 37.448 53.5303C37.448 53.2471 37.5034 52.998 37.6141 52.7832C37.7247 52.5651 37.8842 52.3844 38.0926 52.2412C38.3009 52.0947 38.5516 51.984 38.8445 51.9092C39.1375 51.8343 39.4646 51.7969 39.826 51.7969H40.8758Z" fill="#555555"/>
<path d="M44.0471 50.5469V55H43.1438V49.7168H44.0227L44.0471 50.5469ZM45.6975 49.6875L45.6926 50.5273C45.6177 50.5111 45.5461 50.5013 45.4777 50.498C45.4126 50.4915 45.3378 50.4883 45.2531 50.4883C45.0448 50.4883 44.8609 50.5208 44.7014 50.5859C44.5419 50.651 44.4068 50.7422 44.2961 50.8594C44.1854 50.9766 44.0975 51.1165 44.0324 51.2793C43.9706 51.4388 43.9299 51.6146 43.9104 51.8066L43.6564 51.9531C43.6564 51.6341 43.6874 51.3346 43.7492 51.0547C43.8143 50.7747 43.9136 50.5273 44.0471 50.3125C44.1805 50.0944 44.3498 49.9251 44.5549 49.8047C44.7632 49.681 45.0106 49.6191 45.2971 49.6191C45.3622 49.6191 45.437 49.6273 45.5217 49.6436C45.6063 49.6566 45.6649 49.6712 45.6975 49.6875Z" fill="#555555"/>
<path d="M52.2891 53.5986C52.2891 53.4684 52.2598 53.348 52.2012 53.2373C52.1458 53.1234 52.0303 53.0208 51.8545 52.9297C51.682 52.8353 51.4215 52.7539 51.0732 52.6855C50.7803 52.6237 50.515 52.5505 50.2773 52.4658C50.043 52.3812 49.8428 52.2786 49.6768 52.1582C49.514 52.0378 49.3887 51.8962 49.3008 51.7334C49.2129 51.5706 49.1689 51.3802 49.1689 51.1621C49.1689 50.9538 49.2145 50.7568 49.3057 50.5713C49.4001 50.3857 49.5319 50.2214 49.7012 50.0781C49.8737 49.9349 50.0804 49.8226 50.3213 49.7412C50.5622 49.6598 50.8307 49.6191 51.127 49.6191C51.5501 49.6191 51.9115 49.694 52.2109 49.8438C52.5104 49.9935 52.7399 50.1937 52.8994 50.4443C53.0589 50.6917 53.1387 50.9668 53.1387 51.2695H52.2354C52.2354 51.123 52.1914 50.9814 52.1035 50.8447C52.0189 50.7048 51.8936 50.5892 51.7275 50.498C51.5648 50.4069 51.3646 50.3613 51.127 50.3613C50.8763 50.3613 50.6729 50.4004 50.5166 50.4785C50.3636 50.5534 50.2513 50.6494 50.1797 50.7666C50.1113 50.8838 50.0771 51.0075 50.0771 51.1377C50.0771 51.2354 50.0934 51.3232 50.126 51.4014C50.1618 51.4762 50.2236 51.5462 50.3115 51.6113C50.3994 51.6732 50.5231 51.7318 50.6826 51.7871C50.8421 51.8424 51.0456 51.8978 51.293 51.9531C51.7259 52.0508 52.0824 52.168 52.3623 52.3047C52.6423 52.4414 52.8506 52.609 52.9873 52.8076C53.124 53.0062 53.1924 53.2471 53.1924 53.5303C53.1924 53.7614 53.1436 53.973 53.0459 54.165C52.9515 54.3571 52.8132 54.5231 52.6309 54.6631C52.4518 54.7998 52.237 54.9072 51.9863 54.9854C51.7389 55.0602 51.4606 55.0977 51.1514 55.0977C50.6859 55.0977 50.292 55.0146 49.9697 54.8486C49.6475 54.6826 49.4033 54.4678 49.2373 54.2041C49.0713 53.9404 48.9883 53.6621 48.9883 53.3691H49.8965C49.9095 53.6165 49.9811 53.8135 50.1113 53.96C50.2415 54.1032 50.401 54.2057 50.5898 54.2676C50.7786 54.3262 50.9658 54.3555 51.1514 54.3555C51.3988 54.3555 51.6055 54.3229 51.7715 54.2578C51.9408 54.1927 52.0693 54.1032 52.1572 53.9893C52.2451 53.8753 52.2891 53.7451 52.2891 53.5986Z" fill="#555555"/>
<path d="M56.6713 55.0977C56.3035 55.0977 55.9698 55.0358 55.6703 54.9121C55.3741 54.7852 55.1186 54.6077 54.9037 54.3799C54.6921 54.152 54.5294 53.8818 54.4154 53.5693C54.3015 53.2568 54.2445 52.915 54.2445 52.5439V52.3389C54.2445 51.9092 54.308 51.5267 54.435 51.1914C54.5619 50.8529 54.7344 50.5664 54.9525 50.332C55.1706 50.0977 55.418 49.9202 55.6947 49.7998C55.9714 49.6794 56.2579 49.6191 56.5541 49.6191C56.9317 49.6191 57.2572 49.6842 57.5307 49.8145C57.8074 49.9447 58.0336 50.127 58.2094 50.3613C58.3852 50.5924 58.5154 50.8659 58.6 51.1816C58.6846 51.4941 58.727 51.8359 58.727 52.207V52.6123H54.7816V51.875H57.8236V51.8066C57.8106 51.5723 57.7618 51.3444 57.6772 51.123C57.5958 50.9017 57.4656 50.7194 57.2865 50.5762C57.1075 50.4329 56.8634 50.3613 56.5541 50.3613C56.349 50.3613 56.1602 50.4053 55.9877 50.4932C55.8152 50.5778 55.6671 50.7048 55.5434 50.874C55.4197 51.0433 55.3236 51.25 55.2553 51.4941C55.1869 51.7383 55.1527 52.0199 55.1527 52.3389V52.5439C55.1527 52.7946 55.1869 53.0306 55.2553 53.252C55.3269 53.4701 55.4294 53.6621 55.5629 53.8281C55.6996 53.9941 55.864 54.1243 56.0561 54.2188C56.2514 54.3132 56.4727 54.3604 56.7201 54.3604C57.0391 54.3604 57.3093 54.2952 57.5307 54.165C57.752 54.0348 57.9457 53.8607 58.1117 53.6426L58.6586 54.0771C58.5447 54.2497 58.3998 54.4141 58.224 54.5703C58.0482 54.7266 57.8318 54.8535 57.5746 54.9512C57.3207 55.0488 57.0196 55.0977 56.6713 55.0977Z" fill="#555555"/>
<path d="M63.1141 53.7793V49.7168H64.0223V55H63.158L63.1141 53.7793ZM63.285 52.666L63.6609 52.6562C63.6609 53.0078 63.6235 53.3333 63.5486 53.6328C63.477 53.929 63.3598 54.1862 63.1971 54.4043C63.0343 54.6224 62.8211 54.7933 62.5574 54.917C62.2937 55.0374 61.9731 55.0977 61.5955 55.0977C61.3383 55.0977 61.1023 55.0602 60.8875 54.9854C60.6759 54.9105 60.4936 54.7949 60.3406 54.6387C60.1876 54.4824 60.0688 54.279 59.9842 54.0283C59.9028 53.7777 59.8621 53.4766 59.8621 53.125V49.7168H60.7654V53.1348C60.7654 53.3724 60.7915 53.5693 60.8436 53.7256C60.8989 53.8786 60.9721 54.0007 61.0633 54.0918C61.1577 54.1797 61.2618 54.2415 61.3758 54.2773C61.493 54.3132 61.6134 54.3311 61.7371 54.3311C62.1212 54.3311 62.4256 54.2578 62.6502 54.1113C62.8748 53.9616 63.0359 53.7614 63.1336 53.5107C63.2345 53.2568 63.285 52.9753 63.285 52.666Z" fill="#555555"/>
<path d="M68.5754 53.5986C68.5754 53.4684 68.5461 53.348 68.4875 53.2373C68.4322 53.1234 68.3166 53.0208 68.1408 52.9297C67.9683 52.8353 67.7079 52.7539 67.3596 52.6855C67.0666 52.6237 66.8013 52.5505 66.5637 52.4658C66.3293 52.3812 66.1291 52.2786 65.9631 52.1582C65.8003 52.0378 65.675 51.8962 65.5871 51.7334C65.4992 51.5706 65.4553 51.3802 65.4553 51.1621C65.4553 50.9538 65.5008 50.7568 65.592 50.5713C65.6864 50.3857 65.8182 50.2214 65.9875 50.0781C66.16 49.9349 66.3667 49.8226 66.6076 49.7412C66.8485 49.6598 67.1171 49.6191 67.4133 49.6191C67.8365 49.6191 68.1978 49.694 68.4973 49.8438C68.7967 49.9935 69.0262 50.1937 69.1857 50.4443C69.3453 50.6917 69.425 50.9668 69.425 51.2695H68.5217C68.5217 51.123 68.4777 50.9814 68.3898 50.8447C68.3052 50.7048 68.1799 50.5892 68.0139 50.498C67.8511 50.4069 67.6509 50.3613 67.4133 50.3613C67.1626 50.3613 66.9592 50.4004 66.8029 50.4785C66.6499 50.5534 66.5376 50.6494 66.466 50.7666C66.3977 50.8838 66.3635 51.0075 66.3635 51.1377C66.3635 51.2354 66.3798 51.3232 66.4123 51.4014C66.4481 51.4762 66.51 51.5462 66.5979 51.6113C66.6857 51.6732 66.8094 51.7318 66.9689 51.7871C67.1285 51.8424 67.3319 51.8978 67.5793 51.9531C68.0122 52.0508 68.3687 52.168 68.6486 52.3047C68.9286 52.4414 69.1369 52.609 69.2736 52.8076C69.4104 53.0062 69.4787 53.2471 69.4787 53.5303C69.4787 53.7614 69.4299 53.973 69.3322 54.165C69.2378 54.3571 69.0995 54.5231 68.9172 54.6631C68.7382 54.7998 68.5233 54.9072 68.2727 54.9854C68.0253 55.0602 67.7469 55.0977 67.4377 55.0977C66.9722 55.0977 66.5783 55.0146 66.2561 54.8486C65.9338 54.6826 65.6897 54.4678 65.5236 54.2041C65.3576 53.9404 65.2746 53.6621 65.2746 53.3691H66.1828C66.1958 53.6165 66.2675 53.8135 66.3977 53.96C66.5279 54.1032 66.6874 54.2057 66.8762 54.2676C67.065 54.3262 67.2522 54.3555 67.4377 54.3555C67.6851 54.3555 67.8918 54.3229 68.0578 54.2578C68.2271 54.1927 68.3557 54.1032 68.4436 53.9893C68.5314 53.8753 68.5754 53.7451 68.5754 53.5986Z" fill="#555555"/>
<path d="M29.3197 65.9746V59.5H30.2279V67H29.3979L29.3197 65.9746ZM25.765 64.417V64.3145C25.765 63.9108 25.8139 63.5446 25.9115 63.2158C26.0124 62.8838 26.154 62.599 26.3363 62.3613C26.5219 62.1237 26.7416 61.9414 26.9955 61.8145C27.2527 61.6842 27.5391 61.6191 27.8549 61.6191C28.1869 61.6191 28.4766 61.6777 28.724 61.7949C28.9747 61.9089 29.1863 62.0765 29.3588 62.2979C29.5346 62.516 29.6729 62.7796 29.7738 63.0889C29.8747 63.3981 29.9447 63.748 29.9838 64.1387V64.5879C29.948 64.9753 29.878 65.3236 29.7738 65.6328C29.6729 65.9421 29.5346 66.2057 29.3588 66.4238C29.1863 66.6419 28.9747 66.8096 28.724 66.9268C28.4734 67.0407 28.1804 67.0977 27.8451 67.0977C27.5359 67.0977 27.2527 67.0309 26.9955 66.8975C26.7416 66.764 26.5219 66.5768 26.3363 66.3359C26.154 66.0951 26.0124 65.8118 25.9115 65.4863C25.8139 65.1576 25.765 64.8011 25.765 64.417ZM26.6732 64.3145V64.417C26.6732 64.6807 26.6993 64.9281 26.7514 65.1592C26.8067 65.3903 26.8913 65.5938 27.0053 65.7695C27.1192 65.9453 27.2641 66.0837 27.4398 66.1846C27.6156 66.2822 27.8256 66.3311 28.0697 66.3311C28.3692 66.3311 28.615 66.2676 28.807 66.1406C29.0023 66.0137 29.1586 65.846 29.2758 65.6377C29.393 65.4294 29.4841 65.2031 29.5492 64.959V63.7822C29.5102 63.6032 29.4532 63.4307 29.3783 63.2646C29.3067 63.0954 29.2123 62.9456 29.0951 62.8154C28.9812 62.682 28.8396 62.5762 28.6703 62.498C28.5043 62.4199 28.3074 62.3809 28.0795 62.3809C27.8321 62.3809 27.6189 62.4329 27.4398 62.5371C27.2641 62.638 27.1192 62.778 27.0053 62.957C26.8913 63.1328 26.8067 63.3379 26.7514 63.5723C26.6993 63.8034 26.6732 64.0508 26.6732 64.3145Z" fill="#555555"/>
<path d="M34.9494 66.0967V63.377C34.9494 63.1686 34.9071 62.988 34.8225 62.835C34.7411 62.6787 34.6174 62.5583 34.4514 62.4736C34.2853 62.389 34.0803 62.3467 33.8361 62.3467C33.6083 62.3467 33.4081 62.3857 33.2355 62.4639C33.0663 62.542 32.9328 62.6445 32.8352 62.7715C32.7408 62.8984 32.6936 63.0352 32.6936 63.1816H31.7902C31.7902 62.9928 31.8391 62.8057 31.9367 62.6201C32.0344 62.4346 32.1743 62.2669 32.3566 62.1172C32.5422 61.9642 32.7635 61.8438 33.0207 61.7559C33.2811 61.6647 33.5708 61.6191 33.8898 61.6191C34.274 61.6191 34.6125 61.6842 34.9055 61.8145C35.2017 61.9447 35.4328 62.1416 35.5988 62.4053C35.7681 62.6657 35.8527 62.9928 35.8527 63.3867V65.8477C35.8527 66.0234 35.8674 66.2106 35.8967 66.4092C35.9292 66.6077 35.9764 66.7786 36.0383 66.9219V67H35.0959C35.0503 66.8958 35.0145 66.7575 34.9885 66.585C34.9624 66.4092 34.9494 66.2464 34.9494 66.0967ZM35.1057 63.7969L35.1154 64.4316H34.2023C33.9452 64.4316 33.7157 64.4528 33.5139 64.4951C33.312 64.5342 33.1428 64.5944 33.0061 64.6758C32.8693 64.7572 32.7652 64.8597 32.6936 64.9834C32.6219 65.1038 32.5861 65.2454 32.5861 65.4082C32.5861 65.5742 32.6236 65.7256 32.6984 65.8623C32.7733 65.999 32.8856 66.1081 33.0353 66.1895C33.1883 66.2676 33.3755 66.3066 33.5969 66.3066C33.8736 66.3066 34.1177 66.248 34.3293 66.1309C34.5409 66.0137 34.7085 65.8704 34.8322 65.7012C34.9592 65.5319 35.0275 65.3675 35.0373 65.208L35.423 65.6426C35.4003 65.7793 35.3384 65.9307 35.2375 66.0967C35.1366 66.2627 35.0015 66.4222 34.8322 66.5752C34.6662 66.7249 34.4676 66.8503 34.2365 66.9512C34.0087 67.0488 33.7515 67.0977 33.465 67.0977C33.107 67.0977 32.7928 67.0277 32.5227 66.8877C32.2557 66.7477 32.0474 66.5605 31.8977 66.3262C31.7512 66.0885 31.6779 65.8232 31.6779 65.5303C31.6779 65.2471 31.7333 64.998 31.8439 64.7832C31.9546 64.5651 32.1141 64.3844 32.3225 64.2412C32.5308 64.0947 32.7814 63.984 33.0744 63.9092C33.3674 63.8343 33.6945 63.7969 34.0559 63.7969H35.1057Z" fill="#555555"/>
<path d="M40.8037 65.9746V59.5H41.7119V67H40.8818L40.8037 65.9746ZM37.249 64.417V64.3145C37.249 63.9108 37.2979 63.5446 37.3955 63.2158C37.4964 62.8838 37.638 62.599 37.8203 62.3613C38.0059 62.1237 38.2256 61.9414 38.4795 61.8145C38.7367 61.6842 39.0231 61.6191 39.3389 61.6191C39.6709 61.6191 39.9606 61.6777 40.208 61.7949C40.4587 61.9089 40.6702 62.0765 40.8428 62.2979C41.0186 62.516 41.1569 62.7796 41.2578 63.0889C41.3587 63.3981 41.4287 63.748 41.4678 64.1387V64.5879C41.432 64.9753 41.362 65.3236 41.2578 65.6328C41.1569 65.9421 41.0186 66.2057 40.8428 66.4238C40.6702 66.6419 40.4587 66.8096 40.208 66.9268C39.9574 67.0407 39.6644 67.0977 39.3291 67.0977C39.0199 67.0977 38.7367 67.0309 38.4795 66.8975C38.2256 66.764 38.0059 66.5768 37.8203 66.3359C37.638 66.0951 37.4964 65.8118 37.3955 65.4863C37.2979 65.1576 37.249 64.8011 37.249 64.417ZM38.1572 64.3145V64.417C38.1572 64.6807 38.1833 64.9281 38.2354 65.1592C38.2907 65.3903 38.3753 65.5938 38.4893 65.7695C38.6032 65.9453 38.748 66.0837 38.9238 66.1846C39.0996 66.2822 39.3096 66.3311 39.5537 66.3311C39.8532 66.3311 40.099 66.2676 40.291 66.1406C40.4863 66.0137 40.6426 65.846 40.7598 65.6377C40.877 65.4294 40.9681 65.2031 41.0332 64.959V63.7822C40.9941 63.6032 40.9372 63.4307 40.8623 63.2646C40.7907 63.0954 40.6963 62.9456 40.5791 62.8154C40.4652 62.682 40.3236 62.5762 40.1543 62.498C39.9883 62.4199 39.7913 62.3809 39.5635 62.3809C39.3161 62.3809 39.1029 62.4329 38.9238 62.5371C38.748 62.638 38.6032 62.778 38.4893 62.957C38.3753 63.1328 38.2907 63.3379 38.2354 63.5723C38.1833 63.8034 38.1572 64.0508 38.1572 64.3145Z" fill="#555555"/>
<path d="M43.0789 64.417V64.3047C43.0789 63.9238 43.1342 63.5706 43.2449 63.2451C43.3556 62.9163 43.5151 62.6315 43.7234 62.3906C43.9318 62.1465 44.184 61.9577 44.4803 61.8242C44.7765 61.6875 45.1085 61.6191 45.4764 61.6191C45.8475 61.6191 46.1811 61.6875 46.4773 61.8242C46.7768 61.9577 47.0307 62.1465 47.2391 62.3906C47.4506 62.6315 47.6118 62.9163 47.7225 63.2451C47.8331 63.5706 47.8885 63.9238 47.8885 64.3047V64.417C47.8885 64.7979 47.8331 65.151 47.7225 65.4766C47.6118 65.8021 47.4506 66.0869 47.2391 66.3311C47.0307 66.5719 46.7784 66.7607 46.4822 66.8975C46.1893 67.0309 45.8572 67.0977 45.4861 67.0977C45.115 67.0977 44.7814 67.0309 44.4852 66.8975C44.1889 66.7607 43.935 66.5719 43.7234 66.3311C43.5151 66.0869 43.3556 65.8021 43.2449 65.4766C43.1342 65.151 43.0789 64.7979 43.0789 64.417ZM43.9822 64.3047V64.417C43.9822 64.6807 44.0131 64.9297 44.075 65.1641C44.1368 65.3952 44.2296 65.6003 44.3533 65.7793C44.4803 65.9583 44.6381 66.0999 44.827 66.2041C45.0158 66.305 45.2355 66.3555 45.4861 66.3555C45.7335 66.3555 45.95 66.305 46.1355 66.2041C46.3243 66.0999 46.4806 65.9583 46.6043 65.7793C46.728 65.6003 46.8208 65.3952 46.8826 65.1641C46.9477 64.9297 46.9803 64.6807 46.9803 64.417V64.3047C46.9803 64.0443 46.9477 63.7985 46.8826 63.5674C46.8208 63.333 46.7264 63.1263 46.5994 62.9473C46.4757 62.765 46.3195 62.6217 46.1307 62.5176C45.9451 62.4134 45.727 62.3613 45.4764 62.3613C45.229 62.3613 45.0109 62.4134 44.8221 62.5176C44.6365 62.6217 44.4803 62.765 44.3533 62.9473C44.2296 63.1263 44.1368 63.333 44.075 63.5674C44.0131 63.7985 43.9822 64.0443 43.9822 64.3047Z" fill="#555555"/>
<path d="M52.2975 65.5986C52.2975 65.4684 52.2682 65.348 52.2096 65.2373C52.1542 65.1234 52.0387 65.0208 51.8629 64.9297C51.6904 64.8353 51.4299 64.7539 51.0816 64.6855C50.7887 64.6237 50.5234 64.5505 50.2857 64.4658C50.0514 64.3812 49.8512 64.2786 49.6852 64.1582C49.5224 64.0378 49.3971 63.8962 49.3092 63.7334C49.2213 63.5706 49.1773 63.3802 49.1773 63.1621C49.1773 62.9538 49.2229 62.7568 49.3141 62.5713C49.4085 62.3857 49.5403 62.2214 49.7096 62.0781C49.8821 61.9349 50.0888 61.8226 50.3297 61.7412C50.5706 61.6598 50.8391 61.6191 51.1353 61.6191C51.5585 61.6191 51.9199 61.694 52.2193 61.8438C52.5188 61.9935 52.7483 62.1937 52.9078 62.4443C53.0673 62.6917 53.1471 62.9668 53.1471 63.2695H52.2437C52.2437 63.123 52.1998 62.9814 52.1119 62.8447C52.0273 62.7048 51.9019 62.5892 51.7359 62.498C51.5732 62.4069 51.373 62.3613 51.1353 62.3613C50.8847 62.3613 50.6812 62.4004 50.525 62.4785C50.372 62.5534 50.2597 62.6494 50.1881 62.7666C50.1197 62.8838 50.0855 63.0075 50.0855 63.1377C50.0855 63.2354 50.1018 63.3232 50.1344 63.4014C50.1702 63.4762 50.232 63.5462 50.3199 63.6113C50.4078 63.6732 50.5315 63.7318 50.691 63.7871C50.8505 63.8424 51.054 63.8978 51.3014 63.9531C51.7343 64.0508 52.0907 64.168 52.3707 64.3047C52.6506 64.4414 52.859 64.609 52.9957 64.8076C53.1324 65.0062 53.2008 65.2471 53.2008 65.5303C53.2008 65.7614 53.1519 65.973 53.0543 66.165C52.9599 66.3571 52.8215 66.5231 52.6393 66.6631C52.4602 66.7998 52.2454 66.9072 51.9947 66.9854C51.7473 67.0602 51.469 67.0977 51.1598 67.0977C50.6943 67.0977 50.3004 67.0146 49.9781 66.8486C49.6559 66.6826 49.4117 66.4678 49.2457 66.2041C49.0797 65.9404 48.9967 65.6621 48.9967 65.3691H49.9049C49.9179 65.6165 49.9895 65.8135 50.1197 65.96C50.2499 66.1032 50.4094 66.2057 50.5982 66.2676C50.787 66.3262 50.9742 66.3555 51.1598 66.3555C51.4072 66.3555 51.6139 66.3229 51.7799 66.2578C51.9491 66.1927 52.0777 66.1032 52.1656 65.9893C52.2535 65.8753 52.2975 65.7451 52.2975 65.5986Z" fill="#555555"/>
<path d="M8.62774 37.7588L8.76445 38.6963L8.96465 37.8516L10.3709 32.8906H11.1619L12.534 37.8516L12.7293 38.7109L12.8807 37.7539L13.9842 32.8906H14.9266L13.2029 40H12.3484L10.8836 34.8193L10.7713 34.2773L10.659 34.8193L9.14043 40H8.28594L6.56719 32.8906H7.50469L8.62774 37.7588Z" fill="#555555"/>
<path d="M18.166 40.0977C17.4499 40.0977 16.8672 39.8633 16.418 39.3945C15.9688 38.9225 15.7441 38.2926 15.7441 37.5049V37.3389C15.7441 36.8148 15.8434 36.3477 16.042 35.9375C16.2438 35.5241 16.5238 35.2018 16.8818 34.9707C17.2432 34.7363 17.6338 34.6191 18.0537 34.6191C18.7406 34.6191 19.2744 34.8454 19.6553 35.2979C20.0361 35.7503 20.2266 36.3981 20.2266 37.2412V37.6172H16.6475C16.6605 38.138 16.8118 38.5596 17.1016 38.8818C17.3945 39.2008 17.7656 39.3604 18.2148 39.3604C18.5339 39.3604 18.804 39.2952 19.0254 39.165C19.2467 39.0348 19.4404 38.8623 19.6064 38.6475L20.1582 39.0771C19.7155 39.7575 19.0514 40.0977 18.166 40.0977ZM18.0537 35.3613C17.6891 35.3613 17.3831 35.4948 17.1357 35.7617C16.8883 36.0254 16.7354 36.3965 16.6768 36.875H19.3232V36.8066C19.2972 36.3477 19.1735 35.9928 18.9521 35.7422C18.7308 35.4883 18.4313 35.3613 18.0537 35.3613Z" fill="#555555"/>
<path d="M26.049 37.417C26.049 38.2243 25.8635 38.8737 25.4924 39.3652C25.1213 39.8535 24.6232 40.0977 23.9982 40.0977C23.3309 40.0977 22.815 39.8617 22.4504 39.3896L22.4064 40H21.5764V32.5H22.4797V35.2979C22.8443 34.8454 23.3472 34.6191 23.9885 34.6191C24.6298 34.6191 25.1327 34.8617 25.4973 35.3467C25.8651 35.8317 26.049 36.4958 26.049 37.3389V37.417ZM25.1457 37.3145C25.1457 36.6992 25.0269 36.224 24.7893 35.8887C24.5516 35.5534 24.2098 35.3857 23.7639 35.3857C23.1682 35.3857 22.7401 35.6624 22.4797 36.2158V38.501C22.7564 39.0544 23.1877 39.3311 23.7736 39.3311C24.2066 39.3311 24.5435 39.1634 24.7844 38.8281C25.0253 38.4928 25.1457 37.9883 25.1457 37.3145Z" fill="#555555"/>
<path d="M34.3395 38.1445H31.3609L30.692 40H29.7252L32.44 32.8906H33.2604L35.9801 40H35.0182L34.3395 38.1445ZM31.6441 37.373H34.0611L32.8502 34.0479L31.6441 37.373Z" fill="#555555"/>
<path d="M37.95 34.7168L37.9793 35.3809C38.3829 34.873 38.9103 34.6191 39.5613 34.6191C40.6779 34.6191 41.241 35.249 41.2508 36.5088V40H40.3475V36.5039C40.3442 36.123 40.2563 35.8415 40.0838 35.6592C39.9145 35.4769 39.6492 35.3857 39.2879 35.3857C38.9949 35.3857 38.7378 35.4639 38.5164 35.6201C38.295 35.7764 38.1225 35.9814 37.9988 36.2354V40H37.0955V34.7168H37.95Z" fill="#555555"/>
<path d="M46.1748 40C46.1227 39.8958 46.0804 39.7103 46.0479 39.4434C45.6279 39.8796 45.1266 40.0977 44.5439 40.0977C44.0231 40.0977 43.5951 39.9512 43.2598 39.6582C42.9277 39.362 42.7617 38.9876 42.7617 38.5352C42.7617 37.985 42.9701 37.5586 43.3867 37.2559C43.8066 36.9499 44.3958 36.7969 45.1543 36.7969H46.0332V36.3818C46.0332 36.0661 45.9388 35.8154 45.75 35.6299C45.5612 35.4411 45.2829 35.3467 44.915 35.3467C44.5928 35.3467 44.3226 35.4281 44.1045 35.5908C43.8864 35.7536 43.7773 35.9505 43.7773 36.1816H42.8691C42.8691 35.918 42.9619 35.6641 43.1475 35.4199C43.3363 35.1725 43.5902 34.9772 43.9092 34.834C44.2314 34.6908 44.5846 34.6191 44.9688 34.6191C45.5775 34.6191 46.0544 34.7721 46.3994 35.0781C46.7445 35.3809 46.9235 35.7992 46.9365 36.333V38.7646C46.9365 39.2497 46.9984 39.6354 47.1221 39.9219V40H46.1748ZM44.6758 39.3115C44.959 39.3115 45.2275 39.2383 45.4814 39.0918C45.7354 38.9453 45.9193 38.7549 46.0332 38.5205V37.4365H45.3252C44.2184 37.4365 43.665 37.7604 43.665 38.4082C43.665 38.6914 43.7594 38.9128 43.9482 39.0723C44.137 39.2318 44.3796 39.3115 44.6758 39.3115Z" fill="#555555"/>
<path d="M49.634 40H48.7307V32.5H49.634V40Z" fill="#555555"/>
<path d="M53.1127 38.6768L54.3432 34.7168H55.31L53.1859 40.8154C52.8572 41.6943 52.3347 42.1338 51.6186 42.1338L51.4477 42.1191L51.1107 42.0557V41.3232L51.3549 41.3428C51.6609 41.3428 51.8985 41.2809 52.0678 41.1572C52.2403 41.0335 52.3819 40.8073 52.4926 40.4785L52.6928 39.9414L50.808 34.7168H51.7943L53.1127 38.6768Z" fill="#555555"/>
<path d="M57.6461 33.4375V34.7168H58.6324V35.415H57.6461V38.6914C57.6461 38.903 57.69 39.0625 57.7779 39.1699C57.8658 39.2741 58.0156 39.3262 58.2271 39.3262C58.3313 39.3262 58.4745 39.3066 58.6568 39.2676V40C58.4192 40.0651 58.1881 40.0977 57.9635 40.0977C57.5598 40.0977 57.2555 39.9756 57.0504 39.7314C56.8453 39.4873 56.7428 39.1406 56.7428 38.6914V35.415H55.7809V34.7168H56.7428V33.4375H57.6461Z" fill="#555555"/>
<path d="M60.9734 40H60.0701V34.7168H60.9734V40ZM59.9969 33.3154C59.9969 33.1689 60.0408 33.0452 60.1287 32.9443C60.2199 32.8434 60.3533 32.793 60.5291 32.793C60.7049 32.793 60.8383 32.8434 60.9295 32.9443C61.0206 33.0452 61.0662 33.1689 61.0662 33.3154C61.0662 33.4619 61.0206 33.584 60.9295 33.6816C60.8383 33.7793 60.7049 33.8281 60.5291 33.8281C60.3533 33.8281 60.2199 33.7793 60.1287 33.6816C60.0408 33.584 59.9969 33.4619 59.9969 33.3154Z" fill="#555555"/>
<path d="M64.8428 39.3604C65.165 39.3604 65.4466 39.2627 65.6875 39.0674C65.9284 38.8721 66.0618 38.6279 66.0879 38.335H66.9424C66.9261 38.6377 66.8219 38.9258 66.6299 39.1992C66.4378 39.4727 66.1807 39.6908 65.8584 39.8535C65.5394 40.0163 65.2008 40.0977 64.8428 40.0977C64.1234 40.0977 63.5505 39.8584 63.124 39.3799C62.7008 38.8981 62.4893 38.2406 62.4893 37.4072V37.2559C62.4893 36.7415 62.5837 36.2842 62.7725 35.8838C62.9613 35.4834 63.2314 35.1725 63.583 34.9512C63.9378 34.7298 64.3561 34.6191 64.8379 34.6191C65.4303 34.6191 65.9219 34.7965 66.3125 35.1514C66.7064 35.5062 66.9163 35.9668 66.9424 36.5332H66.0879C66.0618 36.1914 65.9316 35.9115 65.6973 35.6934C65.4661 35.472 65.1797 35.3613 64.8379 35.3613C64.3789 35.3613 64.0225 35.5273 63.7686 35.8594C63.5179 36.1882 63.3926 36.665 63.3926 37.29V37.4609C63.3926 38.0697 63.5179 38.5384 63.7686 38.8672C64.0192 39.196 64.3773 39.3604 64.8428 39.3604Z" fill="#555555"/>
<path d="M71.3342 38.5986C71.3342 38.3545 71.2414 38.1657 71.0559 38.0322C70.8736 37.8955 70.5529 37.7783 70.0939 37.6807C69.6382 37.583 69.2753 37.4658 69.0051 37.3291C68.7382 37.1924 68.5396 37.0296 68.4094 36.8408C68.2824 36.652 68.2189 36.4274 68.2189 36.167C68.2189 35.734 68.4012 35.3678 68.7658 35.0684C69.1337 34.7689 69.6024 34.6191 70.1721 34.6191C70.771 34.6191 71.2561 34.7738 71.6272 35.083C72.0015 35.3923 72.1887 35.7878 72.1887 36.2695H71.2805C71.2805 36.0221 71.1747 35.8089 70.9631 35.6299C70.7548 35.4508 70.4911 35.3613 70.1721 35.3613C69.8433 35.3613 69.5861 35.4329 69.4006 35.5762C69.215 35.7194 69.1223 35.9066 69.1223 36.1377C69.1223 36.3558 69.2085 36.5202 69.3811 36.6309C69.5536 36.7415 69.8645 36.8473 70.3137 36.9482C70.7661 37.0492 71.1324 37.1696 71.4123 37.3096C71.6923 37.4495 71.899 37.6188 72.0324 37.8174C72.1691 38.0127 72.2375 38.252 72.2375 38.5352C72.2375 39.0072 72.0487 39.3864 71.6711 39.6729C71.2935 39.9561 70.8036 40.0977 70.2014 40.0977C69.7782 40.0977 69.4038 40.0228 69.0783 39.873C68.7528 39.7233 68.4973 39.515 68.3117 39.248C68.1294 38.9779 68.0383 38.6865 68.0383 38.374H68.9416C68.9579 38.6768 69.0783 38.9176 69.3029 39.0967C69.5308 39.2725 69.8303 39.3604 70.2014 39.3604C70.5432 39.3604 70.8166 39.292 71.0217 39.1553C71.23 39.0153 71.3342 38.8298 71.3342 38.5986Z" fill="#555555"/>
<path d="M30.8934 19.3594H24.2625V26H23.0613V11.7812H31.8699V12.8066H24.2625V18.334H30.8934V19.3594Z" fill="#555555"/>
<path d="M41.5758 26C41.4586 25.668 41.3837 25.1764 41.3512 24.5254C40.941 25.0592 40.4169 25.4727 39.7789 25.7656C39.1474 26.0521 38.4768 26.1953 37.7672 26.1953C36.7516 26.1953 35.928 25.9121 35.2965 25.3457C34.6715 24.7793 34.359 24.0632 34.359 23.1973C34.359 22.1686 34.7854 21.3548 35.6383 20.7559C36.4977 20.1569 37.6923 19.8574 39.2223 19.8574H41.3414V18.6562C41.3414 17.901 41.107 17.3086 40.6383 16.8789C40.176 16.4427 39.499 16.2246 38.607 16.2246C37.7932 16.2246 37.1194 16.4329 36.5855 16.8496C36.0517 17.2663 35.7848 17.7676 35.7848 18.3535L34.6129 18.3438C34.6129 17.5039 35.0035 16.778 35.7848 16.166C36.566 15.5475 37.5263 15.2383 38.6656 15.2383C39.844 15.2383 40.7717 15.5345 41.4488 16.127C42.1324 16.7129 42.484 17.5332 42.5035 18.5879V23.5879C42.5035 24.61 42.6109 25.375 42.8258 25.8828V26H41.5758ZM37.9039 25.1602C38.6852 25.1602 39.3818 24.9714 39.9937 24.5938C40.6122 24.2161 41.0615 23.7116 41.3414 23.0801V20.7559H39.2516C38.0862 20.7689 37.1747 20.9837 36.5172 21.4004C35.8596 21.8105 35.5309 22.377 35.5309 23.0996C35.5309 23.6921 35.749 24.1836 36.1852 24.5742C36.6279 24.9648 37.2008 25.1602 37.9039 25.1602Z" fill="#555555"/>
<path d="M48.1371 26H46.9652V15.4336H48.1371V26ZM46.7602 12.377C46.7602 12.1556 46.8318 11.9701 46.975 11.8203C47.1182 11.6641 47.3135 11.5859 47.5609 11.5859C47.8083 11.5859 48.0036 11.6641 48.1469 11.8203C48.2966 11.9701 48.3715 12.1556 48.3715 12.377C48.3715 12.5983 48.2966 12.7839 48.1469 12.9336C48.0036 13.0833 47.8083 13.1582 47.5609 13.1582C47.3135 13.1582 47.1182 13.0833 46.975 12.9336C46.8318 12.7839 46.7602 12.5983 46.7602 12.377Z" fill="#555555"/>
<path d="M57.4035 16.4297C57.1561 16.3841 56.8924 16.3613 56.6125 16.3613C55.8833 16.3613 55.2648 16.5664 54.757 16.9766C54.2557 17.3802 53.8977 17.9694 53.6828 18.7441V26H52.5207V15.4336H53.6633L53.6828 17.1133C54.3013 15.8633 55.2941 15.2383 56.6613 15.2383C56.9868 15.2383 57.244 15.2806 57.4328 15.3652L57.4035 16.4297Z" fill="#555555"/>
</svg>
