<svg width="236" height="18" viewBox="0 0 236 18" fill="none" xmlns="http://www.w3.org/2000/svg">
<rect x="0.5" y="0.5" width="235" height="17" rx="1.5" fill="#EEEEEE" stroke="#555555"/>
<rect x="102" width="134" height="18" rx="2" fill="#555555"/>
<path d="M115.226 10.959H111.95L111.214 13H110.15L113.137 5.17969H114.039L117.031 13H115.973L115.226 10.959ZM112.261 10.1104H114.92L113.588 6.45264L112.261 10.1104Z" fill="#EEEEEE"/>
<path d="M120.259 12.2964C120.613 12.2964 120.923 12.189 121.188 11.9741C121.453 11.7593 121.6 11.4907 121.628 11.1685H122.568C122.55 11.5015 122.436 11.8184 122.225 12.1191C122.013 12.4199 121.73 12.6598 121.376 12.8389C121.025 13.0179 120.653 13.1074 120.259 13.1074C119.467 13.1074 118.837 12.8442 118.368 12.3179C117.903 11.7879 117.67 11.0646 117.67 10.1479V9.98145C117.67 9.41569 117.774 8.9126 117.981 8.47217C118.189 8.03174 118.486 7.68978 118.873 7.44629C119.263 7.2028 119.723 7.08105 120.253 7.08105C120.905 7.08105 121.446 7.2762 121.875 7.6665C122.309 8.0568 122.54 8.56348 122.568 9.18652H121.628C121.6 8.81055 121.457 8.5026 121.199 8.2627C120.944 8.01921 120.629 7.89746 120.253 7.89746C119.749 7.89746 119.356 8.08008 119.077 8.44531C118.801 8.80697 118.664 9.33154 118.664 10.019V10.207C118.664 10.8766 118.801 11.3923 119.077 11.7539C119.353 12.1156 119.747 12.2964 120.259 12.2964Z" fill="#EEEEEE"/>
<path d="M126.017 12.2964C126.371 12.2964 126.681 12.189 126.946 11.9741C127.211 11.7593 127.358 11.4907 127.386 11.1685H128.326C128.308 11.5015 128.194 11.8184 127.982 12.1191C127.771 12.4199 127.488 12.6598 127.134 12.8389C126.783 13.0179 126.41 13.1074 126.017 13.1074C125.225 13.1074 124.595 12.8442 124.126 12.3179C123.66 11.7879 123.428 11.0646 123.428 10.1479V9.98145C123.428 9.41569 123.532 8.9126 123.739 8.47217C123.947 8.03174 124.244 7.68978 124.631 7.44629C125.021 7.2028 125.481 7.08105 126.011 7.08105C126.663 7.08105 127.204 7.2762 127.633 7.6665C128.067 8.0568 128.298 8.56348 128.326 9.18652H127.386C127.358 8.81055 127.214 8.5026 126.957 8.2627C126.702 8.01921 126.387 7.89746 126.011 7.89746C125.506 7.89746 125.114 8.08008 124.835 8.44531C124.559 8.80697 124.421 9.33154 124.421 10.019V10.207C124.421 10.8766 124.559 11.3923 124.835 11.7539C125.111 12.1156 125.505 12.2964 126.017 12.2964Z" fill="#EEEEEE"/>
<path d="M131.855 13.1074C131.067 13.1074 130.426 12.8496 129.932 12.334C129.438 11.8148 129.191 11.1219 129.191 10.2554V10.0728C129.191 9.49626 129.3 8.98242 129.519 8.53125C129.741 8.0765 130.049 7.72201 130.442 7.46777C130.84 7.20996 131.27 7.08105 131.731 7.08105C132.487 7.08105 133.074 7.32992 133.493 7.82764C133.912 8.32536 134.122 9.03792 134.122 9.96533V10.3789H130.185C130.199 10.9518 130.365 11.4155 130.684 11.77C131.006 12.1209 131.415 12.2964 131.909 12.2964C132.26 12.2964 132.557 12.2248 132.8 12.0815C133.044 11.9383 133.257 11.7485 133.439 11.5122L134.046 11.9849C133.559 12.7332 132.829 13.1074 131.855 13.1074ZM131.731 7.89746C131.33 7.89746 130.994 8.04427 130.722 8.33789C130.45 8.62793 130.281 9.03613 130.217 9.5625H133.128V9.4873C133.099 8.98242 132.963 8.59212 132.72 8.31641C132.476 8.03711 132.147 7.89746 131.731 7.89746Z" fill="#EEEEEE"/>
<path d="M138.66 11.4585C138.66 11.1899 138.558 10.9823 138.354 10.8354C138.153 10.6851 137.801 10.5562 137.296 10.4487C136.795 10.3413 136.395 10.2124 136.098 10.062C135.805 9.91162 135.586 9.73258 135.443 9.5249C135.303 9.31722 135.233 9.07015 135.233 8.78369C135.233 8.30745 135.434 7.90462 135.835 7.5752C136.24 7.24577 136.755 7.08105 137.382 7.08105C138.041 7.08105 138.574 7.25114 138.982 7.59131C139.394 7.93148 139.6 8.36654 139.6 8.89648H138.601C138.601 8.62435 138.485 8.38981 138.252 8.19287C138.023 7.99593 137.733 7.89746 137.382 7.89746C137.02 7.89746 136.737 7.97624 136.533 8.13379C136.329 8.29134 136.227 8.49723 136.227 8.75146C136.227 8.99137 136.322 9.1722 136.512 9.29395C136.701 9.41569 137.043 9.53206 137.538 9.64307C138.035 9.75407 138.438 9.88656 138.746 10.0405C139.054 10.1945 139.281 10.3807 139.428 10.5991C139.579 10.814 139.654 11.0771 139.654 11.3887C139.654 11.9079 139.446 12.325 139.031 12.6401C138.615 12.9517 138.076 13.1074 137.414 13.1074C136.949 13.1074 136.537 13.0251 136.179 12.8604C135.821 12.6956 135.54 12.4665 135.335 12.1729C135.135 11.8757 135.035 11.5552 135.035 11.2114H136.028C136.046 11.5444 136.179 11.8094 136.426 12.0063C136.676 12.1997 137.006 12.2964 137.414 12.2964C137.79 12.2964 138.091 12.2212 138.316 12.0708C138.546 11.9168 138.66 11.7127 138.66 11.4585Z" fill="#EEEEEE"/>
<path d="M144.332 11.4585C144.332 11.1899 144.23 10.9823 144.026 10.8354C143.825 10.6851 143.473 10.5562 142.968 10.4487C142.466 10.3413 142.067 10.2124 141.77 10.062C141.476 9.91162 141.258 9.73258 141.115 9.5249C140.975 9.31722 140.905 9.07015 140.905 8.78369C140.905 8.30745 141.106 7.90462 141.507 7.5752C141.911 7.24577 142.427 7.08105 143.054 7.08105C143.713 7.08105 144.246 7.25114 144.654 7.59131C145.066 7.93148 145.272 8.36654 145.272 8.89648H144.273C144.273 8.62435 144.157 8.38981 143.924 8.19287C143.695 7.99593 143.405 7.89746 143.054 7.89746C142.692 7.89746 142.409 7.97624 142.205 8.13379C142.001 8.29134 141.899 8.49723 141.899 8.75146C141.899 8.99137 141.994 9.1722 142.184 9.29395C142.373 9.41569 142.715 9.53206 143.209 9.64307C143.707 9.75407 144.11 9.88656 144.418 10.0405C144.726 10.1945 144.953 10.3807 145.1 10.5991C145.25 10.814 145.326 11.0771 145.326 11.3887C145.326 11.9079 145.118 12.325 144.703 12.6401C144.287 12.9517 143.748 13.1074 143.086 13.1074C142.62 13.1074 142.209 13.0251 141.851 12.8604C141.493 12.6956 141.211 12.4665 141.007 12.1729C140.807 11.8757 140.707 11.5552 140.707 11.2114H141.7C141.718 11.5444 141.851 11.8094 142.098 12.0063C142.348 12.1997 142.678 12.2964 143.086 12.2964C143.462 12.2964 143.763 12.2212 143.988 12.0708C144.217 11.9168 144.332 11.7127 144.332 11.4585Z" fill="#EEEEEE"/>
<path d="M151.25 11.5444L152.604 7.18848H153.667L151.331 13.897C150.969 14.8638 150.394 15.3472 149.606 15.3472L149.418 15.3311L149.048 15.2612V14.4556L149.316 14.4771C149.653 14.4771 149.914 14.409 150.101 14.2729C150.29 14.1369 150.446 13.888 150.568 13.5264L150.788 12.9355L148.715 7.18848H149.8L151.25 11.5444Z" fill="#EEEEEE"/>
<path d="M154.209 10.0405C154.209 9.47119 154.32 8.95915 154.542 8.50439C154.768 8.04964 155.08 7.69873 155.477 7.45166C155.878 7.20459 156.335 7.08105 156.847 7.08105C157.638 7.08105 158.277 7.35498 158.764 7.90283C159.255 8.45068 159.5 9.17936 159.5 10.0889V10.1587C159.5 10.7244 159.391 11.2329 159.172 11.6841C158.958 12.1317 158.648 12.4808 158.243 12.7314C157.842 12.9821 157.38 13.1074 156.857 13.1074C156.07 13.1074 155.431 12.8335 154.94 12.2856C154.453 11.7378 154.209 11.0127 154.209 10.1104V10.0405ZM155.208 10.1587C155.208 10.8032 155.357 11.3206 155.654 11.7109C155.955 12.1012 156.356 12.2964 156.857 12.2964C157.362 12.2964 157.763 12.0994 158.061 11.7056C158.358 11.3081 158.506 10.7531 158.506 10.0405C158.506 9.40316 158.354 8.88753 158.05 8.49365C157.749 8.09619 157.348 7.89746 156.847 7.89746C156.356 7.89746 155.96 8.09261 155.66 8.48291C155.359 8.87321 155.208 9.4318 155.208 10.1587Z" fill="#EEEEEE"/>
<path d="M164.334 12.4253C163.947 12.88 163.38 13.1074 162.631 13.1074C162.012 13.1074 161.539 12.9284 161.213 12.5703C160.891 12.2087 160.728 11.6751 160.725 10.9697V7.18848H161.718V10.9429C161.718 11.8237 162.076 12.2642 162.792 12.2642C163.552 12.2642 164.056 11.9813 164.307 11.4155V7.18848H165.301V13H164.355L164.334 12.4253Z" fill="#EEEEEE"/>
<path d="M169.625 8.08008C169.474 8.05501 169.311 8.04248 169.136 8.04248C168.484 8.04248 168.042 8.31999 167.809 8.875V13H166.815V7.18848H167.782L167.798 7.85986C168.124 7.34066 168.586 7.08105 169.184 7.08105C169.377 7.08105 169.524 7.10612 169.625 7.15625V8.08008Z" fill="#EEEEEE"/>
<path d="M176.859 12.4253C176.473 12.88 175.905 13.1074 175.157 13.1074C174.537 13.1074 174.065 12.9284 173.739 12.5703C173.417 12.2087 173.254 11.6751 173.25 10.9697V7.18848H174.244V10.9429C174.244 11.8237 174.602 12.2642 175.318 12.2642C176.077 12.2642 176.582 11.9813 176.833 11.4155V7.18848H177.826V13H176.881L176.859 12.4253Z" fill="#EEEEEE"/>
<path d="M182.725 11.4585C182.725 11.1899 182.623 10.9823 182.418 10.8354C182.218 10.6851 181.865 10.5562 181.36 10.4487C180.859 10.3413 180.46 10.2124 180.163 10.062C179.869 9.91162 179.651 9.73258 179.507 9.5249C179.368 9.31722 179.298 9.07015 179.298 8.78369C179.298 8.30745 179.498 7.90462 179.899 7.5752C180.304 7.24577 180.82 7.08105 181.446 7.08105C182.105 7.08105 182.639 7.25114 183.047 7.59131C183.459 7.93148 183.665 8.36654 183.665 8.89648H182.666C182.666 8.62435 182.549 8.38981 182.316 8.19287C182.087 7.99593 181.797 7.89746 181.446 7.89746C181.085 7.89746 180.802 7.97624 180.598 8.13379C180.394 8.29134 180.292 8.49723 180.292 8.75146C180.292 8.99137 180.386 9.1722 180.576 9.29395C180.766 9.41569 181.108 9.53206 181.602 9.64307C182.1 9.75407 182.503 9.88656 182.811 10.0405C183.118 10.1945 183.346 10.3807 183.493 10.5991C183.643 10.814 183.718 11.0771 183.718 11.3887C183.718 11.9079 183.511 12.325 183.095 12.6401C182.68 12.9517 182.141 13.1074 181.479 13.1074C181.013 13.1074 180.601 13.0251 180.243 12.8604C179.885 12.6956 179.604 12.4665 179.4 12.1729C179.199 11.8757 179.099 11.5552 179.099 11.2114H180.093C180.111 11.5444 180.243 11.8094 180.49 12.0063C180.741 12.1997 181.07 12.2964 181.479 12.2964C181.854 12.2964 182.155 12.2212 182.381 12.0708C182.61 11.9168 182.725 11.7127 182.725 11.4585Z" fill="#EEEEEE"/>
<path d="M188.601 13C188.543 12.8854 188.497 12.6813 188.461 12.3877C187.999 12.8675 187.448 13.1074 186.807 13.1074C186.234 13.1074 185.763 12.9463 185.394 12.624C185.029 12.2982 184.846 11.8864 184.846 11.3887C184.846 10.7835 185.075 10.3145 185.534 9.98145C185.996 9.64486 186.644 9.47656 187.478 9.47656H188.445V9.02002C188.445 8.67269 188.341 8.39697 188.133 8.19287C187.926 7.98519 187.619 7.88135 187.215 7.88135C186.86 7.88135 186.563 7.97087 186.323 8.1499C186.083 8.32894 185.963 8.54557 185.963 8.7998H184.964C184.964 8.50977 185.066 8.23047 185.271 7.96191C185.478 7.68978 185.757 7.47493 186.108 7.31738C186.463 7.15983 186.851 7.08105 187.274 7.08105C187.944 7.08105 188.468 7.24935 188.848 7.58594C189.227 7.91895 189.424 8.37907 189.438 8.96631V11.6411C189.438 12.1746 189.507 12.599 189.643 12.9141V13H188.601ZM186.952 12.2427C187.263 12.2427 187.559 12.1621 187.838 12.001C188.117 11.8398 188.319 11.6304 188.445 11.3726V10.1802H187.666C186.449 10.1802 185.84 10.5365 185.84 11.249C185.84 11.5605 185.944 11.804 186.151 11.9795C186.359 12.1549 186.626 12.2427 186.952 12.2427Z" fill="#EEEEEE"/>
<path d="M190.76 10.0459C190.76 9.13997 190.969 8.42025 191.388 7.88672C191.807 7.34961 192.362 7.08105 193.053 7.08105C193.762 7.08105 194.315 7.33171 194.713 7.83301L194.761 7.18848H195.669V12.8604C195.669 13.6123 195.445 14.2049 194.998 14.6382C194.554 15.0715 193.956 15.2881 193.204 15.2881C192.785 15.2881 192.375 15.1986 191.974 15.0195C191.573 14.8405 191.266 14.5952 191.055 14.2837L191.571 13.6875C191.997 14.2139 192.518 14.4771 193.134 14.4771C193.617 14.4771 193.993 14.341 194.262 14.0688C194.534 13.7967 194.67 13.4136 194.67 12.9194V12.4199C194.272 12.8783 193.73 13.1074 193.042 13.1074C192.362 13.1074 191.811 12.8335 191.388 12.2856C190.969 11.7378 190.76 10.9912 190.76 10.0459ZM191.759 10.1587C191.759 10.814 191.893 11.3296 192.162 11.7056C192.43 12.078 192.806 12.2642 193.29 12.2642C193.916 12.2642 194.376 11.9795 194.67 11.4102V8.75684C194.366 8.20182 193.909 7.92432 193.3 7.92432C192.817 7.92432 192.439 8.1123 192.167 8.48828C191.895 8.86426 191.759 9.42106 191.759 10.1587Z" fill="#EEEEEE"/>
<path d="M199.584 13.1074C198.797 13.1074 198.156 12.8496 197.662 12.334C197.167 11.8148 196.92 11.1219 196.92 10.2554V10.0728C196.92 9.49626 197.03 8.98242 197.248 8.53125C197.47 8.0765 197.778 7.72201 198.172 7.46777C198.569 7.20996 198.999 7.08105 199.461 7.08105C200.216 7.08105 200.804 7.32992 201.223 7.82764C201.642 8.32536 201.851 9.03792 201.851 9.96533V10.3789H197.914C197.928 10.9518 198.095 11.4155 198.414 11.77C198.736 12.1209 199.144 12.2964 199.638 12.2964C199.989 12.2964 200.286 12.2248 200.53 12.0815C200.773 11.9383 200.986 11.7485 201.169 11.5122L201.776 11.9849C201.289 12.7332 200.558 13.1074 199.584 13.1074ZM199.461 7.89746C199.06 7.89746 198.723 8.04427 198.451 8.33789C198.179 8.62793 198.011 9.03613 197.946 9.5625H200.857V9.4873C200.829 8.98242 200.693 8.59212 200.449 8.31641C200.206 8.03711 199.876 7.89746 199.461 7.89746Z" fill="#EEEEEE"/>
<path d="M205.493 10.0459C205.493 9.1543 205.704 8.43815 206.126 7.89746C206.549 7.35319 207.102 7.08105 207.786 7.08105C208.466 7.08105 209.005 7.3138 209.403 7.7793V4.75H210.396V13H209.483L209.435 12.377C209.038 12.8639 208.484 13.1074 207.775 13.1074C207.102 13.1074 206.553 12.8317 206.126 12.2803C205.704 11.7288 205.493 11.0091 205.493 10.1211V10.0459ZM206.486 10.1587C206.486 10.8175 206.622 11.3332 206.895 11.7056C207.167 12.078 207.543 12.2642 208.022 12.2642C208.653 12.2642 209.113 11.9813 209.403 11.4155V8.74609C209.106 8.19824 208.649 7.92432 208.033 7.92432C207.546 7.92432 207.167 8.1123 206.895 8.48828C206.622 8.86426 206.486 9.42106 206.486 10.1587Z" fill="#EEEEEE"/>
<path d="M215.531 13C215.474 12.8854 215.427 12.6813 215.392 12.3877C214.93 12.8675 214.378 13.1074 213.737 13.1074C213.164 13.1074 212.694 12.9463 212.325 12.624C211.959 12.2982 211.777 11.8864 211.777 11.3887C211.777 10.7835 212.006 10.3145 212.464 9.98145C212.926 9.64486 213.574 9.47656 214.409 9.47656H215.375V9.02002C215.375 8.67269 215.272 8.39697 215.064 8.19287C214.856 7.98519 214.55 7.88135 214.146 7.88135C213.791 7.88135 213.494 7.97087 213.254 8.1499C213.014 8.32894 212.894 8.54557 212.894 8.7998H211.895C211.895 8.50977 211.997 8.23047 212.201 7.96191C212.409 7.68978 212.688 7.47493 213.039 7.31738C213.394 7.15983 213.782 7.08105 214.205 7.08105C214.874 7.08105 215.399 7.24935 215.778 7.58594C216.158 7.91895 216.355 8.37907 216.369 8.96631V11.6411C216.369 12.1746 216.437 12.599 216.573 12.9141V13H215.531ZM213.882 12.2427C214.194 12.2427 214.489 12.1621 214.769 12.001C215.048 11.8398 215.25 11.6304 215.375 11.3726V10.1802H214.597C213.379 10.1802 212.771 10.5365 212.771 11.249C212.771 11.5605 212.874 11.804 213.082 11.9795C213.29 12.1549 213.556 12.2427 213.882 12.2427Z" fill="#EEEEEE"/>
<path d="M219.275 5.78125V7.18848H220.36V7.95654H219.275V11.5605C219.275 11.7933 219.323 11.9688 219.42 12.0869C219.517 12.2015 219.681 12.2588 219.914 12.2588C220.029 12.2588 220.186 12.2373 220.387 12.1943V13C220.125 13.0716 219.871 13.1074 219.624 13.1074C219.18 13.1074 218.845 12.9731 218.62 12.7046C218.394 12.436 218.281 12.0547 218.281 11.5605V7.95654H217.223V7.18848H218.281V5.78125H219.275Z" fill="#EEEEEE"/>
<path d="M225.113 13C225.056 12.8854 225.009 12.6813 224.974 12.3877C224.512 12.8675 223.96 13.1074 223.319 13.1074C222.746 13.1074 222.276 12.9463 221.907 12.624C221.542 12.2982 221.359 11.8864 221.359 11.3887C221.359 10.7835 221.588 10.3145 222.046 9.98145C222.508 9.64486 223.156 9.47656 223.991 9.47656H224.958V9.02002C224.958 8.67269 224.854 8.39697 224.646 8.19287C224.438 7.98519 224.132 7.88135 223.728 7.88135C223.373 7.88135 223.076 7.97087 222.836 8.1499C222.596 8.32894 222.476 8.54557 222.476 8.7998H221.477C221.477 8.50977 221.579 8.23047 221.783 7.96191C221.991 7.68978 222.27 7.47493 222.621 7.31738C222.976 7.15983 223.364 7.08105 223.787 7.08105C224.456 7.08105 224.981 7.24935 225.36 7.58594C225.74 7.91895 225.937 8.37907 225.951 8.96631V11.6411C225.951 12.1746 226.019 12.599 226.155 12.9141V13H225.113ZM223.464 12.2427C223.776 12.2427 224.071 12.1621 224.351 12.001C224.63 11.8398 224.832 11.6304 224.958 11.3726V10.1802H224.179C222.961 10.1802 222.353 10.5365 222.353 11.249C222.353 11.5605 222.456 11.804 222.664 11.9795C222.872 12.1549 223.139 12.2427 223.464 12.2427Z" fill="#EEEEEE"/>
<path d="M13.3979 9.54639H10.1162V13H9.08496V5.17969H13.9297V6.02832H10.1162V8.70312H13.3979V9.54639Z" fill="#555555"/>
<path d="M18.4146 13C18.3573 12.8854 18.3107 12.6813 18.2749 12.3877C17.813 12.8675 17.2616 13.1074 16.6206 13.1074C16.0477 13.1074 15.5768 12.9463 15.208 12.624C14.8428 12.2982 14.6602 11.8864 14.6602 11.3887C14.6602 10.7835 14.8893 10.3145 15.3477 9.98145C15.8096 9.64486 16.4577 9.47656 17.292 9.47656H18.2588V9.02002C18.2588 8.67269 18.1549 8.39697 17.9473 8.19287C17.7396 7.98519 17.4334 7.88135 17.0288 7.88135C16.6743 7.88135 16.3771 7.97087 16.1372 8.1499C15.8973 8.32894 15.7773 8.54557 15.7773 8.7998H14.7783C14.7783 8.50977 14.8804 8.23047 15.0845 7.96191C15.2922 7.68978 15.5715 7.47493 15.9224 7.31738C16.2769 7.15983 16.6654 7.08105 17.0879 7.08105C17.7575 7.08105 18.2821 7.24935 18.6616 7.58594C19.0412 7.91895 19.2381 8.37907 19.2524 8.96631V11.6411C19.2524 12.1746 19.3205 12.599 19.4565 12.9141V13H18.4146ZM16.7656 12.2427C17.0771 12.2427 17.3726 12.1621 17.6519 12.001C17.9312 11.8398 18.1335 11.6304 18.2588 11.3726V10.1802H17.48C16.2625 10.1802 15.6538 10.5365 15.6538 11.249C15.6538 11.5605 15.7576 11.804 15.9653 11.9795C16.173 12.1549 16.4398 12.2427 16.7656 12.2427Z" fill="#555555"/>
<path d="M21.8896 13H20.896V7.18848H21.8896V13ZM20.8154 5.64697C20.8154 5.48584 20.8638 5.34977 20.9604 5.23877C21.0607 5.12777 21.2075 5.07227 21.4009 5.07227C21.5942 5.07227 21.741 5.12777 21.8413 5.23877C21.9416 5.34977 21.9917 5.48584 21.9917 5.64697C21.9917 5.80811 21.9416 5.94238 21.8413 6.0498C21.741 6.15723 21.5942 6.21094 21.4009 6.21094C21.2075 6.21094 21.0607 6.15723 20.9604 6.0498C20.8638 5.94238 20.8154 5.80811 20.8154 5.64697Z" fill="#555555"/>
<path d="M26.2939 8.08008C26.1436 8.05501 25.9806 8.04248 25.8052 8.04248C25.1535 8.04248 24.7113 8.31999 24.4785 8.875V13H23.4849V7.18848H24.4517L24.4678 7.85986C24.7936 7.34066 25.2555 7.08105 25.8535 7.08105C26.0469 7.08105 26.1937 7.10612 26.2939 7.15625V8.08008Z" fill="#555555"/>
<path d="M35.0864 11.6304L36.2036 7.18848H37.1973L35.5054 13H34.6997L33.2871 8.5957L31.9121 13H31.1064L29.4199 7.18848H30.4082L31.5522 11.5391L32.9058 7.18848H33.7061L35.0864 11.6304Z" fill="#555555"/>
<path d="M40.624 13.1074C39.8363 13.1074 39.1953 12.8496 38.7012 12.334C38.207 11.8148 37.96 11.1219 37.96 10.2554V10.0728C37.96 9.49626 38.0692 8.98242 38.2876 8.53125C38.5096 8.0765 38.8175 7.72201 39.2114 7.46777C39.6089 7.20996 40.0386 7.08105 40.5005 7.08105C41.256 7.08105 41.8433 7.32992 42.2622 7.82764C42.6812 8.32536 42.8906 9.03792 42.8906 9.96533V10.3789H38.9536C38.9679 10.9518 39.1344 11.4155 39.4531 11.77C39.7754 12.1209 40.1836 12.2964 40.6777 12.2964C41.0286 12.2964 41.3258 12.2248 41.5693 12.0815C41.8128 11.9383 42.0259 11.7485 42.2085 11.5122L42.8154 11.9849C42.3285 12.7332 41.598 13.1074 40.624 13.1074ZM40.5005 7.89746C40.0994 7.89746 39.7629 8.04427 39.4907 8.33789C39.2186 8.62793 39.0503 9.03613 38.9858 9.5625H41.897V9.4873C41.8683 8.98242 41.7323 8.59212 41.4888 8.31641C41.2453 8.03711 40.9159 7.89746 40.5005 7.89746Z" fill="#555555"/>
<path d="M48.9653 10.1587C48.9653 11.0467 48.7612 11.7611 48.353 12.3018C47.9448 12.8389 47.397 13.1074 46.7095 13.1074C45.9754 13.1074 45.4079 12.8478 45.0068 12.3286L44.9585 13H44.0454V4.75H45.0391V7.82764C45.4401 7.32992 45.9933 7.08105 46.6987 7.08105C47.4041 7.08105 47.9574 7.34782 48.3584 7.88135C48.763 8.41488 48.9653 9.14535 48.9653 10.0728V10.1587ZM47.9717 10.0459C47.9717 9.36914 47.841 8.84635 47.5796 8.47754C47.3182 8.10872 46.9422 7.92432 46.4517 7.92432C45.7964 7.92432 45.3255 8.22868 45.0391 8.8374V11.3511C45.3434 11.9598 45.8179 12.2642 46.4624 12.2642C46.9386 12.2642 47.3092 12.0798 47.5742 11.7109C47.8392 11.3421 47.9717 10.7871 47.9717 10.0459Z" fill="#555555"/>
<path d="M56.5386 13C56.4813 12.8854 56.4347 12.6813 56.3989 12.3877C55.937 12.8675 55.3856 13.1074 54.7446 13.1074C54.1717 13.1074 53.7008 12.9463 53.332 12.624C52.9668 12.2982 52.7842 11.8864 52.7842 11.3887C52.7842 10.7835 53.0133 10.3145 53.4717 9.98145C53.9336 9.64486 54.5817 9.47656 55.416 9.47656H56.3828V9.02002C56.3828 8.67269 56.279 8.39697 56.0713 8.19287C55.8636 7.98519 55.5575 7.88135 55.1528 7.88135C54.7983 7.88135 54.5011 7.97087 54.2612 8.1499C54.0213 8.32894 53.9014 8.54557 53.9014 8.7998H52.9023C52.9023 8.50977 53.0044 8.23047 53.2085 7.96191C53.4162 7.68978 53.6955 7.47493 54.0464 7.31738C54.4009 7.15983 54.7894 7.08105 55.2119 7.08105C55.8815 7.08105 56.4061 7.24935 56.7856 7.58594C57.1652 7.91895 57.3621 8.37907 57.3765 8.96631V11.6411C57.3765 12.1746 57.4445 12.599 57.5806 12.9141V13H56.5386ZM54.8896 12.2427C55.2012 12.2427 55.4966 12.1621 55.7759 12.001C56.0552 11.8398 56.2575 11.6304 56.3828 11.3726V10.1802H55.604C54.3866 10.1802 53.7778 10.5365 53.7778 11.249C53.7778 11.5605 53.8817 11.804 54.0894 11.9795C54.297 12.1549 54.5638 12.2427 54.8896 12.2427Z" fill="#555555"/>
<path d="M59.874 7.18848L59.9062 7.91895C60.3503 7.36035 60.9303 7.08105 61.6465 7.08105C62.8747 7.08105 63.4941 7.77393 63.5049 9.15967V13H62.5112V9.1543C62.5076 8.73535 62.411 8.42562 62.2212 8.2251C62.035 8.02458 61.7432 7.92432 61.3457 7.92432C61.0234 7.92432 60.7406 8.01025 60.4971 8.18213C60.2536 8.354 60.0638 8.57959 59.9277 8.85889V13H58.9341V7.18848H59.874Z" fill="#555555"/>
<path d="M68.5913 13C68.534 12.8854 68.4875 12.6813 68.4517 12.3877C67.9897 12.8675 67.4383 13.1074 66.7974 13.1074C66.2244 13.1074 65.7536 12.9463 65.3848 12.624C65.0195 12.2982 64.8369 11.8864 64.8369 11.3887C64.8369 10.7835 65.0661 10.3145 65.5244 9.98145C65.9863 9.64486 66.6344 9.47656 67.4688 9.47656H68.4355V9.02002C68.4355 8.67269 68.3317 8.39697 68.124 8.19287C67.9163 7.98519 67.6102 7.88135 67.2056 7.88135C66.8511 7.88135 66.5539 7.97087 66.314 8.1499C66.0741 8.32894 65.9541 8.54557 65.9541 8.7998H64.9551C64.9551 8.50977 65.0571 8.23047 65.2612 7.96191C65.4689 7.68978 65.7482 7.47493 66.0991 7.31738C66.4536 7.15983 66.8421 7.08105 67.2646 7.08105C67.9342 7.08105 68.4588 7.24935 68.8384 7.58594C69.2179 7.91895 69.4149 8.37907 69.4292 8.96631V11.6411C69.4292 12.1746 69.4972 12.599 69.6333 12.9141V13H68.5913ZM66.9424 12.2427C67.2539 12.2427 67.5493 12.1621 67.8286 12.001C68.1079 11.8398 68.3102 11.6304 68.4355 11.3726V10.1802H67.6567C66.4393 10.1802 65.8306 10.5365 65.8306 11.249C65.8306 11.5605 65.9344 11.804 66.1421 11.9795C66.3498 12.1549 66.6165 12.2427 66.9424 12.2427Z" fill="#555555"/>
<path d="M72.0664 13H71.0728V4.75H72.0664V13Z" fill="#555555"/>
<path d="M75.563 11.5444L76.9165 7.18848H77.98L75.6436 13.897C75.2819 14.8638 74.7072 15.3472 73.9194 15.3472L73.7314 15.3311L73.3608 15.2612V14.4556L73.6294 14.4771C73.966 14.4771 74.2274 14.409 74.4136 14.2729C74.6034 14.1369 74.7591 13.888 74.8809 13.5264L75.1011 12.9355L73.0278 7.18848H74.1128L75.563 11.5444Z" fill="#555555"/>
<path d="M80.2197 5.78125V7.18848H81.3047V7.95654H80.2197V11.5605C80.2197 11.7933 80.2681 11.9688 80.3647 12.0869C80.4614 12.2015 80.6261 12.2588 80.8589 12.2588C80.9735 12.2588 81.131 12.2373 81.3315 12.1943V13C81.0701 13.0716 80.8159 13.1074 80.5688 13.1074C80.1248 13.1074 79.79 12.9731 79.5645 12.7046C79.3389 12.436 79.2261 12.0547 79.2261 11.5605V7.95654H78.168V7.18848H79.2261V5.78125H80.2197Z" fill="#555555"/>
<path d="M83.5498 13H82.5562V7.18848H83.5498V13ZM82.4756 5.64697C82.4756 5.48584 82.5239 5.34977 82.6206 5.23877C82.7209 5.12777 82.8677 5.07227 83.061 5.07227C83.2544 5.07227 83.4012 5.12777 83.5015 5.23877C83.6017 5.34977 83.6519 5.48584 83.6519 5.64697C83.6519 5.80811 83.6017 5.94238 83.5015 6.0498C83.4012 6.15723 83.2544 6.21094 83.061 6.21094C82.8677 6.21094 82.7209 6.15723 82.6206 6.0498C82.5239 5.94238 82.4756 5.80811 82.4756 5.64697Z" fill="#555555"/>
<path d="M87.4761 12.2964C87.8306 12.2964 88.1403 12.189 88.4053 11.9741C88.6702 11.7593 88.8171 11.4907 88.8457 11.1685H89.7856C89.7677 11.5015 89.6532 11.8184 89.4419 12.1191C89.2306 12.4199 88.9478 12.6598 88.5933 12.8389C88.2424 13.0179 87.87 13.1074 87.4761 13.1074C86.6847 13.1074 86.0545 12.8442 85.5854 12.3179C85.12 11.7879 84.8872 11.0646 84.8872 10.1479V9.98145C84.8872 9.41569 84.991 8.9126 85.1987 8.47217C85.4064 8.03174 85.7036 7.68978 86.0903 7.44629C86.4806 7.2028 86.9408 7.08105 87.4707 7.08105C88.1224 7.08105 88.6631 7.2762 89.0928 7.6665C89.526 8.0568 89.757 8.56348 89.7856 9.18652H88.8457C88.8171 8.81055 88.6738 8.5026 88.416 8.2627C88.1618 8.01921 87.8467 7.89746 87.4707 7.89746C86.9658 7.89746 86.5737 8.08008 86.2944 8.44531C86.0187 8.80697 85.8809 9.33154 85.8809 10.019V10.207C85.8809 10.8766 86.0187 11.3923 86.2944 11.7539C86.5701 12.1156 86.964 12.2964 87.4761 12.2964Z" fill="#555555"/>
<path d="M94.2866 11.4585C94.2866 11.1899 94.1846 10.9823 93.9805 10.8354C93.7799 10.6851 93.4272 10.5562 92.9224 10.4487C92.4211 10.3413 92.0218 10.2124 91.7246 10.062C91.431 9.91162 91.2126 9.73258 91.0693 9.5249C90.9297 9.31722 90.8599 9.07015 90.8599 8.78369C90.8599 8.30745 91.0604 7.90462 91.4614 7.5752C91.866 7.24577 92.3817 7.08105 93.0083 7.08105C93.6672 7.08105 94.2007 7.25114 94.6089 7.59131C95.0207 7.93148 95.2266 8.36654 95.2266 8.89648H94.2275C94.2275 8.62435 94.1112 8.38981 93.8784 8.19287C93.6493 7.99593 93.3592 7.89746 93.0083 7.89746C92.6466 7.89746 92.3638 7.97624 92.1597 8.13379C91.9556 8.29134 91.8535 8.49723 91.8535 8.75146C91.8535 8.99137 91.9484 9.1722 92.1382 9.29395C92.328 9.41569 92.6699 9.53206 93.1641 9.64307C93.6618 9.75407 94.0646 9.88656 94.3726 10.0405C94.6805 10.1945 94.9079 10.3807 95.0547 10.5991C95.2051 10.814 95.2803 11.0771 95.2803 11.3887C95.2803 11.9079 95.0726 12.325 94.6572 12.6401C94.2419 12.9517 93.703 13.1074 93.0405 13.1074C92.575 13.1074 92.1632 13.0251 91.8052 12.8604C91.4471 12.6956 91.166 12.4665 90.9619 12.1729C90.7614 11.8757 90.6611 11.5552 90.6611 11.2114H91.6548C91.6727 11.5444 91.8052 11.8094 92.0522 12.0063C92.3029 12.1997 92.6323 12.2964 93.0405 12.2964C93.4165 12.2964 93.7173 12.2212 93.9429 12.0708C94.172 11.9168 94.2866 11.7127 94.2866 11.4585Z" fill="#555555"/>
</svg>
