<svg width="248" height="18" viewBox="0 0 248 18" fill="none" xmlns="http://www.w3.org/2000/svg">
<rect x="0.5" y="0.5" width="247" height="17" rx="1.5" fill="#EEEEEE" stroke="#555555"/>
<rect x="102" width="146" height="18" rx="2" fill="#555555"/>
<path d="M115.226 10.959H111.95L111.214 13H110.15L113.137 5.17969H114.039L117.031 13H115.973L115.226 10.959ZM112.261 10.1104H114.92L113.588 6.45264L112.261 10.1104Z" fill="#EEEEEE"/>
<path d="M120.259 12.2964C120.613 12.2964 120.923 12.189 121.188 11.9741C121.453 11.7593 121.6 11.4907 121.628 11.1685H122.568C122.55 11.5015 122.436 11.8184 122.225 12.1191C122.013 12.4199 121.73 12.6598 121.376 12.8389C121.025 13.0179 120.653 13.1074 120.259 13.1074C119.467 13.1074 118.837 12.8442 118.368 12.3179C117.903 11.7879 117.67 11.0646 117.67 10.1479V9.98145C117.67 9.41569 117.774 8.9126 117.981 8.47217C118.189 8.03174 118.486 7.68978 118.873 7.44629C119.263 7.2028 119.723 7.08105 120.253 7.08105C120.905 7.08105 121.446 7.2762 121.875 7.6665C122.309 8.0568 122.54 8.56348 122.568 9.18652H121.628C121.6 8.81055 121.457 8.5026 121.199 8.2627C120.944 8.01921 120.629 7.89746 120.253 7.89746C119.749 7.89746 119.356 8.08008 119.077 8.44531C118.801 8.80697 118.664 9.33154 118.664 10.019V10.207C118.664 10.8766 118.801 11.3923 119.077 11.7539C119.353 12.1156 119.747 12.2964 120.259 12.2964Z" fill="#EEEEEE"/>
<path d="M126.017 12.2964C126.371 12.2964 126.681 12.189 126.946 11.9741C127.211 11.7593 127.358 11.4907 127.386 11.1685H128.326C128.308 11.5015 128.194 11.8184 127.982 12.1191C127.771 12.4199 127.488 12.6598 127.134 12.8389C126.783 13.0179 126.41 13.1074 126.017 13.1074C125.225 13.1074 124.595 12.8442 124.126 12.3179C123.66 11.7879 123.428 11.0646 123.428 10.1479V9.98145C123.428 9.41569 123.532 8.9126 123.739 8.47217C123.947 8.03174 124.244 7.68978 124.631 7.44629C125.021 7.2028 125.481 7.08105 126.011 7.08105C126.663 7.08105 127.204 7.2762 127.633 7.6665C128.067 8.0568 128.298 8.56348 128.326 9.18652H127.386C127.358 8.81055 127.214 8.5026 126.957 8.2627C126.702 8.01921 126.387 7.89746 126.011 7.89746C125.506 7.89746 125.114 8.08008 124.835 8.44531C124.559 8.80697 124.421 9.33154 124.421 10.019V10.207C124.421 10.8766 124.559 11.3923 124.835 11.7539C125.111 12.1156 125.505 12.2964 126.017 12.2964Z" fill="#EEEEEE"/>
<path d="M131.855 13.1074C131.067 13.1074 130.426 12.8496 129.932 12.334C129.438 11.8148 129.191 11.1219 129.191 10.2554V10.0728C129.191 9.49626 129.3 8.98242 129.519 8.53125C129.741 8.0765 130.049 7.72201 130.442 7.46777C130.84 7.20996 131.27 7.08105 131.731 7.08105C132.487 7.08105 133.074 7.32992 133.493 7.82764C133.912 8.32536 134.122 9.03792 134.122 9.96533V10.3789H130.185C130.199 10.9518 130.365 11.4155 130.684 11.77C131.006 12.1209 131.415 12.2964 131.909 12.2964C132.26 12.2964 132.557 12.2248 132.8 12.0815C133.044 11.9383 133.257 11.7485 133.439 11.5122L134.046 11.9849C133.559 12.7332 132.829 13.1074 131.855 13.1074ZM131.731 7.89746C131.33 7.89746 130.994 8.04427 130.722 8.33789C130.45 8.62793 130.281 9.03613 130.217 9.5625H133.128V9.4873C133.099 8.98242 132.963 8.59212 132.72 8.31641C132.476 8.03711 132.147 7.89746 131.731 7.89746Z" fill="#EEEEEE"/>
<path d="M135.035 10.0459C135.035 9.1543 135.246 8.43815 135.668 7.89746C136.091 7.35319 136.644 7.08105 137.328 7.08105C138.008 7.08105 138.547 7.3138 138.945 7.7793V4.75H139.938V13H139.025L138.977 12.377C138.58 12.8639 138.026 13.1074 137.317 13.1074C136.644 13.1074 136.095 12.8317 135.668 12.2803C135.246 11.7288 135.035 11.0091 135.035 10.1211V10.0459ZM136.028 10.1587C136.028 10.8175 136.164 11.3332 136.437 11.7056C136.709 12.078 137.085 12.2642 137.564 12.2642C138.195 12.2642 138.655 11.9813 138.945 11.4155V8.74609C138.648 8.19824 138.191 7.92432 137.575 7.92432C137.088 7.92432 136.709 8.1123 136.437 8.48828C136.164 8.86426 136.028 9.42106 136.028 10.1587Z" fill="#EEEEEE"/>
<path d="M145.073 13C145.016 12.8854 144.969 12.6813 144.934 12.3877C144.472 12.8675 143.92 13.1074 143.279 13.1074C142.706 13.1074 142.236 12.9463 141.867 12.624C141.501 12.2982 141.319 11.8864 141.319 11.3887C141.319 10.7835 141.548 10.3145 142.006 9.98145C142.468 9.64486 143.116 9.47656 143.951 9.47656H144.917V9.02002C144.917 8.67269 144.814 8.39697 144.606 8.19287C144.398 7.98519 144.092 7.88135 143.688 7.88135C143.333 7.88135 143.036 7.97087 142.796 8.1499C142.556 8.32894 142.436 8.54557 142.436 8.7998H141.437C141.437 8.50977 141.539 8.23047 141.743 7.96191C141.951 7.68978 142.23 7.47493 142.581 7.31738C142.936 7.15983 143.324 7.08105 143.747 7.08105C144.416 7.08105 144.941 7.24935 145.32 7.58594C145.7 7.91895 145.897 8.37907 145.911 8.96631V11.6411C145.911 12.1746 145.979 12.599 146.115 12.9141V13H145.073ZM143.424 12.2427C143.736 12.2427 144.031 12.1621 144.311 12.001C144.59 11.8398 144.792 11.6304 144.917 11.3726V10.1802H144.139C142.921 10.1802 142.312 10.5365 142.312 11.249C142.312 11.5605 142.416 11.804 142.624 11.9795C142.832 12.1549 143.098 12.2427 143.424 12.2427Z" fill="#EEEEEE"/>
<path d="M153.785 13C153.728 12.8854 153.681 12.6813 153.646 12.3877C153.184 12.8675 152.632 13.1074 151.991 13.1074C151.418 13.1074 150.947 12.9463 150.579 12.624C150.213 12.2982 150.031 11.8864 150.031 11.3887C150.031 10.7835 150.26 10.3145 150.718 9.98145C151.18 9.64486 151.828 9.47656 152.663 9.47656H153.629V9.02002C153.629 8.67269 153.526 8.39697 153.318 8.19287C153.11 7.98519 152.804 7.88135 152.399 7.88135C152.045 7.88135 151.748 7.97087 151.508 8.1499C151.268 8.32894 151.148 8.54557 151.148 8.7998H150.149C150.149 8.50977 150.251 8.23047 150.455 7.96191C150.663 7.68978 150.942 7.47493 151.293 7.31738C151.647 7.15983 152.036 7.08105 152.458 7.08105C153.128 7.08105 153.653 7.24935 154.032 7.58594C154.412 7.91895 154.609 8.37907 154.623 8.96631V11.6411C154.623 12.1746 154.691 12.599 154.827 12.9141V13H153.785ZM152.136 12.2427C152.448 12.2427 152.743 12.1621 153.022 12.001C153.302 11.8398 153.504 11.6304 153.629 11.3726V10.1802H152.851C151.633 10.1802 151.024 10.5365 151.024 11.249C151.024 11.5605 151.128 11.804 151.336 11.9795C151.544 12.1549 151.81 12.2427 152.136 12.2427Z" fill="#EEEEEE"/>
<path d="M162.293 11.4585C162.293 11.1899 162.191 10.9823 161.987 10.8354C161.786 10.6851 161.434 10.5562 160.929 10.4487C160.427 10.3413 160.028 10.2124 159.731 10.062C159.437 9.91162 159.219 9.73258 159.076 9.5249C158.936 9.31722 158.866 9.07015 158.866 8.78369C158.866 8.30745 159.067 7.90462 159.468 7.5752C159.872 7.24577 160.388 7.08105 161.015 7.08105C161.674 7.08105 162.207 7.25114 162.615 7.59131C163.027 7.93148 163.233 8.36654 163.233 8.89648H162.234C162.234 8.62435 162.118 8.38981 161.885 8.19287C161.656 7.99593 161.366 7.89746 161.015 7.89746C160.653 7.89746 160.37 7.97624 160.166 8.13379C159.962 8.29134 159.86 8.49723 159.86 8.75146C159.86 8.99137 159.955 9.1722 160.145 9.29395C160.334 9.41569 160.676 9.53206 161.17 9.64307C161.668 9.75407 162.071 9.88656 162.379 10.0405C162.687 10.1945 162.914 10.3807 163.061 10.5991C163.211 10.814 163.287 11.0771 163.287 11.3887C163.287 11.9079 163.079 12.325 162.664 12.6401C162.248 12.9517 161.709 13.1074 161.047 13.1074C160.581 13.1074 160.17 13.0251 159.812 12.8604C159.453 12.6956 159.172 12.4665 158.968 12.1729C158.768 11.8757 158.667 11.5552 158.667 11.2114H159.661C159.679 11.5444 159.812 11.8094 160.059 12.0063C160.309 12.1997 160.639 12.2964 161.047 12.2964C161.423 12.2964 161.724 12.2212 161.949 12.0708C162.178 11.9168 162.293 11.7127 162.293 11.4585Z" fill="#EEEEEE"/>
<path d="M168.169 12.4253C167.782 12.88 167.215 13.1074 166.466 13.1074C165.847 13.1074 165.374 12.9284 165.048 12.5703C164.726 12.2087 164.563 11.6751 164.56 10.9697V7.18848H165.553V10.9429C165.553 11.8237 165.911 12.2642 166.627 12.2642C167.387 12.2642 167.891 11.9813 168.142 11.4155V7.18848H169.136V13H168.19L168.169 12.4253Z" fill="#EEEEEE"/>
<path d="M174.034 11.4585C174.034 11.1899 173.932 10.9823 173.728 10.8354C173.528 10.6851 173.175 10.5562 172.67 10.4487C172.169 10.3413 171.769 10.2124 171.472 10.062C171.179 9.91162 170.96 9.73258 170.817 9.5249C170.677 9.31722 170.607 9.07015 170.607 8.78369C170.607 8.30745 170.808 7.90462 171.209 7.5752C171.614 7.24577 172.129 7.08105 172.756 7.08105C173.415 7.08105 173.948 7.25114 174.356 7.59131C174.768 7.93148 174.974 8.36654 174.974 8.89648H173.975C173.975 8.62435 173.859 8.38981 173.626 8.19287C173.397 7.99593 173.107 7.89746 172.756 7.89746C172.394 7.89746 172.111 7.97624 171.907 8.13379C171.703 8.29134 171.601 8.49723 171.601 8.75146C171.601 8.99137 171.696 9.1722 171.886 9.29395C172.076 9.41569 172.417 9.53206 172.912 9.64307C173.409 9.75407 173.812 9.88656 174.12 10.0405C174.428 10.1945 174.655 10.3807 174.802 10.5991C174.953 10.814 175.028 11.0771 175.028 11.3887C175.028 11.9079 174.82 12.325 174.405 12.6401C173.989 12.9517 173.451 13.1074 172.788 13.1074C172.323 13.1074 171.911 13.0251 171.553 12.8604C171.195 12.6956 170.914 12.4665 170.709 12.1729C170.509 11.8757 170.409 11.5552 170.409 11.2114H171.402C171.42 11.5444 171.553 11.8094 171.8 12.0063C172.05 12.1997 172.38 12.2964 172.788 12.2964C173.164 12.2964 173.465 12.2212 173.69 12.0708C173.92 11.9168 174.034 11.7127 174.034 11.4585Z" fill="#EEEEEE"/>
<path d="M178.809 10.0459C178.809 9.1543 179.02 8.43815 179.443 7.89746C179.865 7.35319 180.419 7.08105 181.103 7.08105C181.783 7.08105 182.322 7.3138 182.719 7.7793V4.75H183.713V13H182.8L182.751 12.377C182.354 12.8639 181.801 13.1074 181.092 13.1074C180.419 13.1074 179.869 12.8317 179.443 12.2803C179.02 11.7288 178.809 11.0091 178.809 10.1211V10.0459ZM179.803 10.1587C179.803 10.8175 179.939 11.3332 180.211 11.7056C180.483 12.078 180.859 12.2642 181.339 12.2642C181.969 12.2642 182.429 11.9813 182.719 11.4155V8.74609C182.422 8.19824 181.965 7.92432 181.35 7.92432C180.863 7.92432 180.483 8.1123 180.211 8.48828C179.939 8.86426 179.803 9.42106 179.803 10.1587Z" fill="#EEEEEE"/>
<path d="M188.848 13C188.79 12.8854 188.744 12.6813 188.708 12.3877C188.246 12.8675 187.695 13.1074 187.054 13.1074C186.481 13.1074 186.01 12.9463 185.641 12.624C185.276 12.2982 185.093 11.8864 185.093 11.3887C185.093 10.7835 185.322 10.3145 185.781 9.98145C186.243 9.64486 186.891 9.47656 187.725 9.47656H188.692V9.02002C188.692 8.67269 188.588 8.39697 188.38 8.19287C188.173 7.98519 187.867 7.88135 187.462 7.88135C187.107 7.88135 186.81 7.97087 186.57 8.1499C186.33 8.32894 186.21 8.54557 186.21 8.7998H185.211C185.211 8.50977 185.313 8.23047 185.518 7.96191C185.725 7.68978 186.005 7.47493 186.355 7.31738C186.71 7.15983 187.098 7.08105 187.521 7.08105C188.191 7.08105 188.715 7.24935 189.095 7.58594C189.474 7.91895 189.671 8.37907 189.686 8.96631V11.6411C189.686 12.1746 189.754 12.599 189.89 12.9141V13H188.848ZM187.199 12.2427C187.51 12.2427 187.806 12.1621 188.085 12.001C188.364 11.8398 188.567 11.6304 188.692 11.3726V10.1802H187.913C186.696 10.1802 186.087 10.5365 186.087 11.249C186.087 11.5605 186.191 11.804 186.398 11.9795C186.606 12.1549 186.873 12.2427 187.199 12.2427Z" fill="#EEEEEE"/>
<path d="M192.591 5.78125V7.18848H193.676V7.95654H192.591V11.5605C192.591 11.7933 192.64 11.9688 192.736 12.0869C192.833 12.2015 192.998 12.2588 193.23 12.2588C193.345 12.2588 193.503 12.2373 193.703 12.1943V13C193.442 13.0716 193.188 13.1074 192.94 13.1074C192.496 13.1074 192.162 12.9731 191.936 12.7046C191.71 12.436 191.598 12.0547 191.598 11.5605V7.95654H190.54V7.18848H191.598V5.78125H192.591Z" fill="#EEEEEE"/>
<path d="M194.471 10.0405C194.471 9.47119 194.582 8.95915 194.804 8.50439C195.03 8.04964 195.341 7.69873 195.739 7.45166C196.14 7.20459 196.596 7.08105 197.108 7.08105C197.9 7.08105 198.539 7.35498 199.026 7.90283C199.516 8.45068 199.762 9.17936 199.762 10.0889V10.1587C199.762 10.7244 199.653 11.2329 199.434 11.6841C199.219 12.1317 198.91 12.4808 198.505 12.7314C198.104 12.9821 197.642 13.1074 197.119 13.1074C196.331 13.1074 195.692 12.8335 195.202 12.2856C194.715 11.7378 194.471 11.0127 194.471 10.1104V10.0405ZM195.47 10.1587C195.47 10.8032 195.619 11.3206 195.916 11.7109C196.217 12.1012 196.618 12.2964 197.119 12.2964C197.624 12.2964 198.025 12.0994 198.322 11.7056C198.619 11.3081 198.768 10.7531 198.768 10.0405C198.768 9.40316 198.616 8.88753 198.312 8.49365C198.011 8.09619 197.61 7.89746 197.108 7.89746C196.618 7.89746 196.222 8.09261 195.921 8.48291C195.621 8.87321 195.47 9.4318 195.47 10.1587Z" fill="#EEEEEE"/>
<path d="M204.392 11.4585C204.392 11.1899 204.29 10.9823 204.085 10.8354C203.885 10.6851 203.532 10.5562 203.027 10.4487C202.526 10.3413 202.127 10.2124 201.83 10.062C201.536 9.91162 201.318 9.73258 201.174 9.5249C201.035 9.31722 200.965 9.07015 200.965 8.78369C200.965 8.30745 201.165 7.90462 201.566 7.5752C201.971 7.24577 202.487 7.08105 203.113 7.08105C203.772 7.08105 204.306 7.25114 204.714 7.59131C205.126 7.93148 205.332 8.36654 205.332 8.89648H204.333C204.333 8.62435 204.216 8.38981 203.983 8.19287C203.754 7.99593 203.464 7.89746 203.113 7.89746C202.752 7.89746 202.469 7.97624 202.265 8.13379C202.061 8.29134 201.958 8.49723 201.958 8.75146C201.958 8.99137 202.053 9.1722 202.243 9.29395C202.433 9.41569 202.775 9.53206 203.269 9.64307C203.767 9.75407 204.17 9.88656 204.478 10.0405C204.785 10.1945 205.013 10.3807 205.16 10.5991C205.31 10.814 205.385 11.0771 205.385 11.3887C205.385 11.9079 205.178 12.325 204.762 12.6401C204.347 12.9517 203.808 13.1074 203.146 13.1074C202.68 13.1074 202.268 13.0251 201.91 12.8604C201.552 12.6956 201.271 12.4665 201.067 12.1729C200.866 11.8757 200.766 11.5552 200.766 11.2114H201.76C201.778 11.5444 201.91 11.8094 202.157 12.0063C202.408 12.1997 202.737 12.2964 203.146 12.2964C203.521 12.2964 203.822 12.2212 204.048 12.0708C204.277 11.9168 204.392 11.7127 204.392 11.4585Z" fill="#EEEEEE"/>
<path d="M209.167 10.0459C209.167 9.1543 209.378 8.43815 209.8 7.89746C210.223 7.35319 210.776 7.08105 211.46 7.08105C212.14 7.08105 212.679 7.3138 213.077 7.7793V4.75H214.07V13H213.157L213.109 12.377C212.711 12.8639 212.158 13.1074 211.449 13.1074C210.776 13.1074 210.226 12.8317 209.8 12.2803C209.378 11.7288 209.167 11.0091 209.167 10.1211V10.0459ZM210.16 10.1587C210.16 10.8175 210.296 11.3332 210.568 11.7056C210.84 12.078 211.216 12.2642 211.696 12.2642C212.326 12.2642 212.787 11.9813 213.077 11.4155V8.74609C212.779 8.19824 212.323 7.92432 211.707 7.92432C211.22 7.92432 210.84 8.1123 210.568 8.48828C210.296 8.86426 210.16 9.42106 210.16 10.1587Z" fill="#EEEEEE"/>
<path d="M218.029 13.1074C217.241 13.1074 216.6 12.8496 216.106 12.334C215.612 11.8148 215.365 11.1219 215.365 10.2554V10.0728C215.365 9.49626 215.474 8.98242 215.692 8.53125C215.914 8.0765 216.222 7.72201 216.616 7.46777C217.014 7.20996 217.443 7.08105 217.905 7.08105C218.661 7.08105 219.248 7.32992 219.667 7.82764C220.086 8.32536 220.295 9.03792 220.295 9.96533V10.3789H216.358C216.373 10.9518 216.539 11.4155 216.858 11.77C217.18 12.1209 217.588 12.2964 218.083 12.2964C218.433 12.2964 218.731 12.2248 218.974 12.0815C219.218 11.9383 219.431 11.7485 219.613 11.5122L220.22 11.9849C219.733 12.7332 219.003 13.1074 218.029 13.1074ZM217.905 7.89746C217.504 7.89746 217.168 8.04427 216.896 8.33789C216.623 8.62793 216.455 9.03613 216.391 9.5625H219.302V9.4873C219.273 8.98242 219.137 8.59212 218.894 8.31641C218.65 8.03711 218.321 7.89746 217.905 7.89746Z" fill="#EEEEEE"/>
<path d="M227.767 12.4253C227.38 12.88 226.812 13.1074 226.064 13.1074C225.444 13.1074 224.972 12.9284 224.646 12.5703C224.324 12.2087 224.161 11.6751 224.157 10.9697V7.18848H225.151V10.9429C225.151 11.8237 225.509 12.2642 226.225 12.2642C226.984 12.2642 227.489 11.9813 227.74 11.4155V7.18848H228.733V13H227.788L227.767 12.4253Z" fill="#EEEEEE"/>
<path d="M233.632 11.4585C233.632 11.1899 233.53 10.9823 233.326 10.8354C233.125 10.6851 232.772 10.5562 232.268 10.4487C231.766 10.3413 231.367 10.2124 231.07 10.062C230.776 9.91162 230.558 9.73258 230.415 9.5249C230.275 9.31722 230.205 9.07015 230.205 8.78369C230.205 8.30745 230.406 7.90462 230.807 7.5752C231.211 7.24577 231.727 7.08105 232.354 7.08105C233.012 7.08105 233.546 7.25114 233.954 7.59131C234.366 7.93148 234.572 8.36654 234.572 8.89648H233.573C233.573 8.62435 233.456 8.38981 233.224 8.19287C232.994 7.99593 232.704 7.89746 232.354 7.89746C231.992 7.89746 231.709 7.97624 231.505 8.13379C231.301 8.29134 231.199 8.49723 231.199 8.75146C231.199 8.99137 231.294 9.1722 231.483 9.29395C231.673 9.41569 232.015 9.53206 232.509 9.64307C233.007 9.75407 233.41 9.88656 233.718 10.0405C234.026 10.1945 234.253 10.3807 234.4 10.5991C234.55 10.814 234.625 11.0771 234.625 11.3887C234.625 11.9079 234.418 12.325 234.002 12.6401C233.587 12.9517 233.048 13.1074 232.386 13.1074C231.92 13.1074 231.508 13.0251 231.15 12.8604C230.792 12.6956 230.511 12.4665 230.307 12.1729C230.107 11.8757 230.006 11.5552 230.006 11.2114H231C231.018 11.5444 231.15 11.8094 231.397 12.0063C231.648 12.1997 231.978 12.2964 232.386 12.2964C232.762 12.2964 233.062 12.2212 233.288 12.0708C233.517 11.9168 233.632 11.7127 233.632 11.4585Z" fill="#EEEEEE"/>
<path d="M235.657 10.0405C235.657 9.47119 235.768 8.95915 235.99 8.50439C236.215 8.04964 236.527 7.69873 236.924 7.45166C237.325 7.20459 237.782 7.08105 238.294 7.08105C239.085 7.08105 239.724 7.35498 240.211 7.90283C240.702 8.45068 240.947 9.17936 240.947 10.0889V10.1587C240.947 10.7244 240.838 11.2329 240.62 11.6841C240.405 12.1317 240.095 12.4808 239.69 12.7314C239.289 12.9821 238.827 13.1074 238.305 13.1074C237.517 13.1074 236.878 12.8335 236.387 12.2856C235.9 11.7378 235.657 11.0127 235.657 10.1104V10.0405ZM236.656 10.1587C236.656 10.8032 236.804 11.3206 237.102 11.7109C237.402 12.1012 237.803 12.2964 238.305 12.2964C238.81 12.2964 239.211 12.0994 239.508 11.7056C239.805 11.3081 239.954 10.7531 239.954 10.0405C239.954 9.40316 239.801 8.88753 239.497 8.49365C239.196 8.09619 238.795 7.89746 238.294 7.89746C237.803 7.89746 237.408 8.09261 237.107 8.48291C236.806 8.87321 236.656 9.4318 236.656 10.1587Z" fill="#EEEEEE"/>
<path d="M13.3979 9.54639H10.1162V13H9.08496V5.17969H13.9297V6.02832H10.1162V8.70312H13.3979V9.54639Z" fill="#555555"/>
<path d="M18.4146 13C18.3573 12.8854 18.3107 12.6813 18.2749 12.3877C17.813 12.8675 17.2616 13.1074 16.6206 13.1074C16.0477 13.1074 15.5768 12.9463 15.208 12.624C14.8428 12.2982 14.6602 11.8864 14.6602 11.3887C14.6602 10.7835 14.8893 10.3145 15.3477 9.98145C15.8096 9.64486 16.4577 9.47656 17.292 9.47656H18.2588V9.02002C18.2588 8.67269 18.1549 8.39697 17.9473 8.19287C17.7396 7.98519 17.4334 7.88135 17.0288 7.88135C16.6743 7.88135 16.3771 7.97087 16.1372 8.1499C15.8973 8.32894 15.7773 8.54557 15.7773 8.7998H14.7783C14.7783 8.50977 14.8804 8.23047 15.0845 7.96191C15.2922 7.68978 15.5715 7.47493 15.9224 7.31738C16.2769 7.15983 16.6654 7.08105 17.0879 7.08105C17.7575 7.08105 18.2821 7.24935 18.6616 7.58594C19.0412 7.91895 19.2381 8.37907 19.2524 8.96631V11.6411C19.2524 12.1746 19.3205 12.599 19.4565 12.9141V13H18.4146ZM16.7656 12.2427C17.0771 12.2427 17.3726 12.1621 17.6519 12.001C17.9312 11.8398 18.1335 11.6304 18.2588 11.3726V10.1802H17.48C16.2625 10.1802 15.6538 10.5365 15.6538 11.249C15.6538 11.5605 15.7576 11.804 15.9653 11.9795C16.173 12.1549 16.4398 12.2427 16.7656 12.2427Z" fill="#555555"/>
<path d="M21.8896 13H20.896V7.18848H21.8896V13ZM20.8154 5.64697C20.8154 5.48584 20.8638 5.34977 20.9604 5.23877C21.0607 5.12777 21.2075 5.07227 21.4009 5.07227C21.5942 5.07227 21.741 5.12777 21.8413 5.23877C21.9416 5.34977 21.9917 5.48584 21.9917 5.64697C21.9917 5.80811 21.9416 5.94238 21.8413 6.0498C21.741 6.15723 21.5942 6.21094 21.4009 6.21094C21.2075 6.21094 21.0607 6.15723 20.9604 6.0498C20.8638 5.94238 20.8154 5.80811 20.8154 5.64697Z" fill="#555555"/>
<path d="M26.2939 8.08008C26.1436 8.05501 25.9806 8.04248 25.8052 8.04248C25.1535 8.04248 24.7113 8.31999 24.4785 8.875V13H23.4849V7.18848H24.4517L24.4678 7.85986C24.7936 7.34066 25.2555 7.08105 25.8535 7.08105C26.0469 7.08105 26.1937 7.10612 26.2939 7.15625V8.08008Z" fill="#555555"/>
<path d="M35.0864 11.6304L36.2036 7.18848H37.1973L35.5054 13H34.6997L33.2871 8.5957L31.9121 13H31.1064L29.4199 7.18848H30.4082L31.5522 11.5391L32.9058 7.18848H33.7061L35.0864 11.6304Z" fill="#555555"/>
<path d="M40.624 13.1074C39.8363 13.1074 39.1953 12.8496 38.7012 12.334C38.207 11.8148 37.96 11.1219 37.96 10.2554V10.0728C37.96 9.49626 38.0692 8.98242 38.2876 8.53125C38.5096 8.0765 38.8175 7.72201 39.2114 7.46777C39.6089 7.20996 40.0386 7.08105 40.5005 7.08105C41.256 7.08105 41.8433 7.32992 42.2622 7.82764C42.6812 8.32536 42.8906 9.03792 42.8906 9.96533V10.3789H38.9536C38.9679 10.9518 39.1344 11.4155 39.4531 11.77C39.7754 12.1209 40.1836 12.2964 40.6777 12.2964C41.0286 12.2964 41.3258 12.2248 41.5693 12.0815C41.8128 11.9383 42.0259 11.7485 42.2085 11.5122L42.8154 11.9849C42.3285 12.7332 41.598 13.1074 40.624 13.1074ZM40.5005 7.89746C40.0994 7.89746 39.7629 8.04427 39.4907 8.33789C39.2186 8.62793 39.0503 9.03613 38.9858 9.5625H41.897V9.4873C41.8683 8.98242 41.7323 8.59212 41.4888 8.31641C41.2453 8.03711 40.9159 7.89746 40.5005 7.89746Z" fill="#555555"/>
<path d="M48.9653 10.1587C48.9653 11.0467 48.7612 11.7611 48.353 12.3018C47.9448 12.8389 47.397 13.1074 46.7095 13.1074C45.9754 13.1074 45.4079 12.8478 45.0068 12.3286L44.9585 13H44.0454V4.75H45.0391V7.82764C45.4401 7.32992 45.9933 7.08105 46.6987 7.08105C47.4041 7.08105 47.9574 7.34782 48.3584 7.88135C48.763 8.41488 48.9653 9.14535 48.9653 10.0728V10.1587ZM47.9717 10.0459C47.9717 9.36914 47.841 8.84635 47.5796 8.47754C47.3182 8.10872 46.9422 7.92432 46.4517 7.92432C45.7964 7.92432 45.3255 8.22868 45.0391 8.8374V11.3511C45.3434 11.9598 45.8179 12.2642 46.4624 12.2642C46.9386 12.2642 47.3092 12.0798 47.5742 11.7109C47.8392 11.3421 47.9717 10.7871 47.9717 10.0459Z" fill="#555555"/>
<path d="M56.5386 13C56.4813 12.8854 56.4347 12.6813 56.3989 12.3877C55.937 12.8675 55.3856 13.1074 54.7446 13.1074C54.1717 13.1074 53.7008 12.9463 53.332 12.624C52.9668 12.2982 52.7842 11.8864 52.7842 11.3887C52.7842 10.7835 53.0133 10.3145 53.4717 9.98145C53.9336 9.64486 54.5817 9.47656 55.416 9.47656H56.3828V9.02002C56.3828 8.67269 56.279 8.39697 56.0713 8.19287C55.8636 7.98519 55.5575 7.88135 55.1528 7.88135C54.7983 7.88135 54.5011 7.97087 54.2612 8.1499C54.0213 8.32894 53.9014 8.54557 53.9014 8.7998H52.9023C52.9023 8.50977 53.0044 8.23047 53.2085 7.96191C53.4162 7.68978 53.6955 7.47493 54.0464 7.31738C54.4009 7.15983 54.7894 7.08105 55.2119 7.08105C55.8815 7.08105 56.4061 7.24935 56.7856 7.58594C57.1652 7.91895 57.3621 8.37907 57.3765 8.96631V11.6411C57.3765 12.1746 57.4445 12.599 57.5806 12.9141V13H56.5386ZM54.8896 12.2427C55.2012 12.2427 55.4966 12.1621 55.7759 12.001C56.0552 11.8398 56.2575 11.6304 56.3828 11.3726V10.1802H55.604C54.3866 10.1802 53.7778 10.5365 53.7778 11.249C53.7778 11.5605 53.8817 11.804 54.0894 11.9795C54.297 12.1549 54.5638 12.2427 54.8896 12.2427Z" fill="#555555"/>
<path d="M59.874 7.18848L59.9062 7.91895C60.3503 7.36035 60.9303 7.08105 61.6465 7.08105C62.8747 7.08105 63.4941 7.77393 63.5049 9.15967V13H62.5112V9.1543C62.5076 8.73535 62.411 8.42562 62.2212 8.2251C62.035 8.02458 61.7432 7.92432 61.3457 7.92432C61.0234 7.92432 60.7406 8.01025 60.4971 8.18213C60.2536 8.354 60.0638 8.57959 59.9277 8.85889V13H58.9341V7.18848H59.874Z" fill="#555555"/>
<path d="M68.5913 13C68.534 12.8854 68.4875 12.6813 68.4517 12.3877C67.9897 12.8675 67.4383 13.1074 66.7974 13.1074C66.2244 13.1074 65.7536 12.9463 65.3848 12.624C65.0195 12.2982 64.8369 11.8864 64.8369 11.3887C64.8369 10.7835 65.0661 10.3145 65.5244 9.98145C65.9863 9.64486 66.6344 9.47656 67.4688 9.47656H68.4355V9.02002C68.4355 8.67269 68.3317 8.39697 68.124 8.19287C67.9163 7.98519 67.6102 7.88135 67.2056 7.88135C66.8511 7.88135 66.5539 7.97087 66.314 8.1499C66.0741 8.32894 65.9541 8.54557 65.9541 8.7998H64.9551C64.9551 8.50977 65.0571 8.23047 65.2612 7.96191C65.4689 7.68978 65.7482 7.47493 66.0991 7.31738C66.4536 7.15983 66.8421 7.08105 67.2646 7.08105C67.9342 7.08105 68.4588 7.24935 68.8384 7.58594C69.2179 7.91895 69.4149 8.37907 69.4292 8.96631V11.6411C69.4292 12.1746 69.4972 12.599 69.6333 12.9141V13H68.5913ZM66.9424 12.2427C67.2539 12.2427 67.5493 12.1621 67.8286 12.001C68.1079 11.8398 68.3102 11.6304 68.4355 11.3726V10.1802H67.6567C66.4393 10.1802 65.8306 10.5365 65.8306 11.249C65.8306 11.5605 65.9344 11.804 66.1421 11.9795C66.3498 12.1549 66.6165 12.2427 66.9424 12.2427Z" fill="#555555"/>
<path d="M72.0664 13H71.0728V4.75H72.0664V13Z" fill="#555555"/>
<path d="M75.563 11.5444L76.9165 7.18848H77.98L75.6436 13.897C75.2819 14.8638 74.7072 15.3472 73.9194 15.3472L73.7314 15.3311L73.3608 15.2612V14.4556L73.6294 14.4771C73.966 14.4771 74.2274 14.409 74.4136 14.2729C74.6034 14.1369 74.7591 13.888 74.8809 13.5264L75.1011 12.9355L73.0278 7.18848H74.1128L75.563 11.5444Z" fill="#555555"/>
<path d="M80.2197 5.78125V7.18848H81.3047V7.95654H80.2197V11.5605C80.2197 11.7933 80.2681 11.9688 80.3647 12.0869C80.4614 12.2015 80.6261 12.2588 80.8589 12.2588C80.9735 12.2588 81.131 12.2373 81.3315 12.1943V13C81.0701 13.0716 80.8159 13.1074 80.5688 13.1074C80.1248 13.1074 79.79 12.9731 79.5645 12.7046C79.3389 12.436 79.2261 12.0547 79.2261 11.5605V7.95654H78.168V7.18848H79.2261V5.78125H80.2197Z" fill="#555555"/>
<path d="M83.5498 13H82.5562V7.18848H83.5498V13ZM82.4756 5.64697C82.4756 5.48584 82.5239 5.34977 82.6206 5.23877C82.7209 5.12777 82.8677 5.07227 83.061 5.07227C83.2544 5.07227 83.4012 5.12777 83.5015 5.23877C83.6017 5.34977 83.6519 5.48584 83.6519 5.64697C83.6519 5.80811 83.6017 5.94238 83.5015 6.0498C83.4012 6.15723 83.2544 6.21094 83.061 6.21094C82.8677 6.21094 82.7209 6.15723 82.6206 6.0498C82.5239 5.94238 82.4756 5.80811 82.4756 5.64697Z" fill="#555555"/>
<path d="M87.4761 12.2964C87.8306 12.2964 88.1403 12.189 88.4053 11.9741C88.6702 11.7593 88.8171 11.4907 88.8457 11.1685H89.7856C89.7677 11.5015 89.6532 11.8184 89.4419 12.1191C89.2306 12.4199 88.9478 12.6598 88.5933 12.8389C88.2424 13.0179 87.87 13.1074 87.4761 13.1074C86.6847 13.1074 86.0545 12.8442 85.5854 12.3179C85.12 11.7879 84.8872 11.0646 84.8872 10.1479V9.98145C84.8872 9.41569 84.991 8.9126 85.1987 8.47217C85.4064 8.03174 85.7036 7.68978 86.0903 7.44629C86.4806 7.2028 86.9408 7.08105 87.4707 7.08105C88.1224 7.08105 88.6631 7.2762 89.0928 7.6665C89.526 8.0568 89.757 8.56348 89.7856 9.18652H88.8457C88.8171 8.81055 88.6738 8.5026 88.416 8.2627C88.1618 8.01921 87.8467 7.89746 87.4707 7.89746C86.9658 7.89746 86.5737 8.08008 86.2944 8.44531C86.0187 8.80697 85.8809 9.33154 85.8809 10.019V10.207C85.8809 10.8766 86.0187 11.3923 86.2944 11.7539C86.5701 12.1156 86.964 12.2964 87.4761 12.2964Z" fill="#555555"/>
<path d="M94.2866 11.4585C94.2866 11.1899 94.1846 10.9823 93.9805 10.8354C93.7799 10.6851 93.4272 10.5562 92.9224 10.4487C92.4211 10.3413 92.0218 10.2124 91.7246 10.062C91.431 9.91162 91.2126 9.73258 91.0693 9.5249C90.9297 9.31722 90.8599 9.07015 90.8599 8.78369C90.8599 8.30745 91.0604 7.90462 91.4614 7.5752C91.866 7.24577 92.3817 7.08105 93.0083 7.08105C93.6672 7.08105 94.2007 7.25114 94.6089 7.59131C95.0207 7.93148 95.2266 8.36654 95.2266 8.89648H94.2275C94.2275 8.62435 94.1112 8.38981 93.8784 8.19287C93.6493 7.99593 93.3592 7.89746 93.0083 7.89746C92.6466 7.89746 92.3638 7.97624 92.1597 8.13379C91.9556 8.29134 91.8535 8.49723 91.8535 8.75146C91.8535 8.99137 91.9484 9.1722 92.1382 9.29395C92.328 9.41569 92.6699 9.53206 93.1641 9.64307C93.6618 9.75407 94.0646 9.88656 94.3726 10.0405C94.6805 10.1945 94.9079 10.3807 95.0547 10.5991C95.2051 10.814 95.2803 11.0771 95.2803 11.3887C95.2803 11.9079 95.0726 12.325 94.6572 12.6401C94.2419 12.9517 93.703 13.1074 93.0405 13.1074C92.575 13.1074 92.1632 13.0251 91.8052 12.8604C91.4471 12.6956 91.166 12.4665 90.9619 12.1729C90.7614 11.8757 90.6611 11.5552 90.6611 11.2114H91.6548C91.6727 11.5444 91.8052 11.8094 92.0522 12.0063C92.3029 12.1997 92.6323 12.2964 93.0405 12.2964C93.4165 12.2964 93.7173 12.2212 93.9429 12.0708C94.172 11.9168 94.2866 11.7127 94.2866 11.4585Z" fill="#555555"/>
</svg>
